<?xml version="1.0" encoding="UTF-8" standalone="no"?>
<!DOCTYPE svg PUBLIC "-//W3C//DTD SVG 1.1//EN"
 "http://www.w3.org/Graphics/SVG/1.1/DTD/svg11.dtd">
<!-- Generated by graphviz version 2.43.0 (0)
 -->
<!-- Title: G Pages: 1 -->
<svg width="456pt" height="153pt"
 viewBox="0.00 0.00 456.49 152.79" xmlns="http://www.w3.org/2000/svg" xmlns:xlink="http://www.w3.org/1999/xlink">
<g id="graph0" class="graph" transform="scale(1 1) rotate(0) translate(4 148.79)">
<title>G</title>
<polygon fill="white" stroke="transparent" points="-4,4 -4,-148.79 452.49,-148.79 452.49,4 -4,4"/>
<!-- a1 -->
<g id="node1" class="node">
<title>a1</title>
<ellipse fill="none" stroke="black" cx="46.8" cy="-55.9" rx="46.59" ry="46.59"/>
<text text-anchor="middle" x="46.8" y="-52.2" font-family="Times,serif" font-size="14.00">$theta$</text>
</g>
<!-- a1&#45;&gt;a1 -->
<g id="edge2" class="edge">
<title>a1&#45;&gt;a1</title>
<path fill="none" stroke="black" d="M18.81,-93.51C17.4,-108.32 26.73,-120.69 46.8,-120.69 62,-120.69 71.04,-113.59 73.92,-103.7"/>
<polygon fill="black" stroke="black" points="77.42,-103.77 74.78,-93.51 70.45,-103.18 77.42,-103.77"/>
<text text-anchor="middle" x="46.8" y="-124.49" font-family="Times,serif" font-size="14.00">0</text>
</g>
<!-- a2 -->
<g id="node2" class="node">
<title>a2</title>
<ellipse fill="none" stroke="black" cx="356.49" cy="-55.9" rx="55.79" ry="55.79"/>
<text text-anchor="middle" x="356.49" y="-52.2" font-family="Times,serif" font-size="14.00">$1&#45;theta$</text>
</g>
<!-- a1&#45;&gt;a2 -->
<g id="edge1" class="edge">
<title>a1&#45;&gt;a2</title>
<path fill="none" stroke="black" d="M93.86,-55.9C145.97,-55.9 231.24,-55.9 290.2,-55.9"/>
<polygon fill="black" stroke="black" points="290.52,-59.4 300.52,-55.9 290.52,-52.4 290.52,-59.4"/>
<text text-anchor="middle" x="197.09" y="-59.7" font-family="Times,serif" font-size="14.00">1</text>
</g>
<!-- a2&#45;&gt;a1 -->
<g id="edge3" class="edge">
<title>a2&#45;&gt;a1</title>
<path fill="none" stroke="black" d="M302.45,-40.4C295.81,-38.96 289.08,-37.73 282.59,-36.9 207.21,-27.23 186.8,-25.93 111.59,-36.9 108.17,-37.39 104.68,-38.03 101.18,-38.78"/>
<polygon fill="black" stroke="black" points="100.27,-35.4 91.35,-41.11 101.89,-42.21 100.27,-35.4"/>
<text text-anchor="middle" x="197.09" y="-40.7" font-family="Times,serif" font-size="14.00">$frac{theta}{1&#45;theta}$</text>
</g>
<!-- a2&#45;&gt;a2 -->
<g id="edge4" class="edge">
<title>a2&#45;&gt;a2</title>
<path fill="none" stroke="black" d="M326.89,-103.51C327.49,-118.23 337.35,-129.79 356.49,-129.79 370.99,-129.79 380.16,-123.15 384.02,-113.53"/>
<polygon fill="black" stroke="black" points="387.49,-114.01 386.08,-103.51 380.64,-112.6 387.49,-114.01"/>
<text text-anchor="middle" x="356.49" y="-133.59" font-family="Times,serif" font-size="14.00">$1&#45;frac{theta}{1&#45;theta}$</text>
</g>
</g>
</svg>
