<?xml version="1.0" encoding="UTF-8" standalone="no"?>
<svg
   xmlns:dc="http://purl.org/dc/elements/1.1/"
   xmlns:cc="http://creativecommons.org/ns#"
   xmlns:rdf="http://www.w3.org/1999/02/22-rdf-syntax-ns#"
   xmlns:svg="http://www.w3.org/2000/svg"
   xmlns="http://www.w3.org/2000/svg"
   xmlns:sodipodi="http://sodipodi.sourceforge.net/DTD/sodipodi-0.dtd"
   xmlns:inkscape="http://www.inkscape.org/namespaces/inkscape"
   width="479.03439pt"
   height="421pt"
   viewBox="0 0 479.03439 421"
   version="1.1"
   id="svg3265"
   sodipodi:docname="model_BART.gv.svg"
   inkscape:version="1.0.2 (e86c870, 2021-01-15)">
  <text
     xml:space="preserve"
     style="font-size:14px;line-height:1.25;font-family:sans-serif;stroke-width:0.75"
     x="192.75317"
     y="45.322449"
     id="text3359"><tspan
       sodipodi:role="line"
       id="tspan3357"
       x="192.75317"
       y="45.322449"
       style="font-size:14px;stroke-width:0.75">$\gamma^{+} \sim Uniform(0,10)</tspan><tspan
       sodipodi:role="line"
       x="192.75317"
       y="62.822449"
       style="font-size:14px;stroke-width:0.75"
       id="tspan3452" /><tspan
       sodipodi:role="line"
       x="192.75317"
       y="80.322449"
       style="font-size:14px;stroke-width:0.75"
       id="tspan3385">\beta \sim Uniform(0,10)</tspan><tspan
       sodipodi:role="line"
       x="192.75317"
       y="97.822449"
       style="font-size:14px;stroke-width:0.75"
       id="tspan3474" /><tspan
       sodipodi:role="line"
       x="192.75317"
       y="115.32245"
       style="font-size:14px;stroke-width:0.75"
       id="tspan3476">\omega = -\frac{\gamma^{+}}{log(1-p)}</tspan><tspan
       sodipodi:role="line"
       x="192.75317"
       y="132.82245"
       style="font-size:14px;stroke-width:0.75"
       id="tspan3480" /><tspan
       sodipodi:role="line"
       x="192.75317"
       y="150.32245"
       style="font-size:14px;stroke-width:0.75"
       id="tspan3482">\theta_{jk} = \frac{1}{1+e^{\beta(k-w)}}</tspan><tspan
       sodipodi:role="line"
       x="192.75317"
       y="167.82245"
       style="font-size:14px;stroke-width:0.75"
       id="tspan3484" /><tspan
       sodipodi:role="line"
       x="192.75317"
       y="185.32245"
       style="font-size:14px;stroke-width:0.75"
       id="tspan3486">d_{jk} \sim Bernoulli(\theta_{jk})</tspan><tspan
       sodipodi:role="line"
       x="192.75317"
       y="202.82245"
       style="font-size:14px;stroke-width:0.75"
       id="tspan3478">$</tspan></text>
  <metadata
     id="metadata3271">
    <rdf:RDF>
      <cc:Work
         rdf:about="">
        <dc:format>image/svg+xml</dc:format>
        <dc:type
           rdf:resource="http://purl.org/dc/dcmitype/StillImage" />
      </cc:Work>
    </rdf:RDF>
  </metadata>
  <defs
     id="defs3269">
    <rect
       x="-160.26727"
       y="-85.127296"
       width="694.67438"
       height="555.71222"
       id="rect3389" />
  </defs>
  <sodipodi:namedview
     pagecolor="#ffffff"
     bordercolor="#666666"
     borderopacity="1"
     objecttolerance="10"
     gridtolerance="10"
     guidetolerance="10"
     inkscape:pageopacity="0"
     inkscape:pageshadow="2"
     inkscape:window-width="1848"
     inkscape:window-height="1016"
     id="namedview3267"
     showgrid="false"
     inkscape:zoom="0.76781473"
     inkscape:cx="109.33333"
     inkscape:cy="280.66667"
     inkscape:window-x="72"
     inkscape:window-y="27"
     inkscape:window-maximized="1"
     inkscape:current-layer="svg3265"
     inkscape:document-rotation="0" />
  <polygon
     fill="#ffffff"
     stroke="transparent"
     points="160,-417 160,4 -4,4 -4,-417 "
     id="polygon3165"
     transform="translate(4,417)" />
  <text
     text-anchor="middle"
     x="82"
     y="19.200012"
     font-family="Times, serif"
     font-size="14px"
     id="text3167"
     style="font-size:24.00000035px;">BART</text>
  <path
     fill="none"
     stroke="#000000"
     d="m 62,409 c 0,0 75,0 75,0 6,0 12,-6 12,-12 0,0 0,-206 0,-206 0,-6 -6,-12 -12,-12 0,0 -75,0 -75,0 -6,0 -12,6 -12,12 0,0 0,206 0,206 0,6 6,12 12,12"
     id="path3171" />
  <text
     text-anchor="middle"
     x="87"
     y="194.2"
     font-family="Times, serif"
     font-size="14px"
     id="text3173">$Choice_k$</text>
  <path
     fill="none"
     stroke="#000000"
     d="m 72,399 c 0,0 55,0 55,0 6,0 12,-6 12,-12 0,0 0,-163 0,-163 0,-6 -6,-12 -12,-12 0,0 -55,0 -55,0 -6,0 -12,6 -12,12 0,0 0,163 0,163 0,6 6,12 12,12"
     id="path3178" />
  <text
     text-anchor="middle"
     x="89"
     y="227.2"
     font-family="Times, serif"
     font-size="14px"
     id="text3180">$Trial_j$</text>
  <circle
     fill="#808080"
     stroke="#000000"
     cx="29"
     cy="52"
     id="ellipse3185"
     r="25" />
  <text
     text-anchor="middle"
     x="29"
     y="55.700012"
     font-family="Times, serif"
     font-size="14px"
     id="text3187">$p$</text>
  <circle
     fill="none"
     stroke="#000000"
     cx="63"
     cy="142"
     id="ellipse3192"
     r="25" />
  <circle
     fill="none"
     stroke="#000000"
     cx="63"
     cy="142"
     id="ellipse3194"
     r="29" />
  <text
     text-anchor="middle"
     x="63"
     y="145.70001"
     font-family="Times, serif"
     font-size="14px"
     id="text3196">$\omega$</text>
  <path
     fill="none"
     stroke="#000000"
     d="m 37.76,75.66 c 3.48,9.03 7.59,19.65 11.45,29.66"
     id="path3201" />
  <polygon
     fill="#000000"
     stroke="#000000"
     points="41.96,-310.4 48.49,-312.92 48.83,-302.33 "
     id="polygon3203"
     transform="translate(4,417)" />
  <circle
     fill="none"
     stroke="#000000"
     cx="99"
     cy="274"
     id="ellipse3208"
     r="25" />
  <circle
     fill="none"
     stroke="#000000"
     cx="99"
     cy="274"
     id="ellipse3210"
     r="29" />
  <text
     text-anchor="middle"
     x="99"
     y="277.70001"
     font-family="Times, serif"
     font-size="14px"
     id="text3212">$\theta_{jk}$</text>
  <path
     fill="none"
     stroke="#000000"
     d="m 70.55,170.25 c 5.28,19.07 12.39,44.77 18.19,65.69"
     id="path3217" />
  <polygon
     fill="#000000"
     stroke="#000000"
     points="81.42,-179.92 88.17,-181.79 87.46,-171.22 "
     id="polygon3219"
     transform="translate(4,417)" />
  <circle
     fill="none"
     stroke="#000000"
     cx="97"
     cy="52"
     id="ellipse3224"
     r="25" />
  <text
     text-anchor="middle"
     x="97"
     y="55.700012"
     font-family="Times, serif"
     font-size="14px"
     id="text3226">$\gamma^{+}$</text>
  <path
     fill="none"
     stroke="#000000"
     d="m 88.24,75.66 c -3.48,9.03 -7.59,19.65 -11.45,29.66"
     id="path3231" />
  <polygon
     fill="#000000"
     stroke="#000000"
     points="69.51,-312.92 76.04,-310.4 69.17,-302.33 "
     id="polygon3233"
     transform="translate(4,417)" />
  <polygon
     fill="#808080"
     stroke="#000000"
     points="120,-78 70,-78 70,-28 120,-28 "
     id="polygon3238"
     transform="translate(4,417)" />
  <text
     text-anchor="middle"
     x="99"
     y="367.70001"
     font-family="Times, serif"
     font-size="14px"
     id="text3240">$d_{jk}$</text>
  <path
     fill="none"
     stroke="#000000"
     d="m 99,303.33 c 0,8.05 0,16.91 0,25.29"
     id="path3245" />
  <polygon
     fill="#000000"
     stroke="#000000"
     points="91.5,-88.14 98.5,-88.14 95,-78.14 "
     id="polygon3247"
     transform="translate(4,417)" />
  <circle
     fill="none"
     stroke="#000000"
     cx="135"
     cy="142"
     id="ellipse3252"
     r="25" />
  <text
     text-anchor="middle"
     x="135"
     y="145.70001"
     font-family="Times, serif"
     font-size="14px"
     id="text3254">$\beta$</text>
  <path
     fill="none"
     stroke="#000000"
     d="m 128.56,166.24 c -5.36,19.38 -13.11,47.35 -19.32,69.8"
     id="path3259" />
  <polygon
     fill="#000000"
     stroke="#000000"
     points="101.8,-181.66 108.54,-179.79 102.5,-171.09 "
     id="polygon3261"
     transform="translate(4,417)" />
  <text
     xml:space="preserve"
     id="text3387"
     style="font-size:20px;line-height:1.25;font-family:sans-serif;white-space:pre;shape-inside:url(#rect3389);" />
</svg>
