<?xml version="1.0" encoding="UTF-8" standalone="no"?>
<svg
   xmlns:dc="http://purl.org/dc/elements/1.1/"
   xmlns:cc="http://creativecommons.org/ns#"
   xmlns:rdf="http://www.w3.org/1999/02/22-rdf-syntax-ns#"
   xmlns:svg="http://www.w3.org/2000/svg"
   xmlns="http://www.w3.org/2000/svg"
   xmlns:sodipodi="http://sodipodi.sourceforge.net/DTD/sodipodi-0.dtd"
   xmlns:inkscape="http://www.inkscape.org/namespaces/inkscape"
   width="342pt"
   height="522pt"
   viewBox="0.00 0.00 342.00 522.00"
   version="1.1"
   id="svg400"
   sodipodi:docname="model_BART_hierarchical.gv.svg"
   inkscape:version="1.0.2 (e86c870, 2021-01-15)">
  <metadata
     id="metadata406">
    <rdf:RDF>
      <cc:Work
         rdf:about="">
        <dc:format>image/svg+xml</dc:format>
        <dc:type
           rdf:resource="http://purl.org/dc/dcmitype/StillImage" />
        <dc:title></dc:title>
      </cc:Work>
    </rdf:RDF>
  </metadata>
  <defs
     id="defs404" />
  <sodipodi:namedview
     pagecolor="#ffffff"
     bordercolor="#666666"
     borderopacity="1"
     objecttolerance="10"
     gridtolerance="10"
     guidetolerance="10"
     inkscape:pageopacity="0"
     inkscape:pageshadow="2"
     inkscape:window-width="1848"
     inkscape:window-height="1016"
     id="namedview402"
     showgrid="false"
     inkscape:zoom="2.3706897"
     inkscape:cx="319.89169"
     inkscape:cy="249.92727"
     inkscape:window-x="72"
     inkscape:window-y="27"
     inkscape:window-maximized="1"
     inkscape:current-layer="svg400" />
  <polygon
     fill="#ffffff"
     stroke="transparent"
     points="338,-518 338,4 -4,4 -4,-518 "
     id="polygon237"
     transform="translate(4,518)" />
  <text
     text-anchor="middle"
     x="171"
     y="19.200012"
     font-family="Times, serif"
     font-size="14px"
     id="text239">BART</text>
  <path
     fill="none"
     stroke="#000000"
     d="m 76,510 c 0,0 122,0 122,0 6,0 12,-6 12,-12 0,0 0,-401 0,-401 0,-6 -6,-12 -12,-12 0,0 -122,0 -122,0 -6,0 -12,6 -12,12 0,0 0,401 0,401 0,6 6,12 12,12"
     id="path243" />
  <text
     text-anchor="middle"
     x="173"
     y="100.20001"
     font-family="Times, serif"
     font-size="14px"
     id="text245">$Conditions_i$</text>
  <path
     fill="none"
     stroke="#000000"
     d="m 99,500 c 0,0 75,0 75,0 6,0 12,-6 12,-12 0,0 0,-206 0,-206 0,-6 -6,-12 -12,-12 0,0 -75,0 -75,0 -6,0 -12,6 -12,12 0,0 0,206 0,206 0,6 6,12 12,12"
     id="path250" />
  <text
     text-anchor="middle"
     x="115"
     y="285.20001"
     font-family="Times, serif"
     font-size="14px"
     id="text252">$Choice_k$</text>
  <path
     fill="none"
     stroke="#000000"
     d="m 109,490 c 0,0 55,0 55,0 6,0 12,-6 12,-12 0,0 0,-163 0,-163 0,-6 -6,-12 -12,-12 0,0 -55,0 -55,0 -6,0 -12,6 -12,12 0,0 0,163 0,163 0,6 6,12 12,12"
     id="path257" />
  <text
     text-anchor="middle"
     x="121.5"
     y="318.20001"
     font-family="Times, serif"
     font-size="14px"
     id="text259">$Trial_j$</text>
  <circle
     fill="#808080"
     stroke="#000000"
     cx="29"
     cy="143"
     id="ellipse264"
     r="25" />
  <text
     text-anchor="middle"
     x="29"
     y="146.70001"
     font-family="Times, serif"
     font-size="14px"
     id="text266">$p$</text>
  <circle
     fill="none"
     stroke="#000000"
     cx="103"
     cy="233"
     id="ellipse271"
     r="25" />
  <circle
     fill="none"
     stroke="#000000"
     cx="103"
     cy="233"
     id="ellipse273"
     r="29" />
  <text
     text-anchor="middle"
     x="103"
     y="236.70001"
     font-family="Times, serif"
     font-size="14px"
     id="text275">$\omega_i$</text>
  <path
     fill="none"
     stroke="#000000"
     d="m 44.69,162.66 c 9.7,11.53 22.36,26.59 33.4,39.72"
     id="path280" />
  <polygon
     fill="#000000"
     stroke="#000000"
     points="80.72,-307.74 71.6,-313.14 76.96,-317.64 "
     id="polygon282"
     transform="translate(4,518)" />
  <circle
     fill="none"
     stroke="#000000"
     cx="136"
     cy="365"
     id="ellipse287"
     r="25" />
  <circle
     fill="none"
     stroke="#000000"
     cx="136"
     cy="365"
     id="ellipse289"
     r="29" />
  <text
     text-anchor="middle"
     x="136"
     y="368.70001"
     font-family="Times, serif"
     font-size="14px"
     id="text291">$\theta_{ijk}$</text>
  <path
     fill="none"
     stroke="#000000"
     d="m 109.92,261.25 c 4.84,19.07 11.36,44.77 16.67,65.69"
     id="path296" />
  <polygon
     fill="#000000"
     stroke="#000000"
     points="125.09,-181.22 119.24,-190.05 126.02,-191.77 "
     id="polygon298"
     transform="translate(4,518)" />
  <circle
     fill="none"
     stroke="#000000"
     cx="103"
     cy="143"
     id="ellipse303"
     r="25" />
  <text
     text-anchor="middle"
     x="103"
     y="146.70001"
     font-family="Times, serif"
     font-size="14px"
     id="text305">$\gamma_i^{+}$</text>
  <path
     fill="none"
     stroke="#000000"
     d="m 103,168.05 c 0,7.97 0,17.05 0,25.82"
     id="path310" />
  <polygon
     fill="#000000"
     stroke="#000000"
     points="99,-314.07 95.5,-324.07 102.5,-324.07 "
     id="polygon312"
     transform="translate(4,518)" />
  <circle
     fill="none"
     stroke="#000000"
     cx="69"
     cy="52"
     id="ellipse317"
     r="25" />
  <text
     text-anchor="middle"
     x="69"
     y="55.700012"
     font-family="Times, serif"
     font-size="14px"
     id="text319"
     style="font-size:8px">$\mu_{\gamma^{+}}$</text>
  <path
     fill="none"
     stroke="#000000"
     d="m 77.76,75.92 c 3.95,10.36 8.7,22.77 13,34.03"
     id="path324" />
  <polygon
     fill="#000000"
     stroke="#000000"
     points="90.39,-398.53 83.55,-406.63 90.09,-409.12 "
     id="polygon326"
     transform="translate(4,518)" />
  <circle
     fill="none"
     stroke="#000000"
     cx="137"
     cy="52"
     id="ellipse331"
     r="25" />
  <text
     text-anchor="middle"
     x="137"
     y="55.700012"
     font-family="Times, serif"
     font-size="14px"
     id="text333"
     style="font-size:8px">$\sigma_{\gamma^{+}}$</text>
  <path
     fill="none"
     stroke="#000000"
     d="m 128.24,75.92 c -3.95,10.36 -8.7,22.77 -13,34.03"
     id="path338" />
  <polygon
     fill="#000000"
     stroke="#000000"
     points="107.61,-398.53 107.91,-409.12 114.45,-406.63 "
     id="polygon340"
     transform="translate(4,518)" />
  <polygon
     fill="#808080"
     stroke="#000000"
     points="157,-88 107,-88 107,-38 157,-38 "
     id="polygon345"
     transform="translate(4,518)" />
  <text
     text-anchor="middle"
     x="136"
     y="458.70001"
     font-family="Times, serif"
     font-size="14px"
     id="text347" />
  <path
     fill="none"
     stroke="#000000"
     d="m 136,394.33 c 0,8.05 0,16.91 0,25.29"
     id="path352" />
  <polygon
     fill="#000000"
     stroke="#000000"
     points="132,-88.14 128.5,-98.14 135.5,-98.14 "
     id="polygon354"
     transform="translate(4,518)" />
  <circle
     fill="none"
     stroke="#000000"
     cx="175"
     cy="233"
     id="ellipse359"
     r="25" />
  <text
     text-anchor="middle"
     x="175"
     y="236.70001"
     font-family="Times, serif"
     font-size="14px"
     id="text361">$\beta_i$</text>
  <path
     fill="none"
     stroke="#000000"
     d="m 168.03,257.24 c -5.82,19.38 -14.21,47.35 -20.94,69.8"
     id="path366" />
  <polygon
     fill="#000000"
     stroke="#000000"
     points="140.13,-181.09 139.65,-191.67 146.35,-189.66 "
     id="polygon368"
     transform="translate(4,518)" />
  <circle
     fill="none"
     stroke="#000000"
     cx="245"
     cy="143"
     id="ellipse373"
     r="25" />
  <text
     text-anchor="middle"
     x="245"
     y="146.70001"
     font-family="Times, serif"
     font-size="14px"
     id="text375">$\mu_{\beta}$</text>
  <path
     fill="none"
     stroke="#000000"
     d="m 229.81,163.09 c -9.72,12.23 -22.49,28.28 -33.25,41.81"
     id="path380" />
  <polygon
     fill="#000000"
     stroke="#000000"
     points="186.16,-305.06 189.65,-315.06 195.12,-310.7 "
     id="polygon382"
     transform="translate(4,518)" />
  <circle
     fill="none"
     stroke="#000000"
     cx="313"
     cy="143"
     id="ellipse387"
     r="25" />
  <text
     text-anchor="middle"
     x="313"
     y="146.70001"
     font-family="Times, serif"
     font-size="14px"
     id="text389">$\sigma_{\beta}$</text>
  <path
     fill="none"
     stroke="#000000"
     d="m 293.01,158.43 c -4.57,3.2 -9.43,6.55 -14.01,9.57 -24.51,16.17 -52.94,33.58 -73.88,46.15"
     id="path394" />
  <polygon
     fill="#000000"
     stroke="#000000"
     points="192.36,-298.61 199.14,-306.75 202.74,-300.74 "
     id="polygon396"
     transform="translate(4,518)" />
  <text
     xml:space="preserve"
     style="font-size:20px;line-height:1.25;font-family:sans-serif;stroke-width:0.75"
     x="229.67444"
     y="249.22452"
     id="text548"><tspan
       sodipodi:role="line"
       x="229.67444"
       y="249.22452"
       style="stroke-width:0.75"
       id="tspan554">$\mu_{\gamma^{+}} \sim Uniform(0,10)$</tspan><tspan
       sodipodi:role="line"
       x="229.67444"
       y="274.22452"
       style="stroke-width:0.75"
       id="tspan550">$\sigma_{\gamma^{+}} \sim Uniform(0,10)$</tspan><tspan
       sodipodi:role="line"
       x="229.67444"
       y="299.22452"
       style="stroke-width:0.75"
       id="tspan552">$\mu_{\beta} \sim Uniform(0,10)$</tspan><tspan
       sodipodi:role="line"
       x="229.67444"
       y="324.22452"
       style="stroke-width:0.75"
       id="tspan558">$\sigma_{\beta} \sim Uniform(0,10)$</tspan><tspan
       sodipodi:role="line"
       x="229.67444"
       y="349.22452"
       style="stroke-width:0.75"
       id="tspan560">$\gamma_i^{+} \sim Normal(\mu_{\gamma^{+}}, \sigma_{\gamma^{+}})$</tspan><tspan
       sodipodi:role="line"
       x="229.67444"
       y="374.22452"
       style="stroke-width:0.75"
       id="tspan562">$\beta_i \sim Normal(\mu_{\beta}, \sigma_{\beta})$</tspan><tspan
       sodipodi:role="line"
       x="229.67444"
       y="399.22452"
       style="stroke-width:0.75"
       id="tspan564">$\omega_i = -frac{\gamma_i^{+}}{log(1-p)}$</tspan><tspan
       sodipodi:role="line"
       x="229.67444"
       y="424.22452"
       style="stroke-width:0.75"
       id="tspan566">$\theta_{ijk} = \frac{1}{1 + e^{\beta_i (k-\omega_i)}}$</tspan><tspan
       sodipodi:role="line"
       x="229.67444"
       y="449.22452"
       style="stroke-width:0.75"
       id="tspan568">$d_{ijk} \sim Bernoulli(\theta_{ijk})$</tspan></text>
  <text
     xml:space="preserve"
     style="font-size:20px;line-height:1.25;font-family:sans-serif;stroke-width:0.75"
     x="127.91072"
     y="455.97754"
     id="text982"><tspan
       sodipodi:role="line"
       id="tspan980"
       x="127.91072"
       y="455.97754"
       style="stroke-width:0.75">$d_{ijk}$</tspan></text>
</svg>
