<?xml version="1.0" encoding="utf-8" standalone="no"?>
<!DOCTYPE svg PUBLIC "-//W3C//DTD SVG 1.1//EN"
  "http://www.w3.org/Graphics/SVG/1.1/DTD/svg11.dtd">
<!-- Created with matplotlib (https://matplotlib.org/) -->
<svg height="576pt" version="1.1" viewBox="0 0 576 576" width="576pt" xmlns="http://www.w3.org/2000/svg" xmlns:xlink="http://www.w3.org/1999/xlink">
 <metadata>
  <rdf:RDF xmlns:cc="http://creativecommons.org/ns#" xmlns:dc="http://purl.org/dc/elements/1.1/" xmlns:rdf="http://www.w3.org/1999/02/22-rdf-syntax-ns#">
   <cc:Work>
    <dc:type rdf:resource="http://purl.org/dc/dcmitype/StillImage"/>
    <dc:date>2021-05-04T17:11:07.657342</dc:date>
    <dc:format>image/svg+xml</dc:format>
    <dc:creator>
     <cc:Agent>
      <dc:title>Matplotlib v3.3.3, https://matplotlib.org/</dc:title>
     </cc:Agent>
    </dc:creator>
   </cc:Work>
  </rdf:RDF>
 </metadata>
 <defs>
  <style type="text/css">*{stroke-linecap:butt;stroke-linejoin:round;}</style>
 </defs>
 <g id="figure_1">
  <g id="patch_1">
   <path d="M 0 576 
L 576 576 
L 576 0 
L 0 0 
z
" style="fill:none;"/>
  </g>
  <g id="axes_1">
   <g id="patch_2">
    <path d="M 10.8 261.6 
L 278.188142 261.6 
L 278.188142 41.8 
L 10.8 41.8 
z
" style="fill:#ffffff;"/>
   </g>
   <g id="matplotlib.axis_1">
    <g id="xtick_1">
     <g id="line2d_1">
      <defs>
       <path d="M 0 0 
L 0 3.5 
" id="m06cdd54473" style="stroke:#000000;stroke-width:0.8;"/>
      </defs>
      <g>
       <use style="stroke:#000000;stroke-width:0.8;" x="54.641578" xlink:href="#m06cdd54473" y="261.6"/>
      </g>
     </g>
     <g id="text_1">
      <!-- 0.80 -->
      <g transform="translate(39.05564 279.237813)scale(0.14 -0.14)">
       <defs>
        <path d="M 31.78125 66.40625 
Q 24.171875 66.40625 20.328125 58.90625 
Q 16.5 51.421875 16.5 36.375 
Q 16.5 21.390625 20.328125 13.890625 
Q 24.171875 6.390625 31.78125 6.390625 
Q 39.453125 6.390625 43.28125 13.890625 
Q 47.125 21.390625 47.125 36.375 
Q 47.125 51.421875 43.28125 58.90625 
Q 39.453125 66.40625 31.78125 66.40625 
z
M 31.78125 74.21875 
Q 44.046875 74.21875 50.515625 64.515625 
Q 56.984375 54.828125 56.984375 36.375 
Q 56.984375 17.96875 50.515625 8.265625 
Q 44.046875 -1.421875 31.78125 -1.421875 
Q 19.53125 -1.421875 13.0625 8.265625 
Q 6.59375 17.96875 6.59375 36.375 
Q 6.59375 54.828125 13.0625 64.515625 
Q 19.53125 74.21875 31.78125 74.21875 
z
" id="DejaVuSans-48"/>
        <path d="M 10.6875 12.40625 
L 21 12.40625 
L 21 0 
L 10.6875 0 
z
" id="DejaVuSans-46"/>
        <path d="M 31.78125 34.625 
Q 24.75 34.625 20.71875 30.859375 
Q 16.703125 27.09375 16.703125 20.515625 
Q 16.703125 13.921875 20.71875 10.15625 
Q 24.75 6.390625 31.78125 6.390625 
Q 38.8125 6.390625 42.859375 10.171875 
Q 46.921875 13.96875 46.921875 20.515625 
Q 46.921875 27.09375 42.890625 30.859375 
Q 38.875 34.625 31.78125 34.625 
z
M 21.921875 38.8125 
Q 15.578125 40.375 12.03125 44.71875 
Q 8.5 49.078125 8.5 55.328125 
Q 8.5 64.0625 14.71875 69.140625 
Q 20.953125 74.21875 31.78125 74.21875 
Q 42.671875 74.21875 48.875 69.140625 
Q 55.078125 64.0625 55.078125 55.328125 
Q 55.078125 49.078125 51.53125 44.71875 
Q 48 40.375 41.703125 38.8125 
Q 48.828125 37.15625 52.796875 32.3125 
Q 56.78125 27.484375 56.78125 20.515625 
Q 56.78125 9.90625 50.3125 4.234375 
Q 43.84375 -1.421875 31.78125 -1.421875 
Q 19.734375 -1.421875 13.25 4.234375 
Q 6.78125 9.90625 6.78125 20.515625 
Q 6.78125 27.484375 10.78125 32.3125 
Q 14.796875 37.15625 21.921875 38.8125 
z
M 18.3125 54.390625 
Q 18.3125 48.734375 21.84375 45.5625 
Q 25.390625 42.390625 31.78125 42.390625 
Q 38.140625 42.390625 41.71875 45.5625 
Q 45.3125 48.734375 45.3125 54.390625 
Q 45.3125 60.0625 41.71875 63.234375 
Q 38.140625 66.40625 31.78125 66.40625 
Q 25.390625 66.40625 21.84375 63.234375 
Q 18.3125 60.0625 18.3125 54.390625 
z
" id="DejaVuSans-56"/>
       </defs>
       <use xlink:href="#DejaVuSans-48"/>
       <use x="63.623047" xlink:href="#DejaVuSans-46"/>
       <use x="95.410156" xlink:href="#DejaVuSans-56"/>
       <use x="159.033203" xlink:href="#DejaVuSans-48"/>
      </g>
     </g>
    </g>
    <g id="xtick_2">
     <g id="line2d_2">
      <g>
       <use style="stroke:#000000;stroke-width:0.8;" x="107.573832" xlink:href="#m06cdd54473" y="261.6"/>
      </g>
     </g>
     <g id="text_2">
      <!-- 0.85 -->
      <g transform="translate(91.987894 279.237813)scale(0.14 -0.14)">
       <defs>
        <path d="M 10.796875 72.90625 
L 49.515625 72.90625 
L 49.515625 64.59375 
L 19.828125 64.59375 
L 19.828125 46.734375 
Q 21.96875 47.46875 24.109375 47.828125 
Q 26.265625 48.1875 28.421875 48.1875 
Q 40.625 48.1875 47.75 41.5 
Q 54.890625 34.8125 54.890625 23.390625 
Q 54.890625 11.625 47.5625 5.09375 
Q 40.234375 -1.421875 26.90625 -1.421875 
Q 22.3125 -1.421875 17.546875 -0.640625 
Q 12.796875 0.140625 7.71875 1.703125 
L 7.71875 11.625 
Q 12.109375 9.234375 16.796875 8.0625 
Q 21.484375 6.890625 26.703125 6.890625 
Q 35.15625 6.890625 40.078125 11.328125 
Q 45.015625 15.765625 45.015625 23.390625 
Q 45.015625 31 40.078125 35.4375 
Q 35.15625 39.890625 26.703125 39.890625 
Q 22.75 39.890625 18.8125 39.015625 
Q 14.890625 38.140625 10.796875 36.28125 
z
" id="DejaVuSans-53"/>
       </defs>
       <use xlink:href="#DejaVuSans-48"/>
       <use x="63.623047" xlink:href="#DejaVuSans-46"/>
       <use x="95.410156" xlink:href="#DejaVuSans-56"/>
       <use x="159.033203" xlink:href="#DejaVuSans-53"/>
      </g>
     </g>
    </g>
    <g id="xtick_3">
     <g id="line2d_3">
      <g>
       <use style="stroke:#000000;stroke-width:0.8;" x="160.506085" xlink:href="#m06cdd54473" y="261.6"/>
      </g>
     </g>
     <g id="text_3">
      <!-- 0.90 -->
      <g transform="translate(144.920148 279.237813)scale(0.14 -0.14)">
       <defs>
        <path d="M 10.984375 1.515625 
L 10.984375 10.5 
Q 14.703125 8.734375 18.5 7.8125 
Q 22.3125 6.890625 25.984375 6.890625 
Q 35.75 6.890625 40.890625 13.453125 
Q 46.046875 20.015625 46.78125 33.40625 
Q 43.953125 29.203125 39.59375 26.953125 
Q 35.25 24.703125 29.984375 24.703125 
Q 19.046875 24.703125 12.671875 31.3125 
Q 6.296875 37.9375 6.296875 49.421875 
Q 6.296875 60.640625 12.9375 67.421875 
Q 19.578125 74.21875 30.609375 74.21875 
Q 43.265625 74.21875 49.921875 64.515625 
Q 56.59375 54.828125 56.59375 36.375 
Q 56.59375 19.140625 48.40625 8.859375 
Q 40.234375 -1.421875 26.421875 -1.421875 
Q 22.703125 -1.421875 18.890625 -0.6875 
Q 15.09375 0.046875 10.984375 1.515625 
z
M 30.609375 32.421875 
Q 37.25 32.421875 41.125 36.953125 
Q 45.015625 41.5 45.015625 49.421875 
Q 45.015625 57.28125 41.125 61.84375 
Q 37.25 66.40625 30.609375 66.40625 
Q 23.96875 66.40625 20.09375 61.84375 
Q 16.21875 57.28125 16.21875 49.421875 
Q 16.21875 41.5 20.09375 36.953125 
Q 23.96875 32.421875 30.609375 32.421875 
z
" id="DejaVuSans-57"/>
       </defs>
       <use xlink:href="#DejaVuSans-48"/>
       <use x="63.623047" xlink:href="#DejaVuSans-46"/>
       <use x="95.410156" xlink:href="#DejaVuSans-57"/>
       <use x="159.033203" xlink:href="#DejaVuSans-48"/>
      </g>
     </g>
    </g>
    <g id="xtick_4">
     <g id="line2d_4">
      <g>
       <use style="stroke:#000000;stroke-width:0.8;" x="213.438339" xlink:href="#m06cdd54473" y="261.6"/>
      </g>
     </g>
     <g id="text_4">
      <!-- 0.95 -->
      <g transform="translate(197.852402 279.237813)scale(0.14 -0.14)">
       <use xlink:href="#DejaVuSans-48"/>
       <use x="63.623047" xlink:href="#DejaVuSans-46"/>
       <use x="95.410156" xlink:href="#DejaVuSans-57"/>
       <use x="159.033203" xlink:href="#DejaVuSans-53"/>
      </g>
     </g>
    </g>
    <g id="xtick_5">
     <g id="line2d_5">
      <g>
       <use style="stroke:#000000;stroke-width:0.8;" x="266.370593" xlink:href="#m06cdd54473" y="261.6"/>
      </g>
     </g>
     <g id="text_5">
      <!-- 1.00 -->
      <g transform="translate(250.784655 279.237813)scale(0.14 -0.14)">
       <defs>
        <path d="M 12.40625 8.296875 
L 28.515625 8.296875 
L 28.515625 63.921875 
L 10.984375 60.40625 
L 10.984375 69.390625 
L 28.421875 72.90625 
L 38.28125 72.90625 
L 38.28125 8.296875 
L 54.390625 8.296875 
L 54.390625 0 
L 12.40625 0 
z
" id="DejaVuSans-49"/>
       </defs>
       <use xlink:href="#DejaVuSans-49"/>
       <use x="63.623047" xlink:href="#DejaVuSans-46"/>
       <use x="95.410156" xlink:href="#DejaVuSans-48"/>
       <use x="159.033203" xlink:href="#DejaVuSans-48"/>
      </g>
     </g>
    </g>
   </g>
   <g id="matplotlib.axis_2"/>
   <g id="line2d_6">
    <path clip-path="url(#p54b59f48a5)" d="M 22.954006 250.172909 
L 25.332481 250.269685 
L 31.516516 250.669688 
L 41.50611 250.737136 
L 46.26306 250.880339 
L 49.592925 250.761283 
L 52.92279 250.441041 
L 56.252654 249.900206 
L 59.106824 249.188953 
L 64.339469 247.691839 
L 70.523503 246.214358 
L 74.329063 245.119321 
L 76.231843 244.795791 
L 79.561708 244.29199 
L 80.988793 243.850794 
L 82.891573 242.993321 
L 86.221437 241.333122 
L 87.648522 240.85199 
L 89.551302 240.484383 
L 91.929777 240.164931 
L 93.356862 239.744468 
L 94.308252 239.267051 
L 95.259642 238.594011 
L 96.211032 237.732655 
L 97.638117 236.107695 
L 99.540897 233.45955 
L 107.152016 222.223077 
L 109.530491 219.437167 
L 113.336051 215.360637 
L 114.763136 213.496778 
L 116.19022 211.258862 
L 118.093 207.800216 
L 124.277035 195.866496 
L 125.70412 192.704168 
L 127.131205 188.94778 
L 128.55829 184.53167 
L 130.46107 177.652703 
L 137.596494 150.135584 
L 139.974969 142.593003 
L 147.586088 119.927329 
L 156.148598 92.585087 
L 158.051378 85.49805 
L 159.478463 79.310595 
L 161.856938 67.540417 
L 163.284022 60.607839 
L 164.235412 56.696152 
L 165.186802 53.766761 
L 165.662497 52.776777 
L 166.138192 52.114917 
L 166.613887 51.790909 
L 167.089582 51.846289 
L 167.565277 52.241914 
L 168.040972 52.957688 
L 168.516667 54.017284 
L 169.468057 56.984395 
L 170.419447 60.801903 
L 174.225007 77.274862 
L 175.652092 81.923245 
L 177.079177 85.645889 
L 178.981956 89.959839 
L 183.263211 98.527961 
L 184.214601 99.591455 
L 184.690296 99.920733 
L 185.165991 100.010696 
L 185.641686 99.843148 
L 186.117381 99.44284 
L 186.593076 98.766892 
L 187.068771 97.784226 
L 188.020161 94.898174 
L 188.971551 90.945944 
L 190.398636 83.505828 
L 192.301416 73.049927 
L 193.252806 68.893681 
L 193.728501 67.367672 
L 194.204195 66.272038 
L 194.67989 65.627762 
L 195.155585 65.519538 
L 195.63128 65.93871 
L 196.106975 66.880326 
L 196.58267 68.318773 
L 197.53406 72.609989 
L 198.48545 78.448035 
L 199.912535 88.917705 
L 201.815315 103.168068 
L 203.2424 112.297688 
L 204.669485 119.517717 
L 206.09657 125.118855 
L 207.523655 129.571023 
L 208.95074 133.495301 
L 211.329214 139.368076 
L 213.231994 143.172603 
L 214.659079 145.478647 
L 216.086164 147.308055 
L 217.513249 148.729862 
L 220.367419 151.398105 
L 222.270199 153.630416 
L 223.697284 155.748157 
L 225.124368 158.368106 
L 226.551453 161.4387 
L 228.929928 167.315438 
L 231.784098 174.421073 
L 233.686878 178.557587 
L 235.589658 182.10671 
L 237.492438 185.058241 
L 238.919523 186.896399 
L 240.822302 188.952866 
L 243.200777 191.038597 
L 246.054947 193.16616 
L 247.006337 193.701501 
L 248.433422 194.18124 
L 249.384812 194.29709 
L 250.336202 194.179214 
L 251.763287 193.671745 
L 253.190372 192.838376 
L 255.568847 191.1559 
L 257.471626 189.823046 
L 258.898711 188.988116 
L 260.325796 188.410129 
L 261.752881 188.08739 
L 263.655661 187.95721 
L 266.034136 188.010527 
L 266.034136 188.010527 
" style="fill:none;stroke:#1f77b4;stroke-linecap:square;stroke-width:1.5;"/>
   </g>
   <g id="line2d_7">
    <path clip-path="url(#p54b59f48a5)" d="M 22.954006 250.987467 
L 22.954006 250.172909 
" style="fill:none;stroke:#1f77b4;stroke-linecap:square;stroke-width:1.5;"/>
   </g>
   <g id="line2d_8">
    <path clip-path="url(#p54b59f48a5)" d="M 266.034136 251.609091 
L 266.034136 188.010527 
" style="fill:none;stroke:#1f77b4;stroke-linecap:square;stroke-width:1.5;"/>
   </g>
   <g id="line2d_9">
    <defs>
     <path d="M 0 3 
C 0.795609 3 1.55874 2.683901 2.12132 2.12132 
C 2.683901 1.55874 3 0.795609 3 0 
C 3 -0.795609 2.683901 -1.55874 2.12132 -2.12132 
C 1.55874 -2.683901 0.795609 -3 0 -3 
C -0.795609 -3 -1.55874 -2.683901 -2.12132 -2.12132 
C -2.683901 -1.55874 -3 -0.795609 -3 0 
C -3 0.795609 -2.683901 1.55874 -2.12132 2.12132 
C -1.55874 2.683901 -0.795609 3 0 3 
z
" id="m2cb4370ede" style="stroke:#000000;"/>
    </defs>
    <g clip-path="url(#p54b59f48a5)">
     <use style="fill:#1f77b4;stroke:#000000;" x="181.713859" xlink:href="#m2cb4370ede" y="250.979402"/>
    </g>
   </g>
   <g id="patch_3">
    <path d="M 10.8 261.6 
L 278.188142 261.6 
" style="fill:none;stroke:#000000;stroke-linecap:square;stroke-linejoin:miter;stroke-width:0.8;"/>
   </g>
   <g id="text_6">
    <!-- Alpha  -->
    <g transform="translate(125.527509 24.18625)scale(0.12 -0.12)">
     <defs>
      <path d="M 34.1875 63.1875 
L 20.796875 26.90625 
L 47.609375 26.90625 
z
M 28.609375 72.90625 
L 39.796875 72.90625 
L 67.578125 0 
L 57.328125 0 
L 50.6875 18.703125 
L 17.828125 18.703125 
L 11.1875 0 
L 0.78125 0 
z
" id="DejaVuSans-65"/>
      <path d="M 9.421875 75.984375 
L 18.40625 75.984375 
L 18.40625 0 
L 9.421875 0 
z
" id="DejaVuSans-108"/>
      <path d="M 18.109375 8.203125 
L 18.109375 -20.796875 
L 9.078125 -20.796875 
L 9.078125 54.6875 
L 18.109375 54.6875 
L 18.109375 46.390625 
Q 20.953125 51.265625 25.265625 53.625 
Q 29.59375 56 35.59375 56 
Q 45.5625 56 51.78125 48.09375 
Q 58.015625 40.1875 58.015625 27.296875 
Q 58.015625 14.40625 51.78125 6.484375 
Q 45.5625 -1.421875 35.59375 -1.421875 
Q 29.59375 -1.421875 25.265625 0.953125 
Q 20.953125 3.328125 18.109375 8.203125 
z
M 48.6875 27.296875 
Q 48.6875 37.203125 44.609375 42.84375 
Q 40.53125 48.484375 33.40625 48.484375 
Q 26.265625 48.484375 22.1875 42.84375 
Q 18.109375 37.203125 18.109375 27.296875 
Q 18.109375 17.390625 22.1875 11.75 
Q 26.265625 6.109375 33.40625 6.109375 
Q 40.53125 6.109375 44.609375 11.75 
Q 48.6875 17.390625 48.6875 27.296875 
z
" id="DejaVuSans-112"/>
      <path d="M 54.890625 33.015625 
L 54.890625 0 
L 45.90625 0 
L 45.90625 32.71875 
Q 45.90625 40.484375 42.875 44.328125 
Q 39.84375 48.1875 33.796875 48.1875 
Q 26.515625 48.1875 22.3125 43.546875 
Q 18.109375 38.921875 18.109375 30.90625 
L 18.109375 0 
L 9.078125 0 
L 9.078125 75.984375 
L 18.109375 75.984375 
L 18.109375 46.1875 
Q 21.34375 51.125 25.703125 53.5625 
Q 30.078125 56 35.796875 56 
Q 45.21875 56 50.046875 50.171875 
Q 54.890625 44.34375 54.890625 33.015625 
z
" id="DejaVuSans-104"/>
      <path d="M 34.28125 27.484375 
Q 23.390625 27.484375 19.1875 25 
Q 14.984375 22.515625 14.984375 16.5 
Q 14.984375 11.71875 18.140625 8.90625 
Q 21.296875 6.109375 26.703125 6.109375 
Q 34.1875 6.109375 38.703125 11.40625 
Q 43.21875 16.703125 43.21875 25.484375 
L 43.21875 27.484375 
z
M 52.203125 31.203125 
L 52.203125 0 
L 43.21875 0 
L 43.21875 8.296875 
Q 40.140625 3.328125 35.546875 0.953125 
Q 30.953125 -1.421875 24.3125 -1.421875 
Q 15.921875 -1.421875 10.953125 3.296875 
Q 6 8.015625 6 15.921875 
Q 6 25.140625 12.171875 29.828125 
Q 18.359375 34.515625 30.609375 34.515625 
L 43.21875 34.515625 
L 43.21875 35.40625 
Q 43.21875 41.609375 39.140625 45 
Q 35.0625 48.390625 27.6875 48.390625 
Q 23 48.390625 18.546875 47.265625 
Q 14.109375 46.140625 10.015625 43.890625 
L 10.015625 52.203125 
Q 14.9375 54.109375 19.578125 55.046875 
Q 24.21875 56 28.609375 56 
Q 40.484375 56 46.34375 49.84375 
Q 52.203125 43.703125 52.203125 31.203125 
z
" id="DejaVuSans-97"/>
      <path id="DejaVuSans-32"/>
     </defs>
     <use xlink:href="#DejaVuSans-65"/>
     <use x="68.408203" xlink:href="#DejaVuSans-108"/>
     <use x="96.191406" xlink:href="#DejaVuSans-112"/>
     <use x="159.667969" xlink:href="#DejaVuSans-104"/>
     <use x="223.046875" xlink:href="#DejaVuSans-97"/>
     <use x="284.326172" xlink:href="#DejaVuSans-32"/>
    </g>
    <!--  risk aversion -->
    <g transform="translate(104.294071 37.623625)scale(0.12 -0.12)">
     <defs>
      <path d="M 41.109375 46.296875 
Q 39.59375 47.171875 37.8125 47.578125 
Q 36.03125 48 33.890625 48 
Q 26.265625 48 22.1875 43.046875 
Q 18.109375 38.09375 18.109375 28.8125 
L 18.109375 0 
L 9.078125 0 
L 9.078125 54.6875 
L 18.109375 54.6875 
L 18.109375 46.1875 
Q 20.953125 51.171875 25.484375 53.578125 
Q 30.03125 56 36.53125 56 
Q 37.453125 56 38.578125 55.875 
Q 39.703125 55.765625 41.0625 55.515625 
z
" id="DejaVuSans-114"/>
      <path d="M 9.421875 54.6875 
L 18.40625 54.6875 
L 18.40625 0 
L 9.421875 0 
z
M 9.421875 75.984375 
L 18.40625 75.984375 
L 18.40625 64.59375 
L 9.421875 64.59375 
z
" id="DejaVuSans-105"/>
      <path d="M 44.28125 53.078125 
L 44.28125 44.578125 
Q 40.484375 46.53125 36.375 47.5 
Q 32.28125 48.484375 27.875 48.484375 
Q 21.1875 48.484375 17.84375 46.4375 
Q 14.5 44.390625 14.5 40.28125 
Q 14.5 37.15625 16.890625 35.375 
Q 19.28125 33.59375 26.515625 31.984375 
L 29.59375 31.296875 
Q 39.15625 29.25 43.1875 25.515625 
Q 47.21875 21.78125 47.21875 15.09375 
Q 47.21875 7.46875 41.1875 3.015625 
Q 35.15625 -1.421875 24.609375 -1.421875 
Q 20.21875 -1.421875 15.453125 -0.5625 
Q 10.6875 0.296875 5.421875 2 
L 5.421875 11.28125 
Q 10.40625 8.6875 15.234375 7.390625 
Q 20.0625 6.109375 24.8125 6.109375 
Q 31.15625 6.109375 34.5625 8.28125 
Q 37.984375 10.453125 37.984375 14.40625 
Q 37.984375 18.0625 35.515625 20.015625 
Q 33.0625 21.96875 24.703125 23.78125 
L 21.578125 24.515625 
Q 13.234375 26.265625 9.515625 29.90625 
Q 5.8125 33.546875 5.8125 39.890625 
Q 5.8125 47.609375 11.28125 51.796875 
Q 16.75 56 26.8125 56 
Q 31.78125 56 36.171875 55.265625 
Q 40.578125 54.546875 44.28125 53.078125 
z
" id="DejaVuSans-115"/>
      <path d="M 9.078125 75.984375 
L 18.109375 75.984375 
L 18.109375 31.109375 
L 44.921875 54.6875 
L 56.390625 54.6875 
L 27.390625 29.109375 
L 57.625 0 
L 45.90625 0 
L 18.109375 26.703125 
L 18.109375 0 
L 9.078125 0 
z
" id="DejaVuSans-107"/>
      <path d="M 2.984375 54.6875 
L 12.5 54.6875 
L 29.59375 8.796875 
L 46.6875 54.6875 
L 56.203125 54.6875 
L 35.6875 0 
L 23.484375 0 
z
" id="DejaVuSans-118"/>
      <path d="M 56.203125 29.59375 
L 56.203125 25.203125 
L 14.890625 25.203125 
Q 15.484375 15.921875 20.484375 11.0625 
Q 25.484375 6.203125 34.421875 6.203125 
Q 39.59375 6.203125 44.453125 7.46875 
Q 49.3125 8.734375 54.109375 11.28125 
L 54.109375 2.78125 
Q 49.265625 0.734375 44.1875 -0.34375 
Q 39.109375 -1.421875 33.890625 -1.421875 
Q 20.796875 -1.421875 13.15625 6.1875 
Q 5.515625 13.8125 5.515625 26.8125 
Q 5.515625 40.234375 12.765625 48.109375 
Q 20.015625 56 32.328125 56 
Q 43.359375 56 49.78125 48.890625 
Q 56.203125 41.796875 56.203125 29.59375 
z
M 47.21875 32.234375 
Q 47.125 39.59375 43.09375 43.984375 
Q 39.0625 48.390625 32.421875 48.390625 
Q 24.90625 48.390625 20.390625 44.140625 
Q 15.875 39.890625 15.1875 32.171875 
z
" id="DejaVuSans-101"/>
      <path d="M 30.609375 48.390625 
Q 23.390625 48.390625 19.1875 42.75 
Q 14.984375 37.109375 14.984375 27.296875 
Q 14.984375 17.484375 19.15625 11.84375 
Q 23.34375 6.203125 30.609375 6.203125 
Q 37.796875 6.203125 41.984375 11.859375 
Q 46.1875 17.53125 46.1875 27.296875 
Q 46.1875 37.015625 41.984375 42.703125 
Q 37.796875 48.390625 30.609375 48.390625 
z
M 30.609375 56 
Q 42.328125 56 49.015625 48.375 
Q 55.71875 40.765625 55.71875 27.296875 
Q 55.71875 13.875 49.015625 6.21875 
Q 42.328125 -1.421875 30.609375 -1.421875 
Q 18.84375 -1.421875 12.171875 6.21875 
Q 5.515625 13.875 5.515625 27.296875 
Q 5.515625 40.765625 12.171875 48.375 
Q 18.84375 56 30.609375 56 
z
" id="DejaVuSans-111"/>
      <path d="M 54.890625 33.015625 
L 54.890625 0 
L 45.90625 0 
L 45.90625 32.71875 
Q 45.90625 40.484375 42.875 44.328125 
Q 39.84375 48.1875 33.796875 48.1875 
Q 26.515625 48.1875 22.3125 43.546875 
Q 18.109375 38.921875 18.109375 30.90625 
L 18.109375 0 
L 9.078125 0 
L 9.078125 54.6875 
L 18.109375 54.6875 
L 18.109375 46.1875 
Q 21.34375 51.125 25.703125 53.5625 
Q 30.078125 56 35.796875 56 
Q 45.21875 56 50.046875 50.171875 
Q 54.890625 44.34375 54.890625 33.015625 
z
" id="DejaVuSans-110"/>
     </defs>
     <use xlink:href="#DejaVuSans-32"/>
     <use x="31.787109" xlink:href="#DejaVuSans-114"/>
     <use x="72.900391" xlink:href="#DejaVuSans-105"/>
     <use x="100.683594" xlink:href="#DejaVuSans-115"/>
     <use x="152.783203" xlink:href="#DejaVuSans-107"/>
     <use x="210.693359" xlink:href="#DejaVuSans-32"/>
     <use x="242.480469" xlink:href="#DejaVuSans-97"/>
     <use x="303.759766" xlink:href="#DejaVuSans-118"/>
     <use x="362.939453" xlink:href="#DejaVuSans-101"/>
     <use x="424.462891" xlink:href="#DejaVuSans-114"/>
     <use x="465.576172" xlink:href="#DejaVuSans-115"/>
     <use x="517.675781" xlink:href="#DejaVuSans-105"/>
     <use x="545.458984" xlink:href="#DejaVuSans-111"/>
     <use x="606.640625" xlink:href="#DejaVuSans-110"/>
    </g>
   </g>
  </g>
  <g id="axes_2">
   <g id="patch_4">
    <path d="M 295.844921 261.6 
L 563.233064 261.6 
L 563.233064 41.8 
L 295.844921 41.8 
z
" style="fill:#ffffff;"/>
   </g>
   <g id="matplotlib.axis_3">
    <g id="xtick_6">
     <g id="line2d_10">
      <g>
       <use style="stroke:#000000;stroke-width:0.8;" x="337.353085" xlink:href="#m06cdd54473" y="261.6"/>
      </g>
     </g>
     <g id="text_7">
      <!-- 0.2 -->
      <g transform="translate(326.220897 279.237813)scale(0.14 -0.14)">
       <defs>
        <path d="M 19.1875 8.296875 
L 53.609375 8.296875 
L 53.609375 0 
L 7.328125 0 
L 7.328125 8.296875 
Q 12.9375 14.109375 22.625 23.890625 
Q 32.328125 33.6875 34.8125 36.53125 
Q 39.546875 41.84375 41.421875 45.53125 
Q 43.3125 49.21875 43.3125 52.78125 
Q 43.3125 58.59375 39.234375 62.25 
Q 35.15625 65.921875 28.609375 65.921875 
Q 23.96875 65.921875 18.8125 64.3125 
Q 13.671875 62.703125 7.8125 59.421875 
L 7.8125 69.390625 
Q 13.765625 71.78125 18.9375 73 
Q 24.125 74.21875 28.421875 74.21875 
Q 39.75 74.21875 46.484375 68.546875 
Q 53.21875 62.890625 53.21875 53.421875 
Q 53.21875 48.921875 51.53125 44.890625 
Q 49.859375 40.875 45.40625 35.40625 
Q 44.1875 33.984375 37.640625 27.21875 
Q 31.109375 20.453125 19.1875 8.296875 
z
" id="DejaVuSans-50"/>
       </defs>
       <use xlink:href="#DejaVuSans-48"/>
       <use x="63.623047" xlink:href="#DejaVuSans-46"/>
       <use x="95.410156" xlink:href="#DejaVuSans-50"/>
      </g>
     </g>
    </g>
    <g id="xtick_7">
     <g id="line2d_11">
      <g>
       <use style="stroke:#000000;stroke-width:0.8;" x="390.826607" xlink:href="#m06cdd54473" y="261.6"/>
      </g>
     </g>
     <g id="text_8">
      <!-- 0.4 -->
      <g transform="translate(379.69442 279.237813)scale(0.14 -0.14)">
       <defs>
        <path d="M 37.796875 64.3125 
L 12.890625 25.390625 
L 37.796875 25.390625 
z
M 35.203125 72.90625 
L 47.609375 72.90625 
L 47.609375 25.390625 
L 58.015625 25.390625 
L 58.015625 17.1875 
L 47.609375 17.1875 
L 47.609375 0 
L 37.796875 0 
L 37.796875 17.1875 
L 4.890625 17.1875 
L 4.890625 26.703125 
z
" id="DejaVuSans-52"/>
       </defs>
       <use xlink:href="#DejaVuSans-48"/>
       <use x="63.623047" xlink:href="#DejaVuSans-46"/>
       <use x="95.410156" xlink:href="#DejaVuSans-52"/>
      </g>
     </g>
    </g>
    <g id="xtick_8">
     <g id="line2d_12">
      <g>
       <use style="stroke:#000000;stroke-width:0.8;" x="444.30013" xlink:href="#m06cdd54473" y="261.6"/>
      </g>
     </g>
     <g id="text_9">
      <!-- 0.6 -->
      <g transform="translate(433.167942 279.237813)scale(0.14 -0.14)">
       <defs>
        <path d="M 33.015625 40.375 
Q 26.375 40.375 22.484375 35.828125 
Q 18.609375 31.296875 18.609375 23.390625 
Q 18.609375 15.53125 22.484375 10.953125 
Q 26.375 6.390625 33.015625 6.390625 
Q 39.65625 6.390625 43.53125 10.953125 
Q 47.40625 15.53125 47.40625 23.390625 
Q 47.40625 31.296875 43.53125 35.828125 
Q 39.65625 40.375 33.015625 40.375 
z
M 52.59375 71.296875 
L 52.59375 62.3125 
Q 48.875 64.0625 45.09375 64.984375 
Q 41.3125 65.921875 37.59375 65.921875 
Q 27.828125 65.921875 22.671875 59.328125 
Q 17.53125 52.734375 16.796875 39.40625 
Q 19.671875 43.65625 24.015625 45.921875 
Q 28.375 48.1875 33.59375 48.1875 
Q 44.578125 48.1875 50.953125 41.515625 
Q 57.328125 34.859375 57.328125 23.390625 
Q 57.328125 12.15625 50.6875 5.359375 
Q 44.046875 -1.421875 33.015625 -1.421875 
Q 20.359375 -1.421875 13.671875 8.265625 
Q 6.984375 17.96875 6.984375 36.375 
Q 6.984375 53.65625 15.1875 63.9375 
Q 23.390625 74.21875 37.203125 74.21875 
Q 40.921875 74.21875 44.703125 73.484375 
Q 48.484375 72.75 52.59375 71.296875 
z
" id="DejaVuSans-54"/>
       </defs>
       <use xlink:href="#DejaVuSans-48"/>
       <use x="63.623047" xlink:href="#DejaVuSans-46"/>
       <use x="95.410156" xlink:href="#DejaVuSans-54"/>
      </g>
     </g>
    </g>
    <g id="xtick_9">
     <g id="line2d_13">
      <g>
       <use style="stroke:#000000;stroke-width:0.8;" x="497.773652" xlink:href="#m06cdd54473" y="261.6"/>
      </g>
     </g>
     <g id="text_10">
      <!-- 0.8 -->
      <g transform="translate(486.641465 279.237813)scale(0.14 -0.14)">
       <use xlink:href="#DejaVuSans-48"/>
       <use x="63.623047" xlink:href="#DejaVuSans-46"/>
       <use x="95.410156" xlink:href="#DejaVuSans-56"/>
      </g>
     </g>
    </g>
    <g id="xtick_10">
     <g id="line2d_14">
      <g>
       <use style="stroke:#000000;stroke-width:0.8;" x="551.247174" xlink:href="#m06cdd54473" y="261.6"/>
      </g>
     </g>
     <g id="text_11">
      <!-- 1.0 -->
      <g transform="translate(540.114987 279.237813)scale(0.14 -0.14)">
       <use xlink:href="#DejaVuSans-49"/>
       <use x="63.623047" xlink:href="#DejaVuSans-46"/>
       <use x="95.410156" xlink:href="#DejaVuSans-48"/>
      </g>
     </g>
    </g>
   </g>
   <g id="matplotlib.axis_4"/>
   <g id="line2d_15">
    <path clip-path="url(#pe0f94842fa)" d="M 307.998928 250.788856 
L 310.308517 251.057164 
L 317.699204 251.47402 
L 328.323315 251.462767 
L 330.170987 251.323795 
L 333.86633 250.841458 
L 335.714002 251.163452 
L 337.561673 251.419901 
L 340.333181 251.482016 
L 344.490442 251.407537 
L 347.261949 251.081712 
L 349.571539 250.703921 
L 350.957292 250.447633 
L 351.881128 250.45483 
L 353.266882 250.806522 
L 354.652636 251.213629 
L 356.038389 251.376948 
L 357.886061 251.247263 
L 360.657568 250.924249 
L 362.043322 250.9852 
L 365.738665 251.360752 
L 368.048255 251.169651 
L 371.28168 250.85153 
L 373.129351 250.261632 
L 374.515105 249.868554 
L 378.210448 249.164619 
L 379.596202 248.499182 
L 380.520038 248.047173 
L 381.443874 247.829198 
L 382.367709 247.90282 
L 383.753463 248.165134 
L 384.677299 248.077467 
L 385.601135 247.677843 
L 386.986888 246.719042 
L 388.83456 245.121339 
L 392.529903 241.507434 
L 396.225246 238.649742 
L 397.149082 237.417957 
L 398.072918 235.650585 
L 399.458672 232.205713 
L 402.230179 224.294855 
L 403.154015 221.164174 
L 404.077851 217.370635 
L 408.69703 195.808414 
L 409.620865 189.82616 
L 412.392373 169.281393 
L 413.316209 164.398593 
L 414.701962 158.935269 
L 416.087716 153.491157 
L 419.783059 136.934581 
L 421.168813 128.415034 
L 422.092649 122.620304 
L 422.554566 120.371508 
L 423.016484 118.799383 
L 423.478402 118.026731 
L 423.94032 118.060985 
L 424.402238 118.811655 
L 425.787992 122.128313 
L 426.24991 122.632984 
L 426.711828 122.474877 
L 427.173745 121.772269 
L 428.559499 118.421784 
L 429.021417 117.797554 
L 429.483335 117.653654 
L 429.945253 117.945946 
L 430.869089 119.008376 
L 431.331007 119.110426 
L 431.792924 118.80568 
L 432.254842 117.87839 
L 432.71676 116.304865 
L 433.178678 114.044988 
L 434.102514 107.675514 
L 435.488268 97.118381 
L 435.950185 95.075661 
L 436.412103 94.740853 
L 436.874021 96.391367 
L 437.335939 100.100749 
L 438.259775 112.356809 
L 439.645529 133.326221 
L 440.569364 143.646428 
L 441.4932 150.373225 
L 442.417036 154.410031 
L 442.878954 155.570883 
L 443.340872 155.89532 
L 443.80279 155.37945 
L 444.264708 153.792004 
L 444.726626 151.118533 
L 445.188543 147.271392 
L 446.112379 136.694134 
L 447.036215 125.184754 
L 447.498133 120.73389 
L 447.960051 118.100252 
L 448.421969 117.867992 
L 448.883887 120.241062 
L 449.345805 125.231019 
L 450.26964 141.523542 
L 452.117312 180.470287 
L 453.041148 194.289404 
L 453.503066 199.132196 
L 453.964983 202.759472 
L 454.426901 205.446644 
L 455.350737 209.015597 
L 457.198409 215.031436 
L 459.04608 221.650766 
L 459.969916 224.208493 
L 462.741424 230.689804 
L 463.665259 232.599573 
L 464.589095 233.919403 
L 465.051013 234.293428 
L 465.512931 234.471532 
L 465.974849 234.396075 
L 466.436767 234.027424 
L 466.898685 233.303021 
L 467.360602 232.219874 
L 468.284438 229.12266 
L 469.208274 225.773334 
L 469.670192 224.565397 
L 470.13211 223.954855 
L 470.594028 224.066772 
L 471.055946 224.926177 
L 471.517864 226.431533 
L 472.441699 230.592809 
L 473.365535 234.890817 
L 474.289371 238.246112 
L 475.213207 240.588049 
L 476.59896 243.23831 
L 477.522796 244.687023 
L 478.446632 245.709646 
L 478.90855 245.992898 
L 479.370468 246.130741 
L 480.294304 246.114482 
L 481.218139 246.069734 
L 482.141975 246.267458 
L 483.527729 246.897553 
L 484.913483 247.403251 
L 488.146908 248.102549 
L 490.918415 249.38759 
L 492.304169 249.569052 
L 494.613758 249.517339 
L 497.385266 249.35553 
L 498.77102 249.718358 
L 500.156773 250.150377 
L 501.080609 250.234666 
L 502.004445 250.095162 
L 503.852116 249.669513 
L 504.775952 249.758093 
L 507.085542 250.318864 
L 509.857049 250.533487 
L 511.704721 250.865237 
L 513.090474 250.840146 
L 515.400064 250.68475 
L 516.785817 250.848186 
L 519.557325 251.363923 
L 520.943079 251.369195 
L 522.328832 251.168599 
L 524.638422 250.762263 
L 527.409929 250.640115 
L 530.181437 249.942206 
L 531.105272 250.071998 
L 533.87678 250.895134 
L 535.262533 250.877998 
L 536.648287 250.843999 
L 538.495959 251.109345 
L 540.34363 251.317799 
L 541.729384 251.198543 
L 544.038973 250.812181 
L 544.038973 250.812181 
" style="fill:none;stroke:#1f77b4;stroke-linecap:square;stroke-width:1.5;"/>
   </g>
   <g id="line2d_16">
    <path clip-path="url(#pe0f94842fa)" d="M 307.998928 251.488947 
L 307.998928 250.788856 
" style="fill:none;stroke:#1f77b4;stroke-linecap:square;stroke-width:1.5;"/>
   </g>
   <g id="line2d_17">
    <path clip-path="url(#pe0f94842fa)" d="M 544.038973 251.488714 
L 544.038973 250.812181 
" style="fill:none;stroke:#1f77b4;stroke-linecap:square;stroke-width:1.5;"/>
   </g>
   <g id="line2d_18">
    <g clip-path="url(#pe0f94842fa)">
     <use style="fill:#1f77b4;stroke:#000000;" x="432.964693" xlink:href="#m2cb4370ede" y="251.482016"/>
    </g>
   </g>
   <g id="line2d_19">
    <path clip-path="url(#pe0f94842fa)" d="M 389.646425 250.53829 
L 390.910086 250.638061 
L 395.648813 251.313593 
L 397.860219 251.073258 
L 399.75571 250.962151 
L 401.6512 251.066457 
L 404.178521 251.257268 
L 407.653588 251.185261 
L 410.812739 251.464244 
L 416.815127 251.482016 
L 433.558629 251.372148 
L 436.71778 251.131813 
L 441.456507 251.396465 
L 447.458894 250.83698 
L 449.03847 250.68928 
L 451.565791 250.62823 
L 454.093112 250.172752 
L 455.040857 250.352328 
L 456.936348 250.812458 
L 458.200009 250.758119 
L 461.675075 250.346148 
L 463.570566 249.715573 
L 464.202396 249.708694 
L 466.097887 249.990624 
L 466.729717 249.851397 
L 467.361548 249.506771 
L 468.625208 248.435628 
L 469.572954 247.67607 
L 470.520699 247.216108 
L 472.100275 246.719539 
L 472.732105 246.29963 
L 473.363935 245.643623 
L 474.627596 243.808289 
L 476.207171 241.061821 
L 477.154917 238.928562 
L 478.102662 236.056745 
L 481.577729 224.014454 
L 483.789134 217.622313 
L 484.73688 214.055943 
L 485.36871 210.862299 
L 486.00054 206.77194 
L 486.948286 199.05363 
L 488.211946 186.352119 
L 489.159692 174.918536 
L 490.107437 161.468751 
L 491.055182 145.164099 
L 492.002928 124.571469 
L 494.530249 62.408947 
L 495.162079 54.335494 
L 495.477994 52.392856 
L 495.793909 51.790909 
L 496.109825 52.444181 
L 496.42574 54.190039 
L 497.05757 60.440203 
L 499.268976 88.500769 
L 499.584891 90.657627 
L 499.900806 92.003624 
L 500.216721 92.402465 
L 500.532636 92.061225 
L 500.848552 91.13329 
L 501.480382 87.563101 
L 503.059957 76.742372 
L 503.691788 74.036987 
L 504.007703 73.213491 
L 504.323618 72.752719 
L 504.639533 72.631071 
L 504.955448 72.725215 
L 505.271363 72.946704 
L 506.219109 74.09368 
L 506.535024 74.302315 
L 506.850939 74.362191 
L 507.166854 74.218367 
L 507.798684 73.360439 
L 508.74643 71.721478 
L 509.062345 71.490899 
L 509.37826 71.534827 
L 509.694175 71.978424 
L 510.01009 72.924773 
L 510.326005 74.43515 
L 510.957836 79.082756 
L 511.905581 89.117049 
L 513.801072 110.961201 
L 515.064732 122.557082 
L 516.012478 129.442805 
L 517.276138 136.251105 
L 518.223884 141.621209 
L 518.855714 146.430368 
L 519.803459 155.667538 
L 521.383035 171.531201 
L 522.014865 176.25023 
L 522.646696 179.752096 
L 523.594441 183.372057 
L 525.174017 188.56402 
L 527.069507 196.493007 
L 529.596828 207.239832 
L 531.176404 214.059125 
L 532.440065 218.173332 
L 533.703725 222.339199 
L 535.599216 228.839774 
L 536.862876 232.228415 
L 538.758367 236.753867 
L 539.706113 238.456228 
L 540.337943 239.20691 
L 540.969773 239.636781 
L 541.917519 239.883846 
L 543.181179 239.992281 
L 544.128924 240.379915 
L 545.07667 241.078051 
L 546.024415 241.754041 
L 546.656246 241.903634 
L 547.288076 241.695524 
L 547.919906 241.117626 
L 549.499482 239.361154 
L 550.131312 238.974805 
L 550.763142 238.804767 
L 551.079057 238.77448 
L 551.079057 238.77448 
" style="fill:none;stroke:#ff7f0e;stroke-linecap:square;stroke-width:1.5;"/>
   </g>
   <g id="line2d_20">
    <path clip-path="url(#pe0f94842fa)" d="M 389.646425 251.491453 
L 389.646425 250.53829 
" style="fill:none;stroke:#ff7f0e;stroke-linecap:square;stroke-width:1.5;"/>
   </g>
   <g id="line2d_21">
    <path clip-path="url(#pe0f94842fa)" d="M 551.079057 251.609091 
L 551.079057 238.77448 
" style="fill:none;stroke:#ff7f0e;stroke-linecap:square;stroke-width:1.5;"/>
   </g>
   <g id="line2d_22">
    <defs>
     <path d="M 0 3 
C 0.795609 3 1.55874 2.683901 2.12132 2.12132 
C 2.683901 1.55874 3 0.795609 3 0 
C 3 -0.795609 2.683901 -1.55874 2.12132 -2.12132 
C 1.55874 -2.683901 0.795609 -3 0 -3 
C -0.795609 -3 -1.55874 -2.683901 -2.12132 -2.12132 
C -2.683901 -1.55874 -3 -0.795609 -3 0 
C -3 0.795609 -2.683901 1.55874 -2.12132 2.12132 
C -1.55874 2.683901 -0.795609 3 0 3 
z
" id="ma605aff1f4" style="stroke:#000000;"/>
    </defs>
    <g clip-path="url(#pe0f94842fa)">
     <use style="fill:#ff7f0e;stroke:#000000;" x="506.227008" xlink:href="#ma605aff1f4" y="251.482016"/>
    </g>
   </g>
   <g id="line2d_23"/>
   <g id="line2d_24"/>
   <g id="patch_5">
    <path d="M 295.844921 261.6 
L 563.233064 261.6 
" style="fill:none;stroke:#000000;stroke-linecap:square;stroke-linejoin:miter;stroke-width:0.8;"/>
   </g>
   <g id="text_12">
    <!-- Prob. non-linearities -->
    <g transform="translate(369.484618 35.8)scale(0.12 -0.12)">
     <defs>
      <path d="M 19.671875 64.796875 
L 19.671875 37.40625 
L 32.078125 37.40625 
Q 38.96875 37.40625 42.71875 40.96875 
Q 46.484375 44.53125 46.484375 51.125 
Q 46.484375 57.671875 42.71875 61.234375 
Q 38.96875 64.796875 32.078125 64.796875 
z
M 9.8125 72.90625 
L 32.078125 72.90625 
Q 44.34375 72.90625 50.609375 67.359375 
Q 56.890625 61.8125 56.890625 51.125 
Q 56.890625 40.328125 50.609375 34.8125 
Q 44.34375 29.296875 32.078125 29.296875 
L 19.671875 29.296875 
L 19.671875 0 
L 9.8125 0 
z
" id="DejaVuSans-80"/>
      <path d="M 48.6875 27.296875 
Q 48.6875 37.203125 44.609375 42.84375 
Q 40.53125 48.484375 33.40625 48.484375 
Q 26.265625 48.484375 22.1875 42.84375 
Q 18.109375 37.203125 18.109375 27.296875 
Q 18.109375 17.390625 22.1875 11.75 
Q 26.265625 6.109375 33.40625 6.109375 
Q 40.53125 6.109375 44.609375 11.75 
Q 48.6875 17.390625 48.6875 27.296875 
z
M 18.109375 46.390625 
Q 20.953125 51.265625 25.265625 53.625 
Q 29.59375 56 35.59375 56 
Q 45.5625 56 51.78125 48.09375 
Q 58.015625 40.1875 58.015625 27.296875 
Q 58.015625 14.40625 51.78125 6.484375 
Q 45.5625 -1.421875 35.59375 -1.421875 
Q 29.59375 -1.421875 25.265625 0.953125 
Q 20.953125 3.328125 18.109375 8.203125 
L 18.109375 0 
L 9.078125 0 
L 9.078125 75.984375 
L 18.109375 75.984375 
z
" id="DejaVuSans-98"/>
      <path d="M 4.890625 31.390625 
L 31.203125 31.390625 
L 31.203125 23.390625 
L 4.890625 23.390625 
z
" id="DejaVuSans-45"/>
      <path d="M 18.3125 70.21875 
L 18.3125 54.6875 
L 36.8125 54.6875 
L 36.8125 47.703125 
L 18.3125 47.703125 
L 18.3125 18.015625 
Q 18.3125 11.328125 20.140625 9.421875 
Q 21.96875 7.515625 27.59375 7.515625 
L 36.8125 7.515625 
L 36.8125 0 
L 27.59375 0 
Q 17.1875 0 13.234375 3.875 
Q 9.28125 7.765625 9.28125 18.015625 
L 9.28125 47.703125 
L 2.6875 47.703125 
L 2.6875 54.6875 
L 9.28125 54.6875 
L 9.28125 70.21875 
z
" id="DejaVuSans-116"/>
     </defs>
     <use xlink:href="#DejaVuSans-80"/>
     <use x="58.552734" xlink:href="#DejaVuSans-114"/>
     <use x="97.416016" xlink:href="#DejaVuSans-111"/>
     <use x="158.597656" xlink:href="#DejaVuSans-98"/>
     <use x="222.074219" xlink:href="#DejaVuSans-46"/>
     <use x="253.861328" xlink:href="#DejaVuSans-32"/>
     <use x="285.648438" xlink:href="#DejaVuSans-110"/>
     <use x="349.027344" xlink:href="#DejaVuSans-111"/>
     <use x="410.208984" xlink:href="#DejaVuSans-110"/>
     <use x="473.587891" xlink:href="#DejaVuSans-45"/>
     <use x="509.671875" xlink:href="#DejaVuSans-108"/>
     <use x="537.455078" xlink:href="#DejaVuSans-105"/>
     <use x="565.238281" xlink:href="#DejaVuSans-110"/>
     <use x="628.617188" xlink:href="#DejaVuSans-101"/>
     <use x="690.140625" xlink:href="#DejaVuSans-97"/>
     <use x="751.419922" xlink:href="#DejaVuSans-114"/>
     <use x="792.533203" xlink:href="#DejaVuSans-105"/>
     <use x="820.316406" xlink:href="#DejaVuSans-116"/>
     <use x="859.525391" xlink:href="#DejaVuSans-105"/>
     <use x="887.308594" xlink:href="#DejaVuSans-101"/>
     <use x="948.832031" xlink:href="#DejaVuSans-115"/>
    </g>
   </g>
   <g id="legend_1">
    <g id="patch_6">
     <path d="M 305.644921 94.09875 
L 405.725234 94.09875 
Q 408.525234 94.09875 408.525234 91.29875 
L 408.525234 51.6 
Q 408.525234 48.8 405.725234 48.8 
L 305.644921 48.8 
Q 302.844921 48.8 302.844921 51.6 
L 302.844921 91.29875 
Q 302.844921 94.09875 305.644921 94.09875 
z
" style="fill:#ffffff;opacity:0.8;stroke:#cccccc;stroke-linejoin:miter;"/>
    </g>
    <g id="line2d_25">
     <path d="M 308.444921 60.137812 
L 336.444921 60.137812 
" style="fill:none;stroke:#1f77b4;stroke-linecap:square;stroke-width:1.5;"/>
    </g>
    <g id="line2d_26"/>
    <g id="text_13">
     <!-- Gamma -->
     <g transform="translate(347.644921 65.037812)scale(0.14 -0.14)">
      <defs>
       <path d="M 59.515625 10.40625 
L 59.515625 29.984375 
L 43.40625 29.984375 
L 43.40625 38.09375 
L 69.28125 38.09375 
L 69.28125 6.78125 
Q 63.578125 2.734375 56.6875 0.65625 
Q 49.8125 -1.421875 42 -1.421875 
Q 24.90625 -1.421875 15.25 8.5625 
Q 5.609375 18.5625 5.609375 36.375 
Q 5.609375 54.25 15.25 64.234375 
Q 24.90625 74.21875 42 74.21875 
Q 49.125 74.21875 55.546875 72.453125 
Q 61.96875 70.703125 67.390625 67.28125 
L 67.390625 56.78125 
Q 61.921875 61.421875 55.765625 63.765625 
Q 49.609375 66.109375 42.828125 66.109375 
Q 29.4375 66.109375 22.71875 58.640625 
Q 16.015625 51.171875 16.015625 36.375 
Q 16.015625 21.625 22.71875 14.15625 
Q 29.4375 6.6875 42.828125 6.6875 
Q 48.046875 6.6875 52.140625 7.59375 
Q 56.25 8.5 59.515625 10.40625 
z
" id="DejaVuSans-71"/>
       <path d="M 52 44.1875 
Q 55.375 50.25 60.0625 53.125 
Q 64.75 56 71.09375 56 
Q 79.640625 56 84.28125 50.015625 
Q 88.921875 44.046875 88.921875 33.015625 
L 88.921875 0 
L 79.890625 0 
L 79.890625 32.71875 
Q 79.890625 40.578125 77.09375 44.375 
Q 74.3125 48.1875 68.609375 48.1875 
Q 61.625 48.1875 57.5625 43.546875 
Q 53.515625 38.921875 53.515625 30.90625 
L 53.515625 0 
L 44.484375 0 
L 44.484375 32.71875 
Q 44.484375 40.625 41.703125 44.40625 
Q 38.921875 48.1875 33.109375 48.1875 
Q 26.21875 48.1875 22.15625 43.53125 
Q 18.109375 38.875 18.109375 30.90625 
L 18.109375 0 
L 9.078125 0 
L 9.078125 54.6875 
L 18.109375 54.6875 
L 18.109375 46.1875 
Q 21.1875 51.21875 25.484375 53.609375 
Q 29.78125 56 35.6875 56 
Q 41.65625 56 45.828125 52.96875 
Q 50 49.953125 52 44.1875 
z
" id="DejaVuSans-109"/>
      </defs>
      <use xlink:href="#DejaVuSans-71"/>
      <use x="77.490234" xlink:href="#DejaVuSans-97"/>
      <use x="138.769531" xlink:href="#DejaVuSans-109"/>
      <use x="236.181641" xlink:href="#DejaVuSans-109"/>
      <use x="333.59375" xlink:href="#DejaVuSans-97"/>
     </g>
    </g>
    <g id="line2d_27">
     <path d="M 308.444921 80.687187 
L 336.444921 80.687187 
" style="fill:none;stroke:#ff7f0e;stroke-linecap:square;stroke-width:1.5;"/>
    </g>
    <g id="line2d_28"/>
    <g id="text_14">
     <!-- Delta -->
     <g transform="translate(347.644921 85.587187)scale(0.14 -0.14)">
      <defs>
       <path d="M 19.671875 64.796875 
L 19.671875 8.109375 
L 31.59375 8.109375 
Q 46.6875 8.109375 53.6875 14.9375 
Q 60.6875 21.78125 60.6875 36.53125 
Q 60.6875 51.171875 53.6875 57.984375 
Q 46.6875 64.796875 31.59375 64.796875 
z
M 9.8125 72.90625 
L 30.078125 72.90625 
Q 51.265625 72.90625 61.171875 64.09375 
Q 71.09375 55.28125 71.09375 36.53125 
Q 71.09375 17.671875 61.125 8.828125 
Q 51.171875 0 30.078125 0 
L 9.8125 0 
z
" id="DejaVuSans-68"/>
      </defs>
      <use xlink:href="#DejaVuSans-68"/>
      <use x="77.001953" xlink:href="#DejaVuSans-101"/>
      <use x="138.525391" xlink:href="#DejaVuSans-108"/>
      <use x="166.308594" xlink:href="#DejaVuSans-116"/>
      <use x="205.517578" xlink:href="#DejaVuSans-97"/>
     </g>
    </g>
   </g>
  </g>
  <g id="axes_3">
   <g id="patch_7">
    <path d="M 10.8 544.2 
L 278.188142 544.2 
L 278.188142 324.4 
L 10.8 324.4 
z
" style="fill:#ffffff;"/>
   </g>
   <g id="matplotlib.axis_5">
    <g id="xtick_11">
     <g id="line2d_29">
      <g>
       <use style="stroke:#000000;stroke-width:0.8;" x="60.259823" xlink:href="#m06cdd54473" y="544.2"/>
      </g>
     </g>
     <g id="text_15">
      <!-- 1.5 -->
      <g transform="translate(49.127635 561.837813)scale(0.14 -0.14)">
       <use xlink:href="#DejaVuSans-49"/>
       <use x="63.623047" xlink:href="#DejaVuSans-46"/>
       <use x="95.410156" xlink:href="#DejaVuSans-53"/>
      </g>
     </g>
    </g>
    <g id="xtick_12">
     <g id="line2d_30">
      <g>
       <use style="stroke:#000000;stroke-width:0.8;" x="146.350505" xlink:href="#m06cdd54473" y="544.2"/>
      </g>
     </g>
     <g id="text_16">
      <!-- 2.0 -->
      <g transform="translate(135.218318 561.837813)scale(0.14 -0.14)">
       <use xlink:href="#DejaVuSans-50"/>
       <use x="63.623047" xlink:href="#DejaVuSans-46"/>
       <use x="95.410156" xlink:href="#DejaVuSans-48"/>
      </g>
     </g>
    </g>
    <g id="xtick_13">
     <g id="line2d_31">
      <g>
       <use style="stroke:#000000;stroke-width:0.8;" x="232.441188" xlink:href="#m06cdd54473" y="544.2"/>
      </g>
     </g>
     <g id="text_17">
      <!-- 2.5 -->
      <g transform="translate(221.309001 561.837813)scale(0.14 -0.14)">
       <use xlink:href="#DejaVuSans-50"/>
       <use x="63.623047" xlink:href="#DejaVuSans-46"/>
       <use x="95.410156" xlink:href="#DejaVuSans-53"/>
      </g>
     </g>
    </g>
   </g>
   <g id="matplotlib.axis_6"/>
   <g id="line2d_32">
    <path clip-path="url(#pe62ae5b84f)" d="M 22.954006 533.102654 
L 25.808176 533.249476 
L 28.186651 533.320928 
L 31.040821 533.128844 
L 33.419296 533.03466 
L 35.322076 533.200216 
L 39.127635 533.685654 
L 40.55472 533.598466 
L 42.4575 533.215794 
L 44.36028 532.815921 
L 45.787365 532.698009 
L 50.06862 532.725858 
L 51.495705 532.37014 
L 53.874179 531.404626 
L 56.252654 530.507739 
L 60.058214 529.097969 
L 61.960994 528.03913 
L 64.339469 526.361654 
L 66.242249 524.743098 
L 68.145029 522.839343 
L 70.999198 519.969048 
L 71.950588 519.294335 
L 72.901978 518.877224 
L 74.329063 518.616915 
L 75.756148 518.369546 
L 76.707538 517.895795 
L 77.658928 516.972133 
L 78.610318 515.540616 
L 79.561708 513.659995 
L 85.270047 501.028004 
L 86.221437 498.402852 
L 87.172827 495.005167 
L 87.648522 492.895622 
L 88.599912 487.338342 
L 89.551302 479.869155 
L 90.502692 469.917637 
L 91.454082 456.907804 
L 92.405472 440.705541 
L 93.832557 411.52634 
L 95.735337 372.882277 
L 96.686727 358.390649 
L 97.162422 353.071231 
L 97.638117 349.179516 
L 98.113812 346.694411 
L 98.589507 345.510266 
L 99.065202 345.527761 
L 99.540897 346.548637 
L 100.016592 348.3651 
L 100.967981 353.63957 
L 105.249236 381.677092 
L 106.200626 386.292603 
L 107.152016 389.816651 
L 108.103406 392.522923 
L 109.054796 394.243492 
L 110.006186 395.495826 
L 110.957576 396.393376 
L 111.908966 396.788142 
L 112.384661 396.716915 
L 112.860356 396.428035 
L 113.336051 395.766507 
L 113.811746 394.668857 
L 114.287441 393.21887 
L 115.238831 389.203572 
L 116.19022 383.680224 
L 117.617305 373.471738 
L 120.471475 352.017782 
L 121.422865 346.430088 
L 122.374255 342.460084 
L 122.84995 341.123744 
L 123.325645 340.236247 
L 123.80134 339.74799 
L 124.277035 339.652254 
L 124.75273 339.881198 
L 125.228425 340.35079 
L 127.6069 343.701263 
L 128.082595 344.042646 
L 128.55829 344.200496 
L 129.033985 344.162914 
L 129.50968 343.880732 
L 130.46107 342.835756 
L 131.41246 341.199355 
L 133.790934 336.507038 
L 134.742324 335.070872 
L 135.218019 334.639198 
L 135.693714 334.390909 
L 136.169409 334.399354 
L 136.645104 334.668639 
L 137.120799 335.209125 
L 137.596494 336.03876 
L 138.547884 338.413655 
L 139.974969 343.261226 
L 141.402054 348.226722 
L 142.353444 350.985605 
L 145.207614 358.05753 
L 146.159004 361.362729 
L 147.110394 365.567749 
L 150.440258 381.942325 
L 151.391648 385.123122 
L 152.343038 387.242215 
L 153.294428 388.674656 
L 155.197208 390.962601 
L 156.148598 392.580213 
L 157.099988 394.809612 
L 158.051378 397.639842 
L 159.954158 404.398606 
L 162.808327 414.547496 
L 164.235412 418.921555 
L 166.138192 424.108869 
L 169.468057 432.604874 
L 170.895142 437.099815 
L 173.749312 447.199475 
L 176.127787 456.018039 
L 177.554872 462.089049 
L 180.884736 476.95542 
L 181.836126 480.035406 
L 182.787516 482.173754 
L 183.738906 483.424501 
L 184.214601 483.738636 
L 185.165991 483.99911 
L 186.593076 484.206156 
L 187.544466 484.696589 
L 188.495856 485.730022 
L 189.447246 487.312113 
L 190.874331 490.331583 
L 192.777111 494.392078 
L 194.204195 497.003103 
L 197.53406 502.745962 
L 200.38823 507.802529 
L 202.29101 510.719587 
L 205.620875 515.281157 
L 207.04796 516.822677 
L 207.99935 517.574139 
L 209.426435 518.401497 
L 211.804909 519.690264 
L 213.231994 520.814558 
L 215.134774 522.690861 
L 217.037554 524.580401 
L 219.416029 526.622186 
L 221.794504 528.390113 
L 223.221589 529.248867 
L 224.648674 529.793729 
L 225.600063 529.928917 
L 226.551453 529.88336 
L 228.454233 529.453914 
L 230.357013 529.019727 
L 231.784098 528.961782 
L 233.211183 529.167761 
L 235.113963 529.748563 
L 237.492438 530.755844 
L 240.346608 531.952859 
L 241.773692 532.335916 
L 243.200777 532.519491 
L 244.627862 532.525701 
L 247.006337 532.264846 
L 249.384812 531.992118 
L 251.287592 531.991299 
L 259.374406 532.519266 
L 262.228576 532.790552 
L 265.082746 532.755969 
L 266.034136 532.736745 
L 266.034136 532.736745 
" style="fill:none;stroke:#1f77b4;stroke-linecap:square;stroke-width:1.5;"/>
   </g>
   <g id="line2d_33">
    <path clip-path="url(#pe62ae5b84f)" d="M 22.954006 534.205432 
L 22.954006 533.102654 
" style="fill:none;stroke:#1f77b4;stroke-linecap:square;stroke-width:1.5;"/>
   </g>
   <g id="line2d_34">
    <path clip-path="url(#pe62ae5b84f)" d="M 266.034136 534.209091 
L 266.034136 532.736745 
" style="fill:none;stroke:#1f77b4;stroke-linecap:square;stroke-width:1.5;"/>
   </g>
   <g id="line2d_35">
    <g clip-path="url(#pe62ae5b84f)">
     <use style="fill:#1f77b4;stroke:#000000;" x="135.30376" xlink:href="#m2cb4370ede" y="534.194513"/>
    </g>
   </g>
   <g id="patch_8">
    <path d="M 10.8 544.2 
L 278.188142 544.2 
" style="fill:none;stroke:#000000;stroke-linecap:square;stroke-linejoin:miter;stroke-width:0.8;"/>
   </g>
   <g id="text_18">
    <!-- Lambda  -->
    <g transform="translate(118.427821 306.78625)scale(0.12 -0.12)">
     <defs>
      <path d="M 9.8125 72.90625 
L 19.671875 72.90625 
L 19.671875 8.296875 
L 55.171875 8.296875 
L 55.171875 0 
L 9.8125 0 
z
" id="DejaVuSans-76"/>
      <path d="M 45.40625 46.390625 
L 45.40625 75.984375 
L 54.390625 75.984375 
L 54.390625 0 
L 45.40625 0 
L 45.40625 8.203125 
Q 42.578125 3.328125 38.25 0.953125 
Q 33.9375 -1.421875 27.875 -1.421875 
Q 17.96875 -1.421875 11.734375 6.484375 
Q 5.515625 14.40625 5.515625 27.296875 
Q 5.515625 40.1875 11.734375 48.09375 
Q 17.96875 56 27.875 56 
Q 33.9375 56 38.25 53.625 
Q 42.578125 51.265625 45.40625 46.390625 
z
M 14.796875 27.296875 
Q 14.796875 17.390625 18.875 11.75 
Q 22.953125 6.109375 30.078125 6.109375 
Q 37.203125 6.109375 41.296875 11.75 
Q 45.40625 17.390625 45.40625 27.296875 
Q 45.40625 37.203125 41.296875 42.84375 
Q 37.203125 48.484375 30.078125 48.484375 
Q 22.953125 48.484375 18.875 42.84375 
Q 14.796875 37.203125 14.796875 27.296875 
z
" id="DejaVuSans-100"/>
     </defs>
     <use xlink:href="#DejaVuSans-76"/>
     <use x="55.712891" xlink:href="#DejaVuSans-97"/>
     <use x="116.992188" xlink:href="#DejaVuSans-109"/>
     <use x="214.404297" xlink:href="#DejaVuSans-98"/>
     <use x="277.880859" xlink:href="#DejaVuSans-100"/>
     <use x="341.357422" xlink:href="#DejaVuSans-97"/>
     <use x="402.636719" xlink:href="#DejaVuSans-32"/>
    </g>
    <!--  loss aversion -->
    <g transform="translate(103.438134 320.223625)scale(0.12 -0.12)">
     <use xlink:href="#DejaVuSans-32"/>
     <use x="31.787109" xlink:href="#DejaVuSans-108"/>
     <use x="59.570312" xlink:href="#DejaVuSans-111"/>
     <use x="120.751953" xlink:href="#DejaVuSans-115"/>
     <use x="172.851562" xlink:href="#DejaVuSans-115"/>
     <use x="224.951172" xlink:href="#DejaVuSans-32"/>
     <use x="256.738281" xlink:href="#DejaVuSans-97"/>
     <use x="318.017578" xlink:href="#DejaVuSans-118"/>
     <use x="377.197266" xlink:href="#DejaVuSans-101"/>
     <use x="438.720703" xlink:href="#DejaVuSans-114"/>
     <use x="479.833984" xlink:href="#DejaVuSans-115"/>
     <use x="531.933594" xlink:href="#DejaVuSans-105"/>
     <use x="559.716797" xlink:href="#DejaVuSans-111"/>
     <use x="620.898438" xlink:href="#DejaVuSans-110"/>
    </g>
   </g>
  </g>
  <g id="axes_4">
   <g id="patch_9">
    <path d="M 295.844921 544.2 
L 563.233064 544.2 
L 563.233064 324.4 
L 295.844921 324.4 
z
" style="fill:#ffffff;"/>
   </g>
   <g id="matplotlib.axis_7">
    <g id="xtick_14">
     <g id="line2d_36">
      <g>
       <use style="stroke:#000000;stroke-width:0.8;" x="307.152365" xlink:href="#m06cdd54473" y="544.2"/>
      </g>
     </g>
     <g id="text_19">
      <!-- 0.10 -->
      <g transform="translate(291.566427 561.837813)scale(0.14 -0.14)">
       <use xlink:href="#DejaVuSans-48"/>
       <use x="63.623047" xlink:href="#DejaVuSans-46"/>
       <use x="95.410156" xlink:href="#DejaVuSans-49"/>
       <use x="159.033203" xlink:href="#DejaVuSans-48"/>
      </g>
     </g>
    </g>
    <g id="xtick_15">
     <g id="line2d_37">
      <g>
       <use style="stroke:#000000;stroke-width:0.8;" x="376.135524" xlink:href="#m06cdd54473" y="544.2"/>
      </g>
     </g>
     <g id="text_20">
      <!-- 0.15 -->
      <g transform="translate(360.549586 561.837813)scale(0.14 -0.14)">
       <use xlink:href="#DejaVuSans-48"/>
       <use x="63.623047" xlink:href="#DejaVuSans-46"/>
       <use x="95.410156" xlink:href="#DejaVuSans-49"/>
       <use x="159.033203" xlink:href="#DejaVuSans-53"/>
      </g>
     </g>
    </g>
    <g id="xtick_16">
     <g id="line2d_38">
      <g>
       <use style="stroke:#000000;stroke-width:0.8;" x="445.118683" xlink:href="#m06cdd54473" y="544.2"/>
      </g>
     </g>
     <g id="text_21">
      <!-- 0.20 -->
      <g transform="translate(429.532746 561.837813)scale(0.14 -0.14)">
       <use xlink:href="#DejaVuSans-48"/>
       <use x="63.623047" xlink:href="#DejaVuSans-46"/>
       <use x="95.410156" xlink:href="#DejaVuSans-50"/>
       <use x="159.033203" xlink:href="#DejaVuSans-48"/>
      </g>
     </g>
    </g>
    <g id="xtick_17">
     <g id="line2d_39">
      <g>
       <use style="stroke:#000000;stroke-width:0.8;" x="514.101842" xlink:href="#m06cdd54473" y="544.2"/>
      </g>
     </g>
     <g id="text_22">
      <!-- 0.25 -->
      <g transform="translate(498.515905 561.837813)scale(0.14 -0.14)">
       <use xlink:href="#DejaVuSans-48"/>
       <use x="63.623047" xlink:href="#DejaVuSans-46"/>
       <use x="95.410156" xlink:href="#DejaVuSans-50"/>
       <use x="159.033203" xlink:href="#DejaVuSans-53"/>
      </g>
     </g>
    </g>
   </g>
   <g id="matplotlib.axis_8"/>
   <g id="line2d_40">
    <path clip-path="url(#p8040600233)" d="M 307.998928 468.934949 
L 310.377403 468.710327 
L 311.328793 468.417673 
L 312.280183 467.923318 
L 313.231573 467.116203 
L 314.182963 465.957454 
L 315.134353 464.35253 
L 316.085742 462.300124 
L 317.037132 459.792665 
L 318.464217 455.224561 
L 319.891302 449.874618 
L 324.648252 431.11728 
L 325.599642 428.146841 
L 326.551032 425.684053 
L 327.502422 423.766654 
L 328.453812 422.395991 
L 329.405202 421.441965 
L 330.356592 420.871251 
L 333.686456 419.595229 
L 334.637846 418.929326 
L 335.589236 418.063963 
L 337.016321 416.259916 
L 338.919101 413.377908 
L 341.297576 409.678101 
L 343.200356 406.978778 
L 345.578831 403.620819 
L 347.005915 401.071855 
L 348.433 397.82339 
L 349.38439 395.09456 
L 350.811475 389.956724 
L 352.23856 383.586177 
L 353.665645 376.013688 
L 356.04412 361.814536 
L 358.422595 348.02115 
L 359.84968 341.381647 
L 360.80107 337.984288 
L 361.75246 335.738823 
L 362.228154 334.974123 
L 362.703849 334.528411 
L 363.179544 334.390909 
L 363.655239 334.565497 
L 364.130934 335.022838 
L 364.606629 335.770917 
L 365.558019 338.107572 
L 366.509409 341.437735 
L 367.460799 345.489371 
L 369.363579 355.009019 
L 371.742054 366.86386 
L 373.169139 372.960406 
L 374.596224 377.888396 
L 376.023309 381.77112 
L 376.974699 383.89136 
L 377.926088 385.654282 
L 378.877478 387.070006 
L 379.828868 388.065948 
L 380.780258 388.624427 
L 381.255953 388.682419 
L 381.731648 388.609633 
L 382.207343 388.381107 
L 383.158733 387.455225 
L 384.110123 385.856435 
L 385.061513 383.612438 
L 386.488598 379.378132 
L 388.867073 371.902532 
L 389.818463 369.585525 
L 390.294158 368.70487 
L 390.769853 368.072416 
L 391.245548 367.647178 
L 391.721243 367.482373 
L 392.196938 367.621086 
L 392.672633 368.071391 
L 393.148327 368.795938 
L 393.624022 369.786982 
L 394.575412 372.627218 
L 395.526802 376.459044 
L 396.478192 381.123783 
L 398.380972 392.044154 
L 401.710837 411.928611 
L 403.137922 419.288603 
L 404.565007 425.554114 
L 405.992092 430.598105 
L 407.419177 434.566652 
L 408.846261 437.815903 
L 412.176126 444.802901 
L 414.078906 449.435496 
L 416.933076 457.338865 
L 419.787246 465.087893 
L 421.690026 469.553897 
L 423.117111 472.374749 
L 424.544195 474.823227 
L 426.446975 477.531135 
L 428.82545 480.444646 
L 430.72823 482.475503 
L 432.63101 484.189249 
L 434.058095 485.228126 
L 438.815045 488.290049 
L 439.766435 489.214714 
L 440.717824 490.351529 
L 442.144909 492.468328 
L 443.571994 494.985099 
L 448.328944 503.965028 
L 449.756029 506.182923 
L 451.658809 508.673724 
L 453.561589 510.758648 
L 455.464368 512.520147 
L 456.891453 513.565999 
L 457.842843 514.04849 
L 458.794233 514.290601 
L 459.745623 514.24986 
L 460.697013 513.892599 
L 461.648403 513.230503 
L 462.599793 512.315683 
L 466.405353 508.036786 
L 467.356743 507.424963 
L 468.308133 507.215042 
L 468.783828 507.276215 
L 469.735218 507.736195 
L 470.686608 508.630694 
L 471.637997 509.899066 
L 473.065082 512.26152 
L 476.870642 518.951679 
L 478.297727 520.908145 
L 479.724812 522.461356 
L 481.151897 523.626626 
L 482.578982 524.55635 
L 484.957457 525.786845 
L 486.860236 526.642347 
L 492.568576 528.871517 
L 498.276916 530.823295 
L 500.655391 531.449994 
L 502.55817 531.732257 
L 504.46095 531.765023 
L 507.31512 531.516579 
L 510.644985 531.255642 
L 513.02346 531.30501 
L 515.87763 531.623202 
L 524.915834 532.829108 
L 530.624174 533.332081 
L 533.478343 533.384313 
L 536.332513 533.230477 
L 539.662378 532.792932 
L 546.322108 531.795143 
L 549.651972 531.581559 
L 551.079057 531.556501 
L 551.079057 531.556501 
" style="fill:none;stroke:#1f77b4;stroke-linecap:square;stroke-width:1.5;"/>
   </g>
   <g id="line2d_41">
    <path clip-path="url(#p8040600233)" d="M 307.998928 534.209091 
L 307.998928 468.934949 
" style="fill:none;stroke:#1f77b4;stroke-linecap:square;stroke-width:1.5;"/>
   </g>
   <g id="line2d_42">
    <path clip-path="url(#p8040600233)" d="M 551.079057 533.582875 
L 551.079057 531.556501 
" style="fill:none;stroke:#1f77b4;stroke-linecap:square;stroke-width:1.5;"/>
   </g>
   <g id="line2d_43">
    <g clip-path="url(#p8040600233)">
     <use style="fill:#1f77b4;stroke:#000000;" x="376.962843" xlink:href="#m2cb4370ede" y="533.562812"/>
    </g>
   </g>
   <g id="patch_10">
    <path d="M 295.844921 544.2 
L 563.233064 544.2 
" style="fill:none;stroke:#000000;stroke-linecap:square;stroke-linejoin:miter;stroke-width:0.8;"/>
   </g>
   <g id="text_23">
    <!-- Luce  -->
    <g transform="translate(413.600555 306.78625)scale(0.12 -0.12)">
     <defs>
      <path d="M 8.5 21.578125 
L 8.5 54.6875 
L 17.484375 54.6875 
L 17.484375 21.921875 
Q 17.484375 14.15625 20.5 10.265625 
Q 23.53125 6.390625 29.59375 6.390625 
Q 36.859375 6.390625 41.078125 11.03125 
Q 45.3125 15.671875 45.3125 23.6875 
L 45.3125 54.6875 
L 54.296875 54.6875 
L 54.296875 0 
L 45.3125 0 
L 45.3125 8.40625 
Q 42.046875 3.421875 37.71875 1 
Q 33.40625 -1.421875 27.6875 -1.421875 
Q 18.265625 -1.421875 13.375 4.4375 
Q 8.5 10.296875 8.5 21.578125 
z
M 31.109375 56 
z
" id="DejaVuSans-117"/>
      <path d="M 48.78125 52.59375 
L 48.78125 44.1875 
Q 44.96875 46.296875 41.140625 47.34375 
Q 37.3125 48.390625 33.40625 48.390625 
Q 24.65625 48.390625 19.8125 42.84375 
Q 14.984375 37.3125 14.984375 27.296875 
Q 14.984375 17.28125 19.8125 11.734375 
Q 24.65625 6.203125 33.40625 6.203125 
Q 37.3125 6.203125 41.140625 7.25 
Q 44.96875 8.296875 48.78125 10.40625 
L 48.78125 2.09375 
Q 45.015625 0.34375 40.984375 -0.53125 
Q 36.96875 -1.421875 32.421875 -1.421875 
Q 20.0625 -1.421875 12.78125 6.34375 
Q 5.515625 14.109375 5.515625 27.296875 
Q 5.515625 40.671875 12.859375 48.328125 
Q 20.21875 56 33.015625 56 
Q 37.15625 56 41.109375 55.140625 
Q 45.0625 54.296875 48.78125 52.59375 
z
" id="DejaVuSans-99"/>
     </defs>
     <use xlink:href="#DejaVuSans-76"/>
     <use x="53.962891" xlink:href="#DejaVuSans-117"/>
     <use x="117.341797" xlink:href="#DejaVuSans-99"/>
     <use x="172.322266" xlink:href="#DejaVuSans-101"/>
     <use x="233.845703" xlink:href="#DejaVuSans-32"/>
    </g>
    <!--  choice noise -->
    <g transform="translate(390.336493 320.223625)scale(0.12 -0.12)">
     <use xlink:href="#DejaVuSans-32"/>
     <use x="31.787109" xlink:href="#DejaVuSans-99"/>
     <use x="86.767578" xlink:href="#DejaVuSans-104"/>
     <use x="150.146484" xlink:href="#DejaVuSans-111"/>
     <use x="211.328125" xlink:href="#DejaVuSans-105"/>
     <use x="239.111328" xlink:href="#DejaVuSans-99"/>
     <use x="294.091797" xlink:href="#DejaVuSans-101"/>
     <use x="355.615234" xlink:href="#DejaVuSans-32"/>
     <use x="387.402344" xlink:href="#DejaVuSans-110"/>
     <use x="450.78125" xlink:href="#DejaVuSans-111"/>
     <use x="511.962891" xlink:href="#DejaVuSans-105"/>
     <use x="539.746094" xlink:href="#DejaVuSans-115"/>
     <use x="591.845703" xlink:href="#DejaVuSans-101"/>
    </g>
   </g>
  </g>
 </g>
 <defs>
  <clipPath id="p54b59f48a5">
   <rect height="219.8" width="267.388142" x="10.8" y="41.8"/>
  </clipPath>
  <clipPath id="pe0f94842fa">
   <rect height="219.8" width="267.388142" x="295.844921" y="41.8"/>
  </clipPath>
  <clipPath id="pe62ae5b84f">
   <rect height="219.8" width="267.388142" x="10.8" y="324.4"/>
  </clipPath>
  <clipPath id="p8040600233">
   <rect height="219.8" width="267.388142" x="295.844921" y="324.4"/>
  </clipPath>
 </defs>
</svg>
