<?xml version="1.0" encoding="utf-8" standalone="no"?>
<!DOCTYPE svg PUBLIC "-//W3C//DTD SVG 1.1//EN"
  "http://www.w3.org/Graphics/SVG/1.1/DTD/svg11.dtd">
<!-- Created with matplotlib (https://matplotlib.org/) -->
<svg height="576pt" version="1.1" viewBox="0 0 576 576" width="576pt" xmlns="http://www.w3.org/2000/svg" xmlns:xlink="http://www.w3.org/1999/xlink">
 <metadata>
  <rdf:RDF xmlns:cc="http://creativecommons.org/ns#" xmlns:dc="http://purl.org/dc/elements/1.1/" xmlns:rdf="http://www.w3.org/1999/02/22-rdf-syntax-ns#">
   <cc:Work>
    <dc:type rdf:resource="http://purl.org/dc/dcmitype/StillImage"/>
    <dc:date>2021-02-09T05:55:25.918977</dc:date>
    <dc:format>image/svg+xml</dc:format>
    <dc:creator>
     <cc:Agent>
      <dc:title>Matplotlib v3.3.3, https://matplotlib.org/</dc:title>
     </cc:Agent>
    </dc:creator>
   </cc:Work>
  </rdf:RDF>
 </metadata>
 <defs>
  <style type="text/css">*{stroke-linecap:butt;stroke-linejoin:round;}</style>
 </defs>
 <g id="figure_1">
  <g id="patch_1">
   <path d="M 0 576 
L 576 576 
L 576 0 
L 0 0 
z
" style="fill:none;"/>
  </g>
  <g id="axes_1">
   <g id="patch_2">
    <path d="M 14.690391 261.6 
L 281.50374 261.6 
L 281.50374 41.8 
L 14.690391 41.8 
z
" style="fill:#ffffff;"/>
   </g>
   <g id="matplotlib.axis_1">
    <g id="xtick_1">
     <g id="line2d_1">
      <defs>
       <path d="M 0 0 
L 0 3.5 
" id="m9cd6e3a152" style="stroke:#000000;stroke-width:0.8;"/>
      </defs>
      <g>
       <use style="stroke:#000000;stroke-width:0.8;" x="24.039103" xlink:href="#m9cd6e3a152" y="261.6"/>
      </g>
     </g>
     <g id="text_1">
      <!-- 0.0 -->
      <g transform="translate(12.906915 279.237813)scale(0.14 -0.14)">
       <defs>
        <path d="M 31.78125 66.40625 
Q 24.171875 66.40625 20.328125 58.90625 
Q 16.5 51.421875 16.5 36.375 
Q 16.5 21.390625 20.328125 13.890625 
Q 24.171875 6.390625 31.78125 6.390625 
Q 39.453125 6.390625 43.28125 13.890625 
Q 47.125 21.390625 47.125 36.375 
Q 47.125 51.421875 43.28125 58.90625 
Q 39.453125 66.40625 31.78125 66.40625 
z
M 31.78125 74.21875 
Q 44.046875 74.21875 50.515625 64.515625 
Q 56.984375 54.828125 56.984375 36.375 
Q 56.984375 17.96875 50.515625 8.265625 
Q 44.046875 -1.421875 31.78125 -1.421875 
Q 19.53125 -1.421875 13.0625 8.265625 
Q 6.59375 17.96875 6.59375 36.375 
Q 6.59375 54.828125 13.0625 64.515625 
Q 19.53125 74.21875 31.78125 74.21875 
z
" id="DejaVuSans-48"/>
        <path d="M 10.6875 12.40625 
L 21 12.40625 
L 21 0 
L 10.6875 0 
z
" id="DejaVuSans-46"/>
       </defs>
       <use xlink:href="#DejaVuSans-48"/>
       <use x="63.623047" xlink:href="#DejaVuSans-46"/>
       <use x="95.410156" xlink:href="#DejaVuSans-48"/>
      </g>
     </g>
    </g>
    <g id="xtick_2">
     <g id="line2d_2">
      <g>
       <use style="stroke:#000000;stroke-width:0.8;" x="73.155565" xlink:href="#m9cd6e3a152" y="261.6"/>
      </g>
     </g>
     <g id="text_2">
      <!-- 0.2 -->
      <g transform="translate(62.023377 279.237813)scale(0.14 -0.14)">
       <defs>
        <path d="M 19.1875 8.296875 
L 53.609375 8.296875 
L 53.609375 0 
L 7.328125 0 
L 7.328125 8.296875 
Q 12.9375 14.109375 22.625 23.890625 
Q 32.328125 33.6875 34.8125 36.53125 
Q 39.546875 41.84375 41.421875 45.53125 
Q 43.3125 49.21875 43.3125 52.78125 
Q 43.3125 58.59375 39.234375 62.25 
Q 35.15625 65.921875 28.609375 65.921875 
Q 23.96875 65.921875 18.8125 64.3125 
Q 13.671875 62.703125 7.8125 59.421875 
L 7.8125 69.390625 
Q 13.765625 71.78125 18.9375 73 
Q 24.125 74.21875 28.421875 74.21875 
Q 39.75 74.21875 46.484375 68.546875 
Q 53.21875 62.890625 53.21875 53.421875 
Q 53.21875 48.921875 51.53125 44.890625 
Q 49.859375 40.875 45.40625 35.40625 
Q 44.1875 33.984375 37.640625 27.21875 
Q 31.109375 20.453125 19.1875 8.296875 
z
" id="DejaVuSans-50"/>
       </defs>
       <use xlink:href="#DejaVuSans-48"/>
       <use x="63.623047" xlink:href="#DejaVuSans-46"/>
       <use x="95.410156" xlink:href="#DejaVuSans-50"/>
      </g>
     </g>
    </g>
    <g id="xtick_3">
     <g id="line2d_3">
      <g>
       <use style="stroke:#000000;stroke-width:0.8;" x="122.272027" xlink:href="#m9cd6e3a152" y="261.6"/>
      </g>
     </g>
     <g id="text_3">
      <!-- 0.4 -->
      <g transform="translate(111.139839 279.237813)scale(0.14 -0.14)">
       <defs>
        <path d="M 37.796875 64.3125 
L 12.890625 25.390625 
L 37.796875 25.390625 
z
M 35.203125 72.90625 
L 47.609375 72.90625 
L 47.609375 25.390625 
L 58.015625 25.390625 
L 58.015625 17.1875 
L 47.609375 17.1875 
L 47.609375 0 
L 37.796875 0 
L 37.796875 17.1875 
L 4.890625 17.1875 
L 4.890625 26.703125 
z
" id="DejaVuSans-52"/>
       </defs>
       <use xlink:href="#DejaVuSans-48"/>
       <use x="63.623047" xlink:href="#DejaVuSans-46"/>
       <use x="95.410156" xlink:href="#DejaVuSans-52"/>
      </g>
     </g>
    </g>
    <g id="xtick_4">
     <g id="line2d_4">
      <g>
       <use style="stroke:#000000;stroke-width:0.8;" x="171.388489" xlink:href="#m9cd6e3a152" y="261.6"/>
      </g>
     </g>
     <g id="text_4">
      <!-- 0.6 -->
      <g transform="translate(160.256301 279.237813)scale(0.14 -0.14)">
       <defs>
        <path d="M 33.015625 40.375 
Q 26.375 40.375 22.484375 35.828125 
Q 18.609375 31.296875 18.609375 23.390625 
Q 18.609375 15.53125 22.484375 10.953125 
Q 26.375 6.390625 33.015625 6.390625 
Q 39.65625 6.390625 43.53125 10.953125 
Q 47.40625 15.53125 47.40625 23.390625 
Q 47.40625 31.296875 43.53125 35.828125 
Q 39.65625 40.375 33.015625 40.375 
z
M 52.59375 71.296875 
L 52.59375 62.3125 
Q 48.875 64.0625 45.09375 64.984375 
Q 41.3125 65.921875 37.59375 65.921875 
Q 27.828125 65.921875 22.671875 59.328125 
Q 17.53125 52.734375 16.796875 39.40625 
Q 19.671875 43.65625 24.015625 45.921875 
Q 28.375 48.1875 33.59375 48.1875 
Q 44.578125 48.1875 50.953125 41.515625 
Q 57.328125 34.859375 57.328125 23.390625 
Q 57.328125 12.15625 50.6875 5.359375 
Q 44.046875 -1.421875 33.015625 -1.421875 
Q 20.359375 -1.421875 13.671875 8.265625 
Q 6.984375 17.96875 6.984375 36.375 
Q 6.984375 53.65625 15.1875 63.9375 
Q 23.390625 74.21875 37.203125 74.21875 
Q 40.921875 74.21875 44.703125 73.484375 
Q 48.484375 72.75 52.59375 71.296875 
z
" id="DejaVuSans-54"/>
       </defs>
       <use xlink:href="#DejaVuSans-48"/>
       <use x="63.623047" xlink:href="#DejaVuSans-46"/>
       <use x="95.410156" xlink:href="#DejaVuSans-54"/>
      </g>
     </g>
    </g>
    <g id="xtick_5">
     <g id="line2d_5">
      <g>
       <use style="stroke:#000000;stroke-width:0.8;" x="220.504951" xlink:href="#m9cd6e3a152" y="261.6"/>
      </g>
     </g>
     <g id="text_5">
      <!-- 0.8 -->
      <g transform="translate(209.372763 279.237813)scale(0.14 -0.14)">
       <defs>
        <path d="M 31.78125 34.625 
Q 24.75 34.625 20.71875 30.859375 
Q 16.703125 27.09375 16.703125 20.515625 
Q 16.703125 13.921875 20.71875 10.15625 
Q 24.75 6.390625 31.78125 6.390625 
Q 38.8125 6.390625 42.859375 10.171875 
Q 46.921875 13.96875 46.921875 20.515625 
Q 46.921875 27.09375 42.890625 30.859375 
Q 38.875 34.625 31.78125 34.625 
z
M 21.921875 38.8125 
Q 15.578125 40.375 12.03125 44.71875 
Q 8.5 49.078125 8.5 55.328125 
Q 8.5 64.0625 14.71875 69.140625 
Q 20.953125 74.21875 31.78125 74.21875 
Q 42.671875 74.21875 48.875 69.140625 
Q 55.078125 64.0625 55.078125 55.328125 
Q 55.078125 49.078125 51.53125 44.71875 
Q 48 40.375 41.703125 38.8125 
Q 48.828125 37.15625 52.796875 32.3125 
Q 56.78125 27.484375 56.78125 20.515625 
Q 56.78125 9.90625 50.3125 4.234375 
Q 43.84375 -1.421875 31.78125 -1.421875 
Q 19.734375 -1.421875 13.25 4.234375 
Q 6.78125 9.90625 6.78125 20.515625 
Q 6.78125 27.484375 10.78125 32.3125 
Q 14.796875 37.15625 21.921875 38.8125 
z
M 18.3125 54.390625 
Q 18.3125 48.734375 21.84375 45.5625 
Q 25.390625 42.390625 31.78125 42.390625 
Q 38.140625 42.390625 41.71875 45.5625 
Q 45.3125 48.734375 45.3125 54.390625 
Q 45.3125 60.0625 41.71875 63.234375 
Q 38.140625 66.40625 31.78125 66.40625 
Q 25.390625 66.40625 21.84375 63.234375 
Q 18.3125 60.0625 18.3125 54.390625 
z
" id="DejaVuSans-56"/>
       </defs>
       <use xlink:href="#DejaVuSans-48"/>
       <use x="63.623047" xlink:href="#DejaVuSans-46"/>
       <use x="95.410156" xlink:href="#DejaVuSans-56"/>
      </g>
     </g>
    </g>
    <g id="xtick_6">
     <g id="line2d_6">
      <g>
       <use style="stroke:#000000;stroke-width:0.8;" x="269.621413" xlink:href="#m9cd6e3a152" y="261.6"/>
      </g>
     </g>
     <g id="text_6">
      <!-- 1.0 -->
      <g transform="translate(258.489225 279.237813)scale(0.14 -0.14)">
       <defs>
        <path d="M 12.40625 8.296875 
L 28.515625 8.296875 
L 28.515625 63.921875 
L 10.984375 60.40625 
L 10.984375 69.390625 
L 28.421875 72.90625 
L 38.28125 72.90625 
L 38.28125 8.296875 
L 54.390625 8.296875 
L 54.390625 0 
L 12.40625 0 
z
" id="DejaVuSans-49"/>
       </defs>
       <use xlink:href="#DejaVuSans-49"/>
       <use x="63.623047" xlink:href="#DejaVuSans-46"/>
       <use x="95.410156" xlink:href="#DejaVuSans-48"/>
      </g>
     </g>
    </g>
   </g>
   <g id="matplotlib.axis_2"/>
   <g id="line2d_7">
    <path clip-path="url(#pdf4d34e6ed)" d="M 26.81827 249.243742 
L 28.242287 249.371336 
L 30.615649 249.608227 
L 33.938356 249.602055 
L 41.533114 249.368109 
L 44.381148 249.472884 
L 46.279838 249.549397 
L 48.6532 249.359317 
L 50.551889 249.296487 
L 54.349269 249.332714 
L 56.247958 249.12142 
L 57.671975 248.978103 
L 59.095992 249.0729 
L 60.994682 249.242692 
L 65.266734 249.279786 
L 66.690751 249.336488 
L 69.538785 249.083914 
L 73.336164 249.48185 
L 76.658871 249.317809 
L 79.032233 249.329622 
L 80.45625 249.003515 
L 81.880267 248.628602 
L 82.829612 248.564906 
L 84.728301 248.824581 
L 88.52568 249.25582 
L 90.42437 249.212945 
L 92.797732 249.055276 
L 94.221749 249.260822 
L 95.645766 249.478707 
L 97.069783 249.441883 
L 100.867163 248.857143 
L 102.765852 249.069091 
L 104.189869 249.192275 
L 115.107334 249.217416 
L 117.955369 249.317353 
L 121.752748 248.932061 
L 123.651437 248.948489 
L 126.499472 248.609374 
L 128.398161 248.436142 
L 129.822178 248.575857 
L 131.246195 248.7685 
L 132.19554 248.73058 
L 134.568902 248.482238 
L 135.992919 248.732247 
L 137.416936 248.948429 
L 138.840954 248.896679 
L 140.739643 248.782932 
L 142.16366 248.950996 
L 144.06235 249.15793 
L 145.011695 249.05736 
L 147.859729 248.435298 
L 148.809074 248.544367 
L 151.182436 249.067753 
L 152.606453 249.052031 
L 154.505142 248.773143 
L 161.625228 247.344826 
L 162.574573 247.44962 
L 164.947935 247.858563 
L 165.89728 247.7404 
L 167.321297 247.475145 
L 168.270642 247.561519 
L 170.169331 248.017917 
L 171.118676 247.919107 
L 172.068021 247.566768 
L 173.96671 246.705964 
L 174.916055 246.594561 
L 176.340072 246.851139 
L 179.662779 247.523175 
L 182.036141 248.389804 
L 182.985486 248.458734 
L 183.93483 248.264787 
L 185.83352 247.658895 
L 187.257537 247.51921 
L 188.681554 247.660345 
L 192.004261 248.273461 
L 192.953606 248.205036 
L 193.902951 247.917303 
L 195.326968 247.119988 
L 196.276312 246.593481 
L 197.225657 246.351749 
L 198.175002 246.461978 
L 199.599019 246.815067 
L 200.548364 246.758555 
L 201.497709 246.36729 
L 205.295088 244.301868 
L 206.244433 244.012316 
L 207.193777 243.998941 
L 208.617795 244.032228 
L 209.567139 243.741815 
L 211.940501 242.546824 
L 212.889846 242.468504 
L 213.839191 242.77056 
L 216.212553 243.813647 
L 217.63657 244.266507 
L 218.585915 244.351009 
L 220.009932 244.25819 
L 220.484604 244.160655 
L 221.433949 243.609377 
L 223.807311 241.315515 
L 224.756656 241.01253 
L 226.180673 240.57757 
L 227.60469 239.778769 
L 230.927397 237.544503 
L 231.402069 237.043342 
L 232.351414 235.383741 
L 235.199448 228.738 
L 235.674121 228.113646 
L 236.148793 227.723918 
L 236.623465 227.576766 
L 237.57281 227.705247 
L 238.047483 227.808156 
L 238.522155 227.772516 
L 238.996827 227.546024 
L 239.4715 227.067579 
L 239.946172 226.302381 
L 240.895517 224.018879 
L 242.794206 218.585517 
L 243.743551 216.852581 
L 244.692896 215.194508 
L 245.167568 213.936167 
L 246.116913 210.338968 
L 247.54093 204.621717 
L 248.490275 201.863064 
L 250.388965 197.303421 
L 251.338309 195.131004 
L 251.812982 193.788213 
L 252.287654 192.050456 
L 253.236999 187.319216 
L 254.661016 178.155507 
L 256.559706 165.719063 
L 257.50905 160.655589 
L 258.458395 156.867637 
L 259.882412 151.589677 
L 260.831757 147.30091 
L 261.781102 142.098425 
L 262.730447 135.186499 
L 263.679792 125.021756 
L 264.629136 111.156307 
L 266.053153 89.214832 
L 267.477171 70.892158 
L 268.426515 59.661321 
L 268.901188 54.992755 
L 269.37586 51.790909 
L 269.37586 51.790909 
" style="fill:none;stroke:#1f77b4;stroke-linecap:square;stroke-width:1.5;"/>
   </g>
   <g id="line2d_8">
    <path clip-path="url(#pdf4d34e6ed)" d="M 26.81827 249.634563 
L 26.81827 249.243742 
" style="fill:none;stroke:#1f77b4;stroke-linecap:square;stroke-width:1.5;"/>
   </g>
   <g id="line2d_9">
    <path clip-path="url(#pdf4d34e6ed)" d="M 269.37586 251.609091 
L 269.37586 51.790909 
" style="fill:none;stroke:#1f77b4;stroke-linecap:square;stroke-width:1.5;"/>
   </g>
   <g id="line2d_10">
    <defs>
     <path d="M 0 3 
C 0.795609 3 1.55874 2.683901 2.12132 2.12132 
C 2.683901 1.55874 3 0.795609 3 0 
C 3 -0.795609 2.683901 -1.55874 2.12132 -2.12132 
C 1.55874 -2.683901 0.795609 -3 0 -3 
C -0.795609 -3 -1.55874 -2.683901 -2.12132 -2.12132 
C -2.683901 -1.55874 -3 -0.795609 -3 0 
C -3 0.795609 -2.683901 1.55874 -2.12132 2.12132 
C -1.55874 2.683901 -0.795609 3 0 3 
z
" id="m5ba2119a6e" style="stroke:#000000;"/>
    </defs>
    <g clip-path="url(#pdf4d34e6ed)">
     <use style="fill:#1f77b4;stroke:#000000;" x="249.828877" xlink:href="#m5ba2119a6e" y="249.630693"/>
    </g>
   </g>
   <g id="patch_3">
    <path d="M 14.690391 261.6 
L 281.50374 261.6 
" style="fill:none;stroke:#000000;stroke-linecap:square;stroke-linejoin:miter;stroke-width:0.8;"/>
   </g>
   <g id="text_7">
    <!-- Alpha  -->
    <g transform="translate(129.130503 24.18625)scale(0.12 -0.12)">
     <defs>
      <path d="M 34.1875 63.1875 
L 20.796875 26.90625 
L 47.609375 26.90625 
z
M 28.609375 72.90625 
L 39.796875 72.90625 
L 67.578125 0 
L 57.328125 0 
L 50.6875 18.703125 
L 17.828125 18.703125 
L 11.1875 0 
L 0.78125 0 
z
" id="DejaVuSans-65"/>
      <path d="M 9.421875 75.984375 
L 18.40625 75.984375 
L 18.40625 0 
L 9.421875 0 
z
" id="DejaVuSans-108"/>
      <path d="M 18.109375 8.203125 
L 18.109375 -20.796875 
L 9.078125 -20.796875 
L 9.078125 54.6875 
L 18.109375 54.6875 
L 18.109375 46.390625 
Q 20.953125 51.265625 25.265625 53.625 
Q 29.59375 56 35.59375 56 
Q 45.5625 56 51.78125 48.09375 
Q 58.015625 40.1875 58.015625 27.296875 
Q 58.015625 14.40625 51.78125 6.484375 
Q 45.5625 -1.421875 35.59375 -1.421875 
Q 29.59375 -1.421875 25.265625 0.953125 
Q 20.953125 3.328125 18.109375 8.203125 
z
M 48.6875 27.296875 
Q 48.6875 37.203125 44.609375 42.84375 
Q 40.53125 48.484375 33.40625 48.484375 
Q 26.265625 48.484375 22.1875 42.84375 
Q 18.109375 37.203125 18.109375 27.296875 
Q 18.109375 17.390625 22.1875 11.75 
Q 26.265625 6.109375 33.40625 6.109375 
Q 40.53125 6.109375 44.609375 11.75 
Q 48.6875 17.390625 48.6875 27.296875 
z
" id="DejaVuSans-112"/>
      <path d="M 54.890625 33.015625 
L 54.890625 0 
L 45.90625 0 
L 45.90625 32.71875 
Q 45.90625 40.484375 42.875 44.328125 
Q 39.84375 48.1875 33.796875 48.1875 
Q 26.515625 48.1875 22.3125 43.546875 
Q 18.109375 38.921875 18.109375 30.90625 
L 18.109375 0 
L 9.078125 0 
L 9.078125 75.984375 
L 18.109375 75.984375 
L 18.109375 46.1875 
Q 21.34375 51.125 25.703125 53.5625 
Q 30.078125 56 35.796875 56 
Q 45.21875 56 50.046875 50.171875 
Q 54.890625 44.34375 54.890625 33.015625 
z
" id="DejaVuSans-104"/>
      <path d="M 34.28125 27.484375 
Q 23.390625 27.484375 19.1875 25 
Q 14.984375 22.515625 14.984375 16.5 
Q 14.984375 11.71875 18.140625 8.90625 
Q 21.296875 6.109375 26.703125 6.109375 
Q 34.1875 6.109375 38.703125 11.40625 
Q 43.21875 16.703125 43.21875 25.484375 
L 43.21875 27.484375 
z
M 52.203125 31.203125 
L 52.203125 0 
L 43.21875 0 
L 43.21875 8.296875 
Q 40.140625 3.328125 35.546875 0.953125 
Q 30.953125 -1.421875 24.3125 -1.421875 
Q 15.921875 -1.421875 10.953125 3.296875 
Q 6 8.015625 6 15.921875 
Q 6 25.140625 12.171875 29.828125 
Q 18.359375 34.515625 30.609375 34.515625 
L 43.21875 34.515625 
L 43.21875 35.40625 
Q 43.21875 41.609375 39.140625 45 
Q 35.0625 48.390625 27.6875 48.390625 
Q 23 48.390625 18.546875 47.265625 
Q 14.109375 46.140625 10.015625 43.890625 
L 10.015625 52.203125 
Q 14.9375 54.109375 19.578125 55.046875 
Q 24.21875 56 28.609375 56 
Q 40.484375 56 46.34375 49.84375 
Q 52.203125 43.703125 52.203125 31.203125 
z
" id="DejaVuSans-97"/>
      <path id="DejaVuSans-32"/>
     </defs>
     <use xlink:href="#DejaVuSans-65"/>
     <use x="68.408203" xlink:href="#DejaVuSans-108"/>
     <use x="96.191406" xlink:href="#DejaVuSans-112"/>
     <use x="159.667969" xlink:href="#DejaVuSans-104"/>
     <use x="223.046875" xlink:href="#DejaVuSans-97"/>
     <use x="284.326172" xlink:href="#DejaVuSans-32"/>
    </g>
    <!--  risk aversion -->
    <g transform="translate(107.897065 37.623625)scale(0.12 -0.12)">
     <defs>
      <path d="M 41.109375 46.296875 
Q 39.59375 47.171875 37.8125 47.578125 
Q 36.03125 48 33.890625 48 
Q 26.265625 48 22.1875 43.046875 
Q 18.109375 38.09375 18.109375 28.8125 
L 18.109375 0 
L 9.078125 0 
L 9.078125 54.6875 
L 18.109375 54.6875 
L 18.109375 46.1875 
Q 20.953125 51.171875 25.484375 53.578125 
Q 30.03125 56 36.53125 56 
Q 37.453125 56 38.578125 55.875 
Q 39.703125 55.765625 41.0625 55.515625 
z
" id="DejaVuSans-114"/>
      <path d="M 9.421875 54.6875 
L 18.40625 54.6875 
L 18.40625 0 
L 9.421875 0 
z
M 9.421875 75.984375 
L 18.40625 75.984375 
L 18.40625 64.59375 
L 9.421875 64.59375 
z
" id="DejaVuSans-105"/>
      <path d="M 44.28125 53.078125 
L 44.28125 44.578125 
Q 40.484375 46.53125 36.375 47.5 
Q 32.28125 48.484375 27.875 48.484375 
Q 21.1875 48.484375 17.84375 46.4375 
Q 14.5 44.390625 14.5 40.28125 
Q 14.5 37.15625 16.890625 35.375 
Q 19.28125 33.59375 26.515625 31.984375 
L 29.59375 31.296875 
Q 39.15625 29.25 43.1875 25.515625 
Q 47.21875 21.78125 47.21875 15.09375 
Q 47.21875 7.46875 41.1875 3.015625 
Q 35.15625 -1.421875 24.609375 -1.421875 
Q 20.21875 -1.421875 15.453125 -0.5625 
Q 10.6875 0.296875 5.421875 2 
L 5.421875 11.28125 
Q 10.40625 8.6875 15.234375 7.390625 
Q 20.0625 6.109375 24.8125 6.109375 
Q 31.15625 6.109375 34.5625 8.28125 
Q 37.984375 10.453125 37.984375 14.40625 
Q 37.984375 18.0625 35.515625 20.015625 
Q 33.0625 21.96875 24.703125 23.78125 
L 21.578125 24.515625 
Q 13.234375 26.265625 9.515625 29.90625 
Q 5.8125 33.546875 5.8125 39.890625 
Q 5.8125 47.609375 11.28125 51.796875 
Q 16.75 56 26.8125 56 
Q 31.78125 56 36.171875 55.265625 
Q 40.578125 54.546875 44.28125 53.078125 
z
" id="DejaVuSans-115"/>
      <path d="M 9.078125 75.984375 
L 18.109375 75.984375 
L 18.109375 31.109375 
L 44.921875 54.6875 
L 56.390625 54.6875 
L 27.390625 29.109375 
L 57.625 0 
L 45.90625 0 
L 18.109375 26.703125 
L 18.109375 0 
L 9.078125 0 
z
" id="DejaVuSans-107"/>
      <path d="M 2.984375 54.6875 
L 12.5 54.6875 
L 29.59375 8.796875 
L 46.6875 54.6875 
L 56.203125 54.6875 
L 35.6875 0 
L 23.484375 0 
z
" id="DejaVuSans-118"/>
      <path d="M 56.203125 29.59375 
L 56.203125 25.203125 
L 14.890625 25.203125 
Q 15.484375 15.921875 20.484375 11.0625 
Q 25.484375 6.203125 34.421875 6.203125 
Q 39.59375 6.203125 44.453125 7.46875 
Q 49.3125 8.734375 54.109375 11.28125 
L 54.109375 2.78125 
Q 49.265625 0.734375 44.1875 -0.34375 
Q 39.109375 -1.421875 33.890625 -1.421875 
Q 20.796875 -1.421875 13.15625 6.1875 
Q 5.515625 13.8125 5.515625 26.8125 
Q 5.515625 40.234375 12.765625 48.109375 
Q 20.015625 56 32.328125 56 
Q 43.359375 56 49.78125 48.890625 
Q 56.203125 41.796875 56.203125 29.59375 
z
M 47.21875 32.234375 
Q 47.125 39.59375 43.09375 43.984375 
Q 39.0625 48.390625 32.421875 48.390625 
Q 24.90625 48.390625 20.390625 44.140625 
Q 15.875 39.890625 15.1875 32.171875 
z
" id="DejaVuSans-101"/>
      <path d="M 30.609375 48.390625 
Q 23.390625 48.390625 19.1875 42.75 
Q 14.984375 37.109375 14.984375 27.296875 
Q 14.984375 17.484375 19.15625 11.84375 
Q 23.34375 6.203125 30.609375 6.203125 
Q 37.796875 6.203125 41.984375 11.859375 
Q 46.1875 17.53125 46.1875 27.296875 
Q 46.1875 37.015625 41.984375 42.703125 
Q 37.796875 48.390625 30.609375 48.390625 
z
M 30.609375 56 
Q 42.328125 56 49.015625 48.375 
Q 55.71875 40.765625 55.71875 27.296875 
Q 55.71875 13.875 49.015625 6.21875 
Q 42.328125 -1.421875 30.609375 -1.421875 
Q 18.84375 -1.421875 12.171875 6.21875 
Q 5.515625 13.875 5.515625 27.296875 
Q 5.515625 40.765625 12.171875 48.375 
Q 18.84375 56 30.609375 56 
z
" id="DejaVuSans-111"/>
      <path d="M 54.890625 33.015625 
L 54.890625 0 
L 45.90625 0 
L 45.90625 32.71875 
Q 45.90625 40.484375 42.875 44.328125 
Q 39.84375 48.1875 33.796875 48.1875 
Q 26.515625 48.1875 22.3125 43.546875 
Q 18.109375 38.921875 18.109375 30.90625 
L 18.109375 0 
L 9.078125 0 
L 9.078125 54.6875 
L 18.109375 54.6875 
L 18.109375 46.1875 
Q 21.34375 51.125 25.703125 53.5625 
Q 30.078125 56 35.796875 56 
Q 45.21875 56 50.046875 50.171875 
Q 54.890625 44.34375 54.890625 33.015625 
z
" id="DejaVuSans-110"/>
     </defs>
     <use xlink:href="#DejaVuSans-32"/>
     <use x="31.787109" xlink:href="#DejaVuSans-114"/>
     <use x="72.900391" xlink:href="#DejaVuSans-105"/>
     <use x="100.683594" xlink:href="#DejaVuSans-115"/>
     <use x="152.783203" xlink:href="#DejaVuSans-107"/>
     <use x="210.693359" xlink:href="#DejaVuSans-32"/>
     <use x="242.480469" xlink:href="#DejaVuSans-97"/>
     <use x="303.759766" xlink:href="#DejaVuSans-118"/>
     <use x="362.939453" xlink:href="#DejaVuSans-101"/>
     <use x="424.462891" xlink:href="#DejaVuSans-114"/>
     <use x="465.576172" xlink:href="#DejaVuSans-115"/>
     <use x="517.675781" xlink:href="#DejaVuSans-105"/>
     <use x="545.458984" xlink:href="#DejaVuSans-111"/>
     <use x="606.640625" xlink:href="#DejaVuSans-110"/>
    </g>
   </g>
  </g>
  <g id="axes_2">
   <g id="patch_4">
    <path d="M 296.345477 261.6 
L 563.158826 261.6 
L 563.158826 41.8 
L 296.345477 41.8 
z
" style="fill:#ffffff;"/>
   </g>
   <g id="matplotlib.axis_3">
    <g id="xtick_7">
     <g id="line2d_11">
      <g>
       <use style="stroke:#000000;stroke-width:0.8;" x="308.159378" xlink:href="#m9cd6e3a152" y="261.6"/>
      </g>
     </g>
     <g id="text_8">
      <!-- 0.0 -->
      <g transform="translate(297.027191 279.237813)scale(0.14 -0.14)">
       <use xlink:href="#DejaVuSans-48"/>
       <use x="63.623047" xlink:href="#DejaVuSans-46"/>
       <use x="95.410156" xlink:href="#DejaVuSans-48"/>
      </g>
     </g>
    </g>
    <g id="xtick_8">
     <g id="line2d_12">
      <g>
       <use style="stroke:#000000;stroke-width:0.8;" x="356.786767" xlink:href="#m9cd6e3a152" y="261.6"/>
      </g>
     </g>
     <g id="text_9">
      <!-- 0.2 -->
      <g transform="translate(345.654579 279.237813)scale(0.14 -0.14)">
       <use xlink:href="#DejaVuSans-48"/>
       <use x="63.623047" xlink:href="#DejaVuSans-46"/>
       <use x="95.410156" xlink:href="#DejaVuSans-50"/>
      </g>
     </g>
    </g>
    <g id="xtick_9">
     <g id="line2d_13">
      <g>
       <use style="stroke:#000000;stroke-width:0.8;" x="405.414155" xlink:href="#m9cd6e3a152" y="261.6"/>
      </g>
     </g>
     <g id="text_10">
      <!-- 0.4 -->
      <g transform="translate(394.281968 279.237813)scale(0.14 -0.14)">
       <use xlink:href="#DejaVuSans-48"/>
       <use x="63.623047" xlink:href="#DejaVuSans-46"/>
       <use x="95.410156" xlink:href="#DejaVuSans-52"/>
      </g>
     </g>
    </g>
    <g id="xtick_10">
     <g id="line2d_14">
      <g>
       <use style="stroke:#000000;stroke-width:0.8;" x="454.041544" xlink:href="#m9cd6e3a152" y="261.6"/>
      </g>
     </g>
     <g id="text_11">
      <!-- 0.6 -->
      <g transform="translate(442.909356 279.237813)scale(0.14 -0.14)">
       <use xlink:href="#DejaVuSans-48"/>
       <use x="63.623047" xlink:href="#DejaVuSans-46"/>
       <use x="95.410156" xlink:href="#DejaVuSans-54"/>
      </g>
     </g>
    </g>
    <g id="xtick_11">
     <g id="line2d_15">
      <g>
       <use style="stroke:#000000;stroke-width:0.8;" x="502.668932" xlink:href="#m9cd6e3a152" y="261.6"/>
      </g>
     </g>
     <g id="text_12">
      <!-- 0.8 -->
      <g transform="translate(491.536745 279.237813)scale(0.14 -0.14)">
       <use xlink:href="#DejaVuSans-48"/>
       <use x="63.623047" xlink:href="#DejaVuSans-46"/>
       <use x="95.410156" xlink:href="#DejaVuSans-56"/>
      </g>
     </g>
    </g>
    <g id="xtick_12">
     <g id="line2d_16">
      <g>
       <use style="stroke:#000000;stroke-width:0.8;" x="551.296321" xlink:href="#m9cd6e3a152" y="261.6"/>
      </g>
     </g>
     <g id="text_13">
      <!-- 1.0 -->
      <g transform="translate(540.164133 279.237813)scale(0.14 -0.14)">
       <use xlink:href="#DejaVuSans-49"/>
       <use x="63.623047" xlink:href="#DejaVuSans-46"/>
       <use x="95.410156" xlink:href="#DejaVuSans-48"/>
      </g>
     </g>
    </g>
   </g>
   <g id="matplotlib.axis_4"/>
   <g id="line2d_17">
    <path clip-path="url(#p09b8618b25)" d="M 315.651362 250.164405 
L 317.954154 250.296293 
L 325.783645 251.086022 
L 328.546994 251.020149 
L 341.903184 250.332535 
L 344.205976 250.605378 
L 347.429884 251.016441 
L 350.193233 251.076959 
L 353.417141 250.865032 
L 357.101607 250.581281 
L 359.404399 250.622042 
L 367.233889 251.065512 
L 369.536681 250.87836 
L 375.984497 250.066277 
L 380.129521 249.917694 
L 381.971754 250.075104 
L 387.037895 250.723657 
L 389.801245 250.687124 
L 393.025153 250.465993 
L 398.091294 249.91696 
L 400.394085 249.942778 
L 403.617993 250.032043 
L 405.460226 249.834052 
L 410.065809 249.099791 
L 412.3686 249.039312 
L 418.816416 249.034706 
L 422.500883 248.634314 
L 424.803674 248.716737 
L 427.106465 248.744184 
L 428.948698 248.522286 
L 433.554281 247.830106 
L 436.317631 247.31153 
L 439.541539 246.638079 
L 442.765447 246.06795 
L 444.147122 245.585769 
L 445.528796 244.846917 
L 446.910471 243.780801 
L 448.292146 242.356835 
L 449.673821 240.370448 
L 450.594937 238.604938 
L 451.516054 236.455866 
L 452.437171 233.855719 
L 453.818845 229.124168 
L 458.424428 212.008325 
L 461.648336 202.684459 
L 462.569453 198.96663 
L 463.490569 194.192212 
L 464.411686 188.341068 
L 465.793361 177.905868 
L 469.938385 144.584376 
L 471.780618 131.92426 
L 475.465084 107.495193 
L 477.767876 91.729127 
L 478.688992 86.498637 
L 479.610109 82.218429 
L 480.531225 78.868844 
L 481.9129 75.025163 
L 483.755133 70.805595 
L 486.057925 65.982889 
L 488.360716 61.919417 
L 489.281833 60.234755 
L 490.663507 57.150187 
L 492.505741 52.765384 
L 492.966299 52.084268 
L 493.426857 51.790909 
L 493.887415 52.004672 
L 494.347974 52.803063 
L 494.808532 54.232493 
L 495.26909 56.331216 
L 496.190207 62.464369 
L 497.571882 74.843707 
L 499.414115 91.910143 
L 500.79579 102.231988 
L 502.177464 110.234959 
L 503.098581 114.422149 
L 504.019697 117.647394 
L 504.940814 119.845319 
L 505.401372 120.561214 
L 506.322489 121.424568 
L 508.62528 123.033164 
L 509.546397 124.465459 
L 510.467513 126.498018 
L 511.38863 129.030459 
L 512.309746 132.089615 
L 513.691421 137.873101 
L 515.073096 145.085765 
L 517.375887 159.540594 
L 519.218121 170.659829 
L 520.599795 177.737373 
L 521.98147 183.56944 
L 522.902587 186.680218 
L 523.823703 188.999284 
L 524.284262 189.837331 
L 524.74482 190.438839 
L 525.205378 190.794889 
L 525.665936 190.967713 
L 526.126495 190.930859 
L 527.047611 190.501513 
L 527.968728 189.937464 
L 528.429286 189.801422 
L 528.889844 189.819521 
L 529.350403 190.045158 
L 529.810961 190.479373 
L 530.271519 191.139269 
L 531.192636 193.048027 
L 532.574311 196.933114 
L 534.416544 202.112149 
L 535.33766 204.245024 
L 536.719335 206.654039 
L 538.10101 208.473926 
L 540.86436 211.912809 
L 542.246034 213.569947 
L 543.167151 214.307952 
L 544.088267 214.6637 
L 545.009384 214.684871 
L 546.391059 214.524302 
L 547.312175 214.61483 
L 548.233292 215.005285 
L 550.536083 216.459852 
L 550.996642 216.611305 
L 550.996642 216.611305 
" style="fill:none;stroke:#1f77b4;stroke-linecap:square;stroke-width:1.5;"/>
   </g>
   <g id="line2d_18">
    <path clip-path="url(#p09b8618b25)" d="M 315.651362 251.151365 
L 315.651362 250.164405 
" style="fill:none;stroke:#1f77b4;stroke-linecap:square;stroke-width:1.5;"/>
   </g>
   <g id="line2d_19">
    <path clip-path="url(#p09b8618b25)" d="M 550.996642 251.486896 
L 550.996642 216.611305 
" style="fill:none;stroke:#1f77b4;stroke-linecap:square;stroke-width:1.5;"/>
   </g>
   <g id="line2d_20">
    <g clip-path="url(#p09b8618b25)">
     <use style="fill:#1f77b4;stroke:#000000;" x="494.815777" xlink:href="#m5ba2119a6e" y="251.141593"/>
    </g>
   </g>
   <g id="line2d_21">
    <path clip-path="url(#p09b8618b25)" d="M 308.473356 249.89593 
L 312.270735 250.068775 
L 317.017459 250.227615 
L 321.289511 250.430104 
L 325.561562 250.653246 
L 328.409596 250.559503 
L 332.206975 250.150075 
L 335.529682 249.839146 
L 337.903044 249.86904 
L 340.751078 250.188789 
L 344.073785 250.578959 
L 346.447147 250.633564 
L 349.295181 250.453018 
L 353.567233 250.162896 
L 365.908715 249.958655 
L 369.231422 250.053465 
L 372.554128 249.846525 
L 375.402163 249.745253 
L 381.098231 249.716571 
L 383.946266 249.357781 
L 396.287748 247.344324 
L 399.135782 247.05673 
L 401.509144 247.033991 
L 407.205213 247.122956 
L 409.578575 246.791872 
L 416.223988 245.523764 
L 418.122678 245.548124 
L 420.970712 245.935079 
L 423.344074 246.222534 
L 424.768091 246.204473 
L 426.666781 245.933988 
L 430.938832 245.09339 
L 432.837522 244.994799 
L 435.210884 245.126408 
L 439.008263 245.41185 
L 440.906952 245.316102 
L 442.330969 245.064326 
L 444.229659 244.49478 
L 446.603021 243.487015 
L 448.50171 242.405728 
L 449.925728 241.357423 
L 451.349745 240.025363 
L 452.773762 238.357618 
L 454.672451 235.698944 
L 457.045813 231.891104 
L 463.216554 221.511648 
L 465.589916 217.078976 
L 467.963278 212.215369 
L 469.861968 207.910043 
L 471.285985 204.226971 
L 472.710002 199.898655 
L 474.134019 194.728661 
L 475.558037 188.664123 
L 477.456726 179.433262 
L 482.20345 155.616981 
L 484.10214 147.620683 
L 486.000829 140.54095 
L 488.848863 129.995205 
L 490.747553 121.901516 
L 496.443622 95.993572 
L 498.342311 88.829018 
L 500.241001 82.574404 
L 501.665018 78.552272 
L 503.089035 75.188379 
L 504.03838 73.384965 
L 504.987725 71.996719 
L 505.937069 71.046298 
L 506.886414 70.632935 
L 507.361087 70.628995 
L 507.835759 70.79731 
L 508.310431 71.103841 
L 508.785104 71.582622 
L 509.734448 73.108931 
L 510.683793 75.35564 
L 511.633138 78.240638 
L 513.057155 83.562479 
L 516.379862 98.061198 
L 518.278551 105.962103 
L 520.651913 114.684996 
L 523.025275 122.355303 
L 524.923965 127.768568 
L 527.297327 133.807456 
L 529.196016 138.527019 
L 530.620034 142.441992 
L 532.044051 146.932512 
L 533.468068 152.130571 
L 535.366757 159.911857 
L 539.164136 176.050249 
L 541.062826 183.189408 
L 542.961516 189.431769 
L 544.860205 194.826106 
L 546.758895 199.286757 
L 548.182912 201.885996 
L 549.132257 203.146365 
L 550.081601 204.005325 
L 550.556274 204.274635 
L 551.030946 204.391772 
L 551.030946 204.391772 
" style="fill:none;stroke:#ff7f0e;stroke-linecap:square;stroke-width:1.5;"/>
   </g>
   <g id="line2d_22">
    <path clip-path="url(#p09b8618b25)" d="M 308.473356 251.154049 
L 308.473356 249.89593 
" style="fill:none;stroke:#ff7f0e;stroke-linecap:square;stroke-width:1.5;"/>
   </g>
   <g id="line2d_23">
    <path clip-path="url(#p09b8618b25)" d="M 551.030946 251.609091 
L 551.030946 204.391772 
" style="fill:none;stroke:#ff7f0e;stroke-linecap:square;stroke-width:1.5;"/>
   </g>
   <g id="line2d_24">
    <defs>
     <path d="M 0 3 
C 0.795609 3 1.55874 2.683901 2.12132 2.12132 
C 2.683901 1.55874 3 0.795609 3 0 
C 3 -0.795609 2.683901 -1.55874 2.12132 -2.12132 
C 1.55874 -2.683901 0.795609 -3 0 -3 
C -0.795609 -3 -1.55874 -2.683901 -2.12132 -2.12132 
C -2.683901 -1.55874 -3 -0.795609 -3 0 
C -3 0.795609 -2.683901 1.55874 -2.12132 2.12132 
C -1.55874 2.683901 -0.795609 3 0 3 
z
" id="m1402cc8d08" style="stroke:#000000;"/>
    </defs>
    <g clip-path="url(#p09b8618b25)">
     <use style="fill:#ff7f0e;stroke:#000000;" x="502.996597" xlink:href="#m1402cc8d08" y="251.141593"/>
    </g>
   </g>
   <g id="line2d_25"/>
   <g id="line2d_26"/>
   <g id="patch_5">
    <path d="M 296.345477 261.6 
L 563.158826 261.6 
" style="fill:none;stroke:#000000;stroke-linecap:square;stroke-linejoin:miter;stroke-width:0.8;"/>
   </g>
   <g id="text_14">
    <!-- Prob. non-linearities -->
    <g transform="translate(369.697776 35.8)scale(0.12 -0.12)">
     <defs>
      <path d="M 19.671875 64.796875 
L 19.671875 37.40625 
L 32.078125 37.40625 
Q 38.96875 37.40625 42.71875 40.96875 
Q 46.484375 44.53125 46.484375 51.125 
Q 46.484375 57.671875 42.71875 61.234375 
Q 38.96875 64.796875 32.078125 64.796875 
z
M 9.8125 72.90625 
L 32.078125 72.90625 
Q 44.34375 72.90625 50.609375 67.359375 
Q 56.890625 61.8125 56.890625 51.125 
Q 56.890625 40.328125 50.609375 34.8125 
Q 44.34375 29.296875 32.078125 29.296875 
L 19.671875 29.296875 
L 19.671875 0 
L 9.8125 0 
z
" id="DejaVuSans-80"/>
      <path d="M 48.6875 27.296875 
Q 48.6875 37.203125 44.609375 42.84375 
Q 40.53125 48.484375 33.40625 48.484375 
Q 26.265625 48.484375 22.1875 42.84375 
Q 18.109375 37.203125 18.109375 27.296875 
Q 18.109375 17.390625 22.1875 11.75 
Q 26.265625 6.109375 33.40625 6.109375 
Q 40.53125 6.109375 44.609375 11.75 
Q 48.6875 17.390625 48.6875 27.296875 
z
M 18.109375 46.390625 
Q 20.953125 51.265625 25.265625 53.625 
Q 29.59375 56 35.59375 56 
Q 45.5625 56 51.78125 48.09375 
Q 58.015625 40.1875 58.015625 27.296875 
Q 58.015625 14.40625 51.78125 6.484375 
Q 45.5625 -1.421875 35.59375 -1.421875 
Q 29.59375 -1.421875 25.265625 0.953125 
Q 20.953125 3.328125 18.109375 8.203125 
L 18.109375 0 
L 9.078125 0 
L 9.078125 75.984375 
L 18.109375 75.984375 
z
" id="DejaVuSans-98"/>
      <path d="M 4.890625 31.390625 
L 31.203125 31.390625 
L 31.203125 23.390625 
L 4.890625 23.390625 
z
" id="DejaVuSans-45"/>
      <path d="M 18.3125 70.21875 
L 18.3125 54.6875 
L 36.8125 54.6875 
L 36.8125 47.703125 
L 18.3125 47.703125 
L 18.3125 18.015625 
Q 18.3125 11.328125 20.140625 9.421875 
Q 21.96875 7.515625 27.59375 7.515625 
L 36.8125 7.515625 
L 36.8125 0 
L 27.59375 0 
Q 17.1875 0 13.234375 3.875 
Q 9.28125 7.765625 9.28125 18.015625 
L 9.28125 47.703125 
L 2.6875 47.703125 
L 2.6875 54.6875 
L 9.28125 54.6875 
L 9.28125 70.21875 
z
" id="DejaVuSans-116"/>
     </defs>
     <use xlink:href="#DejaVuSans-80"/>
     <use x="58.552734" xlink:href="#DejaVuSans-114"/>
     <use x="97.416016" xlink:href="#DejaVuSans-111"/>
     <use x="158.597656" xlink:href="#DejaVuSans-98"/>
     <use x="222.074219" xlink:href="#DejaVuSans-46"/>
     <use x="253.861328" xlink:href="#DejaVuSans-32"/>
     <use x="285.648438" xlink:href="#DejaVuSans-110"/>
     <use x="349.027344" xlink:href="#DejaVuSans-111"/>
     <use x="410.208984" xlink:href="#DejaVuSans-110"/>
     <use x="473.587891" xlink:href="#DejaVuSans-45"/>
     <use x="509.671875" xlink:href="#DejaVuSans-108"/>
     <use x="537.455078" xlink:href="#DejaVuSans-105"/>
     <use x="565.238281" xlink:href="#DejaVuSans-110"/>
     <use x="628.617188" xlink:href="#DejaVuSans-101"/>
     <use x="690.140625" xlink:href="#DejaVuSans-97"/>
     <use x="751.419922" xlink:href="#DejaVuSans-114"/>
     <use x="792.533203" xlink:href="#DejaVuSans-105"/>
     <use x="820.316406" xlink:href="#DejaVuSans-116"/>
     <use x="859.525391" xlink:href="#DejaVuSans-105"/>
     <use x="887.308594" xlink:href="#DejaVuSans-101"/>
     <use x="948.832031" xlink:href="#DejaVuSans-115"/>
    </g>
   </g>
   <g id="legend_1">
    <g id="patch_6">
     <path d="M 306.145477 94.09875 
L 406.225789 94.09875 
Q 409.025789 94.09875 409.025789 91.29875 
L 409.025789 51.6 
Q 409.025789 48.8 406.225789 48.8 
L 306.145477 48.8 
Q 303.345477 48.8 303.345477 51.6 
L 303.345477 91.29875 
Q 303.345477 94.09875 306.145477 94.09875 
z
" style="fill:#ffffff;opacity:0.8;stroke:#cccccc;stroke-linejoin:miter;"/>
    </g>
    <g id="line2d_27">
     <path d="M 308.945477 60.137812 
L 336.945477 60.137812 
" style="fill:none;stroke:#1f77b4;stroke-linecap:square;stroke-width:1.5;"/>
    </g>
    <g id="line2d_28"/>
    <g id="text_15">
     <!-- Gamma -->
     <g transform="translate(348.145477 65.037812)scale(0.14 -0.14)">
      <defs>
       <path d="M 59.515625 10.40625 
L 59.515625 29.984375 
L 43.40625 29.984375 
L 43.40625 38.09375 
L 69.28125 38.09375 
L 69.28125 6.78125 
Q 63.578125 2.734375 56.6875 0.65625 
Q 49.8125 -1.421875 42 -1.421875 
Q 24.90625 -1.421875 15.25 8.5625 
Q 5.609375 18.5625 5.609375 36.375 
Q 5.609375 54.25 15.25 64.234375 
Q 24.90625 74.21875 42 74.21875 
Q 49.125 74.21875 55.546875 72.453125 
Q 61.96875 70.703125 67.390625 67.28125 
L 67.390625 56.78125 
Q 61.921875 61.421875 55.765625 63.765625 
Q 49.609375 66.109375 42.828125 66.109375 
Q 29.4375 66.109375 22.71875 58.640625 
Q 16.015625 51.171875 16.015625 36.375 
Q 16.015625 21.625 22.71875 14.15625 
Q 29.4375 6.6875 42.828125 6.6875 
Q 48.046875 6.6875 52.140625 7.59375 
Q 56.25 8.5 59.515625 10.40625 
z
" id="DejaVuSans-71"/>
       <path d="M 52 44.1875 
Q 55.375 50.25 60.0625 53.125 
Q 64.75 56 71.09375 56 
Q 79.640625 56 84.28125 50.015625 
Q 88.921875 44.046875 88.921875 33.015625 
L 88.921875 0 
L 79.890625 0 
L 79.890625 32.71875 
Q 79.890625 40.578125 77.09375 44.375 
Q 74.3125 48.1875 68.609375 48.1875 
Q 61.625 48.1875 57.5625 43.546875 
Q 53.515625 38.921875 53.515625 30.90625 
L 53.515625 0 
L 44.484375 0 
L 44.484375 32.71875 
Q 44.484375 40.625 41.703125 44.40625 
Q 38.921875 48.1875 33.109375 48.1875 
Q 26.21875 48.1875 22.15625 43.53125 
Q 18.109375 38.875 18.109375 30.90625 
L 18.109375 0 
L 9.078125 0 
L 9.078125 54.6875 
L 18.109375 54.6875 
L 18.109375 46.1875 
Q 21.1875 51.21875 25.484375 53.609375 
Q 29.78125 56 35.6875 56 
Q 41.65625 56 45.828125 52.96875 
Q 50 49.953125 52 44.1875 
z
" id="DejaVuSans-109"/>
      </defs>
      <use xlink:href="#DejaVuSans-71"/>
      <use x="77.490234" xlink:href="#DejaVuSans-97"/>
      <use x="138.769531" xlink:href="#DejaVuSans-109"/>
      <use x="236.181641" xlink:href="#DejaVuSans-109"/>
      <use x="333.59375" xlink:href="#DejaVuSans-97"/>
     </g>
    </g>
    <g id="line2d_29">
     <path d="M 308.945477 80.687187 
L 336.945477 80.687187 
" style="fill:none;stroke:#ff7f0e;stroke-linecap:square;stroke-width:1.5;"/>
    </g>
    <g id="line2d_30"/>
    <g id="text_16">
     <!-- Delta -->
     <g transform="translate(348.145477 85.587187)scale(0.14 -0.14)">
      <defs>
       <path d="M 19.671875 64.796875 
L 19.671875 8.109375 
L 31.59375 8.109375 
Q 46.6875 8.109375 53.6875 14.9375 
Q 60.6875 21.78125 60.6875 36.53125 
Q 60.6875 51.171875 53.6875 57.984375 
Q 46.6875 64.796875 31.59375 64.796875 
z
M 9.8125 72.90625 
L 30.078125 72.90625 
Q 51.265625 72.90625 61.171875 64.09375 
Q 71.09375 55.28125 71.09375 36.53125 
Q 71.09375 17.671875 61.125 8.828125 
Q 51.171875 0 30.078125 0 
L 9.8125 0 
z
" id="DejaVuSans-68"/>
      </defs>
      <use xlink:href="#DejaVuSans-68"/>
      <use x="77.001953" xlink:href="#DejaVuSans-101"/>
      <use x="138.525391" xlink:href="#DejaVuSans-108"/>
      <use x="166.308594" xlink:href="#DejaVuSans-116"/>
      <use x="205.517578" xlink:href="#DejaVuSans-97"/>
     </g>
    </g>
   </g>
  </g>
  <g id="axes_3">
   <g id="patch_7">
    <path d="M 14.690391 544.2 
L 281.50374 544.2 
L 281.50374 324.4 
L 14.690391 324.4 
z
" style="fill:#ffffff;"/>
   </g>
   <g id="matplotlib.axis_5">
    <g id="xtick_13">
     <g id="line2d_31">
      <g>
       <use style="stroke:#000000;stroke-width:0.8;" x="63.944978" xlink:href="#m9cd6e3a152" y="544.2"/>
      </g>
     </g>
     <g id="text_17">
      <!-- 0.5 -->
      <g transform="translate(52.812791 561.837813)scale(0.14 -0.14)">
       <defs>
        <path d="M 10.796875 72.90625 
L 49.515625 72.90625 
L 49.515625 64.59375 
L 19.828125 64.59375 
L 19.828125 46.734375 
Q 21.96875 47.46875 24.109375 47.828125 
Q 26.265625 48.1875 28.421875 48.1875 
Q 40.625 48.1875 47.75 41.5 
Q 54.890625 34.8125 54.890625 23.390625 
Q 54.890625 11.625 47.5625 5.09375 
Q 40.234375 -1.421875 26.90625 -1.421875 
Q 22.3125 -1.421875 17.546875 -0.640625 
Q 12.796875 0.140625 7.71875 1.703125 
L 7.71875 11.625 
Q 12.109375 9.234375 16.796875 8.0625 
Q 21.484375 6.890625 26.703125 6.890625 
Q 35.15625 6.890625 40.078125 11.328125 
Q 45.015625 15.765625 45.015625 23.390625 
Q 45.015625 31 40.078125 35.4375 
Q 35.15625 39.890625 26.703125 39.890625 
Q 22.75 39.890625 18.8125 39.015625 
Q 14.890625 38.140625 10.796875 36.28125 
z
" id="DejaVuSans-53"/>
       </defs>
       <use xlink:href="#DejaVuSans-48"/>
       <use x="63.623047" xlink:href="#DejaVuSans-46"/>
       <use x="95.410156" xlink:href="#DejaVuSans-53"/>
      </g>
     </g>
    </g>
    <g id="xtick_14">
     <g id="line2d_32">
      <g>
       <use style="stroke:#000000;stroke-width:0.8;" x="129.635219" xlink:href="#m9cd6e3a152" y="544.2"/>
      </g>
     </g>
     <g id="text_18">
      <!-- 1.0 -->
      <g transform="translate(118.503032 561.837813)scale(0.14 -0.14)">
       <use xlink:href="#DejaVuSans-49"/>
       <use x="63.623047" xlink:href="#DejaVuSans-46"/>
       <use x="95.410156" xlink:href="#DejaVuSans-48"/>
      </g>
     </g>
    </g>
    <g id="xtick_15">
     <g id="line2d_33">
      <g>
       <use style="stroke:#000000;stroke-width:0.8;" x="195.325461" xlink:href="#m9cd6e3a152" y="544.2"/>
      </g>
     </g>
     <g id="text_19">
      <!-- 1.5 -->
      <g transform="translate(184.193273 561.837813)scale(0.14 -0.14)">
       <use xlink:href="#DejaVuSans-49"/>
       <use x="63.623047" xlink:href="#DejaVuSans-46"/>
       <use x="95.410156" xlink:href="#DejaVuSans-53"/>
      </g>
     </g>
    </g>
    <g id="xtick_16">
     <g id="line2d_34">
      <g>
       <use style="stroke:#000000;stroke-width:0.8;" x="261.015702" xlink:href="#m9cd6e3a152" y="544.2"/>
      </g>
     </g>
     <g id="text_20">
      <!-- 2.0 -->
      <g transform="translate(249.883514 561.837813)scale(0.14 -0.14)">
       <use xlink:href="#DejaVuSans-50"/>
       <use x="63.623047" xlink:href="#DejaVuSans-46"/>
       <use x="95.410156" xlink:href="#DejaVuSans-48"/>
      </g>
     </g>
    </g>
   </g>
   <g id="matplotlib.axis_6"/>
   <g id="line2d_35">
    <path clip-path="url(#pc2b33e4e5c)" d="M 26.81827 533.679055 
L 29.666304 533.818524 
L 34.887701 534.142374 
L 39.634425 534.149435 
L 44.855821 533.910361 
L 51.026562 533.356739 
L 54.823941 533.005324 
L 57.197303 533.056046 
L 61.944027 533.375275 
L 63.842716 533.193327 
L 65.266734 532.852558 
L 66.690751 532.295177 
L 68.114768 531.492996 
L 69.538785 530.444789 
L 71.437475 528.727514 
L 76.658871 523.784154 
L 79.506905 521.100282 
L 81.880267 518.598739 
L 84.253629 515.722938 
L 86.152319 513.043055 
L 87.576336 510.686103 
L 89.475025 507.009975 
L 90.899042 503.805261 
L 92.32306 500.13979 
L 93.747077 495.997238 
L 95.645766 489.63519 
L 97.544456 482.384811 
L 99.443145 474.286417 
L 101.341835 465.311843 
L 104.189869 450.565748 
L 111.309955 411.957869 
L 117.006024 379.54653 
L 119.854058 365.59343 
L 124.12611 345.50577 
L 125.550127 339.977493 
L 126.499472 337.121763 
L 127.448816 335.202721 
L 127.923489 334.648689 
L 128.398161 334.390909 
L 128.872833 334.432683 
L 129.347506 334.762801 
L 129.822178 335.374002 
L 130.296851 336.234901 
L 131.246195 338.79088 
L 132.19554 342.241188 
L 133.619557 348.693107 
L 135.518247 358.644981 
L 139.790298 381.028223 
L 142.16366 391.939602 
L 151.657108 432.693536 
L 156.403832 451.713716 
L 158.777194 460.476054 
L 166.846624 488.002192 
L 168.745314 493.999838 
L 170.644004 499.344594 
L 172.068021 502.833224 
L 173.492038 505.833148 
L 174.916055 508.331013 
L 176.340072 510.456119 
L 178.713434 513.501013 
L 180.612124 515.631885 
L 182.036141 516.969871 
L 183.460158 517.973642 
L 184.884175 518.587959 
L 185.83352 518.766718 
L 186.782865 518.752409 
L 188.206882 518.46205 
L 190.580244 517.771763 
L 191.529589 517.713919 
L 192.478933 517.936645 
L 193.428278 518.499395 
L 194.377623 519.404092 
L 195.326968 520.611786 
L 197.225657 523.515554 
L 199.124347 526.282152 
L 200.548364 527.890425 
L 201.497709 528.702746 
L 202.921726 529.57949 
L 204.345743 530.147871 
L 205.76976 530.51923 
L 208.143122 530.827769 
L 211.465829 530.952731 
L 214.788536 531.13517 
L 217.63657 531.556242 
L 220.959277 532.323105 
L 225.231328 533.34338 
L 227.60469 533.684888 
L 229.978052 533.818178 
L 233.300759 533.761329 
L 237.098138 533.737049 
L 247.066258 533.968819 
L 251.812982 533.952479 
L 255.610361 533.905712 
L 258.458395 533.622793 
L 262.730447 533.168922 
L 266.527826 533.073936 
L 269.37586 533.064336 
L 269.37586 533.064336 
" style="fill:none;stroke:#1f77b4;stroke-linecap:square;stroke-width:1.5;"/>
   </g>
   <g id="line2d_36">
    <path clip-path="url(#pc2b33e4e5c)" d="M 26.81827 534.202944 
L 26.81827 533.679055 
" style="fill:none;stroke:#1f77b4;stroke-linecap:square;stroke-width:1.5;"/>
   </g>
   <g id="line2d_37">
    <path clip-path="url(#pc2b33e4e5c)" d="M 269.37586 534.209091 
L 269.37586 533.064336 
" style="fill:none;stroke:#1f77b4;stroke-linecap:square;stroke-width:1.5;"/>
   </g>
   <g id="line2d_38">
    <g clip-path="url(#pc2b33e4e5c)">
     <use style="fill:#1f77b4;stroke:#000000;" x="132.28689" xlink:href="#m5ba2119a6e" y="534.197757"/>
    </g>
   </g>
   <g id="patch_8">
    <path d="M 14.690391 544.2 
L 281.50374 544.2 
" style="fill:none;stroke:#000000;stroke-linecap:square;stroke-linejoin:miter;stroke-width:0.8;"/>
   </g>
   <g id="text_21">
    <!-- Lambda  -->
    <g transform="translate(122.030815 306.78625)scale(0.12 -0.12)">
     <defs>
      <path d="M 9.8125 72.90625 
L 19.671875 72.90625 
L 19.671875 8.296875 
L 55.171875 8.296875 
L 55.171875 0 
L 9.8125 0 
z
" id="DejaVuSans-76"/>
      <path d="M 45.40625 46.390625 
L 45.40625 75.984375 
L 54.390625 75.984375 
L 54.390625 0 
L 45.40625 0 
L 45.40625 8.203125 
Q 42.578125 3.328125 38.25 0.953125 
Q 33.9375 -1.421875 27.875 -1.421875 
Q 17.96875 -1.421875 11.734375 6.484375 
Q 5.515625 14.40625 5.515625 27.296875 
Q 5.515625 40.1875 11.734375 48.09375 
Q 17.96875 56 27.875 56 
Q 33.9375 56 38.25 53.625 
Q 42.578125 51.265625 45.40625 46.390625 
z
M 14.796875 27.296875 
Q 14.796875 17.390625 18.875 11.75 
Q 22.953125 6.109375 30.078125 6.109375 
Q 37.203125 6.109375 41.296875 11.75 
Q 45.40625 17.390625 45.40625 27.296875 
Q 45.40625 37.203125 41.296875 42.84375 
Q 37.203125 48.484375 30.078125 48.484375 
Q 22.953125 48.484375 18.875 42.84375 
Q 14.796875 37.203125 14.796875 27.296875 
z
" id="DejaVuSans-100"/>
     </defs>
     <use xlink:href="#DejaVuSans-76"/>
     <use x="55.712891" xlink:href="#DejaVuSans-97"/>
     <use x="116.992188" xlink:href="#DejaVuSans-109"/>
     <use x="214.404297" xlink:href="#DejaVuSans-98"/>
     <use x="277.880859" xlink:href="#DejaVuSans-100"/>
     <use x="341.357422" xlink:href="#DejaVuSans-97"/>
     <use x="402.636719" xlink:href="#DejaVuSans-32"/>
    </g>
    <!--  loss aversion -->
    <g transform="translate(107.041128 320.223625)scale(0.12 -0.12)">
     <use xlink:href="#DejaVuSans-32"/>
     <use x="31.787109" xlink:href="#DejaVuSans-108"/>
     <use x="59.570312" xlink:href="#DejaVuSans-111"/>
     <use x="120.751953" xlink:href="#DejaVuSans-115"/>
     <use x="172.851562" xlink:href="#DejaVuSans-115"/>
     <use x="224.951172" xlink:href="#DejaVuSans-32"/>
     <use x="256.738281" xlink:href="#DejaVuSans-97"/>
     <use x="318.017578" xlink:href="#DejaVuSans-118"/>
     <use x="377.197266" xlink:href="#DejaVuSans-101"/>
     <use x="438.720703" xlink:href="#DejaVuSans-114"/>
     <use x="479.833984" xlink:href="#DejaVuSans-115"/>
     <use x="531.933594" xlink:href="#DejaVuSans-105"/>
     <use x="559.716797" xlink:href="#DejaVuSans-111"/>
     <use x="620.898438" xlink:href="#DejaVuSans-110"/>
    </g>
   </g>
  </g>
  <g id="axes_4">
   <g id="patch_9">
    <path d="M 296.345477 544.2 
L 563.158826 544.2 
L 563.158826 324.4 
L 296.345477 324.4 
z
" style="fill:#ffffff;"/>
   </g>
   <g id="matplotlib.axis_7">
    <g id="xtick_17">
     <g id="line2d_39">
      <g>
       <use style="stroke:#000000;stroke-width:0.8;" x="306.366614" xlink:href="#m9cd6e3a152" y="544.2"/>
      </g>
     </g>
     <g id="text_22">
      <!-- 0.10 -->
      <g transform="translate(290.780676 561.837813)scale(0.14 -0.14)">
       <use xlink:href="#DejaVuSans-48"/>
       <use x="63.623047" xlink:href="#DejaVuSans-46"/>
       <use x="95.410156" xlink:href="#DejaVuSans-49"/>
       <use x="159.033203" xlink:href="#DejaVuSans-48"/>
      </g>
     </g>
    </g>
    <g id="xtick_18">
     <g id="line2d_40">
      <g>
       <use style="stroke:#000000;stroke-width:0.8;" x="351.596526" xlink:href="#m9cd6e3a152" y="544.2"/>
      </g>
     </g>
     <g id="text_23">
      <!-- 0.15 -->
      <g transform="translate(336.010589 561.837813)scale(0.14 -0.14)">
       <use xlink:href="#DejaVuSans-48"/>
       <use x="63.623047" xlink:href="#DejaVuSans-46"/>
       <use x="95.410156" xlink:href="#DejaVuSans-49"/>
       <use x="159.033203" xlink:href="#DejaVuSans-53"/>
      </g>
     </g>
    </g>
    <g id="xtick_19">
     <g id="line2d_41">
      <g>
       <use style="stroke:#000000;stroke-width:0.8;" x="396.826439" xlink:href="#m9cd6e3a152" y="544.2"/>
      </g>
     </g>
     <g id="text_24">
      <!-- 0.20 -->
      <g transform="translate(381.240501 561.837813)scale(0.14 -0.14)">
       <use xlink:href="#DejaVuSans-48"/>
       <use x="63.623047" xlink:href="#DejaVuSans-46"/>
       <use x="95.410156" xlink:href="#DejaVuSans-50"/>
       <use x="159.033203" xlink:href="#DejaVuSans-48"/>
      </g>
     </g>
    </g>
    <g id="xtick_20">
     <g id="line2d_42">
      <g>
       <use style="stroke:#000000;stroke-width:0.8;" x="442.056351" xlink:href="#m9cd6e3a152" y="544.2"/>
      </g>
     </g>
     <g id="text_25">
      <!-- 0.25 -->
      <g transform="translate(426.470414 561.837813)scale(0.14 -0.14)">
       <use xlink:href="#DejaVuSans-48"/>
       <use x="63.623047" xlink:href="#DejaVuSans-46"/>
       <use x="95.410156" xlink:href="#DejaVuSans-50"/>
       <use x="159.033203" xlink:href="#DejaVuSans-53"/>
      </g>
     </g>
    </g>
    <g id="xtick_21">
     <g id="line2d_43">
      <g>
       <use style="stroke:#000000;stroke-width:0.8;" x="487.286264" xlink:href="#m9cd6e3a152" y="544.2"/>
      </g>
     </g>
     <g id="text_26">
      <!-- 0.30 -->
      <g transform="translate(471.700327 561.837813)scale(0.14 -0.14)">
       <defs>
        <path d="M 40.578125 39.3125 
Q 47.65625 37.796875 51.625 33 
Q 55.609375 28.21875 55.609375 21.1875 
Q 55.609375 10.40625 48.1875 4.484375 
Q 40.765625 -1.421875 27.09375 -1.421875 
Q 22.515625 -1.421875 17.65625 -0.515625 
Q 12.796875 0.390625 7.625 2.203125 
L 7.625 11.71875 
Q 11.71875 9.328125 16.59375 8.109375 
Q 21.484375 6.890625 26.8125 6.890625 
Q 36.078125 6.890625 40.9375 10.546875 
Q 45.796875 14.203125 45.796875 21.1875 
Q 45.796875 27.640625 41.28125 31.265625 
Q 36.765625 34.90625 28.71875 34.90625 
L 20.21875 34.90625 
L 20.21875 43.015625 
L 29.109375 43.015625 
Q 36.375 43.015625 40.234375 45.921875 
Q 44.09375 48.828125 44.09375 54.296875 
Q 44.09375 59.90625 40.109375 62.90625 
Q 36.140625 65.921875 28.71875 65.921875 
Q 24.65625 65.921875 20.015625 65.03125 
Q 15.375 64.15625 9.8125 62.3125 
L 9.8125 71.09375 
Q 15.4375 72.65625 20.34375 73.4375 
Q 25.25 74.21875 29.59375 74.21875 
Q 40.828125 74.21875 47.359375 69.109375 
Q 53.90625 64.015625 53.90625 55.328125 
Q 53.90625 49.265625 50.4375 45.09375 
Q 46.96875 40.921875 40.578125 39.3125 
z
" id="DejaVuSans-51"/>
       </defs>
       <use xlink:href="#DejaVuSans-48"/>
       <use x="63.623047" xlink:href="#DejaVuSans-46"/>
       <use x="95.410156" xlink:href="#DejaVuSans-51"/>
       <use x="159.033203" xlink:href="#DejaVuSans-48"/>
      </g>
     </g>
    </g>
    <g id="xtick_22">
     <g id="line2d_44">
      <g>
       <use style="stroke:#000000;stroke-width:0.8;" x="532.516177" xlink:href="#m9cd6e3a152" y="544.2"/>
      </g>
     </g>
     <g id="text_27">
      <!-- 0.35 -->
      <g transform="translate(516.930239 561.837813)scale(0.14 -0.14)">
       <use xlink:href="#DejaVuSans-48"/>
       <use x="63.623047" xlink:href="#DejaVuSans-46"/>
       <use x="95.410156" xlink:href="#DejaVuSans-51"/>
       <use x="159.033203" xlink:href="#DejaVuSans-53"/>
      </g>
     </g>
    </g>
   </g>
   <g id="matplotlib.axis_8"/>
   <g id="line2d_45">
    <path clip-path="url(#p4cc8b9df79)" d="M 308.473356 527.307842 
L 309.897373 527.130357 
L 310.846718 526.82097 
L 311.796063 526.368744 
L 312.745408 525.72566 
L 313.694752 524.904278 
L 315.11877 523.303172 
L 316.542787 521.239288 
L 317.966804 518.620408 
L 319.390821 515.296787 
L 320.814838 511.228688 
L 322.238855 506.470345 
L 324.137545 499.294032 
L 326.036234 491.236547 
L 327.460252 484.235482 
L 328.884269 475.976235 
L 330.308286 466.244016 
L 331.732303 454.987826 
L 334.105665 434.039945 
L 336.953699 409.277095 
L 338.852389 395.017028 
L 340.276406 385.917547 
L 342.175096 375.404458 
L 348.820509 341.051781 
L 349.769854 337.717588 
L 350.719199 335.514029 
L 351.193871 334.878923 
L 351.668543 334.520111 
L 352.143216 334.390909 
L 352.617888 334.491143 
L 353.092561 334.828246 
L 354.041905 335.989689 
L 354.99125 337.602344 
L 356.415267 340.676327 
L 357.839284 344.376226 
L 359.263302 348.913781 
L 360.687319 354.27715 
L 362.586008 362.560473 
L 367.332732 384.440149 
L 369.231422 391.901836 
L 372.554128 404.326367 
L 373.978146 410.450672 
L 375.402163 417.414729 
L 377.300852 428.099649 
L 381.098231 450.367471 
L 382.522249 457.077894 
L 383.471593 460.827763 
L 384.895611 465.421123 
L 386.7943 470.543445 
L 389.167662 476.895793 
L 393.439713 488.803764 
L 394.389058 490.884883 
L 395.338403 492.566492 
L 396.287748 493.841819 
L 397.237093 494.735822 
L 398.66111 495.698288 
L 400.559799 496.879671 
L 401.509144 497.710814 
L 402.458489 498.791159 
L 403.882506 500.825041 
L 408.154558 507.485678 
L 410.053247 509.772009 
L 416.69866 517.171431 
L 420.49604 521.533118 
L 424.293419 525.88824 
L 425.717436 527.160888 
L 427.141453 528.104162 
L 428.56547 528.699157 
L 429.989487 528.988048 
L 431.413505 529.045017 
L 433.786866 528.8119 
L 437.109573 528.361146 
L 438.53359 528.334289 
L 439.957607 528.493756 
L 441.856297 528.986666 
L 444.229659 529.642144 
L 445.653676 529.830197 
L 447.077693 529.80409 
L 452.29909 529.355415 
L 453.723107 529.572526 
L 455.621796 530.183378 
L 458.944503 531.422756 
L 460.36852 531.70563 
L 461.792537 531.782667 
L 468.912623 531.724966 
L 472.710002 532.062316 
L 475.083364 532.456018 
L 480.30476 533.477945 
L 483.152795 533.704853 
L 486.000829 533.687845 
L 490.747553 533.380002 
L 494.07026 533.289494 
L 501.190345 533.30224 
L 504.513052 533.197616 
L 506.886414 533.341089 
L 514.955845 534.09509 
L 520.177241 534.140762 
L 544.385533 534.044079 
L 549.132257 533.685915 
L 551.030946 533.605389 
L 551.030946 533.605389 
" style="fill:none;stroke:#1f77b4;stroke-linecap:square;stroke-width:1.5;"/>
   </g>
   <g id="line2d_46">
    <path clip-path="url(#p4cc8b9df79)" d="M 308.473356 534.209091 
L 308.473356 527.307842 
" style="fill:none;stroke:#1f77b4;stroke-linecap:square;stroke-width:1.5;"/>
   </g>
   <g id="line2d_47">
    <path clip-path="url(#p4cc8b9df79)" d="M 551.030946 534.146115 
L 551.030946 533.605389 
" style="fill:none;stroke:#1f77b4;stroke-linecap:square;stroke-width:1.5;"/>
   </g>
   <g id="line2d_48">
    <g clip-path="url(#p4cc8b9df79)">
     <use style="fill:#1f77b4;stroke:#000000;" x="362.547913" xlink:href="#m5ba2119a6e" y="534.140762"/>
    </g>
   </g>
   <g id="patch_10">
    <path d="M 296.345477 544.2 
L 563.158826 544.2 
" style="fill:none;stroke:#000000;stroke-linecap:square;stroke-linejoin:miter;stroke-width:0.8;"/>
   </g>
   <g id="text_28">
    <!-- Luce  -->
    <g transform="translate(413.813714 306.78625)scale(0.12 -0.12)">
     <defs>
      <path d="M 8.5 21.578125 
L 8.5 54.6875 
L 17.484375 54.6875 
L 17.484375 21.921875 
Q 17.484375 14.15625 20.5 10.265625 
Q 23.53125 6.390625 29.59375 6.390625 
Q 36.859375 6.390625 41.078125 11.03125 
Q 45.3125 15.671875 45.3125 23.6875 
L 45.3125 54.6875 
L 54.296875 54.6875 
L 54.296875 0 
L 45.3125 0 
L 45.3125 8.40625 
Q 42.046875 3.421875 37.71875 1 
Q 33.40625 -1.421875 27.6875 -1.421875 
Q 18.265625 -1.421875 13.375 4.4375 
Q 8.5 10.296875 8.5 21.578125 
z
M 31.109375 56 
z
" id="DejaVuSans-117"/>
      <path d="M 48.78125 52.59375 
L 48.78125 44.1875 
Q 44.96875 46.296875 41.140625 47.34375 
Q 37.3125 48.390625 33.40625 48.390625 
Q 24.65625 48.390625 19.8125 42.84375 
Q 14.984375 37.3125 14.984375 27.296875 
Q 14.984375 17.28125 19.8125 11.734375 
Q 24.65625 6.203125 33.40625 6.203125 
Q 37.3125 6.203125 41.140625 7.25 
Q 44.96875 8.296875 48.78125 10.40625 
L 48.78125 2.09375 
Q 45.015625 0.34375 40.984375 -0.53125 
Q 36.96875 -1.421875 32.421875 -1.421875 
Q 20.0625 -1.421875 12.78125 6.34375 
Q 5.515625 14.109375 5.515625 27.296875 
Q 5.515625 40.671875 12.859375 48.328125 
Q 20.21875 56 33.015625 56 
Q 37.15625 56 41.109375 55.140625 
Q 45.0625 54.296875 48.78125 52.59375 
z
" id="DejaVuSans-99"/>
     </defs>
     <use xlink:href="#DejaVuSans-76"/>
     <use x="53.962891" xlink:href="#DejaVuSans-117"/>
     <use x="117.341797" xlink:href="#DejaVuSans-99"/>
     <use x="172.322266" xlink:href="#DejaVuSans-101"/>
     <use x="233.845703" xlink:href="#DejaVuSans-32"/>
    </g>
    <!--  choice noise -->
    <g transform="translate(390.549651 320.223625)scale(0.12 -0.12)">
     <use xlink:href="#DejaVuSans-32"/>
     <use x="31.787109" xlink:href="#DejaVuSans-99"/>
     <use x="86.767578" xlink:href="#DejaVuSans-104"/>
     <use x="150.146484" xlink:href="#DejaVuSans-111"/>
     <use x="211.328125" xlink:href="#DejaVuSans-105"/>
     <use x="239.111328" xlink:href="#DejaVuSans-99"/>
     <use x="294.091797" xlink:href="#DejaVuSans-101"/>
     <use x="355.615234" xlink:href="#DejaVuSans-32"/>
     <use x="387.402344" xlink:href="#DejaVuSans-110"/>
     <use x="450.78125" xlink:href="#DejaVuSans-111"/>
     <use x="511.962891" xlink:href="#DejaVuSans-105"/>
     <use x="539.746094" xlink:href="#DejaVuSans-115"/>
     <use x="591.845703" xlink:href="#DejaVuSans-101"/>
    </g>
   </g>
  </g>
 </g>
 <defs>
  <clipPath id="pdf4d34e6ed">
   <rect height="219.8" width="266.813349" x="14.690391" y="41.8"/>
  </clipPath>
  <clipPath id="p09b8618b25">
   <rect height="219.8" width="266.813349" x="296.345477" y="41.8"/>
  </clipPath>
  <clipPath id="pc2b33e4e5c">
   <rect height="219.8" width="266.813349" x="14.690391" y="324.4"/>
  </clipPath>
  <clipPath id="p4cc8b9df79">
   <rect height="219.8" width="266.813349" x="296.345477" y="324.4"/>
  </clipPath>
 </defs>
</svg>
