<?xml version="1.0" encoding="utf-8" standalone="no"?>
<!DOCTYPE svg PUBLIC "-//W3C//DTD SVG 1.1//EN"
  "http://www.w3.org/Graphics/SVG/1.1/DTD/svg11.dtd">
<!-- Created with matplotlib (https://matplotlib.org/) -->
<svg height="576pt" version="1.1" viewBox="0 0 576 576" width="576pt" xmlns="http://www.w3.org/2000/svg" xmlns:xlink="http://www.w3.org/1999/xlink">
 <defs>
  <style type="text/css">
*{stroke-linecap:butt;stroke-linejoin:round;}
  </style>
 </defs>
 <g id="figure_1">
  <g id="patch_1">
   <path d="M 0 576 
L 576 576 
L 576 0 
L 0 0 
z
" style="fill:#ffffff;"/>
  </g>
  <g id="axes_1">
   <g id="patch_2">
    <path d="M 72 266.792727 
L 274.909091 266.792727 
L 274.909091 69.12 
L 72 69.12 
z
" style="fill:#ffffff;"/>
   </g>
   <g id="matplotlib.axis_1">
    <g id="xtick_1">
     <g id="line2d_1">
      <defs>
       <path d="M 0 0 
L 0 3.5 
" id="m364da870d5" style="stroke:#000000;stroke-width:0.8;"/>
      </defs>
      <g>
       <use style="stroke:#000000;stroke-width:0.8;" x="84.704122" xlink:href="#m364da870d5" y="266.792727"/>
      </g>
     </g>
     <g id="text_1">
      <!-- 0.7 -->
      <defs>
       <path d="M 31.78125 66.40625 
Q 24.171875 66.40625 20.328125 58.90625 
Q 16.5 51.421875 16.5 36.375 
Q 16.5 21.390625 20.328125 13.890625 
Q 24.171875 6.390625 31.78125 6.390625 
Q 39.453125 6.390625 43.28125 13.890625 
Q 47.125 21.390625 47.125 36.375 
Q 47.125 51.421875 43.28125 58.90625 
Q 39.453125 66.40625 31.78125 66.40625 
z
M 31.78125 74.21875 
Q 44.046875 74.21875 50.515625 64.515625 
Q 56.984375 54.828125 56.984375 36.375 
Q 56.984375 17.96875 50.515625 8.265625 
Q 44.046875 -1.421875 31.78125 -1.421875 
Q 19.53125 -1.421875 13.0625 8.265625 
Q 6.59375 17.96875 6.59375 36.375 
Q 6.59375 54.828125 13.0625 64.515625 
Q 19.53125 74.21875 31.78125 74.21875 
z
" id="DejaVuSans-48"/>
       <path d="M 10.6875 12.40625 
L 21 12.40625 
L 21 0 
L 10.6875 0 
z
" id="DejaVuSans-46"/>
       <path d="M 8.203125 72.90625 
L 55.078125 72.90625 
L 55.078125 68.703125 
L 28.609375 0 
L 18.3125 0 
L 43.21875 64.59375 
L 8.203125 64.59375 
z
" id="DejaVuSans-55"/>
      </defs>
      <g transform="translate(73.571934 284.43054)scale(0.14 -0.14)">
       <use xlink:href="#DejaVuSans-48"/>
       <use x="63.623047" xlink:href="#DejaVuSans-46"/>
       <use x="95.410156" xlink:href="#DejaVuSans-55"/>
      </g>
     </g>
    </g>
    <g id="xtick_2">
     <g id="line2d_2">
      <g>
       <use style="stroke:#000000;stroke-width:0.8;" x="145.031654" xlink:href="#m364da870d5" y="266.792727"/>
      </g>
     </g>
     <g id="text_2">
      <!-- 0.8 -->
      <defs>
       <path d="M 31.78125 34.625 
Q 24.75 34.625 20.71875 30.859375 
Q 16.703125 27.09375 16.703125 20.515625 
Q 16.703125 13.921875 20.71875 10.15625 
Q 24.75 6.390625 31.78125 6.390625 
Q 38.8125 6.390625 42.859375 10.171875 
Q 46.921875 13.96875 46.921875 20.515625 
Q 46.921875 27.09375 42.890625 30.859375 
Q 38.875 34.625 31.78125 34.625 
z
M 21.921875 38.8125 
Q 15.578125 40.375 12.03125 44.71875 
Q 8.5 49.078125 8.5 55.328125 
Q 8.5 64.0625 14.71875 69.140625 
Q 20.953125 74.21875 31.78125 74.21875 
Q 42.671875 74.21875 48.875 69.140625 
Q 55.078125 64.0625 55.078125 55.328125 
Q 55.078125 49.078125 51.53125 44.71875 
Q 48 40.375 41.703125 38.8125 
Q 48.828125 37.15625 52.796875 32.3125 
Q 56.78125 27.484375 56.78125 20.515625 
Q 56.78125 9.90625 50.3125 4.234375 
Q 43.84375 -1.421875 31.78125 -1.421875 
Q 19.734375 -1.421875 13.25 4.234375 
Q 6.78125 9.90625 6.78125 20.515625 
Q 6.78125 27.484375 10.78125 32.3125 
Q 14.796875 37.15625 21.921875 38.8125 
z
M 18.3125 54.390625 
Q 18.3125 48.734375 21.84375 45.5625 
Q 25.390625 42.390625 31.78125 42.390625 
Q 38.140625 42.390625 41.71875 45.5625 
Q 45.3125 48.734375 45.3125 54.390625 
Q 45.3125 60.0625 41.71875 63.234375 
Q 38.140625 66.40625 31.78125 66.40625 
Q 25.390625 66.40625 21.84375 63.234375 
Q 18.3125 60.0625 18.3125 54.390625 
z
" id="DejaVuSans-56"/>
      </defs>
      <g transform="translate(133.899467 284.43054)scale(0.14 -0.14)">
       <use xlink:href="#DejaVuSans-48"/>
       <use x="63.623047" xlink:href="#DejaVuSans-46"/>
       <use x="95.410156" xlink:href="#DejaVuSans-56"/>
      </g>
     </g>
    </g>
    <g id="xtick_3">
     <g id="line2d_3">
      <g>
       <use style="stroke:#000000;stroke-width:0.8;" x="205.359187" xlink:href="#m364da870d5" y="266.792727"/>
      </g>
     </g>
     <g id="text_3">
      <!-- 0.9 -->
      <defs>
       <path d="M 10.984375 1.515625 
L 10.984375 10.5 
Q 14.703125 8.734375 18.5 7.8125 
Q 22.3125 6.890625 25.984375 6.890625 
Q 35.75 6.890625 40.890625 13.453125 
Q 46.046875 20.015625 46.78125 33.40625 
Q 43.953125 29.203125 39.59375 26.953125 
Q 35.25 24.703125 29.984375 24.703125 
Q 19.046875 24.703125 12.671875 31.3125 
Q 6.296875 37.9375 6.296875 49.421875 
Q 6.296875 60.640625 12.9375 67.421875 
Q 19.578125 74.21875 30.609375 74.21875 
Q 43.265625 74.21875 49.921875 64.515625 
Q 56.59375 54.828125 56.59375 36.375 
Q 56.59375 19.140625 48.40625 8.859375 
Q 40.234375 -1.421875 26.421875 -1.421875 
Q 22.703125 -1.421875 18.890625 -0.6875 
Q 15.09375 0.046875 10.984375 1.515625 
z
M 30.609375 32.421875 
Q 37.25 32.421875 41.125 36.953125 
Q 45.015625 41.5 45.015625 49.421875 
Q 45.015625 57.28125 41.125 61.84375 
Q 37.25 66.40625 30.609375 66.40625 
Q 23.96875 66.40625 20.09375 61.84375 
Q 16.21875 57.28125 16.21875 49.421875 
Q 16.21875 41.5 20.09375 36.953125 
Q 23.96875 32.421875 30.609375 32.421875 
z
" id="DejaVuSans-57"/>
      </defs>
      <g transform="translate(194.226999 284.43054)scale(0.14 -0.14)">
       <use xlink:href="#DejaVuSans-48"/>
       <use x="63.623047" xlink:href="#DejaVuSans-46"/>
       <use x="95.410156" xlink:href="#DejaVuSans-57"/>
      </g>
     </g>
    </g>
    <g id="xtick_4">
     <g id="line2d_4">
      <g>
       <use style="stroke:#000000;stroke-width:0.8;" x="265.686719" xlink:href="#m364da870d5" y="266.792727"/>
      </g>
     </g>
     <g id="text_4">
      <!-- 1.0 -->
      <defs>
       <path d="M 12.40625 8.296875 
L 28.515625 8.296875 
L 28.515625 63.921875 
L 10.984375 60.40625 
L 10.984375 69.390625 
L 28.421875 72.90625 
L 38.28125 72.90625 
L 38.28125 8.296875 
L 54.390625 8.296875 
L 54.390625 0 
L 12.40625 0 
z
" id="DejaVuSans-49"/>
      </defs>
      <g transform="translate(254.554531 284.43054)scale(0.14 -0.14)">
       <use xlink:href="#DejaVuSans-49"/>
       <use x="63.623047" xlink:href="#DejaVuSans-46"/>
       <use x="95.410156" xlink:href="#DejaVuSans-48"/>
      </g>
     </g>
    </g>
   </g>
   <g id="matplotlib.axis_2"/>
   <g id="line2d_5">
    <path clip-path="url(#pcce80338a4)" d="M 81.22314 255.808151 
L 92.956532 255.719023 
L 98.371944 255.463999 
L 104.689924 254.944219 
L 110.105336 254.282209 
L 114.618179 253.510459 
L 117.325884 252.879017 
L 120.03359 251.999457 
L 122.741296 250.773541 
L 124.546433 249.696999 
L 126.35157 248.405028 
L 128.156707 246.872952 
L 129.961845 245.089622 
L 131.766982 243.057169 
L 133.572119 240.745926 
L 135.377256 238.133307 
L 137.182393 235.208678 
L 138.987531 231.922044 
L 140.792668 228.244098 
L 142.597805 224.132033 
L 144.402942 219.598778 
L 147.110648 212.056527 
L 149.818354 203.716611 
L 153.428628 191.715906 
L 162.454314 161.178049 
L 166.064588 150.178856 
L 168.772294 142.627403 
L 170.577431 138.024822 
L 172.382569 133.927317 
L 174.187706 130.489516 
L 175.090274 129.080289 
L 175.992843 127.90149 
L 176.895412 126.991721 
L 177.79798 126.383443 
L 178.700549 126.068592 
L 179.603117 126.068122 
L 180.505686 126.392262 
L 181.408255 127.038463 
L 182.310823 127.988218 
L 183.213392 129.238859 
L 184.11596 130.764894 
L 185.921098 134.559056 
L 187.726235 139.197633 
L 189.531372 144.443703 
L 192.239078 153.035122 
L 197.654489 171.201878 
L 204.875038 196.209793 
L 209.387881 211.832769 
L 211.193018 217.563174 
L 212.998155 222.7414 
L 214.803293 227.276139 
L 216.60843 231.130273 
L 218.413567 234.362261 
L 220.218704 237.089118 
L 222.023841 239.419782 
L 223.828979 241.450656 
L 225.634116 243.229778 
L 227.439253 244.765452 
L 229.24439 246.062645 
L 231.049527 247.10892 
L 232.854665 247.918545 
L 235.56237 248.794499 
L 244.588056 251.241943 
L 250.906036 253.215974 
L 254.516311 254.05214 
L 257.224017 254.483988 
L 259.931722 254.729088 
L 260.834291 254.766828 
L 260.834291 254.766828 
" style="fill:none;stroke:#1f77b4;stroke-linecap:square;stroke-width:1.5;"/>
   </g>
   <g id="line2d_6">
    <path clip-path="url(#pcce80338a4)" d="M 81.22314 256.043572 
L 81.22314 255.808151 
" style="fill:none;stroke:#1f77b4;stroke-linecap:square;stroke-width:1.5;"/>
   </g>
   <g id="line2d_7">
    <path clip-path="url(#pcce80338a4)" d="M 260.834291 256.053985 
L 260.834291 254.766828 
" style="fill:none;stroke:#1f77b4;stroke-linecap:square;stroke-width:1.5;"/>
   </g>
   <g id="line2d_8">
    <defs>
     <path d="M 0 3 
C 0.795609 3 1.55874 2.683901 2.12132 2.12132 
C 2.683901 1.55874 3 0.795609 3 0 
C 3 -0.795609 2.683901 -1.55874 2.12132 -2.12132 
C 1.55874 -2.683901 0.795609 -3 0 -3 
C -0.795609 -3 -1.55874 -2.683901 -2.12132 -2.12132 
C -2.683901 -1.55874 -3 -0.795609 -3 0 
C -3 0.795609 -2.683901 1.55874 -2.12132 2.12132 
C -1.55874 2.683901 -0.795609 3 0 3 
z
" id="mc2dc9021da" style="stroke:#000000;"/>
    </defs>
    <g clip-path="url(#pcce80338a4)">
     <use style="fill:#1f77b4;stroke:#000000;" x="178.46205" xlink:href="#mc2dc9021da" y="256.041241"/>
    </g>
   </g>
   <g id="line2d_9">
    <path clip-path="url(#pcce80338a4)" d="M 161.92132 255.280571 
L 175.999938 255.16976 
L 179.64995 254.762865 
L 183.821393 254.082556 
L 185.907114 253.497782 
L 187.992835 252.649115 
L 194.771429 249.434698 
L 196.85715 248.619889 
L 198.421441 247.756635 
L 199.464302 246.946324 
L 200.507162 245.908818 
L 201.550023 244.634834 
L 203.114314 242.264492 
L 204.678605 239.337055 
L 206.242896 235.864711 
L 208.328617 230.616102 
L 211.457199 222.69608 
L 213.02149 219.322225 
L 216.671502 212.097467 
L 217.714362 209.474754 
L 218.757223 206.338309 
L 219.800084 202.570866 
L 221.364375 195.72123 
L 222.928665 187.755621 
L 226.578678 168.395438 
L 228.142968 161.50136 
L 229.707259 155.869974 
L 231.792981 149.654025 
L 233.878702 143.420485 
L 235.442993 138.087264 
L 237.528714 129.965345 
L 244.307308 101.96796 
L 245.350169 98.751916 
L 246.393029 96.301351 
L 247.43589 94.712839 
L 248.47875 93.830725 
L 249.521611 93.425981 
L 251.085902 93.096536 
L 252.128763 92.581233 
L 253.171623 91.597228 
L 254.214484 90.139095 
L 255.257344 88.254872 
L 259.428787 79.941153 
L 260.471647 78.730045 
L 261.514508 78.155589 
L 262.035938 78.105124 
L 263.078799 78.338895 
L 265.68595 79.404999 
L 265.68595 79.404999 
" style="fill:none;stroke:#ff7f0e;stroke-linecap:square;stroke-width:1.5;"/>
   </g>
   <g id="line2d_10">
    <path clip-path="url(#pcce80338a4)" d="M 161.92132 256.048848 
L 161.92132 255.280571 
" style="fill:none;stroke:#ff7f0e;stroke-linecap:square;stroke-width:1.5;"/>
   </g>
   <g id="line2d_11">
    <path clip-path="url(#pcce80338a4)" d="M 265.68595 257.807603 
L 265.68595 79.404999 
" style="fill:none;stroke:#ff7f0e;stroke-linecap:square;stroke-width:1.5;"/>
   </g>
   <g id="line2d_12">
    <defs>
     <path d="M 0 3 
C 0.795609 3 1.55874 2.683901 2.12132 2.12132 
C 2.683901 1.55874 3 0.795609 3 0 
C 3 -0.795609 2.683901 -1.55874 2.12132 -2.12132 
C 1.55874 -2.683901 0.795609 -3 0 -3 
C -0.795609 -3 -1.55874 -2.683901 -2.12132 -2.12132 
C -2.683901 -1.55874 -3 -0.795609 -3 0 
C -3 0.795609 -2.683901 1.55874 -2.12132 2.12132 
C -1.55874 2.683901 -0.795609 3 0 3 
z
" id="m9fbadaf3a9" style="stroke:#000000;"/>
    </defs>
    <g clip-path="url(#pcce80338a4)">
     <use style="fill:#ff7f0e;stroke:#000000;" x="242.635985" xlink:href="#m9fbadaf3a9" y="256.041241"/>
    </g>
   </g>
   <g id="line2d_13"/>
   <g id="line2d_14"/>
   <g id="patch_3">
    <path d="M 72 266.792727 
L 274.909091 266.792727 
" style="fill:none;stroke:#000000;stroke-linecap:square;stroke-linejoin:miter;stroke-width:0.8;"/>
   </g>
   <g id="legend_1">
    <g id="patch_4">
     <path d="M 81.8 121.41875 
L 166.405937 121.41875 
Q 169.205938 121.41875 169.205938 118.61875 
L 169.205938 78.92 
Q 169.205938 76.12 166.405937 76.12 
L 81.8 76.12 
Q 79 76.12 79 78.92 
L 79 118.61875 
Q 79 121.41875 81.8 121.41875 
z
" style="fill:#ffffff;opacity:0.8;stroke:#cccccc;stroke-linejoin:miter;"/>
    </g>
    <g id="line2d_15">
     <path d="M 84.6 87.457813 
L 112.6 87.457813 
" style="fill:none;stroke:#1f77b4;stroke-linecap:square;stroke-width:1.5;"/>
    </g>
    <g id="line2d_16"/>
    <g id="text_5">
     <!-- Alpha -->
     <defs>
      <path d="M 34.1875 63.1875 
L 20.796875 26.90625 
L 47.609375 26.90625 
z
M 28.609375 72.90625 
L 39.796875 72.90625 
L 67.578125 0 
L 57.328125 0 
L 50.6875 18.703125 
L 17.828125 18.703125 
L 11.1875 0 
L 0.78125 0 
z
" id="DejaVuSans-65"/>
      <path d="M 9.421875 75.984375 
L 18.40625 75.984375 
L 18.40625 0 
L 9.421875 0 
z
" id="DejaVuSans-108"/>
      <path d="M 18.109375 8.203125 
L 18.109375 -20.796875 
L 9.078125 -20.796875 
L 9.078125 54.6875 
L 18.109375 54.6875 
L 18.109375 46.390625 
Q 20.953125 51.265625 25.265625 53.625 
Q 29.59375 56 35.59375 56 
Q 45.5625 56 51.78125 48.09375 
Q 58.015625 40.1875 58.015625 27.296875 
Q 58.015625 14.40625 51.78125 6.484375 
Q 45.5625 -1.421875 35.59375 -1.421875 
Q 29.59375 -1.421875 25.265625 0.953125 
Q 20.953125 3.328125 18.109375 8.203125 
z
M 48.6875 27.296875 
Q 48.6875 37.203125 44.609375 42.84375 
Q 40.53125 48.484375 33.40625 48.484375 
Q 26.265625 48.484375 22.1875 42.84375 
Q 18.109375 37.203125 18.109375 27.296875 
Q 18.109375 17.390625 22.1875 11.75 
Q 26.265625 6.109375 33.40625 6.109375 
Q 40.53125 6.109375 44.609375 11.75 
Q 48.6875 17.390625 48.6875 27.296875 
z
" id="DejaVuSans-112"/>
      <path d="M 54.890625 33.015625 
L 54.890625 0 
L 45.90625 0 
L 45.90625 32.71875 
Q 45.90625 40.484375 42.875 44.328125 
Q 39.84375 48.1875 33.796875 48.1875 
Q 26.515625 48.1875 22.3125 43.546875 
Q 18.109375 38.921875 18.109375 30.90625 
L 18.109375 0 
L 9.078125 0 
L 9.078125 75.984375 
L 18.109375 75.984375 
L 18.109375 46.1875 
Q 21.34375 51.125 25.703125 53.5625 
Q 30.078125 56 35.796875 56 
Q 45.21875 56 50.046875 50.171875 
Q 54.890625 44.34375 54.890625 33.015625 
z
" id="DejaVuSans-104"/>
      <path d="M 34.28125 27.484375 
Q 23.390625 27.484375 19.1875 25 
Q 14.984375 22.515625 14.984375 16.5 
Q 14.984375 11.71875 18.140625 8.90625 
Q 21.296875 6.109375 26.703125 6.109375 
Q 34.1875 6.109375 38.703125 11.40625 
Q 43.21875 16.703125 43.21875 25.484375 
L 43.21875 27.484375 
z
M 52.203125 31.203125 
L 52.203125 0 
L 43.21875 0 
L 43.21875 8.296875 
Q 40.140625 3.328125 35.546875 0.953125 
Q 30.953125 -1.421875 24.3125 -1.421875 
Q 15.921875 -1.421875 10.953125 3.296875 
Q 6 8.015625 6 15.921875 
Q 6 25.140625 12.171875 29.828125 
Q 18.359375 34.515625 30.609375 34.515625 
L 43.21875 34.515625 
L 43.21875 35.40625 
Q 43.21875 41.609375 39.140625 45 
Q 35.0625 48.390625 27.6875 48.390625 
Q 23 48.390625 18.546875 47.265625 
Q 14.109375 46.140625 10.015625 43.890625 
L 10.015625 52.203125 
Q 14.9375 54.109375 19.578125 55.046875 
Q 24.21875 56 28.609375 56 
Q 40.484375 56 46.34375 49.84375 
Q 52.203125 43.703125 52.203125 31.203125 
z
" id="DejaVuSans-97"/>
     </defs>
     <g transform="translate(123.8 92.357813)scale(0.14 -0.14)">
      <use xlink:href="#DejaVuSans-65"/>
      <use x="68.408203" xlink:href="#DejaVuSans-108"/>
      <use x="96.191406" xlink:href="#DejaVuSans-112"/>
      <use x="159.667969" xlink:href="#DejaVuSans-104"/>
      <use x="223.046875" xlink:href="#DejaVuSans-97"/>
     </g>
    </g>
    <g id="line2d_17">
     <path d="M 84.6 108.007188 
L 112.6 108.007188 
" style="fill:none;stroke:#ff7f0e;stroke-linecap:square;stroke-width:1.5;"/>
    </g>
    <g id="line2d_18"/>
    <g id="text_6">
     <!-- Beta -->
     <defs>
      <path d="M 19.671875 34.8125 
L 19.671875 8.109375 
L 35.5 8.109375 
Q 43.453125 8.109375 47.28125 11.40625 
Q 51.125 14.703125 51.125 21.484375 
Q 51.125 28.328125 47.28125 31.5625 
Q 43.453125 34.8125 35.5 34.8125 
z
M 19.671875 64.796875 
L 19.671875 42.828125 
L 34.28125 42.828125 
Q 41.5 42.828125 45.03125 45.53125 
Q 48.578125 48.25 48.578125 53.8125 
Q 48.578125 59.328125 45.03125 62.0625 
Q 41.5 64.796875 34.28125 64.796875 
z
M 9.8125 72.90625 
L 35.015625 72.90625 
Q 46.296875 72.90625 52.390625 68.21875 
Q 58.5 63.53125 58.5 54.890625 
Q 58.5 48.1875 55.375 44.234375 
Q 52.25 40.28125 46.1875 39.3125 
Q 53.46875 37.75 57.5 32.78125 
Q 61.53125 27.828125 61.53125 20.40625 
Q 61.53125 10.640625 54.890625 5.3125 
Q 48.25 0 35.984375 0 
L 9.8125 0 
z
" id="DejaVuSans-66"/>
      <path d="M 56.203125 29.59375 
L 56.203125 25.203125 
L 14.890625 25.203125 
Q 15.484375 15.921875 20.484375 11.0625 
Q 25.484375 6.203125 34.421875 6.203125 
Q 39.59375 6.203125 44.453125 7.46875 
Q 49.3125 8.734375 54.109375 11.28125 
L 54.109375 2.78125 
Q 49.265625 0.734375 44.1875 -0.34375 
Q 39.109375 -1.421875 33.890625 -1.421875 
Q 20.796875 -1.421875 13.15625 6.1875 
Q 5.515625 13.8125 5.515625 26.8125 
Q 5.515625 40.234375 12.765625 48.109375 
Q 20.015625 56 32.328125 56 
Q 43.359375 56 49.78125 48.890625 
Q 56.203125 41.796875 56.203125 29.59375 
z
M 47.21875 32.234375 
Q 47.125 39.59375 43.09375 43.984375 
Q 39.0625 48.390625 32.421875 48.390625 
Q 24.90625 48.390625 20.390625 44.140625 
Q 15.875 39.890625 15.1875 32.171875 
z
" id="DejaVuSans-101"/>
      <path d="M 18.3125 70.21875 
L 18.3125 54.6875 
L 36.8125 54.6875 
L 36.8125 47.703125 
L 18.3125 47.703125 
L 18.3125 18.015625 
Q 18.3125 11.328125 20.140625 9.421875 
Q 21.96875 7.515625 27.59375 7.515625 
L 36.8125 7.515625 
L 36.8125 0 
L 27.59375 0 
Q 17.1875 0 13.234375 3.875 
Q 9.28125 7.765625 9.28125 18.015625 
L 9.28125 47.703125 
L 2.6875 47.703125 
L 2.6875 54.6875 
L 9.28125 54.6875 
L 9.28125 70.21875 
z
" id="DejaVuSans-116"/>
     </defs>
     <g transform="translate(123.8 112.907188)scale(0.14 -0.14)">
      <use xlink:href="#DejaVuSans-66"/>
      <use x="68.603516" xlink:href="#DejaVuSans-101"/>
      <use x="130.126953" xlink:href="#DejaVuSans-116"/>
      <use x="169.335938" xlink:href="#DejaVuSans-97"/>
     </g>
    </g>
   </g>
  </g>
  <g id="axes_2">
   <g id="patch_5">
    <path d="M 315.490909 266.792727 
L 518.4 266.792727 
L 518.4 69.12 
L 315.490909 69.12 
z
" style="fill:#ffffff;"/>
   </g>
   <g id="matplotlib.axis_3">
    <g id="xtick_5">
     <g id="line2d_19">
      <g>
       <use style="stroke:#000000;stroke-width:0.8;" x="317.775856" xlink:href="#m364da870d5" y="266.792727"/>
      </g>
     </g>
     <g id="text_7">
      <!-- 0.0 -->
      <g transform="translate(306.643669 284.43054)scale(0.14 -0.14)">
       <use xlink:href="#DejaVuSans-48"/>
       <use x="63.623047" xlink:href="#DejaVuSans-46"/>
       <use x="95.410156" xlink:href="#DejaVuSans-48"/>
      </g>
     </g>
    </g>
    <g id="xtick_6">
     <g id="line2d_20">
      <g>
       <use style="stroke:#000000;stroke-width:0.8;" x="413.480061" xlink:href="#m364da870d5" y="266.792727"/>
      </g>
     </g>
     <g id="text_8">
      <!-- 0.5 -->
      <defs>
       <path d="M 10.796875 72.90625 
L 49.515625 72.90625 
L 49.515625 64.59375 
L 19.828125 64.59375 
L 19.828125 46.734375 
Q 21.96875 47.46875 24.109375 47.828125 
Q 26.265625 48.1875 28.421875 48.1875 
Q 40.625 48.1875 47.75 41.5 
Q 54.890625 34.8125 54.890625 23.390625 
Q 54.890625 11.625 47.5625 5.09375 
Q 40.234375 -1.421875 26.90625 -1.421875 
Q 22.3125 -1.421875 17.546875 -0.640625 
Q 12.796875 0.140625 7.71875 1.703125 
L 7.71875 11.625 
Q 12.109375 9.234375 16.796875 8.0625 
Q 21.484375 6.890625 26.703125 6.890625 
Q 35.15625 6.890625 40.078125 11.328125 
Q 45.015625 15.765625 45.015625 23.390625 
Q 45.015625 31 40.078125 35.4375 
Q 35.15625 39.890625 26.703125 39.890625 
Q 22.75 39.890625 18.8125 39.015625 
Q 14.890625 38.140625 10.796875 36.28125 
z
" id="DejaVuSans-53"/>
      </defs>
      <g transform="translate(402.347873 284.43054)scale(0.14 -0.14)">
       <use xlink:href="#DejaVuSans-48"/>
       <use x="63.623047" xlink:href="#DejaVuSans-46"/>
       <use x="95.410156" xlink:href="#DejaVuSans-53"/>
      </g>
     </g>
    </g>
    <g id="xtick_7">
     <g id="line2d_21">
      <g>
       <use style="stroke:#000000;stroke-width:0.8;" x="509.184266" xlink:href="#m364da870d5" y="266.792727"/>
      </g>
     </g>
     <g id="text_9">
      <!-- 1.0 -->
      <g transform="translate(498.052078 284.43054)scale(0.14 -0.14)">
       <use xlink:href="#DejaVuSans-49"/>
       <use x="63.623047" xlink:href="#DejaVuSans-46"/>
       <use x="95.410156" xlink:href="#DejaVuSans-48"/>
      </g>
     </g>
    </g>
   </g>
   <g id="matplotlib.axis_4"/>
   <g id="line2d_22">
    <path clip-path="url(#p11f14f179f)" d="M 421.591112 256.224106 
L 424.895834 256.154099 
L 426.217723 255.867988 
L 427.20914 255.421388 
L 428.200556 254.704172 
L 429.191973 253.644203 
L 430.18339 252.150767 
L 431.174806 250.149272 
L 432.166223 247.533795 
L 433.15764 244.232409 
L 434.149056 240.125143 
L 435.140473 235.121377 
L 436.13189 229.095142 
L 437.123306 221.802482 
L 438.114723 213.198159 
L 439.436612 199.672824 
L 440.758501 183.913306 
L 442.410862 161.157443 
L 446.707001 98.677785 
L 447.698417 88.972232 
L 448.359362 84.247326 
L 449.020306 80.909555 
L 449.681251 78.89465 
L 450.011723 78.351253 
L 450.342195 78.109729 
L 450.672667 78.105124 
L 451.00314 78.329846 
L 451.664084 79.282168 
L 452.325028 80.706532 
L 453.646917 84.404426 
L 454.638334 88.068605 
L 455.299278 91.216483 
L 455.960223 95.157341 
L 456.95164 102.663406 
L 458.273528 115.251039 
L 460.917306 144.050702 
L 463.230612 168.514935 
L 464.882973 183.953517 
L 466.535334 197.255989 
L 468.518167 211.354018 
L 470.170528 221.82317 
L 471.492417 228.851461 
L 472.814306 234.446851 
L 474.136195 238.949916 
L 475.458084 242.675091 
L 476.779973 245.778128 
L 478.101862 248.360289 
L 479.423751 250.49948 
L 480.74564 252.181005 
L 482.067528 253.438633 
L 483.389417 254.374439 
L 484.711306 255.051756 
L 486.033195 255.486731 
L 487.355084 255.67577 
L 487.355084 255.67577 
" style="fill:none;stroke:#1f77b4;stroke-linecap:square;stroke-width:1.5;"/>
   </g>
   <g id="line2d_23">
    <path clip-path="url(#p11f14f179f)" d="M 421.591112 257.41857 
L 421.591112 256.224106 
" style="fill:none;stroke:#1f77b4;stroke-linecap:square;stroke-width:1.5;"/>
   </g>
   <g id="line2d_24">
    <path clip-path="url(#p11f14f179f)" d="M 487.355084 257.424053 
L 487.355084 255.67577 
" style="fill:none;stroke:#1f77b4;stroke-linecap:square;stroke-width:1.5;"/>
   </g>
   <g id="line2d_25">
    <g clip-path="url(#p11f14f179f)">
     <use style="fill:#1f77b4;stroke:#000000;" x="453.178334" xlink:href="#mc2dc9021da" y="257.406744"/>
    </g>
   </g>
   <g id="line2d_26">
    <path clip-path="url(#p11f14f179f)" d="M 324.71405 257.215105 
L 332.12964 257.11266 
L 343.253025 256.921168 
L 354.376411 256.780977 
L 371.061489 256.410284 
L 381.257926 256.277817 
L 388.673516 255.947902 
L 396.089107 255.596421 
L 410.920287 255.201505 
L 416.48198 254.669229 
L 422.970622 253.810789 
L 426.678417 253.135798 
L 429.459263 252.426128 
L 432.24011 251.441082 
L 434.094007 250.579166 
L 435.947905 249.517973 
L 437.801802 248.232663 
L 439.6557 246.709674 
L 441.509598 244.92975 
L 443.363495 242.870073 
L 445.217393 240.54853 
L 447.07129 237.907012 
L 448.925188 234.936586 
L 450.779086 231.557977 
L 452.632983 227.701933 
L 454.486881 223.348625 
L 456.340778 218.487681 
L 459.121625 210.393686 
L 466.537215 187.787414 
L 468.391113 182.870281 
L 470.24501 178.516202 
L 472.098908 174.809328 
L 473.952805 171.826928 
L 474.879754 170.625864 
L 475.806703 169.643897 
L 476.733652 168.886772 
L 477.660601 168.367952 
L 478.587549 168.09236 
L 479.514498 168.070162 
L 480.441447 168.301279 
L 481.368396 168.797375 
L 482.295344 169.558128 
L 483.222293 170.562452 
L 484.149242 171.797184 
L 486.00314 174.893108 
L 487.857037 178.688253 
L 490.637884 185.157253 
L 496.199576 198.556186 
L 498.980423 204.55887 
L 500.83432 208.127045 
L 502.688218 211.250771 
L 504.542116 213.840997 
L 506.396013 215.791972 
L 507.322962 216.497563 
L 508.249911 217.013416 
L 509.17686 217.320765 
L 509.17686 217.320765 
" style="fill:none;stroke:#ff7f0e;stroke-linecap:square;stroke-width:1.5;"/>
   </g>
   <g id="line2d_27">
    <path clip-path="url(#p11f14f179f)" d="M 324.71405 257.40866 
L 324.71405 257.215105 
" style="fill:none;stroke:#ff7f0e;stroke-linecap:square;stroke-width:1.5;"/>
   </g>
   <g id="line2d_28">
    <path clip-path="url(#p11f14f179f)" d="M 509.17686 257.807603 
L 509.17686 217.320765 
" style="fill:none;stroke:#ff7f0e;stroke-linecap:square;stroke-width:1.5;"/>
   </g>
   <g id="line2d_29">
    <g clip-path="url(#p11f14f179f)">
     <use style="fill:#ff7f0e;stroke:#000000;" x="474.637887" xlink:href="#m9fbadaf3a9" y="257.406744"/>
    </g>
   </g>
   <g id="line2d_30"/>
   <g id="line2d_31"/>
   <g id="patch_6">
    <path d="M 315.490909 266.792727 
L 518.4 266.792727 
" style="fill:none;stroke:#000000;stroke-linecap:square;stroke-linejoin:miter;stroke-width:0.8;"/>
   </g>
   <g id="legend_2">
    <g id="patch_7">
     <path d="M 325.290909 121.41875 
L 425.371222 121.41875 
Q 428.171222 121.41875 428.171222 118.61875 
L 428.171222 78.92 
Q 428.171222 76.12 425.371222 76.12 
L 325.290909 76.12 
Q 322.490909 76.12 322.490909 78.92 
L 322.490909 118.61875 
Q 322.490909 121.41875 325.290909 121.41875 
z
" style="fill:#ffffff;opacity:0.8;stroke:#cccccc;stroke-linejoin:miter;"/>
    </g>
    <g id="line2d_32">
     <path d="M 328.090909 87.457813 
L 356.090909 87.457813 
" style="fill:none;stroke:#1f77b4;stroke-linecap:square;stroke-width:1.5;"/>
    </g>
    <g id="line2d_33"/>
    <g id="text_10">
     <!-- Gamma -->
     <defs>
      <path d="M 59.515625 10.40625 
L 59.515625 29.984375 
L 43.40625 29.984375 
L 43.40625 38.09375 
L 69.28125 38.09375 
L 69.28125 6.78125 
Q 63.578125 2.734375 56.6875 0.65625 
Q 49.8125 -1.421875 42 -1.421875 
Q 24.90625 -1.421875 15.25 8.5625 
Q 5.609375 18.5625 5.609375 36.375 
Q 5.609375 54.25 15.25 64.234375 
Q 24.90625 74.21875 42 74.21875 
Q 49.125 74.21875 55.546875 72.453125 
Q 61.96875 70.703125 67.390625 67.28125 
L 67.390625 56.78125 
Q 61.921875 61.421875 55.765625 63.765625 
Q 49.609375 66.109375 42.828125 66.109375 
Q 29.4375 66.109375 22.71875 58.640625 
Q 16.015625 51.171875 16.015625 36.375 
Q 16.015625 21.625 22.71875 14.15625 
Q 29.4375 6.6875 42.828125 6.6875 
Q 48.046875 6.6875 52.140625 7.59375 
Q 56.25 8.5 59.515625 10.40625 
z
" id="DejaVuSans-71"/>
      <path d="M 52 44.1875 
Q 55.375 50.25 60.0625 53.125 
Q 64.75 56 71.09375 56 
Q 79.640625 56 84.28125 50.015625 
Q 88.921875 44.046875 88.921875 33.015625 
L 88.921875 0 
L 79.890625 0 
L 79.890625 32.71875 
Q 79.890625 40.578125 77.09375 44.375 
Q 74.3125 48.1875 68.609375 48.1875 
Q 61.625 48.1875 57.5625 43.546875 
Q 53.515625 38.921875 53.515625 30.90625 
L 53.515625 0 
L 44.484375 0 
L 44.484375 32.71875 
Q 44.484375 40.625 41.703125 44.40625 
Q 38.921875 48.1875 33.109375 48.1875 
Q 26.21875 48.1875 22.15625 43.53125 
Q 18.109375 38.875 18.109375 30.90625 
L 18.109375 0 
L 9.078125 0 
L 9.078125 54.6875 
L 18.109375 54.6875 
L 18.109375 46.1875 
Q 21.1875 51.21875 25.484375 53.609375 
Q 29.78125 56 35.6875 56 
Q 41.65625 56 45.828125 52.96875 
Q 50 49.953125 52 44.1875 
z
" id="DejaVuSans-109"/>
     </defs>
     <g transform="translate(367.290909 92.357813)scale(0.14 -0.14)">
      <use xlink:href="#DejaVuSans-71"/>
      <use x="77.490234" xlink:href="#DejaVuSans-97"/>
      <use x="138.769531" xlink:href="#DejaVuSans-109"/>
      <use x="236.181641" xlink:href="#DejaVuSans-109"/>
      <use x="333.59375" xlink:href="#DejaVuSans-97"/>
     </g>
    </g>
    <g id="line2d_34">
     <path d="M 328.090909 108.007188 
L 356.090909 108.007188 
" style="fill:none;stroke:#ff7f0e;stroke-linecap:square;stroke-width:1.5;"/>
    </g>
    <g id="line2d_35"/>
    <g id="text_11">
     <!-- Delta -->
     <defs>
      <path d="M 19.671875 64.796875 
L 19.671875 8.109375 
L 31.59375 8.109375 
Q 46.6875 8.109375 53.6875 14.9375 
Q 60.6875 21.78125 60.6875 36.53125 
Q 60.6875 51.171875 53.6875 57.984375 
Q 46.6875 64.796875 31.59375 64.796875 
z
M 9.8125 72.90625 
L 30.078125 72.90625 
Q 51.265625 72.90625 61.171875 64.09375 
Q 71.09375 55.28125 71.09375 36.53125 
Q 71.09375 17.671875 61.125 8.828125 
Q 51.171875 0 30.078125 0 
L 9.8125 0 
z
" id="DejaVuSans-68"/>
     </defs>
     <g transform="translate(367.290909 112.907188)scale(0.14 -0.14)">
      <use xlink:href="#DejaVuSans-68"/>
      <use x="77.001953" xlink:href="#DejaVuSans-101"/>
      <use x="138.525391" xlink:href="#DejaVuSans-108"/>
      <use x="166.308594" xlink:href="#DejaVuSans-116"/>
      <use x="205.517578" xlink:href="#DejaVuSans-97"/>
     </g>
    </g>
   </g>
  </g>
  <g id="axes_3">
   <g id="patch_8">
    <path d="M 72 504 
L 274.909091 504 
L 274.909091 306.327273 
L 72 306.327273 
z
" style="fill:#ffffff;"/>
   </g>
   <g id="matplotlib.axis_5">
    <g id="xtick_8">
     <g id="line2d_36">
      <g>
       <use style="stroke:#000000;stroke-width:0.8;" x="118.402599" xlink:href="#m364da870d5" y="504"/>
      </g>
     </g>
     <g id="text_12">
      <!-- 0.6 -->
      <defs>
       <path d="M 33.015625 40.375 
Q 26.375 40.375 22.484375 35.828125 
Q 18.609375 31.296875 18.609375 23.390625 
Q 18.609375 15.53125 22.484375 10.953125 
Q 26.375 6.390625 33.015625 6.390625 
Q 39.65625 6.390625 43.53125 10.953125 
Q 47.40625 15.53125 47.40625 23.390625 
Q 47.40625 31.296875 43.53125 35.828125 
Q 39.65625 40.375 33.015625 40.375 
z
M 52.59375 71.296875 
L 52.59375 62.3125 
Q 48.875 64.0625 45.09375 64.984375 
Q 41.3125 65.921875 37.59375 65.921875 
Q 27.828125 65.921875 22.671875 59.328125 
Q 17.53125 52.734375 16.796875 39.40625 
Q 19.671875 43.65625 24.015625 45.921875 
Q 28.375 48.1875 33.59375 48.1875 
Q 44.578125 48.1875 50.953125 41.515625 
Q 57.328125 34.859375 57.328125 23.390625 
Q 57.328125 12.15625 50.6875 5.359375 
Q 44.046875 -1.421875 33.015625 -1.421875 
Q 20.359375 -1.421875 13.671875 8.265625 
Q 6.984375 17.96875 6.984375 36.375 
Q 6.984375 53.65625 15.1875 63.9375 
Q 23.390625 74.21875 37.203125 74.21875 
Q 40.921875 74.21875 44.703125 73.484375 
Q 48.484375 72.75 52.59375 71.296875 
z
" id="DejaVuSans-54"/>
      </defs>
      <g transform="translate(107.270411 521.637812)scale(0.14 -0.14)">
       <use xlink:href="#DejaVuSans-48"/>
       <use x="63.623047" xlink:href="#DejaVuSans-46"/>
       <use x="95.410156" xlink:href="#DejaVuSans-54"/>
      </g>
     </g>
    </g>
    <g id="xtick_9">
     <g id="line2d_37">
      <g>
       <use style="stroke:#000000;stroke-width:0.8;" x="183.777725" xlink:href="#m364da870d5" y="504"/>
      </g>
     </g>
     <g id="text_13">
      <!-- 0.8 -->
      <g transform="translate(172.645537 521.637812)scale(0.14 -0.14)">
       <use xlink:href="#DejaVuSans-48"/>
       <use x="63.623047" xlink:href="#DejaVuSans-46"/>
       <use x="95.410156" xlink:href="#DejaVuSans-56"/>
      </g>
     </g>
    </g>
    <g id="xtick_10">
     <g id="line2d_38">
      <g>
       <use style="stroke:#000000;stroke-width:0.8;" x="249.152851" xlink:href="#m364da870d5" y="504"/>
      </g>
     </g>
     <g id="text_14">
      <!-- 1.0 -->
      <g transform="translate(238.020663 521.637812)scale(0.14 -0.14)">
       <use xlink:href="#DejaVuSans-49"/>
       <use x="63.623047" xlink:href="#DejaVuSans-46"/>
       <use x="95.410156" xlink:href="#DejaVuSans-48"/>
      </g>
     </g>
    </g>
   </g>
   <g id="matplotlib.axis_6"/>
   <g id="line2d_39">
    <path clip-path="url(#p851419db98)" d="M 81.22314 494.049306 
L 85.857884 493.971287 
L 88.638731 493.752312 
L 91.419577 493.30817 
L 94.200424 492.56669 
L 96.98127 491.457151 
L 98.835168 490.49319 
L 100.689065 489.306099 
L 102.542963 487.883666 
L 104.39686 486.210444 
L 106.250758 484.282243 
L 108.104656 482.082918 
L 109.958553 479.61231 
L 111.812451 476.853075 
L 113.666348 473.738231 
L 115.520246 470.266063 
L 117.374143 466.347558 
L 119.228041 462.008543 
L 122.008887 454.713391 
L 124.789734 446.599711 
L 127.57058 437.662973 
L 130.351427 427.925425 
L 134.059222 413.832451 
L 138.693966 395.114659 
L 143.32871 375.607186 
L 150.7443 343.868465 
L 152.598198 336.690808 
L 154.452095 330.213342 
L 156.305993 324.631283 
L 157.232942 322.252137 
L 158.15989 320.190067 
L 159.086839 318.461675 
L 160.013788 317.079843 
L 160.940737 316.095071 
L 161.867686 315.490543 
L 162.794634 315.312397 
L 163.721583 315.542486 
L 164.648532 316.19238 
L 165.575481 317.250987 
L 166.50243 318.692206 
L 167.429378 320.471363 
L 168.356327 322.547253 
L 170.210225 327.515359 
L 172.064122 333.24137 
L 174.844969 342.559819 
L 178.552764 355.627691 
L 182.260559 369.511377 
L 185.968354 384.503088 
L 194.310893 419.133318 
L 197.09174 429.591468 
L 199.872586 439.229033 
L 202.653432 447.99484 
L 205.434279 455.836102 
L 208.215125 462.787221 
L 210.069023 466.869556 
L 211.92292 470.517931 
L 213.776818 473.71347 
L 215.630716 476.42147 
L 217.484613 478.718296 
L 219.338511 480.629052 
L 221.192408 482.245789 
L 223.046306 483.623824 
L 225.827152 485.363995 
L 228.607999 486.842073 
L 232.315794 488.563788 
L 237.877487 490.91237 
L 241.585282 492.268274 
L 244.366128 493.076294 
L 247.146975 493.67883 
L 249.927821 494.084257 
L 253.635616 494.389205 
L 258.27036 494.512797 
L 265.68595 494.495524 
L 265.68595 494.495524 
" style="fill:none;stroke:#1f77b4;stroke-linecap:square;stroke-width:1.5;"/>
   </g>
   <g id="line2d_40">
    <path clip-path="url(#p851419db98)" d="M 81.22314 495.014876 
L 81.22314 494.049306 
" style="fill:none;stroke:#1f77b4;stroke-linecap:square;stroke-width:1.5;"/>
   </g>
   <g id="line2d_41">
    <path clip-path="url(#p851419db98)" d="M 265.68595 495.010414 
L 265.68595 494.495524 
" style="fill:none;stroke:#1f77b4;stroke-linecap:square;stroke-width:1.5;"/>
   </g>
   <g id="line2d_42">
    <g clip-path="url(#p851419db98)">
     <use style="fill:#1f77b4;stroke:#000000;" x="163.705019" xlink:href="#mc2dc9021da" y="495.005316"/>
    </g>
   </g>
   <g id="patch_9">
    <path d="M 72 504 
L 274.909091 504 
" style="fill:none;stroke:#000000;stroke-linecap:square;stroke-linejoin:miter;stroke-width:0.8;"/>
   </g>
   <g id="text_15">
    <!-- Lambda -->
    <defs>
     <path d="M 9.8125 72.90625 
L 19.671875 72.90625 
L 19.671875 8.296875 
L 55.171875 8.296875 
L 55.171875 0 
L 9.8125 0 
z
" id="DejaVuSans-76"/>
     <path d="M 48.6875 27.296875 
Q 48.6875 37.203125 44.609375 42.84375 
Q 40.53125 48.484375 33.40625 48.484375 
Q 26.265625 48.484375 22.1875 42.84375 
Q 18.109375 37.203125 18.109375 27.296875 
Q 18.109375 17.390625 22.1875 11.75 
Q 26.265625 6.109375 33.40625 6.109375 
Q 40.53125 6.109375 44.609375 11.75 
Q 48.6875 17.390625 48.6875 27.296875 
z
M 18.109375 46.390625 
Q 20.953125 51.265625 25.265625 53.625 
Q 29.59375 56 35.59375 56 
Q 45.5625 56 51.78125 48.09375 
Q 58.015625 40.1875 58.015625 27.296875 
Q 58.015625 14.40625 51.78125 6.484375 
Q 45.5625 -1.421875 35.59375 -1.421875 
Q 29.59375 -1.421875 25.265625 0.953125 
Q 20.953125 3.328125 18.109375 8.203125 
L 18.109375 0 
L 9.078125 0 
L 9.078125 75.984375 
L 18.109375 75.984375 
z
" id="DejaVuSans-98"/>
     <path d="M 45.40625 46.390625 
L 45.40625 75.984375 
L 54.390625 75.984375 
L 54.390625 0 
L 45.40625 0 
L 45.40625 8.203125 
Q 42.578125 3.328125 38.25 0.953125 
Q 33.9375 -1.421875 27.875 -1.421875 
Q 17.96875 -1.421875 11.734375 6.484375 
Q 5.515625 14.40625 5.515625 27.296875 
Q 5.515625 40.1875 11.734375 48.09375 
Q 17.96875 56 27.875 56 
Q 33.9375 56 38.25 53.625 
Q 42.578125 51.265625 45.40625 46.390625 
z
M 14.796875 27.296875 
Q 14.796875 17.390625 18.875 11.75 
Q 22.953125 6.109375 30.078125 6.109375 
Q 37.203125 6.109375 41.296875 11.75 
Q 45.40625 17.390625 45.40625 27.296875 
Q 45.40625 37.203125 41.296875 42.84375 
Q 37.203125 48.484375 30.078125 48.484375 
Q 22.953125 48.484375 18.875 42.84375 
Q 14.796875 37.203125 14.796875 27.296875 
z
" id="DejaVuSans-100"/>
    </defs>
    <g transform="translate(149.29517 300.327273)scale(0.12 -0.12)">
     <use xlink:href="#DejaVuSans-76"/>
     <use x="55.712891" xlink:href="#DejaVuSans-97"/>
     <use x="116.992188" xlink:href="#DejaVuSans-109"/>
     <use x="214.404297" xlink:href="#DejaVuSans-98"/>
     <use x="277.880859" xlink:href="#DejaVuSans-100"/>
     <use x="341.357422" xlink:href="#DejaVuSans-97"/>
    </g>
   </g>
  </g>
  <g id="axes_4">
   <g id="patch_10">
    <path d="M 315.490909 504 
L 518.4 504 
L 518.4 306.327273 
L 315.490909 306.327273 
z
" style="fill:#ffffff;"/>
   </g>
   <g id="matplotlib.axis_7">
    <g id="xtick_11">
     <g id="line2d_43">
      <g>
       <use style="stroke:#000000;stroke-width:0.8;" x="407.041236" xlink:href="#m364da870d5" y="504"/>
      </g>
     </g>
     <g id="text_16">
      <!-- 0.2 -->
      <defs>
       <path d="M 19.1875 8.296875 
L 53.609375 8.296875 
L 53.609375 0 
L 7.328125 0 
L 7.328125 8.296875 
Q 12.9375 14.109375 22.625 23.890625 
Q 32.328125 33.6875 34.8125 36.53125 
Q 39.546875 41.84375 41.421875 45.53125 
Q 43.3125 49.21875 43.3125 52.78125 
Q 43.3125 58.59375 39.234375 62.25 
Q 35.15625 65.921875 28.609375 65.921875 
Q 23.96875 65.921875 18.8125 64.3125 
Q 13.671875 62.703125 7.8125 59.421875 
L 7.8125 69.390625 
Q 13.765625 71.78125 18.9375 73 
Q 24.125 74.21875 28.421875 74.21875 
Q 39.75 74.21875 46.484375 68.546875 
Q 53.21875 62.890625 53.21875 53.421875 
Q 53.21875 48.921875 51.53125 44.890625 
Q 49.859375 40.875 45.40625 35.40625 
Q 44.1875 33.984375 37.640625 27.21875 
Q 31.109375 20.453125 19.1875 8.296875 
z
" id="DejaVuSans-50"/>
      </defs>
      <g transform="translate(395.909048 521.637812)scale(0.14 -0.14)">
       <use xlink:href="#DejaVuSans-48"/>
       <use x="63.623047" xlink:href="#DejaVuSans-46"/>
       <use x="95.410156" xlink:href="#DejaVuSans-50"/>
      </g>
     </g>
    </g>
    <g id="xtick_12">
     <g id="line2d_44">
      <g>
       <use style="stroke:#000000;stroke-width:0.8;" x="501.635815" xlink:href="#m364da870d5" y="504"/>
      </g>
     </g>
     <g id="text_17">
      <!-- 0.3 -->
      <defs>
       <path d="M 40.578125 39.3125 
Q 47.65625 37.796875 51.625 33 
Q 55.609375 28.21875 55.609375 21.1875 
Q 55.609375 10.40625 48.1875 4.484375 
Q 40.765625 -1.421875 27.09375 -1.421875 
Q 22.515625 -1.421875 17.65625 -0.515625 
Q 12.796875 0.390625 7.625 2.203125 
L 7.625 11.71875 
Q 11.71875 9.328125 16.59375 8.109375 
Q 21.484375 6.890625 26.8125 6.890625 
Q 36.078125 6.890625 40.9375 10.546875 
Q 45.796875 14.203125 45.796875 21.1875 
Q 45.796875 27.640625 41.28125 31.265625 
Q 36.765625 34.90625 28.71875 34.90625 
L 20.21875 34.90625 
L 20.21875 43.015625 
L 29.109375 43.015625 
Q 36.375 43.015625 40.234375 45.921875 
Q 44.09375 48.828125 44.09375 54.296875 
Q 44.09375 59.90625 40.109375 62.90625 
Q 36.140625 65.921875 28.71875 65.921875 
Q 24.65625 65.921875 20.015625 65.03125 
Q 15.375 64.15625 9.8125 62.3125 
L 9.8125 71.09375 
Q 15.4375 72.65625 20.34375 73.4375 
Q 25.25 74.21875 29.59375 74.21875 
Q 40.828125 74.21875 47.359375 69.109375 
Q 53.90625 64.015625 53.90625 55.328125 
Q 53.90625 49.265625 50.4375 45.09375 
Q 46.96875 40.921875 40.578125 39.3125 
z
" id="DejaVuSans-51"/>
      </defs>
      <g transform="translate(490.503627 521.637812)scale(0.14 -0.14)">
       <use xlink:href="#DejaVuSans-48"/>
       <use x="63.623047" xlink:href="#DejaVuSans-46"/>
       <use x="95.410156" xlink:href="#DejaVuSans-51"/>
      </g>
     </g>
    </g>
   </g>
   <g id="matplotlib.axis_8"/>
   <g id="line2d_45">
    <path clip-path="url(#peed69d7978)" d="M 324.71405 493.533372 
L 327.494896 493.454939 
L 330.275742 493.171492 
L 333.983538 492.548328 
L 342.326077 490.878424 
L 345.106923 490.179851 
L 346.960821 489.562938 
L 348.814718 488.76266 
L 350.668616 487.702922 
L 352.522513 486.353071 
L 354.376411 484.672675 
L 356.230309 482.6246 
L 358.084206 480.213509 
L 359.938104 477.396506 
L 361.792001 474.130665 
L 363.645899 470.368201 
L 365.499797 466.018537 
L 367.353694 461.051799 
L 369.207592 455.37757 
L 371.061489 449.033151 
L 372.915387 442.063442 
L 375.696233 430.559158 
L 378.47708 418.114941 
L 384.038772 391.861621 
L 391.454363 356.832912 
L 394.235209 344.344888 
L 396.089107 336.59116 
L 397.943004 329.655626 
L 399.796902 323.819819 
L 400.723851 321.40449 
L 401.650799 319.364176 
L 402.577748 317.727795 
L 403.504697 316.488243 
L 404.431646 315.687335 
L 405.358595 315.312397 
L 406.285543 315.365387 
L 407.212492 315.838337 
L 408.139441 316.750858 
L 409.06639 318.076064 
L 409.993339 319.813208 
L 410.920287 321.925051 
L 411.847236 324.433042 
L 413.701134 330.469268 
L 415.555031 337.793979 
L 417.408929 346.077131 
L 421.116724 364.219677 
L 424.824519 382.237349 
L 427.605366 394.810682 
L 430.386212 406.482477 
L 434.094007 421.023908 
L 437.801802 434.457383 
L 440.582649 443.710965 
L 443.363495 452.072982 
L 445.217393 457.089325 
L 447.07129 461.627129 
L 448.925188 465.677772 
L 450.779086 469.277934 
L 452.632983 472.501727 
L 454.486881 475.387202 
L 457.267727 479.181687 
L 459.121625 481.352814 
L 460.975522 483.240035 
L 462.82942 484.826759 
L 464.683317 486.11886 
L 466.537215 487.156964 
L 469.318061 488.354815 
L 473.025857 489.604106 
L 483.222293 492.573568 
L 486.930088 493.475557 
L 490.637884 494.145346 
L 494.345679 494.571968 
L 498.053474 494.777714 
L 502.688218 494.806446 
L 509.17686 494.709369 
L 509.17686 494.709369 
" style="fill:none;stroke:#1f77b4;stroke-linecap:square;stroke-width:1.5;"/>
   </g>
   <g id="line2d_46">
    <path clip-path="url(#peed69d7978)" d="M 324.71405 495.014876 
L 324.71405 493.533372 
" style="fill:none;stroke:#1f77b4;stroke-linecap:square;stroke-width:1.5;"/>
   </g>
   <g id="line2d_47">
    <path clip-path="url(#peed69d7978)" d="M 509.17686 495.003116 
L 509.17686 494.709369 
" style="fill:none;stroke:#1f77b4;stroke-linecap:square;stroke-width:1.5;"/>
   </g>
   <g id="line2d_48">
    <g clip-path="url(#peed69d7978)">
     <use style="fill:#1f77b4;stroke:#000000;" x="406.416575" xlink:href="#mc2dc9021da" y="495.000208"/>
    </g>
   </g>
   <g id="patch_11">
    <path d="M 315.490909 504 
L 518.4 504 
" style="fill:none;stroke:#000000;stroke-linecap:square;stroke-linejoin:miter;stroke-width:0.8;"/>
   </g>
   <g id="text_18">
    <!-- Luce -->
    <defs>
     <path d="M 8.5 21.578125 
L 8.5 54.6875 
L 17.484375 54.6875 
L 17.484375 21.921875 
Q 17.484375 14.15625 20.5 10.265625 
Q 23.53125 6.390625 29.59375 6.390625 
Q 36.859375 6.390625 41.078125 11.03125 
Q 45.3125 15.671875 45.3125 23.6875 
L 45.3125 54.6875 
L 54.296875 54.6875 
L 54.296875 0 
L 45.3125 0 
L 45.3125 8.40625 
Q 42.046875 3.421875 37.71875 1 
Q 33.40625 -1.421875 27.6875 -1.421875 
Q 18.265625 -1.421875 13.375 4.4375 
Q 8.5 10.296875 8.5 21.578125 
z
M 31.109375 56 
z
" id="DejaVuSans-117"/>
     <path d="M 48.78125 52.59375 
L 48.78125 44.1875 
Q 44.96875 46.296875 41.140625 47.34375 
Q 37.3125 48.390625 33.40625 48.390625 
Q 24.65625 48.390625 19.8125 42.84375 
Q 14.984375 37.3125 14.984375 27.296875 
Q 14.984375 17.28125 19.8125 11.734375 
Q 24.65625 6.203125 33.40625 6.203125 
Q 37.3125 6.203125 41.140625 7.25 
Q 44.96875 8.296875 48.78125 10.40625 
L 48.78125 2.09375 
Q 45.015625 0.34375 40.984375 -0.53125 
Q 36.96875 -1.421875 32.421875 -1.421875 
Q 20.0625 -1.421875 12.78125 6.34375 
Q 5.515625 14.109375 5.515625 27.296875 
Q 5.515625 40.671875 12.859375 48.328125 
Q 20.21875 56 33.015625 56 
Q 37.15625 56 41.109375 55.140625 
Q 45.0625 54.296875 48.78125 52.59375 
z
" id="DejaVuSans-99"/>
    </defs>
    <g transform="translate(402.913892 300.327273)scale(0.12 -0.12)">
     <use xlink:href="#DejaVuSans-76"/>
     <use x="53.962891" xlink:href="#DejaVuSans-117"/>
     <use x="117.341797" xlink:href="#DejaVuSans-99"/>
     <use x="172.322266" xlink:href="#DejaVuSans-101"/>
    </g>
   </g>
  </g>
 </g>
 <defs>
  <clipPath id="pcce80338a4">
   <rect height="197.672727" width="202.909091" x="72" y="69.12"/>
  </clipPath>
  <clipPath id="p11f14f179f">
   <rect height="197.672727" width="202.909091" x="315.490909" y="69.12"/>
  </clipPath>
  <clipPath id="p851419db98">
   <rect height="197.672727" width="202.909091" x="72" y="306.327273"/>
  </clipPath>
  <clipPath id="peed69d7978">
   <rect height="197.672727" width="202.909091" x="315.490909" y="306.327273"/>
  </clipPath>
 </defs>
</svg>
