<?xml version="1.0" encoding="utf-8" standalone="no"?>
<!DOCTYPE svg PUBLIC "-//W3C//DTD SVG 1.1//EN"
  "http://www.w3.org/Graphics/SVG/1.1/DTD/svg11.dtd">
<!-- Created with matplotlib (https://matplotlib.org/) -->
<svg height="576pt" version="1.1" viewBox="0 0 576 576" width="576pt" xmlns="http://www.w3.org/2000/svg" xmlns:xlink="http://www.w3.org/1999/xlink">
 <metadata>
  <rdf:RDF xmlns:cc="http://creativecommons.org/ns#" xmlns:dc="http://purl.org/dc/elements/1.1/" xmlns:rdf="http://www.w3.org/1999/02/22-rdf-syntax-ns#">
   <cc:Work>
    <dc:type rdf:resource="http://purl.org/dc/dcmitype/StillImage"/>
    <dc:date>2021-02-09T05:44:52.838465</dc:date>
    <dc:format>image/svg+xml</dc:format>
    <dc:creator>
     <cc:Agent>
      <dc:title>Matplotlib v3.3.3, https://matplotlib.org/</dc:title>
     </cc:Agent>
    </dc:creator>
   </cc:Work>
  </rdf:RDF>
 </metadata>
 <defs>
  <style type="text/css">*{stroke-linecap:butt;stroke-linejoin:round;}</style>
 </defs>
 <g id="figure_1">
  <g id="patch_1">
   <path d="M 0 576 
L 576 576 
L 576 0 
L 0 0 
z
" style="fill:none;"/>
  </g>
  <g id="axes_1">
   <g id="patch_2">
    <path d="M 10.8 261.6 
L 275.632278 261.6 
L 275.632278 41.8 
L 10.8 41.8 
z
" style="fill:#ffffff;"/>
   </g>
   <g id="matplotlib.axis_1">
    <g id="xtick_1">
     <g id="line2d_1">
      <defs>
       <path d="M 0 0 
L 0 3.5 
" id="mfb4d58aa72" style="stroke:#000000;stroke-width:0.8;"/>
      </defs>
      <g>
       <use style="stroke:#000000;stroke-width:0.8;" x="12.576783" xlink:href="#mfb4d58aa72" y="261.6"/>
      </g>
     </g>
     <g id="text_1">
      <!-- 0.75 -->
      <g transform="translate(-3.009154 279.237813)scale(0.14 -0.14)">
       <defs>
        <path d="M 31.78125 66.40625 
Q 24.171875 66.40625 20.328125 58.90625 
Q 16.5 51.421875 16.5 36.375 
Q 16.5 21.390625 20.328125 13.890625 
Q 24.171875 6.390625 31.78125 6.390625 
Q 39.453125 6.390625 43.28125 13.890625 
Q 47.125 21.390625 47.125 36.375 
Q 47.125 51.421875 43.28125 58.90625 
Q 39.453125 66.40625 31.78125 66.40625 
z
M 31.78125 74.21875 
Q 44.046875 74.21875 50.515625 64.515625 
Q 56.984375 54.828125 56.984375 36.375 
Q 56.984375 17.96875 50.515625 8.265625 
Q 44.046875 -1.421875 31.78125 -1.421875 
Q 19.53125 -1.421875 13.0625 8.265625 
Q 6.59375 17.96875 6.59375 36.375 
Q 6.59375 54.828125 13.0625 64.515625 
Q 19.53125 74.21875 31.78125 74.21875 
z
" id="DejaVuSans-48"/>
        <path d="M 10.6875 12.40625 
L 21 12.40625 
L 21 0 
L 10.6875 0 
z
" id="DejaVuSans-46"/>
        <path d="M 8.203125 72.90625 
L 55.078125 72.90625 
L 55.078125 68.703125 
L 28.609375 0 
L 18.3125 0 
L 43.21875 64.59375 
L 8.203125 64.59375 
z
" id="DejaVuSans-55"/>
        <path d="M 10.796875 72.90625 
L 49.515625 72.90625 
L 49.515625 64.59375 
L 19.828125 64.59375 
L 19.828125 46.734375 
Q 21.96875 47.46875 24.109375 47.828125 
Q 26.265625 48.1875 28.421875 48.1875 
Q 40.625 48.1875 47.75 41.5 
Q 54.890625 34.8125 54.890625 23.390625 
Q 54.890625 11.625 47.5625 5.09375 
Q 40.234375 -1.421875 26.90625 -1.421875 
Q 22.3125 -1.421875 17.546875 -0.640625 
Q 12.796875 0.140625 7.71875 1.703125 
L 7.71875 11.625 
Q 12.109375 9.234375 16.796875 8.0625 
Q 21.484375 6.890625 26.703125 6.890625 
Q 35.15625 6.890625 40.078125 11.328125 
Q 45.015625 15.765625 45.015625 23.390625 
Q 45.015625 31 40.078125 35.4375 
Q 35.15625 39.890625 26.703125 39.890625 
Q 22.75 39.890625 18.8125 39.015625 
Q 14.890625 38.140625 10.796875 36.28125 
z
" id="DejaVuSans-53"/>
       </defs>
       <use xlink:href="#DejaVuSans-48"/>
       <use x="63.623047" xlink:href="#DejaVuSans-46"/>
       <use x="95.410156" xlink:href="#DejaVuSans-55"/>
       <use x="159.033203" xlink:href="#DejaVuSans-53"/>
      </g>
     </g>
    </g>
    <g id="xtick_2">
     <g id="line2d_2">
      <g>
       <use style="stroke:#000000;stroke-width:0.8;" x="66.67176" xlink:href="#mfb4d58aa72" y="261.6"/>
      </g>
     </g>
     <g id="text_2">
      <!-- 0.80 -->
      <g transform="translate(51.085823 279.237813)scale(0.14 -0.14)">
       <defs>
        <path d="M 31.78125 34.625 
Q 24.75 34.625 20.71875 30.859375 
Q 16.703125 27.09375 16.703125 20.515625 
Q 16.703125 13.921875 20.71875 10.15625 
Q 24.75 6.390625 31.78125 6.390625 
Q 38.8125 6.390625 42.859375 10.171875 
Q 46.921875 13.96875 46.921875 20.515625 
Q 46.921875 27.09375 42.890625 30.859375 
Q 38.875 34.625 31.78125 34.625 
z
M 21.921875 38.8125 
Q 15.578125 40.375 12.03125 44.71875 
Q 8.5 49.078125 8.5 55.328125 
Q 8.5 64.0625 14.71875 69.140625 
Q 20.953125 74.21875 31.78125 74.21875 
Q 42.671875 74.21875 48.875 69.140625 
Q 55.078125 64.0625 55.078125 55.328125 
Q 55.078125 49.078125 51.53125 44.71875 
Q 48 40.375 41.703125 38.8125 
Q 48.828125 37.15625 52.796875 32.3125 
Q 56.78125 27.484375 56.78125 20.515625 
Q 56.78125 9.90625 50.3125 4.234375 
Q 43.84375 -1.421875 31.78125 -1.421875 
Q 19.734375 -1.421875 13.25 4.234375 
Q 6.78125 9.90625 6.78125 20.515625 
Q 6.78125 27.484375 10.78125 32.3125 
Q 14.796875 37.15625 21.921875 38.8125 
z
M 18.3125 54.390625 
Q 18.3125 48.734375 21.84375 45.5625 
Q 25.390625 42.390625 31.78125 42.390625 
Q 38.140625 42.390625 41.71875 45.5625 
Q 45.3125 48.734375 45.3125 54.390625 
Q 45.3125 60.0625 41.71875 63.234375 
Q 38.140625 66.40625 31.78125 66.40625 
Q 25.390625 66.40625 21.84375 63.234375 
Q 18.3125 60.0625 18.3125 54.390625 
z
" id="DejaVuSans-56"/>
       </defs>
       <use xlink:href="#DejaVuSans-48"/>
       <use x="63.623047" xlink:href="#DejaVuSans-46"/>
       <use x="95.410156" xlink:href="#DejaVuSans-56"/>
       <use x="159.033203" xlink:href="#DejaVuSans-48"/>
      </g>
     </g>
    </g>
    <g id="xtick_3">
     <g id="line2d_3">
      <g>
       <use style="stroke:#000000;stroke-width:0.8;" x="120.766737" xlink:href="#mfb4d58aa72" y="261.6"/>
      </g>
     </g>
     <g id="text_3">
      <!-- 0.85 -->
      <g transform="translate(105.1808 279.237813)scale(0.14 -0.14)">
       <use xlink:href="#DejaVuSans-48"/>
       <use x="63.623047" xlink:href="#DejaVuSans-46"/>
       <use x="95.410156" xlink:href="#DejaVuSans-56"/>
       <use x="159.033203" xlink:href="#DejaVuSans-53"/>
      </g>
     </g>
    </g>
    <g id="xtick_4">
     <g id="line2d_4">
      <g>
       <use style="stroke:#000000;stroke-width:0.8;" x="174.861714" xlink:href="#mfb4d58aa72" y="261.6"/>
      </g>
     </g>
     <g id="text_4">
      <!-- 0.90 -->
      <g transform="translate(159.275777 279.237813)scale(0.14 -0.14)">
       <defs>
        <path d="M 10.984375 1.515625 
L 10.984375 10.5 
Q 14.703125 8.734375 18.5 7.8125 
Q 22.3125 6.890625 25.984375 6.890625 
Q 35.75 6.890625 40.890625 13.453125 
Q 46.046875 20.015625 46.78125 33.40625 
Q 43.953125 29.203125 39.59375 26.953125 
Q 35.25 24.703125 29.984375 24.703125 
Q 19.046875 24.703125 12.671875 31.3125 
Q 6.296875 37.9375 6.296875 49.421875 
Q 6.296875 60.640625 12.9375 67.421875 
Q 19.578125 74.21875 30.609375 74.21875 
Q 43.265625 74.21875 49.921875 64.515625 
Q 56.59375 54.828125 56.59375 36.375 
Q 56.59375 19.140625 48.40625 8.859375 
Q 40.234375 -1.421875 26.421875 -1.421875 
Q 22.703125 -1.421875 18.890625 -0.6875 
Q 15.09375 0.046875 10.984375 1.515625 
z
M 30.609375 32.421875 
Q 37.25 32.421875 41.125 36.953125 
Q 45.015625 41.5 45.015625 49.421875 
Q 45.015625 57.28125 41.125 61.84375 
Q 37.25 66.40625 30.609375 66.40625 
Q 23.96875 66.40625 20.09375 61.84375 
Q 16.21875 57.28125 16.21875 49.421875 
Q 16.21875 41.5 20.09375 36.953125 
Q 23.96875 32.421875 30.609375 32.421875 
z
" id="DejaVuSans-57"/>
       </defs>
       <use xlink:href="#DejaVuSans-48"/>
       <use x="63.623047" xlink:href="#DejaVuSans-46"/>
       <use x="95.410156" xlink:href="#DejaVuSans-57"/>
       <use x="159.033203" xlink:href="#DejaVuSans-48"/>
      </g>
     </g>
    </g>
    <g id="xtick_5">
     <g id="line2d_5">
      <g>
       <use style="stroke:#000000;stroke-width:0.8;" x="228.956691" xlink:href="#mfb4d58aa72" y="261.6"/>
      </g>
     </g>
     <g id="text_5">
      <!-- 0.95 -->
      <g transform="translate(213.370754 279.237813)scale(0.14 -0.14)">
       <use xlink:href="#DejaVuSans-48"/>
       <use x="63.623047" xlink:href="#DejaVuSans-46"/>
       <use x="95.410156" xlink:href="#DejaVuSans-57"/>
       <use x="159.033203" xlink:href="#DejaVuSans-53"/>
      </g>
     </g>
    </g>
   </g>
   <g id="matplotlib.axis_2"/>
   <g id="line2d_6">
    <path clip-path="url(#p4fbc645c34)" d="M 22.837831 250.564114 
L 26.135867 250.690219 
L 35.558826 251.187647 
L 38.385714 251.087893 
L 44.510638 250.722127 
L 50.164413 250.574829 
L 51.577857 250.290051 
L 53.462449 249.681527 
L 55.818189 248.597115 
L 59.116225 246.762761 
L 61.471965 245.512706 
L 63.827705 244.5335 
L 67.596889 243.118965 
L 69.010333 242.295572 
L 69.952629 241.546605 
L 71.366072 240.058635 
L 72.308368 238.832876 
L 73.721812 236.521609 
L 74.664108 234.674675 
L 76.077552 231.383753 
L 77.490996 227.50903 
L 79.375588 221.571701 
L 82.673624 211.020055 
L 84.087068 207.484386 
L 85.029364 205.67644 
L 85.97166 204.316646 
L 86.913956 203.368361 
L 87.856252 202.742214 
L 90.683139 201.369959 
L 91.625435 200.651598 
L 92.567731 199.647289 
L 93.510027 198.327351 
L 94.452323 196.696607 
L 95.865767 193.679572 
L 97.279211 190.070594 
L 98.692655 185.741163 
L 100.577247 178.987843 
L 102.932987 169.349144 
L 105.759875 157.642695 
L 107.644467 150.997084 
L 109.057911 146.810319 
L 111.41365 140.657788 
L 113.298242 135.566016 
L 115.653982 128.572686 
L 117.538574 123.094053 
L 118.952018 119.813893 
L 120.365462 117.06228 
L 121.778906 114.294977 
L 122.721202 111.937078 
L 123.663498 108.928469 
L 124.605794 105.060809 
L 125.54809 100.301947 
L 126.961534 91.556189 
L 131.201866 63.099534 
L 132.144161 58.418509 
L 133.086457 54.902085 
L 134.028753 52.666687 
L 134.499901 52.064112 
L 134.971049 51.790909 
L 135.442197 51.867127 
L 135.913345 52.281382 
L 136.384493 53.052083 
L 136.855641 54.09788 
L 137.797937 57.059206 
L 138.740233 60.910834 
L 141.095973 72.211874 
L 142.509417 78.386188 
L 143.451713 81.724289 
L 144.394009 84.027183 
L 144.865157 84.804103 
L 145.336305 85.289875 
L 145.807453 85.520331 
L 146.278601 85.582818 
L 146.749749 85.421597 
L 147.220897 85.032504 
L 148.163193 83.755499 
L 149.576637 80.836151 
L 152.403524 74.200252 
L 153.34582 72.502957 
L 153.816968 71.758993 
L 154.759264 70.834321 
L 155.230412 70.540752 
L 155.70156 70.424771 
L 156.172708 70.477023 
L 156.643856 70.650271 
L 157.586152 71.477672 
L 158.528448 72.905316 
L 159.470744 74.789534 
L 160.41304 77.219342 
L 161.826484 81.652786 
L 163.239928 86.8042 
L 168.893704 109.140133 
L 170.307148 113.317248 
L 171.720592 116.523064 
L 172.662887 118.199103 
L 174.076331 120.162684 
L 175.960923 122.765728 
L 176.903219 124.297987 
L 177.845515 126.164951 
L 178.787811 128.398577 
L 180.201255 132.263614 
L 183.970439 143.352331 
L 185.383883 146.735982 
L 186.797327 149.532784 
L 188.210771 151.684077 
L 189.624215 153.449373 
L 191.508807 155.342301 
L 193.864546 157.535562 
L 194.806842 158.644249 
L 195.749138 160.011818 
L 196.691434 161.706539 
L 197.63373 163.829948 
L 198.576026 166.370705 
L 199.98947 170.936082 
L 202.34521 179.787298 
L 204.229802 186.583624 
L 205.172098 189.45165 
L 206.114394 191.725977 
L 207.05669 193.239897 
L 207.527838 193.649756 
L 207.998986 193.84092 
L 208.470134 193.776875 
L 208.941282 193.459642 
L 209.41243 192.878727 
L 210.354726 190.98206 
L 211.297022 188.332832 
L 214.595057 177.487586 
L 215.066205 176.455877 
L 215.537353 175.701241 
L 216.008501 175.190666 
L 216.479649 175.006148 
L 216.950797 175.159667 
L 217.421945 175.617615 
L 217.893093 176.374064 
L 218.835389 178.699924 
L 219.777685 181.89433 
L 221.662277 189.491791 
L 223.546869 197.111236 
L 224.960313 202.041632 
L 225.902609 204.806396 
L 226.844905 207.044185 
L 227.787201 208.732863 
L 228.729497 209.894162 
L 229.200645 210.216854 
L 229.671793 210.390117 
L 230.614089 210.392901 
L 231.085237 210.253383 
L 232.498681 209.340492 
L 233.440977 208.783544 
L 234.383272 208.516576 
L 234.85442 208.559383 
L 235.325568 208.735549 
L 235.796716 209.04874 
L 236.267864 209.514581 
L 237.21016 210.908054 
L 238.152456 212.81711 
L 239.5659 216.463648 
L 241.92164 223.497229 
L 244.748528 231.731355 
L 246.161972 235.337352 
L 247.575416 238.467345 
L 248.98886 241.102725 
L 249.931156 242.511101 
L 251.3446 244.171855 
L 252.286896 245.020304 
L 253.229192 245.662411 
L 254.171487 246.121347 
L 255.584931 246.447729 
L 256.998375 246.478878 
L 258.882967 246.140325 
L 263.123299 245.291487 
L 263.594447 245.269008 
L 263.594447 245.269008 
" style="fill:none;stroke:#1f77b4;stroke-linecap:square;stroke-width:1.5;"/>
   </g>
   <g id="line2d_7">
    <path clip-path="url(#p4fbc645c34)" d="M 22.837831 251.55614 
L 22.837831 250.564114 
" style="fill:none;stroke:#1f77b4;stroke-linecap:square;stroke-width:1.5;"/>
   </g>
   <g id="line2d_8">
    <path clip-path="url(#p4fbc645c34)" d="M 263.594447 251.609091 
L 263.594447 245.269008 
" style="fill:none;stroke:#1f77b4;stroke-linecap:square;stroke-width:1.5;"/>
   </g>
   <g id="line2d_9">
    <defs>
     <path d="M 0 3 
C 0.795609 3 1.55874 2.683901 2.12132 2.12132 
C 2.683901 1.55874 3 0.795609 3 0 
C 3 -0.795609 2.683901 -1.55874 2.12132 -2.12132 
C 1.55874 -2.683901 0.795609 -3 0 -3 
C -0.795609 -3 -1.55874 -2.683901 -2.12132 -2.12132 
C -2.683901 -1.55874 -3 -0.795609 -3 0 
C -3 0.795609 -2.683901 1.55874 -2.12132 2.12132 
C -1.55874 2.683901 -0.795609 3 0 3 
z
" id="me4f8a52823" style="stroke:#000000;"/>
    </defs>
    <g clip-path="url(#p4fbc645c34)">
     <use style="fill:#1f77b4;stroke:#000000;" x="154.651556" xlink:href="#me4f8a52823" y="251.546318"/>
    </g>
   </g>
   <g id="patch_3">
    <path d="M 10.8 261.6 
L 275.632278 261.6 
" style="fill:none;stroke:#000000;stroke-linecap:square;stroke-linejoin:miter;stroke-width:0.8;"/>
   </g>
   <g id="text_6">
    <!-- Alpha  -->
    <g transform="translate(124.249576 24.18625)scale(0.12 -0.12)">
     <defs>
      <path d="M 34.1875 63.1875 
L 20.796875 26.90625 
L 47.609375 26.90625 
z
M 28.609375 72.90625 
L 39.796875 72.90625 
L 67.578125 0 
L 57.328125 0 
L 50.6875 18.703125 
L 17.828125 18.703125 
L 11.1875 0 
L 0.78125 0 
z
" id="DejaVuSans-65"/>
      <path d="M 9.421875 75.984375 
L 18.40625 75.984375 
L 18.40625 0 
L 9.421875 0 
z
" id="DejaVuSans-108"/>
      <path d="M 18.109375 8.203125 
L 18.109375 -20.796875 
L 9.078125 -20.796875 
L 9.078125 54.6875 
L 18.109375 54.6875 
L 18.109375 46.390625 
Q 20.953125 51.265625 25.265625 53.625 
Q 29.59375 56 35.59375 56 
Q 45.5625 56 51.78125 48.09375 
Q 58.015625 40.1875 58.015625 27.296875 
Q 58.015625 14.40625 51.78125 6.484375 
Q 45.5625 -1.421875 35.59375 -1.421875 
Q 29.59375 -1.421875 25.265625 0.953125 
Q 20.953125 3.328125 18.109375 8.203125 
z
M 48.6875 27.296875 
Q 48.6875 37.203125 44.609375 42.84375 
Q 40.53125 48.484375 33.40625 48.484375 
Q 26.265625 48.484375 22.1875 42.84375 
Q 18.109375 37.203125 18.109375 27.296875 
Q 18.109375 17.390625 22.1875 11.75 
Q 26.265625 6.109375 33.40625 6.109375 
Q 40.53125 6.109375 44.609375 11.75 
Q 48.6875 17.390625 48.6875 27.296875 
z
" id="DejaVuSans-112"/>
      <path d="M 54.890625 33.015625 
L 54.890625 0 
L 45.90625 0 
L 45.90625 32.71875 
Q 45.90625 40.484375 42.875 44.328125 
Q 39.84375 48.1875 33.796875 48.1875 
Q 26.515625 48.1875 22.3125 43.546875 
Q 18.109375 38.921875 18.109375 30.90625 
L 18.109375 0 
L 9.078125 0 
L 9.078125 75.984375 
L 18.109375 75.984375 
L 18.109375 46.1875 
Q 21.34375 51.125 25.703125 53.5625 
Q 30.078125 56 35.796875 56 
Q 45.21875 56 50.046875 50.171875 
Q 54.890625 44.34375 54.890625 33.015625 
z
" id="DejaVuSans-104"/>
      <path d="M 34.28125 27.484375 
Q 23.390625 27.484375 19.1875 25 
Q 14.984375 22.515625 14.984375 16.5 
Q 14.984375 11.71875 18.140625 8.90625 
Q 21.296875 6.109375 26.703125 6.109375 
Q 34.1875 6.109375 38.703125 11.40625 
Q 43.21875 16.703125 43.21875 25.484375 
L 43.21875 27.484375 
z
M 52.203125 31.203125 
L 52.203125 0 
L 43.21875 0 
L 43.21875 8.296875 
Q 40.140625 3.328125 35.546875 0.953125 
Q 30.953125 -1.421875 24.3125 -1.421875 
Q 15.921875 -1.421875 10.953125 3.296875 
Q 6 8.015625 6 15.921875 
Q 6 25.140625 12.171875 29.828125 
Q 18.359375 34.515625 30.609375 34.515625 
L 43.21875 34.515625 
L 43.21875 35.40625 
Q 43.21875 41.609375 39.140625 45 
Q 35.0625 48.390625 27.6875 48.390625 
Q 23 48.390625 18.546875 47.265625 
Q 14.109375 46.140625 10.015625 43.890625 
L 10.015625 52.203125 
Q 14.9375 54.109375 19.578125 55.046875 
Q 24.21875 56 28.609375 56 
Q 40.484375 56 46.34375 49.84375 
Q 52.203125 43.703125 52.203125 31.203125 
z
" id="DejaVuSans-97"/>
      <path id="DejaVuSans-32"/>
     </defs>
     <use xlink:href="#DejaVuSans-65"/>
     <use x="68.408203" xlink:href="#DejaVuSans-108"/>
     <use x="96.191406" xlink:href="#DejaVuSans-112"/>
     <use x="159.667969" xlink:href="#DejaVuSans-104"/>
     <use x="223.046875" xlink:href="#DejaVuSans-97"/>
     <use x="284.326172" xlink:href="#DejaVuSans-32"/>
    </g>
    <!--  risk aversion -->
    <g transform="translate(103.016139 37.623625)scale(0.12 -0.12)">
     <defs>
      <path d="M 41.109375 46.296875 
Q 39.59375 47.171875 37.8125 47.578125 
Q 36.03125 48 33.890625 48 
Q 26.265625 48 22.1875 43.046875 
Q 18.109375 38.09375 18.109375 28.8125 
L 18.109375 0 
L 9.078125 0 
L 9.078125 54.6875 
L 18.109375 54.6875 
L 18.109375 46.1875 
Q 20.953125 51.171875 25.484375 53.578125 
Q 30.03125 56 36.53125 56 
Q 37.453125 56 38.578125 55.875 
Q 39.703125 55.765625 41.0625 55.515625 
z
" id="DejaVuSans-114"/>
      <path d="M 9.421875 54.6875 
L 18.40625 54.6875 
L 18.40625 0 
L 9.421875 0 
z
M 9.421875 75.984375 
L 18.40625 75.984375 
L 18.40625 64.59375 
L 9.421875 64.59375 
z
" id="DejaVuSans-105"/>
      <path d="M 44.28125 53.078125 
L 44.28125 44.578125 
Q 40.484375 46.53125 36.375 47.5 
Q 32.28125 48.484375 27.875 48.484375 
Q 21.1875 48.484375 17.84375 46.4375 
Q 14.5 44.390625 14.5 40.28125 
Q 14.5 37.15625 16.890625 35.375 
Q 19.28125 33.59375 26.515625 31.984375 
L 29.59375 31.296875 
Q 39.15625 29.25 43.1875 25.515625 
Q 47.21875 21.78125 47.21875 15.09375 
Q 47.21875 7.46875 41.1875 3.015625 
Q 35.15625 -1.421875 24.609375 -1.421875 
Q 20.21875 -1.421875 15.453125 -0.5625 
Q 10.6875 0.296875 5.421875 2 
L 5.421875 11.28125 
Q 10.40625 8.6875 15.234375 7.390625 
Q 20.0625 6.109375 24.8125 6.109375 
Q 31.15625 6.109375 34.5625 8.28125 
Q 37.984375 10.453125 37.984375 14.40625 
Q 37.984375 18.0625 35.515625 20.015625 
Q 33.0625 21.96875 24.703125 23.78125 
L 21.578125 24.515625 
Q 13.234375 26.265625 9.515625 29.90625 
Q 5.8125 33.546875 5.8125 39.890625 
Q 5.8125 47.609375 11.28125 51.796875 
Q 16.75 56 26.8125 56 
Q 31.78125 56 36.171875 55.265625 
Q 40.578125 54.546875 44.28125 53.078125 
z
" id="DejaVuSans-115"/>
      <path d="M 9.078125 75.984375 
L 18.109375 75.984375 
L 18.109375 31.109375 
L 44.921875 54.6875 
L 56.390625 54.6875 
L 27.390625 29.109375 
L 57.625 0 
L 45.90625 0 
L 18.109375 26.703125 
L 18.109375 0 
L 9.078125 0 
z
" id="DejaVuSans-107"/>
      <path d="M 2.984375 54.6875 
L 12.5 54.6875 
L 29.59375 8.796875 
L 46.6875 54.6875 
L 56.203125 54.6875 
L 35.6875 0 
L 23.484375 0 
z
" id="DejaVuSans-118"/>
      <path d="M 56.203125 29.59375 
L 56.203125 25.203125 
L 14.890625 25.203125 
Q 15.484375 15.921875 20.484375 11.0625 
Q 25.484375 6.203125 34.421875 6.203125 
Q 39.59375 6.203125 44.453125 7.46875 
Q 49.3125 8.734375 54.109375 11.28125 
L 54.109375 2.78125 
Q 49.265625 0.734375 44.1875 -0.34375 
Q 39.109375 -1.421875 33.890625 -1.421875 
Q 20.796875 -1.421875 13.15625 6.1875 
Q 5.515625 13.8125 5.515625 26.8125 
Q 5.515625 40.234375 12.765625 48.109375 
Q 20.015625 56 32.328125 56 
Q 43.359375 56 49.78125 48.890625 
Q 56.203125 41.796875 56.203125 29.59375 
z
M 47.21875 32.234375 
Q 47.125 39.59375 43.09375 43.984375 
Q 39.0625 48.390625 32.421875 48.390625 
Q 24.90625 48.390625 20.390625 44.140625 
Q 15.875 39.890625 15.1875 32.171875 
z
" id="DejaVuSans-101"/>
      <path d="M 30.609375 48.390625 
Q 23.390625 48.390625 19.1875 42.75 
Q 14.984375 37.109375 14.984375 27.296875 
Q 14.984375 17.484375 19.15625 11.84375 
Q 23.34375 6.203125 30.609375 6.203125 
Q 37.796875 6.203125 41.984375 11.859375 
Q 46.1875 17.53125 46.1875 27.296875 
Q 46.1875 37.015625 41.984375 42.703125 
Q 37.796875 48.390625 30.609375 48.390625 
z
M 30.609375 56 
Q 42.328125 56 49.015625 48.375 
Q 55.71875 40.765625 55.71875 27.296875 
Q 55.71875 13.875 49.015625 6.21875 
Q 42.328125 -1.421875 30.609375 -1.421875 
Q 18.84375 -1.421875 12.171875 6.21875 
Q 5.515625 13.875 5.515625 27.296875 
Q 5.515625 40.765625 12.171875 48.375 
Q 18.84375 56 30.609375 56 
z
" id="DejaVuSans-111"/>
      <path d="M 54.890625 33.015625 
L 54.890625 0 
L 45.90625 0 
L 45.90625 32.71875 
Q 45.90625 40.484375 42.875 44.328125 
Q 39.84375 48.1875 33.796875 48.1875 
Q 26.515625 48.1875 22.3125 43.546875 
Q 18.109375 38.921875 18.109375 30.90625 
L 18.109375 0 
L 9.078125 0 
L 9.078125 54.6875 
L 18.109375 54.6875 
L 18.109375 46.1875 
Q 21.34375 51.125 25.703125 53.5625 
Q 30.078125 56 35.796875 56 
Q 45.21875 56 50.046875 50.171875 
Q 54.890625 44.34375 54.890625 33.015625 
z
" id="DejaVuSans-110"/>
     </defs>
     <use xlink:href="#DejaVuSans-32"/>
     <use x="31.787109" xlink:href="#DejaVuSans-114"/>
     <use x="72.900391" xlink:href="#DejaVuSans-105"/>
     <use x="100.683594" xlink:href="#DejaVuSans-115"/>
     <use x="152.783203" xlink:href="#DejaVuSans-107"/>
     <use x="210.693359" xlink:href="#DejaVuSans-32"/>
     <use x="242.480469" xlink:href="#DejaVuSans-97"/>
     <use x="303.759766" xlink:href="#DejaVuSans-118"/>
     <use x="362.939453" xlink:href="#DejaVuSans-101"/>
     <use x="424.462891" xlink:href="#DejaVuSans-114"/>
     <use x="465.576172" xlink:href="#DejaVuSans-115"/>
     <use x="517.675781" xlink:href="#DejaVuSans-105"/>
     <use x="545.458984" xlink:href="#DejaVuSans-111"/>
     <use x="606.640625" xlink:href="#DejaVuSans-110"/>
    </g>
   </g>
  </g>
  <g id="axes_2">
   <g id="patch_4">
    <path d="M 291.544763 261.6 
L 556.377041 261.6 
L 556.377041 41.8 
L 291.544763 41.8 
z
" style="fill:#ffffff;"/>
   </g>
   <g id="matplotlib.axis_3">
    <g id="xtick_6">
     <g id="line2d_10">
      <g>
       <use style="stroke:#000000;stroke-width:0.8;" x="320.639853" xlink:href="#mfb4d58aa72" y="261.6"/>
      </g>
     </g>
     <g id="text_7">
      <!-- 0.4 -->
      <g transform="translate(309.507665 279.237813)scale(0.14 -0.14)">
       <defs>
        <path d="M 37.796875 64.3125 
L 12.890625 25.390625 
L 37.796875 25.390625 
z
M 35.203125 72.90625 
L 47.609375 72.90625 
L 47.609375 25.390625 
L 58.015625 25.390625 
L 58.015625 17.1875 
L 47.609375 17.1875 
L 47.609375 0 
L 37.796875 0 
L 37.796875 17.1875 
L 4.890625 17.1875 
L 4.890625 26.703125 
z
" id="DejaVuSans-52"/>
       </defs>
       <use xlink:href="#DejaVuSans-48"/>
       <use x="63.623047" xlink:href="#DejaVuSans-46"/>
       <use x="95.410156" xlink:href="#DejaVuSans-52"/>
      </g>
     </g>
    </g>
    <g id="xtick_7">
     <g id="line2d_11">
      <g>
       <use style="stroke:#000000;stroke-width:0.8;" x="398.244583" xlink:href="#mfb4d58aa72" y="261.6"/>
      </g>
     </g>
     <g id="text_8">
      <!-- 0.6 -->
      <g transform="translate(387.112395 279.237813)scale(0.14 -0.14)">
       <defs>
        <path d="M 33.015625 40.375 
Q 26.375 40.375 22.484375 35.828125 
Q 18.609375 31.296875 18.609375 23.390625 
Q 18.609375 15.53125 22.484375 10.953125 
Q 26.375 6.390625 33.015625 6.390625 
Q 39.65625 6.390625 43.53125 10.953125 
Q 47.40625 15.53125 47.40625 23.390625 
Q 47.40625 31.296875 43.53125 35.828125 
Q 39.65625 40.375 33.015625 40.375 
z
M 52.59375 71.296875 
L 52.59375 62.3125 
Q 48.875 64.0625 45.09375 64.984375 
Q 41.3125 65.921875 37.59375 65.921875 
Q 27.828125 65.921875 22.671875 59.328125 
Q 17.53125 52.734375 16.796875 39.40625 
Q 19.671875 43.65625 24.015625 45.921875 
Q 28.375 48.1875 33.59375 48.1875 
Q 44.578125 48.1875 50.953125 41.515625 
Q 57.328125 34.859375 57.328125 23.390625 
Q 57.328125 12.15625 50.6875 5.359375 
Q 44.046875 -1.421875 33.015625 -1.421875 
Q 20.359375 -1.421875 13.671875 8.265625 
Q 6.984375 17.96875 6.984375 36.375 
Q 6.984375 53.65625 15.1875 63.9375 
Q 23.390625 74.21875 37.203125 74.21875 
Q 40.921875 74.21875 44.703125 73.484375 
Q 48.484375 72.75 52.59375 71.296875 
z
" id="DejaVuSans-54"/>
       </defs>
       <use xlink:href="#DejaVuSans-48"/>
       <use x="63.623047" xlink:href="#DejaVuSans-46"/>
       <use x="95.410156" xlink:href="#DejaVuSans-54"/>
      </g>
     </g>
    </g>
    <g id="xtick_8">
     <g id="line2d_12">
      <g>
       <use style="stroke:#000000;stroke-width:0.8;" x="475.849313" xlink:href="#mfb4d58aa72" y="261.6"/>
      </g>
     </g>
     <g id="text_9">
      <!-- 0.8 -->
      <g transform="translate(464.717126 279.237813)scale(0.14 -0.14)">
       <use xlink:href="#DejaVuSans-48"/>
       <use x="63.623047" xlink:href="#DejaVuSans-46"/>
       <use x="95.410156" xlink:href="#DejaVuSans-56"/>
      </g>
     </g>
    </g>
    <g id="xtick_9">
     <g id="line2d_13">
      <g>
       <use style="stroke:#000000;stroke-width:0.8;" x="553.454044" xlink:href="#mfb4d58aa72" y="261.6"/>
      </g>
     </g>
     <g id="text_10">
      <!-- 1.0 -->
      <g transform="translate(542.321856 279.237813)scale(0.14 -0.14)">
       <defs>
        <path d="M 12.40625 8.296875 
L 28.515625 8.296875 
L 28.515625 63.921875 
L 10.984375 60.40625 
L 10.984375 69.390625 
L 28.421875 72.90625 
L 38.28125 72.90625 
L 38.28125 8.296875 
L 54.390625 8.296875 
L 54.390625 0 
L 12.40625 0 
z
" id="DejaVuSans-49"/>
       </defs>
       <use xlink:href="#DejaVuSans-49"/>
       <use x="63.623047" xlink:href="#DejaVuSans-46"/>
       <use x="95.410156" xlink:href="#DejaVuSans-48"/>
      </g>
     </g>
    </g>
   </g>
   <g id="matplotlib.axis_4"/>
   <g id="line2d_14">
    <path clip-path="url(#p9349d6997e)" d="M 303.582594 250.944667 
L 305.590559 251.124536 
L 308.401711 251.417703 
L 310.409676 251.386746 
L 314.024014 251.283979 
L 322.457468 251.548668 
L 329.686143 251.346111 
L 332.497295 251.429681 
L 334.103667 251.214912 
L 335.308446 250.834387 
L 336.914819 250.040262 
L 338.922784 249.038942 
L 339.72597 248.826893 
L 340.529156 248.784985 
L 341.733936 248.985318 
L 344.545087 249.695271 
L 346.151459 249.803319 
L 351.372169 249.737095 
L 352.576949 249.402205 
L 354.183321 248.673137 
L 355.789693 247.688922 
L 357.797658 246.199225 
L 361.411996 243.240469 
L 367.435892 237.780471 
L 369.845451 235.508301 
L 371.853416 233.282642 
L 373.058195 231.61945 
L 373.861381 230.22154 
L 374.664567 228.502591 
L 375.869347 225.226064 
L 377.074126 221.132147 
L 378.278905 216.397384 
L 379.885277 209.296911 
L 381.49165 201.353209 
L 383.098022 192.343654 
L 384.302801 184.265152 
L 385.50758 174.670821 
L 386.71236 163.159599 
L 388.318732 145.229693 
L 389.925104 127.646478 
L 390.72829 120.637008 
L 391.531476 115.674921 
L 392.334663 112.682516 
L 392.736256 111.830018 
L 393.137849 111.270597 
L 394.744221 110.080135 
L 395.145814 109.485619 
L 395.547407 108.654872 
L 396.350593 106.00677 
L 397.153779 101.994683 
L 397.956966 96.918508 
L 400.768117 77.180705 
L 401.571303 73.114719 
L 402.374489 70.404771 
L 402.776082 69.592198 
L 403.177676 69.13735 
L 403.579269 68.851138 
L 404.382455 68.914681 
L 405.988827 69.447469 
L 406.792013 69.422331 
L 407.193606 69.335989 
L 410.807944 67.197651 
L 411.209537 66.845487 
L 412.414316 65.278759 
L 415.225468 61.024272 
L 415.627061 60.584157 
L 416.028654 60.323806 
L 416.430247 60.271879 
L 416.83184 60.43048 
L 417.233433 60.850768 
L 417.635026 61.595053 
L 418.036619 62.667813 
L 418.438212 64.149313 
L 419.241398 68.342527 
L 420.044585 74.207147 
L 421.249364 85.567525 
L 424.462108 118.637035 
L 426.068481 131.954751 
L 430.887598 169.25465 
L 432.895563 185.144372 
L 434.100342 193.164403 
L 435.305121 199.622637 
L 436.108307 203.118468 
L 437.313087 207.25004 
L 438.517866 210.511943 
L 439.321052 212.251649 
L 440.525831 214.247376 
L 441.329017 215.214081 
L 442.533797 216.232526 
L 444.943355 217.87918 
L 445.746541 218.737523 
L 446.549727 219.898029 
L 447.352913 221.408358 
L 448.557693 224.313343 
L 452.573623 235.359096 
L 453.778403 237.659414 
L 454.983182 239.398471 
L 456.187961 240.725208 
L 457.39274 241.821485 
L 458.597519 242.736317 
L 460.203892 243.691238 
L 463.416636 245.48453 
L 465.424602 246.562235 
L 466.629381 246.861169 
L 467.83416 246.827711 
L 469.842125 246.602225 
L 470.645312 246.675458 
L 471.850091 247.068529 
L 473.858056 248.150873 
L 475.866022 249.166681 
L 477.873987 249.948088 
L 479.480359 250.388977 
L 481.086731 250.568875 
L 482.693104 250.49968 
L 485.102662 250.127069 
L 490.323372 249.126082 
L 491.528151 249.188596 
L 492.732931 249.473864 
L 494.740896 250.255818 
L 496.347268 250.845275 
L 497.552047 251.103261 
L 499.15842 251.165255 
L 503.977537 250.937797 
L 506.788688 250.957621 
L 508.796653 250.877938 
L 508.796653 250.877938 
" style="fill:none;stroke:#1f77b4;stroke-linecap:square;stroke-width:1.5;"/>
   </g>
   <g id="line2d_15">
    <path clip-path="url(#p9349d6997e)" d="M 303.582594 251.604692 
L 303.582594 250.944667 
" style="fill:none;stroke:#1f77b4;stroke-linecap:square;stroke-width:1.5;"/>
   </g>
   <g id="line2d_16">
    <path clip-path="url(#p9349d6997e)" d="M 508.796653 251.605359 
L 508.796653 250.877938 
" style="fill:none;stroke:#1f77b4;stroke-linecap:square;stroke-width:1.5;"/>
   </g>
   <g id="line2d_17">
    <g clip-path="url(#p9349d6997e)">
     <use style="fill:#1f77b4;stroke:#000000;" x="409.930622" xlink:href="#me4f8a52823" y="251.598157"/>
    </g>
   </g>
   <g id="line2d_18">
    <path clip-path="url(#p9349d6997e)" d="M 339.662855 250.839344 
L 340.864478 250.934313 
L 345.270427 251.556904 
L 349.275835 251.598157 
L 372.507202 251.500153 
L 374.509906 251.226872 
L 376.913151 250.871933 
L 378.515314 250.931777 
L 381.3191 251.188646 
L 382.921263 251.023699 
L 384.923967 250.798728 
L 386.926671 250.860905 
L 388.528834 250.849616 
L 390.531538 250.488571 
L 392.934783 249.794331 
L 394.536946 249.111869 
L 396.53965 248.055888 
L 397.741273 247.23647 
L 398.942895 246.133357 
L 400.945599 244.154384 
L 402.147222 243.323612 
L 403.749385 242.313911 
L 404.550467 241.517175 
L 405.752089 239.814917 
L 409.356956 233.789173 
L 410.158038 231.759009 
L 410.95912 228.932271 
L 411.760201 225.147443 
L 412.561283 220.302414 
L 413.762905 211.572565 
L 415.765609 196.693202 
L 416.566691 191.952234 
L 417.367773 188.378951 
L 418.168854 185.905963 
L 418.969936 184.290645 
L 420.97264 181.196961 
L 421.773722 179.230662 
L 422.574803 176.37538 
L 423.375885 172.432422 
L 424.176966 167.379578 
L 424.978048 161.053698 
L 426.179671 149.333066 
L 427.381293 135.456251 
L 428.983456 113.637648 
L 431.386701 79.275283 
L 432.187783 71.62279 
L 432.588324 69.166042 
L 432.988864 67.577049 
L 433.389405 66.835612 
L 433.789946 66.811077 
L 434.190487 67.297517 
L 435.79265 70.400321 
L 436.193191 70.702279 
L 436.593732 70.691869 
L 436.994272 70.312207 
L 437.394813 69.696832 
L 438.195895 67.897912 
L 441.400221 59.484492 
L 443.402925 54.071922 
L 444.204007 52.496674 
L 444.604548 52.041947 
L 445.005089 51.790909 
L 445.405629 51.818143 
L 445.80617 52.071157 
L 446.206711 52.514596 
L 447.007793 53.909809 
L 448.609956 56.984504 
L 449.411038 57.759842 
L 449.811578 57.819054 
L 450.61266 57.510259 
L 451.814282 56.535993 
L 452.214823 56.457043 
L 452.615364 56.619741 
L 453.015905 57.165391 
L 453.416446 58.118508 
L 453.816987 59.524114 
L 454.618068 63.774552 
L 455.41915 69.964317 
L 456.220231 77.776753 
L 457.421854 91.783314 
L 460.22564 125.682643 
L 461.026721 132.944864 
L 461.827803 138.196426 
L 462.628884 141.583726 
L 463.429966 143.625866 
L 464.631588 146.196961 
L 465.032129 147.39469 
L 465.833211 151.009453 
L 466.634293 156.301047 
L 467.435374 163.137851 
L 470.23916 189.321088 
L 471.040241 194.531808 
L 471.841323 198.255399 
L 472.642405 200.742035 
L 475.44619 207.690535 
L 477.048354 213.58168 
L 478.650517 219.338557 
L 479.852139 222.917189 
L 485.860251 238.771735 
L 486.661333 240.123599 
L 487.462415 241.085395 
L 488.263496 241.729431 
L 489.465119 242.324287 
L 491.067282 243.093469 
L 495.473231 245.77649 
L 499.478639 248.263986 
L 501.080802 248.902902 
L 507.889996 250.915057 
L 509.492159 251.042441 
L 511.494863 250.917231 
L 516.301353 250.547243 
L 518.704598 250.692743 
L 526.715414 251.364465 
L 528.718118 251.416418 
L 534.32569 251.257372 
L 536.728935 251.191801 
L 542.737047 250.638615 
L 544.33921 250.504727 
L 544.33921 250.504727 
" style="fill:none;stroke:#ff7f0e;stroke-linecap:square;stroke-width:1.5;"/>
   </g>
   <g id="line2d_19">
    <path clip-path="url(#p9349d6997e)" d="M 339.662855 251.605745 
L 339.662855 250.839344 
" style="fill:none;stroke:#ff7f0e;stroke-linecap:square;stroke-width:1.5;"/>
   </g>
   <g id="line2d_20">
    <path clip-path="url(#p9349d6997e)" d="M 544.33921 251.609091 
L 544.33921 250.504727 
" style="fill:none;stroke:#ff7f0e;stroke-linecap:square;stroke-width:1.5;"/>
   </g>
   <g id="line2d_21">
    <defs>
     <path d="M 0 3 
C 0.795609 3 1.55874 2.683901 2.12132 2.12132 
C 2.683901 1.55874 3 0.795609 3 0 
C 3 -0.795609 2.683901 -1.55874 2.12132 -2.12132 
C 1.55874 -2.683901 0.795609 -3 0 -3 
C -0.795609 -3 -1.55874 -2.683901 -2.12132 -2.12132 
C -2.683901 -1.55874 -3 -0.795609 -3 0 
C -3 0.795609 -2.683901 1.55874 -2.12132 2.12132 
C -1.55874 2.683901 -0.795609 3 0 3 
z
" id="m5fcb588867" style="stroke:#000000;"/>
    </defs>
    <g clip-path="url(#p9349d6997e)">
     <use style="fill:#ff7f0e;stroke:#000000;" x="445.275113" xlink:href="#m5fcb588867" y="251.598157"/>
    </g>
   </g>
   <g id="line2d_22"/>
   <g id="line2d_23"/>
   <g id="patch_5">
    <path d="M 291.544763 261.6 
L 556.377041 261.6 
" style="fill:none;stroke:#000000;stroke-linecap:square;stroke-linejoin:miter;stroke-width:0.8;"/>
   </g>
   <g id="text_11">
    <!-- Prob. non-linearities -->
    <g transform="translate(363.906527 35.8)scale(0.12 -0.12)">
     <defs>
      <path d="M 19.671875 64.796875 
L 19.671875 37.40625 
L 32.078125 37.40625 
Q 38.96875 37.40625 42.71875 40.96875 
Q 46.484375 44.53125 46.484375 51.125 
Q 46.484375 57.671875 42.71875 61.234375 
Q 38.96875 64.796875 32.078125 64.796875 
z
M 9.8125 72.90625 
L 32.078125 72.90625 
Q 44.34375 72.90625 50.609375 67.359375 
Q 56.890625 61.8125 56.890625 51.125 
Q 56.890625 40.328125 50.609375 34.8125 
Q 44.34375 29.296875 32.078125 29.296875 
L 19.671875 29.296875 
L 19.671875 0 
L 9.8125 0 
z
" id="DejaVuSans-80"/>
      <path d="M 48.6875 27.296875 
Q 48.6875 37.203125 44.609375 42.84375 
Q 40.53125 48.484375 33.40625 48.484375 
Q 26.265625 48.484375 22.1875 42.84375 
Q 18.109375 37.203125 18.109375 27.296875 
Q 18.109375 17.390625 22.1875 11.75 
Q 26.265625 6.109375 33.40625 6.109375 
Q 40.53125 6.109375 44.609375 11.75 
Q 48.6875 17.390625 48.6875 27.296875 
z
M 18.109375 46.390625 
Q 20.953125 51.265625 25.265625 53.625 
Q 29.59375 56 35.59375 56 
Q 45.5625 56 51.78125 48.09375 
Q 58.015625 40.1875 58.015625 27.296875 
Q 58.015625 14.40625 51.78125 6.484375 
Q 45.5625 -1.421875 35.59375 -1.421875 
Q 29.59375 -1.421875 25.265625 0.953125 
Q 20.953125 3.328125 18.109375 8.203125 
L 18.109375 0 
L 9.078125 0 
L 9.078125 75.984375 
L 18.109375 75.984375 
z
" id="DejaVuSans-98"/>
      <path d="M 4.890625 31.390625 
L 31.203125 31.390625 
L 31.203125 23.390625 
L 4.890625 23.390625 
z
" id="DejaVuSans-45"/>
      <path d="M 18.3125 70.21875 
L 18.3125 54.6875 
L 36.8125 54.6875 
L 36.8125 47.703125 
L 18.3125 47.703125 
L 18.3125 18.015625 
Q 18.3125 11.328125 20.140625 9.421875 
Q 21.96875 7.515625 27.59375 7.515625 
L 36.8125 7.515625 
L 36.8125 0 
L 27.59375 0 
Q 17.1875 0 13.234375 3.875 
Q 9.28125 7.765625 9.28125 18.015625 
L 9.28125 47.703125 
L 2.6875 47.703125 
L 2.6875 54.6875 
L 9.28125 54.6875 
L 9.28125 70.21875 
z
" id="DejaVuSans-116"/>
     </defs>
     <use xlink:href="#DejaVuSans-80"/>
     <use x="58.552734" xlink:href="#DejaVuSans-114"/>
     <use x="97.416016" xlink:href="#DejaVuSans-111"/>
     <use x="158.597656" xlink:href="#DejaVuSans-98"/>
     <use x="222.074219" xlink:href="#DejaVuSans-46"/>
     <use x="253.861328" xlink:href="#DejaVuSans-32"/>
     <use x="285.648438" xlink:href="#DejaVuSans-110"/>
     <use x="349.027344" xlink:href="#DejaVuSans-111"/>
     <use x="410.208984" xlink:href="#DejaVuSans-110"/>
     <use x="473.587891" xlink:href="#DejaVuSans-45"/>
     <use x="509.671875" xlink:href="#DejaVuSans-108"/>
     <use x="537.455078" xlink:href="#DejaVuSans-105"/>
     <use x="565.238281" xlink:href="#DejaVuSans-110"/>
     <use x="628.617188" xlink:href="#DejaVuSans-101"/>
     <use x="690.140625" xlink:href="#DejaVuSans-97"/>
     <use x="751.419922" xlink:href="#DejaVuSans-114"/>
     <use x="792.533203" xlink:href="#DejaVuSans-105"/>
     <use x="820.316406" xlink:href="#DejaVuSans-116"/>
     <use x="859.525391" xlink:href="#DejaVuSans-105"/>
     <use x="887.308594" xlink:href="#DejaVuSans-101"/>
     <use x="948.832031" xlink:href="#DejaVuSans-115"/>
    </g>
   </g>
   <g id="legend_1">
    <g id="patch_6">
     <path d="M 301.344763 174.349375 
L 401.425075 174.349375 
Q 404.225075 174.349375 404.225075 171.549375 
L 404.225075 131.850625 
Q 404.225075 129.050625 401.425075 129.050625 
L 301.344763 129.050625 
Q 298.544763 129.050625 298.544763 131.850625 
L 298.544763 171.549375 
Q 298.544763 174.349375 301.344763 174.349375 
z
" style="fill:#ffffff;opacity:0.8;stroke:#cccccc;stroke-linejoin:miter;"/>
    </g>
    <g id="line2d_24">
     <path d="M 304.144763 140.388437 
L 332.144763 140.388437 
" style="fill:none;stroke:#1f77b4;stroke-linecap:square;stroke-width:1.5;"/>
    </g>
    <g id="line2d_25"/>
    <g id="text_12">
     <!-- Gamma -->
     <g transform="translate(343.344763 145.288437)scale(0.14 -0.14)">
      <defs>
       <path d="M 59.515625 10.40625 
L 59.515625 29.984375 
L 43.40625 29.984375 
L 43.40625 38.09375 
L 69.28125 38.09375 
L 69.28125 6.78125 
Q 63.578125 2.734375 56.6875 0.65625 
Q 49.8125 -1.421875 42 -1.421875 
Q 24.90625 -1.421875 15.25 8.5625 
Q 5.609375 18.5625 5.609375 36.375 
Q 5.609375 54.25 15.25 64.234375 
Q 24.90625 74.21875 42 74.21875 
Q 49.125 74.21875 55.546875 72.453125 
Q 61.96875 70.703125 67.390625 67.28125 
L 67.390625 56.78125 
Q 61.921875 61.421875 55.765625 63.765625 
Q 49.609375 66.109375 42.828125 66.109375 
Q 29.4375 66.109375 22.71875 58.640625 
Q 16.015625 51.171875 16.015625 36.375 
Q 16.015625 21.625 22.71875 14.15625 
Q 29.4375 6.6875 42.828125 6.6875 
Q 48.046875 6.6875 52.140625 7.59375 
Q 56.25 8.5 59.515625 10.40625 
z
" id="DejaVuSans-71"/>
       <path d="M 52 44.1875 
Q 55.375 50.25 60.0625 53.125 
Q 64.75 56 71.09375 56 
Q 79.640625 56 84.28125 50.015625 
Q 88.921875 44.046875 88.921875 33.015625 
L 88.921875 0 
L 79.890625 0 
L 79.890625 32.71875 
Q 79.890625 40.578125 77.09375 44.375 
Q 74.3125 48.1875 68.609375 48.1875 
Q 61.625 48.1875 57.5625 43.546875 
Q 53.515625 38.921875 53.515625 30.90625 
L 53.515625 0 
L 44.484375 0 
L 44.484375 32.71875 
Q 44.484375 40.625 41.703125 44.40625 
Q 38.921875 48.1875 33.109375 48.1875 
Q 26.21875 48.1875 22.15625 43.53125 
Q 18.109375 38.875 18.109375 30.90625 
L 18.109375 0 
L 9.078125 0 
L 9.078125 54.6875 
L 18.109375 54.6875 
L 18.109375 46.1875 
Q 21.1875 51.21875 25.484375 53.609375 
Q 29.78125 56 35.6875 56 
Q 41.65625 56 45.828125 52.96875 
Q 50 49.953125 52 44.1875 
z
" id="DejaVuSans-109"/>
      </defs>
      <use xlink:href="#DejaVuSans-71"/>
      <use x="77.490234" xlink:href="#DejaVuSans-97"/>
      <use x="138.769531" xlink:href="#DejaVuSans-109"/>
      <use x="236.181641" xlink:href="#DejaVuSans-109"/>
      <use x="333.59375" xlink:href="#DejaVuSans-97"/>
     </g>
    </g>
    <g id="line2d_26">
     <path d="M 304.144763 160.937812 
L 332.144763 160.937812 
" style="fill:none;stroke:#ff7f0e;stroke-linecap:square;stroke-width:1.5;"/>
    </g>
    <g id="line2d_27"/>
    <g id="text_13">
     <!-- Delta -->
     <g transform="translate(343.344763 165.837812)scale(0.14 -0.14)">
      <defs>
       <path d="M 19.671875 64.796875 
L 19.671875 8.109375 
L 31.59375 8.109375 
Q 46.6875 8.109375 53.6875 14.9375 
Q 60.6875 21.78125 60.6875 36.53125 
Q 60.6875 51.171875 53.6875 57.984375 
Q 46.6875 64.796875 31.59375 64.796875 
z
M 9.8125 72.90625 
L 30.078125 72.90625 
Q 51.265625 72.90625 61.171875 64.09375 
Q 71.09375 55.28125 71.09375 36.53125 
Q 71.09375 17.671875 61.125 8.828125 
Q 51.171875 0 30.078125 0 
L 9.8125 0 
z
" id="DejaVuSans-68"/>
      </defs>
      <use xlink:href="#DejaVuSans-68"/>
      <use x="77.001953" xlink:href="#DejaVuSans-101"/>
      <use x="138.525391" xlink:href="#DejaVuSans-108"/>
      <use x="166.308594" xlink:href="#DejaVuSans-116"/>
      <use x="205.517578" xlink:href="#DejaVuSans-97"/>
     </g>
    </g>
   </g>
  </g>
  <g id="axes_3">
   <g id="patch_7">
    <path d="M 10.8 544.2 
L 275.632278 544.2 
L 275.632278 324.4 
L 10.8 324.4 
z
" style="fill:#ffffff;"/>
   </g>
   <g id="matplotlib.axis_5">
    <g id="xtick_10">
     <g id="line2d_28">
      <g>
       <use style="stroke:#000000;stroke-width:0.8;" x="44.218922" xlink:href="#mfb4d58aa72" y="544.2"/>
      </g>
     </g>
     <g id="text_14">
      <!-- 1.5 -->
      <g transform="translate(33.086734 561.837813)scale(0.14 -0.14)">
       <use xlink:href="#DejaVuSans-49"/>
       <use x="63.623047" xlink:href="#DejaVuSans-46"/>
       <use x="95.410156" xlink:href="#DejaVuSans-53"/>
      </g>
     </g>
    </g>
    <g id="xtick_11">
     <g id="line2d_29">
      <g>
       <use style="stroke:#000000;stroke-width:0.8;" x="109.128434" xlink:href="#mfb4d58aa72" y="544.2"/>
      </g>
     </g>
     <g id="text_15">
      <!-- 2.0 -->
      <g transform="translate(97.996247 561.837813)scale(0.14 -0.14)">
       <defs>
        <path d="M 19.1875 8.296875 
L 53.609375 8.296875 
L 53.609375 0 
L 7.328125 0 
L 7.328125 8.296875 
Q 12.9375 14.109375 22.625 23.890625 
Q 32.328125 33.6875 34.8125 36.53125 
Q 39.546875 41.84375 41.421875 45.53125 
Q 43.3125 49.21875 43.3125 52.78125 
Q 43.3125 58.59375 39.234375 62.25 
Q 35.15625 65.921875 28.609375 65.921875 
Q 23.96875 65.921875 18.8125 64.3125 
Q 13.671875 62.703125 7.8125 59.421875 
L 7.8125 69.390625 
Q 13.765625 71.78125 18.9375 73 
Q 24.125 74.21875 28.421875 74.21875 
Q 39.75 74.21875 46.484375 68.546875 
Q 53.21875 62.890625 53.21875 53.421875 
Q 53.21875 48.921875 51.53125 44.890625 
Q 49.859375 40.875 45.40625 35.40625 
Q 44.1875 33.984375 37.640625 27.21875 
Q 31.109375 20.453125 19.1875 8.296875 
z
" id="DejaVuSans-50"/>
       </defs>
       <use xlink:href="#DejaVuSans-50"/>
       <use x="63.623047" xlink:href="#DejaVuSans-46"/>
       <use x="95.410156" xlink:href="#DejaVuSans-48"/>
      </g>
     </g>
    </g>
    <g id="xtick_12">
     <g id="line2d_30">
      <g>
       <use style="stroke:#000000;stroke-width:0.8;" x="174.037947" xlink:href="#mfb4d58aa72" y="544.2"/>
      </g>
     </g>
     <g id="text_16">
      <!-- 2.5 -->
      <g transform="translate(162.905759 561.837813)scale(0.14 -0.14)">
       <use xlink:href="#DejaVuSans-50"/>
       <use x="63.623047" xlink:href="#DejaVuSans-46"/>
       <use x="95.410156" xlink:href="#DejaVuSans-53"/>
      </g>
     </g>
    </g>
    <g id="xtick_13">
     <g id="line2d_31">
      <g>
       <use style="stroke:#000000;stroke-width:0.8;" x="238.947459" xlink:href="#mfb4d58aa72" y="544.2"/>
      </g>
     </g>
     <g id="text_17">
      <!-- 3.0 -->
      <g transform="translate(227.815272 561.837813)scale(0.14 -0.14)">
       <defs>
        <path d="M 40.578125 39.3125 
Q 47.65625 37.796875 51.625 33 
Q 55.609375 28.21875 55.609375 21.1875 
Q 55.609375 10.40625 48.1875 4.484375 
Q 40.765625 -1.421875 27.09375 -1.421875 
Q 22.515625 -1.421875 17.65625 -0.515625 
Q 12.796875 0.390625 7.625 2.203125 
L 7.625 11.71875 
Q 11.71875 9.328125 16.59375 8.109375 
Q 21.484375 6.890625 26.8125 6.890625 
Q 36.078125 6.890625 40.9375 10.546875 
Q 45.796875 14.203125 45.796875 21.1875 
Q 45.796875 27.640625 41.28125 31.265625 
Q 36.765625 34.90625 28.71875 34.90625 
L 20.21875 34.90625 
L 20.21875 43.015625 
L 29.109375 43.015625 
Q 36.375 43.015625 40.234375 45.921875 
Q 44.09375 48.828125 44.09375 54.296875 
Q 44.09375 59.90625 40.109375 62.90625 
Q 36.140625 65.921875 28.71875 65.921875 
Q 24.65625 65.921875 20.015625 65.03125 
Q 15.375 64.15625 9.8125 62.3125 
L 9.8125 71.09375 
Q 15.4375 72.65625 20.34375 73.4375 
Q 25.25 74.21875 29.59375 74.21875 
Q 40.828125 74.21875 47.359375 69.109375 
Q 53.90625 64.015625 53.90625 55.328125 
Q 53.90625 49.265625 50.4375 45.09375 
Q 46.96875 40.921875 40.578125 39.3125 
z
" id="DejaVuSans-51"/>
       </defs>
       <use xlink:href="#DejaVuSans-51"/>
       <use x="63.623047" xlink:href="#DejaVuSans-46"/>
       <use x="95.410156" xlink:href="#DejaVuSans-48"/>
      </g>
     </g>
    </g>
   </g>
   <g id="matplotlib.axis_6"/>
   <g id="line2d_32">
    <path clip-path="url(#p19c32ab0fe)" d="M 22.837831 533.273814 
L 25.193571 533.411674 
L 29.433902 533.775008 
L 34.61653 533.805885 
L 36.029974 533.711553 
L 37.914566 533.329391 
L 40.270306 532.800605 
L 42.154898 532.682813 
L 44.03949 532.552883 
L 45.452934 532.24856 
L 48.75097 531.182056 
L 51.106709 530.276196 
L 52.520153 529.529688 
L 53.933597 528.467219 
L 55.347041 527.002401 
L 56.760485 525.192666 
L 58.173929 522.948286 
L 59.587373 520.155069 
L 61.000817 516.632573 
L 61.943113 513.808687 
L 63.356557 508.680833 
L 64.770001 502.376095 
L 67.596889 488.534549 
L 68.539185 484.939868 
L 69.481481 482.104198 
L 70.894924 478.228475 
L 71.83722 474.749863 
L 72.779516 469.839398 
L 73.721812 463.436987 
L 75.135256 451.870219 
L 77.962144 428.362757 
L 80.317884 411.046141 
L 83.144772 391.817244 
L 85.029364 380.421009 
L 87.856252 364.454646 
L 89.269696 354.809776 
L 91.154287 341.863216 
L 92.096583 337.253224 
L 92.567731 335.726172 
L 93.038879 334.746494 
L 93.510027 334.390909 
L 93.981175 334.444583 
L 94.452323 334.907168 
L 94.923471 335.725206 
L 95.865767 338.018956 
L 98.692655 345.695297 
L 99.634951 347.509355 
L 100.106099 348.202488 
L 101.048395 349.017822 
L 102.461839 349.81225 
L 102.932987 350.277809 
L 103.404135 350.975575 
L 103.875283 351.939386 
L 104.346431 353.268565 
L 105.288727 356.93413 
L 106.231023 361.645207 
L 108.586763 373.874985 
L 109.529059 377.417616 
L 110.000207 378.785475 
L 110.471355 379.794733 
L 110.942503 380.460546 
L 111.41365 380.85844 
L 111.884798 381.009584 
L 112.827094 380.979706 
L 113.298242 381.10515 
L 113.76939 381.423389 
L 114.240538 382.244394 
L 114.711686 383.715032 
L 115.182834 385.848171 
L 115.653982 388.766902 
L 116.596278 396.789073 
L 118.009722 412.46809 
L 119.423166 427.32376 
L 120.365462 434.29884 
L 120.83661 436.75837 
L 121.307758 438.611865 
L 121.778906 439.999823 
L 123.663498 444.151332 
L 124.134646 445.679086 
L 125.076942 450.022883 
L 126.019238 455.943365 
L 129.788422 482.946754 
L 130.730718 487.705973 
L 131.673013 491.208758 
L 132.615309 493.574036 
L 134.499901 497.276927 
L 135.442197 499.932798 
L 136.384493 503.515899 
L 139.211381 515.244802 
L 140.153677 518.03423 
L 141.095973 520.06971 
L 142.038269 521.534864 
L 142.980565 522.598197 
L 143.922861 523.363077 
L 146.278601 524.812077 
L 148.163193 525.741203 
L 150.047785 526.38468 
L 151.461229 526.654857 
L 153.34582 526.694764 
L 154.759264 526.760574 
L 155.70156 527.056665 
L 156.643856 527.634805 
L 158.0573 528.887716 
L 159.470744 530.171612 
L 160.41304 530.778837 
L 161.355336 531.121747 
L 162.76878 531.251298 
L 165.12452 531.059032 
L 167.48026 530.856868 
L 168.893704 530.908922 
L 170.307148 531.201465 
L 172.19174 531.883054 
L 174.076331 532.553376 
L 175.489775 532.863644 
L 182.556995 533.856681 
L 184.912735 533.86792 
L 187.739623 533.867589 
L 191.508807 533.962722 
L 195.749138 533.879101 
L 201.874062 534.185716 
L 205.172098 534.090525 
L 211.297022 533.766281 
L 215.537353 533.860926 
L 221.191129 534.188319 
L 229.671793 534.172056 
L 232.498681 533.993761 
L 236.739012 533.588272 
L 238.623604 533.667833 
L 244.748528 534.181656 
L 253.70034 534.199831 
L 258.882967 534.099936 
L 261.238707 533.804695 
L 263.594447 533.503777 
L 263.594447 533.503777 
" style="fill:none;stroke:#1f77b4;stroke-linecap:square;stroke-width:1.5;"/>
   </g>
   <g id="line2d_33">
    <path clip-path="url(#p19c32ab0fe)" d="M 22.837831 534.209091 
L 22.837831 533.273814 
" style="fill:none;stroke:#1f77b4;stroke-linecap:square;stroke-width:1.5;"/>
   </g>
   <g id="line2d_34">
    <path clip-path="url(#p19c32ab0fe)" d="M 263.594447 534.206791 
L 263.594447 533.503777 
" style="fill:none;stroke:#1f77b4;stroke-linecap:square;stroke-width:1.5;"/>
   </g>
   <g id="line2d_35">
    <g clip-path="url(#p19c32ab0fe)">
     <use style="fill:#1f77b4;stroke:#000000;" x="100.294077" xlink:href="#me4f8a52823" y="534.199831"/>
    </g>
   </g>
   <g id="patch_8">
    <path d="M 10.8 544.2 
L 275.632278 544.2 
" style="fill:none;stroke:#000000;stroke-linecap:square;stroke-linejoin:miter;stroke-width:0.8;"/>
   </g>
   <g id="text_18">
    <!-- Lambda  -->
    <g transform="translate(117.149889 306.78625)scale(0.12 -0.12)">
     <defs>
      <path d="M 9.8125 72.90625 
L 19.671875 72.90625 
L 19.671875 8.296875 
L 55.171875 8.296875 
L 55.171875 0 
L 9.8125 0 
z
" id="DejaVuSans-76"/>
      <path d="M 45.40625 46.390625 
L 45.40625 75.984375 
L 54.390625 75.984375 
L 54.390625 0 
L 45.40625 0 
L 45.40625 8.203125 
Q 42.578125 3.328125 38.25 0.953125 
Q 33.9375 -1.421875 27.875 -1.421875 
Q 17.96875 -1.421875 11.734375 6.484375 
Q 5.515625 14.40625 5.515625 27.296875 
Q 5.515625 40.1875 11.734375 48.09375 
Q 17.96875 56 27.875 56 
Q 33.9375 56 38.25 53.625 
Q 42.578125 51.265625 45.40625 46.390625 
z
M 14.796875 27.296875 
Q 14.796875 17.390625 18.875 11.75 
Q 22.953125 6.109375 30.078125 6.109375 
Q 37.203125 6.109375 41.296875 11.75 
Q 45.40625 17.390625 45.40625 27.296875 
Q 45.40625 37.203125 41.296875 42.84375 
Q 37.203125 48.484375 30.078125 48.484375 
Q 22.953125 48.484375 18.875 42.84375 
Q 14.796875 37.203125 14.796875 27.296875 
z
" id="DejaVuSans-100"/>
     </defs>
     <use xlink:href="#DejaVuSans-76"/>
     <use x="55.712891" xlink:href="#DejaVuSans-97"/>
     <use x="116.992188" xlink:href="#DejaVuSans-109"/>
     <use x="214.404297" xlink:href="#DejaVuSans-98"/>
     <use x="277.880859" xlink:href="#DejaVuSans-100"/>
     <use x="341.357422" xlink:href="#DejaVuSans-97"/>
     <use x="402.636719" xlink:href="#DejaVuSans-32"/>
    </g>
    <!--  loss aversion -->
    <g transform="translate(102.160201 320.223625)scale(0.12 -0.12)">
     <use xlink:href="#DejaVuSans-32"/>
     <use x="31.787109" xlink:href="#DejaVuSans-108"/>
     <use x="59.570312" xlink:href="#DejaVuSans-111"/>
     <use x="120.751953" xlink:href="#DejaVuSans-115"/>
     <use x="172.851562" xlink:href="#DejaVuSans-115"/>
     <use x="224.951172" xlink:href="#DejaVuSans-32"/>
     <use x="256.738281" xlink:href="#DejaVuSans-97"/>
     <use x="318.017578" xlink:href="#DejaVuSans-118"/>
     <use x="377.197266" xlink:href="#DejaVuSans-101"/>
     <use x="438.720703" xlink:href="#DejaVuSans-114"/>
     <use x="479.833984" xlink:href="#DejaVuSans-115"/>
     <use x="531.933594" xlink:href="#DejaVuSans-105"/>
     <use x="559.716797" xlink:href="#DejaVuSans-111"/>
     <use x="620.898438" xlink:href="#DejaVuSans-110"/>
    </g>
   </g>
  </g>
  <g id="axes_4">
   <g id="patch_9">
    <path d="M 291.544763 544.2 
L 556.377041 544.2 
L 556.377041 324.4 
L 291.544763 324.4 
z
" style="fill:#ffffff;"/>
   </g>
   <g id="matplotlib.axis_7">
    <g id="xtick_14">
     <g id="line2d_36">
      <g>
       <use style="stroke:#000000;stroke-width:0.8;" x="299.310586" xlink:href="#mfb4d58aa72" y="544.2"/>
      </g>
     </g>
     <g id="text_19">
      <!-- 0.10 -->
      <g transform="translate(283.724648 561.837813)scale(0.14 -0.14)">
       <use xlink:href="#DejaVuSans-48"/>
       <use x="63.623047" xlink:href="#DejaVuSans-46"/>
       <use x="95.410156" xlink:href="#DejaVuSans-49"/>
       <use x="159.033203" xlink:href="#DejaVuSans-48"/>
      </g>
     </g>
    </g>
    <g id="xtick_15">
     <g id="line2d_37">
      <g>
       <use style="stroke:#000000;stroke-width:0.8;" x="356.973287" xlink:href="#mfb4d58aa72" y="544.2"/>
      </g>
     </g>
     <g id="text_20">
      <!-- 0.15 -->
      <g transform="translate(341.38735 561.837813)scale(0.14 -0.14)">
       <use xlink:href="#DejaVuSans-48"/>
       <use x="63.623047" xlink:href="#DejaVuSans-46"/>
       <use x="95.410156" xlink:href="#DejaVuSans-49"/>
       <use x="159.033203" xlink:href="#DejaVuSans-53"/>
      </g>
     </g>
    </g>
    <g id="xtick_16">
     <g id="line2d_38">
      <g>
       <use style="stroke:#000000;stroke-width:0.8;" x="414.635989" xlink:href="#mfb4d58aa72" y="544.2"/>
      </g>
     </g>
     <g id="text_21">
      <!-- 0.20 -->
      <g transform="translate(399.050052 561.837813)scale(0.14 -0.14)">
       <use xlink:href="#DejaVuSans-48"/>
       <use x="63.623047" xlink:href="#DejaVuSans-46"/>
       <use x="95.410156" xlink:href="#DejaVuSans-50"/>
       <use x="159.033203" xlink:href="#DejaVuSans-48"/>
      </g>
     </g>
    </g>
    <g id="xtick_17">
     <g id="line2d_39">
      <g>
       <use style="stroke:#000000;stroke-width:0.8;" x="472.298691" xlink:href="#mfb4d58aa72" y="544.2"/>
      </g>
     </g>
     <g id="text_22">
      <!-- 0.25 -->
      <g transform="translate(456.712754 561.837813)scale(0.14 -0.14)">
       <use xlink:href="#DejaVuSans-48"/>
       <use x="63.623047" xlink:href="#DejaVuSans-46"/>
       <use x="95.410156" xlink:href="#DejaVuSans-50"/>
       <use x="159.033203" xlink:href="#DejaVuSans-53"/>
      </g>
     </g>
    </g>
    <g id="xtick_18">
     <g id="line2d_40">
      <g>
       <use style="stroke:#000000;stroke-width:0.8;" x="529.961393" xlink:href="#mfb4d58aa72" y="544.2"/>
      </g>
     </g>
     <g id="text_23">
      <!-- 0.30 -->
      <g transform="translate(514.375455 561.837813)scale(0.14 -0.14)">
       <use xlink:href="#DejaVuSans-48"/>
       <use x="63.623047" xlink:href="#DejaVuSans-46"/>
       <use x="95.410156" xlink:href="#DejaVuSans-51"/>
       <use x="159.033203" xlink:href="#DejaVuSans-48"/>
      </g>
     </g>
    </g>
   </g>
   <g id="matplotlib.axis_8"/>
   <g id="line2d_41">
    <path clip-path="url(#p7475b916e7)" d="M 303.582594 522.6612 
L 304.52489 522.582168 
L 305.467186 522.324591 
L 306.88063 521.665956 
L 308.765222 520.449757 
L 313.005553 517.213399 
L 315.832441 514.833841 
L 317.717033 512.832253 
L 319.130477 511.012103 
L 321.015069 508.164195 
L 322.899661 504.82437 
L 325.255401 500.145768 
L 327.611141 495.024897 
L 329.966881 489.467981 
L 332.32262 483.181582 
L 334.207212 477.453429 
L 336.562952 469.50382 
L 341.74558 451.397004 
L 343.159024 447.305284 
L 344.572468 443.876112 
L 345.985912 441.214166 
L 346.928208 439.803763 
L 348.341652 438.162101 
L 350.226244 436.550782 
L 352.110835 434.97786 
L 353.524279 433.428112 
L 354.466575 432.120658 
L 355.880019 429.670919 
L 357.293463 426.499412 
L 359.178055 421.362683 
L 361.533795 413.931287 
L 365.302979 401.820499 
L 368.129867 393.739892 
L 371.427902 385.412805 
L 373.783642 379.27044 
L 375.668234 373.792301 
L 378.023974 366.080595 
L 384.620046 343.245003 
L 386.03349 339.62231 
L 386.975786 337.686917 
L 387.918082 336.22093 
L 388.860378 335.193928 
L 389.802674 334.607616 
L 390.74497 334.390909 
L 391.687265 334.539184 
L 392.629561 335.03541 
L 393.571857 335.711317 
L 394.985301 337.039939 
L 397.812189 340.168881 
L 400.639077 343.099039 
L 402.994817 345.296659 
L 405.821705 347.644824 
L 408.177445 349.18246 
L 413.360072 351.782416 
L 414.773516 352.781682 
L 416.18696 354.202084 
L 417.600404 356.177702 
L 419.013848 358.774357 
L 420.427292 362.001069 
L 421.840736 365.837058 
L 423.725328 371.649652 
L 430.3214 393.216664 
L 432.205992 398.323001 
L 433.619435 401.742684 
L 435.504027 405.63924 
L 436.917471 408.134139 
L 438.330915 410.362267 
L 440.686655 413.570416 
L 444.455839 418.552179 
L 445.869283 420.804799 
L 447.282727 423.462613 
L 448.696171 426.676617 
L 450.109615 430.384462 
L 451.523059 434.610019 
L 453.40765 440.843863 
L 460.003722 463.299336 
L 462.359462 470.087152 
L 464.244054 474.786739 
L 466.128646 478.84647 
L 468.013238 482.342528 
L 469.426682 484.654489 
L 471.782422 488.051375 
L 476.493901 494.187232 
L 483.561121 503.070173 
L 489.214897 509.654408 
L 492.512933 513.18125 
L 495.33982 515.849019 
L 497.69556 517.790636 
L 500.0513 519.474398 
L 503.820484 521.87348 
L 511.358852 526.366069 
L 514.18574 527.854334 
L 516.541479 528.873279 
L 518.897219 529.657622 
L 521.252959 530.218382 
L 525.022143 530.831058 
L 529.733623 531.559395 
L 535.387398 532.4418 
L 538.214286 532.640473 
L 541.98347 532.655818 
L 544.33921 532.636898 
L 544.33921 532.636898 
" style="fill:none;stroke:#1f77b4;stroke-linecap:square;stroke-width:1.5;"/>
   </g>
   <g id="line2d_42">
    <path clip-path="url(#p7475b916e7)" d="M 303.582594 534.209091 
L 303.582594 522.6612 
" style="fill:none;stroke:#1f77b4;stroke-linecap:square;stroke-width:1.5;"/>
   </g>
   <g id="line2d_43">
    <path clip-path="url(#p7475b916e7)" d="M 544.33921 534.109334 
L 544.33921 532.636898 
" style="fill:none;stroke:#1f77b4;stroke-linecap:square;stroke-width:1.5;"/>
   </g>
   <g id="line2d_44">
    <g clip-path="url(#p7475b916e7)">
     <use style="fill:#1f77b4;stroke:#000000;" x="402.316534" xlink:href="#me4f8a52823" y="534.094755"/>
    </g>
   </g>
   <g id="patch_10">
    <path d="M 291.544763 544.2 
L 556.377041 544.2 
" style="fill:none;stroke:#000000;stroke-linecap:square;stroke-linejoin:miter;stroke-width:0.8;"/>
   </g>
   <g id="text_24">
    <!-- Luce  -->
    <g transform="translate(408.022464 306.78625)scale(0.12 -0.12)">
     <defs>
      <path d="M 8.5 21.578125 
L 8.5 54.6875 
L 17.484375 54.6875 
L 17.484375 21.921875 
Q 17.484375 14.15625 20.5 10.265625 
Q 23.53125 6.390625 29.59375 6.390625 
Q 36.859375 6.390625 41.078125 11.03125 
Q 45.3125 15.671875 45.3125 23.6875 
L 45.3125 54.6875 
L 54.296875 54.6875 
L 54.296875 0 
L 45.3125 0 
L 45.3125 8.40625 
Q 42.046875 3.421875 37.71875 1 
Q 33.40625 -1.421875 27.6875 -1.421875 
Q 18.265625 -1.421875 13.375 4.4375 
Q 8.5 10.296875 8.5 21.578125 
z
M 31.109375 56 
z
" id="DejaVuSans-117"/>
      <path d="M 48.78125 52.59375 
L 48.78125 44.1875 
Q 44.96875 46.296875 41.140625 47.34375 
Q 37.3125 48.390625 33.40625 48.390625 
Q 24.65625 48.390625 19.8125 42.84375 
Q 14.984375 37.3125 14.984375 27.296875 
Q 14.984375 17.28125 19.8125 11.734375 
Q 24.65625 6.203125 33.40625 6.203125 
Q 37.3125 6.203125 41.140625 7.25 
Q 44.96875 8.296875 48.78125 10.40625 
L 48.78125 2.09375 
Q 45.015625 0.34375 40.984375 -0.53125 
Q 36.96875 -1.421875 32.421875 -1.421875 
Q 20.0625 -1.421875 12.78125 6.34375 
Q 5.515625 14.109375 5.515625 27.296875 
Q 5.515625 40.671875 12.859375 48.328125 
Q 20.21875 56 33.015625 56 
Q 37.15625 56 41.109375 55.140625 
Q 45.0625 54.296875 48.78125 52.59375 
z
" id="DejaVuSans-99"/>
     </defs>
     <use xlink:href="#DejaVuSans-76"/>
     <use x="53.962891" xlink:href="#DejaVuSans-117"/>
     <use x="117.341797" xlink:href="#DejaVuSans-99"/>
     <use x="172.322266" xlink:href="#DejaVuSans-101"/>
     <use x="233.845703" xlink:href="#DejaVuSans-32"/>
    </g>
    <!--  choice noise -->
    <g transform="translate(384.758402 320.223625)scale(0.12 -0.12)">
     <use xlink:href="#DejaVuSans-32"/>
     <use x="31.787109" xlink:href="#DejaVuSans-99"/>
     <use x="86.767578" xlink:href="#DejaVuSans-104"/>
     <use x="150.146484" xlink:href="#DejaVuSans-111"/>
     <use x="211.328125" xlink:href="#DejaVuSans-105"/>
     <use x="239.111328" xlink:href="#DejaVuSans-99"/>
     <use x="294.091797" xlink:href="#DejaVuSans-101"/>
     <use x="355.615234" xlink:href="#DejaVuSans-32"/>
     <use x="387.402344" xlink:href="#DejaVuSans-110"/>
     <use x="450.78125" xlink:href="#DejaVuSans-111"/>
     <use x="511.962891" xlink:href="#DejaVuSans-105"/>
     <use x="539.746094" xlink:href="#DejaVuSans-115"/>
     <use x="591.845703" xlink:href="#DejaVuSans-101"/>
    </g>
   </g>
  </g>
 </g>
 <defs>
  <clipPath id="p4fbc645c34">
   <rect height="219.8" width="264.832278" x="10.8" y="41.8"/>
  </clipPath>
  <clipPath id="p9349d6997e">
   <rect height="219.8" width="264.832278" x="291.544763" y="41.8"/>
  </clipPath>
  <clipPath id="p19c32ab0fe">
   <rect height="219.8" width="264.832278" x="10.8" y="324.4"/>
  </clipPath>
  <clipPath id="p7475b916e7">
   <rect height="219.8" width="264.832278" x="291.544763" y="324.4"/>
  </clipPath>
 </defs>
</svg>
