<?xml version="1.0" encoding="utf-8" standalone="no"?>
<!DOCTYPE svg PUBLIC "-//W3C//DTD SVG 1.1//EN"
  "http://www.w3.org/Graphics/SVG/1.1/DTD/svg11.dtd">
<!-- Created with matplotlib (https://matplotlib.org/) -->
<svg height="360pt" version="1.1" viewBox="0 0 504 360" width="504pt" xmlns="http://www.w3.org/2000/svg" xmlns:xlink="http://www.w3.org/1999/xlink">
 <defs>
  <style type="text/css">
*{stroke-linecap:butt;stroke-linejoin:round;}
  </style>
 </defs>
 <g id="figure_1">
  <g id="patch_1">
   <path d="M 0 360 
L 504 360 
L 504 0 
L 0 0 
z
" style="fill:#ffffff;"/>
  </g>
  <g id="axes_1">
   <g id="patch_2">
    <path d="M 63 315 
L 453.6 315 
L 453.6 43.2 
L 63 43.2 
z
" style="fill:#ffffff;"/>
   </g>
   <g id="PathCollection_1">
    <defs>
     <path d="M 0 3.535534 
C 0.937635 3.535534 1.836992 3.163008 2.5 2.5 
C 3.163008 1.836992 3.535534 0.937635 3.535534 0 
C 3.535534 -0.937635 3.163008 -1.836992 2.5 -2.5 
C 1.836992 -3.163008 0.937635 -3.535534 0 -3.535534 
C -0.937635 -3.535534 -1.836992 -3.163008 -2.5 -2.5 
C -3.163008 -1.836992 -3.535534 -0.937635 -3.535534 0 
C -3.535534 0.937635 -3.163008 1.836992 -2.5 2.5 
C -1.836992 3.163008 -0.937635 3.535534 0 3.535534 
z
" id="m89a180b39b" style="stroke:#000000;stroke-opacity:0.5;"/>
    </defs>
    <g clip-path="url(#p1bf09808f9)">
     <use style="fill-opacity:0.5;stroke:#000000;stroke-opacity:0.5;" x="248.021053" xlink:href="#m89a180b39b" y="292.35"/>
     <use style="fill-opacity:0.5;stroke:#000000;stroke-opacity:0.5;" x="289.136842" xlink:href="#m89a180b39b" y="65.85"/>
     <use style="fill-opacity:0.5;stroke:#000000;stroke-opacity:0.5;" x="278.857895" xlink:href="#m89a180b39b" y="292.35"/>
     <use style="fill-opacity:0.5;stroke:#000000;stroke-opacity:0.5;" x="268.578947" xlink:href="#m89a180b39b" y="292.35"/>
     <use style="fill-opacity:0.5;stroke:#000000;stroke-opacity:0.5;" x="258.3" xlink:href="#m89a180b39b" y="292.35"/>
     <use style="fill-opacity:0.5;stroke:#000000;stroke-opacity:0.5;" x="309.694737" xlink:href="#m89a180b39b" y="292.35"/>
     <use style="fill-opacity:0.5;stroke:#000000;stroke-opacity:0.5;" x="319.973684" xlink:href="#m89a180b39b" y="292.35"/>
     <use style="fill-opacity:0.5;stroke:#000000;stroke-opacity:0.5;" x="289.136842" xlink:href="#m89a180b39b" y="292.35"/>
     <use style="fill-opacity:0.5;stroke:#000000;stroke-opacity:0.5;" x="155.510526" xlink:href="#m89a180b39b" y="65.85"/>
     <use style="fill-opacity:0.5;stroke:#000000;stroke-opacity:0.5;" x="217.184211" xlink:href="#m89a180b39b" y="65.85"/>
     <use style="fill-opacity:0.5;stroke:#000000;stroke-opacity:0.5;" x="289.136842" xlink:href="#m89a180b39b" y="65.85"/>
     <use style="fill-opacity:0.5;stroke:#000000;stroke-opacity:0.5;" x="371.368421" xlink:href="#m89a180b39b" y="292.35"/>
     <use style="fill-opacity:0.5;stroke:#000000;stroke-opacity:0.5;" x="258.3" xlink:href="#m89a180b39b" y="292.35"/>
     <use style="fill-opacity:0.5;stroke:#000000;stroke-opacity:0.5;" x="114.394737" xlink:href="#m89a180b39b" y="65.85"/>
     <use style="fill-opacity:0.5;stroke:#000000;stroke-opacity:0.5;" x="258.3" xlink:href="#m89a180b39b" y="292.35"/>
     <use style="fill-opacity:0.5;stroke:#000000;stroke-opacity:0.5;" x="340.531579" xlink:href="#m89a180b39b" y="292.35"/>
     <use style="fill-opacity:0.5;stroke:#000000;stroke-opacity:0.5;" x="289.136842" xlink:href="#m89a180b39b" y="292.35"/>
     <use style="fill-opacity:0.5;stroke:#000000;stroke-opacity:0.5;" x="402.205263" xlink:href="#m89a180b39b" y="292.35"/>
     <use style="fill-opacity:0.5;stroke:#000000;stroke-opacity:0.5;" x="350.810526" xlink:href="#m89a180b39b" y="292.35"/>
     <use style="fill-opacity:0.5;stroke:#000000;stroke-opacity:0.5;" x="381.647368" xlink:href="#m89a180b39b" y="292.35"/>
     <use style="fill-opacity:0.5;stroke:#000000;stroke-opacity:0.5;" x="340.531579" xlink:href="#m89a180b39b" y="65.85"/>
     <use style="fill-opacity:0.5;stroke:#000000;stroke-opacity:0.5;" x="350.810526" xlink:href="#m89a180b39b" y="292.35"/>
     <use style="fill-opacity:0.5;stroke:#000000;stroke-opacity:0.5;" x="165.789474" xlink:href="#m89a180b39b" y="65.85"/>
    </g>
   </g>
   <g id="matplotlib.axis_1">
    <g id="xtick_1">
     <g id="line2d_1">
      <defs>
       <path d="M 0 0 
L 0 3.5 
" id="mcd2bc2d006" style="stroke:#000000;stroke-width:0.8;"/>
      </defs>
      <g>
       <use style="stroke:#000000;stroke-width:0.8;" x="83.557895" xlink:href="#mcd2bc2d006" y="315"/>
      </g>
     </g>
     <g id="text_1">
      <!-- 50 -->
      <defs>
       <path d="M 10.796875 72.90625 
L 49.515625 72.90625 
L 49.515625 64.59375 
L 19.828125 64.59375 
L 19.828125 46.734375 
Q 21.96875 47.46875 24.109375 47.828125 
Q 26.265625 48.1875 28.421875 48.1875 
Q 40.625 48.1875 47.75 41.5 
Q 54.890625 34.8125 54.890625 23.390625 
Q 54.890625 11.625 47.5625 5.09375 
Q 40.234375 -1.421875 26.90625 -1.421875 
Q 22.3125 -1.421875 17.546875 -0.640625 
Q 12.796875 0.140625 7.71875 1.703125 
L 7.71875 11.625 
Q 12.109375 9.234375 16.796875 8.0625 
Q 21.484375 6.890625 26.703125 6.890625 
Q 35.15625 6.890625 40.078125 11.328125 
Q 45.015625 15.765625 45.015625 23.390625 
Q 45.015625 31 40.078125 35.4375 
Q 35.15625 39.890625 26.703125 39.890625 
Q 22.75 39.890625 18.8125 39.015625 
Q 14.890625 38.140625 10.796875 36.28125 
z
" id="DejaVuSans-53"/>
       <path d="M 31.78125 66.40625 
Q 24.171875 66.40625 20.328125 58.90625 
Q 16.5 51.421875 16.5 36.375 
Q 16.5 21.390625 20.328125 13.890625 
Q 24.171875 6.390625 31.78125 6.390625 
Q 39.453125 6.390625 43.28125 13.890625 
Q 47.125 21.390625 47.125 36.375 
Q 47.125 51.421875 43.28125 58.90625 
Q 39.453125 66.40625 31.78125 66.40625 
z
M 31.78125 74.21875 
Q 44.046875 74.21875 50.515625 64.515625 
Q 56.984375 54.828125 56.984375 36.375 
Q 56.984375 17.96875 50.515625 8.265625 
Q 44.046875 -1.421875 31.78125 -1.421875 
Q 19.53125 -1.421875 13.0625 8.265625 
Q 6.59375 17.96875 6.59375 36.375 
Q 6.59375 54.828125 13.0625 64.515625 
Q 19.53125 74.21875 31.78125 74.21875 
z
" id="DejaVuSans-48"/>
      </defs>
      <g transform="translate(77.195395 329.598437)scale(0.1 -0.1)">
       <use xlink:href="#DejaVuSans-53"/>
       <use x="63.623047" xlink:href="#DejaVuSans-48"/>
      </g>
     </g>
    </g>
    <g id="xtick_2">
     <g id="line2d_2">
      <g>
       <use style="stroke:#000000;stroke-width:0.8;" x="134.952632" xlink:href="#mcd2bc2d006" y="315"/>
      </g>
     </g>
     <g id="text_2">
      <!-- 55 -->
      <g transform="translate(128.590132 329.598437)scale(0.1 -0.1)">
       <use xlink:href="#DejaVuSans-53"/>
       <use x="63.623047" xlink:href="#DejaVuSans-53"/>
      </g>
     </g>
    </g>
    <g id="xtick_3">
     <g id="line2d_3">
      <g>
       <use style="stroke:#000000;stroke-width:0.8;" x="186.347368" xlink:href="#mcd2bc2d006" y="315"/>
      </g>
     </g>
     <g id="text_3">
      <!-- 60 -->
      <defs>
       <path d="M 33.015625 40.375 
Q 26.375 40.375 22.484375 35.828125 
Q 18.609375 31.296875 18.609375 23.390625 
Q 18.609375 15.53125 22.484375 10.953125 
Q 26.375 6.390625 33.015625 6.390625 
Q 39.65625 6.390625 43.53125 10.953125 
Q 47.40625 15.53125 47.40625 23.390625 
Q 47.40625 31.296875 43.53125 35.828125 
Q 39.65625 40.375 33.015625 40.375 
z
M 52.59375 71.296875 
L 52.59375 62.3125 
Q 48.875 64.0625 45.09375 64.984375 
Q 41.3125 65.921875 37.59375 65.921875 
Q 27.828125 65.921875 22.671875 59.328125 
Q 17.53125 52.734375 16.796875 39.40625 
Q 19.671875 43.65625 24.015625 45.921875 
Q 28.375 48.1875 33.59375 48.1875 
Q 44.578125 48.1875 50.953125 41.515625 
Q 57.328125 34.859375 57.328125 23.390625 
Q 57.328125 12.15625 50.6875 5.359375 
Q 44.046875 -1.421875 33.015625 -1.421875 
Q 20.359375 -1.421875 13.671875 8.265625 
Q 6.984375 17.96875 6.984375 36.375 
Q 6.984375 53.65625 15.1875 63.9375 
Q 23.390625 74.21875 37.203125 74.21875 
Q 40.921875 74.21875 44.703125 73.484375 
Q 48.484375 72.75 52.59375 71.296875 
z
" id="DejaVuSans-54"/>
      </defs>
      <g transform="translate(179.984868 329.598437)scale(0.1 -0.1)">
       <use xlink:href="#DejaVuSans-54"/>
       <use x="63.623047" xlink:href="#DejaVuSans-48"/>
      </g>
     </g>
    </g>
    <g id="xtick_4">
     <g id="line2d_4">
      <g>
       <use style="stroke:#000000;stroke-width:0.8;" x="237.742105" xlink:href="#mcd2bc2d006" y="315"/>
      </g>
     </g>
     <g id="text_4">
      <!-- 65 -->
      <g transform="translate(231.379605 329.598437)scale(0.1 -0.1)">
       <use xlink:href="#DejaVuSans-54"/>
       <use x="63.623047" xlink:href="#DejaVuSans-53"/>
      </g>
     </g>
    </g>
    <g id="xtick_5">
     <g id="line2d_5">
      <g>
       <use style="stroke:#000000;stroke-width:0.8;" x="289.136842" xlink:href="#mcd2bc2d006" y="315"/>
      </g>
     </g>
     <g id="text_5">
      <!-- 70 -->
      <defs>
       <path d="M 8.203125 72.90625 
L 55.078125 72.90625 
L 55.078125 68.703125 
L 28.609375 0 
L 18.3125 0 
L 43.21875 64.59375 
L 8.203125 64.59375 
z
" id="DejaVuSans-55"/>
      </defs>
      <g transform="translate(282.774342 329.598437)scale(0.1 -0.1)">
       <use xlink:href="#DejaVuSans-55"/>
       <use x="63.623047" xlink:href="#DejaVuSans-48"/>
      </g>
     </g>
    </g>
    <g id="xtick_6">
     <g id="line2d_6">
      <g>
       <use style="stroke:#000000;stroke-width:0.8;" x="340.531579" xlink:href="#mcd2bc2d006" y="315"/>
      </g>
     </g>
     <g id="text_6">
      <!-- 75 -->
      <g transform="translate(334.169079 329.598437)scale(0.1 -0.1)">
       <use xlink:href="#DejaVuSans-55"/>
       <use x="63.623047" xlink:href="#DejaVuSans-53"/>
      </g>
     </g>
    </g>
    <g id="xtick_7">
     <g id="line2d_7">
      <g>
       <use style="stroke:#000000;stroke-width:0.8;" x="391.926316" xlink:href="#mcd2bc2d006" y="315"/>
      </g>
     </g>
     <g id="text_7">
      <!-- 80 -->
      <defs>
       <path d="M 31.78125 34.625 
Q 24.75 34.625 20.71875 30.859375 
Q 16.703125 27.09375 16.703125 20.515625 
Q 16.703125 13.921875 20.71875 10.15625 
Q 24.75 6.390625 31.78125 6.390625 
Q 38.8125 6.390625 42.859375 10.171875 
Q 46.921875 13.96875 46.921875 20.515625 
Q 46.921875 27.09375 42.890625 30.859375 
Q 38.875 34.625 31.78125 34.625 
z
M 21.921875 38.8125 
Q 15.578125 40.375 12.03125 44.71875 
Q 8.5 49.078125 8.5 55.328125 
Q 8.5 64.0625 14.71875 69.140625 
Q 20.953125 74.21875 31.78125 74.21875 
Q 42.671875 74.21875 48.875 69.140625 
Q 55.078125 64.0625 55.078125 55.328125 
Q 55.078125 49.078125 51.53125 44.71875 
Q 48 40.375 41.703125 38.8125 
Q 48.828125 37.15625 52.796875 32.3125 
Q 56.78125 27.484375 56.78125 20.515625 
Q 56.78125 9.90625 50.3125 4.234375 
Q 43.84375 -1.421875 31.78125 -1.421875 
Q 19.734375 -1.421875 13.25 4.234375 
Q 6.78125 9.90625 6.78125 20.515625 
Q 6.78125 27.484375 10.78125 32.3125 
Q 14.796875 37.15625 21.921875 38.8125 
z
M 18.3125 54.390625 
Q 18.3125 48.734375 21.84375 45.5625 
Q 25.390625 42.390625 31.78125 42.390625 
Q 38.140625 42.390625 41.71875 45.5625 
Q 45.3125 48.734375 45.3125 54.390625 
Q 45.3125 60.0625 41.71875 63.234375 
Q 38.140625 66.40625 31.78125 66.40625 
Q 25.390625 66.40625 21.84375 63.234375 
Q 18.3125 60.0625 18.3125 54.390625 
z
" id="DejaVuSans-56"/>
      </defs>
      <g transform="translate(385.563816 329.598437)scale(0.1 -0.1)">
       <use xlink:href="#DejaVuSans-56"/>
       <use x="63.623047" xlink:href="#DejaVuSans-48"/>
      </g>
     </g>
    </g>
    <g id="xtick_8">
     <g id="line2d_8">
      <g>
       <use style="stroke:#000000;stroke-width:0.8;" x="443.321053" xlink:href="#mcd2bc2d006" y="315"/>
      </g>
     </g>
     <g id="text_8">
      <!-- 85 -->
      <g transform="translate(436.958553 329.598437)scale(0.1 -0.1)">
       <use xlink:href="#DejaVuSans-56"/>
       <use x="63.623047" xlink:href="#DejaVuSans-53"/>
      </g>
     </g>
    </g>
    <g id="text_9">
     <!-- Temperatura -->
     <defs>
      <path d="M -0.296875 72.90625 
L 61.375 72.90625 
L 61.375 64.59375 
L 35.5 64.59375 
L 35.5 0 
L 25.59375 0 
L 25.59375 64.59375 
L -0.296875 64.59375 
z
" id="DejaVuSans-84"/>
      <path d="M 56.203125 29.59375 
L 56.203125 25.203125 
L 14.890625 25.203125 
Q 15.484375 15.921875 20.484375 11.0625 
Q 25.484375 6.203125 34.421875 6.203125 
Q 39.59375 6.203125 44.453125 7.46875 
Q 49.3125 8.734375 54.109375 11.28125 
L 54.109375 2.78125 
Q 49.265625 0.734375 44.1875 -0.34375 
Q 39.109375 -1.421875 33.890625 -1.421875 
Q 20.796875 -1.421875 13.15625 6.1875 
Q 5.515625 13.8125 5.515625 26.8125 
Q 5.515625 40.234375 12.765625 48.109375 
Q 20.015625 56 32.328125 56 
Q 43.359375 56 49.78125 48.890625 
Q 56.203125 41.796875 56.203125 29.59375 
z
M 47.21875 32.234375 
Q 47.125 39.59375 43.09375 43.984375 
Q 39.0625 48.390625 32.421875 48.390625 
Q 24.90625 48.390625 20.390625 44.140625 
Q 15.875 39.890625 15.1875 32.171875 
z
" id="DejaVuSans-101"/>
      <path d="M 52 44.1875 
Q 55.375 50.25 60.0625 53.125 
Q 64.75 56 71.09375 56 
Q 79.640625 56 84.28125 50.015625 
Q 88.921875 44.046875 88.921875 33.015625 
L 88.921875 0 
L 79.890625 0 
L 79.890625 32.71875 
Q 79.890625 40.578125 77.09375 44.375 
Q 74.3125 48.1875 68.609375 48.1875 
Q 61.625 48.1875 57.5625 43.546875 
Q 53.515625 38.921875 53.515625 30.90625 
L 53.515625 0 
L 44.484375 0 
L 44.484375 32.71875 
Q 44.484375 40.625 41.703125 44.40625 
Q 38.921875 48.1875 33.109375 48.1875 
Q 26.21875 48.1875 22.15625 43.53125 
Q 18.109375 38.875 18.109375 30.90625 
L 18.109375 0 
L 9.078125 0 
L 9.078125 54.6875 
L 18.109375 54.6875 
L 18.109375 46.1875 
Q 21.1875 51.21875 25.484375 53.609375 
Q 29.78125 56 35.6875 56 
Q 41.65625 56 45.828125 52.96875 
Q 50 49.953125 52 44.1875 
z
" id="DejaVuSans-109"/>
      <path d="M 18.109375 8.203125 
L 18.109375 -20.796875 
L 9.078125 -20.796875 
L 9.078125 54.6875 
L 18.109375 54.6875 
L 18.109375 46.390625 
Q 20.953125 51.265625 25.265625 53.625 
Q 29.59375 56 35.59375 56 
Q 45.5625 56 51.78125 48.09375 
Q 58.015625 40.1875 58.015625 27.296875 
Q 58.015625 14.40625 51.78125 6.484375 
Q 45.5625 -1.421875 35.59375 -1.421875 
Q 29.59375 -1.421875 25.265625 0.953125 
Q 20.953125 3.328125 18.109375 8.203125 
z
M 48.6875 27.296875 
Q 48.6875 37.203125 44.609375 42.84375 
Q 40.53125 48.484375 33.40625 48.484375 
Q 26.265625 48.484375 22.1875 42.84375 
Q 18.109375 37.203125 18.109375 27.296875 
Q 18.109375 17.390625 22.1875 11.75 
Q 26.265625 6.109375 33.40625 6.109375 
Q 40.53125 6.109375 44.609375 11.75 
Q 48.6875 17.390625 48.6875 27.296875 
z
" id="DejaVuSans-112"/>
      <path d="M 41.109375 46.296875 
Q 39.59375 47.171875 37.8125 47.578125 
Q 36.03125 48 33.890625 48 
Q 26.265625 48 22.1875 43.046875 
Q 18.109375 38.09375 18.109375 28.8125 
L 18.109375 0 
L 9.078125 0 
L 9.078125 54.6875 
L 18.109375 54.6875 
L 18.109375 46.1875 
Q 20.953125 51.171875 25.484375 53.578125 
Q 30.03125 56 36.53125 56 
Q 37.453125 56 38.578125 55.875 
Q 39.703125 55.765625 41.0625 55.515625 
z
" id="DejaVuSans-114"/>
      <path d="M 34.28125 27.484375 
Q 23.390625 27.484375 19.1875 25 
Q 14.984375 22.515625 14.984375 16.5 
Q 14.984375 11.71875 18.140625 8.90625 
Q 21.296875 6.109375 26.703125 6.109375 
Q 34.1875 6.109375 38.703125 11.40625 
Q 43.21875 16.703125 43.21875 25.484375 
L 43.21875 27.484375 
z
M 52.203125 31.203125 
L 52.203125 0 
L 43.21875 0 
L 43.21875 8.296875 
Q 40.140625 3.328125 35.546875 0.953125 
Q 30.953125 -1.421875 24.3125 -1.421875 
Q 15.921875 -1.421875 10.953125 3.296875 
Q 6 8.015625 6 15.921875 
Q 6 25.140625 12.171875 29.828125 
Q 18.359375 34.515625 30.609375 34.515625 
L 43.21875 34.515625 
L 43.21875 35.40625 
Q 43.21875 41.609375 39.140625 45 
Q 35.0625 48.390625 27.6875 48.390625 
Q 23 48.390625 18.546875 47.265625 
Q 14.109375 46.140625 10.015625 43.890625 
L 10.015625 52.203125 
Q 14.9375 54.109375 19.578125 55.046875 
Q 24.21875 56 28.609375 56 
Q 40.484375 56 46.34375 49.84375 
Q 52.203125 43.703125 52.203125 31.203125 
z
" id="DejaVuSans-97"/>
      <path d="M 18.3125 70.21875 
L 18.3125 54.6875 
L 36.8125 54.6875 
L 36.8125 47.703125 
L 18.3125 47.703125 
L 18.3125 18.015625 
Q 18.3125 11.328125 20.140625 9.421875 
Q 21.96875 7.515625 27.59375 7.515625 
L 36.8125 7.515625 
L 36.8125 0 
L 27.59375 0 
Q 17.1875 0 13.234375 3.875 
Q 9.28125 7.765625 9.28125 18.015625 
L 9.28125 47.703125 
L 2.6875 47.703125 
L 2.6875 54.6875 
L 9.28125 54.6875 
L 9.28125 70.21875 
z
" id="DejaVuSans-116"/>
      <path d="M 8.5 21.578125 
L 8.5 54.6875 
L 17.484375 54.6875 
L 17.484375 21.921875 
Q 17.484375 14.15625 20.5 10.265625 
Q 23.53125 6.390625 29.59375 6.390625 
Q 36.859375 6.390625 41.078125 11.03125 
Q 45.3125 15.671875 45.3125 23.6875 
L 45.3125 54.6875 
L 54.296875 54.6875 
L 54.296875 0 
L 45.3125 0 
L 45.3125 8.40625 
Q 42.046875 3.421875 37.71875 1 
Q 33.40625 -1.421875 27.6875 -1.421875 
Q 18.265625 -1.421875 13.375 4.4375 
Q 8.5 10.296875 8.5 21.578125 
z
M 31.109375 56 
z
" id="DejaVuSans-117"/>
     </defs>
     <g transform="translate(210.645703 347.075781)scale(0.15 -0.15)">
      <use xlink:href="#DejaVuSans-84"/>
      <use x="44.083984" xlink:href="#DejaVuSans-101"/>
      <use x="105.607422" xlink:href="#DejaVuSans-109"/>
      <use x="203.019531" xlink:href="#DejaVuSans-112"/>
      <use x="266.496094" xlink:href="#DejaVuSans-101"/>
      <use x="328.019531" xlink:href="#DejaVuSans-114"/>
      <use x="369.132812" xlink:href="#DejaVuSans-97"/>
      <use x="430.412109" xlink:href="#DejaVuSans-116"/>
      <use x="469.621094" xlink:href="#DejaVuSans-117"/>
      <use x="533" xlink:href="#DejaVuSans-114"/>
      <use x="574.113281" xlink:href="#DejaVuSans-97"/>
     </g>
    </g>
   </g>
   <g id="matplotlib.axis_2">
    <g id="ytick_1">
     <g id="line2d_9">
      <defs>
       <path d="M 0 0 
L -3.5 0 
" id="m786840aa2c" style="stroke:#000000;stroke-width:0.8;"/>
      </defs>
      <g>
       <use style="stroke:#000000;stroke-width:0.8;" x="63" xlink:href="#m786840aa2c" y="292.35"/>
      </g>
     </g>
     <g id="text_10">
      <!-- 0.0 -->
      <defs>
       <path d="M 10.6875 12.40625 
L 21 12.40625 
L 21 0 
L 10.6875 0 
z
" id="DejaVuSans-46"/>
      </defs>
      <g transform="translate(40.096875 296.149219)scale(0.1 -0.1)">
       <use xlink:href="#DejaVuSans-48"/>
       <use x="63.623047" xlink:href="#DejaVuSans-46"/>
       <use x="95.410156" xlink:href="#DejaVuSans-48"/>
      </g>
     </g>
    </g>
    <g id="ytick_2">
     <g id="line2d_10">
      <g>
       <use style="stroke:#000000;stroke-width:0.8;" x="63" xlink:href="#m786840aa2c" y="247.05"/>
      </g>
     </g>
     <g id="text_11">
      <!-- 0.2 -->
      <defs>
       <path d="M 19.1875 8.296875 
L 53.609375 8.296875 
L 53.609375 0 
L 7.328125 0 
L 7.328125 8.296875 
Q 12.9375 14.109375 22.625 23.890625 
Q 32.328125 33.6875 34.8125 36.53125 
Q 39.546875 41.84375 41.421875 45.53125 
Q 43.3125 49.21875 43.3125 52.78125 
Q 43.3125 58.59375 39.234375 62.25 
Q 35.15625 65.921875 28.609375 65.921875 
Q 23.96875 65.921875 18.8125 64.3125 
Q 13.671875 62.703125 7.8125 59.421875 
L 7.8125 69.390625 
Q 13.765625 71.78125 18.9375 73 
Q 24.125 74.21875 28.421875 74.21875 
Q 39.75 74.21875 46.484375 68.546875 
Q 53.21875 62.890625 53.21875 53.421875 
Q 53.21875 48.921875 51.53125 44.890625 
Q 49.859375 40.875 45.40625 35.40625 
Q 44.1875 33.984375 37.640625 27.21875 
Q 31.109375 20.453125 19.1875 8.296875 
z
" id="DejaVuSans-50"/>
      </defs>
      <g transform="translate(40.096875 250.849219)scale(0.1 -0.1)">
       <use xlink:href="#DejaVuSans-48"/>
       <use x="63.623047" xlink:href="#DejaVuSans-46"/>
       <use x="95.410156" xlink:href="#DejaVuSans-50"/>
      </g>
     </g>
    </g>
    <g id="ytick_3">
     <g id="line2d_11">
      <g>
       <use style="stroke:#000000;stroke-width:0.8;" x="63" xlink:href="#m786840aa2c" y="201.75"/>
      </g>
     </g>
     <g id="text_12">
      <!-- 0.4 -->
      <defs>
       <path d="M 37.796875 64.3125 
L 12.890625 25.390625 
L 37.796875 25.390625 
z
M 35.203125 72.90625 
L 47.609375 72.90625 
L 47.609375 25.390625 
L 58.015625 25.390625 
L 58.015625 17.1875 
L 47.609375 17.1875 
L 47.609375 0 
L 37.796875 0 
L 37.796875 17.1875 
L 4.890625 17.1875 
L 4.890625 26.703125 
z
" id="DejaVuSans-52"/>
      </defs>
      <g transform="translate(40.096875 205.549219)scale(0.1 -0.1)">
       <use xlink:href="#DejaVuSans-48"/>
       <use x="63.623047" xlink:href="#DejaVuSans-46"/>
       <use x="95.410156" xlink:href="#DejaVuSans-52"/>
      </g>
     </g>
    </g>
    <g id="ytick_4">
     <g id="line2d_12">
      <g>
       <use style="stroke:#000000;stroke-width:0.8;" x="63" xlink:href="#m786840aa2c" y="156.45"/>
      </g>
     </g>
     <g id="text_13">
      <!-- 0.6 -->
      <g transform="translate(40.096875 160.249219)scale(0.1 -0.1)">
       <use xlink:href="#DejaVuSans-48"/>
       <use x="63.623047" xlink:href="#DejaVuSans-46"/>
       <use x="95.410156" xlink:href="#DejaVuSans-54"/>
      </g>
     </g>
    </g>
    <g id="ytick_5">
     <g id="line2d_13">
      <g>
       <use style="stroke:#000000;stroke-width:0.8;" x="63" xlink:href="#m786840aa2c" y="111.15"/>
      </g>
     </g>
     <g id="text_14">
      <!-- 0.8 -->
      <g transform="translate(40.096875 114.949219)scale(0.1 -0.1)">
       <use xlink:href="#DejaVuSans-48"/>
       <use x="63.623047" xlink:href="#DejaVuSans-46"/>
       <use x="95.410156" xlink:href="#DejaVuSans-56"/>
      </g>
     </g>
    </g>
    <g id="ytick_6">
     <g id="line2d_14">
      <g>
       <use style="stroke:#000000;stroke-width:0.8;" x="63" xlink:href="#m786840aa2c" y="65.85"/>
      </g>
     </g>
     <g id="text_15">
      <!-- 1.0 -->
      <defs>
       <path d="M 12.40625 8.296875 
L 28.515625 8.296875 
L 28.515625 63.921875 
L 10.984375 60.40625 
L 10.984375 69.390625 
L 28.421875 72.90625 
L 38.28125 72.90625 
L 38.28125 8.296875 
L 54.390625 8.296875 
L 54.390625 0 
L 12.40625 0 
z
" id="DejaVuSans-49"/>
      </defs>
      <g transform="translate(40.096875 69.649219)scale(0.1 -0.1)">
       <use xlink:href="#DejaVuSans-49"/>
       <use x="63.623047" xlink:href="#DejaVuSans-46"/>
       <use x="95.410156" xlink:href="#DejaVuSans-48"/>
      </g>
     </g>
    </g>
    <g id="text_16">
     <!-- Probabilidad -->
     <defs>
      <path d="M 19.671875 64.796875 
L 19.671875 37.40625 
L 32.078125 37.40625 
Q 38.96875 37.40625 42.71875 40.96875 
Q 46.484375 44.53125 46.484375 51.125 
Q 46.484375 57.671875 42.71875 61.234375 
Q 38.96875 64.796875 32.078125 64.796875 
z
M 9.8125 72.90625 
L 32.078125 72.90625 
Q 44.34375 72.90625 50.609375 67.359375 
Q 56.890625 61.8125 56.890625 51.125 
Q 56.890625 40.328125 50.609375 34.8125 
Q 44.34375 29.296875 32.078125 29.296875 
L 19.671875 29.296875 
L 19.671875 0 
L 9.8125 0 
z
" id="DejaVuSans-80"/>
      <path d="M 30.609375 48.390625 
Q 23.390625 48.390625 19.1875 42.75 
Q 14.984375 37.109375 14.984375 27.296875 
Q 14.984375 17.484375 19.15625 11.84375 
Q 23.34375 6.203125 30.609375 6.203125 
Q 37.796875 6.203125 41.984375 11.859375 
Q 46.1875 17.53125 46.1875 27.296875 
Q 46.1875 37.015625 41.984375 42.703125 
Q 37.796875 48.390625 30.609375 48.390625 
z
M 30.609375 56 
Q 42.328125 56 49.015625 48.375 
Q 55.71875 40.765625 55.71875 27.296875 
Q 55.71875 13.875 49.015625 6.21875 
Q 42.328125 -1.421875 30.609375 -1.421875 
Q 18.84375 -1.421875 12.171875 6.21875 
Q 5.515625 13.875 5.515625 27.296875 
Q 5.515625 40.765625 12.171875 48.375 
Q 18.84375 56 30.609375 56 
z
" id="DejaVuSans-111"/>
      <path d="M 48.6875 27.296875 
Q 48.6875 37.203125 44.609375 42.84375 
Q 40.53125 48.484375 33.40625 48.484375 
Q 26.265625 48.484375 22.1875 42.84375 
Q 18.109375 37.203125 18.109375 27.296875 
Q 18.109375 17.390625 22.1875 11.75 
Q 26.265625 6.109375 33.40625 6.109375 
Q 40.53125 6.109375 44.609375 11.75 
Q 48.6875 17.390625 48.6875 27.296875 
z
M 18.109375 46.390625 
Q 20.953125 51.265625 25.265625 53.625 
Q 29.59375 56 35.59375 56 
Q 45.5625 56 51.78125 48.09375 
Q 58.015625 40.1875 58.015625 27.296875 
Q 58.015625 14.40625 51.78125 6.484375 
Q 45.5625 -1.421875 35.59375 -1.421875 
Q 29.59375 -1.421875 25.265625 0.953125 
Q 20.953125 3.328125 18.109375 8.203125 
L 18.109375 0 
L 9.078125 0 
L 9.078125 75.984375 
L 18.109375 75.984375 
z
" id="DejaVuSans-98"/>
      <path d="M 9.421875 54.6875 
L 18.40625 54.6875 
L 18.40625 0 
L 9.421875 0 
z
M 9.421875 75.984375 
L 18.40625 75.984375 
L 18.40625 64.59375 
L 9.421875 64.59375 
z
" id="DejaVuSans-105"/>
      <path d="M 9.421875 75.984375 
L 18.40625 75.984375 
L 18.40625 0 
L 9.421875 0 
z
" id="DejaVuSans-108"/>
      <path d="M 45.40625 46.390625 
L 45.40625 75.984375 
L 54.390625 75.984375 
L 54.390625 0 
L 45.40625 0 
L 45.40625 8.203125 
Q 42.578125 3.328125 38.25 0.953125 
Q 33.9375 -1.421875 27.875 -1.421875 
Q 17.96875 -1.421875 11.734375 6.484375 
Q 5.515625 14.40625 5.515625 27.296875 
Q 5.515625 40.1875 11.734375 48.09375 
Q 17.96875 56 27.875 56 
Q 33.9375 56 38.25 53.625 
Q 42.578125 51.265625 45.40625 46.390625 
z
M 14.796875 27.296875 
Q 14.796875 17.390625 18.875 11.75 
Q 22.953125 6.109375 30.078125 6.109375 
Q 37.203125 6.109375 41.296875 11.75 
Q 45.40625 17.390625 45.40625 27.296875 
Q 45.40625 37.203125 41.296875 42.84375 
Q 37.203125 48.484375 30.078125 48.484375 
Q 22.953125 48.484375 18.875 42.84375 
Q 14.796875 37.203125 14.796875 27.296875 
z
" id="DejaVuSans-100"/>
     </defs>
     <g transform="translate(32.977344 225.482812)rotate(-90)scale(0.15 -0.15)">
      <use xlink:href="#DejaVuSans-80"/>
      <use x="58.552734" xlink:href="#DejaVuSans-114"/>
      <use x="97.416016" xlink:href="#DejaVuSans-111"/>
      <use x="158.597656" xlink:href="#DejaVuSans-98"/>
      <use x="222.074219" xlink:href="#DejaVuSans-97"/>
      <use x="283.353516" xlink:href="#DejaVuSans-98"/>
      <use x="346.830078" xlink:href="#DejaVuSans-105"/>
      <use x="374.613281" xlink:href="#DejaVuSans-108"/>
      <use x="402.396484" xlink:href="#DejaVuSans-105"/>
      <use x="430.179688" xlink:href="#DejaVuSans-100"/>
      <use x="493.65625" xlink:href="#DejaVuSans-97"/>
      <use x="554.935547" xlink:href="#DejaVuSans-100"/>
     </g>
    </g>
   </g>
   <g id="line2d_15">
    <path clip-path="url(#p1bf09808f9)" d="M 63 73.481264 
L 70.971429 74.242669 
L 78.942857 75.107759 
L 86.914286 76.093886 
L 94.885714 77.221618 
L 102.857143 78.515323 
L 110.828571 80.003836 
L 118.8 81.721196 
L 126.771429 83.707444 
L 134.742857 86.009417 
L 142.714286 88.681489 
L 150.685714 91.786111 
L 158.657143 95.39395 
L 166.628571 99.583349 
L 174.6 104.438669 
L 182.571429 110.047013 
L 190.542857 116.492716 
L 198.514286 123.849022 
L 206.485714 132.166594 
L 214.457143 141.459006 
L 222.428571 151.686371 
L 230.4 162.739558 
L 238.371429 174.429087 
L 246.342857 186.484388 
L 254.314286 198.570109 
L 262.285714 210.323506 
L 270.257143 221.407324 
L 278.228571 231.560259 
L 286.2 240.625361 
L 294.171429 248.549593 
L 302.142857 255.362647 
L 310.114286 261.148412 
L 318.085714 266.01898 
L 326.057143 270.095377 
L 334.028571 273.4953 
L 342 276.326415 
L 349.971429 278.683449 
L 357.942857 280.64762 
L 365.914286 282.287354 
L 373.885714 283.659618 
L 381.857143 284.811455 
L 389.828571 285.781521 
L 397.8 286.601471 
L 405.771429 287.297197 
L 413.742857 287.889862 
L 421.714286 288.396779 
L 429.685714 288.832125 
L 437.657143 289.207532 
L 445.628571 289.532563 
L 453.6 289.815103 
" style="fill:none;stroke:#1f77b4;stroke-linecap:square;stroke-width:3;"/>
   </g>
   <g id="line2d_16">
    <path clip-path="url(#p1bf09808f9)" d="M 63 66.206804 
L 70.971429 66.328007 
L 78.942857 66.490264 
L 86.914286 66.70739 
L 94.885714 66.997773 
L 102.857143 67.385835 
L 110.828571 67.903904 
L 118.8 68.594597 
L 126.771429 69.513767 
L 134.742857 70.734049 
L 142.714286 72.348914 
L 150.685714 74.476935 
L 158.657143 77.265603 
L 166.628571 80.89347 
L 174.6 85.56857 
L 182.571429 91.520188 
L 190.542857 98.980358 
L 198.514286 108.151907 
L 206.485714 119.162433 
L 214.457143 132.009477 
L 222.428571 146.5105 
L 230.4 162.278431 
L 238.371429 178.74271 
L 246.342857 195.222106 
L 254.314286 211.032908 
L 262.285714 225.597944 
L 270.257143 238.521427 
L 278.228571 249.612245 
L 286.2 258.86111 
L 294.171429 266.391176 
L 302.142857 272.403067 
L 310.114286 277.128325 
L 318.085714 280.79682 
L 326.057143 283.617731 
L 334.028571 285.77095 
L 342 287.40528 
L 349.971429 288.640467 
L 357.942857 289.570976 
L 365.914286 290.270252 
L 373.885714 290.794795 
L 381.857143 291.187726 
L 389.828571 291.481764 
L 397.8 291.701628 
L 405.771429 291.865936 
L 413.742857 291.988672 
L 421.714286 292.080325 
L 429.685714 292.14875 
L 437.657143 292.199826 
L 445.628571 292.237945 
L 453.6 292.266392 
" style="fill:none;stroke:#ff7f0e;stroke-dasharray:5.55,2.4;stroke-dashoffset:0;stroke-width:1.5;"/>
   </g>
   <g id="line2d_17">
    <path clip-path="url(#p1bf09808f9)" d="M 63 72.087112 
L 70.971429 73.211396 
L 78.942857 74.530353 
L 86.914286 76.074604 
L 94.885714 77.87841 
L 102.857143 79.97965 
L 110.828571 82.419596 
L 118.8 85.242405 
L 126.771429 88.494238 
L 134.742857 92.221923 
L 142.714286 96.471082 
L 150.685714 101.283665 
L 158.657143 106.694901 
L 166.628571 112.729754 
L 174.6 119.399076 
L 182.571429 126.695801 
L 190.542857 134.591609 
L 198.514286 143.034628 
L 206.485714 151.948687 
L 214.457143 161.234582 
L 222.428571 170.773546 
L 230.4 180.432794 
L 238.371429 190.072688 
L 246.342857 199.554698 
L 254.314286 208.749246 
L 262.285714 217.542482 
L 270.257143 225.841296 
L 278.228571 233.57618 
L 286.2 240.701899 
L 294.171429 247.196276 
L 302.142857 253.057541 
L 310.114286 258.300826 
L 318.085714 262.954298 
L 326.057143 267.055374 
L 334.028571 270.647297 
L 342 273.776239 
L 349.971429 276.48901 
L 357.942857 278.83133 
L 365.914286 280.846632 
L 373.885714 282.57529 
L 381.857143 284.054199 
L 389.828571 285.316611 
L 397.8 286.392162 
L 405.771429 287.307017 
L 413.742857 288.08411 
L 421.714286 288.743407 
L 429.685714 289.302207 
L 437.657143 289.775427 
L 445.628571 290.175887 
L 453.6 290.514568 
" style="fill:none;stroke:#2ca02c;stroke-dasharray:5.55,2.4;stroke-dashoffset:0;stroke-width:1.5;"/>
   </g>
   <g id="patch_3">
    <path d="M 63 315 
L 63 43.2 
" style="fill:none;stroke:#000000;stroke-linecap:square;stroke-linejoin:miter;stroke-width:0.8;"/>
   </g>
   <g id="patch_4">
    <path d="M 453.6 315 
L 453.6 43.2 
" style="fill:none;stroke:#000000;stroke-linecap:square;stroke-linejoin:miter;stroke-width:0.8;"/>
   </g>
   <g id="patch_5">
    <path d="M 63 315 
L 453.6 315 
" style="fill:none;stroke:#000000;stroke-linecap:square;stroke-linejoin:miter;stroke-width:0.8;"/>
   </g>
   <g id="patch_6">
    <path d="M 63 43.2 
L 453.6 43.2 
" style="fill:none;stroke:#000000;stroke-linecap:square;stroke-linejoin:miter;stroke-width:0.8;"/>
   </g>
   <g id="text_17">
    <!-- Posterior de prob. de defecto -->
    <defs>
     <path d="M 44.28125 53.078125 
L 44.28125 44.578125 
Q 40.484375 46.53125 36.375 47.5 
Q 32.28125 48.484375 27.875 48.484375 
Q 21.1875 48.484375 17.84375 46.4375 
Q 14.5 44.390625 14.5 40.28125 
Q 14.5 37.15625 16.890625 35.375 
Q 19.28125 33.59375 26.515625 31.984375 
L 29.59375 31.296875 
Q 39.15625 29.25 43.1875 25.515625 
Q 47.21875 21.78125 47.21875 15.09375 
Q 47.21875 7.46875 41.1875 3.015625 
Q 35.15625 -1.421875 24.609375 -1.421875 
Q 20.21875 -1.421875 15.453125 -0.5625 
Q 10.6875 0.296875 5.421875 2 
L 5.421875 11.28125 
Q 10.40625 8.6875 15.234375 7.390625 
Q 20.0625 6.109375 24.8125 6.109375 
Q 31.15625 6.109375 34.5625 8.28125 
Q 37.984375 10.453125 37.984375 14.40625 
Q 37.984375 18.0625 35.515625 20.015625 
Q 33.0625 21.96875 24.703125 23.78125 
L 21.578125 24.515625 
Q 13.234375 26.265625 9.515625 29.90625 
Q 5.8125 33.546875 5.8125 39.890625 
Q 5.8125 47.609375 11.28125 51.796875 
Q 16.75 56 26.8125 56 
Q 31.78125 56 36.171875 55.265625 
Q 40.578125 54.546875 44.28125 53.078125 
z
" id="DejaVuSans-115"/>
     <path id="DejaVuSans-32"/>
     <path d="M 37.109375 75.984375 
L 37.109375 68.5 
L 28.515625 68.5 
Q 23.6875 68.5 21.796875 66.546875 
Q 19.921875 64.59375 19.921875 59.515625 
L 19.921875 54.6875 
L 34.71875 54.6875 
L 34.71875 47.703125 
L 19.921875 47.703125 
L 19.921875 0 
L 10.890625 0 
L 10.890625 47.703125 
L 2.296875 47.703125 
L 2.296875 54.6875 
L 10.890625 54.6875 
L 10.890625 58.5 
Q 10.890625 67.625 15.140625 71.796875 
Q 19.390625 75.984375 28.609375 75.984375 
z
" id="DejaVuSans-102"/>
     <path d="M 48.78125 52.59375 
L 48.78125 44.1875 
Q 44.96875 46.296875 41.140625 47.34375 
Q 37.3125 48.390625 33.40625 48.390625 
Q 24.65625 48.390625 19.8125 42.84375 
Q 14.984375 37.3125 14.984375 27.296875 
Q 14.984375 17.28125 19.8125 11.734375 
Q 24.65625 6.203125 33.40625 6.203125 
Q 37.3125 6.203125 41.140625 7.25 
Q 44.96875 8.296875 48.78125 10.40625 
L 48.78125 2.09375 
Q 45.015625 0.34375 40.984375 -0.53125 
Q 36.96875 -1.421875 32.421875 -1.421875 
Q 20.0625 -1.421875 12.78125 6.34375 
Q 5.515625 14.109375 5.515625 27.296875 
Q 5.515625 40.671875 12.859375 48.328125 
Q 20.21875 56 33.015625 56 
Q 37.15625 56 41.109375 55.140625 
Q 45.0625 54.296875 48.78125 52.59375 
z
" id="DejaVuSans-99"/>
    </defs>
    <g transform="translate(127.354219 37.2)scale(0.18 -0.18)">
     <use xlink:href="#DejaVuSans-80"/>
     <use x="56.677734" xlink:href="#DejaVuSans-111"/>
     <use x="117.859375" xlink:href="#DejaVuSans-115"/>
     <use x="169.958984" xlink:href="#DejaVuSans-116"/>
     <use x="209.167969" xlink:href="#DejaVuSans-101"/>
     <use x="270.691406" xlink:href="#DejaVuSans-114"/>
     <use x="311.804688" xlink:href="#DejaVuSans-105"/>
     <use x="339.587891" xlink:href="#DejaVuSans-111"/>
     <use x="400.769531" xlink:href="#DejaVuSans-114"/>
     <use x="441.882812" xlink:href="#DejaVuSans-32"/>
     <use x="473.669922" xlink:href="#DejaVuSans-100"/>
     <use x="537.146484" xlink:href="#DejaVuSans-101"/>
     <use x="598.669922" xlink:href="#DejaVuSans-32"/>
     <use x="630.457031" xlink:href="#DejaVuSans-112"/>
     <use x="693.933594" xlink:href="#DejaVuSans-114"/>
     <use x="732.796875" xlink:href="#DejaVuSans-111"/>
     <use x="793.978516" xlink:href="#DejaVuSans-98"/>
     <use x="857.455078" xlink:href="#DejaVuSans-46"/>
     <use x="889.242188" xlink:href="#DejaVuSans-32"/>
     <use x="921.029297" xlink:href="#DejaVuSans-100"/>
     <use x="984.505859" xlink:href="#DejaVuSans-101"/>
     <use x="1046.029297" xlink:href="#DejaVuSans-32"/>
     <use x="1077.816406" xlink:href="#DejaVuSans-100"/>
     <use x="1141.292969" xlink:href="#DejaVuSans-101"/>
     <use x="1202.816406" xlink:href="#DejaVuSans-102"/>
     <use x="1238.021484" xlink:href="#DejaVuSans-101"/>
     <use x="1299.544922" xlink:href="#DejaVuSans-99"/>
     <use x="1354.525391" xlink:href="#DejaVuSans-116"/>
     <use x="1393.734375" xlink:href="#DejaVuSans-111"/>
    </g>
   </g>
   <g id="legend_1">
    <g id="patch_7">
     <path d="M 70 310 
L 208.740625 310 
Q 210.740625 310 210.740625 308 
L 210.740625 250.2875 
Q 210.740625 248.2875 208.740625 248.2875 
L 70 248.2875 
Q 68 248.2875 68 250.2875 
L 68 308 
Q 68 310 70 310 
z
" style="fill:#ffffff;opacity:0.8;stroke:#cccccc;stroke-linejoin:miter;"/>
    </g>
    <g id="line2d_18">
     <path d="M 72 256.385938 
L 92 256.385938 
" style="fill:none;stroke:#1f77b4;stroke-linecap:square;stroke-width:3;"/>
    </g>
    <g id="line2d_19"/>
    <g id="text_18">
     <!-- Promedio posterior -->
     <g transform="translate(100 259.885938)scale(0.1 -0.1)">
      <use xlink:href="#DejaVuSans-80"/>
      <use x="58.552734" xlink:href="#DejaVuSans-114"/>
      <use x="97.416016" xlink:href="#DejaVuSans-111"/>
      <use x="158.597656" xlink:href="#DejaVuSans-109"/>
      <use x="256.009766" xlink:href="#DejaVuSans-101"/>
      <use x="317.533203" xlink:href="#DejaVuSans-100"/>
      <use x="381.009766" xlink:href="#DejaVuSans-105"/>
      <use x="408.792969" xlink:href="#DejaVuSans-111"/>
      <use x="469.974609" xlink:href="#DejaVuSans-32"/>
      <use x="501.761719" xlink:href="#DejaVuSans-112"/>
      <use x="565.238281" xlink:href="#DejaVuSans-111"/>
      <use x="626.419922" xlink:href="#DejaVuSans-115"/>
      <use x="678.519531" xlink:href="#DejaVuSans-116"/>
      <use x="717.728516" xlink:href="#DejaVuSans-101"/>
      <use x="779.251953" xlink:href="#DejaVuSans-114"/>
      <use x="820.365234" xlink:href="#DejaVuSans-105"/>
      <use x="848.148438" xlink:href="#DejaVuSans-111"/>
      <use x="909.330078" xlink:href="#DejaVuSans-114"/>
     </g>
    </g>
    <g id="line2d_20">
     <path d="M 72 271.064062 
L 92 271.064062 
" style="fill:none;stroke:#ff7f0e;stroke-dasharray:5.55,2.4;stroke-dashoffset:0;stroke-width:1.5;"/>
    </g>
    <g id="line2d_21"/>
    <g id="text_19">
     <!-- Ejemplo del posterior -->
     <defs>
      <path d="M 9.8125 72.90625 
L 55.90625 72.90625 
L 55.90625 64.59375 
L 19.671875 64.59375 
L 19.671875 43.015625 
L 54.390625 43.015625 
L 54.390625 34.71875 
L 19.671875 34.71875 
L 19.671875 8.296875 
L 56.78125 8.296875 
L 56.78125 0 
L 9.8125 0 
z
" id="DejaVuSans-69"/>
      <path d="M 9.421875 54.6875 
L 18.40625 54.6875 
L 18.40625 -0.984375 
Q 18.40625 -11.421875 14.421875 -16.109375 
Q 10.453125 -20.796875 1.609375 -20.796875 
L -1.8125 -20.796875 
L -1.8125 -13.1875 
L 0.59375 -13.1875 
Q 5.71875 -13.1875 7.5625 -10.8125 
Q 9.421875 -8.453125 9.421875 -0.984375 
z
M 9.421875 75.984375 
L 18.40625 75.984375 
L 18.40625 64.59375 
L 9.421875 64.59375 
z
" id="DejaVuSans-106"/>
     </defs>
     <g transform="translate(100 274.564062)scale(0.1 -0.1)">
      <use xlink:href="#DejaVuSans-69"/>
      <use x="63.183594" xlink:href="#DejaVuSans-106"/>
      <use x="90.966797" xlink:href="#DejaVuSans-101"/>
      <use x="152.490234" xlink:href="#DejaVuSans-109"/>
      <use x="249.902344" xlink:href="#DejaVuSans-112"/>
      <use x="313.378906" xlink:href="#DejaVuSans-108"/>
      <use x="341.162109" xlink:href="#DejaVuSans-111"/>
      <use x="402.34375" xlink:href="#DejaVuSans-32"/>
      <use x="434.130859" xlink:href="#DejaVuSans-100"/>
      <use x="497.607422" xlink:href="#DejaVuSans-101"/>
      <use x="559.130859" xlink:href="#DejaVuSans-108"/>
      <use x="586.914062" xlink:href="#DejaVuSans-32"/>
      <use x="618.701172" xlink:href="#DejaVuSans-112"/>
      <use x="682.177734" xlink:href="#DejaVuSans-111"/>
      <use x="743.359375" xlink:href="#DejaVuSans-115"/>
      <use x="795.458984" xlink:href="#DejaVuSans-116"/>
      <use x="834.667969" xlink:href="#DejaVuSans-101"/>
      <use x="896.191406" xlink:href="#DejaVuSans-114"/>
      <use x="937.304688" xlink:href="#DejaVuSans-105"/>
      <use x="965.087891" xlink:href="#DejaVuSans-111"/>
      <use x="1026.269531" xlink:href="#DejaVuSans-114"/>
     </g>
    </g>
    <g id="line2d_22">
     <path d="M 72 285.742188 
L 92 285.742188 
" style="fill:none;stroke:#2ca02c;stroke-dasharray:5.55,2.4;stroke-dashoffset:0;stroke-width:1.5;"/>
    </g>
    <g id="line2d_23"/>
    <g id="text_20">
     <!-- Ejemplo del posterior -->
     <g transform="translate(100 289.242188)scale(0.1 -0.1)">
      <use xlink:href="#DejaVuSans-69"/>
      <use x="63.183594" xlink:href="#DejaVuSans-106"/>
      <use x="90.966797" xlink:href="#DejaVuSans-101"/>
      <use x="152.490234" xlink:href="#DejaVuSans-109"/>
      <use x="249.902344" xlink:href="#DejaVuSans-112"/>
      <use x="313.378906" xlink:href="#DejaVuSans-108"/>
      <use x="341.162109" xlink:href="#DejaVuSans-111"/>
      <use x="402.34375" xlink:href="#DejaVuSans-32"/>
      <use x="434.130859" xlink:href="#DejaVuSans-100"/>
      <use x="497.607422" xlink:href="#DejaVuSans-101"/>
      <use x="559.130859" xlink:href="#DejaVuSans-108"/>
      <use x="586.914062" xlink:href="#DejaVuSans-32"/>
      <use x="618.701172" xlink:href="#DejaVuSans-112"/>
      <use x="682.177734" xlink:href="#DejaVuSans-111"/>
      <use x="743.359375" xlink:href="#DejaVuSans-115"/>
      <use x="795.458984" xlink:href="#DejaVuSans-116"/>
      <use x="834.667969" xlink:href="#DejaVuSans-101"/>
      <use x="896.191406" xlink:href="#DejaVuSans-114"/>
      <use x="937.304688" xlink:href="#DejaVuSans-105"/>
      <use x="965.087891" xlink:href="#DejaVuSans-111"/>
      <use x="1026.269531" xlink:href="#DejaVuSans-114"/>
     </g>
    </g>
    <g id="PathCollection_2">
     <g>
      <use style="fill-opacity:0.5;stroke:#000000;stroke-opacity:0.5;" x="82" xlink:href="#m89a180b39b" y="301.295313"/>
     </g>
    </g>
    <g id="text_21">
     <!-- Data -->
     <defs>
      <path d="M 19.671875 64.796875 
L 19.671875 8.109375 
L 31.59375 8.109375 
Q 46.6875 8.109375 53.6875 14.9375 
Q 60.6875 21.78125 60.6875 36.53125 
Q 60.6875 51.171875 53.6875 57.984375 
Q 46.6875 64.796875 31.59375 64.796875 
z
M 9.8125 72.90625 
L 30.078125 72.90625 
Q 51.265625 72.90625 61.171875 64.09375 
Q 71.09375 55.28125 71.09375 36.53125 
Q 71.09375 17.671875 61.125 8.828125 
Q 51.171875 0 30.078125 0 
L 9.8125 0 
z
" id="DejaVuSans-68"/>
     </defs>
     <g transform="translate(100 303.920313)scale(0.1 -0.1)">
      <use xlink:href="#DejaVuSans-68"/>
      <use x="77.001953" xlink:href="#DejaVuSans-97"/>
      <use x="138.28125" xlink:href="#DejaVuSans-116"/>
      <use x="177.490234" xlink:href="#DejaVuSans-97"/>
     </g>
    </g>
   </g>
  </g>
 </g>
 <defs>
  <clipPath id="p1bf09808f9">
   <rect height="271.8" width="390.6" x="63" y="43.2"/>
  </clipPath>
 </defs>
</svg>
