<?xml version="1.0" encoding="utf-8" standalone="no"?>
<!DOCTYPE svg PUBLIC "-//W3C//DTD SVG 1.1//EN"
  "http://www.w3.org/Graphics/SVG/1.1/DTD/svg11.dtd">
<!-- Created with matplotlib (https://matplotlib.org/) -->
<svg height="288pt" version="1.1" viewBox="0 0 432 288" width="432pt" xmlns="http://www.w3.org/2000/svg" xmlns:xlink="http://www.w3.org/1999/xlink">
 <defs>
  <style type="text/css">
*{stroke-linecap:butt;stroke-linejoin:round;}
  </style>
 </defs>
 <g id="figure_1">
  <g id="patch_1">
   <path d="M 0 288 
L 432 288 
L 432 0 
L 0 0 
z
" style="fill:#ffffff;"/>
  </g>
  <g id="axes_1">
   <g id="patch_2">
    <path d="M 3.00024 264.450385 
L 428.99976 264.450385 
L 428.99976 3.00024 
L 3.00024 3.00024 
z
" style="fill:#ffffff;"/>
   </g>
   <g id="PolyCollection_1">
    <defs>
     <path d="M 282.415437 -35.854951 
L 282.415437 -77.978844 
L 283.054737 -78.068144 
L 283.694037 -78.324277 
L 284.333337 -78.756781 
L 284.972637 -79.365497 
L 285.611937 -80.193632 
L 286.251237 -81.184168 
L 286.890537 -82.388968 
L 287.529837 -83.788302 
L 288.169138 -85.332251 
L 288.808438 -87.056046 
L 289.447738 -88.923546 
L 290.087038 -90.902319 
L 290.726338 -92.9931 
L 291.365638 -95.154826 
L 292.004938 -97.39304 
L 292.644238 -99.684846 
L 293.283538 -102.004213 
L 293.922838 -104.333477 
L 294.562138 -106.691235 
L 295.201438 -109.066763 
L 295.840738 -111.462657 
L 296.480038 -113.830657 
L 297.119338 -116.239392 
L 297.758638 -118.634551 
L 298.397938 -121.040668 
L 299.037238 -123.43927 
L 299.676538 -125.837804 
L 300.315838 -128.235615 
L 300.955138 -130.632107 
L 301.594438 -133.039388 
L 302.233738 -135.461075 
L 302.873038 -137.901108 
L 303.512339 -140.39533 
L 304.151639 -142.919491 
L 304.790939 -145.517121 
L 305.430239 -148.135918 
L 306.069539 -150.825078 
L 306.708839 -153.556833 
L 307.348139 -156.405957 
L 307.987439 -159.254554 
L 308.626739 -162.155811 
L 309.266039 -165.168749 
L 309.905339 -168.173281 
L 310.544639 -171.202621 
L 311.183939 -174.181525 
L 311.823239 -177.127207 
L 312.462539 -179.968089 
L 313.101839 -182.675268 
L 313.741139 -185.213318 
L 314.380439 -187.596843 
L 315.019739 -189.790993 
L 315.659039 -191.80106 
L 316.298339 -193.71521 
L 316.937639 -195.574752 
L 317.576939 -197.42936 
L 318.216239 -199.312773 
L 318.85554 -201.295904 
L 319.49484 -203.437057 
L 320.13414 -205.746347 
L 320.77344 -208.275934 
L 321.41274 -210.952991 
L 322.05204 -213.781636 
L 322.69134 -216.678384 
L 323.33064 -219.565658 
L 323.96994 -222.350699 
L 324.60924 -224.914382 
L 325.24854 -227.145324 
L 325.88784 -228.960856 
L 326.52714 -230.415293 
L 327.16644 -231.379742 
L 327.80574 -231.9747 
L 328.44504 -232.290959 
L 329.08434 -232.461316 
L 329.72364 -232.639931 
L 330.36294 -232.857713 
L 331.00224 -233.359863 
L 331.64154 -234.05145 
L 332.28084 -234.99808 
L 332.92014 -236.093556 
L 333.55944 -237.305762 
L 334.198741 -238.412549 
L 334.838041 -239.39679 
L 335.477341 -240.127469 
L 336.116641 -240.583099 
L 336.755941 -240.699593 
L 337.395241 -240.520774 
L 338.034541 -240.130407 
L 338.673841 -239.663606 
L 339.313141 -239.119709 
L 339.952441 -238.654917 
L 340.591741 -238.29365 
L 341.231041 -238.094359 
L 341.870341 -238.029257 
L 342.509641 -238.121929 
L 343.148941 -238.292634 
L 343.788241 -238.51532 
L 344.427541 -238.690811 
L 345.066841 -238.732012 
L 345.706141 -238.580433 
L 346.345441 -238.240839 
L 346.984741 -237.683625 
L 347.624041 -236.921458 
L 348.263341 -236.091448 
L 348.902641 -235.18077 
L 349.541942 -234.292567 
L 350.181242 -233.516671 
L 350.820542 -232.847047 
L 351.459842 -232.384619 
L 352.099142 -232.01055 
L 352.738442 -231.712507 
L 353.377742 -231.35587 
L 354.017042 -230.82598 
L 354.656342 -230.057203 
L 355.295642 -228.978449 
L 355.934942 -227.480849 
L 356.574242 -225.62897 
L 357.213542 -223.42973 
L 357.852842 -221.029547 
L 358.492142 -218.494489 
L 359.131442 -215.934504 
L 359.770742 -213.416658 
L 360.410042 -211.048474 
L 361.049342 -208.820869 
L 361.688642 -206.785977 
L 362.327942 -204.923865 
L 362.967242 -203.168771 
L 363.606542 -201.482846 
L 364.245842 -199.78295 
L 364.885143 -198.03654 
L 365.524443 -196.220727 
L 366.163743 -194.266059 
L 366.803043 -192.17144 
L 367.442343 -189.869716 
L 368.081643 -187.393633 
L 368.720943 -184.708322 
L 369.360243 -181.79743 
L 369.999543 -178.705335 
L 370.638843 -175.430254 
L 371.278143 -172.017835 
L 371.917443 -168.516563 
L 372.556743 -164.935537 
L 373.196043 -161.371234 
L 373.835343 -157.89039 
L 374.474643 -154.541452 
L 375.113943 -151.337211 
L 375.753243 -148.323872 
L 376.392543 -145.575706 
L 377.031843 -143.06738 
L 377.671143 -140.776844 
L 378.310443 -138.747593 
L 378.949743 -136.893691 
L 379.589043 -135.215672 
L 380.228344 -133.687778 
L 380.867644 -132.284648 
L 381.506944 -130.974137 
L 382.146244 -129.688076 
L 382.785544 -128.350424 
L 383.424844 -126.94293 
L 384.064144 -125.419576 
L 384.703444 -123.736284 
L 385.342744 -121.886067 
L 385.982044 -119.843891 
L 386.621344 -117.643722 
L 387.260644 -115.343895 
L 387.899944 -112.951129 
L 388.539244 -110.597942 
L 389.178544 -108.292781 
L 389.817844 -106.14209 
L 390.457144 -104.198173 
L 391.096444 -102.456816 
L 391.735744 -100.903695 
L 392.375044 -99.524085 
L 393.014344 -98.236649 
L 393.653644 -97.01622 
L 394.292944 -95.76695 
L 394.932244 -94.494105 
L 395.571545 -93.118813 
L 396.210845 -91.682804 
L 396.850145 -90.160073 
L 397.489445 -88.600324 
L 398.128745 -87.021314 
L 398.768045 -85.46025 
L 399.407345 -83.956787 
L 400.046645 -82.536343 
L 400.685945 -81.171705 
L 401.325245 -79.895599 
L 401.964545 -78.699157 
L 402.603845 -77.552066 
L 403.243145 -76.471584 
L 403.882445 -75.460875 
L 404.521745 -74.522397 
L 405.161045 -73.663039 
L 405.800345 -72.904935 
L 406.439645 -72.253899 
L 407.078945 -71.728893 
L 407.718245 -71.311892 
L 408.357545 -71.008934 
L 408.996845 -70.82791 
L 409.636145 -70.7244 
L 409.636145 -35.854951 
L 409.636145 -35.854951 
L 408.996845 -35.854951 
L 408.357545 -35.854951 
L 407.718245 -35.854951 
L 407.078945 -35.854951 
L 406.439645 -35.854951 
L 405.800345 -35.854951 
L 405.161045 -35.854951 
L 404.521745 -35.854951 
L 403.882445 -35.854951 
L 403.243145 -35.854951 
L 402.603845 -35.854951 
L 401.964545 -35.854951 
L 401.325245 -35.854951 
L 400.685945 -35.854951 
L 400.046645 -35.854951 
L 399.407345 -35.854951 
L 398.768045 -35.854951 
L 398.128745 -35.854951 
L 397.489445 -35.854951 
L 396.850145 -35.854951 
L 396.210845 -35.854951 
L 395.571545 -35.854951 
L 394.932244 -35.854951 
L 394.292944 -35.854951 
L 393.653644 -35.854951 
L 393.014344 -35.854951 
L 392.375044 -35.854951 
L 391.735744 -35.854951 
L 391.096444 -35.854951 
L 390.457144 -35.854951 
L 389.817844 -35.854951 
L 389.178544 -35.854951 
L 388.539244 -35.854951 
L 387.899944 -35.854951 
L 387.260644 -35.854951 
L 386.621344 -35.854951 
L 385.982044 -35.854951 
L 385.342744 -35.854951 
L 384.703444 -35.854951 
L 384.064144 -35.854951 
L 383.424844 -35.854951 
L 382.785544 -35.854951 
L 382.146244 -35.854951 
L 381.506944 -35.854951 
L 380.867644 -35.854951 
L 380.228344 -35.854951 
L 379.589043 -35.854951 
L 378.949743 -35.854951 
L 378.310443 -35.854951 
L 377.671143 -35.854951 
L 377.031843 -35.854951 
L 376.392543 -35.854951 
L 375.753243 -35.854951 
L 375.113943 -35.854951 
L 374.474643 -35.854951 
L 373.835343 -35.854951 
L 373.196043 -35.854951 
L 372.556743 -35.854951 
L 371.917443 -35.854951 
L 371.278143 -35.854951 
L 370.638843 -35.854951 
L 369.999543 -35.854951 
L 369.360243 -35.854951 
L 368.720943 -35.854951 
L 368.081643 -35.854951 
L 367.442343 -35.854951 
L 366.803043 -35.854951 
L 366.163743 -35.854951 
L 365.524443 -35.854951 
L 364.885143 -35.854951 
L 364.245842 -35.854951 
L 363.606542 -35.854951 
L 362.967242 -35.854951 
L 362.327942 -35.854951 
L 361.688642 -35.854951 
L 361.049342 -35.854951 
L 360.410042 -35.854951 
L 359.770742 -35.854951 
L 359.131442 -35.854951 
L 358.492142 -35.854951 
L 357.852842 -35.854951 
L 357.213542 -35.854951 
L 356.574242 -35.854951 
L 355.934942 -35.854951 
L 355.295642 -35.854951 
L 354.656342 -35.854951 
L 354.017042 -35.854951 
L 353.377742 -35.854951 
L 352.738442 -35.854951 
L 352.099142 -35.854951 
L 351.459842 -35.854951 
L 350.820542 -35.854951 
L 350.181242 -35.854951 
L 349.541942 -35.854951 
L 348.902641 -35.854951 
L 348.263341 -35.854951 
L 347.624041 -35.854951 
L 346.984741 -35.854951 
L 346.345441 -35.854951 
L 345.706141 -35.854951 
L 345.066841 -35.854951 
L 344.427541 -35.854951 
L 343.788241 -35.854951 
L 343.148941 -35.854951 
L 342.509641 -35.854951 
L 341.870341 -35.854951 
L 341.231041 -35.854951 
L 340.591741 -35.854951 
L 339.952441 -35.854951 
L 339.313141 -35.854951 
L 338.673841 -35.854951 
L 338.034541 -35.854951 
L 337.395241 -35.854951 
L 336.755941 -35.854951 
L 336.116641 -35.854951 
L 335.477341 -35.854951 
L 334.838041 -35.854951 
L 334.198741 -35.854951 
L 333.55944 -35.854951 
L 332.92014 -35.854951 
L 332.28084 -35.854951 
L 331.64154 -35.854951 
L 331.00224 -35.854951 
L 330.36294 -35.854951 
L 329.72364 -35.854951 
L 329.08434 -35.854951 
L 328.44504 -35.854951 
L 327.80574 -35.854951 
L 327.16644 -35.854951 
L 326.52714 -35.854951 
L 325.88784 -35.854951 
L 325.24854 -35.854951 
L 324.60924 -35.854951 
L 323.96994 -35.854951 
L 323.33064 -35.854951 
L 322.69134 -35.854951 
L 322.05204 -35.854951 
L 321.41274 -35.854951 
L 320.77344 -35.854951 
L 320.13414 -35.854951 
L 319.49484 -35.854951 
L 318.85554 -35.854951 
L 318.216239 -35.854951 
L 317.576939 -35.854951 
L 316.937639 -35.854951 
L 316.298339 -35.854951 
L 315.659039 -35.854951 
L 315.019739 -35.854951 
L 314.380439 -35.854951 
L 313.741139 -35.854951 
L 313.101839 -35.854951 
L 312.462539 -35.854951 
L 311.823239 -35.854951 
L 311.183939 -35.854951 
L 310.544639 -35.854951 
L 309.905339 -35.854951 
L 309.266039 -35.854951 
L 308.626739 -35.854951 
L 307.987439 -35.854951 
L 307.348139 -35.854951 
L 306.708839 -35.854951 
L 306.069539 -35.854951 
L 305.430239 -35.854951 
L 304.790939 -35.854951 
L 304.151639 -35.854951 
L 303.512339 -35.854951 
L 302.873038 -35.854951 
L 302.233738 -35.854951 
L 301.594438 -35.854951 
L 300.955138 -35.854951 
L 300.315838 -35.854951 
L 299.676538 -35.854951 
L 299.037238 -35.854951 
L 298.397938 -35.854951 
L 297.758638 -35.854951 
L 297.119338 -35.854951 
L 296.480038 -35.854951 
L 295.840738 -35.854951 
L 295.201438 -35.854951 
L 294.562138 -35.854951 
L 293.922838 -35.854951 
L 293.283538 -35.854951 
L 292.644238 -35.854951 
L 292.004938 -35.854951 
L 291.365638 -35.854951 
L 290.726338 -35.854951 
L 290.087038 -35.854951 
L 289.447738 -35.854951 
L 288.808438 -35.854951 
L 288.169138 -35.854951 
L 287.529837 -35.854951 
L 286.890537 -35.854951 
L 286.251237 -35.854951 
L 285.611937 -35.854951 
L 284.972637 -35.854951 
L 284.333337 -35.854951 
L 283.694037 -35.854951 
L 283.054737 -35.854951 
L 282.415437 -35.854951 
z
" id="mbf82380499" style="stroke:#008000;stroke-opacity:0.2;"/>
    </defs>
    <g clip-path="url(#p7636eae8a4)">
     <use style="fill:#008000;fill-opacity:0.2;stroke:#008000;stroke-opacity:0.2;" x="0" xlink:href="#mbf82380499" y="288"/>
    </g>
   </g>
   <g id="PolyCollection_2">
    <defs>
     <path d="M 185.738227 -35.854951 
L 185.738227 -66.318342 
L 186.523971 -66.369166 
L 187.309715 -66.545188 
L 188.09546 -66.873806 
L 188.881204 -67.325377 
L 189.666948 -67.900116 
L 190.452692 -68.615195 
L 191.238436 -69.467392 
L 192.02418 -70.453602 
L 192.809924 -71.574376 
L 193.595668 -72.824691 
L 194.381413 -74.215727 
L 195.167157 -75.743271 
L 195.952901 -77.405193 
L 196.738645 -79.202946 
L 197.524389 -81.138397 
L 198.310133 -83.199994 
L 199.095877 -85.37209 
L 199.881622 -87.626972 
L 200.667366 -89.9525 
L 201.45311 -92.286644 
L 202.238854 -94.581235 
L 203.024598 -96.82516 
L 203.810342 -98.972678 
L 204.596086 -101.002983 
L 205.38183 -102.915963 
L 206.167575 -104.733951 
L 206.953319 -106.472662 
L 207.739063 -108.185882 
L 208.524807 -109.860904 
L 209.310551 -111.581295 
L 210.096295 -113.310192 
L 210.882039 -115.07703 
L 211.667783 -116.864179 
L 212.453528 -118.694646 
L 213.239272 -120.511583 
L 214.025016 -122.296935 
L 214.81076 -124.078975 
L 215.596504 -125.816187 
L 216.382248 -127.537555 
L 217.167992 -129.255533 
L 217.953736 -130.987589 
L 218.739481 -132.788088 
L 219.525225 -134.659564 
L 220.310969 -136.625631 
L 221.096713 -138.703094 
L 221.882457 -140.906587 
L 222.668201 -143.254319 
L 223.453945 -145.741773 
L 224.239689 -148.341003 
L 225.025434 -151.067562 
L 225.811178 -153.896468 
L 226.596922 -156.771464 
L 227.382666 -159.700265 
L 228.16841 -162.655895 
L 228.954154 -165.555406 
L 229.739898 -168.375321 
L 230.525643 -171.119805 
L 231.311387 -173.738275 
L 232.097131 -176.198525 
L 232.882875 -178.530531 
L 233.668619 -180.710704 
L 234.454363 -182.756197 
L 235.240107 -184.689557 
L 236.025851 -186.518997 
L 236.811596 -188.25538 
L 237.59734 -189.908074 
L 238.383084 -191.421712 
L 239.168828 -192.854819 
L 239.954572 -194.183744 
L 240.740316 -195.363906 
L 241.52606 -196.387972 
L 242.311804 -197.234071 
L 243.097549 -197.899712 
L 243.883293 -198.376246 
L 244.669037 -198.652719 
L 245.454781 -198.82542 
L 246.240525 -198.870755 
L 247.026269 -198.885061 
L 247.812013 -198.883749 
L 248.597757 -198.95948 
L 249.383502 -199.17341 
L 250.169246 -199.574398 
L 250.95499 -200.154004 
L 251.740734 -200.92457 
L 252.526478 -201.923184 
L 253.312222 -203.068134 
L 254.097966 -204.268766 
L 254.88371 -205.517812 
L 255.669455 -206.684437 
L 256.455199 -207.64802 
L 257.240943 -208.357689 
L 258.026687 -208.729222 
L 258.812431 -208.703102 
L 259.598175 -208.223016 
L 260.383919 -207.330252 
L 261.169664 -206.005966 
L 261.955408 -204.373974 
L 262.741152 -202.511656 
L 263.526896 -200.494352 
L 264.31264 -198.436909 
L 265.098384 -196.432106 
L 265.884128 -194.558959 
L 266.669872 -192.863845 
L 267.455617 -191.367187 
L 268.241361 -190.036992 
L 269.027105 -188.849915 
L 269.812849 -187.802042 
L 270.598593 -186.778593 
L 271.384337 -185.735335 
L 272.170081 -184.676198 
L 272.955825 -183.568222 
L 273.74157 -182.402113 
L 274.527314 -181.177469 
L 275.313058 -179.90387 
L 276.098802 -178.646534 
L 276.884546 -177.421359 
L 277.67029 -176.227012 
L 278.456034 -175.105314 
L 279.241778 -174.077507 
L 280.027523 -173.148676 
L 280.813267 -172.300156 
L 281.599011 -171.534997 
L 282.384755 -170.829843 
L 283.170499 -170.171786 
L 283.956243 -169.517764 
L 284.741987 -168.821048 
L 285.527731 -168.134273 
L 286.313476 -167.377175 
L 287.09922 -166.563426 
L 287.884964 -165.655647 
L 288.670708 -164.631985 
L 289.456452 -163.552841 
L 290.242196 -162.379722 
L 291.02794 -161.062117 
L 291.813685 -159.613413 
L 292.599429 -158.054243 
L 293.385173 -156.344399 
L 294.170917 -154.523428 
L 294.956661 -152.617426 
L 295.742405 -150.609463 
L 296.528149 -148.586131 
L 297.313893 -146.54952 
L 298.099638 -144.530033 
L 298.885382 -142.521945 
L 299.671126 -140.576057 
L 300.45687 -138.655408 
L 301.242614 -136.763933 
L 302.028358 -134.879733 
L 302.814102 -133.005071 
L 303.599846 -131.111047 
L 304.385591 -129.169875 
L 305.171335 -127.219195 
L 305.957079 -125.287523 
L 306.742823 -123.355996 
L 307.528567 -121.482707 
L 308.314311 -119.666906 
L 309.100055 -117.902053 
L 309.885799 -116.216779 
L 310.671544 -114.603985 
L 311.457288 -113.024744 
L 312.243032 -111.480396 
L 313.028776 -109.952593 
L 313.81452 -108.436521 
L 314.600264 -106.912437 
L 315.386008 -105.366829 
L 316.171753 -103.808324 
L 316.957497 -102.260565 
L 317.743241 -100.746488 
L 318.528985 -99.268635 
L 319.314729 -97.840891 
L 320.100473 -96.46553 
L 320.886217 -95.127854 
L 321.671961 -93.860046 
L 322.457706 -92.630316 
L 323.24345 -91.413952 
L 324.029194 -90.182143 
L 324.814938 -88.935436 
L 325.600682 -87.649699 
L 326.386426 -86.306202 
L 327.17217 -84.926511 
L 327.957914 -83.481616 
L 328.743659 -81.991786 
L 329.529403 -80.504277 
L 330.315147 -79.019072 
L 331.100891 -77.535161 
L 331.886635 -76.086804 
L 332.672379 -74.70913 
L 333.458123 -73.390029 
L 334.243867 -72.170302 
L 335.029612 -71.06464 
L 335.815356 -70.073863 
L 336.6011 -69.211662 
L 337.386844 -68.485926 
L 338.172588 -67.886852 
L 338.958332 -67.410079 
L 339.744076 -67.058478 
L 340.52982 -66.803288 
L 341.315565 -66.641724 
L 342.101309 -66.575882 
L 342.101309 -35.854951 
L 342.101309 -35.854951 
L 341.315565 -35.854951 
L 340.52982 -35.854951 
L 339.744076 -35.854951 
L 338.958332 -35.854951 
L 338.172588 -35.854951 
L 337.386844 -35.854951 
L 336.6011 -35.854951 
L 335.815356 -35.854951 
L 335.029612 -35.854951 
L 334.243867 -35.854951 
L 333.458123 -35.854951 
L 332.672379 -35.854951 
L 331.886635 -35.854951 
L 331.100891 -35.854951 
L 330.315147 -35.854951 
L 329.529403 -35.854951 
L 328.743659 -35.854951 
L 327.957914 -35.854951 
L 327.17217 -35.854951 
L 326.386426 -35.854951 
L 325.600682 -35.854951 
L 324.814938 -35.854951 
L 324.029194 -35.854951 
L 323.24345 -35.854951 
L 322.457706 -35.854951 
L 321.671961 -35.854951 
L 320.886217 -35.854951 
L 320.100473 -35.854951 
L 319.314729 -35.854951 
L 318.528985 -35.854951 
L 317.743241 -35.854951 
L 316.957497 -35.854951 
L 316.171753 -35.854951 
L 315.386008 -35.854951 
L 314.600264 -35.854951 
L 313.81452 -35.854951 
L 313.028776 -35.854951 
L 312.243032 -35.854951 
L 311.457288 -35.854951 
L 310.671544 -35.854951 
L 309.885799 -35.854951 
L 309.100055 -35.854951 
L 308.314311 -35.854951 
L 307.528567 -35.854951 
L 306.742823 -35.854951 
L 305.957079 -35.854951 
L 305.171335 -35.854951 
L 304.385591 -35.854951 
L 303.599846 -35.854951 
L 302.814102 -35.854951 
L 302.028358 -35.854951 
L 301.242614 -35.854951 
L 300.45687 -35.854951 
L 299.671126 -35.854951 
L 298.885382 -35.854951 
L 298.099638 -35.854951 
L 297.313893 -35.854951 
L 296.528149 -35.854951 
L 295.742405 -35.854951 
L 294.956661 -35.854951 
L 294.170917 -35.854951 
L 293.385173 -35.854951 
L 292.599429 -35.854951 
L 291.813685 -35.854951 
L 291.02794 -35.854951 
L 290.242196 -35.854951 
L 289.456452 -35.854951 
L 288.670708 -35.854951 
L 287.884964 -35.854951 
L 287.09922 -35.854951 
L 286.313476 -35.854951 
L 285.527731 -35.854951 
L 284.741987 -35.854951 
L 283.956243 -35.854951 
L 283.170499 -35.854951 
L 282.384755 -35.854951 
L 281.599011 -35.854951 
L 280.813267 -35.854951 
L 280.027523 -35.854951 
L 279.241778 -35.854951 
L 278.456034 -35.854951 
L 277.67029 -35.854951 
L 276.884546 -35.854951 
L 276.098802 -35.854951 
L 275.313058 -35.854951 
L 274.527314 -35.854951 
L 273.74157 -35.854951 
L 272.955825 -35.854951 
L 272.170081 -35.854951 
L 271.384337 -35.854951 
L 270.598593 -35.854951 
L 269.812849 -35.854951 
L 269.027105 -35.854951 
L 268.241361 -35.854951 
L 267.455617 -35.854951 
L 266.669872 -35.854951 
L 265.884128 -35.854951 
L 265.098384 -35.854951 
L 264.31264 -35.854951 
L 263.526896 -35.854951 
L 262.741152 -35.854951 
L 261.955408 -35.854951 
L 261.169664 -35.854951 
L 260.383919 -35.854951 
L 259.598175 -35.854951 
L 258.812431 -35.854951 
L 258.026687 -35.854951 
L 257.240943 -35.854951 
L 256.455199 -35.854951 
L 255.669455 -35.854951 
L 254.88371 -35.854951 
L 254.097966 -35.854951 
L 253.312222 -35.854951 
L 252.526478 -35.854951 
L 251.740734 -35.854951 
L 250.95499 -35.854951 
L 250.169246 -35.854951 
L 249.383502 -35.854951 
L 248.597757 -35.854951 
L 247.812013 -35.854951 
L 247.026269 -35.854951 
L 246.240525 -35.854951 
L 245.454781 -35.854951 
L 244.669037 -35.854951 
L 243.883293 -35.854951 
L 243.097549 -35.854951 
L 242.311804 -35.854951 
L 241.52606 -35.854951 
L 240.740316 -35.854951 
L 239.954572 -35.854951 
L 239.168828 -35.854951 
L 238.383084 -35.854951 
L 237.59734 -35.854951 
L 236.811596 -35.854951 
L 236.025851 -35.854951 
L 235.240107 -35.854951 
L 234.454363 -35.854951 
L 233.668619 -35.854951 
L 232.882875 -35.854951 
L 232.097131 -35.854951 
L 231.311387 -35.854951 
L 230.525643 -35.854951 
L 229.739898 -35.854951 
L 228.954154 -35.854951 
L 228.16841 -35.854951 
L 227.382666 -35.854951 
L 226.596922 -35.854951 
L 225.811178 -35.854951 
L 225.025434 -35.854951 
L 224.239689 -35.854951 
L 223.453945 -35.854951 
L 222.668201 -35.854951 
L 221.882457 -35.854951 
L 221.096713 -35.854951 
L 220.310969 -35.854951 
L 219.525225 -35.854951 
L 218.739481 -35.854951 
L 217.953736 -35.854951 
L 217.167992 -35.854951 
L 216.382248 -35.854951 
L 215.596504 -35.854951 
L 214.81076 -35.854951 
L 214.025016 -35.854951 
L 213.239272 -35.854951 
L 212.453528 -35.854951 
L 211.667783 -35.854951 
L 210.882039 -35.854951 
L 210.096295 -35.854951 
L 209.310551 -35.854951 
L 208.524807 -35.854951 
L 207.739063 -35.854951 
L 206.953319 -35.854951 
L 206.167575 -35.854951 
L 205.38183 -35.854951 
L 204.596086 -35.854951 
L 203.810342 -35.854951 
L 203.024598 -35.854951 
L 202.238854 -35.854951 
L 201.45311 -35.854951 
L 200.667366 -35.854951 
L 199.881622 -35.854951 
L 199.095877 -35.854951 
L 198.310133 -35.854951 
L 197.524389 -35.854951 
L 196.738645 -35.854951 
L 195.952901 -35.854951 
L 195.167157 -35.854951 
L 194.381413 -35.854951 
L 193.595668 -35.854951 
L 192.809924 -35.854951 
L 192.02418 -35.854951 
L 191.238436 -35.854951 
L 190.452692 -35.854951 
L 189.666948 -35.854951 
L 188.881204 -35.854951 
L 188.09546 -35.854951 
L 187.309715 -35.854951 
L 186.523971 -35.854951 
L 185.738227 -35.854951 
z
" id="mb686daa853" style="stroke:#ff0000;stroke-opacity:0.2;"/>
    </defs>
    <g clip-path="url(#p7636eae8a4)">
     <use style="fill:#ff0000;fill-opacity:0.2;stroke:#ff0000;stroke-opacity:0.2;" x="0" xlink:href="#mb686daa853" y="288"/>
    </g>
   </g>
   <g id="PolyCollection_3">
    <defs>
     <path d="M 22.363855 -35.854951 
L 22.363855 -61.062321 
L 23.385467 -61.102087 
L 24.407079 -61.214508 
L 25.42869 -61.413857 
L 26.450302 -61.700558 
L 27.471914 -62.072673 
L 28.493526 -62.539909 
L 29.515138 -63.097033 
L 30.53675 -63.74253 
L 31.558362 -64.474368 
L 32.579974 -65.293665 
L 33.601586 -66.179116 
L 34.623198 -67.127215 
L 35.64481 -68.145012 
L 36.666422 -69.199938 
L 37.688034 -70.290241 
L 38.709646 -71.40381 
L 39.731258 -72.535194 
L 40.75287 -73.664675 
L 41.774482 -74.79281 
L 42.796094 -75.912704 
L 43.817706 -77.016466 
L 44.839318 -78.105985 
L 45.86093 -79.194288 
L 46.882542 -80.280773 
L 47.904154 -81.378215 
L 48.925766 -82.473337 
L 49.947378 -83.594217 
L 50.96899 -84.743168 
L 51.990602 -85.927818 
L 53.012214 -87.129204 
L 54.033826 -88.358215 
L 55.055438 -89.591757 
L 56.07705 -90.83331 
L 57.098662 -92.078605 
L 58.120274 -93.331247 
L 59.141886 -94.581787 
L 60.163498 -95.841067 
L 61.18511 -97.118682 
L 62.206722 -98.424036 
L 63.228334 -99.772523 
L 64.249946 -101.190587 
L 65.271558 -102.673294 
L 66.29317 -104.216307 
L 67.314782 -105.831048 
L 68.336394 -107.505857 
L 69.358006 -109.235875 
L 70.379618 -110.995827 
L 71.40123 -112.767912 
L 72.422842 -114.557116 
L 73.444453 -116.318257 
L 74.466065 -118.045004 
L 75.487677 -119.726803 
L 76.509289 -121.353541 
L 77.530901 -122.927041 
L 78.552513 -124.453237 
L 79.574125 -125.928841 
L 80.595737 -127.367182 
L 81.617349 -128.773649 
L 82.638961 -130.148219 
L 83.660573 -131.508067 
L 84.682185 -132.842259 
L 85.703797 -134.160062 
L 86.725409 -135.487727 
L 87.747021 -136.775126 
L 88.768633 -138.045288 
L 89.790245 -139.306512 
L 90.811857 -140.545786 
L 91.833469 -141.796535 
L 92.855081 -143.025319 
L 93.876693 -144.280656 
L 94.898305 -145.557486 
L 95.919917 -146.880447 
L 96.941529 -148.241363 
L 97.963141 -149.640914 
L 98.984753 -151.057456 
L 100.006365 -152.499137 
L 101.027977 -153.916241 
L 102.049589 -155.284773 
L 103.071201 -156.570631 
L 104.092813 -157.744141 
L 105.114425 -158.761317 
L 106.136037 -159.592677 
L 107.157649 -160.261839 
L 108.179261 -160.754264 
L 109.200873 -161.072085 
L 110.222485 -161.251572 
L 111.244097 -161.354611 
L 112.265709 -161.376784 
L 113.287321 -161.387949 
L 114.308933 -161.416121 
L 115.330545 -161.483473 
L 116.352157 -161.627914 
L 117.373769 -161.8273 
L 118.395381 -162.101602 
L 119.416993 -162.449901 
L 120.438604 -162.849536 
L 121.460216 -163.302817 
L 122.481828 -163.793848 
L 123.50344 -164.283977 
L 124.525052 -164.790647 
L 125.546664 -165.260433 
L 126.568276 -165.74792 
L 127.589888 -166.165192 
L 128.6115 -166.532933 
L 129.633112 -166.804764 
L 130.654724 -166.961881 
L 131.676336 -166.967512 
L 132.697948 -166.835465 
L 133.71956 -166.49317 
L 134.741172 -165.966375 
L 135.762784 -165.230325 
L 136.784396 -164.299608 
L 137.806008 -163.216463 
L 138.82762 -161.99027 
L 139.849232 -160.655963 
L 140.870844 -159.278028 
L 141.892456 -157.887306 
L 142.914068 -156.515943 
L 143.93568 -155.2125 
L 144.957292 -153.956499 
L 145.978904 -152.800968 
L 147.000516 -151.711514 
L 148.022128 -150.675798 
L 149.04374 -149.695875 
L 150.065352 -148.740043 
L 151.086964 -147.817041 
L 152.108576 -146.917027 
L 153.130188 -146.017962 
L 154.1518 -145.142778 
L 155.173412 -144.284525 
L 156.195024 -143.432454 
L 157.216636 -142.57922 
L 158.238248 -141.704426 
L 159.25986 -140.802952 
L 160.281472 -139.818059 
L 161.303084 -138.768479 
L 162.324696 -137.598486 
L 163.346308 -136.32637 
L 164.36792 -134.963793 
L 165.389532 -133.50631 
L 166.411144 -131.967746 
L 167.432756 -130.376492 
L 168.454367 -128.743193 
L 169.475979 -127.091865 
L 170.497591 -125.433227 
L 171.519203 -123.765611 
L 172.540815 -122.119055 
L 173.562427 -120.485571 
L 174.584039 -118.848707 
L 175.605651 -117.245211 
L 176.627263 -115.66843 
L 177.648875 -114.109809 
L 178.670487 -112.577958 
L 179.692099 -111.07648 
L 180.713711 -109.593091 
L 181.735323 -108.114637 
L 182.756935 -106.609218 
L 183.778547 -105.081823 
L 184.800159 -103.492153 
L 185.821771 -101.852346 
L 186.843383 -100.165194 
L 187.864995 -98.416026 
L 188.886607 -96.655333 
L 189.908219 -94.890228 
L 190.929831 -93.144356 
L 191.951443 -91.441316 
L 192.973055 -89.79658 
L 193.994667 -88.22935 
L 195.016279 -86.723795 
L 196.037891 -85.295983 
L 197.059503 -83.897263 
L 198.081115 -82.527837 
L 199.102727 -81.168833 
L 200.124339 -79.802123 
L 201.145951 -78.431713 
L 202.167563 -77.047621 
L 203.189175 -75.662855 
L 204.210787 -74.294972 
L 205.232399 -72.961271 
L 206.254011 -71.670569 
L 207.275623 -70.450618 
L 208.297235 -69.310418 
L 209.318847 -68.246495 
L 210.340459 -67.255141 
L 211.362071 -66.321171 
L 212.383683 -65.440373 
L 213.405295 -64.578713 
L 214.426907 -63.736001 
L 215.448519 -62.906391 
L 216.47013 -62.081126 
L 217.491742 -61.258327 
L 218.513354 -60.459726 
L 219.534966 -59.698089 
L 220.556578 -58.996993 
L 221.57819 -58.382902 
L 222.599802 -57.848672 
L 223.621414 -57.437766 
L 224.643026 -57.159817 
L 225.664638 -57.019317 
L 225.664638 -35.854951 
L 225.664638 -35.854951 
L 224.643026 -35.854951 
L 223.621414 -35.854951 
L 222.599802 -35.854951 
L 221.57819 -35.854951 
L 220.556578 -35.854951 
L 219.534966 -35.854951 
L 218.513354 -35.854951 
L 217.491742 -35.854951 
L 216.47013 -35.854951 
L 215.448519 -35.854951 
L 214.426907 -35.854951 
L 213.405295 -35.854951 
L 212.383683 -35.854951 
L 211.362071 -35.854951 
L 210.340459 -35.854951 
L 209.318847 -35.854951 
L 208.297235 -35.854951 
L 207.275623 -35.854951 
L 206.254011 -35.854951 
L 205.232399 -35.854951 
L 204.210787 -35.854951 
L 203.189175 -35.854951 
L 202.167563 -35.854951 
L 201.145951 -35.854951 
L 200.124339 -35.854951 
L 199.102727 -35.854951 
L 198.081115 -35.854951 
L 197.059503 -35.854951 
L 196.037891 -35.854951 
L 195.016279 -35.854951 
L 193.994667 -35.854951 
L 192.973055 -35.854951 
L 191.951443 -35.854951 
L 190.929831 -35.854951 
L 189.908219 -35.854951 
L 188.886607 -35.854951 
L 187.864995 -35.854951 
L 186.843383 -35.854951 
L 185.821771 -35.854951 
L 184.800159 -35.854951 
L 183.778547 -35.854951 
L 182.756935 -35.854951 
L 181.735323 -35.854951 
L 180.713711 -35.854951 
L 179.692099 -35.854951 
L 178.670487 -35.854951 
L 177.648875 -35.854951 
L 176.627263 -35.854951 
L 175.605651 -35.854951 
L 174.584039 -35.854951 
L 173.562427 -35.854951 
L 172.540815 -35.854951 
L 171.519203 -35.854951 
L 170.497591 -35.854951 
L 169.475979 -35.854951 
L 168.454367 -35.854951 
L 167.432756 -35.854951 
L 166.411144 -35.854951 
L 165.389532 -35.854951 
L 164.36792 -35.854951 
L 163.346308 -35.854951 
L 162.324696 -35.854951 
L 161.303084 -35.854951 
L 160.281472 -35.854951 
L 159.25986 -35.854951 
L 158.238248 -35.854951 
L 157.216636 -35.854951 
L 156.195024 -35.854951 
L 155.173412 -35.854951 
L 154.1518 -35.854951 
L 153.130188 -35.854951 
L 152.108576 -35.854951 
L 151.086964 -35.854951 
L 150.065352 -35.854951 
L 149.04374 -35.854951 
L 148.022128 -35.854951 
L 147.000516 -35.854951 
L 145.978904 -35.854951 
L 144.957292 -35.854951 
L 143.93568 -35.854951 
L 142.914068 -35.854951 
L 141.892456 -35.854951 
L 140.870844 -35.854951 
L 139.849232 -35.854951 
L 138.82762 -35.854951 
L 137.806008 -35.854951 
L 136.784396 -35.854951 
L 135.762784 -35.854951 
L 134.741172 -35.854951 
L 133.71956 -35.854951 
L 132.697948 -35.854951 
L 131.676336 -35.854951 
L 130.654724 -35.854951 
L 129.633112 -35.854951 
L 128.6115 -35.854951 
L 127.589888 -35.854951 
L 126.568276 -35.854951 
L 125.546664 -35.854951 
L 124.525052 -35.854951 
L 123.50344 -35.854951 
L 122.481828 -35.854951 
L 121.460216 -35.854951 
L 120.438604 -35.854951 
L 119.416993 -35.854951 
L 118.395381 -35.854951 
L 117.373769 -35.854951 
L 116.352157 -35.854951 
L 115.330545 -35.854951 
L 114.308933 -35.854951 
L 113.287321 -35.854951 
L 112.265709 -35.854951 
L 111.244097 -35.854951 
L 110.222485 -35.854951 
L 109.200873 -35.854951 
L 108.179261 -35.854951 
L 107.157649 -35.854951 
L 106.136037 -35.854951 
L 105.114425 -35.854951 
L 104.092813 -35.854951 
L 103.071201 -35.854951 
L 102.049589 -35.854951 
L 101.027977 -35.854951 
L 100.006365 -35.854951 
L 98.984753 -35.854951 
L 97.963141 -35.854951 
L 96.941529 -35.854951 
L 95.919917 -35.854951 
L 94.898305 -35.854951 
L 93.876693 -35.854951 
L 92.855081 -35.854951 
L 91.833469 -35.854951 
L 90.811857 -35.854951 
L 89.790245 -35.854951 
L 88.768633 -35.854951 
L 87.747021 -35.854951 
L 86.725409 -35.854951 
L 85.703797 -35.854951 
L 84.682185 -35.854951 
L 83.660573 -35.854951 
L 82.638961 -35.854951 
L 81.617349 -35.854951 
L 80.595737 -35.854951 
L 79.574125 -35.854951 
L 78.552513 -35.854951 
L 77.530901 -35.854951 
L 76.509289 -35.854951 
L 75.487677 -35.854951 
L 74.466065 -35.854951 
L 73.444453 -35.854951 
L 72.422842 -35.854951 
L 71.40123 -35.854951 
L 70.379618 -35.854951 
L 69.358006 -35.854951 
L 68.336394 -35.854951 
L 67.314782 -35.854951 
L 66.29317 -35.854951 
L 65.271558 -35.854951 
L 64.249946 -35.854951 
L 63.228334 -35.854951 
L 62.206722 -35.854951 
L 61.18511 -35.854951 
L 60.163498 -35.854951 
L 59.141886 -35.854951 
L 58.120274 -35.854951 
L 57.098662 -35.854951 
L 56.07705 -35.854951 
L 55.055438 -35.854951 
L 54.033826 -35.854951 
L 53.012214 -35.854951 
L 51.990602 -35.854951 
L 50.96899 -35.854951 
L 49.947378 -35.854951 
L 48.925766 -35.854951 
L 47.904154 -35.854951 
L 46.882542 -35.854951 
L 45.86093 -35.854951 
L 44.839318 -35.854951 
L 43.817706 -35.854951 
L 42.796094 -35.854951 
L 41.774482 -35.854951 
L 40.75287 -35.854951 
L 39.731258 -35.854951 
L 38.709646 -35.854951 
L 37.688034 -35.854951 
L 36.666422 -35.854951 
L 35.64481 -35.854951 
L 34.623198 -35.854951 
L 33.601586 -35.854951 
L 32.579974 -35.854951 
L 31.558362 -35.854951 
L 30.53675 -35.854951 
L 29.515138 -35.854951 
L 28.493526 -35.854951 
L 27.471914 -35.854951 
L 26.450302 -35.854951 
L 25.42869 -35.854951 
L 24.407079 -35.854951 
L 23.385467 -35.854951 
L 22.363855 -35.854951 
z
" id="m011bb0df48" style="stroke:#0000ff;stroke-opacity:0.2;"/>
    </defs>
    <g clip-path="url(#p7636eae8a4)">
     <use style="fill:#0000ff;fill-opacity:0.2;stroke:#0000ff;stroke-opacity:0.2;" x="0" xlink:href="#m011bb0df48" y="288"/>
    </g>
   </g>
   <g id="matplotlib.axis_1">
    <g id="xtick_1">
     <g id="line2d_1">
      <defs>
       <path d="M 0 0 
L 0 3.5 
" id="m2b0caae289" style="stroke:#000000;stroke-width:0.8;"/>
      </defs>
      <g>
       <use style="stroke:#000000;stroke-width:0.8;" x="43.40789" xlink:href="#m2b0caae289" y="264.450385"/>
      </g>
     </g>
     <g id="text_1">
      <!-- 0.00 -->
      <defs>
       <path d="M 31.78125 66.40625 
Q 24.171875 66.40625 20.328125 58.90625 
Q 16.5 51.421875 16.5 36.375 
Q 16.5 21.390625 20.328125 13.890625 
Q 24.171875 6.390625 31.78125 6.390625 
Q 39.453125 6.390625 43.28125 13.890625 
Q 47.125 21.390625 47.125 36.375 
Q 47.125 51.421875 43.28125 58.90625 
Q 39.453125 66.40625 31.78125 66.40625 
z
M 31.78125 74.21875 
Q 44.046875 74.21875 50.515625 64.515625 
Q 56.984375 54.828125 56.984375 36.375 
Q 56.984375 17.96875 50.515625 8.265625 
Q 44.046875 -1.421875 31.78125 -1.421875 
Q 19.53125 -1.421875 13.0625 8.265625 
Q 6.59375 17.96875 6.59375 36.375 
Q 6.59375 54.828125 13.0625 64.515625 
Q 19.53125 74.21875 31.78125 74.21875 
z
" id="DejaVuSans-48"/>
       <path d="M 10.6875 12.40625 
L 21 12.40625 
L 21 0 
L 10.6875 0 
z
" id="DejaVuSans-46"/>
      </defs>
      <g transform="translate(27.821952 282.088197)scale(0.14 -0.14)">
       <use xlink:href="#DejaVuSans-48"/>
       <use x="63.623047" xlink:href="#DejaVuSans-46"/>
       <use x="95.410156" xlink:href="#DejaVuSans-48"/>
       <use x="159.033203" xlink:href="#DejaVuSans-48"/>
      </g>
     </g>
    </g>
    <g id="xtick_2">
     <g id="line2d_2">
      <g>
       <use style="stroke:#000000;stroke-width:0.8;" x="100.609365" xlink:href="#m2b0caae289" y="264.450385"/>
      </g>
     </g>
     <g id="text_2">
      <!-- 0.01 -->
      <defs>
       <path d="M 12.40625 8.296875 
L 28.515625 8.296875 
L 28.515625 63.921875 
L 10.984375 60.40625 
L 10.984375 69.390625 
L 28.421875 72.90625 
L 38.28125 72.90625 
L 38.28125 8.296875 
L 54.390625 8.296875 
L 54.390625 0 
L 12.40625 0 
z
" id="DejaVuSans-49"/>
      </defs>
      <g transform="translate(85.023427 282.088197)scale(0.14 -0.14)">
       <use xlink:href="#DejaVuSans-48"/>
       <use x="63.623047" xlink:href="#DejaVuSans-46"/>
       <use x="95.410156" xlink:href="#DejaVuSans-48"/>
       <use x="159.033203" xlink:href="#DejaVuSans-49"/>
      </g>
     </g>
    </g>
    <g id="xtick_3">
     <g id="line2d_3">
      <g>
       <use style="stroke:#000000;stroke-width:0.8;" x="157.81084" xlink:href="#m2b0caae289" y="264.450385"/>
      </g>
     </g>
     <g id="text_3">
      <!-- 0.02 -->
      <defs>
       <path d="M 19.1875 8.296875 
L 53.609375 8.296875 
L 53.609375 0 
L 7.328125 0 
L 7.328125 8.296875 
Q 12.9375 14.109375 22.625 23.890625 
Q 32.328125 33.6875 34.8125 36.53125 
Q 39.546875 41.84375 41.421875 45.53125 
Q 43.3125 49.21875 43.3125 52.78125 
Q 43.3125 58.59375 39.234375 62.25 
Q 35.15625 65.921875 28.609375 65.921875 
Q 23.96875 65.921875 18.8125 64.3125 
Q 13.671875 62.703125 7.8125 59.421875 
L 7.8125 69.390625 
Q 13.765625 71.78125 18.9375 73 
Q 24.125 74.21875 28.421875 74.21875 
Q 39.75 74.21875 46.484375 68.546875 
Q 53.21875 62.890625 53.21875 53.421875 
Q 53.21875 48.921875 51.53125 44.890625 
Q 49.859375 40.875 45.40625 35.40625 
Q 44.1875 33.984375 37.640625 27.21875 
Q 31.109375 20.453125 19.1875 8.296875 
z
" id="DejaVuSans-50"/>
      </defs>
      <g transform="translate(142.224902 282.088197)scale(0.14 -0.14)">
       <use xlink:href="#DejaVuSans-48"/>
       <use x="63.623047" xlink:href="#DejaVuSans-46"/>
       <use x="95.410156" xlink:href="#DejaVuSans-48"/>
       <use x="159.033203" xlink:href="#DejaVuSans-50"/>
      </g>
     </g>
    </g>
    <g id="xtick_4">
     <g id="line2d_4">
      <g>
       <use style="stroke:#000000;stroke-width:0.8;" x="215.012314" xlink:href="#m2b0caae289" y="264.450385"/>
      </g>
     </g>
     <g id="text_4">
      <!-- 0.03 -->
      <defs>
       <path d="M 40.578125 39.3125 
Q 47.65625 37.796875 51.625 33 
Q 55.609375 28.21875 55.609375 21.1875 
Q 55.609375 10.40625 48.1875 4.484375 
Q 40.765625 -1.421875 27.09375 -1.421875 
Q 22.515625 -1.421875 17.65625 -0.515625 
Q 12.796875 0.390625 7.625 2.203125 
L 7.625 11.71875 
Q 11.71875 9.328125 16.59375 8.109375 
Q 21.484375 6.890625 26.8125 6.890625 
Q 36.078125 6.890625 40.9375 10.546875 
Q 45.796875 14.203125 45.796875 21.1875 
Q 45.796875 27.640625 41.28125 31.265625 
Q 36.765625 34.90625 28.71875 34.90625 
L 20.21875 34.90625 
L 20.21875 43.015625 
L 29.109375 43.015625 
Q 36.375 43.015625 40.234375 45.921875 
Q 44.09375 48.828125 44.09375 54.296875 
Q 44.09375 59.90625 40.109375 62.90625 
Q 36.140625 65.921875 28.71875 65.921875 
Q 24.65625 65.921875 20.015625 65.03125 
Q 15.375 64.15625 9.8125 62.3125 
L 9.8125 71.09375 
Q 15.4375 72.65625 20.34375 73.4375 
Q 25.25 74.21875 29.59375 74.21875 
Q 40.828125 74.21875 47.359375 69.109375 
Q 53.90625 64.015625 53.90625 55.328125 
Q 53.90625 49.265625 50.4375 45.09375 
Q 46.96875 40.921875 40.578125 39.3125 
z
" id="DejaVuSans-51"/>
      </defs>
      <g transform="translate(199.426377 282.088197)scale(0.14 -0.14)">
       <use xlink:href="#DejaVuSans-48"/>
       <use x="63.623047" xlink:href="#DejaVuSans-46"/>
       <use x="95.410156" xlink:href="#DejaVuSans-48"/>
       <use x="159.033203" xlink:href="#DejaVuSans-51"/>
      </g>
     </g>
    </g>
    <g id="xtick_5">
     <g id="line2d_5">
      <g>
       <use style="stroke:#000000;stroke-width:0.8;" x="272.213789" xlink:href="#m2b0caae289" y="264.450385"/>
      </g>
     </g>
     <g id="text_5">
      <!-- 0.04 -->
      <defs>
       <path d="M 37.796875 64.3125 
L 12.890625 25.390625 
L 37.796875 25.390625 
z
M 35.203125 72.90625 
L 47.609375 72.90625 
L 47.609375 25.390625 
L 58.015625 25.390625 
L 58.015625 17.1875 
L 47.609375 17.1875 
L 47.609375 0 
L 37.796875 0 
L 37.796875 17.1875 
L 4.890625 17.1875 
L 4.890625 26.703125 
z
" id="DejaVuSans-52"/>
      </defs>
      <g transform="translate(256.627852 282.088197)scale(0.14 -0.14)">
       <use xlink:href="#DejaVuSans-48"/>
       <use x="63.623047" xlink:href="#DejaVuSans-46"/>
       <use x="95.410156" xlink:href="#DejaVuSans-48"/>
       <use x="159.033203" xlink:href="#DejaVuSans-52"/>
      </g>
     </g>
    </g>
    <g id="xtick_6">
     <g id="line2d_6">
      <g>
       <use style="stroke:#000000;stroke-width:0.8;" x="329.415264" xlink:href="#m2b0caae289" y="264.450385"/>
      </g>
     </g>
     <g id="text_6">
      <!-- 0.05 -->
      <defs>
       <path d="M 10.796875 72.90625 
L 49.515625 72.90625 
L 49.515625 64.59375 
L 19.828125 64.59375 
L 19.828125 46.734375 
Q 21.96875 47.46875 24.109375 47.828125 
Q 26.265625 48.1875 28.421875 48.1875 
Q 40.625 48.1875 47.75 41.5 
Q 54.890625 34.8125 54.890625 23.390625 
Q 54.890625 11.625 47.5625 5.09375 
Q 40.234375 -1.421875 26.90625 -1.421875 
Q 22.3125 -1.421875 17.546875 -0.640625 
Q 12.796875 0.140625 7.71875 1.703125 
L 7.71875 11.625 
Q 12.109375 9.234375 16.796875 8.0625 
Q 21.484375 6.890625 26.703125 6.890625 
Q 35.15625 6.890625 40.078125 11.328125 
Q 45.015625 15.765625 45.015625 23.390625 
Q 45.015625 31 40.078125 35.4375 
Q 35.15625 39.890625 26.703125 39.890625 
Q 22.75 39.890625 18.8125 39.015625 
Q 14.890625 38.140625 10.796875 36.28125 
z
" id="DejaVuSans-53"/>
      </defs>
      <g transform="translate(313.829327 282.088197)scale(0.14 -0.14)">
       <use xlink:href="#DejaVuSans-48"/>
       <use x="63.623047" xlink:href="#DejaVuSans-46"/>
       <use x="95.410156" xlink:href="#DejaVuSans-48"/>
       <use x="159.033203" xlink:href="#DejaVuSans-53"/>
      </g>
     </g>
    </g>
    <g id="xtick_7">
     <g id="line2d_7">
      <g>
       <use style="stroke:#000000;stroke-width:0.8;" x="386.616739" xlink:href="#m2b0caae289" y="264.450385"/>
      </g>
     </g>
     <g id="text_7">
      <!-- 0.06 -->
      <defs>
       <path d="M 33.015625 40.375 
Q 26.375 40.375 22.484375 35.828125 
Q 18.609375 31.296875 18.609375 23.390625 
Q 18.609375 15.53125 22.484375 10.953125 
Q 26.375 6.390625 33.015625 6.390625 
Q 39.65625 6.390625 43.53125 10.953125 
Q 47.40625 15.53125 47.40625 23.390625 
Q 47.40625 31.296875 43.53125 35.828125 
Q 39.65625 40.375 33.015625 40.375 
z
M 52.59375 71.296875 
L 52.59375 62.3125 
Q 48.875 64.0625 45.09375 64.984375 
Q 41.3125 65.921875 37.59375 65.921875 
Q 27.828125 65.921875 22.671875 59.328125 
Q 17.53125 52.734375 16.796875 39.40625 
Q 19.671875 43.65625 24.015625 45.921875 
Q 28.375 48.1875 33.59375 48.1875 
Q 44.578125 48.1875 50.953125 41.515625 
Q 57.328125 34.859375 57.328125 23.390625 
Q 57.328125 12.15625 50.6875 5.359375 
Q 44.046875 -1.421875 33.015625 -1.421875 
Q 20.359375 -1.421875 13.671875 8.265625 
Q 6.984375 17.96875 6.984375 36.375 
Q 6.984375 53.65625 15.1875 63.9375 
Q 23.390625 74.21875 37.203125 74.21875 
Q 40.921875 74.21875 44.703125 73.484375 
Q 48.484375 72.75 52.59375 71.296875 
z
" id="DejaVuSans-54"/>
      </defs>
      <g transform="translate(371.030802 282.088197)scale(0.14 -0.14)">
       <use xlink:href="#DejaVuSans-48"/>
       <use x="63.623047" xlink:href="#DejaVuSans-46"/>
       <use x="95.410156" xlink:href="#DejaVuSans-48"/>
       <use x="159.033203" xlink:href="#DejaVuSans-54"/>
      </g>
     </g>
    </g>
   </g>
   <g id="matplotlib.axis_2"/>
   <g id="LineCollection_1">
    <path clip-path="url(#p7636eae8a4)" d="M 329.415264 252.145049 
L 329.415264 14.884338 
" style="fill:none;stroke:#008000;stroke-dasharray:5.55,2.4;stroke-dashoffset:0;stroke-width:1.5;"/>
   </g>
   <g id="LineCollection_2">
    <path clip-path="url(#p7636eae8a4)" d="M 272.213789 252.145049 
L 272.213789 14.884338 
" style="fill:none;stroke:#ff0000;stroke-dasharray:5.55,2.4;stroke-dashoffset:0;stroke-width:1.5;"/>
   </g>
   <g id="LineCollection_3">
    <path clip-path="url(#p7636eae8a4)" d="M 100.609365 252.145049 
L 100.609365 14.884338 
" style="fill:none;stroke:#0000ff;stroke-dasharray:5.55,2.4;stroke-dashoffset:0;stroke-width:1.5;"/>
   </g>
   <g id="line2d_8">
    <path clip-path="url(#p7636eae8a4)" d="M 282.415437 210.021156 
L 283.054737 209.931856 
L 283.694037 209.675723 
L 284.333337 209.243219 
L 284.972637 208.634503 
L 286.251237 206.815832 
L 287.529837 204.211698 
L 288.808438 200.943954 
L 290.726338 195.0069 
L 293.283538 185.995787 
L 298.397938 166.959332 
L 304.151639 145.080509 
L 306.708839 134.443167 
L 309.905339 119.826719 
L 312.462539 108.031911 
L 313.741139 102.786682 
L 315.019739 98.209007 
L 316.937639 92.425248 
L 318.85554 86.704096 
L 320.13414 82.253653 
L 322.05204 74.218364 
L 324.60924 63.085618 
L 325.24854 60.854676 
L 325.88784 59.039144 
L 326.52714 57.584707 
L 327.16644 56.620258 
L 327.80574 56.0253 
L 328.44504 55.709041 
L 330.36294 55.142287 
L 331.00224 54.640137 
L 331.64154 53.94855 
L 332.92014 51.906444 
L 334.198741 49.587451 
L 334.838041 48.60321 
L 335.477341 47.872531 
L 336.116641 47.416901 
L 336.755941 47.300407 
L 337.395241 47.479226 
L 338.673841 48.336394 
L 339.952441 49.345083 
L 340.591741 49.70635 
L 341.231041 49.905641 
L 341.870341 49.970743 
L 343.148941 49.707366 
L 344.427541 49.309189 
L 345.066841 49.267988 
L 345.706141 49.419567 
L 346.345441 49.759161 
L 346.984741 50.316375 
L 348.263341 51.908552 
L 350.181242 54.483329 
L 350.820542 55.152953 
L 352.099142 55.98945 
L 353.377742 56.64413 
L 354.017042 57.17402 
L 354.656342 57.942797 
L 355.295642 59.021551 
L 355.934942 60.519151 
L 356.574242 62.37103 
L 357.852842 66.970453 
L 360.410042 76.951526 
L 361.688642 81.214023 
L 363.606542 86.517154 
L 365.524443 91.779273 
L 366.803043 95.82856 
L 368.081643 100.606367 
L 369.360243 106.20257 
L 371.278143 115.982165 
L 375.113943 136.662789 
L 376.392543 142.424294 
L 377.671143 147.223156 
L 378.949743 151.106309 
L 380.228344 154.312222 
L 382.146244 158.311924 
L 384.064144 162.580424 
L 385.342744 166.113933 
L 386.621344 170.356278 
L 390.457144 183.801827 
L 391.735744 187.096305 
L 393.653644 190.98378 
L 395.571545 194.881187 
L 397.489445 199.399676 
L 400.046645 205.463657 
L 401.964545 209.300843 
L 403.882445 212.539125 
L 405.161045 214.336961 
L 406.439645 215.746101 
L 407.718245 216.688108 
L 408.996845 217.17209 
L 409.636145 217.2756 
L 409.636145 217.2756 
" style="fill:none;stroke:#008000;stroke-linecap:square;stroke-width:1.5;"/>
   </g>
   <g id="line2d_9">
    <path clip-path="url(#p7636eae8a4)" d="M 282.415437 252.566288 
L 282.415437 210.021156 
" style="fill:none;stroke:#008000;stroke-linecap:square;stroke-width:1.5;"/>
   </g>
   <g id="line2d_10">
    <path clip-path="url(#p7636eae8a4)" d="M 409.636145 252.493743 
L 409.636145 217.2756 
" style="fill:none;stroke:#008000;stroke-linecap:square;stroke-width:1.5;"/>
   </g>
   <g id="line2d_11">
    <defs>
     <path d="M 0 3 
C 0.795609 3 1.55874 2.683901 2.12132 2.12132 
C 2.683901 1.55874 3 0.795609 3 0 
C 3 -0.795609 2.683901 -1.55874 2.12132 -2.12132 
C 1.55874 -2.683901 0.795609 -3 0 -3 
C -0.795609 -3 -1.55874 -2.683901 -2.12132 -2.12132 
C -2.683901 -1.55874 -3 -0.795609 -3 0 
C -3 0.795609 -2.683901 1.55874 -2.12132 2.12132 
C -1.55874 2.683901 -0.795609 3 0 3 
z
" id="m83b73bf4e2" style="stroke:#000000;"/>
    </defs>
    <g clip-path="url(#p7636eae8a4)">
     <use style="fill:#008000;stroke:#000000;" x="343.746337" xlink:href="#m83b73bf4e2" y="252.145049"/>
    </g>
   </g>
   <g id="line2d_12">
    <path clip-path="url(#p7636eae8a4)" d="M 185.738227 221.681658 
L 186.523971 221.630834 
L 187.309715 221.454812 
L 188.09546 221.126194 
L 189.666948 220.099884 
L 191.238436 218.532608 
L 192.809924 216.425624 
L 194.381413 213.784273 
L 195.952901 210.594807 
L 197.524389 206.861603 
L 199.881622 200.373028 
L 203.810342 189.027322 
L 205.38183 185.084037 
L 207.739063 179.814118 
L 210.882039 172.92297 
L 220.310969 151.374369 
L 221.882457 147.093413 
L 223.453945 142.258227 
L 225.811178 134.103532 
L 231.311387 114.261725 
L 232.882875 109.469469 
L 234.454363 105.243803 
L 236.025851 101.481003 
L 237.59734 98.091926 
L 239.168828 95.145181 
L 240.740316 92.636094 
L 242.311804 90.765929 
L 243.097549 90.100288 
L 243.883293 89.623754 
L 245.454781 89.17458 
L 248.597757 89.04052 
L 249.383502 88.82659 
L 250.169246 88.425602 
L 250.95499 87.845996 
L 251.740734 87.07543 
L 253.312222 84.931866 
L 255.669455 81.315563 
L 256.455199 80.35198 
L 257.240943 79.642311 
L 258.026687 79.270778 
L 258.812431 79.296898 
L 259.598175 79.776984 
L 260.383919 80.669748 
L 261.169664 81.994034 
L 262.741152 85.488344 
L 265.884128 93.441041 
L 267.455617 96.632813 
L 269.027105 99.150085 
L 273.74157 105.597887 
L 278.456034 112.894686 
L 280.027523 114.851324 
L 281.599011 116.465003 
L 287.09922 121.436574 
L 288.670708 123.368015 
L 290.242196 125.620278 
L 291.813685 128.386587 
L 293.385173 131.655601 
L 295.742405 137.390537 
L 300.45687 149.344592 
L 309.885799 171.783221 
L 313.028776 178.047407 
L 320.100473 191.53447 
L 322.457706 195.369684 
L 325.600682 200.350301 
L 327.957914 204.518384 
L 332.672379 213.29087 
L 334.243867 215.829698 
L 335.815356 217.926137 
L 337.386844 219.514074 
L 338.958332 220.589921 
L 340.52982 221.196712 
L 342.101309 221.424118 
L 342.101309 221.424118 
" style="fill:none;stroke:#ff0000;stroke-linecap:square;stroke-width:1.5;"/>
   </g>
   <g id="line2d_13">
    <path clip-path="url(#p7636eae8a4)" d="M 185.738227 252.449682 
L 185.738227 221.681658 
" style="fill:none;stroke:#ff0000;stroke-linecap:square;stroke-width:1.5;"/>
   </g>
   <g id="line2d_14">
    <path clip-path="url(#p7636eae8a4)" d="M 342.101309 252.452258 
L 342.101309 221.424118 
" style="fill:none;stroke:#ff0000;stroke-linecap:square;stroke-width:1.5;"/>
   </g>
   <g id="line2d_15">
    <defs>
     <path d="M 0 3 
C 0.795609 3 1.55874 2.683901 2.12132 2.12132 
C 2.683901 1.55874 3 0.795609 3 0 
C 3 -0.795609 2.683901 -1.55874 2.12132 -2.12132 
C 1.55874 -2.683901 0.795609 -3 0 -3 
C -0.795609 -3 -1.55874 -2.683901 -2.12132 -2.12132 
C -2.683901 -1.55874 -3 -0.795609 -3 0 
C -3 0.795609 -2.683901 1.55874 -2.12132 2.12132 
C -1.55874 2.683901 -0.795609 3 0 3 
z
" id="m3cd14499ea" style="stroke:#000000;"/>
    </defs>
    <g clip-path="url(#p7636eae8a4)">
     <use style="fill:#ff0000;stroke:#000000;" x="264.045093" xlink:href="#m3cd14499ea" y="252.145049"/>
    </g>
   </g>
   <g id="line2d_16">
    <path clip-path="url(#p7636eae8a4)" d="M 22.363855 226.937679 
L 24.407079 226.785492 
L 26.450302 226.299442 
L 28.493526 225.460091 
L 30.53675 224.25747 
L 32.579974 222.706335 
L 34.623198 220.872785 
L 37.688034 217.709759 
L 53.012214 200.870796 
L 61.18511 190.881318 
L 64.249946 186.809413 
L 67.314782 182.168952 
L 70.379618 177.004173 
L 75.487677 168.273197 
L 78.552513 163.546763 
L 81.617349 159.226351 
L 86.725409 152.512273 
L 91.833469 146.203465 
L 95.919917 141.119553 
L 100.006365 135.500863 
L 103.071201 131.429369 
L 105.114425 129.238683 
L 106.136037 128.407323 
L 107.157649 127.738161 
L 108.179261 127.245736 
L 109.200873 126.927915 
L 111.244097 126.645389 
L 115.330545 126.516527 
L 117.373769 126.1727 
L 119.416993 125.550099 
L 121.460216 124.697183 
L 127.589888 121.834808 
L 129.633112 121.195236 
L 130.654724 121.038119 
L 131.676336 121.032488 
L 132.697948 121.164535 
L 133.71956 121.50683 
L 134.741172 122.033625 
L 135.762784 122.769675 
L 136.784396 123.700392 
L 138.82762 126.00973 
L 145.978904 135.199032 
L 148.022128 137.324202 
L 151.086964 140.182959 
L 156.195024 144.567546 
L 159.25986 147.197048 
L 161.303084 149.231521 
L 163.346308 151.67363 
L 165.389532 154.49369 
L 168.454367 159.256807 
L 176.627263 172.33157 
L 180.713711 178.406909 
L 184.800159 184.507847 
L 187.864995 189.583974 
L 192.973055 198.20342 
L 196.037891 202.704017 
L 203.189175 212.337145 
L 206.254011 216.329431 
L 208.297235 218.689582 
L 210.340459 220.744859 
L 213.405295 223.421287 
L 218.513354 227.540274 
L 220.556578 229.003007 
L 222.599802 230.151328 
L 223.621414 230.562234 
L 224.643026 230.840183 
L 225.664638 230.980683 
L 225.664638 230.980683 
" style="fill:none;stroke:#0000ff;stroke-linecap:square;stroke-width:1.5;"/>
   </g>
   <g id="line2d_17">
    <path clip-path="url(#p7636eae8a4)" d="M 22.363855 252.397122 
L 22.363855 226.937679 
" style="fill:none;stroke:#0000ff;stroke-linecap:square;stroke-width:1.5;"/>
   </g>
   <g id="line2d_18">
    <path clip-path="url(#p7636eae8a4)" d="M 225.664638 252.356692 
L 225.664638 230.980683 
" style="fill:none;stroke:#0000ff;stroke-linecap:square;stroke-width:1.5;"/>
   </g>
   <g id="line2d_19">
    <defs>
     <path d="M 0 3 
C 0.795609 3 1.55874 2.683901 2.12132 2.12132 
C 2.683901 1.55874 3 0.795609 3 0 
C 3 -0.795609 2.683901 -1.55874 2.12132 -2.12132 
C 1.55874 -2.683901 0.795609 -3 0 -3 
C -0.795609 -3 -1.55874 -2.683901 -2.12132 -2.12132 
C -2.683901 -1.55874 -3 -0.795609 -3 0 
C -3 0.795609 -2.683901 1.55874 -2.12132 2.12132 
C -1.55874 2.683901 -0.795609 3 0 3 
z
" id="m90a6721acf" style="stroke:#000000;"/>
    </defs>
    <g clip-path="url(#p7636eae8a4)">
     <use style="fill:#0000ff;stroke:#000000;" x="123.109134" xlink:href="#m90a6721acf" y="252.145049"/>
    </g>
   </g>
   <g id="line2d_20"/>
   <g id="line2d_21"/>
   <g id="line2d_22"/>
   <g id="patch_3">
    <path d="M 3.00024 264.450385 
L 428.99976 264.450385 
" style="fill:none;stroke:#000000;stroke-linecap:square;stroke-linejoin:miter;stroke-width:0.8;"/>
   </g>
   <g id="legend_1">
    <g id="patch_4">
     <path d="M 10.00024 99.91274 
L 182.50024 99.91274 
Q 184.50024 99.91274 184.50024 97.91274 
L 184.50024 10.00024 
Q 184.50024 8.00024 182.50024 8.00024 
L 10.00024 8.00024 
Q 8.00024 8.00024 8.00024 10.00024 
L 8.00024 97.91274 
Q 8.00024 99.91274 10.00024 99.91274 
z
" style="fill:#ffffff;opacity:0.8;stroke:#cccccc;stroke-linejoin:miter;"/>
    </g>
    <g id="line2d_23">
     <path d="M 12.00024 16.498677 
L 32.00024 16.498677 
" style="fill:none;stroke:#008000;stroke-linecap:square;stroke-width:1.5;"/>
    </g>
    <g id="line2d_24"/>
    <g id="text_8">
     <!-- Proporcin A -->
     <defs>
      <path d="M 19.671875 64.796875 
L 19.671875 37.40625 
L 32.078125 37.40625 
Q 38.96875 37.40625 42.71875 40.96875 
Q 46.484375 44.53125 46.484375 51.125 
Q 46.484375 57.671875 42.71875 61.234375 
Q 38.96875 64.796875 32.078125 64.796875 
z
M 9.8125 72.90625 
L 32.078125 72.90625 
Q 44.34375 72.90625 50.609375 67.359375 
Q 56.890625 61.8125 56.890625 51.125 
Q 56.890625 40.328125 50.609375 34.8125 
Q 44.34375 29.296875 32.078125 29.296875 
L 19.671875 29.296875 
L 19.671875 0 
L 9.8125 0 
z
" id="DejaVuSans-80"/>
      <path d="M 41.109375 46.296875 
Q 39.59375 47.171875 37.8125 47.578125 
Q 36.03125 48 33.890625 48 
Q 26.265625 48 22.1875 43.046875 
Q 18.109375 38.09375 18.109375 28.8125 
L 18.109375 0 
L 9.078125 0 
L 9.078125 54.6875 
L 18.109375 54.6875 
L 18.109375 46.1875 
Q 20.953125 51.171875 25.484375 53.578125 
Q 30.03125 56 36.53125 56 
Q 37.453125 56 38.578125 55.875 
Q 39.703125 55.765625 41.0625 55.515625 
z
" id="DejaVuSans-114"/>
      <path d="M 30.609375 48.390625 
Q 23.390625 48.390625 19.1875 42.75 
Q 14.984375 37.109375 14.984375 27.296875 
Q 14.984375 17.484375 19.15625 11.84375 
Q 23.34375 6.203125 30.609375 6.203125 
Q 37.796875 6.203125 41.984375 11.859375 
Q 46.1875 17.53125 46.1875 27.296875 
Q 46.1875 37.015625 41.984375 42.703125 
Q 37.796875 48.390625 30.609375 48.390625 
z
M 30.609375 56 
Q 42.328125 56 49.015625 48.375 
Q 55.71875 40.765625 55.71875 27.296875 
Q 55.71875 13.875 49.015625 6.21875 
Q 42.328125 -1.421875 30.609375 -1.421875 
Q 18.84375 -1.421875 12.171875 6.21875 
Q 5.515625 13.875 5.515625 27.296875 
Q 5.515625 40.765625 12.171875 48.375 
Q 18.84375 56 30.609375 56 
z
" id="DejaVuSans-111"/>
      <path d="M 18.109375 8.203125 
L 18.109375 -20.796875 
L 9.078125 -20.796875 
L 9.078125 54.6875 
L 18.109375 54.6875 
L 18.109375 46.390625 
Q 20.953125 51.265625 25.265625 53.625 
Q 29.59375 56 35.59375 56 
Q 45.5625 56 51.78125 48.09375 
Q 58.015625 40.1875 58.015625 27.296875 
Q 58.015625 14.40625 51.78125 6.484375 
Q 45.5625 -1.421875 35.59375 -1.421875 
Q 29.59375 -1.421875 25.265625 0.953125 
Q 20.953125 3.328125 18.109375 8.203125 
z
M 48.6875 27.296875 
Q 48.6875 37.203125 44.609375 42.84375 
Q 40.53125 48.484375 33.40625 48.484375 
Q 26.265625 48.484375 22.1875 42.84375 
Q 18.109375 37.203125 18.109375 27.296875 
Q 18.109375 17.390625 22.1875 11.75 
Q 26.265625 6.109375 33.40625 6.109375 
Q 40.53125 6.109375 44.609375 11.75 
Q 48.6875 17.390625 48.6875 27.296875 
z
" id="DejaVuSans-112"/>
      <path d="M 48.78125 52.59375 
L 48.78125 44.1875 
Q 44.96875 46.296875 41.140625 47.34375 
Q 37.3125 48.390625 33.40625 48.390625 
Q 24.65625 48.390625 19.8125 42.84375 
Q 14.984375 37.3125 14.984375 27.296875 
Q 14.984375 17.28125 19.8125 11.734375 
Q 24.65625 6.203125 33.40625 6.203125 
Q 37.3125 6.203125 41.140625 7.25 
Q 44.96875 8.296875 48.78125 10.40625 
L 48.78125 2.09375 
Q 45.015625 0.34375 40.984375 -0.53125 
Q 36.96875 -1.421875 32.421875 -1.421875 
Q 20.0625 -1.421875 12.78125 6.34375 
Q 5.515625 14.109375 5.515625 27.296875 
Q 5.515625 40.671875 12.859375 48.328125 
Q 20.21875 56 33.015625 56 
Q 37.15625 56 41.109375 55.140625 
Q 45.0625 54.296875 48.78125 52.59375 
z
" id="DejaVuSans-99"/>
      <path d="M 9.421875 54.6875 
L 18.40625 54.6875 
L 18.40625 0 
L 9.421875 0 
z
M 9.421875 75.984375 
L 18.40625 75.984375 
L 18.40625 64.59375 
L 9.421875 64.59375 
z
" id="DejaVuSans-105"/>
      <path d="M 30.609375 48.390625 
Q 23.390625 48.390625 19.1875 42.75 
Q 14.984375 37.109375 14.984375 27.296875 
Q 14.984375 17.484375 19.15625 11.84375 
Q 23.34375 6.203125 30.609375 6.203125 
Q 37.796875 6.203125 41.984375 11.859375 
Q 46.1875 17.53125 46.1875 27.296875 
Q 46.1875 37.015625 41.984375 42.703125 
Q 37.796875 48.390625 30.609375 48.390625 
z
M 30.609375 56 
Q 42.328125 56 49.015625 48.375 
Q 55.71875 40.765625 55.71875 27.296875 
Q 55.71875 13.875 49.015625 6.21875 
Q 42.328125 -1.421875 30.609375 -1.421875 
Q 18.84375 -1.421875 12.171875 6.21875 
Q 5.515625 13.875 5.515625 27.296875 
Q 5.515625 40.765625 12.171875 48.375 
Q 18.84375 56 30.609375 56 
z
M 37.40625 79.984375 
L 47.125 79.984375 
L 31.203125 61.625 
L 23.734375 61.625 
z
" id="DejaVuSans-243"/>
      <path d="M 54.890625 33.015625 
L 54.890625 0 
L 45.90625 0 
L 45.90625 32.71875 
Q 45.90625 40.484375 42.875 44.328125 
Q 39.84375 48.1875 33.796875 48.1875 
Q 26.515625 48.1875 22.3125 43.546875 
Q 18.109375 38.921875 18.109375 30.90625 
L 18.109375 0 
L 9.078125 0 
L 9.078125 54.6875 
L 18.109375 54.6875 
L 18.109375 46.1875 
Q 21.34375 51.125 25.703125 53.5625 
Q 30.078125 56 35.796875 56 
Q 45.21875 56 50.046875 50.171875 
Q 54.890625 44.34375 54.890625 33.015625 
z
" id="DejaVuSans-110"/>
      <path id="DejaVuSans-32"/>
      <path d="M 34.1875 63.1875 
L 20.796875 26.90625 
L 47.609375 26.90625 
z
M 28.609375 72.90625 
L 39.796875 72.90625 
L 67.578125 0 
L 57.328125 0 
L 50.6875 18.703125 
L 17.828125 18.703125 
L 11.1875 0 
L 0.78125 0 
z
" id="DejaVuSans-65"/>
     </defs>
     <g transform="translate(40.00024 19.998677)scale(0.1 -0.1)">
      <use xlink:href="#DejaVuSans-80"/>
      <use x="58.552734" xlink:href="#DejaVuSans-114"/>
      <use x="97.416016" xlink:href="#DejaVuSans-111"/>
      <use x="158.597656" xlink:href="#DejaVuSans-112"/>
      <use x="222.074219" xlink:href="#DejaVuSans-111"/>
      <use x="283.255859" xlink:href="#DejaVuSans-114"/>
      <use x="322.119141" xlink:href="#DejaVuSans-99"/>
      <use x="377.099609" xlink:href="#DejaVuSans-105"/>
      <use x="404.882812" xlink:href="#DejaVuSans-243"/>
      <use x="466.064453" xlink:href="#DejaVuSans-110"/>
      <use x="529.443359" xlink:href="#DejaVuSans-32"/>
      <use x="561.230469" xlink:href="#DejaVuSans-65"/>
     </g>
    </g>
    <g id="line2d_25">
     <path d="M 12.00024 31.576802 
L 32.00024 31.576802 
" style="fill:none;stroke:#ff0000;stroke-linecap:square;stroke-width:1.5;"/>
    </g>
    <g id="line2d_26"/>
    <g id="text_9">
     <!-- Proporcin B -->
     <defs>
      <path d="M 19.671875 34.8125 
L 19.671875 8.109375 
L 35.5 8.109375 
Q 43.453125 8.109375 47.28125 11.40625 
Q 51.125 14.703125 51.125 21.484375 
Q 51.125 28.328125 47.28125 31.5625 
Q 43.453125 34.8125 35.5 34.8125 
z
M 19.671875 64.796875 
L 19.671875 42.828125 
L 34.28125 42.828125 
Q 41.5 42.828125 45.03125 45.53125 
Q 48.578125 48.25 48.578125 53.8125 
Q 48.578125 59.328125 45.03125 62.0625 
Q 41.5 64.796875 34.28125 64.796875 
z
M 9.8125 72.90625 
L 35.015625 72.90625 
Q 46.296875 72.90625 52.390625 68.21875 
Q 58.5 63.53125 58.5 54.890625 
Q 58.5 48.1875 55.375 44.234375 
Q 52.25 40.28125 46.1875 39.3125 
Q 53.46875 37.75 57.5 32.78125 
Q 61.53125 27.828125 61.53125 20.40625 
Q 61.53125 10.640625 54.890625 5.3125 
Q 48.25 0 35.984375 0 
L 9.8125 0 
z
" id="DejaVuSans-66"/>
     </defs>
     <g transform="translate(40.00024 35.076802)scale(0.1 -0.1)">
      <use xlink:href="#DejaVuSans-80"/>
      <use x="58.552734" xlink:href="#DejaVuSans-114"/>
      <use x="97.416016" xlink:href="#DejaVuSans-111"/>
      <use x="158.597656" xlink:href="#DejaVuSans-112"/>
      <use x="222.074219" xlink:href="#DejaVuSans-111"/>
      <use x="283.255859" xlink:href="#DejaVuSans-114"/>
      <use x="322.119141" xlink:href="#DejaVuSans-99"/>
      <use x="377.099609" xlink:href="#DejaVuSans-105"/>
      <use x="404.882812" xlink:href="#DejaVuSans-243"/>
      <use x="466.064453" xlink:href="#DejaVuSans-110"/>
      <use x="529.443359" xlink:href="#DejaVuSans-32"/>
      <use x="561.230469" xlink:href="#DejaVuSans-66"/>
     </g>
    </g>
    <g id="line2d_27">
     <path d="M 12.00024 46.254928 
L 32.00024 46.254928 
" style="fill:none;stroke:#0000ff;stroke-linecap:square;stroke-width:1.5;"/>
    </g>
    <g id="line2d_28"/>
    <g id="text_10">
     <!-- Diferencia -->
     <defs>
      <path d="M 19.671875 64.796875 
L 19.671875 8.109375 
L 31.59375 8.109375 
Q 46.6875 8.109375 53.6875 14.9375 
Q 60.6875 21.78125 60.6875 36.53125 
Q 60.6875 51.171875 53.6875 57.984375 
Q 46.6875 64.796875 31.59375 64.796875 
z
M 9.8125 72.90625 
L 30.078125 72.90625 
Q 51.265625 72.90625 61.171875 64.09375 
Q 71.09375 55.28125 71.09375 36.53125 
Q 71.09375 17.671875 61.125 8.828125 
Q 51.171875 0 30.078125 0 
L 9.8125 0 
z
" id="DejaVuSans-68"/>
      <path d="M 37.109375 75.984375 
L 37.109375 68.5 
L 28.515625 68.5 
Q 23.6875 68.5 21.796875 66.546875 
Q 19.921875 64.59375 19.921875 59.515625 
L 19.921875 54.6875 
L 34.71875 54.6875 
L 34.71875 47.703125 
L 19.921875 47.703125 
L 19.921875 0 
L 10.890625 0 
L 10.890625 47.703125 
L 2.296875 47.703125 
L 2.296875 54.6875 
L 10.890625 54.6875 
L 10.890625 58.5 
Q 10.890625 67.625 15.140625 71.796875 
Q 19.390625 75.984375 28.609375 75.984375 
z
" id="DejaVuSans-102"/>
      <path d="M 56.203125 29.59375 
L 56.203125 25.203125 
L 14.890625 25.203125 
Q 15.484375 15.921875 20.484375 11.0625 
Q 25.484375 6.203125 34.421875 6.203125 
Q 39.59375 6.203125 44.453125 7.46875 
Q 49.3125 8.734375 54.109375 11.28125 
L 54.109375 2.78125 
Q 49.265625 0.734375 44.1875 -0.34375 
Q 39.109375 -1.421875 33.890625 -1.421875 
Q 20.796875 -1.421875 13.15625 6.1875 
Q 5.515625 13.8125 5.515625 26.8125 
Q 5.515625 40.234375 12.765625 48.109375 
Q 20.015625 56 32.328125 56 
Q 43.359375 56 49.78125 48.890625 
Q 56.203125 41.796875 56.203125 29.59375 
z
M 47.21875 32.234375 
Q 47.125 39.59375 43.09375 43.984375 
Q 39.0625 48.390625 32.421875 48.390625 
Q 24.90625 48.390625 20.390625 44.140625 
Q 15.875 39.890625 15.1875 32.171875 
z
" id="DejaVuSans-101"/>
      <path d="M 34.28125 27.484375 
Q 23.390625 27.484375 19.1875 25 
Q 14.984375 22.515625 14.984375 16.5 
Q 14.984375 11.71875 18.140625 8.90625 
Q 21.296875 6.109375 26.703125 6.109375 
Q 34.1875 6.109375 38.703125 11.40625 
Q 43.21875 16.703125 43.21875 25.484375 
L 43.21875 27.484375 
z
M 52.203125 31.203125 
L 52.203125 0 
L 43.21875 0 
L 43.21875 8.296875 
Q 40.140625 3.328125 35.546875 0.953125 
Q 30.953125 -1.421875 24.3125 -1.421875 
Q 15.921875 -1.421875 10.953125 3.296875 
Q 6 8.015625 6 15.921875 
Q 6 25.140625 12.171875 29.828125 
Q 18.359375 34.515625 30.609375 34.515625 
L 43.21875 34.515625 
L 43.21875 35.40625 
Q 43.21875 41.609375 39.140625 45 
Q 35.0625 48.390625 27.6875 48.390625 
Q 23 48.390625 18.546875 47.265625 
Q 14.109375 46.140625 10.015625 43.890625 
L 10.015625 52.203125 
Q 14.9375 54.109375 19.578125 55.046875 
Q 24.21875 56 28.609375 56 
Q 40.484375 56 46.34375 49.84375 
Q 52.203125 43.703125 52.203125 31.203125 
z
" id="DejaVuSans-97"/>
     </defs>
     <g transform="translate(40.00024 49.754928)scale(0.1 -0.1)">
      <use xlink:href="#DejaVuSans-68"/>
      <use x="77.001953" xlink:href="#DejaVuSans-105"/>
      <use x="104.785156" xlink:href="#DejaVuSans-102"/>
      <use x="139.990234" xlink:href="#DejaVuSans-101"/>
      <use x="201.513672" xlink:href="#DejaVuSans-114"/>
      <use x="240.376953" xlink:href="#DejaVuSans-101"/>
      <use x="301.900391" xlink:href="#DejaVuSans-110"/>
      <use x="365.279297" xlink:href="#DejaVuSans-99"/>
      <use x="420.259766" xlink:href="#DejaVuSans-105"/>
      <use x="448.042969" xlink:href="#DejaVuSans-97"/>
     </g>
    </g>
    <g id="line2d_29">
     <path d="M 12.00024 60.934615 
L 32.00024 60.934615 
" style="fill:none;stroke:#008000;stroke-dasharray:5.55,2.4;stroke-dashoffset:0;stroke-width:1.5;"/>
    </g>
    <g id="text_11">
     <!-- Verdadero $p_A$ (desconocido) -->
     <defs>
      <path d="M 28.609375 0 
L 0.78125 72.90625 
L 11.078125 72.90625 
L 34.1875 11.53125 
L 57.328125 72.90625 
L 67.578125 72.90625 
L 39.796875 0 
z
" id="DejaVuSans-86"/>
      <path d="M 45.40625 46.390625 
L 45.40625 75.984375 
L 54.390625 75.984375 
L 54.390625 0 
L 45.40625 0 
L 45.40625 8.203125 
Q 42.578125 3.328125 38.25 0.953125 
Q 33.9375 -1.421875 27.875 -1.421875 
Q 17.96875 -1.421875 11.734375 6.484375 
Q 5.515625 14.40625 5.515625 27.296875 
Q 5.515625 40.1875 11.734375 48.09375 
Q 17.96875 56 27.875 56 
Q 33.9375 56 38.25 53.625 
Q 42.578125 51.265625 45.40625 46.390625 
z
M 14.796875 27.296875 
Q 14.796875 17.390625 18.875 11.75 
Q 22.953125 6.109375 30.078125 6.109375 
Q 37.203125 6.109375 41.296875 11.75 
Q 45.40625 17.390625 45.40625 27.296875 
Q 45.40625 37.203125 41.296875 42.84375 
Q 37.203125 48.484375 30.078125 48.484375 
Q 22.953125 48.484375 18.875 42.84375 
Q 14.796875 37.203125 14.796875 27.296875 
z
" id="DejaVuSans-100"/>
      <path d="M 49.609375 33.6875 
Q 49.609375 40.875 46.484375 44.671875 
Q 43.359375 48.484375 37.5 48.484375 
Q 33.5 48.484375 29.859375 46.4375 
Q 26.21875 44.390625 23.390625 40.484375 
Q 20.609375 36.625 18.9375 31.15625 
Q 17.28125 25.6875 17.28125 20.3125 
Q 17.28125 13.484375 20.40625 9.796875 
Q 23.53125 6.109375 29.296875 6.109375 
Q 33.546875 6.109375 37.1875 8.109375 
Q 40.828125 10.109375 43.40625 13.921875 
Q 46.1875 17.921875 47.890625 23.34375 
Q 49.609375 28.765625 49.609375 33.6875 
z
M 21.78125 46.390625 
Q 25.390625 51.125 30.296875 53.5625 
Q 35.203125 56 41.21875 56 
Q 49.609375 56 54.25 50.5 
Q 58.890625 45.015625 58.890625 35.109375 
Q 58.890625 27 56 19.65625 
Q 53.125 12.3125 47.703125 6.5 
Q 44.09375 2.640625 39.546875 0.609375 
Q 35.015625 -1.421875 29.984375 -1.421875 
Q 24.171875 -1.421875 20.21875 1 
Q 16.265625 3.421875 14.3125 8.203125 
L 8.6875 -20.796875 
L -0.296875 -20.796875 
L 14.40625 54.6875 
L 23.390625 54.6875 
z
" id="DejaVuSans-Oblique-112"/>
      <path d="M 36.8125 72.90625 
L 48 72.90625 
L 61.53125 0 
L 51.21875 0 
L 48.1875 18.703125 
L 15.375 18.703125 
L 5.078125 0 
L -5.328125 0 
z
M 40.375 63.1875 
L 19.921875 26.90625 
L 46.6875 26.90625 
z
" id="DejaVuSans-Oblique-65"/>
      <path d="M 31 75.875 
Q 24.46875 64.65625 21.28125 53.65625 
Q 18.109375 42.671875 18.109375 31.390625 
Q 18.109375 20.125 21.3125 9.0625 
Q 24.515625 -2 31 -13.1875 
L 23.1875 -13.1875 
Q 15.875 -1.703125 12.234375 9.375 
Q 8.59375 20.453125 8.59375 31.390625 
Q 8.59375 42.28125 12.203125 53.3125 
Q 15.828125 64.359375 23.1875 75.875 
z
" id="DejaVuSans-40"/>
      <path d="M 44.28125 53.078125 
L 44.28125 44.578125 
Q 40.484375 46.53125 36.375 47.5 
Q 32.28125 48.484375 27.875 48.484375 
Q 21.1875 48.484375 17.84375 46.4375 
Q 14.5 44.390625 14.5 40.28125 
Q 14.5 37.15625 16.890625 35.375 
Q 19.28125 33.59375 26.515625 31.984375 
L 29.59375 31.296875 
Q 39.15625 29.25 43.1875 25.515625 
Q 47.21875 21.78125 47.21875 15.09375 
Q 47.21875 7.46875 41.1875 3.015625 
Q 35.15625 -1.421875 24.609375 -1.421875 
Q 20.21875 -1.421875 15.453125 -0.5625 
Q 10.6875 0.296875 5.421875 2 
L 5.421875 11.28125 
Q 10.40625 8.6875 15.234375 7.390625 
Q 20.0625 6.109375 24.8125 6.109375 
Q 31.15625 6.109375 34.5625 8.28125 
Q 37.984375 10.453125 37.984375 14.40625 
Q 37.984375 18.0625 35.515625 20.015625 
Q 33.0625 21.96875 24.703125 23.78125 
L 21.578125 24.515625 
Q 13.234375 26.265625 9.515625 29.90625 
Q 5.8125 33.546875 5.8125 39.890625 
Q 5.8125 47.609375 11.28125 51.796875 
Q 16.75 56 26.8125 56 
Q 31.78125 56 36.171875 55.265625 
Q 40.578125 54.546875 44.28125 53.078125 
z
" id="DejaVuSans-115"/>
      <path d="M 8.015625 75.875 
L 15.828125 75.875 
Q 23.140625 64.359375 26.78125 53.3125 
Q 30.421875 42.28125 30.421875 31.390625 
Q 30.421875 20.453125 26.78125 9.375 
Q 23.140625 -1.703125 15.828125 -13.1875 
L 8.015625 -13.1875 
Q 14.5 -2 17.703125 9.0625 
Q 20.90625 20.125 20.90625 31.390625 
Q 20.90625 42.671875 17.703125 53.65625 
Q 14.5 64.65625 8.015625 75.875 
z
" id="DejaVuSans-41"/>
     </defs>
     <g transform="translate(40.00024 64.434615)scale(0.1 -0.1)">
      <use transform="translate(0 0.015625)" xlink:href="#DejaVuSans-86"/>
      <use transform="translate(68.408203 0.015625)" xlink:href="#DejaVuSans-101"/>
      <use transform="translate(129.931641 0.015625)" xlink:href="#DejaVuSans-114"/>
      <use transform="translate(171.044922 0.015625)" xlink:href="#DejaVuSans-100"/>
      <use transform="translate(234.521484 0.015625)" xlink:href="#DejaVuSans-97"/>
      <use transform="translate(295.800781 0.015625)" xlink:href="#DejaVuSans-100"/>
      <use transform="translate(359.277344 0.015625)" xlink:href="#DejaVuSans-101"/>
      <use transform="translate(420.800781 0.015625)" xlink:href="#DejaVuSans-114"/>
      <use transform="translate(461.914062 0.015625)" xlink:href="#DejaVuSans-111"/>
      <use transform="translate(523.095703 0.015625)" xlink:href="#DejaVuSans-32"/>
      <use transform="translate(554.882812 0.015625)" xlink:href="#DejaVuSans-Oblique-112"/>
      <use transform="translate(618.359375 -16.390625)scale(0.7)" xlink:href="#DejaVuSans-Oblique-65"/>
      <use transform="translate(668.979492 0.015625)" xlink:href="#DejaVuSans-32"/>
      <use transform="translate(700.766602 0.015625)" xlink:href="#DejaVuSans-40"/>
      <use transform="translate(739.780273 0.015625)" xlink:href="#DejaVuSans-100"/>
      <use transform="translate(803.256836 0.015625)" xlink:href="#DejaVuSans-101"/>
      <use transform="translate(864.780273 0.015625)" xlink:href="#DejaVuSans-115"/>
      <use transform="translate(916.879883 0.015625)" xlink:href="#DejaVuSans-99"/>
      <use transform="translate(971.860352 0.015625)" xlink:href="#DejaVuSans-111"/>
      <use transform="translate(1033.041992 0.015625)" xlink:href="#DejaVuSans-110"/>
      <use transform="translate(1096.420898 0.015625)" xlink:href="#DejaVuSans-111"/>
      <use transform="translate(1157.602539 0.015625)" xlink:href="#DejaVuSans-99"/>
      <use transform="translate(1212.583008 0.015625)" xlink:href="#DejaVuSans-105"/>
      <use transform="translate(1240.366211 0.015625)" xlink:href="#DejaVuSans-100"/>
      <use transform="translate(1303.842773 0.015625)" xlink:href="#DejaVuSans-111"/>
      <use transform="translate(1365.024414 0.015625)" xlink:href="#DejaVuSans-41"/>
     </g>
    </g>
    <g id="line2d_30">
     <path d="M 12.00024 75.634615 
L 32.00024 75.634615 
" style="fill:none;stroke:#ff0000;stroke-dasharray:5.55,2.4;stroke-dashoffset:0;stroke-width:1.5;"/>
    </g>
    <g id="text_12">
     <!-- Verdadero $p_B$ (desconocido) -->
     <defs>
      <path d="M 16.890625 72.90625 
L 42.09375 72.90625 
Q 52.34375 72.90625 57.421875 69.09375 
Q 62.5 65.28125 62.5 57.625 
Q 62.5 50.59375 58.125 45.484375 
Q 53.765625 40.375 46.6875 39.3125 
Q 52.734375 37.9375 55.765625 34.078125 
Q 58.796875 30.21875 58.796875 23.78125 
Q 58.796875 12.796875 50.65625 6.390625 
Q 42.53125 0 28.421875 0 
L 2.6875 0 
z
M 19.28125 34.8125 
L 14.109375 8.109375 
L 29.984375 8.109375 
Q 38.921875 8.109375 43.75 12.203125 
Q 48.578125 16.3125 48.578125 23.78125 
Q 48.578125 29.546875 45.375 32.171875 
Q 42.1875 34.8125 35.109375 34.8125 
z
M 25.09375 64.796875 
L 20.796875 42.828125 
L 35.5 42.828125 
Q 43.359375 42.828125 47.78125 46.234375 
Q 52.203125 49.65625 52.203125 55.71875 
Q 52.203125 60.453125 49.21875 62.625 
Q 46.234375 64.796875 39.703125 64.796875 
z
" id="DejaVuSans-Oblique-66"/>
     </defs>
     <g transform="translate(40.00024 79.134615)scale(0.1 -0.1)">
      <use transform="translate(0 0.015625)" xlink:href="#DejaVuSans-86"/>
      <use transform="translate(68.408203 0.015625)" xlink:href="#DejaVuSans-101"/>
      <use transform="translate(129.931641 0.015625)" xlink:href="#DejaVuSans-114"/>
      <use transform="translate(171.044922 0.015625)" xlink:href="#DejaVuSans-100"/>
      <use transform="translate(234.521484 0.015625)" xlink:href="#DejaVuSans-97"/>
      <use transform="translate(295.800781 0.015625)" xlink:href="#DejaVuSans-100"/>
      <use transform="translate(359.277344 0.015625)" xlink:href="#DejaVuSans-101"/>
      <use transform="translate(420.800781 0.015625)" xlink:href="#DejaVuSans-114"/>
      <use transform="translate(461.914062 0.015625)" xlink:href="#DejaVuSans-111"/>
      <use transform="translate(523.095703 0.015625)" xlink:href="#DejaVuSans-32"/>
      <use transform="translate(554.882812 0.015625)" xlink:href="#DejaVuSans-Oblique-112"/>
      <use transform="translate(618.359375 -16.390625)scale(0.7)" xlink:href="#DejaVuSans-Oblique-66"/>
      <use transform="translate(669.116211 0.015625)" xlink:href="#DejaVuSans-32"/>
      <use transform="translate(700.90332 0.015625)" xlink:href="#DejaVuSans-40"/>
      <use transform="translate(739.916992 0.015625)" xlink:href="#DejaVuSans-100"/>
      <use transform="translate(803.393555 0.015625)" xlink:href="#DejaVuSans-101"/>
      <use transform="translate(864.916992 0.015625)" xlink:href="#DejaVuSans-115"/>
      <use transform="translate(917.016602 0.015625)" xlink:href="#DejaVuSans-99"/>
      <use transform="translate(971.99707 0.015625)" xlink:href="#DejaVuSans-111"/>
      <use transform="translate(1033.178711 0.015625)" xlink:href="#DejaVuSans-110"/>
      <use transform="translate(1096.557617 0.015625)" xlink:href="#DejaVuSans-111"/>
      <use transform="translate(1157.739258 0.015625)" xlink:href="#DejaVuSans-99"/>
      <use transform="translate(1212.719727 0.015625)" xlink:href="#DejaVuSans-105"/>
      <use transform="translate(1240.50293 0.015625)" xlink:href="#DejaVuSans-100"/>
      <use transform="translate(1303.979492 0.015625)" xlink:href="#DejaVuSans-111"/>
      <use transform="translate(1365.161133 0.015625)" xlink:href="#DejaVuSans-41"/>
     </g>
    </g>
    <g id="line2d_31">
     <path d="M 12.00024 90.333053 
L 32.00024 90.333053 
" style="fill:none;stroke:#0000ff;stroke-dasharray:5.55,2.4;stroke-dashoffset:0;stroke-width:1.5;"/>
    </g>
    <g id="text_13">
     <!-- Verdadero $\delta$ (desconocido) -->
     <defs>
      <path d="M 54.25 63.328125 
Q 49.953125 66.75 38.28125 66.75 
Q 25.921875 66.75 24.8125 61.03125 
Q 23.921875 56.546875 36.375 54.203125 
Q 46.140625 52.390625 50.828125 46.921875 
Q 56.5 40.328125 53.859375 26.8125 
Q 51.3125 13.875 43.171875 6.25 
Q 34.96875 -1.421875 23.25 -1.421875 
Q 11.578125 -1.421875 6.34375 6.25 
Q 1.125 13.875 3.765625 27.296875 
Q 5.671875 37.25 13.921875 45.3125 
Q 17.140625 48.4375 21.140625 50.203125 
Q 14.265625 54.046875 15.625 60.9375 
Q 18.21875 74.21875 39.75 74.21875 
Q 50.53125 74.21875 55.71875 70.796875 
z
M 27.390625 47.75 
Q 23.828125 46.34375 20.40625 42.78125 
Q 15.140625 37.25 13.234375 27.296875 
Q 11.28125 17.390625 14.359375 11.8125 
Q 17.484375 6.203125 24.75 6.203125 
Q 31.9375 6.203125 37.203125 11.859375 
Q 42.53125 17.53125 44.34375 26.8125 
Q 46.1875 36.53125 42.671875 41.21875 
Q 38.921875 46.234375 32.859375 46.78125 
Q 29.78125 47.078125 27.390625 47.75 
z
" id="DejaVuSans-Oblique-948"/>
     </defs>
     <g transform="translate(40.00024 93.833053)scale(0.1 -0.1)">
      <use transform="translate(0 0.015625)" xlink:href="#DejaVuSans-86"/>
      <use transform="translate(68.408203 0.015625)" xlink:href="#DejaVuSans-101"/>
      <use transform="translate(129.931641 0.015625)" xlink:href="#DejaVuSans-114"/>
      <use transform="translate(171.044922 0.015625)" xlink:href="#DejaVuSans-100"/>
      <use transform="translate(234.521484 0.015625)" xlink:href="#DejaVuSans-97"/>
      <use transform="translate(295.800781 0.015625)" xlink:href="#DejaVuSans-100"/>
      <use transform="translate(359.277344 0.015625)" xlink:href="#DejaVuSans-101"/>
      <use transform="translate(420.800781 0.015625)" xlink:href="#DejaVuSans-114"/>
      <use transform="translate(461.914062 0.015625)" xlink:href="#DejaVuSans-111"/>
      <use transform="translate(523.095703 0.015625)" xlink:href="#DejaVuSans-32"/>
      <use transform="translate(554.882812 0.015625)" xlink:href="#DejaVuSans-Oblique-948"/>
      <use transform="translate(616.064453 0.015625)" xlink:href="#DejaVuSans-32"/>
      <use transform="translate(647.851562 0.015625)" xlink:href="#DejaVuSans-40"/>
      <use transform="translate(686.865234 0.015625)" xlink:href="#DejaVuSans-100"/>
      <use transform="translate(750.341797 0.015625)" xlink:href="#DejaVuSans-101"/>
      <use transform="translate(811.865234 0.015625)" xlink:href="#DejaVuSans-115"/>
      <use transform="translate(863.964844 0.015625)" xlink:href="#DejaVuSans-99"/>
      <use transform="translate(918.945312 0.015625)" xlink:href="#DejaVuSans-111"/>
      <use transform="translate(980.126953 0.015625)" xlink:href="#DejaVuSans-110"/>
      <use transform="translate(1043.505859 0.015625)" xlink:href="#DejaVuSans-111"/>
      <use transform="translate(1104.6875 0.015625)" xlink:href="#DejaVuSans-99"/>
      <use transform="translate(1159.667969 0.015625)" xlink:href="#DejaVuSans-105"/>
      <use transform="translate(1187.451172 0.015625)" xlink:href="#DejaVuSans-100"/>
      <use transform="translate(1250.927734 0.015625)" xlink:href="#DejaVuSans-111"/>
      <use transform="translate(1312.109375 0.015625)" xlink:href="#DejaVuSans-41"/>
     </g>
    </g>
   </g>
  </g>
 </g>
 <defs>
  <clipPath id="p7636eae8a4">
   <rect height="261.450145" width="425.99952" x="3.00024" y="3.00024"/>
  </clipPath>
 </defs>
</svg>
