<?xml version="1.0" encoding="UTF-8" standalone="no"?>
<!DOCTYPE svg PUBLIC "-//W3C//DTD SVG 1.1//EN"
 "http://www.w3.org/Graphics/SVG/1.1/DTD/svg11.dtd">
<!-- Generated by graphviz version 2.43.0 (0)
 -->
<!-- Title: G Pages: 1 -->
<svg width="246pt" height="507pt"
 viewBox="0.00 0.00 246.13 506.76" xmlns="http://www.w3.org/2000/svg" xmlns:xlink="http://www.w3.org/1999/xlink">
<g id="graph0" class="graph" transform="scale(1 1) rotate(0) translate(4 502.76)">
<title>G</title>
<polygon fill="white" stroke="transparent" points="-4,4 -4,-502.76 242.13,-502.76 242.13,4 -4,4"/>
<g id="clust1" class="cluster">
<title>cluster0</title>
<polygon fill="none" stroke="red" points="77.5,-222.26 77.5,-407.76 205.5,-407.76 205.5,-222.26 77.5,-222.26"/>
<text text-anchor="middle" x="119" y="-392.56" font-family="Times,serif" font-size="14.00">$theta_i$</text>
</g>
<!-- d -->
<g id="node1" class="node">
<title>d</title>
<ellipse fill="none" stroke="black" cx="34.5" cy="-473.76" rx="25" ry="25"/>
<text text-anchor="middle" x="34.5" y="-470.06" font-family="Times,serif" font-size="14.00">Nodo</text>
</g>
<!-- e -->
<g id="node2" class="node">
<title>e</title>
<path fill="none" stroke="black" d="M57,-386.26C57,-386.26 12,-386.26 12,-386.26 6,-386.26 0,-380.26 0,-374.26 0,-374.26 0,-329.26 0,-329.26 0,-323.26 6,-317.26 12,-317.26 12,-317.26 57,-317.26 57,-317.26 63,-317.26 69,-323.26 69,-329.26 69,-329.26 69,-374.26 69,-374.26 69,-380.26 63,-386.26 57,-386.26"/>
<text text-anchor="middle" x="34.5" y="-348.06" font-family="Times,serif" font-size="14.00">$mu$</text>
</g>
<!-- d&#45;&gt;e -->
<g id="edge1" class="edge">
<title>d&#45;&gt;e</title>
<path fill="none" stroke="black" d="M34.5,-448.48C34.5,-433.59 34.5,-414.1 34.5,-396.59"/>
<polygon fill="black" stroke="black" points="38,-396.56 34.5,-386.56 31,-396.56 38,-396.56"/>
<text text-anchor="middle" x="69" y="-419.56" font-family="Times,serif" font-size="14.00"> mi texto </text>
</g>
<!-- f -->
<g id="node3" class="node">
<title>f</title>
<text text-anchor="middle" x="137.5" y="-348.06" font-family="Times,serif" font-size="14.00">VI</text>
</g>
<!-- e&#45;&gt;f -->
<g id="edge2" class="edge">
<title>e&#45;&gt;f</title>
<path fill="none" stroke="black" d="M69.08,-351.76C69.17,-351.76 69.26,-351.76 69.34,-351.76"/>
<polygon fill="black" stroke="black" points="67.5,-355.26 77.5,-351.76 67.5,-348.26 67.5,-355.26"/>
<text text-anchor="middle" x="88.75" y="-358.56" font-family="Times,serif" font-size="14.00"> &#160;</text>
</g>
<!-- g -->
<g id="node4" class="node">
<title>g</title>
<path fill="none" stroke="black" d="M185.5,-280.26C185.5,-280.26 97.5,-280.26 97.5,-280.26 91.5,-280.26 85.5,-274.26 85.5,-268.26 85.5,-268.26 85.5,-242.26 85.5,-242.26 85.5,-236.26 91.5,-230.26 97.5,-230.26 97.5,-230.26 185.5,-230.26 185.5,-230.26 191.5,-230.26 197.5,-236.26 197.5,-242.26 197.5,-242.26 197.5,-268.26 197.5,-268.26 197.5,-274.26 191.5,-280.26 185.5,-280.26"/>
<text text-anchor="middle" x="141.5" y="-251.56" font-family="Times,serif" font-size="14.00">$sum_i x_i$</text>
</g>
<!-- f&#45;&gt;g -->
<g id="edge3" class="edge">
<title>f&#45;&gt;g</title>
<path fill="none" stroke="black" d="M138.53,-326.43C138.99,-315.51 139.54,-302.45 140.05,-290.57"/>
<polygon fill="black" stroke="black" points="143.55,-290.65 140.47,-280.52 136.55,-290.36 143.55,-290.65"/>
</g>
<!-- h -->
<g id="node5" class="node">
<title>h</title>
<ellipse fill="none" stroke="black" cx="141.5" cy="-96.63" rx="92.76" ry="92.76"/>
<ellipse fill="none" stroke="black" cx="141.5" cy="-96.63" rx="96.76" ry="96.76"/>
<text text-anchor="middle" x="141.5" y="-92.93" font-family="Times,serif" font-size="14.00">$int beta_i di$</text>
</g>
<!-- g&#45;&gt;h -->
<g id="edge4" class="edge">
<title>g&#45;&gt;h</title>
<path fill="none" stroke="black" d="M141.5,-222.27C141.5,-216.41 141.5,-210.01 141.5,-203.3"/>
<polygon fill="black" stroke="black" points="145,-203.26 141.5,-193.26 138,-203.26 145,-203.26"/>
</g>
</g>
</svg>
