<?xml version="1.0" encoding="UTF-8" standalone="no"?>
<svg
   xmlns:dc="http://purl.org/dc/elements/1.1/"
   xmlns:cc="http://creativecommons.org/ns#"
   xmlns:rdf="http://www.w3.org/1999/02/22-rdf-syntax-ns#"
   xmlns:svg="http://www.w3.org/2000/svg"
   xmlns="http://www.w3.org/2000/svg"
   xmlns:sodipodi="http://sodipodi.sourceforge.net/DTD/sodipodi-0.dtd"
   xmlns:inkscape="http://www.inkscape.org/namespaces/inkscape"
   width="254pt"
   height="523pt"
   viewBox="0.00 0.00 254.13 522.76"
   version="1.1"
   id="svg8090"
   sodipodi:docname="tutorial_dot.gv.svg"
   inkscape:version="1.0.2 (e86c870, 2021-01-15)">
  <metadata
     id="metadata8096">
    <rdf:RDF>
      <cc:Work
         rdf:about="">
        <dc:format>image/svg+xml</dc:format>
        <dc:type
           rdf:resource="http://purl.org/dc/dcmitype/StillImage" />
      </cc:Work>
    </rdf:RDF>
  </metadata>
  <defs
     id="defs8094" />
  <sodipodi:namedview
     pagecolor="#ffffff"
     bordercolor="#666666"
     borderopacity="1"
     objecttolerance="10"
     gridtolerance="10"
     guidetolerance="10"
     inkscape:pageopacity="0"
     inkscape:pageshadow="2"
     inkscape:window-width="1848"
     inkscape:window-height="1016"
     id="namedview8092"
     showgrid="false"
     inkscape:zoom="0.87408133"
     inkscape:cx="169.33333"
     inkscape:cy="348.66667"
     inkscape:window-x="72"
     inkscape:window-y="27"
     inkscape:window-maximized="1"
     inkscape:current-layer="svg8090"
     inkscape:document-rotation="0" />
  <polygon
     fill="#ffffff"
     stroke="transparent"
     points="250.13,-518.76 250.13,4 -4,4 -4,-518.76 "
     id="polygon8009"
     transform="translate(4,518.76)" />
  <polygon
     fill="none"
     stroke="#ff0000"
     points="77.5,-238.26 77.5,-423.76 205.5,-423.76 205.5,-238.26 "
     id="polygon8013"
     transform="translate(4,518.76)" />
  <text
     text-anchor="middle"
     x="123"
     y="110.2"
     font-family="Times, serif"
     font-size="14px"
     id="text8015">\fontsize{30pt}{1em}$\theta_i$</text>
  <circle
     fill="none"
     stroke="#000000"
     cx="38.5"
     cy="28.99999"
     id="ellipse8020"
     r="25" />
  <text
     text-anchor="middle"
     x="38.5"
     y="32.700001"
     font-family="Times, serif"
     font-size="14px"
     id="text8022"
     style="font-size:12.0061px">\fontsize{30pt}{1em}$\text{Nodo}$</text>
  <path
     fill="none"
     stroke="#000000"
     d="m 61,116.5 c 0,0 -45,0 -45,0 -6,0 -12,6 -12,12 0,0 0,45 0,45 0,6 6,12 12,12 0,0 45,0 45,0 6,0 12,-6 12,-12 0,0 0,-45 0,-45 0,-6 -6,-12 -12,-12"
     id="path8027" />
  <text
     text-anchor="middle"
     x="38.5"
     y="154.7"
     font-family="Times, serif"
     font-size="14px"
     id="text8029">\fontsize{30pt}{1em}$\mu$</text>
  <path
     fill="none"
     stroke="#000000"
     d="m 38.5,54.28 c 0,14.89 0,34.38 0,51.89"
     id="path8034" />
  <polygon
     fill="#000000"
     stroke="#000000"
     points="34.5,-402.56 31,-412.56 38,-412.56 "
     id="polygon8036"
     transform="translate(4,518.76)" />
  <text
     text-anchor="middle"
     x="73"
     y="83.200005"
     font-family="Times, serif"
     font-size="14px"
     id="text8038">mi texto</text>
  <text
     text-anchor="middle"
     x="141.5"
     y="154.7"
     font-family="Times, serif"
     font-size="14px"
     id="text8043">VI</text>
  <path
     fill="none"
     stroke="#000000"
     d="m 73.08,151 c 0.09,0 0.18,0 0.26,0"
     id="path8048" />
  <polygon
     fill="#000000"
     stroke="#000000"
     points="77.5,-367.76 67.5,-364.26 67.5,-371.26 "
     id="polygon8050"
     transform="translate(4,518.76)" />
  <text
     text-anchor="middle"
     x="92.75"
     y="144.2"
     font-family="Times, serif"
     font-size="14px"
     id="text8052"> </text>
  <path
     fill="none"
     stroke="#000000"
     d="m 189.5,222.5 c 0,0 -88,0 -88,0 -6,0 -12,6 -12,12 0,0 0,26 0,26 0,6 6,12 12,12 0,0 88,0 88,0 6,0 12,-6 12,-12 0,0 0,-26 0,-26 0,-6 -6,-12 -12,-12"
     id="path8057" />
  <text
     text-anchor="middle"
     x="145.5"
     y="251.2"
     font-family="Times, serif"
     font-size="14px"
     id="text8059">\fontsize{30pt}{1em}$\sum_i x_i$</text>
  <path
     fill="none"
     stroke="#000000"
     d="m 142.53,176.33 c 0.46,10.92 1.01,23.98 1.52,35.86"
     id="path8064" />
  <polygon
     fill="#000000"
     stroke="#000000"
     points="140.47,-296.52 136.55,-306.36 143.55,-306.65 "
     id="polygon8066"
     transform="translate(4,518.76)" />
  <circle
     fill="none"
     stroke="#000000"
     cx="145.5"
     cy="414.13"
     id="ellipse8071"
     r="92.75" />
  <circle
     fill="none"
     stroke="#000000"
     cx="145.5"
     cy="414.13"
     id="ellipse8073"
     r="96.75" />
  <circle
     fill="none"
     stroke="#000000"
     cx="145.5"
     cy="414.13"
     id="ellipse8075"
     r="100.76" />
  <circle
     fill="none"
     stroke="#000000"
     cx="145.5"
     cy="414.13"
     id="ellipse8077"
     r="104.76" />
  <text
     text-anchor="middle"
     x="145.5"
     y="417.82999"
     font-family="Times, serif"
     font-size="14px"
     id="text8079">\fontsize{30pt}{1em}$\huge \int \normalsize \beta_i di$</text>
  <path
     fill="none"
     stroke="#000000"
     d="m 145.5,280.49 c 0,5.83 0,12.21 0,18.91"
     id="path8084" />
  <polygon
     fill="#000000"
     stroke="#000000"
     points="141.5,-209.36 138,-219.36 145,-219.36 "
     id="polygon8086"
     transform="translate(4,518.76)" />
</svg>
