<?xml version="1.0" encoding="utf-8" standalone="no"?>
<!DOCTYPE svg PUBLIC "-//W3C//DTD SVG 1.1//EN"
  "http://www.w3.org/Graphics/SVG/1.1/DTD/svg11.dtd">
<!-- Created with matplotlib (https://matplotlib.org/) -->
<svg height="360pt" version="1.1" viewBox="0 0 576 360" width="576pt" xmlns="http://www.w3.org/2000/svg" xmlns:xlink="http://www.w3.org/1999/xlink">
 <metadata>
  <rdf:RDF xmlns:cc="http://creativecommons.org/ns#" xmlns:dc="http://purl.org/dc/elements/1.1/" xmlns:rdf="http://www.w3.org/1999/02/22-rdf-syntax-ns#">
   <cc:Work>
    <dc:type rdf:resource="http://purl.org/dc/dcmitype/StillImage"/>
    <dc:date>2021-03-23T17:35:42.921179</dc:date>
    <dc:format>image/svg+xml</dc:format>
    <dc:creator>
     <cc:Agent>
      <dc:title>Matplotlib v3.3.3, https://matplotlib.org/</dc:title>
     </cc:Agent>
    </dc:creator>
   </cc:Work>
  </rdf:RDF>
 </metadata>
 <defs>
  <style type="text/css">*{stroke-linecap:butt;stroke-linejoin:round;}</style>
 </defs>
 <g id="figure_1">
  <g id="patch_1">
   <path d="M 0 360 
L 576 360 
L 576 0 
L 0 0 
z
" style="fill:none;"/>
  </g>
  <g id="axes_1">
   <g id="patch_2">
    <path d="M 72 315 
L 274.909091 315 
L 274.909091 43.2 
L 72 43.2 
z
" style="fill:#ffffff;"/>
   </g>
   <g id="PolyCollection_1">
    <defs>
     <path d="M 81.22314 -57.369174 
L 81.22314 -58.832038 
L 81.373134 -58.8324 
L 81.523128 -58.833305 
L 81.673122 -58.834873 
L 81.823115 -58.838471 
L 81.973109 -58.843532 
L 82.123103 -58.85262 
L 82.273096 -58.864089 
L 82.42309 -58.879325 
L 82.573084 -58.898602 
L 82.723078 -58.924836 
L 82.873071 -58.957563 
L 83.023065 -58.994947 
L 83.173059 -59.03828 
L 83.323052 -59.087648 
L 83.473046 -59.144279 
L 83.62304 -59.205347 
L 83.773034 -59.272722 
L 83.923027 -59.345295 
L 84.073021 -59.421947 
L 84.223015 -59.50377 
L 84.373008 -59.590537 
L 84.523002 -59.679777 
L 84.672996 -59.772541 
L 84.822989 -59.866746 
L 84.972983 -59.964812 
L 85.122977 -60.067924 
L 85.272971 -60.174623 
L 85.422964 -60.281009 
L 85.572958 -60.391894 
L 85.722952 -60.511163 
L 85.872945 -60.634073 
L 86.022939 -60.761291 
L 86.172933 -60.89562 
L 86.322927 -61.035404 
L 86.47292 -61.183169 
L 86.622914 -61.337565 
L 86.772908 -61.498367 
L 86.922901 -61.666852 
L 87.072895 -61.845543 
L 87.222889 -62.031724 
L 87.372883 -62.228451 
L 87.522876 -62.431154 
L 87.67287 -62.643929 
L 87.822864 -62.859394 
L 87.972857 -63.084564 
L 88.122851 -63.314675 
L 88.272845 -63.548465 
L 88.422838 -63.783478 
L 88.572832 -64.020452 
L 88.722826 -64.262418 
L 88.87282 -64.506625 
L 89.022813 -64.754588 
L 89.172807 -65.002791 
L 89.322801 -65.253894 
L 89.472794 -65.508328 
L 89.622788 -65.769652 
L 89.772782 -66.037889 
L 89.922776 -66.314421 
L 90.072769 -66.602347 
L 90.222763 -66.900021 
L 90.372757 -67.213759 
L 90.52275 -67.54462 
L 90.672744 -67.892638 
L 90.822738 -68.258986 
L 90.972732 -68.645392 
L 91.122725 -69.054295 
L 91.272719 -69.487046 
L 91.422713 -69.941848 
L 91.572706 -70.424462 
L 91.7227 -70.925738 
L 91.872694 -71.449148 
L 92.022687 -71.998799 
L 92.172681 -72.567972 
L 92.322675 -73.161911 
L 92.472669 -73.76751 
L 92.622662 -74.393943 
L 92.772656 -75.042439 
L 92.92265 -75.702821 
L 93.072643 -76.373222 
L 93.222637 -77.059605 
L 93.372631 -77.751823 
L 93.522625 -78.451237 
L 93.672618 -79.159051 
L 93.822612 -79.872705 
L 93.972606 -80.592309 
L 94.122599 -81.306959 
L 94.272593 -82.028206 
L 94.422587 -82.76154 
L 94.572581 -83.49886 
L 94.722574 -84.234855 
L 94.872568 -84.971349 
L 95.022562 -85.728523 
L 95.172555 -86.48826 
L 95.322549 -87.260984 
L 95.472543 -88.048978 
L 95.622536 -88.854783 
L 95.77253 -89.67868 
L 95.922524 -90.51878 
L 96.072518 -91.389813 
L 96.222511 -92.280313 
L 96.372505 -93.190799 
L 96.522499 -94.132796 
L 96.672492 -95.099882 
L 96.822486 -96.090116 
L 96.97248 -97.104287 
L 97.122474 -98.144744 
L 97.272467 -99.210625 
L 97.422461 -100.297214 
L 97.572455 -101.409137 
L 97.722448 -102.539748 
L 97.872442 -103.694148 
L 98.022436 -104.86718 
L 98.17243 -106.058687 
L 98.322423 -107.27508 
L 98.472417 -108.521606 
L 98.622411 -109.784458 
L 98.772404 -111.06795 
L 98.922398 -112.382618 
L 99.072392 -113.72926 
L 99.222385 -115.100802 
L 99.372379 -116.515981 
L 99.522373 -117.956311 
L 99.672367 -119.434015 
L 99.82236 -120.95974 
L 99.972354 -122.520557 
L 100.122348 -124.130678 
L 100.272341 -125.781351 
L 100.422335 -127.469796 
L 100.572329 -129.191663 
L 100.722323 -130.95311 
L 100.872316 -132.763441 
L 101.02231 -134.589694 
L 101.172304 -136.440235 
L 101.322297 -138.320463 
L 101.472291 -140.211706 
L 101.622285 -142.113982 
L 101.772279 -144.028442 
L 101.922272 -145.962855 
L 102.072266 -147.873409 
L 102.22226 -149.778334 
L 102.372253 -151.67374 
L 102.522247 -153.546731 
L 102.672241 -155.403532 
L 102.822234 -157.242748 
L 102.972228 -159.05501 
L 103.122222 -160.859696 
L 103.272216 -162.641171 
L 103.422209 -164.399301 
L 103.572203 -166.137995 
L 103.722197 -167.848177 
L 103.87219 -169.536243 
L 104.022184 -171.202348 
L 104.172178 -172.855209 
L 104.322172 -174.479925 
L 104.472165 -176.083741 
L 104.622159 -177.670185 
L 104.772153 -179.235755 
L 104.922146 -180.773178 
L 105.07214 -182.293302 
L 105.222134 -183.798399 
L 105.372128 -185.287256 
L 105.522121 -186.767214 
L 105.672115 -188.235397 
L 105.822109 -189.703054 
L 105.972102 -191.17697 
L 106.122096 -192.665665 
L 106.27209 -194.165484 
L 106.422083 -195.692487 
L 106.572077 -197.245508 
L 106.722071 -198.828946 
L 106.872065 -200.437102 
L 107.022058 -202.10384 
L 107.172052 -203.81109 
L 107.322046 -205.558922 
L 107.472039 -207.366678 
L 107.622033 -209.217695 
L 107.772027 -211.109998 
L 107.922021 -213.054175 
L 108.072014 -215.023635 
L 108.222008 -217.029042 
L 108.372002 -219.037849 
L 108.521995 -221.088508 
L 108.671989 -223.142815 
L 108.821983 -225.194789 
L 108.971977 -227.249852 
L 109.12197 -229.295952 
L 109.271964 -231.310739 
L 109.421958 -233.300928 
L 109.571951 -235.234022 
L 109.721945 -237.12607 
L 109.871939 -238.960662 
L 110.021932 -240.743731 
L 110.171926 -242.435653 
L 110.32192 -244.041586 
L 110.471914 -245.586484 
L 110.621907 -247.050704 
L 110.771901 -248.446273 
L 110.921895 -249.772374 
L 111.071888 -251.021607 
L 111.221882 -252.214158 
L 111.371876 -253.375119 
L 111.52187 -254.482986 
L 111.671863 -255.549712 
L 111.821857 -256.616935 
L 111.971851 -257.689583 
L 112.121844 -258.77385 
L 112.271838 -259.859364 
L 112.421832 -260.986438 
L 112.571826 -262.132229 
L 112.721819 -263.327018 
L 112.871813 -264.557417 
L 113.021807 -265.836111 
L 113.1718 -267.163938 
L 113.321794 -268.544766 
L 113.471788 -269.966768 
L 113.621781 -271.433137 
L 113.771775 -272.936181 
L 113.921769 -274.459293 
L 114.071763 -276.016703 
L 114.221756 -277.614501 
L 114.37175 -279.229581 
L 114.521744 -280.844237 
L 114.671737 -282.479108 
L 114.821731 -284.095935 
L 114.971725 -285.715732 
L 115.121719 -287.319723 
L 115.271712 -288.901532 
L 115.421706 -290.431325 
L 115.5717 -291.913893 
L 115.721693 -293.323185 
L 115.871687 -294.668623 
L 116.021681 -295.94489 
L 116.171674 -297.128966 
L 116.321668 -298.228086 
L 116.471662 -299.234643 
L 116.621656 -300.128648 
L 116.771649 -300.966873 
L 116.921643 -301.667513 
L 117.071637 -302.294939 
L 117.22163 -302.836626 
L 117.371624 -303.291608 
L 117.521618 -303.647071 
L 117.671612 -303.934739 
L 117.821605 -304.165422 
L 117.971599 -304.318899 
L 118.121593 -304.415719 
L 118.271586 -304.445455 
L 118.42158 -304.418712 
L 118.571574 -304.343253 
L 118.721568 -304.210378 
L 118.871561 -304.017358 
L 119.021555 -303.766355 
L 119.171549 -303.440023 
L 119.321542 -303.065059 
L 119.471536 -302.616989 
L 119.62153 -302.116273 
L 119.771523 -301.555149 
L 119.921517 -300.950801 
L 120.071511 -300.310964 
L 120.221505 -299.609953 
L 120.371498 -298.878384 
L 120.521492 -298.111777 
L 120.671486 -297.34592 
L 120.821479 -296.551366 
L 120.971473 -295.761365 
L 121.121467 -294.970566 
L 121.271461 -294.176786 
L 121.421454 -293.373269 
L 121.571448 -292.564393 
L 121.721442 -291.752679 
L 121.871435 -290.932929 
L 122.021429 -290.094309 
L 122.171423 -289.243618 
L 122.321417 -288.358269 
L 122.47141 -287.416366 
L 122.621404 -286.41312 
L 122.771398 -285.373651 
L 122.921391 -284.276799 
L 123.071385 -283.108733 
L 123.221379 -281.877091 
L 123.371372 -280.58111 
L 123.521366 -279.220409 
L 123.67136 -277.796568 
L 123.821354 -276.32321 
L 123.971347 -274.819776 
L 124.121341 -273.285104 
L 124.271335 -271.724933 
L 124.421328 -270.151619 
L 124.571322 -268.572839 
L 124.721316 -267.003764 
L 124.87131 -265.454673 
L 125.021303 -263.931292 
L 125.171297 -262.403554 
L 125.321291 -260.916967 
L 125.471284 -259.442079 
L 125.621278 -257.996152 
L 125.771272 -256.565768 
L 125.921266 -255.169134 
L 126.071259 -253.780641 
L 126.221253 -252.383644 
L 126.371247 -250.998403 
L 126.52124 -249.586161 
L 126.671234 -248.168518 
L 126.821228 -246.708174 
L 126.971221 -245.240144 
L 127.121215 -243.738909 
L 127.271209 -242.206191 
L 127.421203 -240.629416 
L 127.571196 -239.011668 
L 127.72119 -237.350333 
L 127.871184 -235.65634 
L 128.021177 -233.909267 
L 128.171171 -232.127676 
L 128.321165 -230.305608 
L 128.471159 -228.462235 
L 128.621152 -226.583306 
L 128.771146 -224.683003 
L 128.92114 -222.774624 
L 129.071133 -220.854377 
L 129.221127 -218.92765 
L 129.371121 -217.008014 
L 129.521115 -215.103857 
L 129.671108 -213.206806 
L 129.821102 -211.34428 
L 129.971096 -209.500218 
L 130.121089 -207.667762 
L 130.271083 -205.870056 
L 130.421077 -204.094053 
L 130.57107 -202.337871 
L 130.721064 -200.613231 
L 130.871058 -198.926116 
L 131.021052 -197.234337 
L 131.171045 -195.546609 
L 131.321039 -193.879256 
L 131.471033 -192.201218 
L 131.621026 -190.539742 
L 131.77102 -188.859029 
L 131.921014 -187.170265 
L 132.071008 -185.475944 
L 132.221001 -183.761884 
L 132.370995 -182.012891 
L 132.520989 -180.255708 
L 132.670982 -178.46129 
L 132.820976 -176.650767 
L 132.97097 -174.82234 
L 133.120964 -172.969332 
L 133.270957 -171.099822 
L 133.420951 -169.210182 
L 133.570945 -167.312905 
L 133.720938 -165.409958 
L 133.870932 -163.503808 
L 134.020926 -161.58971 
L 134.170919 -159.683671 
L 134.320913 -157.778308 
L 134.470907 -155.888556 
L 134.620901 -154.026204 
L 134.770894 -152.176004 
L 134.920888 -150.346204 
L 135.070882 -148.548635 
L 135.220875 -146.777606 
L 135.370869 -145.03876 
L 135.520863 -143.322817 
L 135.670857 -141.645975 
L 135.82085 -139.993289 
L 135.970844 -138.382984 
L 136.120838 -136.802507 
L 136.270831 -135.251778 
L 136.420825 -133.728781 
L 136.570819 -132.24026 
L 136.720813 -130.787815 
L 136.870806 -129.352095 
L 137.0208 -127.959428 
L 137.170794 -126.595326 
L 137.320787 -125.257521 
L 137.470781 -123.932344 
L 137.620775 -122.642576 
L 137.770768 -121.371317 
L 137.920762 -120.117259 
L 138.070756 -118.887895 
L 138.22075 -117.676688 
L 138.370743 -116.482688 
L 138.520737 -115.311065 
L 138.670731 -114.144305 
L 138.820724 -113.002279 
L 138.970718 -111.874624 
L 139.120712 -110.761915 
L 139.270706 -109.661711 
L 139.420699 -108.597015 
L 139.570693 -107.546748 
L 139.720687 -106.518923 
L 139.87068 -105.524929 
L 140.020674 -104.543619 
L 140.170668 -103.5895 
L 140.320662 -102.662422 
L 140.470655 -101.756688 
L 140.620649 -100.875259 
L 140.770643 -100.010284 
L 140.920636 -99.148656 
L 141.07063 -98.305722 
L 141.220624 -97.468226 
L 141.370617 -96.635027 
L 141.520611 -95.789098 
L 141.670605 -94.941951 
L 141.820599 -94.088583 
L 141.970592 -93.228657 
L 142.120586 -92.357246 
L 142.27058 -91.480491 
L 142.420573 -90.59854 
L 142.570567 -89.713612 
L 142.720561 -88.829626 
L 142.870555 -87.954075 
L 143.020548 -87.089682 
L 143.170542 -86.24954 
L 143.320536 -85.424961 
L 143.470529 -84.623804 
L 143.620523 -83.854245 
L 143.770517 -83.109577 
L 143.920511 -82.40294 
L 144.070504 -81.727888 
L 144.220498 -81.09285 
L 144.370492 -80.48325 
L 144.520485 -79.905099 
L 144.670479 -79.357367 
L 144.820473 -78.831546 
L 144.970466 -78.323053 
L 145.12046 -77.828869 
L 145.270454 -77.346766 
L 145.420448 -76.863335 
L 145.570441 -76.38872 
L 145.720435 -75.912325 
L 145.870429 -75.437752 
L 146.020422 -74.952693 
L 146.170416 -74.465105 
L 146.32041 -73.972266 
L 146.470404 -73.476328 
L 146.620397 -72.974636 
L 146.770391 -72.470105 
L 146.920385 -71.966685 
L 147.070378 -71.46844 
L 147.220372 -70.970173 
L 147.370366 -70.478732 
L 147.52036 -70.000196 
L 147.670353 -69.530109 
L 147.820347 -69.071961 
L 147.970341 -68.630232 
L 148.120334 -68.20492 
L 148.270328 -67.795614 
L 148.420322 -67.403717 
L 148.570315 -67.031347 
L 148.720309 -66.673906 
L 148.870303 -66.334717 
L 149.020297 -66.013406 
L 149.17029 -65.711136 
L 149.320284 -65.427897 
L 149.470278 -65.155273 
L 149.620271 -64.899287 
L 149.770265 -64.653967 
L 149.920259 -64.429876 
L 150.070253 -64.213976 
L 150.220246 -64.013048 
L 150.37024 -63.822838 
L 150.520234 -63.640048 
L 150.670227 -63.467529 
L 150.820221 -63.304382 
L 150.970215 -63.148726 
L 151.120208 -63.001558 
L 151.270202 -62.859595 
L 151.420196 -62.71944 
L 151.57019 -62.588798 
L 151.720183 -62.462836 
L 151.870177 -62.340255 
L 152.020171 -62.223056 
L 152.170164 -62.108033 
L 152.320158 -61.999649 
L 152.470152 -61.893527 
L 152.620146 -61.792387 
L 152.770139 -61.694282 
L 152.920133 -61.599617 
L 153.070127 -61.506513 
L 153.22012 -61.416218 
L 153.370114 -61.326746 
L 153.520108 -61.238985 
L 153.670102 -61.149958 
L 153.820095 -61.06063 
L 153.970089 -60.969226 
L 154.120083 -60.877681 
L 154.270076 -60.782785 
L 154.42007 -60.685044 
L 154.570064 -60.582764 
L 154.720057 -60.47902 
L 154.870051 -60.372834 
L 155.020045 -60.262182 
L 155.170039 -60.150834 
L 155.320032 -60.037863 
L 155.470026 -59.92359 
L 155.62002 -59.809711 
L 155.770013 -59.697217 
L 155.920007 -59.587183 
L 156.070001 -59.480916 
L 156.219995 -59.379211 
L 156.369988 -59.28063 
L 156.519982 -59.190161 
L 156.669976 -59.106957 
L 156.819969 -59.032572 
L 156.969963 -58.963392 
L 157.119957 -58.904674 
L 157.269951 -58.854686 
L 157.419944 -58.814049 
L 157.569938 -58.783287 
L 157.719932 -58.760058 
L 157.869925 -58.746329 
L 157.869925 -57.369174 
L 157.869925 -57.369174 
L 157.719932 -57.369174 
L 157.569938 -57.369174 
L 157.419944 -57.369174 
L 157.269951 -57.369174 
L 157.119957 -57.369174 
L 156.969963 -57.369174 
L 156.819969 -57.369174 
L 156.669976 -57.369174 
L 156.519982 -57.369174 
L 156.369988 -57.369174 
L 156.219995 -57.369174 
L 156.070001 -57.369174 
L 155.920007 -57.369174 
L 155.770013 -57.369174 
L 155.62002 -57.369174 
L 155.470026 -57.369174 
L 155.320032 -57.369174 
L 155.170039 -57.369174 
L 155.020045 -57.369174 
L 154.870051 -57.369174 
L 154.720057 -57.369174 
L 154.570064 -57.369174 
L 154.42007 -57.369174 
L 154.270076 -57.369174 
L 154.120083 -57.369174 
L 153.970089 -57.369174 
L 153.820095 -57.369174 
L 153.670102 -57.369174 
L 153.520108 -57.369174 
L 153.370114 -57.369174 
L 153.22012 -57.369174 
L 153.070127 -57.369174 
L 152.920133 -57.369174 
L 152.770139 -57.369174 
L 152.620146 -57.369174 
L 152.470152 -57.369174 
L 152.320158 -57.369174 
L 152.170164 -57.369174 
L 152.020171 -57.369174 
L 151.870177 -57.369174 
L 151.720183 -57.369174 
L 151.57019 -57.369174 
L 151.420196 -57.369174 
L 151.270202 -57.369174 
L 151.120208 -57.369174 
L 150.970215 -57.369174 
L 150.820221 -57.369174 
L 150.670227 -57.369174 
L 150.520234 -57.369174 
L 150.37024 -57.369174 
L 150.220246 -57.369174 
L 150.070253 -57.369174 
L 149.920259 -57.369174 
L 149.770265 -57.369174 
L 149.620271 -57.369174 
L 149.470278 -57.369174 
L 149.320284 -57.369174 
L 149.17029 -57.369174 
L 149.020297 -57.369174 
L 148.870303 -57.369174 
L 148.720309 -57.369174 
L 148.570315 -57.369174 
L 148.420322 -57.369174 
L 148.270328 -57.369174 
L 148.120334 -57.369174 
L 147.970341 -57.369174 
L 147.820347 -57.369174 
L 147.670353 -57.369174 
L 147.52036 -57.369174 
L 147.370366 -57.369174 
L 147.220372 -57.369174 
L 147.070378 -57.369174 
L 146.920385 -57.369174 
L 146.770391 -57.369174 
L 146.620397 -57.369174 
L 146.470404 -57.369174 
L 146.32041 -57.369174 
L 146.170416 -57.369174 
L 146.020422 -57.369174 
L 145.870429 -57.369174 
L 145.720435 -57.369174 
L 145.570441 -57.369174 
L 145.420448 -57.369174 
L 145.270454 -57.369174 
L 145.12046 -57.369174 
L 144.970466 -57.369174 
L 144.820473 -57.369174 
L 144.670479 -57.369174 
L 144.520485 -57.369174 
L 144.370492 -57.369174 
L 144.220498 -57.369174 
L 144.070504 -57.369174 
L 143.920511 -57.369174 
L 143.770517 -57.369174 
L 143.620523 -57.369174 
L 143.470529 -57.369174 
L 143.320536 -57.369174 
L 143.170542 -57.369174 
L 143.020548 -57.369174 
L 142.870555 -57.369174 
L 142.720561 -57.369174 
L 142.570567 -57.369174 
L 142.420573 -57.369174 
L 142.27058 -57.369174 
L 142.120586 -57.369174 
L 141.970592 -57.369174 
L 141.820599 -57.369174 
L 141.670605 -57.369174 
L 141.520611 -57.369174 
L 141.370617 -57.369174 
L 141.220624 -57.369174 
L 141.07063 -57.369174 
L 140.920636 -57.369174 
L 140.770643 -57.369174 
L 140.620649 -57.369174 
L 140.470655 -57.369174 
L 140.320662 -57.369174 
L 140.170668 -57.369174 
L 140.020674 -57.369174 
L 139.87068 -57.369174 
L 139.720687 -57.369174 
L 139.570693 -57.369174 
L 139.420699 -57.369174 
L 139.270706 -57.369174 
L 139.120712 -57.369174 
L 138.970718 -57.369174 
L 138.820724 -57.369174 
L 138.670731 -57.369174 
L 138.520737 -57.369174 
L 138.370743 -57.369174 
L 138.22075 -57.369174 
L 138.070756 -57.369174 
L 137.920762 -57.369174 
L 137.770768 -57.369174 
L 137.620775 -57.369174 
L 137.470781 -57.369174 
L 137.320787 -57.369174 
L 137.170794 -57.369174 
L 137.0208 -57.369174 
L 136.870806 -57.369174 
L 136.720813 -57.369174 
L 136.570819 -57.369174 
L 136.420825 -57.369174 
L 136.270831 -57.369174 
L 136.120838 -57.369174 
L 135.970844 -57.369174 
L 135.82085 -57.369174 
L 135.670857 -57.369174 
L 135.520863 -57.369174 
L 135.370869 -57.369174 
L 135.220875 -57.369174 
L 135.070882 -57.369174 
L 134.920888 -57.369174 
L 134.770894 -57.369174 
L 134.620901 -57.369174 
L 134.470907 -57.369174 
L 134.320913 -57.369174 
L 134.170919 -57.369174 
L 134.020926 -57.369174 
L 133.870932 -57.369174 
L 133.720938 -57.369174 
L 133.570945 -57.369174 
L 133.420951 -57.369174 
L 133.270957 -57.369174 
L 133.120964 -57.369174 
L 132.97097 -57.369174 
L 132.820976 -57.369174 
L 132.670982 -57.369174 
L 132.520989 -57.369174 
L 132.370995 -57.369174 
L 132.221001 -57.369174 
L 132.071008 -57.369174 
L 131.921014 -57.369174 
L 131.77102 -57.369174 
L 131.621026 -57.369174 
L 131.471033 -57.369174 
L 131.321039 -57.369174 
L 131.171045 -57.369174 
L 131.021052 -57.369174 
L 130.871058 -57.369174 
L 130.721064 -57.369174 
L 130.57107 -57.369174 
L 130.421077 -57.369174 
L 130.271083 -57.369174 
L 130.121089 -57.369174 
L 129.971096 -57.369174 
L 129.821102 -57.369174 
L 129.671108 -57.369174 
L 129.521115 -57.369174 
L 129.371121 -57.369174 
L 129.221127 -57.369174 
L 129.071133 -57.369174 
L 128.92114 -57.369174 
L 128.771146 -57.369174 
L 128.621152 -57.369174 
L 128.471159 -57.369174 
L 128.321165 -57.369174 
L 128.171171 -57.369174 
L 128.021177 -57.369174 
L 127.871184 -57.369174 
L 127.72119 -57.369174 
L 127.571196 -57.369174 
L 127.421203 -57.369174 
L 127.271209 -57.369174 
L 127.121215 -57.369174 
L 126.971221 -57.369174 
L 126.821228 -57.369174 
L 126.671234 -57.369174 
L 126.52124 -57.369174 
L 126.371247 -57.369174 
L 126.221253 -57.369174 
L 126.071259 -57.369174 
L 125.921266 -57.369174 
L 125.771272 -57.369174 
L 125.621278 -57.369174 
L 125.471284 -57.369174 
L 125.321291 -57.369174 
L 125.171297 -57.369174 
L 125.021303 -57.369174 
L 124.87131 -57.369174 
L 124.721316 -57.369174 
L 124.571322 -57.369174 
L 124.421328 -57.369174 
L 124.271335 -57.369174 
L 124.121341 -57.369174 
L 123.971347 -57.369174 
L 123.821354 -57.369174 
L 123.67136 -57.369174 
L 123.521366 -57.369174 
L 123.371372 -57.369174 
L 123.221379 -57.369174 
L 123.071385 -57.369174 
L 122.921391 -57.369174 
L 122.771398 -57.369174 
L 122.621404 -57.369174 
L 122.47141 -57.369174 
L 122.321417 -57.369174 
L 122.171423 -57.369174 
L 122.021429 -57.369174 
L 121.871435 -57.369174 
L 121.721442 -57.369174 
L 121.571448 -57.369174 
L 121.421454 -57.369174 
L 121.271461 -57.369174 
L 121.121467 -57.369174 
L 120.971473 -57.369174 
L 120.821479 -57.369174 
L 120.671486 -57.369174 
L 120.521492 -57.369174 
L 120.371498 -57.369174 
L 120.221505 -57.369174 
L 120.071511 -57.369174 
L 119.921517 -57.369174 
L 119.771523 -57.369174 
L 119.62153 -57.369174 
L 119.471536 -57.369174 
L 119.321542 -57.369174 
L 119.171549 -57.369174 
L 119.021555 -57.369174 
L 118.871561 -57.369174 
L 118.721568 -57.369174 
L 118.571574 -57.369174 
L 118.42158 -57.369174 
L 118.271586 -57.369174 
L 118.121593 -57.369174 
L 117.971599 -57.369174 
L 117.821605 -57.369174 
L 117.671612 -57.369174 
L 117.521618 -57.369174 
L 117.371624 -57.369174 
L 117.22163 -57.369174 
L 117.071637 -57.369174 
L 116.921643 -57.369174 
L 116.771649 -57.369174 
L 116.621656 -57.369174 
L 116.471662 -57.369174 
L 116.321668 -57.369174 
L 116.171674 -57.369174 
L 116.021681 -57.369174 
L 115.871687 -57.369174 
L 115.721693 -57.369174 
L 115.5717 -57.369174 
L 115.421706 -57.369174 
L 115.271712 -57.369174 
L 115.121719 -57.369174 
L 114.971725 -57.369174 
L 114.821731 -57.369174 
L 114.671737 -57.369174 
L 114.521744 -57.369174 
L 114.37175 -57.369174 
L 114.221756 -57.369174 
L 114.071763 -57.369174 
L 113.921769 -57.369174 
L 113.771775 -57.369174 
L 113.621781 -57.369174 
L 113.471788 -57.369174 
L 113.321794 -57.369174 
L 113.1718 -57.369174 
L 113.021807 -57.369174 
L 112.871813 -57.369174 
L 112.721819 -57.369174 
L 112.571826 -57.369174 
L 112.421832 -57.369174 
L 112.271838 -57.369174 
L 112.121844 -57.369174 
L 111.971851 -57.369174 
L 111.821857 -57.369174 
L 111.671863 -57.369174 
L 111.52187 -57.369174 
L 111.371876 -57.369174 
L 111.221882 -57.369174 
L 111.071888 -57.369174 
L 110.921895 -57.369174 
L 110.771901 -57.369174 
L 110.621907 -57.369174 
L 110.471914 -57.369174 
L 110.32192 -57.369174 
L 110.171926 -57.369174 
L 110.021932 -57.369174 
L 109.871939 -57.369174 
L 109.721945 -57.369174 
L 109.571951 -57.369174 
L 109.421958 -57.369174 
L 109.271964 -57.369174 
L 109.12197 -57.369174 
L 108.971977 -57.369174 
L 108.821983 -57.369174 
L 108.671989 -57.369174 
L 108.521995 -57.369174 
L 108.372002 -57.369174 
L 108.222008 -57.369174 
L 108.072014 -57.369174 
L 107.922021 -57.369174 
L 107.772027 -57.369174 
L 107.622033 -57.369174 
L 107.472039 -57.369174 
L 107.322046 -57.369174 
L 107.172052 -57.369174 
L 107.022058 -57.369174 
L 106.872065 -57.369174 
L 106.722071 -57.369174 
L 106.572077 -57.369174 
L 106.422083 -57.369174 
L 106.27209 -57.369174 
L 106.122096 -57.369174 
L 105.972102 -57.369174 
L 105.822109 -57.369174 
L 105.672115 -57.369174 
L 105.522121 -57.369174 
L 105.372128 -57.369174 
L 105.222134 -57.369174 
L 105.07214 -57.369174 
L 104.922146 -57.369174 
L 104.772153 -57.369174 
L 104.622159 -57.369174 
L 104.472165 -57.369174 
L 104.322172 -57.369174 
L 104.172178 -57.369174 
L 104.022184 -57.369174 
L 103.87219 -57.369174 
L 103.722197 -57.369174 
L 103.572203 -57.369174 
L 103.422209 -57.369174 
L 103.272216 -57.369174 
L 103.122222 -57.369174 
L 102.972228 -57.369174 
L 102.822234 -57.369174 
L 102.672241 -57.369174 
L 102.522247 -57.369174 
L 102.372253 -57.369174 
L 102.22226 -57.369174 
L 102.072266 -57.369174 
L 101.922272 -57.369174 
L 101.772279 -57.369174 
L 101.622285 -57.369174 
L 101.472291 -57.369174 
L 101.322297 -57.369174 
L 101.172304 -57.369174 
L 101.02231 -57.369174 
L 100.872316 -57.369174 
L 100.722323 -57.369174 
L 100.572329 -57.369174 
L 100.422335 -57.369174 
L 100.272341 -57.369174 
L 100.122348 -57.369174 
L 99.972354 -57.369174 
L 99.82236 -57.369174 
L 99.672367 -57.369174 
L 99.522373 -57.369174 
L 99.372379 -57.369174 
L 99.222385 -57.369174 
L 99.072392 -57.369174 
L 98.922398 -57.369174 
L 98.772404 -57.369174 
L 98.622411 -57.369174 
L 98.472417 -57.369174 
L 98.322423 -57.369174 
L 98.17243 -57.369174 
L 98.022436 -57.369174 
L 97.872442 -57.369174 
L 97.722448 -57.369174 
L 97.572455 -57.369174 
L 97.422461 -57.369174 
L 97.272467 -57.369174 
L 97.122474 -57.369174 
L 96.97248 -57.369174 
L 96.822486 -57.369174 
L 96.672492 -57.369174 
L 96.522499 -57.369174 
L 96.372505 -57.369174 
L 96.222511 -57.369174 
L 96.072518 -57.369174 
L 95.922524 -57.369174 
L 95.77253 -57.369174 
L 95.622536 -57.369174 
L 95.472543 -57.369174 
L 95.322549 -57.369174 
L 95.172555 -57.369174 
L 95.022562 -57.369174 
L 94.872568 -57.369174 
L 94.722574 -57.369174 
L 94.572581 -57.369174 
L 94.422587 -57.369174 
L 94.272593 -57.369174 
L 94.122599 -57.369174 
L 93.972606 -57.369174 
L 93.822612 -57.369174 
L 93.672618 -57.369174 
L 93.522625 -57.369174 
L 93.372631 -57.369174 
L 93.222637 -57.369174 
L 93.072643 -57.369174 
L 92.92265 -57.369174 
L 92.772656 -57.369174 
L 92.622662 -57.369174 
L 92.472669 -57.369174 
L 92.322675 -57.369174 
L 92.172681 -57.369174 
L 92.022687 -57.369174 
L 91.872694 -57.369174 
L 91.7227 -57.369174 
L 91.572706 -57.369174 
L 91.422713 -57.369174 
L 91.272719 -57.369174 
L 91.122725 -57.369174 
L 90.972732 -57.369174 
L 90.822738 -57.369174 
L 90.672744 -57.369174 
L 90.52275 -57.369174 
L 90.372757 -57.369174 
L 90.222763 -57.369174 
L 90.072769 -57.369174 
L 89.922776 -57.369174 
L 89.772782 -57.369174 
L 89.622788 -57.369174 
L 89.472794 -57.369174 
L 89.322801 -57.369174 
L 89.172807 -57.369174 
L 89.022813 -57.369174 
L 88.87282 -57.369174 
L 88.722826 -57.369174 
L 88.572832 -57.369174 
L 88.422838 -57.369174 
L 88.272845 -57.369174 
L 88.122851 -57.369174 
L 87.972857 -57.369174 
L 87.822864 -57.369174 
L 87.67287 -57.369174 
L 87.522876 -57.369174 
L 87.372883 -57.369174 
L 87.222889 -57.369174 
L 87.072895 -57.369174 
L 86.922901 -57.369174 
L 86.772908 -57.369174 
L 86.622914 -57.369174 
L 86.47292 -57.369174 
L 86.322927 -57.369174 
L 86.172933 -57.369174 
L 86.022939 -57.369174 
L 85.872945 -57.369174 
L 85.722952 -57.369174 
L 85.572958 -57.369174 
L 85.422964 -57.369174 
L 85.272971 -57.369174 
L 85.122977 -57.369174 
L 84.972983 -57.369174 
L 84.822989 -57.369174 
L 84.672996 -57.369174 
L 84.523002 -57.369174 
L 84.373008 -57.369174 
L 84.223015 -57.369174 
L 84.073021 -57.369174 
L 83.923027 -57.369174 
L 83.773034 -57.369174 
L 83.62304 -57.369174 
L 83.473046 -57.369174 
L 83.323052 -57.369174 
L 83.173059 -57.369174 
L 83.023065 -57.369174 
L 82.873071 -57.369174 
L 82.723078 -57.369174 
L 82.573084 -57.369174 
L 82.42309 -57.369174 
L 82.273096 -57.369174 
L 82.123103 -57.369174 
L 81.973109 -57.369174 
L 81.823115 -57.369174 
L 81.673122 -57.369174 
L 81.523128 -57.369174 
L 81.373134 -57.369174 
L 81.22314 -57.369174 
z
" id="md437b0d4f5" style="stroke:#1f77b4;stroke-opacity:0.1;"/>
    </defs>
    <g clip-path="url(#p32dc0c69d3)">
     <use style="fill:#1f77b4;fill-opacity:0.1;stroke:#1f77b4;stroke-opacity:0.1;" x="0" xlink:href="#md437b0d4f5" y="360"/>
    </g>
   </g>
   <g id="PolyCollection_2">
    <defs>
     <path d="M 159.402346 -57.369174 
L 159.402346 -58.755642 
L 159.610338 -58.758708 
L 159.818329 -58.766646 
L 160.02632 -58.779607 
L 160.234312 -58.796197 
L 160.442303 -58.818192 
L 160.650295 -58.844639 
L 160.858286 -58.878614 
L 161.066277 -58.919155 
L 161.274269 -58.966008 
L 161.48226 -59.018678 
L 161.690252 -59.079137 
L 161.898243 -59.146927 
L 162.106234 -59.222756 
L 162.314226 -59.30678 
L 162.522217 -59.398212 
L 162.730209 -59.494779 
L 162.9382 -59.599335 
L 163.146191 -59.709531 
L 163.354183 -59.826547 
L 163.562174 -59.946754 
L 163.770166 -60.073243 
L 163.978157 -60.201226 
L 164.186148 -60.336563 
L 164.39414 -60.473432 
L 164.602131 -60.614336 
L 164.810123 -60.758931 
L 165.018114 -60.90637 
L 165.226105 -61.054988 
L 165.434097 -61.207081 
L 165.642088 -61.361729 
L 165.85008 -61.518277 
L 166.058071 -61.681982 
L 166.266062 -61.846381 
L 166.474054 -62.013972 
L 166.682045 -62.187148 
L 166.890036 -62.362358 
L 167.098028 -62.540107 
L 167.306019 -62.719791 
L 167.514011 -62.903277 
L 167.722002 -63.089771 
L 167.929993 -63.276734 
L 168.137985 -63.46716 
L 168.345976 -63.657845 
L 168.553968 -63.853897 
L 168.761959 -64.048274 
L 168.96995 -64.246833 
L 169.177942 -64.448021 
L 169.385933 -64.648389 
L 169.593925 -64.853301 
L 169.801916 -65.063368 
L 170.009907 -65.2808 
L 170.217899 -65.500605 
L 170.42589 -65.728709 
L 170.633882 -65.965421 
L 170.841873 -66.216711 
L 171.049864 -66.484188 
L 171.257856 -66.766375 
L 171.465847 -67.070578 
L 171.673839 -67.396931 
L 171.88183 -67.744326 
L 172.089821 -68.114729 
L 172.297813 -68.512984 
L 172.505804 -68.939922 
L 172.713796 -69.39688 
L 172.921787 -69.879144 
L 173.129778 -70.388549 
L 173.33777 -70.917408 
L 173.545761 -71.469809 
L 173.753753 -72.038297 
L 173.961744 -72.624923 
L 174.169735 -73.224729 
L 174.377727 -73.829588 
L 174.585718 -74.444849 
L 174.79371 -75.061334 
L 175.001701 -75.674886 
L 175.209692 -76.287408 
L 175.417684 -76.900958 
L 175.625675 -77.505235 
L 175.833667 -78.110495 
L 176.041658 -78.707272 
L 176.249649 -79.307637 
L 176.457641 -79.896754 
L 176.665632 -80.492002 
L 176.873624 -81.090915 
L 177.081615 -81.689418 
L 177.289606 -82.291734 
L 177.497598 -82.899897 
L 177.705589 -83.517471 
L 177.913581 -84.141783 
L 178.121572 -84.773649 
L 178.329563 -85.42488 
L 178.537555 -86.087317 
L 178.745546 -86.766866 
L 178.953538 -87.461146 
L 179.161529 -88.179575 
L 179.36952 -88.91822 
L 179.577512 -89.685885 
L 179.785503 -90.477918 
L 179.993495 -91.294463 
L 180.201486 -92.141093 
L 180.409477 -93.017283 
L 180.617469 -93.923711 
L 180.82546 -94.848055 
L 181.033452 -95.801469 
L 181.241443 -96.777109 
L 181.449434 -97.768732 
L 181.657426 -98.780176 
L 181.865417 -99.798082 
L 182.073409 -100.824981 
L 182.2814 -101.854608 
L 182.489391 -102.883954 
L 182.697383 -103.921137 
L 182.905374 -104.955893 
L 183.113366 -105.993694 
L 183.321357 -107.035772 
L 183.529348 -108.080995 
L 183.73734 -109.132032 
L 183.945331 -110.19182 
L 184.153323 -111.268526 
L 184.361314 -112.360324 
L 184.569305 -113.472357 
L 184.777297 -114.624145 
L 184.985288 -115.793505 
L 185.193279 -116.997465 
L 185.401271 -118.222746 
L 185.609262 -119.474955 
L 185.817254 -120.751305 
L 186.025245 -122.054071 
L 186.233236 -123.369967 
L 186.441228 -124.70601 
L 186.649219 -126.048189 
L 186.857211 -127.390673 
L 187.065202 -128.724089 
L 187.273193 -130.044725 
L 187.481185 -131.352507 
L 187.689176 -132.641493 
L 187.897168 -133.902763 
L 188.105159 -135.135432 
L 188.31315 -136.331364 
L 188.521142 -137.499974 
L 188.729133 -138.63754 
L 188.937125 -139.753953 
L 189.145116 -140.841726 
L 189.353107 -141.90437 
L 189.561099 -142.949133 
L 189.76909 -143.985338 
L 189.977082 -145.01691 
L 190.185073 -146.052107 
L 190.393064 -147.094406 
L 190.601056 -148.152479 
L 190.809047 -149.233939 
L 191.017039 -150.336998 
L 191.22503 -151.471926 
L 191.433021 -152.644722 
L 191.641013 -153.863151 
L 191.849004 -155.127769 
L 192.056996 -156.43008 
L 192.264987 -157.776927 
L 192.472978 -159.158134 
L 192.68097 -160.571569 
L 192.888961 -162.022395 
L 193.096953 -163.501845 
L 193.304944 -165.005484 
L 193.512935 -166.532444 
L 193.720927 -168.08083 
L 193.928918 -169.63562 
L 194.13691 -171.194441 
L 194.344901 -172.756408 
L 194.552892 -174.31274 
L 194.760884 -175.854539 
L 194.968875 -177.389842 
L 195.176867 -178.913188 
L 195.384858 -180.41695 
L 195.592849 -181.887877 
L 195.800841 -183.352804 
L 196.008832 -184.800154 
L 196.216824 -186.214626 
L 196.424815 -187.594509 
L 196.632806 -188.949759 
L 196.840798 -190.295294 
L 197.048789 -191.615335 
L 197.256781 -192.905545 
L 197.464772 -194.163601 
L 197.672763 -195.405201 
L 197.880755 -196.611771 
L 198.088746 -197.792555 
L 198.296738 -198.94866 
L 198.504729 -200.078376 
L 198.71272 -201.176964 
L 198.920712 -202.242029 
L 199.128703 -203.262518 
L 199.336695 -204.267152 
L 199.544686 -205.226543 
L 199.752677 -206.148622 
L 199.960669 -207.044653 
L 200.16866 -207.894655 
L 200.376652 -208.714219 
L 200.584643 -209.520313 
L 200.792634 -210.307381 
L 201.000626 -211.083122 
L 201.208617 -211.833038 
L 201.416609 -212.58993 
L 201.6246 -213.34257 
L 201.832591 -214.110074 
L 202.040583 -214.884619 
L 202.248574 -215.671932 
L 202.456566 -216.489154 
L 202.664557 -217.32832 
L 202.872548 -218.174561 
L 203.08054 -219.033976 
L 203.288531 -219.906491 
L 203.496522 -220.790213 
L 203.704514 -221.681103 
L 203.912505 -222.568928 
L 204.120497 -223.452207 
L 204.328488 -224.308618 
L 204.536479 -225.148557 
L 204.744471 -225.950468 
L 204.952462 -226.722613 
L 205.160454 -227.454937 
L 205.368445 -228.149027 
L 205.576436 -228.790053 
L 205.784428 -229.382878 
L 205.992419 -229.934861 
L 206.200411 -230.449622 
L 206.408402 -230.936647 
L 206.616393 -231.382164 
L 206.824385 -231.805568 
L 207.032376 -232.207716 
L 207.240368 -232.58602 
L 207.448359 -232.941292 
L 207.65635 -233.312454 
L 207.864342 -233.683283 
L 208.072333 -234.045995 
L 208.280325 -234.390461 
L 208.488316 -234.730327 
L 208.696307 -235.064984 
L 208.904299 -235.383285 
L 209.11229 -235.675619 
L 209.320282 -235.943991 
L 209.528273 -236.166895 
L 209.736264 -236.328754 
L 209.944256 -236.425882 
L 210.152247 -236.454932 
L 210.360239 -236.396171 
L 210.56823 -236.258505 
L 210.776221 -236.007571 
L 210.984213 -235.659206 
L 211.192204 -235.220178 
L 211.400196 -234.664421 
L 211.608187 -234.026477 
L 211.816178 -233.274421 
L 212.02417 -232.433667 
L 212.232161 -231.52167 
L 212.440153 -230.526236 
L 212.648144 -229.481637 
L 212.856135 -228.370454 
L 213.064127 -227.228047 
L 213.272118 -226.044179 
L 213.48011 -224.829924 
L 213.688101 -223.626597 
L 213.896092 -222.391084 
L 214.104084 -221.160658 
L 214.312075 -219.950505 
L 214.520067 -218.757647 
L 214.728058 -217.571758 
L 214.936049 -216.417984 
L 215.144041 -215.277393 
L 215.352032 -214.147114 
L 215.560024 -213.036278 
L 215.768015 -211.953314 
L 215.976006 -210.883879 
L 216.183998 -209.839541 
L 216.391989 -208.799274 
L 216.599981 -207.76697 
L 216.807972 -206.746055 
L 217.015963 -205.743359 
L 217.223955 -204.748562 
L 217.431946 -203.751186 
L 217.639938 -202.757289 
L 217.847929 -201.75554 
L 218.05592 -200.754737 
L 218.263912 -199.75832 
L 218.471903 -198.774696 
L 218.679895 -197.782104 
L 218.887886 -196.793297 
L 219.095877 -195.793137 
L 219.303869 -194.800926 
L 219.51186 -193.8056 
L 219.719852 -192.81155 
L 219.927843 -191.818153 
L 220.135834 -190.821716 
L 220.343826 -189.819459 
L 220.551817 -188.810217 
L 220.759809 -187.794521 
L 220.9678 -186.782829 
L 221.175791 -185.775577 
L 221.383783 -184.765768 
L 221.591774 -183.741638 
L 221.799765 -182.716293 
L 222.007757 -181.673028 
L 222.215748 -180.641449 
L 222.42374 -179.584412 
L 222.631731 -178.509057 
L 222.839722 -177.411194 
L 223.047714 -176.29221 
L 223.255705 -175.157491 
L 223.463697 -173.995856 
L 223.671688 -172.799142 
L 223.879679 -171.578885 
L 224.087671 -170.316323 
L 224.295662 -169.029385 
L 224.503654 -167.710057 
L 224.711645 -166.372148 
L 224.919636 -165.002413 
L 225.127628 -163.600036 
L 225.335619 -162.189394 
L 225.543611 -160.766254 
L 225.751602 -159.326779 
L 225.959593 -157.875428 
L 226.167585 -156.430166 
L 226.375576 -154.978909 
L 226.583568 -153.541254 
L 226.791559 -152.10948 
L 226.99955 -150.690276 
L 227.207542 -149.282867 
L 227.415533 -147.881883 
L 227.623525 -146.498156 
L 227.831516 -145.136358 
L 228.039507 -143.793018 
L 228.247499 -142.475589 
L 228.45549 -141.177487 
L 228.663482 -139.90061 
L 228.871473 -138.648057 
L 229.079464 -137.420122 
L 229.287456 -136.210323 
L 229.495447 -135.028565 
L 229.703439 -133.86383 
L 229.91143 -132.71729 
L 230.119421 -131.588607 
L 230.327413 -130.483767 
L 230.535404 -129.389693 
L 230.743396 -128.319765 
L 230.951387 -127.262282 
L 231.159378 -126.219296 
L 231.36737 -125.185214 
L 231.575361 -124.158353 
L 231.783353 -123.136869 
L 231.991344 -122.123332 
L 232.199335 -121.114168 
L 232.407327 -120.102812 
L 232.615318 -119.090303 
L 232.82331 -118.078731 
L 233.031301 -117.067271 
L 233.239292 -116.053548 
L 233.447284 -115.037786 
L 233.655275 -114.002021 
L 233.863267 -112.97052 
L 234.071258 -111.929046 
L 234.279249 -110.887272 
L 234.487241 -109.83301 
L 234.695232 -108.778025 
L 234.903224 -107.717204 
L 235.111215 -106.660705 
L 235.319206 -105.613668 
L 235.527198 -104.579819 
L 235.735189 -103.551706 
L 235.943181 -102.538182 
L 236.151172 -101.541478 
L 236.359163 -100.580024 
L 236.567155 -99.633443 
L 236.775146 -98.721463 
L 236.983138 -97.834261 
L 237.191129 -96.981295 
L 237.39912 -96.158558 
L 237.607112 -95.365344 
L 237.815103 -94.603565 
L 238.023095 -93.875128 
L 238.231086 -93.170183 
L 238.439077 -92.486999 
L 238.647069 -91.823077 
L 238.85506 -91.186593 
L 239.063052 -90.562582 
L 239.271043 -89.948808 
L 239.479034 -89.348291 
L 239.687026 -88.752572 
L 239.895017 -88.157515 
L 240.103008 -87.564971 
L 240.311 -86.97301 
L 240.518991 -86.374058 
L 240.726983 -85.773514 
L 240.934974 -85.169235 
L 241.142965 -84.556635 
L 241.350957 -83.931577 
L 241.558948 -83.306158 
L 241.76694 -82.671152 
L 241.974931 -82.031178 
L 242.182922 -81.38771 
L 242.390914 -80.736924 
L 242.598905 -80.08972 
L 242.806897 -79.44588 
L 243.014888 -78.813828 
L 243.222879 -78.190007 
L 243.430871 -77.576869 
L 243.638862 -76.974614 
L 243.846854 -76.389587 
L 244.054845 -75.823656 
L 244.262836 -75.274154 
L 244.470828 -74.741998 
L 244.678819 -74.233844 
L 244.886811 -73.741439 
L 245.094802 -73.273886 
L 245.302793 -72.821402 
L 245.510785 -72.380458 
L 245.718776 -71.954715 
L 245.926768 -71.540684 
L 246.134759 -71.13247 
L 246.34275 -70.735777 
L 246.550742 -70.347653 
L 246.758733 -69.964336 
L 246.966725 -69.587242 
L 247.174716 -69.22 
L 247.382707 -68.854326 
L 247.590699 -68.49604 
L 247.79869 -68.143962 
L 248.006682 -67.800001 
L 248.214673 -67.4648 
L 248.422664 -67.140267 
L 248.630656 -66.824658 
L 248.838647 -66.52142 
L 249.046639 -66.232881 
L 249.25463 -65.9542 
L 249.462621 -65.685494 
L 249.670613 -65.433462 
L 249.878604 -65.19013 
L 250.086596 -64.959945 
L 250.294587 -64.737447 
L 250.502578 -64.527345 
L 250.71057 -64.325325 
L 250.918561 -64.134242 
L 251.126553 -63.947802 
L 251.334544 -63.770801 
L 251.542535 -63.60165 
L 251.750527 -63.437486 
L 251.958518 -63.279695 
L 252.16651 -63.12754 
L 252.374501 -62.980169 
L 252.582492 -62.837586 
L 252.790484 -62.700971 
L 252.998475 -62.566635 
L 253.206467 -62.43394 
L 253.414458 -62.307097 
L 253.622449 -62.182662 
L 253.830441 -62.063703 
L 254.038432 -61.943831 
L 254.246424 -61.826725 
L 254.454415 -61.709941 
L 254.662406 -61.595588 
L 254.870398 -61.482195 
L 255.078389 -61.369458 
L 255.286381 -61.254818 
L 255.494372 -61.141968 
L 255.702363 -61.0297 
L 255.910355 -60.919609 
L 256.118346 -60.806149 
L 256.326338 -60.697636 
L 256.534329 -60.588044 
L 256.74232 -60.482811 
L 256.950312 -60.38055 
L 257.158303 -60.279043 
L 257.366295 -60.181695 
L 257.574286 -60.088016 
L 257.782277 -59.996148 
L 257.990269 -59.907072 
L 258.19826 -59.820023 
L 258.406251 -59.735685 
L 258.614243 -59.653946 
L 258.822234 -59.574256 
L 259.030226 -59.497286 
L 259.238217 -59.421276 
L 259.446208 -59.346899 
L 259.6542 -59.274907 
L 259.862191 -59.203073 
L 260.070183 -59.134727 
L 260.278174 -59.070346 
L 260.486165 -59.007079 
L 260.694157 -58.948734 
L 260.902148 -58.892614 
L 261.11014 -58.841507 
L 261.318131 -58.794857 
L 261.526122 -58.752238 
L 261.734114 -58.714778 
L 261.942105 -58.68098 
L 262.150097 -58.65047 
L 262.358088 -58.623321 
L 262.566079 -58.599148 
L 262.774071 -58.578337 
L 262.982062 -58.559767 
L 263.190054 -58.54247 
L 263.398045 -58.526702 
L 263.606036 -58.51083 
L 263.814028 -58.495168 
L 264.022019 -58.48116 
L 264.230011 -58.467656 
L 264.438002 -58.454566 
L 264.645993 -58.442748 
L 264.853985 -58.430913 
L 265.061976 -58.421372 
L 265.269968 -58.414973 
L 265.477959 -58.4106 
L 265.68595 -58.40771 
L 265.68595 -57.369174 
L 265.68595 -57.369174 
L 265.477959 -57.369174 
L 265.269968 -57.369174 
L 265.061976 -57.369174 
L 264.853985 -57.369174 
L 264.645993 -57.369174 
L 264.438002 -57.369174 
L 264.230011 -57.369174 
L 264.022019 -57.369174 
L 263.814028 -57.369174 
L 263.606036 -57.369174 
L 263.398045 -57.369174 
L 263.190054 -57.369174 
L 262.982062 -57.369174 
L 262.774071 -57.369174 
L 262.566079 -57.369174 
L 262.358088 -57.369174 
L 262.150097 -57.369174 
L 261.942105 -57.369174 
L 261.734114 -57.369174 
L 261.526122 -57.369174 
L 261.318131 -57.369174 
L 261.11014 -57.369174 
L 260.902148 -57.369174 
L 260.694157 -57.369174 
L 260.486165 -57.369174 
L 260.278174 -57.369174 
L 260.070183 -57.369174 
L 259.862191 -57.369174 
L 259.6542 -57.369174 
L 259.446208 -57.369174 
L 259.238217 -57.369174 
L 259.030226 -57.369174 
L 258.822234 -57.369174 
L 258.614243 -57.369174 
L 258.406251 -57.369174 
L 258.19826 -57.369174 
L 257.990269 -57.369174 
L 257.782277 -57.369174 
L 257.574286 -57.369174 
L 257.366295 -57.369174 
L 257.158303 -57.369174 
L 256.950312 -57.369174 
L 256.74232 -57.369174 
L 256.534329 -57.369174 
L 256.326338 -57.369174 
L 256.118346 -57.369174 
L 255.910355 -57.369174 
L 255.702363 -57.369174 
L 255.494372 -57.369174 
L 255.286381 -57.369174 
L 255.078389 -57.369174 
L 254.870398 -57.369174 
L 254.662406 -57.369174 
L 254.454415 -57.369174 
L 254.246424 -57.369174 
L 254.038432 -57.369174 
L 253.830441 -57.369174 
L 253.622449 -57.369174 
L 253.414458 -57.369174 
L 253.206467 -57.369174 
L 252.998475 -57.369174 
L 252.790484 -57.369174 
L 252.582492 -57.369174 
L 252.374501 -57.369174 
L 252.16651 -57.369174 
L 251.958518 -57.369174 
L 251.750527 -57.369174 
L 251.542535 -57.369174 
L 251.334544 -57.369174 
L 251.126553 -57.369174 
L 250.918561 -57.369174 
L 250.71057 -57.369174 
L 250.502578 -57.369174 
L 250.294587 -57.369174 
L 250.086596 -57.369174 
L 249.878604 -57.369174 
L 249.670613 -57.369174 
L 249.462621 -57.369174 
L 249.25463 -57.369174 
L 249.046639 -57.369174 
L 248.838647 -57.369174 
L 248.630656 -57.369174 
L 248.422664 -57.369174 
L 248.214673 -57.369174 
L 248.006682 -57.369174 
L 247.79869 -57.369174 
L 247.590699 -57.369174 
L 247.382707 -57.369174 
L 247.174716 -57.369174 
L 246.966725 -57.369174 
L 246.758733 -57.369174 
L 246.550742 -57.369174 
L 246.34275 -57.369174 
L 246.134759 -57.369174 
L 245.926768 -57.369174 
L 245.718776 -57.369174 
L 245.510785 -57.369174 
L 245.302793 -57.369174 
L 245.094802 -57.369174 
L 244.886811 -57.369174 
L 244.678819 -57.369174 
L 244.470828 -57.369174 
L 244.262836 -57.369174 
L 244.054845 -57.369174 
L 243.846854 -57.369174 
L 243.638862 -57.369174 
L 243.430871 -57.369174 
L 243.222879 -57.369174 
L 243.014888 -57.369174 
L 242.806897 -57.369174 
L 242.598905 -57.369174 
L 242.390914 -57.369174 
L 242.182922 -57.369174 
L 241.974931 -57.369174 
L 241.76694 -57.369174 
L 241.558948 -57.369174 
L 241.350957 -57.369174 
L 241.142965 -57.369174 
L 240.934974 -57.369174 
L 240.726983 -57.369174 
L 240.518991 -57.369174 
L 240.311 -57.369174 
L 240.103008 -57.369174 
L 239.895017 -57.369174 
L 239.687026 -57.369174 
L 239.479034 -57.369174 
L 239.271043 -57.369174 
L 239.063052 -57.369174 
L 238.85506 -57.369174 
L 238.647069 -57.369174 
L 238.439077 -57.369174 
L 238.231086 -57.369174 
L 238.023095 -57.369174 
L 237.815103 -57.369174 
L 237.607112 -57.369174 
L 237.39912 -57.369174 
L 237.191129 -57.369174 
L 236.983138 -57.369174 
L 236.775146 -57.369174 
L 236.567155 -57.369174 
L 236.359163 -57.369174 
L 236.151172 -57.369174 
L 235.943181 -57.369174 
L 235.735189 -57.369174 
L 235.527198 -57.369174 
L 235.319206 -57.369174 
L 235.111215 -57.369174 
L 234.903224 -57.369174 
L 234.695232 -57.369174 
L 234.487241 -57.369174 
L 234.279249 -57.369174 
L 234.071258 -57.369174 
L 233.863267 -57.369174 
L 233.655275 -57.369174 
L 233.447284 -57.369174 
L 233.239292 -57.369174 
L 233.031301 -57.369174 
L 232.82331 -57.369174 
L 232.615318 -57.369174 
L 232.407327 -57.369174 
L 232.199335 -57.369174 
L 231.991344 -57.369174 
L 231.783353 -57.369174 
L 231.575361 -57.369174 
L 231.36737 -57.369174 
L 231.159378 -57.369174 
L 230.951387 -57.369174 
L 230.743396 -57.369174 
L 230.535404 -57.369174 
L 230.327413 -57.369174 
L 230.119421 -57.369174 
L 229.91143 -57.369174 
L 229.703439 -57.369174 
L 229.495447 -57.369174 
L 229.287456 -57.369174 
L 229.079464 -57.369174 
L 228.871473 -57.369174 
L 228.663482 -57.369174 
L 228.45549 -57.369174 
L 228.247499 -57.369174 
L 228.039507 -57.369174 
L 227.831516 -57.369174 
L 227.623525 -57.369174 
L 227.415533 -57.369174 
L 227.207542 -57.369174 
L 226.99955 -57.369174 
L 226.791559 -57.369174 
L 226.583568 -57.369174 
L 226.375576 -57.369174 
L 226.167585 -57.369174 
L 225.959593 -57.369174 
L 225.751602 -57.369174 
L 225.543611 -57.369174 
L 225.335619 -57.369174 
L 225.127628 -57.369174 
L 224.919636 -57.369174 
L 224.711645 -57.369174 
L 224.503654 -57.369174 
L 224.295662 -57.369174 
L 224.087671 -57.369174 
L 223.879679 -57.369174 
L 223.671688 -57.369174 
L 223.463697 -57.369174 
L 223.255705 -57.369174 
L 223.047714 -57.369174 
L 222.839722 -57.369174 
L 222.631731 -57.369174 
L 222.42374 -57.369174 
L 222.215748 -57.369174 
L 222.007757 -57.369174 
L 221.799765 -57.369174 
L 221.591774 -57.369174 
L 221.383783 -57.369174 
L 221.175791 -57.369174 
L 220.9678 -57.369174 
L 220.759809 -57.369174 
L 220.551817 -57.369174 
L 220.343826 -57.369174 
L 220.135834 -57.369174 
L 219.927843 -57.369174 
L 219.719852 -57.369174 
L 219.51186 -57.369174 
L 219.303869 -57.369174 
L 219.095877 -57.369174 
L 218.887886 -57.369174 
L 218.679895 -57.369174 
L 218.471903 -57.369174 
L 218.263912 -57.369174 
L 218.05592 -57.369174 
L 217.847929 -57.369174 
L 217.639938 -57.369174 
L 217.431946 -57.369174 
L 217.223955 -57.369174 
L 217.015963 -57.369174 
L 216.807972 -57.369174 
L 216.599981 -57.369174 
L 216.391989 -57.369174 
L 216.183998 -57.369174 
L 215.976006 -57.369174 
L 215.768015 -57.369174 
L 215.560024 -57.369174 
L 215.352032 -57.369174 
L 215.144041 -57.369174 
L 214.936049 -57.369174 
L 214.728058 -57.369174 
L 214.520067 -57.369174 
L 214.312075 -57.369174 
L 214.104084 -57.369174 
L 213.896092 -57.369174 
L 213.688101 -57.369174 
L 213.48011 -57.369174 
L 213.272118 -57.369174 
L 213.064127 -57.369174 
L 212.856135 -57.369174 
L 212.648144 -57.369174 
L 212.440153 -57.369174 
L 212.232161 -57.369174 
L 212.02417 -57.369174 
L 211.816178 -57.369174 
L 211.608187 -57.369174 
L 211.400196 -57.369174 
L 211.192204 -57.369174 
L 210.984213 -57.369174 
L 210.776221 -57.369174 
L 210.56823 -57.369174 
L 210.360239 -57.369174 
L 210.152247 -57.369174 
L 209.944256 -57.369174 
L 209.736264 -57.369174 
L 209.528273 -57.369174 
L 209.320282 -57.369174 
L 209.11229 -57.369174 
L 208.904299 -57.369174 
L 208.696307 -57.369174 
L 208.488316 -57.369174 
L 208.280325 -57.369174 
L 208.072333 -57.369174 
L 207.864342 -57.369174 
L 207.65635 -57.369174 
L 207.448359 -57.369174 
L 207.240368 -57.369174 
L 207.032376 -57.369174 
L 206.824385 -57.369174 
L 206.616393 -57.369174 
L 206.408402 -57.369174 
L 206.200411 -57.369174 
L 205.992419 -57.369174 
L 205.784428 -57.369174 
L 205.576436 -57.369174 
L 205.368445 -57.369174 
L 205.160454 -57.369174 
L 204.952462 -57.369174 
L 204.744471 -57.369174 
L 204.536479 -57.369174 
L 204.328488 -57.369174 
L 204.120497 -57.369174 
L 203.912505 -57.369174 
L 203.704514 -57.369174 
L 203.496522 -57.369174 
L 203.288531 -57.369174 
L 203.08054 -57.369174 
L 202.872548 -57.369174 
L 202.664557 -57.369174 
L 202.456566 -57.369174 
L 202.248574 -57.369174 
L 202.040583 -57.369174 
L 201.832591 -57.369174 
L 201.6246 -57.369174 
L 201.416609 -57.369174 
L 201.208617 -57.369174 
L 201.000626 -57.369174 
L 200.792634 -57.369174 
L 200.584643 -57.369174 
L 200.376652 -57.369174 
L 200.16866 -57.369174 
L 199.960669 -57.369174 
L 199.752677 -57.369174 
L 199.544686 -57.369174 
L 199.336695 -57.369174 
L 199.128703 -57.369174 
L 198.920712 -57.369174 
L 198.71272 -57.369174 
L 198.504729 -57.369174 
L 198.296738 -57.369174 
L 198.088746 -57.369174 
L 197.880755 -57.369174 
L 197.672763 -57.369174 
L 197.464772 -57.369174 
L 197.256781 -57.369174 
L 197.048789 -57.369174 
L 196.840798 -57.369174 
L 196.632806 -57.369174 
L 196.424815 -57.369174 
L 196.216824 -57.369174 
L 196.008832 -57.369174 
L 195.800841 -57.369174 
L 195.592849 -57.369174 
L 195.384858 -57.369174 
L 195.176867 -57.369174 
L 194.968875 -57.369174 
L 194.760884 -57.369174 
L 194.552892 -57.369174 
L 194.344901 -57.369174 
L 194.13691 -57.369174 
L 193.928918 -57.369174 
L 193.720927 -57.369174 
L 193.512935 -57.369174 
L 193.304944 -57.369174 
L 193.096953 -57.369174 
L 192.888961 -57.369174 
L 192.68097 -57.369174 
L 192.472978 -57.369174 
L 192.264987 -57.369174 
L 192.056996 -57.369174 
L 191.849004 -57.369174 
L 191.641013 -57.369174 
L 191.433021 -57.369174 
L 191.22503 -57.369174 
L 191.017039 -57.369174 
L 190.809047 -57.369174 
L 190.601056 -57.369174 
L 190.393064 -57.369174 
L 190.185073 -57.369174 
L 189.977082 -57.369174 
L 189.76909 -57.369174 
L 189.561099 -57.369174 
L 189.353107 -57.369174 
L 189.145116 -57.369174 
L 188.937125 -57.369174 
L 188.729133 -57.369174 
L 188.521142 -57.369174 
L 188.31315 -57.369174 
L 188.105159 -57.369174 
L 187.897168 -57.369174 
L 187.689176 -57.369174 
L 187.481185 -57.369174 
L 187.273193 -57.369174 
L 187.065202 -57.369174 
L 186.857211 -57.369174 
L 186.649219 -57.369174 
L 186.441228 -57.369174 
L 186.233236 -57.369174 
L 186.025245 -57.369174 
L 185.817254 -57.369174 
L 185.609262 -57.369174 
L 185.401271 -57.369174 
L 185.193279 -57.369174 
L 184.985288 -57.369174 
L 184.777297 -57.369174 
L 184.569305 -57.369174 
L 184.361314 -57.369174 
L 184.153323 -57.369174 
L 183.945331 -57.369174 
L 183.73734 -57.369174 
L 183.529348 -57.369174 
L 183.321357 -57.369174 
L 183.113366 -57.369174 
L 182.905374 -57.369174 
L 182.697383 -57.369174 
L 182.489391 -57.369174 
L 182.2814 -57.369174 
L 182.073409 -57.369174 
L 181.865417 -57.369174 
L 181.657426 -57.369174 
L 181.449434 -57.369174 
L 181.241443 -57.369174 
L 181.033452 -57.369174 
L 180.82546 -57.369174 
L 180.617469 -57.369174 
L 180.409477 -57.369174 
L 180.201486 -57.369174 
L 179.993495 -57.369174 
L 179.785503 -57.369174 
L 179.577512 -57.369174 
L 179.36952 -57.369174 
L 179.161529 -57.369174 
L 178.953538 -57.369174 
L 178.745546 -57.369174 
L 178.537555 -57.369174 
L 178.329563 -57.369174 
L 178.121572 -57.369174 
L 177.913581 -57.369174 
L 177.705589 -57.369174 
L 177.497598 -57.369174 
L 177.289606 -57.369174 
L 177.081615 -57.369174 
L 176.873624 -57.369174 
L 176.665632 -57.369174 
L 176.457641 -57.369174 
L 176.249649 -57.369174 
L 176.041658 -57.369174 
L 175.833667 -57.369174 
L 175.625675 -57.369174 
L 175.417684 -57.369174 
L 175.209692 -57.369174 
L 175.001701 -57.369174 
L 174.79371 -57.369174 
L 174.585718 -57.369174 
L 174.377727 -57.369174 
L 174.169735 -57.369174 
L 173.961744 -57.369174 
L 173.753753 -57.369174 
L 173.545761 -57.369174 
L 173.33777 -57.369174 
L 173.129778 -57.369174 
L 172.921787 -57.369174 
L 172.713796 -57.369174 
L 172.505804 -57.369174 
L 172.297813 -57.369174 
L 172.089821 -57.369174 
L 171.88183 -57.369174 
L 171.673839 -57.369174 
L 171.465847 -57.369174 
L 171.257856 -57.369174 
L 171.049864 -57.369174 
L 170.841873 -57.369174 
L 170.633882 -57.369174 
L 170.42589 -57.369174 
L 170.217899 -57.369174 
L 170.009907 -57.369174 
L 169.801916 -57.369174 
L 169.593925 -57.369174 
L 169.385933 -57.369174 
L 169.177942 -57.369174 
L 168.96995 -57.369174 
L 168.761959 -57.369174 
L 168.553968 -57.369174 
L 168.345976 -57.369174 
L 168.137985 -57.369174 
L 167.929993 -57.369174 
L 167.722002 -57.369174 
L 167.514011 -57.369174 
L 167.306019 -57.369174 
L 167.098028 -57.369174 
L 166.890036 -57.369174 
L 166.682045 -57.369174 
L 166.474054 -57.369174 
L 166.266062 -57.369174 
L 166.058071 -57.369174 
L 165.85008 -57.369174 
L 165.642088 -57.369174 
L 165.434097 -57.369174 
L 165.226105 -57.369174 
L 165.018114 -57.369174 
L 164.810123 -57.369174 
L 164.602131 -57.369174 
L 164.39414 -57.369174 
L 164.186148 -57.369174 
L 163.978157 -57.369174 
L 163.770166 -57.369174 
L 163.562174 -57.369174 
L 163.354183 -57.369174 
L 163.146191 -57.369174 
L 162.9382 -57.369174 
L 162.730209 -57.369174 
L 162.522217 -57.369174 
L 162.314226 -57.369174 
L 162.106234 -57.369174 
L 161.898243 -57.369174 
L 161.690252 -57.369174 
L 161.48226 -57.369174 
L 161.274269 -57.369174 
L 161.066277 -57.369174 
L 160.858286 -57.369174 
L 160.650295 -57.369174 
L 160.442303 -57.369174 
L 160.234312 -57.369174 
L 160.02632 -57.369174 
L 159.818329 -57.369174 
L 159.610338 -57.369174 
L 159.402346 -57.369174 
z
" id="m658b4dcc7a" style="stroke:#ff7f0e;stroke-opacity:0.1;"/>
    </defs>
    <g clip-path="url(#p32dc0c69d3)">
     <use style="fill:#ff7f0e;fill-opacity:0.1;stroke:#ff7f0e;stroke-opacity:0.1;" x="0" xlink:href="#m658b4dcc7a" y="360"/>
    </g>
   </g>
   <g id="matplotlib.axis_1">
    <g id="xtick_1">
     <g id="line2d_1">
      <defs>
       <path d="M 0 0 
L 0 3.5 
" id="mc7c7ceb0d9" style="stroke:#000000;stroke-width:0.8;"/>
      </defs>
      <g>
       <use style="stroke:#000000;stroke-width:0.8;" x="159.839024" xlink:href="#mc7c7ceb0d9" y="315"/>
      </g>
     </g>
     <g id="text_1">
      <!-- 20 -->
      <g transform="translate(150.931524 332.637812)scale(0.14 -0.14)">
       <defs>
        <path d="M 19.1875 8.296875 
L 53.609375 8.296875 
L 53.609375 0 
L 7.328125 0 
L 7.328125 8.296875 
Q 12.9375 14.109375 22.625 23.890625 
Q 32.328125 33.6875 34.8125 36.53125 
Q 39.546875 41.84375 41.421875 45.53125 
Q 43.3125 49.21875 43.3125 52.78125 
Q 43.3125 58.59375 39.234375 62.25 
Q 35.15625 65.921875 28.609375 65.921875 
Q 23.96875 65.921875 18.8125 64.3125 
Q 13.671875 62.703125 7.8125 59.421875 
L 7.8125 69.390625 
Q 13.765625 71.78125 18.9375 73 
Q 24.125 74.21875 28.421875 74.21875 
Q 39.75 74.21875 46.484375 68.546875 
Q 53.21875 62.890625 53.21875 53.421875 
Q 53.21875 48.921875 51.53125 44.890625 
Q 49.859375 40.875 45.40625 35.40625 
Q 44.1875 33.984375 37.640625 27.21875 
Q 31.109375 20.453125 19.1875 8.296875 
z
" id="DejaVuSans-50"/>
        <path d="M 31.78125 66.40625 
Q 24.171875 66.40625 20.328125 58.90625 
Q 16.5 51.421875 16.5 36.375 
Q 16.5 21.390625 20.328125 13.890625 
Q 24.171875 6.390625 31.78125 6.390625 
Q 39.453125 6.390625 43.28125 13.890625 
Q 47.125 21.390625 47.125 36.375 
Q 47.125 51.421875 43.28125 58.90625 
Q 39.453125 66.40625 31.78125 66.40625 
z
M 31.78125 74.21875 
Q 44.046875 74.21875 50.515625 64.515625 
Q 56.984375 54.828125 56.984375 36.375 
Q 56.984375 17.96875 50.515625 8.265625 
Q 44.046875 -1.421875 31.78125 -1.421875 
Q 19.53125 -1.421875 13.0625 8.265625 
Q 6.59375 17.96875 6.59375 36.375 
Q 6.59375 54.828125 13.0625 64.515625 
Q 19.53125 74.21875 31.78125 74.21875 
z
" id="DejaVuSans-48"/>
       </defs>
       <use xlink:href="#DejaVuSans-50"/>
       <use x="63.623047" xlink:href="#DejaVuSans-48"/>
      </g>
     </g>
    </g>
    <g id="xtick_2">
     <g id="line2d_2">
      <g>
       <use style="stroke:#000000;stroke-width:0.8;" x="250.885445" xlink:href="#mc7c7ceb0d9" y="315"/>
      </g>
     </g>
     <g id="text_2">
      <!-- 25 -->
      <g transform="translate(241.977945 332.637812)scale(0.14 -0.14)">
       <defs>
        <path d="M 10.796875 72.90625 
L 49.515625 72.90625 
L 49.515625 64.59375 
L 19.828125 64.59375 
L 19.828125 46.734375 
Q 21.96875 47.46875 24.109375 47.828125 
Q 26.265625 48.1875 28.421875 48.1875 
Q 40.625 48.1875 47.75 41.5 
Q 54.890625 34.8125 54.890625 23.390625 
Q 54.890625 11.625 47.5625 5.09375 
Q 40.234375 -1.421875 26.90625 -1.421875 
Q 22.3125 -1.421875 17.546875 -0.640625 
Q 12.796875 0.140625 7.71875 1.703125 
L 7.71875 11.625 
Q 12.109375 9.234375 16.796875 8.0625 
Q 21.484375 6.890625 26.703125 6.890625 
Q 35.15625 6.890625 40.078125 11.328125 
Q 45.015625 15.765625 45.015625 23.390625 
Q 45.015625 31 40.078125 35.4375 
Q 35.15625 39.890625 26.703125 39.890625 
Q 22.75 39.890625 18.8125 39.015625 
Q 14.890625 38.140625 10.796875 36.28125 
z
" id="DejaVuSans-53"/>
       </defs>
       <use xlink:href="#DejaVuSans-50"/>
       <use x="63.623047" xlink:href="#DejaVuSans-53"/>
      </g>
     </g>
    </g>
    <g id="text_3">
     <!-- msj x da -->
     <g transform="translate(139.511186 351.547031)scale(0.15 -0.15)">
      <defs>
       <path d="M 52 44.1875 
Q 55.375 50.25 60.0625 53.125 
Q 64.75 56 71.09375 56 
Q 79.640625 56 84.28125 50.015625 
Q 88.921875 44.046875 88.921875 33.015625 
L 88.921875 0 
L 79.890625 0 
L 79.890625 32.71875 
Q 79.890625 40.578125 77.09375 44.375 
Q 74.3125 48.1875 68.609375 48.1875 
Q 61.625 48.1875 57.5625 43.546875 
Q 53.515625 38.921875 53.515625 30.90625 
L 53.515625 0 
L 44.484375 0 
L 44.484375 32.71875 
Q 44.484375 40.625 41.703125 44.40625 
Q 38.921875 48.1875 33.109375 48.1875 
Q 26.21875 48.1875 22.15625 43.53125 
Q 18.109375 38.875 18.109375 30.90625 
L 18.109375 0 
L 9.078125 0 
L 9.078125 54.6875 
L 18.109375 54.6875 
L 18.109375 46.1875 
Q 21.1875 51.21875 25.484375 53.609375 
Q 29.78125 56 35.6875 56 
Q 41.65625 56 45.828125 52.96875 
Q 50 49.953125 52 44.1875 
z
" id="DejaVuSans-109"/>
       <path d="M 44.28125 53.078125 
L 44.28125 44.578125 
Q 40.484375 46.53125 36.375 47.5 
Q 32.28125 48.484375 27.875 48.484375 
Q 21.1875 48.484375 17.84375 46.4375 
Q 14.5 44.390625 14.5 40.28125 
Q 14.5 37.15625 16.890625 35.375 
Q 19.28125 33.59375 26.515625 31.984375 
L 29.59375 31.296875 
Q 39.15625 29.25 43.1875 25.515625 
Q 47.21875 21.78125 47.21875 15.09375 
Q 47.21875 7.46875 41.1875 3.015625 
Q 35.15625 -1.421875 24.609375 -1.421875 
Q 20.21875 -1.421875 15.453125 -0.5625 
Q 10.6875 0.296875 5.421875 2 
L 5.421875 11.28125 
Q 10.40625 8.6875 15.234375 7.390625 
Q 20.0625 6.109375 24.8125 6.109375 
Q 31.15625 6.109375 34.5625 8.28125 
Q 37.984375 10.453125 37.984375 14.40625 
Q 37.984375 18.0625 35.515625 20.015625 
Q 33.0625 21.96875 24.703125 23.78125 
L 21.578125 24.515625 
Q 13.234375 26.265625 9.515625 29.90625 
Q 5.8125 33.546875 5.8125 39.890625 
Q 5.8125 47.609375 11.28125 51.796875 
Q 16.75 56 26.8125 56 
Q 31.78125 56 36.171875 55.265625 
Q 40.578125 54.546875 44.28125 53.078125 
z
" id="DejaVuSans-115"/>
       <path d="M 9.421875 54.6875 
L 18.40625 54.6875 
L 18.40625 -0.984375 
Q 18.40625 -11.421875 14.421875 -16.109375 
Q 10.453125 -20.796875 1.609375 -20.796875 
L -1.8125 -20.796875 
L -1.8125 -13.1875 
L 0.59375 -13.1875 
Q 5.71875 -13.1875 7.5625 -10.8125 
Q 9.421875 -8.453125 9.421875 -0.984375 
z
M 9.421875 75.984375 
L 18.40625 75.984375 
L 18.40625 64.59375 
L 9.421875 64.59375 
z
" id="DejaVuSans-106"/>
       <path id="DejaVuSans-32"/>
       <path d="M 54.890625 54.6875 
L 35.109375 28.078125 
L 55.90625 0 
L 45.3125 0 
L 29.390625 21.484375 
L 13.484375 0 
L 2.875 0 
L 24.125 28.609375 
L 4.6875 54.6875 
L 15.28125 54.6875 
L 29.78125 35.203125 
L 44.28125 54.6875 
z
" id="DejaVuSans-120"/>
       <path d="M 45.40625 46.390625 
L 45.40625 75.984375 
L 54.390625 75.984375 
L 54.390625 0 
L 45.40625 0 
L 45.40625 8.203125 
Q 42.578125 3.328125 38.25 0.953125 
Q 33.9375 -1.421875 27.875 -1.421875 
Q 17.96875 -1.421875 11.734375 6.484375 
Q 5.515625 14.40625 5.515625 27.296875 
Q 5.515625 40.1875 11.734375 48.09375 
Q 17.96875 56 27.875 56 
Q 33.9375 56 38.25 53.625 
Q 42.578125 51.265625 45.40625 46.390625 
z
M 14.796875 27.296875 
Q 14.796875 17.390625 18.875 11.75 
Q 22.953125 6.109375 30.078125 6.109375 
Q 37.203125 6.109375 41.296875 11.75 
Q 45.40625 17.390625 45.40625 27.296875 
Q 45.40625 37.203125 41.296875 42.84375 
Q 37.203125 48.484375 30.078125 48.484375 
Q 22.953125 48.484375 18.875 42.84375 
Q 14.796875 37.203125 14.796875 27.296875 
z
" id="DejaVuSans-100"/>
       <path d="M 20.65625 79.984375 
L 30.375 79.984375 
L 14.46875 61.625 
L 6.984375 61.625 
z
M 9.421875 54.6875 
L 18.40625 54.6875 
L 18.40625 0 
L 9.421875 0 
z
M 13.921875 56 
z
" id="DejaVuSans-237"/>
       <path d="M 34.28125 27.484375 
Q 23.390625 27.484375 19.1875 25 
Q 14.984375 22.515625 14.984375 16.5 
Q 14.984375 11.71875 18.140625 8.90625 
Q 21.296875 6.109375 26.703125 6.109375 
Q 34.1875 6.109375 38.703125 11.40625 
Q 43.21875 16.703125 43.21875 25.484375 
L 43.21875 27.484375 
z
M 52.203125 31.203125 
L 52.203125 0 
L 43.21875 0 
L 43.21875 8.296875 
Q 40.140625 3.328125 35.546875 0.953125 
Q 30.953125 -1.421875 24.3125 -1.421875 
Q 15.921875 -1.421875 10.953125 3.296875 
Q 6 8.015625 6 15.921875 
Q 6 25.140625 12.171875 29.828125 
Q 18.359375 34.515625 30.609375 34.515625 
L 43.21875 34.515625 
L 43.21875 35.40625 
Q 43.21875 41.609375 39.140625 45 
Q 35.0625 48.390625 27.6875 48.390625 
Q 23 48.390625 18.546875 47.265625 
Q 14.109375 46.140625 10.015625 43.890625 
L 10.015625 52.203125 
Q 14.9375 54.109375 19.578125 55.046875 
Q 24.21875 56 28.609375 56 
Q 40.484375 56 46.34375 49.84375 
Q 52.203125 43.703125 52.203125 31.203125 
z
" id="DejaVuSans-97"/>
      </defs>
      <use xlink:href="#DejaVuSans-109"/>
      <use x="97.412109" xlink:href="#DejaVuSans-115"/>
      <use x="149.511719" xlink:href="#DejaVuSans-106"/>
      <use x="177.294922" xlink:href="#DejaVuSans-32"/>
      <use x="209.082031" xlink:href="#DejaVuSans-120"/>
      <use x="268.261719" xlink:href="#DejaVuSans-32"/>
      <use x="300.048828" xlink:href="#DejaVuSans-100"/>
      <use x="363.525391" xlink:href="#DejaVuSans-237"/>
      <use x="391.308594" xlink:href="#DejaVuSans-97"/>
     </g>
    </g>
   </g>
   <g id="matplotlib.axis_2"/>
   <g id="line2d_3">
    <path clip-path="url(#p32dc0c69d3)" d="M 81.22314 301.167962 
L 82.723078 301.075164 
L 83.62304 300.794653 
L 84.672996 300.227459 
L 85.872945 299.365927 
L 86.922901 298.333148 
L 87.972857 296.915436 
L 89.772782 293.962111 
L 90.672744 292.107362 
L 91.422713 290.058152 
L 92.322675 286.838089 
L 93.522625 281.548763 
L 95.622536 271.145217 
L 96.672492 264.900118 
L 97.872442 256.305852 
L 99.222385 244.899198 
L 100.422335 232.530204 
L 101.922272 214.037145 
L 103.87219 190.463757 
L 105.522121 173.232786 
L 107.172052 156.18891 
L 108.372002 140.962151 
L 110.171926 117.564347 
L 111.071888 108.978393 
L 113.921769 85.540707 
L 116.321668 61.771914 
L 116.921643 58.332487 
L 117.371624 56.708392 
L 117.821605 55.834578 
L 118.121593 55.584281 
L 118.42158 55.581288 
L 118.721568 55.789622 
L 119.021555 56.233645 
L 119.471536 57.383011 
L 120.071511 59.689036 
L 121.271461 65.823214 
L 122.621404 73.58688 
L 123.371372 79.41889 
L 124.421328 89.848381 
L 126.071259 106.219359 
L 127.571196 120.988332 
L 128.771146 135.316997 
L 131.171045 164.453391 
L 133.270957 188.900178 
L 135.970844 221.617016 
L 137.320787 234.742479 
L 138.670731 245.855695 
L 140.020674 255.456381 
L 141.370617 263.364973 
L 144.220498 278.90715 
L 145.12046 282.171131 
L 148.570315 292.968653 
L 149.470278 294.844727 
L 150.37024 296.177162 
L 151.270202 297.140405 
L 152.320158 298.000351 
L 153.820095 298.93937 
L 155.320032 299.962137 
L 156.819969 300.967428 
L 157.569938 301.216713 
L 157.869925 301.253671 
L 157.869925 301.253671 
" style="fill:none;stroke:#1f77b4;stroke-linecap:square;stroke-width:1.5;"/>
   </g>
   <g id="line2d_4">
    <path clip-path="url(#p32dc0c69d3)" d="M 81.22314 302.645455 
L 81.22314 301.167962 
" style="fill:none;stroke:#1f77b4;stroke-linecap:square;stroke-width:1.5;"/>
   </g>
   <g id="line2d_5">
    <path clip-path="url(#p32dc0c69d3)" d="M 157.869925 302.644597 
L 157.869925 301.253671 
" style="fill:none;stroke:#1f77b4;stroke-linecap:square;stroke-width:1.5;"/>
   </g>
   <g id="line2d_6">
    <defs>
     <path d="M 0 3 
C 0.795609 3 1.55874 2.683901 2.12132 2.12132 
C 2.683901 1.55874 3 0.795609 3 0 
C 3 -0.795609 2.683901 -1.55874 2.12132 -2.12132 
C 1.55874 -2.683901 0.795609 -3 0 -3 
C -0.795609 -3 -1.55874 -2.683901 -2.12132 -2.12132 
C -2.683901 -1.55874 -3 -0.795609 -3 0 
C -3 0.795609 -2.683901 1.55874 -2.12132 2.12132 
C -1.55874 2.683901 -0.795609 3 0 3 
z
" id="m917d5dae06" style="stroke:#000000;"/>
    </defs>
    <g clip-path="url(#p32dc0c69d3)">
     <use style="fill:#1f77b4;stroke:#000000;" x="118.892255" xlink:href="#m917d5dae06" y="302.630826"/>
    </g>
   </g>
   <g id="line2d_7">
    <path clip-path="url(#p32dc0c69d3)" d="M 159.402346 301.244358 
L 160.858286 301.121386 
L 162.106234 300.777244 
L 163.354183 300.173453 
L 165.018114 299.09363 
L 166.890036 297.637642 
L 169.177942 295.551979 
L 170.633882 294.034579 
L 171.465847 292.929422 
L 172.297813 291.487016 
L 173.129778 289.611451 
L 174.377727 286.170412 
L 179.36952 271.08178 
L 180.617469 266.076289 
L 182.073409 259.175019 
L 184.985288 244.206495 
L 186.649219 233.951811 
L 188.521142 222.500026 
L 190.185073 213.947893 
L 191.641013 206.136849 
L 192.888961 197.977605 
L 197.672763 164.594799 
L 199.128703 156.737482 
L 200.16866 152.105345 
L 205.576436 131.209947 
L 206.408402 129.063353 
L 207.448359 127.058708 
L 208.904299 124.616715 
L 209.528273 123.833105 
L 209.944256 123.574118 
L 210.360239 123.603829 
L 210.776221 123.992429 
L 211.192204 124.779822 
L 211.816178 126.725579 
L 212.648144 130.518363 
L 214.104084 138.839342 
L 215.976006 149.116121 
L 218.887886 163.206703 
L 223.047714 183.70779 
L 224.295662 190.970615 
L 225.959593 202.124572 
L 228.45549 218.822513 
L 230.119421 228.411393 
L 232.199335 238.885832 
L 237.607112 264.634656 
L 238.85506 268.813407 
L 244.262836 284.725846 
L 245.510785 287.619542 
L 247.174716 290.78 
L 248.630656 293.175342 
L 249.878604 294.80987 
L 251.126553 296.052198 
L 252.582492 297.162414 
L 254.662406 298.404412 
L 257.990269 300.092928 
L 260.070183 300.865273 
L 261.734114 301.285222 
L 263.606036 301.48917 
L 265.68595 301.59229 
L 265.68595 301.59229 
" style="fill:none;stroke:#ff7f0e;stroke-linecap:square;stroke-width:1.5;"/>
   </g>
   <g id="line2d_8">
    <path clip-path="url(#p32dc0c69d3)" d="M 159.402346 302.644691 
L 159.402346 301.244358 
" style="fill:none;stroke:#ff7f0e;stroke-linecap:square;stroke-width:1.5;"/>
   </g>
   <g id="line2d_9">
    <path clip-path="url(#p32dc0c69d3)" d="M 265.68595 302.641211 
L 265.68595 301.59229 
" style="fill:none;stroke:#ff7f0e;stroke-linecap:square;stroke-width:1.5;"/>
   </g>
   <g id="line2d_10">
    <defs>
     <path d="M 0 3 
C 0.795609 3 1.55874 2.683901 2.12132 2.12132 
C 2.683901 1.55874 3 0.795609 3 0 
C 3 -0.795609 2.683901 -1.55874 2.12132 -2.12132 
C 1.55874 -2.683901 0.795609 -3 0 -3 
C -0.795609 -3 -1.55874 -2.683901 -2.12132 -2.12132 
C -2.683901 -1.55874 -3 -0.795609 -3 0 
C -3 0.795609 -2.683901 1.55874 -2.12132 2.12132 
C -1.55874 2.683901 -0.795609 3 0 3 
z
" id="m44a07de456" style="stroke:#000000;"/>
    </defs>
    <g clip-path="url(#p32dc0c69d3)">
     <use style="fill:#ff7f0e;stroke:#000000;" x="209.299359" xlink:href="#m44a07de456" y="302.630826"/>
    </g>
   </g>
   <g id="line2d_11"/>
   <g id="line2d_12"/>
   <g id="patch_3">
    <path d="M 72 315 
L 274.909091 315 
" style="fill:none;stroke:#000000;stroke-linecap:square;stroke-linejoin:miter;stroke-width:0.8;"/>
   </g>
   <g id="text_4">
    <!-- $\lambda$ (msj x da) -->
    <g transform="translate(111.254545 37.2)scale(0.2 -0.2)">
     <defs>
      <path d="M 36.71875 67.4375 
L 48.828125 0 
L 39.3125 0 
L 31.84375 40.4375 
L 5.125 0 
L -4.390625 0 
L 29.734375 52.4375 
L 28.03125 62.109375 
Q 26.953125 68.265625 21.734375 68.265625 
L 17.046875 68.265625 
L 18.5 75.984375 
L 24.21875 75.875 
Q 35.203125 75.734375 36.71875 67.4375 
z
" id="DejaVuSans-Oblique-955"/>
      <path d="M 31 75.875 
Q 24.46875 64.65625 21.28125 53.65625 
Q 18.109375 42.671875 18.109375 31.390625 
Q 18.109375 20.125 21.3125 9.0625 
Q 24.515625 -2 31 -13.1875 
L 23.1875 -13.1875 
Q 15.875 -1.703125 12.234375 9.375 
Q 8.59375 20.453125 8.59375 31.390625 
Q 8.59375 42.28125 12.203125 53.3125 
Q 15.828125 64.359375 23.1875 75.875 
z
" id="DejaVuSans-40"/>
      <path d="M 8.015625 75.875 
L 15.828125 75.875 
Q 23.140625 64.359375 26.78125 53.3125 
Q 30.421875 42.28125 30.421875 31.390625 
Q 30.421875 20.453125 26.78125 9.375 
Q 23.140625 -1.703125 15.828125 -13.1875 
L 8.015625 -13.1875 
Q 14.5 -2 17.703125 9.0625 
Q 20.90625 20.125 20.90625 31.390625 
Q 20.90625 42.671875 17.703125 53.65625 
Q 14.5 64.65625 8.015625 75.875 
z
" id="DejaVuSans-41"/>
     </defs>
     <use transform="translate(0 0.015625)" xlink:href="#DejaVuSans-Oblique-955"/>
     <use transform="translate(59.179688 0.015625)" xlink:href="#DejaVuSans-32"/>
     <use transform="translate(90.966797 0.015625)" xlink:href="#DejaVuSans-40"/>
     <use transform="translate(129.980469 0.015625)" xlink:href="#DejaVuSans-109"/>
     <use transform="translate(227.392578 0.015625)" xlink:href="#DejaVuSans-115"/>
     <use transform="translate(279.492188 0.015625)" xlink:href="#DejaVuSans-106"/>
     <use transform="translate(307.275391 0.015625)" xlink:href="#DejaVuSans-32"/>
     <use transform="translate(339.0625 0.015625)" xlink:href="#DejaVuSans-120"/>
     <use transform="translate(398.242188 0.015625)" xlink:href="#DejaVuSans-32"/>
     <use transform="translate(430.029297 0.015625)" xlink:href="#DejaVuSans-100"/>
     <use transform="translate(493.505859 0.015625)" xlink:href="#DejaVuSans-237"/>
     <use transform="translate(521.289062 0.015625)" xlink:href="#DejaVuSans-97"/>
     <use transform="translate(582.568359 0.015625)" xlink:href="#DejaVuSans-41"/>
    </g>
   </g>
   <g id="legend_1">
    <g id="patch_4">
     <path d="M 112.524716 80.95625 
L 267.909091 80.95625 
Q 269.909091 80.95625 269.909091 78.95625 
L 269.909091 50.2 
Q 269.909091 48.2 267.909091 48.2 
L 112.524716 48.2 
Q 110.524716 48.2 110.524716 50.2 
L 110.524716 78.95625 
Q 110.524716 80.95625 112.524716 80.95625 
z
" style="fill:#ffffff;opacity:0.8;stroke:#cccccc;stroke-linejoin:miter;"/>
    </g>
    <g id="line2d_13">
     <path d="M 114.524716 56.298437 
L 134.524716 56.298437 
" style="fill:none;stroke:#1f77b4;stroke-linecap:square;stroke-width:1.5;"/>
    </g>
    <g id="line2d_14"/>
    <g id="text_5">
     <!-- Antes del 44 dia (media) -->
     <g transform="translate(142.524716 59.798437)scale(0.1 -0.1)">
      <defs>
       <path d="M 34.1875 63.1875 
L 20.796875 26.90625 
L 47.609375 26.90625 
z
M 28.609375 72.90625 
L 39.796875 72.90625 
L 67.578125 0 
L 57.328125 0 
L 50.6875 18.703125 
L 17.828125 18.703125 
L 11.1875 0 
L 0.78125 0 
z
" id="DejaVuSans-65"/>
       <path d="M 54.890625 33.015625 
L 54.890625 0 
L 45.90625 0 
L 45.90625 32.71875 
Q 45.90625 40.484375 42.875 44.328125 
Q 39.84375 48.1875 33.796875 48.1875 
Q 26.515625 48.1875 22.3125 43.546875 
Q 18.109375 38.921875 18.109375 30.90625 
L 18.109375 0 
L 9.078125 0 
L 9.078125 54.6875 
L 18.109375 54.6875 
L 18.109375 46.1875 
Q 21.34375 51.125 25.703125 53.5625 
Q 30.078125 56 35.796875 56 
Q 45.21875 56 50.046875 50.171875 
Q 54.890625 44.34375 54.890625 33.015625 
z
" id="DejaVuSans-110"/>
       <path d="M 18.3125 70.21875 
L 18.3125 54.6875 
L 36.8125 54.6875 
L 36.8125 47.703125 
L 18.3125 47.703125 
L 18.3125 18.015625 
Q 18.3125 11.328125 20.140625 9.421875 
Q 21.96875 7.515625 27.59375 7.515625 
L 36.8125 7.515625 
L 36.8125 0 
L 27.59375 0 
Q 17.1875 0 13.234375 3.875 
Q 9.28125 7.765625 9.28125 18.015625 
L 9.28125 47.703125 
L 2.6875 47.703125 
L 2.6875 54.6875 
L 9.28125 54.6875 
L 9.28125 70.21875 
z
" id="DejaVuSans-116"/>
       <path d="M 56.203125 29.59375 
L 56.203125 25.203125 
L 14.890625 25.203125 
Q 15.484375 15.921875 20.484375 11.0625 
Q 25.484375 6.203125 34.421875 6.203125 
Q 39.59375 6.203125 44.453125 7.46875 
Q 49.3125 8.734375 54.109375 11.28125 
L 54.109375 2.78125 
Q 49.265625 0.734375 44.1875 -0.34375 
Q 39.109375 -1.421875 33.890625 -1.421875 
Q 20.796875 -1.421875 13.15625 6.1875 
Q 5.515625 13.8125 5.515625 26.8125 
Q 5.515625 40.234375 12.765625 48.109375 
Q 20.015625 56 32.328125 56 
Q 43.359375 56 49.78125 48.890625 
Q 56.203125 41.796875 56.203125 29.59375 
z
M 47.21875 32.234375 
Q 47.125 39.59375 43.09375 43.984375 
Q 39.0625 48.390625 32.421875 48.390625 
Q 24.90625 48.390625 20.390625 44.140625 
Q 15.875 39.890625 15.1875 32.171875 
z
" id="DejaVuSans-101"/>
       <path d="M 9.421875 75.984375 
L 18.40625 75.984375 
L 18.40625 0 
L 9.421875 0 
z
" id="DejaVuSans-108"/>
       <path d="M 37.796875 64.3125 
L 12.890625 25.390625 
L 37.796875 25.390625 
z
M 35.203125 72.90625 
L 47.609375 72.90625 
L 47.609375 25.390625 
L 58.015625 25.390625 
L 58.015625 17.1875 
L 47.609375 17.1875 
L 47.609375 0 
L 37.796875 0 
L 37.796875 17.1875 
L 4.890625 17.1875 
L 4.890625 26.703125 
z
" id="DejaVuSans-52"/>
       <path d="M 9.421875 54.6875 
L 18.40625 54.6875 
L 18.40625 0 
L 9.421875 0 
z
M 9.421875 75.984375 
L 18.40625 75.984375 
L 18.40625 64.59375 
L 9.421875 64.59375 
z
" id="DejaVuSans-105"/>
      </defs>
      <use xlink:href="#DejaVuSans-65"/>
      <use x="68.408203" xlink:href="#DejaVuSans-110"/>
      <use x="131.787109" xlink:href="#DejaVuSans-116"/>
      <use x="170.996094" xlink:href="#DejaVuSans-101"/>
      <use x="232.519531" xlink:href="#DejaVuSans-115"/>
      <use x="284.619141" xlink:href="#DejaVuSans-32"/>
      <use x="316.40625" xlink:href="#DejaVuSans-100"/>
      <use x="379.882812" xlink:href="#DejaVuSans-101"/>
      <use x="441.40625" xlink:href="#DejaVuSans-108"/>
      <use x="469.189453" xlink:href="#DejaVuSans-32"/>
      <use x="500.976562" xlink:href="#DejaVuSans-52"/>
      <use x="564.599609" xlink:href="#DejaVuSans-52"/>
      <use x="628.222656" xlink:href="#DejaVuSans-32"/>
      <use x="660.009766" xlink:href="#DejaVuSans-100"/>
      <use x="723.486328" xlink:href="#DejaVuSans-105"/>
      <use x="751.269531" xlink:href="#DejaVuSans-97"/>
      <use x="812.548828" xlink:href="#DejaVuSans-32"/>
      <use x="844.335938" xlink:href="#DejaVuSans-40"/>
      <use x="883.349609" xlink:href="#DejaVuSans-109"/>
      <use x="980.761719" xlink:href="#DejaVuSans-101"/>
      <use x="1042.285156" xlink:href="#DejaVuSans-100"/>
      <use x="1105.761719" xlink:href="#DejaVuSans-105"/>
      <use x="1133.544922" xlink:href="#DejaVuSans-97"/>
      <use x="1194.824219" xlink:href="#DejaVuSans-41"/>
     </g>
    </g>
    <g id="line2d_15">
     <path d="M 114.524716 71.376562 
L 134.524716 71.376562 
" style="fill:none;stroke:#ff7f0e;stroke-linecap:square;stroke-width:1.5;"/>
    </g>
    <g id="line2d_16"/>
    <g id="text_6">
     <!-- Despus -->
     <g transform="translate(142.524716 74.876562)scale(0.1 -0.1)">
      <defs>
       <path d="M 19.671875 64.796875 
L 19.671875 8.109375 
L 31.59375 8.109375 
Q 46.6875 8.109375 53.6875 14.9375 
Q 60.6875 21.78125 60.6875 36.53125 
Q 60.6875 51.171875 53.6875 57.984375 
Q 46.6875 64.796875 31.59375 64.796875 
z
M 9.8125 72.90625 
L 30.078125 72.90625 
Q 51.265625 72.90625 61.171875 64.09375 
Q 71.09375 55.28125 71.09375 36.53125 
Q 71.09375 17.671875 61.125 8.828125 
Q 51.171875 0 30.078125 0 
L 9.8125 0 
z
" id="DejaVuSans-68"/>
       <path d="M 18.109375 8.203125 
L 18.109375 -20.796875 
L 9.078125 -20.796875 
L 9.078125 54.6875 
L 18.109375 54.6875 
L 18.109375 46.390625 
Q 20.953125 51.265625 25.265625 53.625 
Q 29.59375 56 35.59375 56 
Q 45.5625 56 51.78125 48.09375 
Q 58.015625 40.1875 58.015625 27.296875 
Q 58.015625 14.40625 51.78125 6.484375 
Q 45.5625 -1.421875 35.59375 -1.421875 
Q 29.59375 -1.421875 25.265625 0.953125 
Q 20.953125 3.328125 18.109375 8.203125 
z
M 48.6875 27.296875 
Q 48.6875 37.203125 44.609375 42.84375 
Q 40.53125 48.484375 33.40625 48.484375 
Q 26.265625 48.484375 22.1875 42.84375 
Q 18.109375 37.203125 18.109375 27.296875 
Q 18.109375 17.390625 22.1875 11.75 
Q 26.265625 6.109375 33.40625 6.109375 
Q 40.53125 6.109375 44.609375 11.75 
Q 48.6875 17.390625 48.6875 27.296875 
z
" id="DejaVuSans-112"/>
       <path d="M 8.5 21.578125 
L 8.5 54.6875 
L 17.484375 54.6875 
L 17.484375 21.921875 
Q 17.484375 14.15625 20.5 10.265625 
Q 23.53125 6.390625 29.59375 6.390625 
Q 36.859375 6.390625 41.078125 11.03125 
Q 45.3125 15.671875 45.3125 23.6875 
L 45.3125 54.6875 
L 54.296875 54.6875 
L 54.296875 0 
L 45.3125 0 
L 45.3125 8.40625 
Q 42.046875 3.421875 37.71875 1 
Q 33.40625 -1.421875 27.6875 -1.421875 
Q 18.265625 -1.421875 13.375 4.4375 
Q 8.5 10.296875 8.5 21.578125 
z
M 31.109375 56 
z
" id="DejaVuSans-117"/>
       <path d="M 56.203125 29.59375 
L 56.203125 25.203125 
L 14.890625 25.203125 
Q 15.484375 15.921875 20.484375 11.0625 
Q 25.484375 6.203125 34.421875 6.203125 
Q 39.59375 6.203125 44.453125 7.46875 
Q 49.3125 8.734375 54.109375 11.28125 
L 54.109375 2.78125 
Q 49.265625 0.734375 44.1875 -0.34375 
Q 39.109375 -1.421875 33.890625 -1.421875 
Q 20.796875 -1.421875 13.15625 6.1875 
Q 5.515625 13.8125 5.515625 26.8125 
Q 5.515625 40.234375 12.765625 48.109375 
Q 20.015625 56 32.328125 56 
Q 43.359375 56 49.78125 48.890625 
Q 56.203125 41.796875 56.203125 29.59375 
z
M 47.21875 32.234375 
Q 47.125 39.59375 43.09375 43.984375 
Q 39.0625 48.390625 32.421875 48.390625 
Q 24.90625 48.390625 20.390625 44.140625 
Q 15.875 39.890625 15.1875 32.171875 
z
M 38.53125 79.984375 
L 48.25 79.984375 
L 32.34375 61.625 
L 24.859375 61.625 
z
" id="DejaVuSans-233"/>
      </defs>
      <use xlink:href="#DejaVuSans-68"/>
      <use x="77.001953" xlink:href="#DejaVuSans-101"/>
      <use x="138.525391" xlink:href="#DejaVuSans-115"/>
      <use x="190.625" xlink:href="#DejaVuSans-112"/>
      <use x="254.101562" xlink:href="#DejaVuSans-117"/>
      <use x="317.480469" xlink:href="#DejaVuSans-233"/>
      <use x="379.003906" xlink:href="#DejaVuSans-115"/>
     </g>
    </g>
   </g>
  </g>
  <g id="axes_2">
   <g id="patch_5">
    <path d="M 315.490909 315 
L 518.4 315 
L 518.4 43.2 
L 315.490909 43.2 
z
" style="fill:#ffffff;"/>
   </g>
   <g id="patch_6">
    <path clip-path="url(#p31de80d540)" d="M 338.903497 315 
L 367.28239 315 
L 367.28239 314.653596 
L 338.903497 314.653596 
z
" style="fill:#800080;opacity:0.25;"/>
   </g>
   <g id="patch_7">
    <path clip-path="url(#p31de80d540)" d="M 367.28239 315 
L 395.661284 315 
L 395.661284 296.973662 
L 367.28239 296.973662 
z
" style="fill:#800080;opacity:0.25;"/>
   </g>
   <g id="patch_8">
    <path clip-path="url(#p31de80d540)" d="M 395.661284 315 
L 424.040178 315 
L 424.040178 255.365198 
L 395.661284 255.365198 
z
" style="fill:#800080;opacity:0.25;"/>
   </g>
   <g id="patch_9">
    <path clip-path="url(#p31de80d540)" d="M 424.040178 315 
L 452.419072 315 
L 452.419072 118.948589 
L 424.040178 118.948589 
z
" style="fill:#800080;opacity:0.25;"/>
   </g>
   <g id="patch_10">
    <path clip-path="url(#p31de80d540)" d="M 452.419072 315 
L 480.797966 315 
L 480.797966 56.142857 
L 452.419072 56.142857 
z
" style="fill:#800080;opacity:0.25;"/>
   </g>
   <g id="patch_11">
    <path clip-path="url(#p31de80d540)" d="M 480.797966 315 
L 509.17686 315 
L 509.17686 314.986677 
L 480.797966 314.986677 
z
" style="fill:#800080;opacity:0.25;"/>
   </g>
   <g id="matplotlib.axis_3">
    <g id="xtick_3">
     <g id="line2d_17">
      <g>
       <use style="stroke:#000000;stroke-width:0.8;" x="367.28239" xlink:href="#mc7c7ceb0d9" y="315"/>
      </g>
     </g>
     <g id="text_7">
      <!-- 42 -->
      <g transform="translate(358.37489 332.637812)scale(0.14 -0.14)">
       <use xlink:href="#DejaVuSans-52"/>
       <use x="63.623047" xlink:href="#DejaVuSans-50"/>
      </g>
     </g>
    </g>
    <g id="xtick_4">
     <g id="line2d_18">
      <g>
       <use style="stroke:#000000;stroke-width:0.8;" x="424.040178" xlink:href="#mc7c7ceb0d9" y="315"/>
      </g>
     </g>
     <g id="text_8">
      <!-- 44 -->
      <g transform="translate(415.132678 332.637812)scale(0.14 -0.14)">
       <use xlink:href="#DejaVuSans-52"/>
       <use x="63.623047" xlink:href="#DejaVuSans-52"/>
      </g>
     </g>
    </g>
    <g id="xtick_5">
     <g id="line2d_19">
      <g>
       <use style="stroke:#000000;stroke-width:0.8;" x="480.797966" xlink:href="#mc7c7ceb0d9" y="315"/>
      </g>
     </g>
     <g id="text_9">
      <!-- 46 -->
      <g transform="translate(471.890466 332.637812)scale(0.14 -0.14)">
       <defs>
        <path d="M 33.015625 40.375 
Q 26.375 40.375 22.484375 35.828125 
Q 18.609375 31.296875 18.609375 23.390625 
Q 18.609375 15.53125 22.484375 10.953125 
Q 26.375 6.390625 33.015625 6.390625 
Q 39.65625 6.390625 43.53125 10.953125 
Q 47.40625 15.53125 47.40625 23.390625 
Q 47.40625 31.296875 43.53125 35.828125 
Q 39.65625 40.375 33.015625 40.375 
z
M 52.59375 71.296875 
L 52.59375 62.3125 
Q 48.875 64.0625 45.09375 64.984375 
Q 41.3125 65.921875 37.59375 65.921875 
Q 27.828125 65.921875 22.671875 59.328125 
Q 17.53125 52.734375 16.796875 39.40625 
Q 19.671875 43.65625 24.015625 45.921875 
Q 28.375 48.1875 33.59375 48.1875 
Q 44.578125 48.1875 50.953125 41.515625 
Q 57.328125 34.859375 57.328125 23.390625 
Q 57.328125 12.15625 50.6875 5.359375 
Q 44.046875 -1.421875 33.015625 -1.421875 
Q 20.359375 -1.421875 13.671875 8.265625 
Q 6.984375 17.96875 6.984375 36.375 
Q 6.984375 53.65625 15.1875 63.9375 
Q 23.390625 74.21875 37.203125 74.21875 
Q 40.921875 74.21875 44.703125 73.484375 
Q 48.484375 72.75 52.59375 71.296875 
z
" id="DejaVuSans-54"/>
       </defs>
       <use xlink:href="#DejaVuSans-52"/>
       <use x="63.623047" xlink:href="#DejaVuSans-54"/>
      </g>
     </g>
    </g>
    <g id="text_10">
     <!-- da de cambio -->
     <g transform="translate(363.901705 350.947031)scale(0.15 -0.15)">
      <defs>
       <path d="M 48.78125 52.59375 
L 48.78125 44.1875 
Q 44.96875 46.296875 41.140625 47.34375 
Q 37.3125 48.390625 33.40625 48.390625 
Q 24.65625 48.390625 19.8125 42.84375 
Q 14.984375 37.3125 14.984375 27.296875 
Q 14.984375 17.28125 19.8125 11.734375 
Q 24.65625 6.203125 33.40625 6.203125 
Q 37.3125 6.203125 41.140625 7.25 
Q 44.96875 8.296875 48.78125 10.40625 
L 48.78125 2.09375 
Q 45.015625 0.34375 40.984375 -0.53125 
Q 36.96875 -1.421875 32.421875 -1.421875 
Q 20.0625 -1.421875 12.78125 6.34375 
Q 5.515625 14.109375 5.515625 27.296875 
Q 5.515625 40.671875 12.859375 48.328125 
Q 20.21875 56 33.015625 56 
Q 37.15625 56 41.109375 55.140625 
Q 45.0625 54.296875 48.78125 52.59375 
z
" id="DejaVuSans-99"/>
       <path d="M 48.6875 27.296875 
Q 48.6875 37.203125 44.609375 42.84375 
Q 40.53125 48.484375 33.40625 48.484375 
Q 26.265625 48.484375 22.1875 42.84375 
Q 18.109375 37.203125 18.109375 27.296875 
Q 18.109375 17.390625 22.1875 11.75 
Q 26.265625 6.109375 33.40625 6.109375 
Q 40.53125 6.109375 44.609375 11.75 
Q 48.6875 17.390625 48.6875 27.296875 
z
M 18.109375 46.390625 
Q 20.953125 51.265625 25.265625 53.625 
Q 29.59375 56 35.59375 56 
Q 45.5625 56 51.78125 48.09375 
Q 58.015625 40.1875 58.015625 27.296875 
Q 58.015625 14.40625 51.78125 6.484375 
Q 45.5625 -1.421875 35.59375 -1.421875 
Q 29.59375 -1.421875 25.265625 0.953125 
Q 20.953125 3.328125 18.109375 8.203125 
L 18.109375 0 
L 9.078125 0 
L 9.078125 75.984375 
L 18.109375 75.984375 
z
" id="DejaVuSans-98"/>
       <path d="M 30.609375 48.390625 
Q 23.390625 48.390625 19.1875 42.75 
Q 14.984375 37.109375 14.984375 27.296875 
Q 14.984375 17.484375 19.15625 11.84375 
Q 23.34375 6.203125 30.609375 6.203125 
Q 37.796875 6.203125 41.984375 11.859375 
Q 46.1875 17.53125 46.1875 27.296875 
Q 46.1875 37.015625 41.984375 42.703125 
Q 37.796875 48.390625 30.609375 48.390625 
z
M 30.609375 56 
Q 42.328125 56 49.015625 48.375 
Q 55.71875 40.765625 55.71875 27.296875 
Q 55.71875 13.875 49.015625 6.21875 
Q 42.328125 -1.421875 30.609375 -1.421875 
Q 18.84375 -1.421875 12.171875 6.21875 
Q 5.515625 13.875 5.515625 27.296875 
Q 5.515625 40.765625 12.171875 48.375 
Q 18.84375 56 30.609375 56 
z
" id="DejaVuSans-111"/>
      </defs>
      <use xlink:href="#DejaVuSans-100"/>
      <use x="63.476562" xlink:href="#DejaVuSans-237"/>
      <use x="91.259766" xlink:href="#DejaVuSans-97"/>
      <use x="152.539062" xlink:href="#DejaVuSans-32"/>
      <use x="184.326172" xlink:href="#DejaVuSans-100"/>
      <use x="247.802734" xlink:href="#DejaVuSans-101"/>
      <use x="309.326172" xlink:href="#DejaVuSans-32"/>
      <use x="341.113281" xlink:href="#DejaVuSans-99"/>
      <use x="396.09375" xlink:href="#DejaVuSans-97"/>
      <use x="457.373047" xlink:href="#DejaVuSans-109"/>
      <use x="554.785156" xlink:href="#DejaVuSans-98"/>
      <use x="618.261719" xlink:href="#DejaVuSans-105"/>
      <use x="646.044922" xlink:href="#DejaVuSans-111"/>
     </g>
    </g>
   </g>
   <g id="matplotlib.axis_4"/>
   <g id="patch_12">
    <path clip-path="url(#p31de80d540)" d="M 324.71405 315 
L 324.71405 314.653596 
L 353.092943 314.653596 
L 353.092943 296.973662 
L 381.471837 296.973662 
L 381.471837 255.365198 
L 409.850731 255.365198 
L 409.850731 118.948589 
L 438.229625 118.948589 
L 438.229625 56.142857 
L 466.608519 56.142857 
L 466.608519 314.986677 
L 494.987413 314.986677 
L 494.987413 315 
" style="fill:none;stroke:#800080;stroke-linejoin:miter;"/>
   </g>
   <g id="line2d_20">
    <defs>
     <path d="M 0 3 
C 0.795609 3 1.55874 2.683901 2.12132 2.12132 
C 2.683901 1.55874 3 0.795609 3 0 
C 3 -0.795609 2.683901 -1.55874 2.12132 -2.12132 
C 1.55874 -2.683901 0.795609 -3 0 -3 
C -0.795609 -3 -1.55874 -2.683901 -2.12132 -2.12132 
C -2.683901 -1.55874 -3 -0.795609 -3 0 
C -3 0.795609 -2.683901 1.55874 -2.12132 2.12132 
C -1.55874 2.683901 -0.795609 3 0 3 
z
" id="mc9a2db2a49" style="stroke:#000000;"/>
    </defs>
    <g clip-path="url(#p31de80d540)">
     <use style="fill:#800080;stroke:#000000;" x="432.675166" xlink:href="#mc9a2db2a49" y="315"/>
    </g>
   </g>
   <g id="patch_13">
    <path d="M 315.490909 315 
L 518.4 315 
" style="fill:none;stroke:#000000;stroke-linecap:square;stroke-linejoin:miter;stroke-width:0.8;"/>
   </g>
   <g id="text_11">
    <!-- $\tau$ (da de cambio) -->
    <g transform="translate(329.145455 37.2)scale(0.2 -0.2)">
     <defs>
      <path d="M 32.859375 9.96875 
Q 34.1875 7.625 39.453125 7.625 
L 43.75 7.625 
L 42.28125 0 
L 36.921875 0 
Q 28.125 0 25 4.6875 
Q 21.921875 9.46875 23.96875 19.828125 
L 29 45.703125 
L 8.453125 45.703125 
L 10.203125 54.6875 
L 60.640625 54.6875 
L 58.890625 45.703125 
L 38.1875 45.703125 
L 33.015625 19.28125 
Q 31.640625 12.203125 32.859375 9.96875 
z
" id="DejaVuSans-Oblique-964"/>
     </defs>
     <use transform="translate(0 0.015625)" xlink:href="#DejaVuSans-Oblique-964"/>
     <use transform="translate(60.205078 0.015625)" xlink:href="#DejaVuSans-32"/>
     <use transform="translate(91.992188 0.015625)" xlink:href="#DejaVuSans-40"/>
     <use transform="translate(131.005859 0.015625)" xlink:href="#DejaVuSans-100"/>
     <use transform="translate(194.482422 0.015625)" xlink:href="#DejaVuSans-237"/>
     <use transform="translate(222.265625 0.015625)" xlink:href="#DejaVuSans-97"/>
     <use transform="translate(283.544922 0.015625)" xlink:href="#DejaVuSans-32"/>
     <use transform="translate(315.332031 0.015625)" xlink:href="#DejaVuSans-100"/>
     <use transform="translate(378.808594 0.015625)" xlink:href="#DejaVuSans-101"/>
     <use transform="translate(440.332031 0.015625)" xlink:href="#DejaVuSans-32"/>
     <use transform="translate(472.119141 0.015625)" xlink:href="#DejaVuSans-99"/>
     <use transform="translate(527.099609 0.015625)" xlink:href="#DejaVuSans-97"/>
     <use transform="translate(588.378906 0.015625)" xlink:href="#DejaVuSans-109"/>
     <use transform="translate(685.791016 0.015625)" xlink:href="#DejaVuSans-98"/>
     <use transform="translate(749.267578 0.015625)" xlink:href="#DejaVuSans-105"/>
     <use transform="translate(777.050781 0.015625)" xlink:href="#DejaVuSans-111"/>
     <use transform="translate(838.232422 0.015625)" xlink:href="#DejaVuSans-41"/>
    </g>
   </g>
  </g>
 </g>
 <defs>
  <clipPath id="p32dc0c69d3">
   <rect height="271.8" width="202.909091" x="72" y="43.2"/>
  </clipPath>
  <clipPath id="p31de80d540">
   <rect height="271.8" width="202.909091" x="315.490909" y="43.2"/>
  </clipPath>
 </defs>
</svg>
