<?xml version="1.0" encoding="utf-8" standalone="no"?>
<!DOCTYPE svg PUBLIC "-//W3C//DTD SVG 1.1//EN"
  "http://www.w3.org/Graphics/SVG/1.1/DTD/svg11.dtd">
<!-- Created with matplotlib (https://matplotlib.org/) -->
<svg height="360pt" version="1.1" viewBox="0 0 576 360" width="576pt" xmlns="http://www.w3.org/2000/svg" xmlns:xlink="http://www.w3.org/1999/xlink">
 <defs>
  <style type="text/css">
*{stroke-linecap:butt;stroke-linejoin:round;}
  </style>
 </defs>
 <g id="figure_1">
  <g id="patch_1">
   <path d="M 0 360 
L 576 360 
L 576 0 
L 0 0 
z
" style="fill:#ffffff;"/>
  </g>
  <g id="axes_1">
   <g id="patch_2">
    <path d="M 72 315 
L 274.909091 315 
L 274.909091 43.2 
L 72 43.2 
z
" style="fill:#ffffff;"/>
   </g>
   <g id="PolyCollection_1">
    <defs>
     <path d="M 81.22314 -57.382584 
L 81.22314 -60.186454 
L 81.603369 -60.208055 
L 81.983598 -60.267831 
L 82.363827 -60.374806 
L 82.744056 -60.520021 
L 83.124285 -60.706217 
L 83.504514 -60.936327 
L 83.884743 -61.206793 
L 84.264972 -61.527766 
L 84.645201 -61.899133 
L 85.02543 -62.325116 
L 85.405659 -62.804565 
L 85.785888 -63.342231 
L 86.166117 -63.93529 
L 86.546346 -64.589255 
L 86.926575 -65.300695 
L 87.306804 -66.076655 
L 87.687033 -66.903692 
L 88.067262 -67.795607 
L 88.447491 -68.743111 
L 88.82772 -69.759517 
L 89.207949 -70.83026 
L 89.588178 -71.964771 
L 89.968407 -73.158494 
L 90.348636 -74.424498 
L 90.728865 -75.755168 
L 91.109094 -77.158785 
L 91.489323 -78.643197 
L 91.869552 -80.205042 
L 92.249781 -81.848511 
L 92.63001 -83.59402 
L 93.010239 -85.436673 
L 93.390468 -87.378673 
L 93.770697 -89.429827 
L 94.150926 -91.597367 
L 94.531155 -93.875659 
L 94.911384 -96.277813 
L 95.291613 -98.799688 
L 95.671842 -101.438038 
L 96.052071 -104.219931 
L 96.4323 -107.152216 
L 96.812529 -110.228335 
L 97.192758 -113.463084 
L 97.572987 -116.84857 
L 97.953216 -120.40352 
L 98.333445 -124.118805 
L 98.713674 -127.999245 
L 99.093903 -132.044488 
L 99.474132 -136.234111 
L 99.854361 -140.574765 
L 100.23459 -145.051235 
L 100.614819 -149.657108 
L 100.995048 -154.379703 
L 101.375277 -159.189571 
L 101.755506 -164.071687 
L 102.135735 -168.983094 
L 102.515963 -173.910799 
L 102.896192 -178.808868 
L 103.276421 -183.626871 
L 103.65665 -188.35391 
L 104.036879 -192.995665 
L 104.417108 -197.518932 
L 104.797337 -201.957477 
L 105.177566 -206.319434 
L 105.557795 -210.651606 
L 105.938024 -214.964951 
L 106.318253 -219.328036 
L 106.698482 -223.722663 
L 107.078711 -228.20611 
L 107.45894 -232.741864 
L 107.839169 -237.344235 
L 108.219398 -241.998999 
L 108.599627 -246.691864 
L 108.979856 -251.374692 
L 109.360085 -256.024857 
L 109.740314 -260.615016 
L 110.120543 -265.108692 
L 110.500772 -269.472807 
L 110.881001 -273.706431 
L 111.26123 -277.719161 
L 111.641459 -281.513167 
L 112.021688 -285.079559 
L 112.401917 -288.363597 
L 112.782146 -291.366025 
L 113.162375 -294.062316 
L 113.542604 -296.427778 
L 113.922833 -298.493562 
L 114.303062 -300.242629 
L 114.683291 -301.660194 
L 115.06352 -302.783519 
L 115.443749 -303.61465 
L 115.823978 -304.162252 
L 116.204207 -304.429269 
L 116.584436 -304.445455 
L 116.964665 -304.197213 
L 117.344894 -303.684185 
L 117.725123 -302.952143 
L 118.105352 -301.981807 
L 118.485581 -300.800205 
L 118.86581 -299.4094 
L 119.246039 -297.811034 
L 119.626268 -295.995233 
L 120.006497 -294.008021 
L 120.386726 -291.781733 
L 120.766955 -289.35787 
L 121.147184 -286.720287 
L 121.527413 -283.850898 
L 121.907642 -280.760318 
L 122.287871 -277.451214 
L 122.6681 -273.909694 
L 123.048329 -270.172525 
L 123.428558 -266.271204 
L 123.808786 -262.204817 
L 124.189015 -257.99907 
L 124.569244 -253.724139 
L 124.949473 -249.362484 
L 125.329702 -244.946438 
L 125.709931 -240.509192 
L 126.09016 -236.06057 
L 126.470389 -231.606597 
L 126.850618 -227.181906 
L 127.230847 -222.731701 
L 127.611076 -218.298474 
L 127.991305 -213.875813 
L 128.371534 -209.420206 
L 128.751763 -204.951969 
L 129.131992 -200.459137 
L 129.512221 -195.940322 
L 129.89245 -191.390253 
L 130.272679 -186.81655 
L 130.652908 -182.216697 
L 131.033137 -177.601625 
L 131.413366 -172.976996 
L 131.793595 -168.366341 
L 132.173824 -163.77481 
L 132.554053 -159.243247 
L 132.934282 -154.774379 
L 133.314511 -150.391301 
L 133.69474 -146.137983 
L 134.074969 -142.011839 
L 134.455198 -138.02517 
L 134.835427 -134.19394 
L 135.215656 -130.525057 
L 135.595885 -127.021849 
L 135.976114 -123.680493 
L 136.356343 -120.471834 
L 136.736572 -117.398003 
L 137.116801 -114.449933 
L 137.49703 -111.603792 
L 137.877259 -108.846478 
L 138.257488 -106.181876 
L 138.637717 -103.58645 
L 139.017946 -101.077658 
L 139.398175 -98.648596 
L 139.778404 -96.302513 
L 140.158633 -94.037689 
L 140.538862 -91.873839 
L 140.919091 -89.805389 
L 141.29932 -87.832735 
L 141.679549 -85.962509 
L 142.059778 -84.17826 
L 142.440007 -82.483066 
L 142.820236 -80.876895 
L 143.200465 -79.352116 
L 143.580694 -77.897098 
L 143.960923 -76.527364 
L 144.341152 -75.22905 
L 144.721381 -74.009549 
L 145.101609 -72.861023 
L 145.481838 -71.784027 
L 145.862067 -70.774982 
L 146.242296 -69.835614 
L 146.622525 -68.953657 
L 147.002754 -68.118058 
L 147.382983 -67.339888 
L 147.763212 -66.610934 
L 148.143441 -65.927052 
L 148.52367 -65.283619 
L 148.903899 -64.684178 
L 149.284128 -64.120549 
L 149.664357 -63.598278 
L 150.044586 -63.107952 
L 150.424815 -62.655311 
L 150.805044 -62.235483 
L 151.185273 -61.851831 
L 151.565502 -61.497065 
L 151.945731 -61.171033 
L 152.32596 -60.87397 
L 152.706189 -60.601149 
L 153.086418 -60.35303 
L 153.466647 -60.134185 
L 153.846876 -59.936786 
L 154.227105 -59.759437 
L 154.607334 -59.604321 
L 154.987563 -59.470038 
L 155.367792 -59.358285 
L 155.748021 -59.268747 
L 156.12825 -59.199918 
L 156.508479 -59.152221 
L 156.888708 -59.130822 
L 156.888708 -57.382584 
L 156.888708 -57.382584 
L 156.508479 -57.382584 
L 156.12825 -57.382584 
L 155.748021 -57.382584 
L 155.367792 -57.382584 
L 154.987563 -57.382584 
L 154.607334 -57.382584 
L 154.227105 -57.382584 
L 153.846876 -57.382584 
L 153.466647 -57.382584 
L 153.086418 -57.382584 
L 152.706189 -57.382584 
L 152.32596 -57.382584 
L 151.945731 -57.382584 
L 151.565502 -57.382584 
L 151.185273 -57.382584 
L 150.805044 -57.382584 
L 150.424815 -57.382584 
L 150.044586 -57.382584 
L 149.664357 -57.382584 
L 149.284128 -57.382584 
L 148.903899 -57.382584 
L 148.52367 -57.382584 
L 148.143441 -57.382584 
L 147.763212 -57.382584 
L 147.382983 -57.382584 
L 147.002754 -57.382584 
L 146.622525 -57.382584 
L 146.242296 -57.382584 
L 145.862067 -57.382584 
L 145.481838 -57.382584 
L 145.101609 -57.382584 
L 144.721381 -57.382584 
L 144.341152 -57.382584 
L 143.960923 -57.382584 
L 143.580694 -57.382584 
L 143.200465 -57.382584 
L 142.820236 -57.382584 
L 142.440007 -57.382584 
L 142.059778 -57.382584 
L 141.679549 -57.382584 
L 141.29932 -57.382584 
L 140.919091 -57.382584 
L 140.538862 -57.382584 
L 140.158633 -57.382584 
L 139.778404 -57.382584 
L 139.398175 -57.382584 
L 139.017946 -57.382584 
L 138.637717 -57.382584 
L 138.257488 -57.382584 
L 137.877259 -57.382584 
L 137.49703 -57.382584 
L 137.116801 -57.382584 
L 136.736572 -57.382584 
L 136.356343 -57.382584 
L 135.976114 -57.382584 
L 135.595885 -57.382584 
L 135.215656 -57.382584 
L 134.835427 -57.382584 
L 134.455198 -57.382584 
L 134.074969 -57.382584 
L 133.69474 -57.382584 
L 133.314511 -57.382584 
L 132.934282 -57.382584 
L 132.554053 -57.382584 
L 132.173824 -57.382584 
L 131.793595 -57.382584 
L 131.413366 -57.382584 
L 131.033137 -57.382584 
L 130.652908 -57.382584 
L 130.272679 -57.382584 
L 129.89245 -57.382584 
L 129.512221 -57.382584 
L 129.131992 -57.382584 
L 128.751763 -57.382584 
L 128.371534 -57.382584 
L 127.991305 -57.382584 
L 127.611076 -57.382584 
L 127.230847 -57.382584 
L 126.850618 -57.382584 
L 126.470389 -57.382584 
L 126.09016 -57.382584 
L 125.709931 -57.382584 
L 125.329702 -57.382584 
L 124.949473 -57.382584 
L 124.569244 -57.382584 
L 124.189015 -57.382584 
L 123.808786 -57.382584 
L 123.428558 -57.382584 
L 123.048329 -57.382584 
L 122.6681 -57.382584 
L 122.287871 -57.382584 
L 121.907642 -57.382584 
L 121.527413 -57.382584 
L 121.147184 -57.382584 
L 120.766955 -57.382584 
L 120.386726 -57.382584 
L 120.006497 -57.382584 
L 119.626268 -57.382584 
L 119.246039 -57.382584 
L 118.86581 -57.382584 
L 118.485581 -57.382584 
L 118.105352 -57.382584 
L 117.725123 -57.382584 
L 117.344894 -57.382584 
L 116.964665 -57.382584 
L 116.584436 -57.382584 
L 116.204207 -57.382584 
L 115.823978 -57.382584 
L 115.443749 -57.382584 
L 115.06352 -57.382584 
L 114.683291 -57.382584 
L 114.303062 -57.382584 
L 113.922833 -57.382584 
L 113.542604 -57.382584 
L 113.162375 -57.382584 
L 112.782146 -57.382584 
L 112.401917 -57.382584 
L 112.021688 -57.382584 
L 111.641459 -57.382584 
L 111.26123 -57.382584 
L 110.881001 -57.382584 
L 110.500772 -57.382584 
L 110.120543 -57.382584 
L 109.740314 -57.382584 
L 109.360085 -57.382584 
L 108.979856 -57.382584 
L 108.599627 -57.382584 
L 108.219398 -57.382584 
L 107.839169 -57.382584 
L 107.45894 -57.382584 
L 107.078711 -57.382584 
L 106.698482 -57.382584 
L 106.318253 -57.382584 
L 105.938024 -57.382584 
L 105.557795 -57.382584 
L 105.177566 -57.382584 
L 104.797337 -57.382584 
L 104.417108 -57.382584 
L 104.036879 -57.382584 
L 103.65665 -57.382584 
L 103.276421 -57.382584 
L 102.896192 -57.382584 
L 102.515963 -57.382584 
L 102.135735 -57.382584 
L 101.755506 -57.382584 
L 101.375277 -57.382584 
L 100.995048 -57.382584 
L 100.614819 -57.382584 
L 100.23459 -57.382584 
L 99.854361 -57.382584 
L 99.474132 -57.382584 
L 99.093903 -57.382584 
L 98.713674 -57.382584 
L 98.333445 -57.382584 
L 97.953216 -57.382584 
L 97.572987 -57.382584 
L 97.192758 -57.382584 
L 96.812529 -57.382584 
L 96.4323 -57.382584 
L 96.052071 -57.382584 
L 95.671842 -57.382584 
L 95.291613 -57.382584 
L 94.911384 -57.382584 
L 94.531155 -57.382584 
L 94.150926 -57.382584 
L 93.770697 -57.382584 
L 93.390468 -57.382584 
L 93.010239 -57.382584 
L 92.63001 -57.382584 
L 92.249781 -57.382584 
L 91.869552 -57.382584 
L 91.489323 -57.382584 
L 91.109094 -57.382584 
L 90.728865 -57.382584 
L 90.348636 -57.382584 
L 89.968407 -57.382584 
L 89.588178 -57.382584 
L 89.207949 -57.382584 
L 88.82772 -57.382584 
L 88.447491 -57.382584 
L 88.067262 -57.382584 
L 87.687033 -57.382584 
L 87.306804 -57.382584 
L 86.926575 -57.382584 
L 86.546346 -57.382584 
L 86.166117 -57.382584 
L 85.785888 -57.382584 
L 85.405659 -57.382584 
L 85.02543 -57.382584 
L 84.645201 -57.382584 
L 84.264972 -57.382584 
L 83.884743 -57.382584 
L 83.504514 -57.382584 
L 83.124285 -57.382584 
L 82.744056 -57.382584 
L 82.363827 -57.382584 
L 81.983598 -57.382584 
L 81.603369 -57.382584 
L 81.22314 -57.382584 
z
" id="mdb09cc484e" style="stroke:#1f77b4;stroke-opacity:0.1;"/>
    </defs>
    <g clip-path="url(#p286d3af269)">
     <use style="fill:#1f77b4;fill-opacity:0.1;stroke:#1f77b4;stroke-opacity:0.1;" x="0" xlink:href="#mdb09cc484e" y="360"/>
    </g>
   </g>
   <g id="PolyCollection_2">
    <defs>
     <path d="M 157.46631 -57.382584 
L 157.46631 -59.296195 
L 158.010127 -59.313024 
L 158.553945 -59.365231 
L 159.097762 -59.450625 
L 159.641579 -59.570316 
L 160.185396 -59.727084 
L 160.729214 -59.916618 
L 161.273031 -60.140541 
L 161.816848 -60.405543 
L 162.360666 -60.70527 
L 162.904483 -61.04523 
L 163.4483 -61.423344 
L 163.992117 -61.841764 
L 164.535935 -62.30159 
L 165.079752 -62.804352 
L 165.623569 -63.348246 
L 166.167387 -63.93256 
L 166.711204 -64.564564 
L 167.255021 -65.240665 
L 167.798838 -65.966936 
L 168.342656 -66.734365 
L 168.886473 -67.556476 
L 169.43029 -68.424134 
L 169.974108 -69.340892 
L 170.517925 -70.302969 
L 171.061742 -71.309318 
L 171.605559 -72.371513 
L 172.149377 -73.484887 
L 172.693194 -74.661649 
L 173.237011 -75.889983 
L 173.780829 -77.195374 
L 174.324646 -78.576541 
L 174.868463 -80.035442 
L 175.41228 -81.574735 
L 175.956098 -83.210135 
L 176.499915 -84.937326 
L 177.043732 -86.754956 
L 177.58755 -88.673056 
L 178.131367 -90.695838 
L 178.675184 -92.819592 
L 179.219002 -95.046183 
L 179.762819 -97.392881 
L 180.306636 -99.848045 
L 180.850453 -102.421496 
L 181.394271 -105.110234 
L 181.938088 -107.90357 
L 182.481905 -110.80976 
L 183.025723 -113.808503 
L 183.56954 -116.8853 
L 184.113357 -120.045219 
L 184.657174 -123.257154 
L 185.200992 -126.522178 
L 185.744809 -129.824819 
L 186.288626 -133.169928 
L 186.832444 -136.545145 
L 187.376261 -139.962394 
L 187.920078 -143.408517 
L 188.463895 -146.91635 
L 189.007713 -150.464906 
L 189.55153 -154.068603 
L 190.095347 -157.733492 
L 190.639165 -161.435992 
L 191.182982 -165.164691 
L 191.726799 -168.911131 
L 192.270616 -172.652239 
L 192.814434 -176.335507 
L 193.358251 -179.945905 
L 193.902068 -183.468336 
L 194.445886 -186.864389 
L 194.989703 -190.113889 
L 195.53352 -193.214348 
L 196.077337 -196.146038 
L 196.621155 -198.917225 
L 197.164972 -201.524645 
L 197.708789 -203.973975 
L 198.252607 -206.280852 
L 198.796424 -208.435366 
L 199.340241 -210.465283 
L 199.884058 -212.380695 
L 200.427876 -214.188952 
L 200.971693 -215.900589 
L 201.51551 -217.50991 
L 202.059328 -219.025398 
L 202.603145 -220.446917 
L 203.146962 -221.7514 
L 203.69078 -222.957765 
L 204.234597 -224.05816 
L 204.778414 -225.035194 
L 205.322231 -225.881426 
L 205.866049 -226.591937 
L 206.409866 -227.149881 
L 206.953683 -227.562075 
L 207.497501 -227.813696 
L 208.041318 -227.917438 
L 208.585135 -227.854351 
L 209.128952 -227.617344 
L 209.67277 -227.207014 
L 210.216587 -226.620086 
L 210.760404 -225.838423 
L 211.304222 -224.858215 
L 211.848039 -223.684385 
L 212.391856 -222.298559 
L 212.935673 -220.695824 
L 213.479491 -218.890836 
L 214.023308 -216.886912 
L 214.567125 -214.687582 
L 215.110943 -212.327592 
L 215.65476 -209.814549 
L 216.198577 -207.186655 
L 216.742394 -204.469783 
L 217.286212 -201.69044 
L 217.830029 -198.879808 
L 218.373846 -196.043316 
L 218.917664 -193.182952 
L 219.461481 -190.317259 
L 220.005298 -187.436438 
L 220.549115 -184.531566 
L 221.092933 -181.595621 
L 221.63675 -178.603246 
L 222.180567 -175.550626 
L 222.724385 -172.425067 
L 223.268202 -169.219324 
L 223.812019 -165.962428 
L 224.355836 -162.667598 
L 224.899654 -159.352821 
L 225.443471 -156.037959 
L 225.987288 -152.734058 
L 226.531106 -149.448378 
L 227.074923 -146.202007 
L 227.61874 -143.004525 
L 228.162557 -139.850737 
L 228.706375 -136.748786 
L 229.250192 -133.696887 
L 229.794009 -130.690143 
L 230.337827 -127.733897 
L 230.881644 -124.820587 
L 231.425461 -121.963988 
L 231.969279 -119.155584 
L 232.513096 -116.403977 
L 233.056913 -113.706761 
L 233.60073 -111.078099 
L 234.144548 -108.505446 
L 234.688365 -105.999449 
L 235.232182 -103.562151 
L 235.776 -101.197089 
L 236.319817 -98.903814 
L 236.863634 -96.693671 
L 237.407451 -94.570638 
L 237.951269 -92.534939 
L 238.495086 -90.582121 
L 239.038903 -88.711463 
L 239.582721 -86.922939 
L 240.126538 -85.215721 
L 240.670355 -83.590023 
L 241.214172 -82.040031 
L 241.75799 -80.560809 
L 242.301807 -79.14979 
L 242.845624 -77.804357 
L 243.389442 -76.51918 
L 243.933259 -75.299078 
L 244.477076 -74.140355 
L 245.020893 -73.038184 
L 245.564711 -71.997511 
L 246.108528 -71.007224 
L 246.652345 -70.065189 
L 247.196163 -69.175367 
L 247.73998 -68.334938 
L 248.283797 -67.539197 
L 248.827614 -66.794966 
L 249.371432 -66.102796 
L 249.915249 -65.456327 
L 250.459066 -64.854116 
L 251.002884 -64.300573 
L 251.546701 -63.78889 
L 252.090518 -63.315035 
L 252.634335 -62.875216 
L 253.178153 -62.468929 
L 253.72197 -62.084885 
L 254.265787 -61.726495 
L 254.809605 -61.389271 
L 255.353422 -61.068445 
L 255.897239 -60.763215 
L 256.441057 -60.476834 
L 256.984874 -60.209035 
L 257.528691 -59.960215 
L 258.072508 -59.730169 
L 258.616326 -59.518372 
L 259.160143 -59.324594 
L 259.70396 -59.149843 
L 260.247778 -58.994413 
L 260.791595 -58.85839 
L 261.335412 -58.739916 
L 261.879229 -58.637972 
L 262.423047 -58.552758 
L 262.966864 -58.480202 
L 263.510681 -58.421569 
L 264.054499 -58.375632 
L 264.598316 -58.34288 
L 265.142133 -58.321802 
L 265.68595 -58.311674 
L 265.68595 -57.382584 
L 265.68595 -57.382584 
L 265.142133 -57.382584 
L 264.598316 -57.382584 
L 264.054499 -57.382584 
L 263.510681 -57.382584 
L 262.966864 -57.382584 
L 262.423047 -57.382584 
L 261.879229 -57.382584 
L 261.335412 -57.382584 
L 260.791595 -57.382584 
L 260.247778 -57.382584 
L 259.70396 -57.382584 
L 259.160143 -57.382584 
L 258.616326 -57.382584 
L 258.072508 -57.382584 
L 257.528691 -57.382584 
L 256.984874 -57.382584 
L 256.441057 -57.382584 
L 255.897239 -57.382584 
L 255.353422 -57.382584 
L 254.809605 -57.382584 
L 254.265787 -57.382584 
L 253.72197 -57.382584 
L 253.178153 -57.382584 
L 252.634335 -57.382584 
L 252.090518 -57.382584 
L 251.546701 -57.382584 
L 251.002884 -57.382584 
L 250.459066 -57.382584 
L 249.915249 -57.382584 
L 249.371432 -57.382584 
L 248.827614 -57.382584 
L 248.283797 -57.382584 
L 247.73998 -57.382584 
L 247.196163 -57.382584 
L 246.652345 -57.382584 
L 246.108528 -57.382584 
L 245.564711 -57.382584 
L 245.020893 -57.382584 
L 244.477076 -57.382584 
L 243.933259 -57.382584 
L 243.389442 -57.382584 
L 242.845624 -57.382584 
L 242.301807 -57.382584 
L 241.75799 -57.382584 
L 241.214172 -57.382584 
L 240.670355 -57.382584 
L 240.126538 -57.382584 
L 239.582721 -57.382584 
L 239.038903 -57.382584 
L 238.495086 -57.382584 
L 237.951269 -57.382584 
L 237.407451 -57.382584 
L 236.863634 -57.382584 
L 236.319817 -57.382584 
L 235.776 -57.382584 
L 235.232182 -57.382584 
L 234.688365 -57.382584 
L 234.144548 -57.382584 
L 233.60073 -57.382584 
L 233.056913 -57.382584 
L 232.513096 -57.382584 
L 231.969279 -57.382584 
L 231.425461 -57.382584 
L 230.881644 -57.382584 
L 230.337827 -57.382584 
L 229.794009 -57.382584 
L 229.250192 -57.382584 
L 228.706375 -57.382584 
L 228.162557 -57.382584 
L 227.61874 -57.382584 
L 227.074923 -57.382584 
L 226.531106 -57.382584 
L 225.987288 -57.382584 
L 225.443471 -57.382584 
L 224.899654 -57.382584 
L 224.355836 -57.382584 
L 223.812019 -57.382584 
L 223.268202 -57.382584 
L 222.724385 -57.382584 
L 222.180567 -57.382584 
L 221.63675 -57.382584 
L 221.092933 -57.382584 
L 220.549115 -57.382584 
L 220.005298 -57.382584 
L 219.461481 -57.382584 
L 218.917664 -57.382584 
L 218.373846 -57.382584 
L 217.830029 -57.382584 
L 217.286212 -57.382584 
L 216.742394 -57.382584 
L 216.198577 -57.382584 
L 215.65476 -57.382584 
L 215.110943 -57.382584 
L 214.567125 -57.382584 
L 214.023308 -57.382584 
L 213.479491 -57.382584 
L 212.935673 -57.382584 
L 212.391856 -57.382584 
L 211.848039 -57.382584 
L 211.304222 -57.382584 
L 210.760404 -57.382584 
L 210.216587 -57.382584 
L 209.67277 -57.382584 
L 209.128952 -57.382584 
L 208.585135 -57.382584 
L 208.041318 -57.382584 
L 207.497501 -57.382584 
L 206.953683 -57.382584 
L 206.409866 -57.382584 
L 205.866049 -57.382584 
L 205.322231 -57.382584 
L 204.778414 -57.382584 
L 204.234597 -57.382584 
L 203.69078 -57.382584 
L 203.146962 -57.382584 
L 202.603145 -57.382584 
L 202.059328 -57.382584 
L 201.51551 -57.382584 
L 200.971693 -57.382584 
L 200.427876 -57.382584 
L 199.884058 -57.382584 
L 199.340241 -57.382584 
L 198.796424 -57.382584 
L 198.252607 -57.382584 
L 197.708789 -57.382584 
L 197.164972 -57.382584 
L 196.621155 -57.382584 
L 196.077337 -57.382584 
L 195.53352 -57.382584 
L 194.989703 -57.382584 
L 194.445886 -57.382584 
L 193.902068 -57.382584 
L 193.358251 -57.382584 
L 192.814434 -57.382584 
L 192.270616 -57.382584 
L 191.726799 -57.382584 
L 191.182982 -57.382584 
L 190.639165 -57.382584 
L 190.095347 -57.382584 
L 189.55153 -57.382584 
L 189.007713 -57.382584 
L 188.463895 -57.382584 
L 187.920078 -57.382584 
L 187.376261 -57.382584 
L 186.832444 -57.382584 
L 186.288626 -57.382584 
L 185.744809 -57.382584 
L 185.200992 -57.382584 
L 184.657174 -57.382584 
L 184.113357 -57.382584 
L 183.56954 -57.382584 
L 183.025723 -57.382584 
L 182.481905 -57.382584 
L 181.938088 -57.382584 
L 181.394271 -57.382584 
L 180.850453 -57.382584 
L 180.306636 -57.382584 
L 179.762819 -57.382584 
L 179.219002 -57.382584 
L 178.675184 -57.382584 
L 178.131367 -57.382584 
L 177.58755 -57.382584 
L 177.043732 -57.382584 
L 176.499915 -57.382584 
L 175.956098 -57.382584 
L 175.41228 -57.382584 
L 174.868463 -57.382584 
L 174.324646 -57.382584 
L 173.780829 -57.382584 
L 173.237011 -57.382584 
L 172.693194 -57.382584 
L 172.149377 -57.382584 
L 171.605559 -57.382584 
L 171.061742 -57.382584 
L 170.517925 -57.382584 
L 169.974108 -57.382584 
L 169.43029 -57.382584 
L 168.886473 -57.382584 
L 168.342656 -57.382584 
L 167.798838 -57.382584 
L 167.255021 -57.382584 
L 166.711204 -57.382584 
L 166.167387 -57.382584 
L 165.623569 -57.382584 
L 165.079752 -57.382584 
L 164.535935 -57.382584 
L 163.992117 -57.382584 
L 163.4483 -57.382584 
L 162.904483 -57.382584 
L 162.360666 -57.382584 
L 161.816848 -57.382584 
L 161.273031 -57.382584 
L 160.729214 -57.382584 
L 160.185396 -57.382584 
L 159.641579 -57.382584 
L 159.097762 -57.382584 
L 158.553945 -57.382584 
L 158.010127 -57.382584 
L 157.46631 -57.382584 
z
" id="ma42272e2d7" style="stroke:#ff7f0e;stroke-opacity:0.1;"/>
    </defs>
    <g clip-path="url(#p286d3af269)">
     <use style="fill:#ff7f0e;fill-opacity:0.1;stroke:#ff7f0e;stroke-opacity:0.1;" x="0" xlink:href="#ma42272e2d7" y="360"/>
    </g>
   </g>
   <g id="matplotlib.axis_1">
    <g id="xtick_1">
     <g id="line2d_1">
      <defs>
       <path d="M 0 0 
L 0 3.5 
" id="mdbd9e6119e" style="stroke:#000000;stroke-width:0.8;"/>
      </defs>
      <g>
       <use style="stroke:#000000;stroke-width:0.8;" x="158.316002" xlink:href="#mdbd9e6119e" y="315"/>
      </g>
     </g>
     <g id="text_1">
      <!-- 20 -->
      <defs>
       <path d="M 19.1875 8.296875 
L 53.609375 8.296875 
L 53.609375 0 
L 7.328125 0 
L 7.328125 8.296875 
Q 12.9375 14.109375 22.625 23.890625 
Q 32.328125 33.6875 34.8125 36.53125 
Q 39.546875 41.84375 41.421875 45.53125 
Q 43.3125 49.21875 43.3125 52.78125 
Q 43.3125 58.59375 39.234375 62.25 
Q 35.15625 65.921875 28.609375 65.921875 
Q 23.96875 65.921875 18.8125 64.3125 
Q 13.671875 62.703125 7.8125 59.421875 
L 7.8125 69.390625 
Q 13.765625 71.78125 18.9375 73 
Q 24.125 74.21875 28.421875 74.21875 
Q 39.75 74.21875 46.484375 68.546875 
Q 53.21875 62.890625 53.21875 53.421875 
Q 53.21875 48.921875 51.53125 44.890625 
Q 49.859375 40.875 45.40625 35.40625 
Q 44.1875 33.984375 37.640625 27.21875 
Q 31.109375 20.453125 19.1875 8.296875 
z
" id="DejaVuSans-50"/>
       <path d="M 31.78125 66.40625 
Q 24.171875 66.40625 20.328125 58.90625 
Q 16.5 51.421875 16.5 36.375 
Q 16.5 21.390625 20.328125 13.890625 
Q 24.171875 6.390625 31.78125 6.390625 
Q 39.453125 6.390625 43.28125 13.890625 
Q 47.125 21.390625 47.125 36.375 
Q 47.125 51.421875 43.28125 58.90625 
Q 39.453125 66.40625 31.78125 66.40625 
z
M 31.78125 74.21875 
Q 44.046875 74.21875 50.515625 64.515625 
Q 56.984375 54.828125 56.984375 36.375 
Q 56.984375 17.96875 50.515625 8.265625 
Q 44.046875 -1.421875 31.78125 -1.421875 
Q 19.53125 -1.421875 13.0625 8.265625 
Q 6.59375 17.96875 6.59375 36.375 
Q 6.59375 54.828125 13.0625 64.515625 
Q 19.53125 74.21875 31.78125 74.21875 
z
" id="DejaVuSans-48"/>
      </defs>
      <g transform="translate(149.408502 332.637812)scale(0.14 -0.14)">
       <use xlink:href="#DejaVuSans-50"/>
       <use x="63.623047" xlink:href="#DejaVuSans-48"/>
      </g>
     </g>
    </g>
    <g id="xtick_2">
     <g id="line2d_2">
      <g>
       <use style="stroke:#000000;stroke-width:0.8;" x="250.047845" xlink:href="#mdbd9e6119e" y="315"/>
      </g>
     </g>
     <g id="text_2">
      <!-- 25 -->
      <defs>
       <path d="M 10.796875 72.90625 
L 49.515625 72.90625 
L 49.515625 64.59375 
L 19.828125 64.59375 
L 19.828125 46.734375 
Q 21.96875 47.46875 24.109375 47.828125 
Q 26.265625 48.1875 28.421875 48.1875 
Q 40.625 48.1875 47.75 41.5 
Q 54.890625 34.8125 54.890625 23.390625 
Q 54.890625 11.625 47.5625 5.09375 
Q 40.234375 -1.421875 26.90625 -1.421875 
Q 22.3125 -1.421875 17.546875 -0.640625 
Q 12.796875 0.140625 7.71875 1.703125 
L 7.71875 11.625 
Q 12.109375 9.234375 16.796875 8.0625 
Q 21.484375 6.890625 26.703125 6.890625 
Q 35.15625 6.890625 40.078125 11.328125 
Q 45.015625 15.765625 45.015625 23.390625 
Q 45.015625 31 40.078125 35.4375 
Q 35.15625 39.890625 26.703125 39.890625 
Q 22.75 39.890625 18.8125 39.015625 
Q 14.890625 38.140625 10.796875 36.28125 
z
" id="DejaVuSans-53"/>
      </defs>
      <g transform="translate(241.140345 332.637812)scale(0.14 -0.14)">
       <use xlink:href="#DejaVuSans-50"/>
       <use x="63.623047" xlink:href="#DejaVuSans-53"/>
      </g>
     </g>
    </g>
    <g id="text_3">
     <!-- msj x día -->
     <defs>
      <path d="M 52 44.1875 
Q 55.375 50.25 60.0625 53.125 
Q 64.75 56 71.09375 56 
Q 79.640625 56 84.28125 50.015625 
Q 88.921875 44.046875 88.921875 33.015625 
L 88.921875 0 
L 79.890625 0 
L 79.890625 32.71875 
Q 79.890625 40.578125 77.09375 44.375 
Q 74.3125 48.1875 68.609375 48.1875 
Q 61.625 48.1875 57.5625 43.546875 
Q 53.515625 38.921875 53.515625 30.90625 
L 53.515625 0 
L 44.484375 0 
L 44.484375 32.71875 
Q 44.484375 40.625 41.703125 44.40625 
Q 38.921875 48.1875 33.109375 48.1875 
Q 26.21875 48.1875 22.15625 43.53125 
Q 18.109375 38.875 18.109375 30.90625 
L 18.109375 0 
L 9.078125 0 
L 9.078125 54.6875 
L 18.109375 54.6875 
L 18.109375 46.1875 
Q 21.1875 51.21875 25.484375 53.609375 
Q 29.78125 56 35.6875 56 
Q 41.65625 56 45.828125 52.96875 
Q 50 49.953125 52 44.1875 
z
" id="DejaVuSans-109"/>
      <path d="M 44.28125 53.078125 
L 44.28125 44.578125 
Q 40.484375 46.53125 36.375 47.5 
Q 32.28125 48.484375 27.875 48.484375 
Q 21.1875 48.484375 17.84375 46.4375 
Q 14.5 44.390625 14.5 40.28125 
Q 14.5 37.15625 16.890625 35.375 
Q 19.28125 33.59375 26.515625 31.984375 
L 29.59375 31.296875 
Q 39.15625 29.25 43.1875 25.515625 
Q 47.21875 21.78125 47.21875 15.09375 
Q 47.21875 7.46875 41.1875 3.015625 
Q 35.15625 -1.421875 24.609375 -1.421875 
Q 20.21875 -1.421875 15.453125 -0.5625 
Q 10.6875 0.296875 5.421875 2 
L 5.421875 11.28125 
Q 10.40625 8.6875 15.234375 7.390625 
Q 20.0625 6.109375 24.8125 6.109375 
Q 31.15625 6.109375 34.5625 8.28125 
Q 37.984375 10.453125 37.984375 14.40625 
Q 37.984375 18.0625 35.515625 20.015625 
Q 33.0625 21.96875 24.703125 23.78125 
L 21.578125 24.515625 
Q 13.234375 26.265625 9.515625 29.90625 
Q 5.8125 33.546875 5.8125 39.890625 
Q 5.8125 47.609375 11.28125 51.796875 
Q 16.75 56 26.8125 56 
Q 31.78125 56 36.171875 55.265625 
Q 40.578125 54.546875 44.28125 53.078125 
z
" id="DejaVuSans-115"/>
      <path d="M 9.421875 54.6875 
L 18.40625 54.6875 
L 18.40625 -0.984375 
Q 18.40625 -11.421875 14.421875 -16.109375 
Q 10.453125 -20.796875 1.609375 -20.796875 
L -1.8125 -20.796875 
L -1.8125 -13.1875 
L 0.59375 -13.1875 
Q 5.71875 -13.1875 7.5625 -10.8125 
Q 9.421875 -8.453125 9.421875 -0.984375 
z
M 9.421875 75.984375 
L 18.40625 75.984375 
L 18.40625 64.59375 
L 9.421875 64.59375 
z
" id="DejaVuSans-106"/>
      <path id="DejaVuSans-32"/>
      <path d="M 54.890625 54.6875 
L 35.109375 28.078125 
L 55.90625 0 
L 45.3125 0 
L 29.390625 21.484375 
L 13.484375 0 
L 2.875 0 
L 24.125 28.609375 
L 4.6875 54.6875 
L 15.28125 54.6875 
L 29.78125 35.203125 
L 44.28125 54.6875 
z
" id="DejaVuSans-120"/>
      <path d="M 45.40625 46.390625 
L 45.40625 75.984375 
L 54.390625 75.984375 
L 54.390625 0 
L 45.40625 0 
L 45.40625 8.203125 
Q 42.578125 3.328125 38.25 0.953125 
Q 33.9375 -1.421875 27.875 -1.421875 
Q 17.96875 -1.421875 11.734375 6.484375 
Q 5.515625 14.40625 5.515625 27.296875 
Q 5.515625 40.1875 11.734375 48.09375 
Q 17.96875 56 27.875 56 
Q 33.9375 56 38.25 53.625 
Q 42.578125 51.265625 45.40625 46.390625 
z
M 14.796875 27.296875 
Q 14.796875 17.390625 18.875 11.75 
Q 22.953125 6.109375 30.078125 6.109375 
Q 37.203125 6.109375 41.296875 11.75 
Q 45.40625 17.390625 45.40625 27.296875 
Q 45.40625 37.203125 41.296875 42.84375 
Q 37.203125 48.484375 30.078125 48.484375 
Q 22.953125 48.484375 18.875 42.84375 
Q 14.796875 37.203125 14.796875 27.296875 
z
" id="DejaVuSans-100"/>
      <path d="M 20.703125 79.984375 
L 30.421875 79.984375 
L 14.5 61.625 
L 7.03125 61.625 
z
M 9.421875 54.6875 
L 18.40625 54.6875 
L 18.40625 0 
L 9.421875 0 
z
M 13.921875 56 
z
" id="DejaVuSans-237"/>
      <path d="M 34.28125 27.484375 
Q 23.390625 27.484375 19.1875 25 
Q 14.984375 22.515625 14.984375 16.5 
Q 14.984375 11.71875 18.140625 8.90625 
Q 21.296875 6.109375 26.703125 6.109375 
Q 34.1875 6.109375 38.703125 11.40625 
Q 43.21875 16.703125 43.21875 25.484375 
L 43.21875 27.484375 
z
M 52.203125 31.203125 
L 52.203125 0 
L 43.21875 0 
L 43.21875 8.296875 
Q 40.140625 3.328125 35.546875 0.953125 
Q 30.953125 -1.421875 24.3125 -1.421875 
Q 15.921875 -1.421875 10.953125 3.296875 
Q 6 8.015625 6 15.921875 
Q 6 25.140625 12.171875 29.828125 
Q 18.359375 34.515625 30.609375 34.515625 
L 43.21875 34.515625 
L 43.21875 35.40625 
Q 43.21875 41.609375 39.140625 45 
Q 35.0625 48.390625 27.6875 48.390625 
Q 23 48.390625 18.546875 47.265625 
Q 14.109375 46.140625 10.015625 43.890625 
L 10.015625 52.203125 
Q 14.9375 54.109375 19.578125 55.046875 
Q 24.21875 56 28.609375 56 
Q 40.484375 56 46.34375 49.84375 
Q 52.203125 43.703125 52.203125 31.203125 
z
" id="DejaVuSans-97"/>
     </defs>
     <g transform="translate(139.511186 351.547031)scale(0.15 -0.15)">
      <use xlink:href="#DejaVuSans-109"/>
      <use x="97.412109" xlink:href="#DejaVuSans-115"/>
      <use x="149.511719" xlink:href="#DejaVuSans-106"/>
      <use x="177.294922" xlink:href="#DejaVuSans-32"/>
      <use x="209.082031" xlink:href="#DejaVuSans-120"/>
      <use x="268.261719" xlink:href="#DejaVuSans-32"/>
      <use x="300.048828" xlink:href="#DejaVuSans-100"/>
      <use x="363.525391" xlink:href="#DejaVuSans-237"/>
      <use x="391.308594" xlink:href="#DejaVuSans-97"/>
     </g>
    </g>
   </g>
   <g id="matplotlib.axis_2"/>
   <g id="line2d_3">
    <path clip-path="url(#p286d3af269)" d="M 81.22314 299.813546 
L 81.983598 299.732169 
L 82.744056 299.479979 
L 83.504514 299.063673 
L 84.264972 298.472234 
L 85.02543 297.674884 
L 86.166117 296.06471 
L 87.306804 293.923345 
L 88.447491 291.256889 
L 89.588178 288.035229 
L 90.728865 284.244832 
L 91.869552 279.794958 
L 93.010239 274.563327 
L 94.150926 268.402633 
L 95.291613 261.200312 
L 96.4323 252.847784 
L 97.572987 243.15143 
L 99.093903 227.955512 
L 100.614819 210.342892 
L 106.318253 140.671964 
L 108.979856 108.625308 
L 110.881001 86.293569 
L 112.021688 74.920441 
L 113.162375 65.937684 
L 113.922833 61.506438 
L 114.683291 58.339806 
L 115.443749 56.38535 
L 115.823978 55.837748 
L 116.204207 55.570731 
L 116.584436 55.554545 
L 116.964665 55.802787 
L 117.344894 56.315815 
L 118.105352 58.018193 
L 118.86581 60.5906 
L 119.626268 64.004767 
L 120.386726 68.218267 
L 121.527413 76.149102 
L 122.6681 86.090306 
L 124.189015 102.00093 
L 127.611076 141.701526 
L 131.793595 191.633659 
L 134.074969 217.988161 
L 135.595885 232.978151 
L 137.116801 245.550067 
L 138.637717 256.41355 
L 140.158633 265.962311 
L 141.679549 274.037491 
L 143.200465 280.647884 
L 144.341152 284.77095 
L 145.481838 288.215973 
L 146.622525 291.046343 
L 147.763212 293.389066 
L 148.903899 295.315822 
L 150.044586 296.892048 
L 151.185273 298.148169 
L 152.32596 299.12603 
L 153.466647 299.865815 
L 154.607334 300.395679 
L 155.748021 300.731253 
L 156.888708 300.869178 
L 156.888708 300.869178 
" style="fill:none;stroke:#1f77b4;stroke-linecap:square;stroke-width:1.5;"/>
   </g>
   <g id="line2d_4">
    <path clip-path="url(#p286d3af269)" d="M 81.22314 302.645455 
L 81.22314 299.813546 
" style="fill:none;stroke:#1f77b4;stroke-linecap:square;stroke-width:1.5;"/>
   </g>
   <g id="line2d_5">
    <path clip-path="url(#p286d3af269)" d="M 156.888708 302.634898 
L 156.888708 300.869178 
" style="fill:none;stroke:#1f77b4;stroke-linecap:square;stroke-width:1.5;"/>
   </g>
   <g id="line2d_6">
    <defs>
     <path d="M 0 3 
C 0.795609 3 1.55874 2.683901 2.12132 2.12132 
C 2.683901 1.55874 3 0.795609 3 0 
C 3 -0.795609 2.683901 -1.55874 2.12132 -2.12132 
C 1.55874 -2.683901 0.795609 -3 0 -3 
C -0.795609 -3 -1.55874 -2.683901 -2.12132 -2.12132 
C -2.683901 -1.55874 -3 -0.795609 -3 0 
C -3 0.795609 -2.683901 1.55874 -2.12132 2.12132 
C -1.55874 2.683901 -0.795609 3 0 3 
z
" id="mbdaf76a6c8" style="stroke:#000000;"/>
    </defs>
    <g clip-path="url(#p286d3af269)">
     <use style="fill:#1f77b4;stroke:#000000;" x="117.190364" xlink:href="#mbdaf76a6c8" y="302.617416"/>
    </g>
   </g>
   <g id="line2d_7">
    <path clip-path="url(#p286d3af269)" d="M 157.46631 300.703805 
L 159.097762 300.549375 
L 160.729214 300.083382 
L 162.360666 299.29473 
L 163.992117 298.158236 
L 165.623569 296.651754 
L 167.255021 294.759335 
L 168.886473 292.443524 
L 170.517925 289.697031 
L 172.149377 286.515113 
L 173.780829 282.804626 
L 175.41228 278.425265 
L 177.043732 273.245044 
L 178.675184 267.180408 
L 180.306636 260.151955 
L 181.938088 252.09643 
L 184.113357 239.954781 
L 187.376261 220.037606 
L 190.095347 202.266508 
L 194.445886 173.135611 
L 196.077337 163.853962 
L 197.708789 156.026025 
L 199.340241 149.534717 
L 200.971693 144.099411 
L 202.603145 139.553083 
L 203.69078 137.042235 
L 204.778414 134.964806 
L 205.866049 133.408063 
L 206.953683 132.437925 
L 207.497501 132.186304 
L 208.041318 132.082562 
L 208.585135 132.145649 
L 209.128952 132.382656 
L 209.67277 132.792986 
L 210.216587 133.379914 
L 210.760404 134.161577 
L 211.848039 136.315615 
L 212.935673 139.304176 
L 214.023308 143.113088 
L 215.110943 147.672408 
L 216.742394 155.530217 
L 220.549115 175.468434 
L 222.724385 187.574933 
L 230.881644 235.179413 
L 233.60073 248.921901 
L 235.776 258.802911 
L 237.407451 265.429362 
L 239.038903 271.288537 
L 240.670355 276.409977 
L 242.301807 280.85021 
L 243.933259 284.700922 
L 245.564711 288.002489 
L 247.196163 290.824633 
L 248.827614 293.205034 
L 250.459066 295.145884 
L 252.090518 296.684965 
L 253.72197 297.915115 
L 255.897239 299.236785 
L 258.072508 300.269831 
L 260.247778 301.005587 
L 262.423047 301.447242 
L 264.598316 301.65712 
L 265.68595 301.688326 
L 265.68595 301.688326 
" style="fill:none;stroke:#ff7f0e;stroke-linecap:square;stroke-width:1.5;"/>
   </g>
   <g id="line2d_8">
    <path clip-path="url(#p286d3af269)" d="M 157.46631 302.636552 
L 157.46631 300.703805 
" style="fill:none;stroke:#ff7f0e;stroke-linecap:square;stroke-width:1.5;"/>
   </g>
   <g id="line2d_9">
    <path clip-path="url(#p286d3af269)" d="M 265.68595 302.626707 
L 265.68595 301.688326 
" style="fill:none;stroke:#ff7f0e;stroke-linecap:square;stroke-width:1.5;"/>
   </g>
   <g id="line2d_10">
    <defs>
     <path d="M 0 3 
C 0.795609 3 1.55874 2.683901 2.12132 2.12132 
C 2.683901 1.55874 3 0.795609 3 0 
C 3 -0.795609 2.683901 -1.55874 2.12132 -2.12132 
C 1.55874 -2.683901 0.795609 -3 0 -3 
C -0.795609 -3 -1.55874 -2.683901 -2.12132 -2.12132 
C -2.683901 -1.55874 -3 -0.795609 -3 0 
C -3 0.795609 -2.683901 1.55874 -2.12132 2.12132 
C -1.55874 2.683901 -0.795609 3 0 3 
z
" id="mea8c6a7329" style="stroke:#000000;"/>
    </defs>
    <g clip-path="url(#p286d3af269)">
     <use style="fill:#ff7f0e;stroke:#000000;" x="208.11966" xlink:href="#mea8c6a7329" y="302.617416"/>
    </g>
   </g>
   <g id="line2d_11"/>
   <g id="line2d_12"/>
   <g id="patch_3">
    <path d="M 72 315 
L 274.909091 315 
" style="fill:none;stroke:#000000;stroke-linecap:square;stroke-linejoin:miter;stroke-width:0.8;"/>
   </g>
   <g id="text_4">
    <!-- $\lambda$ (msj x día) -->
    <defs>
     <path d="M 36.71875 67.4375 
L 48.828125 0 
L 39.3125 0 
L 31.84375 40.4375 
L 5.125 0 
L -4.390625 0 
L 29.734375 52.4375 
L 28.03125 62.109375 
Q 26.953125 68.265625 21.734375 68.265625 
L 17.046875 68.265625 
L 18.5 75.984375 
L 24.21875 75.875 
Q 35.203125 75.734375 36.71875 67.4375 
z
" id="DejaVuSans-Oblique-955"/>
     <path d="M 31 75.875 
Q 24.46875 64.65625 21.28125 53.65625 
Q 18.109375 42.671875 18.109375 31.390625 
Q 18.109375 20.125 21.3125 9.0625 
Q 24.515625 -2 31 -13.1875 
L 23.1875 -13.1875 
Q 15.875 -1.703125 12.234375 9.375 
Q 8.59375 20.453125 8.59375 31.390625 
Q 8.59375 42.28125 12.203125 53.3125 
Q 15.828125 64.359375 23.1875 75.875 
z
" id="DejaVuSans-40"/>
     <path d="M 8.015625 75.875 
L 15.828125 75.875 
Q 23.140625 64.359375 26.78125 53.3125 
Q 30.421875 42.28125 30.421875 31.390625 
Q 30.421875 20.453125 26.78125 9.375 
Q 23.140625 -1.703125 15.828125 -13.1875 
L 8.015625 -13.1875 
Q 14.5 -2 17.703125 9.0625 
Q 20.90625 20.125 20.90625 31.390625 
Q 20.90625 42.671875 17.703125 53.65625 
Q 14.5 64.65625 8.015625 75.875 
z
" id="DejaVuSans-41"/>
    </defs>
    <g transform="translate(111.254545 37.2)scale(0.2 -0.2)">
     <use transform="translate(0 0.015625)" xlink:href="#DejaVuSans-Oblique-955"/>
     <use transform="translate(59.179688 0.015625)" xlink:href="#DejaVuSans-32"/>
     <use transform="translate(90.966797 0.015625)" xlink:href="#DejaVuSans-40"/>
     <use transform="translate(129.980469 0.015625)" xlink:href="#DejaVuSans-109"/>
     <use transform="translate(227.392578 0.015625)" xlink:href="#DejaVuSans-115"/>
     <use transform="translate(279.492188 0.015625)" xlink:href="#DejaVuSans-106"/>
     <use transform="translate(307.275391 0.015625)" xlink:href="#DejaVuSans-32"/>
     <use transform="translate(339.0625 0.015625)" xlink:href="#DejaVuSans-120"/>
     <use transform="translate(398.242188 0.015625)" xlink:href="#DejaVuSans-32"/>
     <use transform="translate(430.029297 0.015625)" xlink:href="#DejaVuSans-100"/>
     <use transform="translate(493.505859 0.015625)" xlink:href="#DejaVuSans-237"/>
     <use transform="translate(521.289062 0.015625)" xlink:href="#DejaVuSans-97"/>
     <use transform="translate(582.568359 0.015625)" xlink:href="#DejaVuSans-41"/>
    </g>
   </g>
   <g id="legend_1">
    <g id="patch_4">
     <path d="M 112.524716 80.95625 
L 267.909091 80.95625 
Q 269.909091 80.95625 269.909091 78.95625 
L 269.909091 50.2 
Q 269.909091 48.2 267.909091 48.2 
L 112.524716 48.2 
Q 110.524716 48.2 110.524716 50.2 
L 110.524716 78.95625 
Q 110.524716 80.95625 112.524716 80.95625 
z
" style="fill:#ffffff;opacity:0.8;stroke:#cccccc;stroke-linejoin:miter;"/>
    </g>
    <g id="line2d_13">
     <path d="M 114.524716 56.298437 
L 134.524716 56.298437 
" style="fill:none;stroke:#1f77b4;stroke-linecap:square;stroke-width:1.5;"/>
    </g>
    <g id="line2d_14"/>
    <g id="text_5">
     <!-- Antes del 44 dia (media) -->
     <defs>
      <path d="M 34.1875 63.1875 
L 20.796875 26.90625 
L 47.609375 26.90625 
z
M 28.609375 72.90625 
L 39.796875 72.90625 
L 67.578125 0 
L 57.328125 0 
L 50.6875 18.703125 
L 17.828125 18.703125 
L 11.1875 0 
L 0.78125 0 
z
" id="DejaVuSans-65"/>
      <path d="M 54.890625 33.015625 
L 54.890625 0 
L 45.90625 0 
L 45.90625 32.71875 
Q 45.90625 40.484375 42.875 44.328125 
Q 39.84375 48.1875 33.796875 48.1875 
Q 26.515625 48.1875 22.3125 43.546875 
Q 18.109375 38.921875 18.109375 30.90625 
L 18.109375 0 
L 9.078125 0 
L 9.078125 54.6875 
L 18.109375 54.6875 
L 18.109375 46.1875 
Q 21.34375 51.125 25.703125 53.5625 
Q 30.078125 56 35.796875 56 
Q 45.21875 56 50.046875 50.171875 
Q 54.890625 44.34375 54.890625 33.015625 
z
" id="DejaVuSans-110"/>
      <path d="M 18.3125 70.21875 
L 18.3125 54.6875 
L 36.8125 54.6875 
L 36.8125 47.703125 
L 18.3125 47.703125 
L 18.3125 18.015625 
Q 18.3125 11.328125 20.140625 9.421875 
Q 21.96875 7.515625 27.59375 7.515625 
L 36.8125 7.515625 
L 36.8125 0 
L 27.59375 0 
Q 17.1875 0 13.234375 3.875 
Q 9.28125 7.765625 9.28125 18.015625 
L 9.28125 47.703125 
L 2.6875 47.703125 
L 2.6875 54.6875 
L 9.28125 54.6875 
L 9.28125 70.21875 
z
" id="DejaVuSans-116"/>
      <path d="M 56.203125 29.59375 
L 56.203125 25.203125 
L 14.890625 25.203125 
Q 15.484375 15.921875 20.484375 11.0625 
Q 25.484375 6.203125 34.421875 6.203125 
Q 39.59375 6.203125 44.453125 7.46875 
Q 49.3125 8.734375 54.109375 11.28125 
L 54.109375 2.78125 
Q 49.265625 0.734375 44.1875 -0.34375 
Q 39.109375 -1.421875 33.890625 -1.421875 
Q 20.796875 -1.421875 13.15625 6.1875 
Q 5.515625 13.8125 5.515625 26.8125 
Q 5.515625 40.234375 12.765625 48.109375 
Q 20.015625 56 32.328125 56 
Q 43.359375 56 49.78125 48.890625 
Q 56.203125 41.796875 56.203125 29.59375 
z
M 47.21875 32.234375 
Q 47.125 39.59375 43.09375 43.984375 
Q 39.0625 48.390625 32.421875 48.390625 
Q 24.90625 48.390625 20.390625 44.140625 
Q 15.875 39.890625 15.1875 32.171875 
z
" id="DejaVuSans-101"/>
      <path d="M 9.421875 75.984375 
L 18.40625 75.984375 
L 18.40625 0 
L 9.421875 0 
z
" id="DejaVuSans-108"/>
      <path d="M 37.796875 64.3125 
L 12.890625 25.390625 
L 37.796875 25.390625 
z
M 35.203125 72.90625 
L 47.609375 72.90625 
L 47.609375 25.390625 
L 58.015625 25.390625 
L 58.015625 17.1875 
L 47.609375 17.1875 
L 47.609375 0 
L 37.796875 0 
L 37.796875 17.1875 
L 4.890625 17.1875 
L 4.890625 26.703125 
z
" id="DejaVuSans-52"/>
      <path d="M 9.421875 54.6875 
L 18.40625 54.6875 
L 18.40625 0 
L 9.421875 0 
z
M 9.421875 75.984375 
L 18.40625 75.984375 
L 18.40625 64.59375 
L 9.421875 64.59375 
z
" id="DejaVuSans-105"/>
     </defs>
     <g transform="translate(142.524716 59.798437)scale(0.1 -0.1)">
      <use xlink:href="#DejaVuSans-65"/>
      <use x="68.408203" xlink:href="#DejaVuSans-110"/>
      <use x="131.787109" xlink:href="#DejaVuSans-116"/>
      <use x="170.996094" xlink:href="#DejaVuSans-101"/>
      <use x="232.519531" xlink:href="#DejaVuSans-115"/>
      <use x="284.619141" xlink:href="#DejaVuSans-32"/>
      <use x="316.40625" xlink:href="#DejaVuSans-100"/>
      <use x="379.882812" xlink:href="#DejaVuSans-101"/>
      <use x="441.40625" xlink:href="#DejaVuSans-108"/>
      <use x="469.189453" xlink:href="#DejaVuSans-32"/>
      <use x="500.976562" xlink:href="#DejaVuSans-52"/>
      <use x="564.599609" xlink:href="#DejaVuSans-52"/>
      <use x="628.222656" xlink:href="#DejaVuSans-32"/>
      <use x="660.009766" xlink:href="#DejaVuSans-100"/>
      <use x="723.486328" xlink:href="#DejaVuSans-105"/>
      <use x="751.269531" xlink:href="#DejaVuSans-97"/>
      <use x="812.548828" xlink:href="#DejaVuSans-32"/>
      <use x="844.335938" xlink:href="#DejaVuSans-40"/>
      <use x="883.349609" xlink:href="#DejaVuSans-109"/>
      <use x="980.761719" xlink:href="#DejaVuSans-101"/>
      <use x="1042.285156" xlink:href="#DejaVuSans-100"/>
      <use x="1105.761719" xlink:href="#DejaVuSans-105"/>
      <use x="1133.544922" xlink:href="#DejaVuSans-97"/>
      <use x="1194.824219" xlink:href="#DejaVuSans-41"/>
     </g>
    </g>
    <g id="line2d_15">
     <path d="M 114.524716 71.376562 
L 134.524716 71.376562 
" style="fill:none;stroke:#ff7f0e;stroke-linecap:square;stroke-width:1.5;"/>
    </g>
    <g id="line2d_16"/>
    <g id="text_6">
     <!-- Después -->
     <defs>
      <path d="M 19.671875 64.796875 
L 19.671875 8.109375 
L 31.59375 8.109375 
Q 46.6875 8.109375 53.6875 14.9375 
Q 60.6875 21.78125 60.6875 36.53125 
Q 60.6875 51.171875 53.6875 57.984375 
Q 46.6875 64.796875 31.59375 64.796875 
z
M 9.8125 72.90625 
L 30.078125 72.90625 
Q 51.265625 72.90625 61.171875 64.09375 
Q 71.09375 55.28125 71.09375 36.53125 
Q 71.09375 17.671875 61.125 8.828125 
Q 51.171875 0 30.078125 0 
L 9.8125 0 
z
" id="DejaVuSans-68"/>
      <path d="M 18.109375 8.203125 
L 18.109375 -20.796875 
L 9.078125 -20.796875 
L 9.078125 54.6875 
L 18.109375 54.6875 
L 18.109375 46.390625 
Q 20.953125 51.265625 25.265625 53.625 
Q 29.59375 56 35.59375 56 
Q 45.5625 56 51.78125 48.09375 
Q 58.015625 40.1875 58.015625 27.296875 
Q 58.015625 14.40625 51.78125 6.484375 
Q 45.5625 -1.421875 35.59375 -1.421875 
Q 29.59375 -1.421875 25.265625 0.953125 
Q 20.953125 3.328125 18.109375 8.203125 
z
M 48.6875 27.296875 
Q 48.6875 37.203125 44.609375 42.84375 
Q 40.53125 48.484375 33.40625 48.484375 
Q 26.265625 48.484375 22.1875 42.84375 
Q 18.109375 37.203125 18.109375 27.296875 
Q 18.109375 17.390625 22.1875 11.75 
Q 26.265625 6.109375 33.40625 6.109375 
Q 40.53125 6.109375 44.609375 11.75 
Q 48.6875 17.390625 48.6875 27.296875 
z
" id="DejaVuSans-112"/>
      <path d="M 8.5 21.578125 
L 8.5 54.6875 
L 17.484375 54.6875 
L 17.484375 21.921875 
Q 17.484375 14.15625 20.5 10.265625 
Q 23.53125 6.390625 29.59375 6.390625 
Q 36.859375 6.390625 41.078125 11.03125 
Q 45.3125 15.671875 45.3125 23.6875 
L 45.3125 54.6875 
L 54.296875 54.6875 
L 54.296875 0 
L 45.3125 0 
L 45.3125 8.40625 
Q 42.046875 3.421875 37.71875 1 
Q 33.40625 -1.421875 27.6875 -1.421875 
Q 18.265625 -1.421875 13.375 4.4375 
Q 8.5 10.296875 8.5 21.578125 
z
M 31.109375 56 
z
" id="DejaVuSans-117"/>
      <path d="M 56.203125 29.59375 
L 56.203125 25.203125 
L 14.890625 25.203125 
Q 15.484375 15.921875 20.484375 11.0625 
Q 25.484375 6.203125 34.421875 6.203125 
Q 39.59375 6.203125 44.453125 7.46875 
Q 49.3125 8.734375 54.109375 11.28125 
L 54.109375 2.78125 
Q 49.265625 0.734375 44.1875 -0.34375 
Q 39.109375 -1.421875 33.890625 -1.421875 
Q 20.796875 -1.421875 13.15625 6.1875 
Q 5.515625 13.8125 5.515625 26.8125 
Q 5.515625 40.234375 12.765625 48.109375 
Q 20.015625 56 32.328125 56 
Q 43.359375 56 49.78125 48.890625 
Q 56.203125 41.796875 56.203125 29.59375 
z
M 47.21875 32.234375 
Q 47.125 39.59375 43.09375 43.984375 
Q 39.0625 48.390625 32.421875 48.390625 
Q 24.90625 48.390625 20.390625 44.140625 
Q 15.875 39.890625 15.1875 32.171875 
z
M 38.578125 79.984375 
L 48.296875 79.984375 
L 32.375 61.625 
L 24.90625 61.625 
z
" id="DejaVuSans-233"/>
     </defs>
     <g transform="translate(142.524716 74.876562)scale(0.1 -0.1)">
      <use xlink:href="#DejaVuSans-68"/>
      <use x="77.001953" xlink:href="#DejaVuSans-101"/>
      <use x="138.525391" xlink:href="#DejaVuSans-115"/>
      <use x="190.625" xlink:href="#DejaVuSans-112"/>
      <use x="254.101562" xlink:href="#DejaVuSans-117"/>
      <use x="317.480469" xlink:href="#DejaVuSans-233"/>
      <use x="379.003906" xlink:href="#DejaVuSans-115"/>
     </g>
    </g>
   </g>
  </g>
  <g id="axes_2">
   <g id="patch_5">
    <path d="M 315.490909 315 
L 518.4 315 
L 518.4 43.2 
L 315.490909 43.2 
z
" style="fill:#ffffff;"/>
   </g>
   <g id="patch_6">
    <path clip-path="url(#p9bfa00105e)" d="M 324.71405 315 
L 324.71405 314.960417 
L 353.092943 314.960417 
L 353.092943 314.419455 
L 381.471837 314.419455 
L 381.471837 295.551739 
L 409.850731 295.551739 
L 409.850731 260.653062 
L 438.229625 260.653062 
L 438.229625 120.504198 
L 466.608519 120.504198 
L 466.608519 56.142857 
L 494.987413 56.142857 
L 494.987413 315 
" style="fill:none;stroke:#800080;stroke-linejoin:miter;"/>
   </g>
   <g id="patch_7">
    <path clip-path="url(#p9bfa00105e)" d="M 338.903497 315 
L 367.28239 315 
L 367.28239 314.960417 
L 338.903497 314.960417 
z
" style="fill:#800080;opacity:0.25;"/>
   </g>
   <g id="patch_8">
    <path clip-path="url(#p9bfa00105e)" d="M 367.28239 315 
L 395.661284 315 
L 395.661284 314.419455 
L 367.28239 314.419455 
z
" style="fill:#800080;opacity:0.25;"/>
   </g>
   <g id="patch_9">
    <path clip-path="url(#p9bfa00105e)" d="M 395.661284 315 
L 424.040178 315 
L 424.040178 295.551739 
L 395.661284 295.551739 
z
" style="fill:#800080;opacity:0.25;"/>
   </g>
   <g id="patch_10">
    <path clip-path="url(#p9bfa00105e)" d="M 424.040178 315 
L 452.419072 315 
L 452.419072 260.653062 
L 424.040178 260.653062 
z
" style="fill:#800080;opacity:0.25;"/>
   </g>
   <g id="patch_11">
    <path clip-path="url(#p9bfa00105e)" d="M 452.419072 315 
L 480.797966 315 
L 480.797966 120.504198 
L 452.419072 120.504198 
z
" style="fill:#800080;opacity:0.25;"/>
   </g>
   <g id="patch_12">
    <path clip-path="url(#p9bfa00105e)" d="M 480.797966 315 
L 509.17686 315 
L 509.17686 56.142857 
L 480.797966 56.142857 
z
" style="fill:#800080;opacity:0.25;"/>
   </g>
   <g id="matplotlib.axis_3">
    <g id="xtick_3">
     <g id="line2d_17">
      <g>
       <use style="stroke:#000000;stroke-width:0.8;" x="338.903497" xlink:href="#mdbd9e6119e" y="315"/>
      </g>
     </g>
     <g id="text_7">
      <!-- 40 -->
      <g transform="translate(329.995997 332.637812)scale(0.14 -0.14)">
       <use xlink:href="#DejaVuSans-52"/>
       <use x="63.623047" xlink:href="#DejaVuSans-48"/>
      </g>
     </g>
    </g>
    <g id="xtick_4">
     <g id="line2d_18">
      <g>
       <use style="stroke:#000000;stroke-width:0.8;" x="395.661284" xlink:href="#mdbd9e6119e" y="315"/>
      </g>
     </g>
     <g id="text_8">
      <!-- 42 -->
      <g transform="translate(386.753784 332.637812)scale(0.14 -0.14)">
       <use xlink:href="#DejaVuSans-52"/>
       <use x="63.623047" xlink:href="#DejaVuSans-50"/>
      </g>
     </g>
    </g>
    <g id="xtick_5">
     <g id="line2d_19">
      <g>
       <use style="stroke:#000000;stroke-width:0.8;" x="452.419072" xlink:href="#mdbd9e6119e" y="315"/>
      </g>
     </g>
     <g id="text_9">
      <!-- 44 -->
      <g transform="translate(443.511572 332.637812)scale(0.14 -0.14)">
       <use xlink:href="#DejaVuSans-52"/>
       <use x="63.623047" xlink:href="#DejaVuSans-52"/>
      </g>
     </g>
    </g>
    <g id="xtick_6">
     <g id="line2d_20">
      <g>
       <use style="stroke:#000000;stroke-width:0.8;" x="509.17686" xlink:href="#mdbd9e6119e" y="315"/>
      </g>
     </g>
     <g id="text_10">
      <!-- 46 -->
      <defs>
       <path d="M 33.015625 40.375 
Q 26.375 40.375 22.484375 35.828125 
Q 18.609375 31.296875 18.609375 23.390625 
Q 18.609375 15.53125 22.484375 10.953125 
Q 26.375 6.390625 33.015625 6.390625 
Q 39.65625 6.390625 43.53125 10.953125 
Q 47.40625 15.53125 47.40625 23.390625 
Q 47.40625 31.296875 43.53125 35.828125 
Q 39.65625 40.375 33.015625 40.375 
z
M 52.59375 71.296875 
L 52.59375 62.3125 
Q 48.875 64.0625 45.09375 64.984375 
Q 41.3125 65.921875 37.59375 65.921875 
Q 27.828125 65.921875 22.671875 59.328125 
Q 17.53125 52.734375 16.796875 39.40625 
Q 19.671875 43.65625 24.015625 45.921875 
Q 28.375 48.1875 33.59375 48.1875 
Q 44.578125 48.1875 50.953125 41.515625 
Q 57.328125 34.859375 57.328125 23.390625 
Q 57.328125 12.15625 50.6875 5.359375 
Q 44.046875 -1.421875 33.015625 -1.421875 
Q 20.359375 -1.421875 13.671875 8.265625 
Q 6.984375 17.96875 6.984375 36.375 
Q 6.984375 53.65625 15.1875 63.9375 
Q 23.390625 74.21875 37.203125 74.21875 
Q 40.921875 74.21875 44.703125 73.484375 
Q 48.484375 72.75 52.59375 71.296875 
z
" id="DejaVuSans-54"/>
      </defs>
      <g transform="translate(500.26936 332.637812)scale(0.14 -0.14)">
       <use xlink:href="#DejaVuSans-52"/>
       <use x="63.623047" xlink:href="#DejaVuSans-54"/>
      </g>
     </g>
    </g>
    <g id="text_11">
     <!-- día de cambio -->
     <defs>
      <path d="M 48.78125 52.59375 
L 48.78125 44.1875 
Q 44.96875 46.296875 41.140625 47.34375 
Q 37.3125 48.390625 33.40625 48.390625 
Q 24.65625 48.390625 19.8125 42.84375 
Q 14.984375 37.3125 14.984375 27.296875 
Q 14.984375 17.28125 19.8125 11.734375 
Q 24.65625 6.203125 33.40625 6.203125 
Q 37.3125 6.203125 41.140625 7.25 
Q 44.96875 8.296875 48.78125 10.40625 
L 48.78125 2.09375 
Q 45.015625 0.34375 40.984375 -0.53125 
Q 36.96875 -1.421875 32.421875 -1.421875 
Q 20.0625 -1.421875 12.78125 6.34375 
Q 5.515625 14.109375 5.515625 27.296875 
Q 5.515625 40.671875 12.859375 48.328125 
Q 20.21875 56 33.015625 56 
Q 37.15625 56 41.109375 55.140625 
Q 45.0625 54.296875 48.78125 52.59375 
z
" id="DejaVuSans-99"/>
      <path d="M 48.6875 27.296875 
Q 48.6875 37.203125 44.609375 42.84375 
Q 40.53125 48.484375 33.40625 48.484375 
Q 26.265625 48.484375 22.1875 42.84375 
Q 18.109375 37.203125 18.109375 27.296875 
Q 18.109375 17.390625 22.1875 11.75 
Q 26.265625 6.109375 33.40625 6.109375 
Q 40.53125 6.109375 44.609375 11.75 
Q 48.6875 17.390625 48.6875 27.296875 
z
M 18.109375 46.390625 
Q 20.953125 51.265625 25.265625 53.625 
Q 29.59375 56 35.59375 56 
Q 45.5625 56 51.78125 48.09375 
Q 58.015625 40.1875 58.015625 27.296875 
Q 58.015625 14.40625 51.78125 6.484375 
Q 45.5625 -1.421875 35.59375 -1.421875 
Q 29.59375 -1.421875 25.265625 0.953125 
Q 20.953125 3.328125 18.109375 8.203125 
L 18.109375 0 
L 9.078125 0 
L 9.078125 75.984375 
L 18.109375 75.984375 
z
" id="DejaVuSans-98"/>
      <path d="M 30.609375 48.390625 
Q 23.390625 48.390625 19.1875 42.75 
Q 14.984375 37.109375 14.984375 27.296875 
Q 14.984375 17.484375 19.15625 11.84375 
Q 23.34375 6.203125 30.609375 6.203125 
Q 37.796875 6.203125 41.984375 11.859375 
Q 46.1875 17.53125 46.1875 27.296875 
Q 46.1875 37.015625 41.984375 42.703125 
Q 37.796875 48.390625 30.609375 48.390625 
z
M 30.609375 56 
Q 42.328125 56 49.015625 48.375 
Q 55.71875 40.765625 55.71875 27.296875 
Q 55.71875 13.875 49.015625 6.21875 
Q 42.328125 -1.421875 30.609375 -1.421875 
Q 18.84375 -1.421875 12.171875 6.21875 
Q 5.515625 13.875 5.515625 27.296875 
Q 5.515625 40.765625 12.171875 48.375 
Q 18.84375 56 30.609375 56 
z
" id="DejaVuSans-111"/>
     </defs>
     <g transform="translate(363.901705 350.947031)scale(0.15 -0.15)">
      <use xlink:href="#DejaVuSans-100"/>
      <use x="63.476562" xlink:href="#DejaVuSans-237"/>
      <use x="91.259766" xlink:href="#DejaVuSans-97"/>
      <use x="152.539062" xlink:href="#DejaVuSans-32"/>
      <use x="184.326172" xlink:href="#DejaVuSans-100"/>
      <use x="247.802734" xlink:href="#DejaVuSans-101"/>
      <use x="309.326172" xlink:href="#DejaVuSans-32"/>
      <use x="341.113281" xlink:href="#DejaVuSans-99"/>
      <use x="396.09375" xlink:href="#DejaVuSans-97"/>
      <use x="457.373047" xlink:href="#DejaVuSans-109"/>
      <use x="554.785156" xlink:href="#DejaVuSans-98"/>
      <use x="618.261719" xlink:href="#DejaVuSans-105"/>
      <use x="646.044922" xlink:href="#DejaVuSans-111"/>
     </g>
    </g>
   </g>
   <g id="matplotlib.axis_4"/>
   <g id="line2d_21">
    <defs>
     <path d="M 0 3 
C 0.795609 3 1.55874 2.683901 2.12132 2.12132 
C 2.683901 1.55874 3 0.795609 3 0 
C 3 -0.795609 2.683901 -1.55874 2.12132 -2.12132 
C 1.55874 -2.683901 0.795609 -3 0 -3 
C -0.795609 -3 -1.55874 -2.683901 -2.12132 -2.12132 
C -2.683901 -1.55874 -3 -0.795609 -3 0 
C -3 0.795609 -2.683901 1.55874 -2.12132 2.12132 
C -1.55874 2.683901 -0.795609 3 0 3 
z
" id="mc11c032464" style="stroke:#000000;"/>
    </defs>
    <g clip-path="url(#p9bfa00105e)">
     <use style="fill:#800080;stroke:#000000;" x="461.222205" xlink:href="#mc11c032464" y="315"/>
    </g>
   </g>
   <g id="patch_13">
    <path d="M 315.490909 315 
L 518.4 315 
" style="fill:none;stroke:#000000;stroke-linecap:square;stroke-linejoin:miter;stroke-width:0.8;"/>
   </g>
   <g id="text_12">
    <!-- $\tau$ (día de cambio) -->
    <defs>
     <path d="M 32.859375 9.96875 
Q 34.1875 7.625 39.453125 7.625 
L 43.75 7.625 
L 42.28125 0 
L 36.921875 0 
Q 28.125 0 25 4.6875 
Q 21.921875 9.46875 23.96875 19.828125 
L 29 45.703125 
L 8.453125 45.703125 
L 10.203125 54.6875 
L 60.640625 54.6875 
L 58.890625 45.703125 
L 38.1875 45.703125 
L 33.015625 19.28125 
Q 31.640625 12.203125 32.859375 9.96875 
z
" id="DejaVuSans-Oblique-964"/>
    </defs>
    <g transform="translate(329.145455 37.2)scale(0.2 -0.2)">
     <use transform="translate(0 0.015625)" xlink:href="#DejaVuSans-Oblique-964"/>
     <use transform="translate(60.205078 0.015625)" xlink:href="#DejaVuSans-32"/>
     <use transform="translate(91.992188 0.015625)" xlink:href="#DejaVuSans-40"/>
     <use transform="translate(131.005859 0.015625)" xlink:href="#DejaVuSans-100"/>
     <use transform="translate(194.482422 0.015625)" xlink:href="#DejaVuSans-237"/>
     <use transform="translate(222.265625 0.015625)" xlink:href="#DejaVuSans-97"/>
     <use transform="translate(283.544922 0.015625)" xlink:href="#DejaVuSans-32"/>
     <use transform="translate(315.332031 0.015625)" xlink:href="#DejaVuSans-100"/>
     <use transform="translate(378.808594 0.015625)" xlink:href="#DejaVuSans-101"/>
     <use transform="translate(440.332031 0.015625)" xlink:href="#DejaVuSans-32"/>
     <use transform="translate(472.119141 0.015625)" xlink:href="#DejaVuSans-99"/>
     <use transform="translate(527.099609 0.015625)" xlink:href="#DejaVuSans-97"/>
     <use transform="translate(588.378906 0.015625)" xlink:href="#DejaVuSans-109"/>
     <use transform="translate(685.791016 0.015625)" xlink:href="#DejaVuSans-98"/>
     <use transform="translate(749.267578 0.015625)" xlink:href="#DejaVuSans-105"/>
     <use transform="translate(777.050781 0.015625)" xlink:href="#DejaVuSans-111"/>
     <use transform="translate(838.232422 0.015625)" xlink:href="#DejaVuSans-41"/>
    </g>
   </g>
  </g>
 </g>
 <defs>
  <clipPath id="p286d3af269">
   <rect height="271.8" width="202.909091" x="72" y="43.2"/>
  </clipPath>
  <clipPath id="p9bfa00105e">
   <rect height="271.8" width="202.909091" x="315.490909" y="43.2"/>
  </clipPath>
 </defs>
</svg>
