<?xml version="1.0" encoding="UTF-8" standalone="no"?>
<!-- Generated by graphviz version 2.43.0 (0)
 -->

<!-- Title: G Pages: 1 -->

<svg
   xmlns:dc="http://purl.org/dc/elements/1.1/"
   xmlns:cc="http://creativecommons.org/ns#"
   xmlns:rdf="http://www.w3.org/1999/02/22-rdf-syntax-ns#"
   xmlns:svg="http://www.w3.org/2000/svg"
   xmlns="http://www.w3.org/2000/svg"
   xmlns:sodipodi="http://sodipodi.sourceforge.net/DTD/sodipodi-0.dtd"
   xmlns:inkscape="http://www.inkscape.org/namespaces/inkscape"
   width="223pt"
   height="293pt"
   viewBox="0.00 0.00 223.00 293.00"
   version="1.1"
   id="svg110"
   sodipodi:docname="model_TTB.gv.svg"
   inkscape:version="0.92.5 (2060ec1f9f, 2020-04-08)">
  <metadata
     id="metadata116">
    <rdf:RDF>
      <cc:Work
         rdf:about="">
        <dc:format>image/svg+xml</dc:format>
        <dc:type
           rdf:resource="http://purl.org/dc/dcmitype/StillImage" />
      </cc:Work>
    </rdf:RDF>
  </metadata>
  <defs
     id="defs114" />
  <sodipodi:namedview
     pagecolor="#ffffff"
     bordercolor="#666666"
     borderopacity="1"
     objecttolerance="10"
     gridtolerance="10"
     guidetolerance="10"
     inkscape:pageopacity="0"
     inkscape:pageshadow="2"
     inkscape:window-width="1848"
     inkscape:window-height="1016"
     id="namedview112"
     showgrid="false"
     inkscape:zoom="1.5167802"
     inkscape:cx="417.24495"
     inkscape:cy="169.36793"
     inkscape:window-x="72"
     inkscape:window-y="27"
     inkscape:window-maximized="1"
     inkscape:current-layer="svg110" />
  <text
     style="font-size:14px;font-family:Times, serif;text-anchor:middle"
     id="text14"
     font-size="14.00"
     y="19.200012"
     x="111.5">TTB</text>
  <path
     d="m 62,281 c 0,0 99,0 99,0 6,0 12,-6 12,-12 0,0 0,-222 0,-222 0,-6 -6,-12 -12,-12 0,0 -99,0 -99,0 -6,0 -12,6 -12,12 0,0 0,222 0,222 0,6 6,12 12,12"
     id="path18"
     inkscape:connector-curvature="0"
     style="fill:none;stroke:#000000" />
  <text
     x="108.5"
     y="50.199997"
     font-size="14.00"
     id="text20"
     style="font-size:14px;font-family:Times, serif;text-anchor:middle">$q questions$</text>
  <path
     d="m 72,271 c 0,0 79,0 79,0 6,0 12,-6 12,-12 0,0 0,-55 0,-55 0,-6 -6,-12 -12,-12 0,0 -79,0 -79,0 -6,0 -12,6 -12,12 0,0 0,55 0,55 0,6 6,12 12,12"
     id="path25"
     inkscape:connector-curvature="0"
     style="fill:none;stroke:#000000" />
  <text
     x="111.5"
     y="207.2"
     font-size="14.00"
     id="text27"
     style="font-size:14px;font-family:Times, serif;text-anchor:middle">$i subjects$</text>
  <polygon
     points="36,-221 0,-221 0,-185 36,-185 "
     id="polygon32"
     style="fill:#808080;stroke:#000000"
     transform="translate(4,289)" />
  <text
     x="22"
     y="89.699997"
     font-size="14.00"
     id="text34"
     style="font-size:14px;font-family:Times, serif;text-anchor:middle">$s$</text>
  <polygon
     points="99,-145 63,-145 63,-109 99,-109 "
     id="polygon39"
     style="fill:none;stroke:#000000"
     transform="translate(4,289)" />
  <polygon
     points="103,-149 59,-149 59,-105 103,-105 "
     id="polygon41"
     style="fill:none;stroke:#000000"
     transform="translate(4,289)" />
  <text
     x="85"
     y="165.7"
     font-size="14.00"
     id="text43"
     style="font-size:14px;font-family:Times, serif;text-anchor:middle">$t_{q}$</text>
  <path
     d="m 36.61,104.16 c 7.1,8.34 15.83,18.59 23.9,28.08"
     id="path48"
     inkscape:connector-curvature="0"
     style="fill:none;stroke:#000000" />
  <polygon
     points="63.09,-149.03 53.95,-154.38 59.28,-158.92 "
     id="polygon50"
     style="fill:#000000;stroke:#000000"
     transform="translate(4,289)" />
  <polygon
     points="125,-64 89,-64 89,-28 125,-28 "
     id="polygon55"
     style="fill:#808080;stroke:#000000"
     transform="translate(4,289)" />
  <text
     x="111"
     y="246.7"
     font-size="14.00"
     id="text57"
     style="font-size:14px;font-family:Times, serif;text-anchor:middle">$y_{iq}$</text>
  <path
     d="m 91.97,184.17 c 3.13,9.53 6.87,20.89 10.2,31.01"
     id="path62"
     inkscape:connector-curvature="0"
     style="fill:none;stroke:#000000" />
  <polygon
     points="101.33,-64.23 94.88,-72.64 101.53,-74.83 "
     id="polygon64"
     style="fill:#000000;stroke:#000000"
     transform="translate(4,289)" />
  <polygon
     points="148,-221 112,-221 112,-185 148,-185 "
     id="polygon69"
     style="fill:#808080;stroke:#000000"
     transform="translate(4,289)" />
  <text
     x="134"
     y="89.699997"
     font-size="14.00"
     id="text71"
     style="font-size:14px;font-family:Times, serif;text-anchor:middle">$a_q$</text>
  <path
     d="m 122.64,104.16 c -5.36,8.09 -11.91,17.98 -18.03,27.22"
     id="path76"
     inkscape:connector-curvature="0"
     style="fill:none;stroke:#000000" />
  <polygon
     points="94.93,-149.03 97.53,-159.3 103.37,-155.44 "
     id="polygon78"
     style="fill:#000000;stroke:#000000"
     transform="translate(4,289)" />
  <polygon
     points="94,-221 58,-221 58,-185 94,-185 "
     id="polygon83"
     style="fill:#808080;stroke:#000000"
     transform="translate(4,289)" />
  <text
     x="80"
     y="89.699997"
     font-size="14.00"
     id="text85"
     style="font-size:14px;font-family:Times, serif;text-anchor:middle">$b_q$</text>
  <path
     d="m 81.16,104.16 c 0.52,7.68 1.15,16.96 1.74,25.79"
     id="path90"
     inkscape:connector-curvature="0"
     style="fill:none;stroke:#000000" />
  <polygon
     points="79.58,-149.03 75.41,-158.77 82.4,-159.25 "
     id="polygon92"
     style="fill:#000000;stroke:#000000"
     transform="translate(4,289)" />
  <circle
     cx="201"
     cy="162"
     id="ellipse97"
     r="18"
     style="fill:none;stroke:#000000" />
  <text
     x="201"
     y="165.7"
     font-size="14.00"
     id="text99"
     style="font-size:14px;font-family:Times, serif;text-anchor:middle">$\gamma$</text>
  <path
     d="m 187.72,174.66 c -13.28,11.65 -34.05,29.89 -50.64,44.45"
     id="path104"
     inkscape:connector-curvature="0"
     style="fill:none;stroke:#000000" />
  <polygon
     points="125.33,-63.09 130.53,-72.32 135.15,-67.05 "
     id="polygon106"
     style="fill:#000000;stroke:#000000"
     transform="translate(4,289)" />
  <text
     xml:space="preserve"
     style="font-size:15.50150967px;line-height:1.25;font-family:sans-serif;letter-spacing:0px;word-spacing:0px;stroke-width:0.58130664"
     x="245.37514"
     y="80.916504"
     id="text202"><tspan
       sodipodi:role="line"
       id="tspan200"
       x="245.37514"
       y="80.916504"
       style="stroke-width:0.58130664">$t_q = TTB_s(a_q,b_q)$</tspan><tspan
       sodipodi:role="line"
       x="245.37514"
       y="100.29339"
       style="stroke-width:0.58130664"
       id="tspan204">$\gamma \sim Uniform(0.5,1)$</tspan><tspan
       sodipodi:role="line"
       x="245.37514"
       y="119.67027"
       style="stroke-width:0.58130664"
       id="tspan206">$ y_{iq} \sim</tspan><tspan
       sodipodi:role="line"
       x="245.37514"
       y="139.04716"
       style="stroke-width:0.58130664"
       id="tspan208">\begin{cases}</tspan><tspan
       sodipodi:role="line"
       x="245.37514"
       y="158.42406"
       style="stroke-width:0.58130664"
       id="tspan210">\text{Bernoulli}(\gamma) &amp; \text{if $t_q = a$} \\</tspan><tspan
       sodipodi:role="line"
       x="245.37514"
       y="177.80093"
       style="stroke-width:0.58130664"
       id="tspan212">\text{Bernoulli}(1- \gamma) &amp; \text{if $t_q = b$} \\</tspan><tspan
       sodipodi:role="line"
       x="245.37514"
       y="197.17783"
       style="stroke-width:0.58130664"
       id="tspan214">\text{Bernoulli}(0.5) &amp; \text{otherwise}</tspan><tspan
       sodipodi:role="line"
       x="245.37514"
       y="216.55472"
       style="stroke-width:0.58130664"
       id="tspan216">\end{cases}  $</tspan></text>
</svg>
