<?xml version="1.0" encoding="UTF-8" standalone="no"?>
<!-- Generated by graphviz version 2.43.0 (0)
 -->

<!-- Title: G Pages: 1 -->

<svg
   xmlns:dc="http://purl.org/dc/elements/1.1/"
   xmlns:cc="http://creativecommons.org/ns#"
   xmlns:rdf="http://www.w3.org/1999/02/22-rdf-syntax-ns#"
   xmlns:svg="http://www.w3.org/2000/svg"
   xmlns="http://www.w3.org/2000/svg"
   xmlns:sodipodi="http://sodipodi.sourceforge.net/DTD/sodipodi-0.dtd"
   xmlns:inkscape="http://www.inkscape.org/namespaces/inkscape"
   width="274pt"
   height="434pt"
   viewBox="0.00 0.00 274.00 434.00"
   version="1.1"
   id="svg133"
   sodipodi:docname="model_TTB_order.gv.svg"
   inkscape:version="0.92.5 (2060ec1f9f, 2020-04-08)">
  <metadata
     id="metadata139">
    <rdf:RDF>
      <cc:Work
         rdf:about="">
        <dc:format>image/svg+xml</dc:format>
        <dc:type
           rdf:resource="http://purl.org/dc/dcmitype/StillImage" />
      </cc:Work>
    </rdf:RDF>
  </metadata>
  <defs
     id="defs137" />
  <sodipodi:namedview
     pagecolor="#ffffff"
     bordercolor="#666666"
     borderopacity="1"
     objecttolerance="10"
     gridtolerance="10"
     guidetolerance="10"
     inkscape:pageopacity="0"
     inkscape:pageshadow="2"
     inkscape:window-width="1848"
     inkscape:window-height="1016"
     id="namedview135"
     showgrid="false"
     inkscape:zoom="1.0240014"
     inkscape:cx="461.2878"
     inkscape:cy="276.35176"
     inkscape:window-x="72"
     inkscape:window-y="27"
     inkscape:window-maximized="1"
     inkscape:current-layer="svg133" />
  <polygon
     style="fill:#ffffff"
     id="polygon12"
     points="270,-430 270,4 -4,4 -4,-430 "
     stroke="transparent"
     transform="translate(4,430)" />
  <text
     style="font-size:14px;font-family:Times, serif;text-anchor:middle"
     id="text14"
     font-size="14.00"
     y="19.200012"
     x="137">TTB+Order</text>
  <path
     d="m 24,422 c 0,0 188,0 188,0 6,0 12,-6 12,-12 0,0 0,-363 0,-363 0,-6 -6,-12 -12,-12 0,0 -188,0 -188,0 -6,0 -12,6 -12,12 0,0 0,363 0,363 0,6 6,12 12,12"
     id="path18"
     inkscape:connector-curvature="0"
     style="fill:none;stroke:#000000" />
  <text
     x="75"
     y="50.200012"
     font-size="14.00"
     id="text20"
     style="font-size:14px;font-family:Times, serif;text-anchor:middle">$q \ questions$</text>
  <path
     d="m 80,412 c 0,0 76,0 76,0 6,0 12,-6 12,-12 0,0 0,-320 0,-320 0,-6 -6,-12 -12,-12 0,0 -76,0 -76,0 -6,0 -12,6 -12,12 0,0 0,320 0,320 0,6 6,12 12,12"
     id="path25"
     inkscape:connector-curvature="0"
     style="fill:none;stroke:#000000" />
  <text
     x="109.5"
     y="83.200012"
     font-size="14.00"
     id="text27"
     style="font-size:14px;font-family:Times, serif;text-anchor:middle">$i \ subj$</text>
  <path
     d="m 90,180 c 0,0 56,0 56,0 6,0 12,-6 12,-12 0,0 0,-55 0,-55 0,-6 -6,-12 -12,-12 0,0 -56,0 -56,0 -6,0 -12,6 -12,12 0,0 0,55 0,55 0,6 6,12 12,12"
     id="path32"
     inkscape:connector-curvature="0"
     style="fill:none;stroke:#000000" />
  <text
     x="118"
     y="116.20001"
     font-size="14.00"
     id="text34"
     style="font-size:14px;font-family:Times, serif;text-anchor:middle">$c \ cue$</text>
  <circle
     cx="130"
     cy="152"
     id="ellipse39"
     r="18"
     style="fill:none;stroke:#000000" />
  <text
     x="130"
     y="155.70001"
     font-size="14.00"
     id="text41"
     style="font-size:14px;font-family:Times, serif;text-anchor:middle">$v_{ic}$</text>
  <polygon
     points="145,-220 109,-220 109,-184 145,-184 "
     id="polygon46"
     style="fill:none;stroke:#000000"
     transform="translate(4,430)" />
  <polygon
     points="149,-224 105,-224 105,-180 149,-180 "
     id="polygon48"
     style="fill:none;stroke:#000000"
     transform="translate(4,430)" />
  <text
     x="131"
     y="231.7"
     font-size="14.00"
     id="text50"
     style="font-size:14px;font-family:Times, serif;text-anchor:middle">$s_i$</text>
  <path
     d="m 130.23,170.16 c 0.11,7.68 0.23,16.96 0.35,25.79"
     id="path55"
     inkscape:connector-curvature="0"
     style="fill:none;stroke:#000000" />
  <polygon
     points="126.72,-224.03 123.08,-233.98 130.08,-234.08 "
     id="polygon57"
     style="fill:#000000;stroke:#000000"
     transform="translate(4,430)" />
  <polygon
     points="148,-140 112,-140 112,-104 148,-104 "
     id="polygon62"
     style="fill:none;stroke:#000000"
     transform="translate(4,430)" />
  <polygon
     points="152,-144 108,-144 108,-100 152,-100 "
     id="polygon64"
     style="fill:none;stroke:#000000"
     transform="translate(4,430)" />
  <text
     x="134"
     y="311.70001"
     font-size="14.00"
     id="text66"
     style="font-size:14px;font-family:Times, serif;text-anchor:middle">$t_{iq}$</text>
  <path
     d="m 131.82,250.31 c 0.3,7.89 0.65,17.01 0.98,25.59"
     id="path71"
     inkscape:connector-curvature="0"
     style="fill:none;stroke:#000000" />
  <polygon
     points="129.19,-144.02 125.31,-153.88 132.3,-154.15 "
     id="polygon73"
     style="fill:#000000;stroke:#000000"
     transform="translate(4,430)" />
  <polygon
     points="151,-64 115,-64 115,-28 151,-28 "
     id="polygon78"
     style="fill:#808080;stroke:#000000"
     transform="translate(4,430)" />
  <text
     x="137"
     y="387.70001"
     font-size="14.00"
     id="text80"
     style="font-size:14px;font-family:Times, serif;text-anchor:middle">$y_{iq}$</text>
  <path
     d="m 134.85,330.01 c 0.32,7.93 0.69,17.08 1.04,25.51"
     id="path85"
     inkscape:connector-curvature="0"
     style="fill:none;stroke:#000000" />
  <polygon
     points="132.3,-64.31 128.4,-74.16 135.39,-74.45 "
     id="polygon87"
     style="fill:#000000;stroke:#000000"
     transform="translate(4,430)" />
  <polygon
     points="210,-220 174,-220 174,-184 210,-184 "
     id="polygon92"
     style="fill:#808080;stroke:#000000"
     transform="translate(4,430)" />
  <text
     x="196"
     y="231.7"
     font-size="14.00"
     id="text94"
     style="font-size:14px;font-family:Times, serif;text-anchor:middle">$a_q$</text>
  <path
     d="m 182.24,246.31 c -7.39,9.3 -16.7,21.01 -25.16,31.66"
     id="path99"
     inkscape:connector-curvature="0"
     style="fill:none;stroke:#000000" />
  <polygon
     points="146.81,-144.15 150.3,-154.16 155.78,-149.8 "
     id="polygon101"
     style="fill:#000000;stroke:#000000"
     transform="translate(4,430)" />
  <polygon
     points="54,-220 18,-220 18,-184 54,-184 "
     id="polygon106"
     style="fill:#808080;stroke:#000000"
     transform="translate(4,430)" />
  <text
     x="40"
     y="231.7"
     font-size="14.00"
     id="text108"
     style="font-size:14px;font-family:Times, serif;text-anchor:middle">$b_q$</text>
  <path
     d="m 58.03,244.89 c 2,1.74 4.02,3.47 5.97,5.11 12.97,10.95 27.49,22.83 39.93,32.9"
     id="path113"
     inkscape:connector-curvature="0"
     style="fill:none;stroke:#000000" />
  <polygon
     points="107.77,-140.77 97.79,-144.33 102.18,-149.78 "
     id="polygon115"
     style="fill:#000000;stroke:#000000"
     transform="translate(4,430)" />
  <circle
     cx="252"
     cy="308"
     id="ellipse120"
     r="18"
     style="fill:none;stroke:#000000" />
  <text
     x="252"
     y="311.70001"
     font-size="14.00"
     id="text122"
     style="font-size:14px;font-family:Times, serif;text-anchor:middle">$\gamma$</text>
  <path
     d="m 236.97,318.67 c -18.6,11.97 -50.59,32.55 -73.37,47.21"
     id="path127"
     inkscape:connector-curvature="0"
     style="fill:none;stroke:#000000" />
  <polygon
     points="151.07,-58.63 157.58,-66.98 161.37,-61.09 "
     id="polygon129"
     style="fill:#000000;stroke:#000000"
     transform="translate(4,430)" />
  <text
     xml:space="preserve"
     style="font-size:15.50150776px;line-height:1.25;font-family:sans-serif;letter-spacing:0px;word-spacing:0px;stroke-width:0.58130658"
     x="291.53409"
     y="77.104851"
     id="text202"><tspan
       sodipodi:role="line"
       id="tspan200"
       x="291.53409"
       y="77.104851"
       style="stroke-width:0.58130658">$t_{iq} = TTB_s(a_q,b_q)$</tspan><tspan
       sodipodi:role="line"
       x="291.53409"
       y="96.481735"
       style="stroke-width:0.58130658"
       id="tspan345">$v_{ic} \sim Normal(0, 0.001)$</tspan><tspan
       sodipodi:role="line"
       x="291.53409"
       y="115.85862"
       style="stroke-width:0.58130658"
       id="tspan347">$s_{i}$ = rank(v_{ic})</tspan><tspan
       sodipodi:role="line"
       x="291.53409"
       y="135.2355"
       style="stroke-width:0.58130658"
       id="tspan204">$\gamma \sim Uniform(0.5,1)$</tspan><tspan
       sodipodi:role="line"
       x="291.53409"
       y="154.6124"
       style="stroke-width:0.58130658"
       id="tspan208">$ y_{iq} \sim \begin{cases}</tspan><tspan
       sodipodi:role="line"
       x="291.53409"
       y="173.98927"
       style="stroke-width:0.58130658"
       id="tspan210">\text{Bernoulli}(\gamma) \;\;\;\; \text{if $t_{iq} = a$} </tspan><tspan
       sodipodi:role="line"
       x="291.53409"
       y="193.36617"
       style="stroke-width:0.58130658"
       id="tspan212">\text{Bernoulli}(1- \gamma) \; \text{if $t_{iq} = b$} </tspan><tspan
       sodipodi:role="line"
       x="291.53409"
       y="212.74304"
       style="stroke-width:0.58130658"
       id="tspan214">\text{Bernoulli}(0.5) \;\;\; \text{otherwise}</tspan><tspan
       sodipodi:role="line"
       x="291.53409"
       y="232.11993"
       style="stroke-width:0.58130658"
       id="tspan216">\end{cases}  $</tspan></text>
</svg>
