<?xml version="1.0" encoding="UTF-8" standalone="no"?>
<!-- Generated by graphviz version 2.43.0 (0)
 -->

<!-- Title: G Pages: 1 -->

<svg
   xmlns:dc="http://purl.org/dc/elements/1.1/"
   xmlns:cc="http://creativecommons.org/ns#"
   xmlns:rdf="http://www.w3.org/1999/02/22-rdf-syntax-ns#"
   xmlns:svg="http://www.w3.org/2000/svg"
   xmlns="http://www.w3.org/2000/svg"
   xmlns:sodipodi="http://sodipodi.sourceforge.net/DTD/sodipodi-0.dtd"
   xmlns:inkscape="http://www.inkscape.org/namespaces/inkscape"
   width="377.23315pt"
   height="335.56799pt"
   viewBox="0 0 377.23315 335.56799"
   version="1.1"
   id="svg344"
   sodipodi:docname="model_TTB_WADD.gv.svg"
   inkscape:version="0.92.5 (2060ec1f9f, 2020-04-08)">
  <metadata
     id="metadata350">
    <rdf:RDF>
      <cc:Work
         rdf:about="">
        <dc:format>image/svg+xml</dc:format>
        <dc:type
           rdf:resource="http://purl.org/dc/dcmitype/StillImage" />
        <dc:title></dc:title>
      </cc:Work>
    </rdf:RDF>
  </metadata>
  <defs
     id="defs348" />
  <sodipodi:namedview
     pagecolor="#ffffff"
     bordercolor="#666666"
     borderopacity="1"
     objecttolerance="10"
     gridtolerance="10"
     guidetolerance="10"
     inkscape:pageopacity="0"
     inkscape:pageshadow="2"
     inkscape:window-width="1848"
     inkscape:window-height="1016"
     id="namedview346"
     showgrid="false"
     inkscape:zoom="0.8802521"
     inkscape:cx="420.51485"
     inkscape:cy="168.4965"
     inkscape:window-x="72"
     inkscape:window-y="27"
     inkscape:window-maximized="1"
     inkscape:current-layer="svg344" />
  <text
     style="font-size:14px;font-family:Times, serif;text-anchor:middle"
     id="text220"
     font-size="14.00"
     y="9.2679996"
     x="127">TTB</text>
  <path
     d="m 12.5,335.06799 c 0,0 191,0 191,0 6,0 12,-6 12,-12 0,0 0,-250.000002 0,-250.000002 0,-6 -6,-12 -12,-12 0,0 -191,0 -191,0 -6,0 -12,6 -12,12 0,0 0,250.000002 0,250.000002 0,6 6,12 12,12"
     id="path224"
     inkscape:connector-curvature="0"
     style="fill:none;stroke:#000000" />
  <text
     x="59"
     y="76.267998"
     font-size="14.00"
     id="text226"
     style="font-size:14px;font-family:Times, serif;text-anchor:middle">$q questions$</text>
  <path
     d="m 68.5,325.06799 c 0,0 79,0 79,0 6,0 12,-6 12,-12 0,0 0,-207 0,-207 0,-6 -6,-12.000002 -12,-12.000002 0,0 -79,0 -79,0 -6,0 -12,6.000002 -12,12.000002 0,0 0,207 0,207 0,6 6,12 12,12"
     id="path231"
     inkscape:connector-curvature="0"
     style="fill:none;stroke:#000000" />
  <text
     x="108"
     y="109.26798"
     font-size="14.00"
     id="text233"
     style="font-size:14px;font-family:Times, serif;text-anchor:middle">$i subjects$</text>
  <circle
     cx="127.5"
     cy="35.067989"
     id="ellipse238"
     r="18"
     style="fill:none;stroke:#000000" />
  <text
     x="127.5"
     y="38.768002"
     font-size="14.00"
     id="text240"
     style="font-size:14px;font-family:Times, serif;text-anchor:middle">$phi$</text>
  <polygon
     points="117,-180 153,-180 153,-216 117,-216 "
     id="polygon245"
     style="fill:none;stroke:#000000"
     transform="translate(-7.5,343.06799)" />
  <text
     x="127.5"
     y="148.76799"
     font-size="14.00"
     id="text247"
     style="font-size:14px;font-family:Times, serif;text-anchor:middle">$z_i$</text>
  <path
     d="m 127.5,53.417988 c 0,17.09 0,43.43 0,63.330002"
     id="path252"
     inkscape:connector-curvature="0"
     style="fill:none;stroke:#000000" />
  <polygon
     points="131.5,-226.31 138.5,-226.31 135,-216.31 "
     id="polygon254"
     style="fill:#000000;stroke:#000000"
     transform="translate(-7.5,343.06799)" />
  <polygon
     points="117,-104 153,-104 153,-140 117,-140 "
     id="polygon259"
     style="fill:none;stroke:#000000"
     transform="translate(-7.5,343.06799)" />
  <polygon
     points="113,-100 157,-100 157,-144 113,-144 "
     id="polygon261"
     style="fill:none;stroke:#000000"
     transform="translate(-7.5,343.06799)" />
  <text
     x="127.5"
     y="224.76799"
     font-size="14.00"
     id="text263"
     style="font-size:14px;font-family:Times, serif;text-anchor:middle">$t_{iq}$</text>
  <path
     d="m 127.5,163.22799 c 0,7.68 0,16.96 0,25.79"
     id="path268"
     inkscape:connector-curvature="0"
     style="fill:none;stroke:#000000" />
  <polygon
     points="131.5,-154.03 138.5,-154.03 135,-144.03 "
     id="polygon270"
     style="fill:#000000;stroke:#000000"
     transform="translate(-7.5,343.06799)" />
  <polygon
     points="119,-28 155,-28 155,-64 119,-64 "
     id="polygon275"
     style="fill:#808080;stroke:#000000"
     transform="translate(-7.5,343.06799)" />
  <text
     x="129.5"
     y="300.76801"
     font-size="14.00"
     id="text277"
     style="font-size:14px;font-family:Times, serif;text-anchor:middle">$y_{iq}$</text>
  <path
     d="m 128.07,243.07799 c 0.21,7.93 0.46,17.08 0.69,25.51"
     id="path282"
     inkscape:connector-curvature="0"
     style="fill:none;stroke:#000000" />
  <polygon
     points="132.76,-74.22 139.76,-74.41 136.53,-64.31 "
     id="polygon284"
     style="fill:#000000;stroke:#000000"
     transform="translate(-7.5,343.06799)" />
  <polygon
     points="233,-180 269,-180 269,-216 233,-216 "
     id="polygon289"
     style="fill:#808080;stroke:#000000"
     transform="translate(-7.5,343.06799)" />
  <text
     x="243.5"
     y="148.76799"
     font-size="14.00"
     id="text291"
     style="font-size:14px;font-family:Times, serif;text-anchor:middle">$s$</text>
  <path
     d="m 225.5,158.99799 c -2.01,1.39 -4.04,2.77 -6,4.07 -20,13.26 -42.95,27.48 -60.92,38.4"
     id="path296"
     inkscape:connector-curvature="0"
     style="fill:none;stroke:#000000" />
  <polygon
     points="163.92,-144.38 167.54,-138.4 157.18,-136.21 "
     id="polygon298"
     style="fill:#000000;stroke:#000000"
     transform="translate(-7.5,343.06799)" />
  <polygon
     points="177,-180 213,-180 213,-216 177,-216 "
     id="polygon303"
     style="fill:#808080;stroke:#000000"
     transform="translate(-7.5,343.06799)" />
  <text
     x="187.5"
     y="148.76799"
     font-size="14.00"
     id="text305"
     style="font-size:14px;font-family:Times, serif;text-anchor:middle">$a_q$</text>
  <path
     d="m 173.58,163.22799 c -6.69,8.26 -14.9,18.39 -22.53,27.79"
     id="path310"
     inkscape:connector-curvature="0"
     style="fill:none;stroke:#000000" />
  <polygon
     points="155.63,-154 161.07,-149.6 152.05,-144.03 "
     id="polygon312"
     style="fill:#000000;stroke:#000000"
     transform="translate(-7.5,343.06799)" />
  <polygon
     points="18,-180 54,-180 54,-216 18,-216 "
     id="polygon317"
     style="fill:#808080;stroke:#000000"
     transform="translate(-7.5,343.06799)" />
  <text
     x="28.5"
     y="148.76799"
     font-size="14.00"
     id="text319"
     style="font-size:14px;font-family:Times, serif;text-anchor:middle">$b_q$</text>
  <path
     d="m 46.66,159.63799 c 14.07,10.52 33.88,25.33 50.37,37.65"
     id="path324"
     inkscape:connector-curvature="0"
     style="fill:none;stroke:#000000" />
  <polygon
     points="102.69,-142.78 106.88,-148.39 112.8,-139.6 "
     id="polygon326"
     style="fill:#000000;stroke:#000000"
     transform="translate(-7.5,343.06799)" />
  <circle
     cx="243.5"
     cy="221.06799"
     id="ellipse331"
     r="18"
     style="fill:none;stroke:#000000" />
  <text
     x="243.5"
     y="224.76799"
     font-size="14.00"
     id="text333"
     style="font-size:14px;font-family:Times, serif;text-anchor:middle">$gamma$</text>
  <path
     d="m 228.6,231.73799 c -18.33,11.9 -49.78,32.32 -72.34,46.96"
     id="path338"
     inkscape:connector-curvature="0"
     style="fill:none;stroke:#000000" />
  <polygon
     points="161.78,-67.26 165.59,-61.39 155.3,-58.88 "
     id="polygon340"
     style="fill:#000000;stroke:#000000"
     transform="translate(-7.5,343.06799)" />
  <text
     xml:space="preserve"
     style="font-size:15.50150871px;line-height:1.25;font-family:sans-serif;letter-spacing:0px;word-spacing:0px;stroke-width:0.58130664"
     x="283.96713"
     y="85.776939"
     id="text202"><tspan
       sodipodi:role="line"
       x="283.96713"
       y="85.776939"
       style="stroke-width:0.58130664"
       id="tspan816">$\phi \sim Uniform(0,1)$</tspan><tspan
       sodipodi:role="line"
       x="283.96713"
       y="105.15382"
       style="stroke-width:0.58130664"
       id="tspan822">$z_i \sim Bernoulli (\phi)$</tspan><tspan
       sodipodi:role="line"
       x="283.96713"
       y="124.53071"
       style="stroke-width:0.58130664"
       id="tspan956">$t_{iq} = \begin{cases}</tspan><tspan
       sodipodi:role="line"
       x="283.96713"
       y="143.90759"
       style="stroke-width:0.58130664"
       id="tspan958">\text{TTB}_s\,(a_q,b_q) &amp; \text{if $z_i = 1$} \\</tspan><tspan
       sodipodi:role="line"
       x="283.96713"
       y="163.28448"
       style="stroke-width:0.58130664"
       id="tspan960">\text{WADD}\,(\mathbf a_q,\mathbf b_q) &amp; \text{if $z_i = 0$} \\</tspan><tspan
       sodipodi:role="line"
       x="283.96713"
       y="182.66136"
       style="stroke-width:0.58130664"
       id="tspan962">\end{cases}$</tspan><tspan
       sodipodi:role="line"
       x="283.96713"
       y="202.03825"
       style="stroke-width:0.58130664"
       id="tspan204">$\gamma \sim Uniform(0.5,1)$</tspan><tspan
       sodipodi:role="line"
       x="283.96713"
       y="221.41515"
       style="stroke-width:0.58130664"
       id="tspan206">$ y_{iq} \sim</tspan><tspan
       sodipodi:role="line"
       x="283.96713"
       y="240.79202"
       style="stroke-width:0.58130664"
       id="tspan208">\begin{cases}</tspan><tspan
       sodipodi:role="line"
       x="283.96713"
       y="260.16891"
       style="stroke-width:0.58130664"
       id="tspan210">\text{Bernoulli}(\gamma) &amp; \text{if $t_q = a$} \\</tspan><tspan
       sodipodi:role="line"
       x="283.96713"
       y="279.54581"
       style="stroke-width:0.58130664"
       id="tspan212">\text{Bernoulli}(1- \gamma) &amp; \text{if $t_q = b$} \\</tspan><tspan
       sodipodi:role="line"
       x="283.96713"
       y="298.9227"
       style="stroke-width:0.58130664"
       id="tspan214">\text{Bernoulli}(0.5) &amp; \text{otherwise}</tspan><tspan
       sodipodi:role="line"
       x="283.96713"
       y="318.29956"
       style="stroke-width:0.58130664"
       id="tspan216">\end{cases}  $</tspan></text>
  <flowRoot
     xml:space="preserve"
     id="flowRoot966"
     style="font-size:26.66666603px;line-height:1.25;font-family:sans-serif;letter-spacing:0px;word-spacing:0px"
     transform="matrix(0.74999999,0,0,0.74999999,-11.5,-9.9320122)"><flowRegion
       id="flowRegion968"><rect
         id="rect970"
         width="747.87256"
         height="502.866"
         x="-110.85545"
         y="-16.423086" /></flowRegion><flowPara
       id="flowPara972"></flowPara></flowRoot></svg>
