<?xml version="1.0" encoding="utf-8" standalone="no"?>
<!DOCTYPE svg PUBLIC "-//W3C//DTD SVG 1.1//EN"
  "http://www.w3.org/Graphics/SVG/1.1/DTD/svg11.dtd">
<!-- Created with matplotlib (https://matplotlib.org/) -->
<svg height="360pt" version="1.1" viewBox="0 0 360 360" width="360pt" xmlns="http://www.w3.org/2000/svg" xmlns:xlink="http://www.w3.org/1999/xlink">
 <metadata>
  <rdf:RDF xmlns:cc="http://creativecommons.org/ns#" xmlns:dc="http://purl.org/dc/elements/1.1/" xmlns:rdf="http://www.w3.org/1999/02/22-rdf-syntax-ns#">
   <cc:Work>
    <dc:type rdf:resource="http://purl.org/dc/dcmitype/StillImage"/>
    <dc:date>2021-04-17T18:17:48.372423</dc:date>
    <dc:format>image/svg+xml</dc:format>
    <dc:creator>
     <cc:Agent>
      <dc:title>Matplotlib v3.3.2, https://matplotlib.org/</dc:title>
     </cc:Agent>
    </dc:creator>
   </cc:Work>
  </rdf:RDF>
 </metadata>
 <defs>
  <style type="text/css">*{stroke-linecap:butt;stroke-linejoin:round;}</style>
 </defs>
 <g id="figure_1">
  <g id="patch_1">
   <path d="M 0 360 
L 360 360 
L 360 0 
L 0 0 
z
" style="fill:none;"/>
  </g>
  <g id="axes_1">
   <g id="patch_2">
    <path d="M 45 315 
L 324 315 
L 324 43.2 
L 45 43.2 
z
" style="fill:#ffffff;"/>
   </g>
   <g id="matplotlib.axis_1">
    <g id="xtick_1">
     <g id="line2d_1">
      <defs>
       <path d="M 0 0 
L 0 3.5 
" id="m055d4ccc62" style="stroke:#000000;stroke-width:0.8;"/>
      </defs>
      <g>
       <use style="stroke:#000000;stroke-width:0.8;" x="57.681818" xlink:href="#m055d4ccc62" y="315"/>
      </g>
     </g>
     <g id="text_1">
      <!-- 0.00 -->
      <g transform="translate(46.549006 329.598437)scale(0.1 -0.1)">
       <defs>
        <path d="M 31.78125 66.40625 
Q 24.171875 66.40625 20.328125 58.90625 
Q 16.5 51.421875 16.5 36.375 
Q 16.5 21.390625 20.328125 13.890625 
Q 24.171875 6.390625 31.78125 6.390625 
Q 39.453125 6.390625 43.28125 13.890625 
Q 47.125 21.390625 47.125 36.375 
Q 47.125 51.421875 43.28125 58.90625 
Q 39.453125 66.40625 31.78125 66.40625 
z
M 31.78125 74.21875 
Q 44.046875 74.21875 50.515625 64.515625 
Q 56.984375 54.828125 56.984375 36.375 
Q 56.984375 17.96875 50.515625 8.265625 
Q 44.046875 -1.421875 31.78125 -1.421875 
Q 19.53125 -1.421875 13.0625 8.265625 
Q 6.59375 17.96875 6.59375 36.375 
Q 6.59375 54.828125 13.0625 64.515625 
Q 19.53125 74.21875 31.78125 74.21875 
z
" id="DejaVuSans-48"/>
        <path d="M 10.6875 12.40625 
L 21 12.40625 
L 21 0 
L 10.6875 0 
z
" id="DejaVuSans-46"/>
       </defs>
       <use xlink:href="#DejaVuSans-48"/>
       <use x="63.623047" xlink:href="#DejaVuSans-46"/>
       <use x="95.410156" xlink:href="#DejaVuSans-48"/>
       <use x="159.033203" xlink:href="#DejaVuSans-48"/>
      </g>
     </g>
    </g>
    <g id="xtick_2">
     <g id="line2d_2">
      <g>
       <use style="stroke:#000000;stroke-width:0.8;" x="89.386364" xlink:href="#m055d4ccc62" y="315"/>
      </g>
     </g>
     <g id="text_2">
      <!-- 0.05 -->
      <g transform="translate(78.253551 329.598437)scale(0.1 -0.1)">
       <defs>
        <path d="M 10.796875 72.90625 
L 49.515625 72.90625 
L 49.515625 64.59375 
L 19.828125 64.59375 
L 19.828125 46.734375 
Q 21.96875 47.46875 24.109375 47.828125 
Q 26.265625 48.1875 28.421875 48.1875 
Q 40.625 48.1875 47.75 41.5 
Q 54.890625 34.8125 54.890625 23.390625 
Q 54.890625 11.625 47.5625 5.09375 
Q 40.234375 -1.421875 26.90625 -1.421875 
Q 22.3125 -1.421875 17.546875 -0.640625 
Q 12.796875 0.140625 7.71875 1.703125 
L 7.71875 11.625 
Q 12.109375 9.234375 16.796875 8.0625 
Q 21.484375 6.890625 26.703125 6.890625 
Q 35.15625 6.890625 40.078125 11.328125 
Q 45.015625 15.765625 45.015625 23.390625 
Q 45.015625 31 40.078125 35.4375 
Q 35.15625 39.890625 26.703125 39.890625 
Q 22.75 39.890625 18.8125 39.015625 
Q 14.890625 38.140625 10.796875 36.28125 
z
" id="DejaVuSans-53"/>
       </defs>
       <use xlink:href="#DejaVuSans-48"/>
       <use x="63.623047" xlink:href="#DejaVuSans-46"/>
       <use x="95.410156" xlink:href="#DejaVuSans-48"/>
       <use x="159.033203" xlink:href="#DejaVuSans-53"/>
      </g>
     </g>
    </g>
    <g id="xtick_3">
     <g id="line2d_3">
      <g>
       <use style="stroke:#000000;stroke-width:0.8;" x="121.090909" xlink:href="#m055d4ccc62" y="315"/>
      </g>
     </g>
     <g id="text_3">
      <!-- 0.10 -->
      <g transform="translate(109.958097 329.598437)scale(0.1 -0.1)">
       <defs>
        <path d="M 12.40625 8.296875 
L 28.515625 8.296875 
L 28.515625 63.921875 
L 10.984375 60.40625 
L 10.984375 69.390625 
L 28.421875 72.90625 
L 38.28125 72.90625 
L 38.28125 8.296875 
L 54.390625 8.296875 
L 54.390625 0 
L 12.40625 0 
z
" id="DejaVuSans-49"/>
       </defs>
       <use xlink:href="#DejaVuSans-48"/>
       <use x="63.623047" xlink:href="#DejaVuSans-46"/>
       <use x="95.410156" xlink:href="#DejaVuSans-49"/>
       <use x="159.033203" xlink:href="#DejaVuSans-48"/>
      </g>
     </g>
    </g>
    <g id="xtick_4">
     <g id="line2d_4">
      <g>
       <use style="stroke:#000000;stroke-width:0.8;" x="152.795455" xlink:href="#m055d4ccc62" y="315"/>
      </g>
     </g>
     <g id="text_4">
      <!-- 0.15 -->
      <g transform="translate(141.662642 329.598437)scale(0.1 -0.1)">
       <use xlink:href="#DejaVuSans-48"/>
       <use x="63.623047" xlink:href="#DejaVuSans-46"/>
       <use x="95.410156" xlink:href="#DejaVuSans-49"/>
       <use x="159.033203" xlink:href="#DejaVuSans-53"/>
      </g>
     </g>
    </g>
    <g id="xtick_5">
     <g id="line2d_5">
      <g>
       <use style="stroke:#000000;stroke-width:0.8;" x="184.5" xlink:href="#m055d4ccc62" y="315"/>
      </g>
     </g>
     <g id="text_5">
      <!-- 0.20 -->
      <g transform="translate(173.367188 329.598437)scale(0.1 -0.1)">
       <defs>
        <path d="M 19.1875 8.296875 
L 53.609375 8.296875 
L 53.609375 0 
L 7.328125 0 
L 7.328125 8.296875 
Q 12.9375 14.109375 22.625 23.890625 
Q 32.328125 33.6875 34.8125 36.53125 
Q 39.546875 41.84375 41.421875 45.53125 
Q 43.3125 49.21875 43.3125 52.78125 
Q 43.3125 58.59375 39.234375 62.25 
Q 35.15625 65.921875 28.609375 65.921875 
Q 23.96875 65.921875 18.8125 64.3125 
Q 13.671875 62.703125 7.8125 59.421875 
L 7.8125 69.390625 
Q 13.765625 71.78125 18.9375 73 
Q 24.125 74.21875 28.421875 74.21875 
Q 39.75 74.21875 46.484375 68.546875 
Q 53.21875 62.890625 53.21875 53.421875 
Q 53.21875 48.921875 51.53125 44.890625 
Q 49.859375 40.875 45.40625 35.40625 
Q 44.1875 33.984375 37.640625 27.21875 
Q 31.109375 20.453125 19.1875 8.296875 
z
" id="DejaVuSans-50"/>
       </defs>
       <use xlink:href="#DejaVuSans-48"/>
       <use x="63.623047" xlink:href="#DejaVuSans-46"/>
       <use x="95.410156" xlink:href="#DejaVuSans-50"/>
       <use x="159.033203" xlink:href="#DejaVuSans-48"/>
      </g>
     </g>
    </g>
    <g id="xtick_6">
     <g id="line2d_6">
      <g>
       <use style="stroke:#000000;stroke-width:0.8;" x="216.204545" xlink:href="#m055d4ccc62" y="315"/>
      </g>
     </g>
     <g id="text_6">
      <!-- 0.25 -->
      <g transform="translate(205.071733 329.598437)scale(0.1 -0.1)">
       <use xlink:href="#DejaVuSans-48"/>
       <use x="63.623047" xlink:href="#DejaVuSans-46"/>
       <use x="95.410156" xlink:href="#DejaVuSans-50"/>
       <use x="159.033203" xlink:href="#DejaVuSans-53"/>
      </g>
     </g>
    </g>
    <g id="xtick_7">
     <g id="line2d_7">
      <g>
       <use style="stroke:#000000;stroke-width:0.8;" x="247.909091" xlink:href="#m055d4ccc62" y="315"/>
      </g>
     </g>
     <g id="text_7">
      <!-- 0.30 -->
      <g transform="translate(236.776278 329.598437)scale(0.1 -0.1)">
       <defs>
        <path d="M 40.578125 39.3125 
Q 47.65625 37.796875 51.625 33 
Q 55.609375 28.21875 55.609375 21.1875 
Q 55.609375 10.40625 48.1875 4.484375 
Q 40.765625 -1.421875 27.09375 -1.421875 
Q 22.515625 -1.421875 17.65625 -0.515625 
Q 12.796875 0.390625 7.625 2.203125 
L 7.625 11.71875 
Q 11.71875 9.328125 16.59375 8.109375 
Q 21.484375 6.890625 26.8125 6.890625 
Q 36.078125 6.890625 40.9375 10.546875 
Q 45.796875 14.203125 45.796875 21.1875 
Q 45.796875 27.640625 41.28125 31.265625 
Q 36.765625 34.90625 28.71875 34.90625 
L 20.21875 34.90625 
L 20.21875 43.015625 
L 29.109375 43.015625 
Q 36.375 43.015625 40.234375 45.921875 
Q 44.09375 48.828125 44.09375 54.296875 
Q 44.09375 59.90625 40.109375 62.90625 
Q 36.140625 65.921875 28.71875 65.921875 
Q 24.65625 65.921875 20.015625 65.03125 
Q 15.375 64.15625 9.8125 62.3125 
L 9.8125 71.09375 
Q 15.4375 72.65625 20.34375 73.4375 
Q 25.25 74.21875 29.59375 74.21875 
Q 40.828125 74.21875 47.359375 69.109375 
Q 53.90625 64.015625 53.90625 55.328125 
Q 53.90625 49.265625 50.4375 45.09375 
Q 46.96875 40.921875 40.578125 39.3125 
z
" id="DejaVuSans-51"/>
       </defs>
       <use xlink:href="#DejaVuSans-48"/>
       <use x="63.623047" xlink:href="#DejaVuSans-46"/>
       <use x="95.410156" xlink:href="#DejaVuSans-51"/>
       <use x="159.033203" xlink:href="#DejaVuSans-48"/>
      </g>
     </g>
    </g>
    <g id="xtick_8">
     <g id="line2d_8">
      <g>
       <use style="stroke:#000000;stroke-width:0.8;" x="279.613636" xlink:href="#m055d4ccc62" y="315"/>
      </g>
     </g>
     <g id="text_8">
      <!-- 0.35 -->
      <g transform="translate(268.480824 329.598437)scale(0.1 -0.1)">
       <use xlink:href="#DejaVuSans-48"/>
       <use x="63.623047" xlink:href="#DejaVuSans-46"/>
       <use x="95.410156" xlink:href="#DejaVuSans-51"/>
       <use x="159.033203" xlink:href="#DejaVuSans-53"/>
      </g>
     </g>
    </g>
    <g id="xtick_9">
     <g id="line2d_9">
      <g>
       <use style="stroke:#000000;stroke-width:0.8;" x="311.318182" xlink:href="#m055d4ccc62" y="315"/>
      </g>
     </g>
     <g id="text_9">
      <!-- 0.40 -->
      <g transform="translate(300.185369 329.598437)scale(0.1 -0.1)">
       <defs>
        <path d="M 37.796875 64.3125 
L 12.890625 25.390625 
L 37.796875 25.390625 
z
M 35.203125 72.90625 
L 47.609375 72.90625 
L 47.609375 25.390625 
L 58.015625 25.390625 
L 58.015625 17.1875 
L 47.609375 17.1875 
L 47.609375 0 
L 37.796875 0 
L 37.796875 17.1875 
L 4.890625 17.1875 
L 4.890625 26.703125 
z
" id="DejaVuSans-52"/>
       </defs>
       <use xlink:href="#DejaVuSans-48"/>
       <use x="63.623047" xlink:href="#DejaVuSans-46"/>
       <use x="95.410156" xlink:href="#DejaVuSans-52"/>
       <use x="159.033203" xlink:href="#DejaVuSans-48"/>
      </g>
     </g>
    </g>
    <g id="text_10">
     <!-- Ratio observado, y(i) / N(i) -->
     <g transform="translate(85.541016 347.075781)scale(0.15 -0.15)">
      <defs>
       <path d="M 44.390625 34.1875 
Q 47.5625 33.109375 50.5625 29.59375 
Q 53.5625 26.078125 56.59375 19.921875 
L 66.609375 0 
L 56 0 
L 46.6875 18.703125 
Q 43.0625 26.03125 39.671875 28.421875 
Q 36.28125 30.8125 30.421875 30.8125 
L 19.671875 30.8125 
L 19.671875 0 
L 9.8125 0 
L 9.8125 72.90625 
L 32.078125 72.90625 
Q 44.578125 72.90625 50.734375 67.671875 
Q 56.890625 62.453125 56.890625 51.90625 
Q 56.890625 45.015625 53.6875 40.46875 
Q 50.484375 35.9375 44.390625 34.1875 
z
M 19.671875 64.796875 
L 19.671875 38.921875 
L 32.078125 38.921875 
Q 39.203125 38.921875 42.84375 42.21875 
Q 46.484375 45.515625 46.484375 51.90625 
Q 46.484375 58.296875 42.84375 61.546875 
Q 39.203125 64.796875 32.078125 64.796875 
z
" id="DejaVuSans-82"/>
       <path d="M 34.28125 27.484375 
Q 23.390625 27.484375 19.1875 25 
Q 14.984375 22.515625 14.984375 16.5 
Q 14.984375 11.71875 18.140625 8.90625 
Q 21.296875 6.109375 26.703125 6.109375 
Q 34.1875 6.109375 38.703125 11.40625 
Q 43.21875 16.703125 43.21875 25.484375 
L 43.21875 27.484375 
z
M 52.203125 31.203125 
L 52.203125 0 
L 43.21875 0 
L 43.21875 8.296875 
Q 40.140625 3.328125 35.546875 0.953125 
Q 30.953125 -1.421875 24.3125 -1.421875 
Q 15.921875 -1.421875 10.953125 3.296875 
Q 6 8.015625 6 15.921875 
Q 6 25.140625 12.171875 29.828125 
Q 18.359375 34.515625 30.609375 34.515625 
L 43.21875 34.515625 
L 43.21875 35.40625 
Q 43.21875 41.609375 39.140625 45 
Q 35.0625 48.390625 27.6875 48.390625 
Q 23 48.390625 18.546875 47.265625 
Q 14.109375 46.140625 10.015625 43.890625 
L 10.015625 52.203125 
Q 14.9375 54.109375 19.578125 55.046875 
Q 24.21875 56 28.609375 56 
Q 40.484375 56 46.34375 49.84375 
Q 52.203125 43.703125 52.203125 31.203125 
z
" id="DejaVuSans-97"/>
       <path d="M 18.3125 70.21875 
L 18.3125 54.6875 
L 36.8125 54.6875 
L 36.8125 47.703125 
L 18.3125 47.703125 
L 18.3125 18.015625 
Q 18.3125 11.328125 20.140625 9.421875 
Q 21.96875 7.515625 27.59375 7.515625 
L 36.8125 7.515625 
L 36.8125 0 
L 27.59375 0 
Q 17.1875 0 13.234375 3.875 
Q 9.28125 7.765625 9.28125 18.015625 
L 9.28125 47.703125 
L 2.6875 47.703125 
L 2.6875 54.6875 
L 9.28125 54.6875 
L 9.28125 70.21875 
z
" id="DejaVuSans-116"/>
       <path d="M 9.421875 54.6875 
L 18.40625 54.6875 
L 18.40625 0 
L 9.421875 0 
z
M 9.421875 75.984375 
L 18.40625 75.984375 
L 18.40625 64.59375 
L 9.421875 64.59375 
z
" id="DejaVuSans-105"/>
       <path d="M 30.609375 48.390625 
Q 23.390625 48.390625 19.1875 42.75 
Q 14.984375 37.109375 14.984375 27.296875 
Q 14.984375 17.484375 19.15625 11.84375 
Q 23.34375 6.203125 30.609375 6.203125 
Q 37.796875 6.203125 41.984375 11.859375 
Q 46.1875 17.53125 46.1875 27.296875 
Q 46.1875 37.015625 41.984375 42.703125 
Q 37.796875 48.390625 30.609375 48.390625 
z
M 30.609375 56 
Q 42.328125 56 49.015625 48.375 
Q 55.71875 40.765625 55.71875 27.296875 
Q 55.71875 13.875 49.015625 6.21875 
Q 42.328125 -1.421875 30.609375 -1.421875 
Q 18.84375 -1.421875 12.171875 6.21875 
Q 5.515625 13.875 5.515625 27.296875 
Q 5.515625 40.765625 12.171875 48.375 
Q 18.84375 56 30.609375 56 
z
" id="DejaVuSans-111"/>
       <path id="DejaVuSans-32"/>
       <path d="M 48.6875 27.296875 
Q 48.6875 37.203125 44.609375 42.84375 
Q 40.53125 48.484375 33.40625 48.484375 
Q 26.265625 48.484375 22.1875 42.84375 
Q 18.109375 37.203125 18.109375 27.296875 
Q 18.109375 17.390625 22.1875 11.75 
Q 26.265625 6.109375 33.40625 6.109375 
Q 40.53125 6.109375 44.609375 11.75 
Q 48.6875 17.390625 48.6875 27.296875 
z
M 18.109375 46.390625 
Q 20.953125 51.265625 25.265625 53.625 
Q 29.59375 56 35.59375 56 
Q 45.5625 56 51.78125 48.09375 
Q 58.015625 40.1875 58.015625 27.296875 
Q 58.015625 14.40625 51.78125 6.484375 
Q 45.5625 -1.421875 35.59375 -1.421875 
Q 29.59375 -1.421875 25.265625 0.953125 
Q 20.953125 3.328125 18.109375 8.203125 
L 18.109375 0 
L 9.078125 0 
L 9.078125 75.984375 
L 18.109375 75.984375 
z
" id="DejaVuSans-98"/>
       <path d="M 44.28125 53.078125 
L 44.28125 44.578125 
Q 40.484375 46.53125 36.375 47.5 
Q 32.28125 48.484375 27.875 48.484375 
Q 21.1875 48.484375 17.84375 46.4375 
Q 14.5 44.390625 14.5 40.28125 
Q 14.5 37.15625 16.890625 35.375 
Q 19.28125 33.59375 26.515625 31.984375 
L 29.59375 31.296875 
Q 39.15625 29.25 43.1875 25.515625 
Q 47.21875 21.78125 47.21875 15.09375 
Q 47.21875 7.46875 41.1875 3.015625 
Q 35.15625 -1.421875 24.609375 -1.421875 
Q 20.21875 -1.421875 15.453125 -0.5625 
Q 10.6875 0.296875 5.421875 2 
L 5.421875 11.28125 
Q 10.40625 8.6875 15.234375 7.390625 
Q 20.0625 6.109375 24.8125 6.109375 
Q 31.15625 6.109375 34.5625 8.28125 
Q 37.984375 10.453125 37.984375 14.40625 
Q 37.984375 18.0625 35.515625 20.015625 
Q 33.0625 21.96875 24.703125 23.78125 
L 21.578125 24.515625 
Q 13.234375 26.265625 9.515625 29.90625 
Q 5.8125 33.546875 5.8125 39.890625 
Q 5.8125 47.609375 11.28125 51.796875 
Q 16.75 56 26.8125 56 
Q 31.78125 56 36.171875 55.265625 
Q 40.578125 54.546875 44.28125 53.078125 
z
" id="DejaVuSans-115"/>
       <path d="M 56.203125 29.59375 
L 56.203125 25.203125 
L 14.890625 25.203125 
Q 15.484375 15.921875 20.484375 11.0625 
Q 25.484375 6.203125 34.421875 6.203125 
Q 39.59375 6.203125 44.453125 7.46875 
Q 49.3125 8.734375 54.109375 11.28125 
L 54.109375 2.78125 
Q 49.265625 0.734375 44.1875 -0.34375 
Q 39.109375 -1.421875 33.890625 -1.421875 
Q 20.796875 -1.421875 13.15625 6.1875 
Q 5.515625 13.8125 5.515625 26.8125 
Q 5.515625 40.234375 12.765625 48.109375 
Q 20.015625 56 32.328125 56 
Q 43.359375 56 49.78125 48.890625 
Q 56.203125 41.796875 56.203125 29.59375 
z
M 47.21875 32.234375 
Q 47.125 39.59375 43.09375 43.984375 
Q 39.0625 48.390625 32.421875 48.390625 
Q 24.90625 48.390625 20.390625 44.140625 
Q 15.875 39.890625 15.1875 32.171875 
z
" id="DejaVuSans-101"/>
       <path d="M 41.109375 46.296875 
Q 39.59375 47.171875 37.8125 47.578125 
Q 36.03125 48 33.890625 48 
Q 26.265625 48 22.1875 43.046875 
Q 18.109375 38.09375 18.109375 28.8125 
L 18.109375 0 
L 9.078125 0 
L 9.078125 54.6875 
L 18.109375 54.6875 
L 18.109375 46.1875 
Q 20.953125 51.171875 25.484375 53.578125 
Q 30.03125 56 36.53125 56 
Q 37.453125 56 38.578125 55.875 
Q 39.703125 55.765625 41.0625 55.515625 
z
" id="DejaVuSans-114"/>
       <path d="M 2.984375 54.6875 
L 12.5 54.6875 
L 29.59375 8.796875 
L 46.6875 54.6875 
L 56.203125 54.6875 
L 35.6875 0 
L 23.484375 0 
z
" id="DejaVuSans-118"/>
       <path d="M 45.40625 46.390625 
L 45.40625 75.984375 
L 54.390625 75.984375 
L 54.390625 0 
L 45.40625 0 
L 45.40625 8.203125 
Q 42.578125 3.328125 38.25 0.953125 
Q 33.9375 -1.421875 27.875 -1.421875 
Q 17.96875 -1.421875 11.734375 6.484375 
Q 5.515625 14.40625 5.515625 27.296875 
Q 5.515625 40.1875 11.734375 48.09375 
Q 17.96875 56 27.875 56 
Q 33.9375 56 38.25 53.625 
Q 42.578125 51.265625 45.40625 46.390625 
z
M 14.796875 27.296875 
Q 14.796875 17.390625 18.875 11.75 
Q 22.953125 6.109375 30.078125 6.109375 
Q 37.203125 6.109375 41.296875 11.75 
Q 45.40625 17.390625 45.40625 27.296875 
Q 45.40625 37.203125 41.296875 42.84375 
Q 37.203125 48.484375 30.078125 48.484375 
Q 22.953125 48.484375 18.875 42.84375 
Q 14.796875 37.203125 14.796875 27.296875 
z
" id="DejaVuSans-100"/>
       <path d="M 11.71875 12.40625 
L 22.015625 12.40625 
L 22.015625 4 
L 14.015625 -11.625 
L 7.71875 -11.625 
L 11.71875 4 
z
" id="DejaVuSans-44"/>
       <path d="M 32.171875 -5.078125 
Q 28.375 -14.84375 24.75 -17.8125 
Q 21.140625 -20.796875 15.09375 -20.796875 
L 7.90625 -20.796875 
L 7.90625 -13.28125 
L 13.1875 -13.28125 
Q 16.890625 -13.28125 18.9375 -11.515625 
Q 21 -9.765625 23.484375 -3.21875 
L 25.09375 0.875 
L 2.984375 54.6875 
L 12.5 54.6875 
L 29.59375 11.921875 
L 46.6875 54.6875 
L 56.203125 54.6875 
z
" id="DejaVuSans-121"/>
       <path d="M 31 75.875 
Q 24.46875 64.65625 21.28125 53.65625 
Q 18.109375 42.671875 18.109375 31.390625 
Q 18.109375 20.125 21.3125 9.0625 
Q 24.515625 -2 31 -13.1875 
L 23.1875 -13.1875 
Q 15.875 -1.703125 12.234375 9.375 
Q 8.59375 20.453125 8.59375 31.390625 
Q 8.59375 42.28125 12.203125 53.3125 
Q 15.828125 64.359375 23.1875 75.875 
z
" id="DejaVuSans-40"/>
       <path d="M 8.015625 75.875 
L 15.828125 75.875 
Q 23.140625 64.359375 26.78125 53.3125 
Q 30.421875 42.28125 30.421875 31.390625 
Q 30.421875 20.453125 26.78125 9.375 
Q 23.140625 -1.703125 15.828125 -13.1875 
L 8.015625 -13.1875 
Q 14.5 -2 17.703125 9.0625 
Q 20.90625 20.125 20.90625 31.390625 
Q 20.90625 42.671875 17.703125 53.65625 
Q 14.5 64.65625 8.015625 75.875 
z
" id="DejaVuSans-41"/>
       <path d="M 25.390625 72.90625 
L 33.6875 72.90625 
L 8.296875 -9.28125 
L 0 -9.28125 
z
" id="DejaVuSans-47"/>
       <path d="M 9.8125 72.90625 
L 23.09375 72.90625 
L 55.421875 11.921875 
L 55.421875 72.90625 
L 64.984375 72.90625 
L 64.984375 0 
L 51.703125 0 
L 19.390625 60.984375 
L 19.390625 0 
L 9.8125 0 
z
" id="DejaVuSans-78"/>
      </defs>
      <use xlink:href="#DejaVuSans-82"/>
      <use x="67.232422" xlink:href="#DejaVuSans-97"/>
      <use x="128.511719" xlink:href="#DejaVuSans-116"/>
      <use x="167.720703" xlink:href="#DejaVuSans-105"/>
      <use x="195.503906" xlink:href="#DejaVuSans-111"/>
      <use x="256.685547" xlink:href="#DejaVuSans-32"/>
      <use x="288.472656" xlink:href="#DejaVuSans-111"/>
      <use x="349.654297" xlink:href="#DejaVuSans-98"/>
      <use x="413.130859" xlink:href="#DejaVuSans-115"/>
      <use x="465.230469" xlink:href="#DejaVuSans-101"/>
      <use x="526.753906" xlink:href="#DejaVuSans-114"/>
      <use x="567.867188" xlink:href="#DejaVuSans-118"/>
      <use x="627.046875" xlink:href="#DejaVuSans-97"/>
      <use x="688.326172" xlink:href="#DejaVuSans-100"/>
      <use x="751.802734" xlink:href="#DejaVuSans-111"/>
      <use x="812.984375" xlink:href="#DejaVuSans-44"/>
      <use x="844.771484" xlink:href="#DejaVuSans-32"/>
      <use x="876.558594" xlink:href="#DejaVuSans-121"/>
      <use x="935.738281" xlink:href="#DejaVuSans-40"/>
      <use x="974.751953" xlink:href="#DejaVuSans-105"/>
      <use x="1002.535156" xlink:href="#DejaVuSans-41"/>
      <use x="1041.548828" xlink:href="#DejaVuSans-32"/>
      <use x="1073.335938" xlink:href="#DejaVuSans-47"/>
      <use x="1107.027344" xlink:href="#DejaVuSans-32"/>
      <use x="1138.814453" xlink:href="#DejaVuSans-78"/>
      <use x="1213.619141" xlink:href="#DejaVuSans-40"/>
      <use x="1252.632812" xlink:href="#DejaVuSans-105"/>
      <use x="1280.416016" xlink:href="#DejaVuSans-41"/>
     </g>
    </g>
   </g>
   <g id="matplotlib.axis_2">
    <g id="ytick_1">
     <g id="line2d_10">
      <defs>
       <path d="M 0 0 
L -3.5 0 
" id="mbaf0fc26ee" style="stroke:#000000;stroke-width:0.8;"/>
      </defs>
      <g>
       <use style="stroke:#000000;stroke-width:0.8;" x="45" xlink:href="#mbaf0fc26ee" y="302.645455"/>
      </g>
     </g>
     <g id="text_11">
      <!-- 0.0 -->
      <g transform="translate(22.096875 306.444673)scale(0.1 -0.1)">
       <use xlink:href="#DejaVuSans-48"/>
       <use x="63.623047" xlink:href="#DejaVuSans-46"/>
       <use x="95.410156" xlink:href="#DejaVuSans-48"/>
      </g>
     </g>
    </g>
    <g id="ytick_2">
     <g id="line2d_11">
      <g>
       <use style="stroke:#000000;stroke-width:0.8;" x="45" xlink:href="#mbaf0fc26ee" y="267.713974"/>
      </g>
     </g>
     <g id="text_12">
      <!-- 0.1 -->
      <g transform="translate(22.096875 271.513192)scale(0.1 -0.1)">
       <use xlink:href="#DejaVuSans-48"/>
       <use x="63.623047" xlink:href="#DejaVuSans-46"/>
       <use x="95.410156" xlink:href="#DejaVuSans-49"/>
      </g>
     </g>
    </g>
    <g id="ytick_3">
     <g id="line2d_12">
      <g>
       <use style="stroke:#000000;stroke-width:0.8;" x="45" xlink:href="#mbaf0fc26ee" y="232.782493"/>
      </g>
     </g>
     <g id="text_13">
      <!-- 0.2 -->
      <g transform="translate(22.096875 236.581712)scale(0.1 -0.1)">
       <use xlink:href="#DejaVuSans-48"/>
       <use x="63.623047" xlink:href="#DejaVuSans-46"/>
       <use x="95.410156" xlink:href="#DejaVuSans-50"/>
      </g>
     </g>
    </g>
    <g id="ytick_4">
     <g id="line2d_13">
      <g>
       <use style="stroke:#000000;stroke-width:0.8;" x="45" xlink:href="#mbaf0fc26ee" y="197.851012"/>
      </g>
     </g>
     <g id="text_14">
      <!-- 0.3 -->
      <g transform="translate(22.096875 201.650231)scale(0.1 -0.1)">
       <use xlink:href="#DejaVuSans-48"/>
       <use x="63.623047" xlink:href="#DejaVuSans-46"/>
       <use x="95.410156" xlink:href="#DejaVuSans-51"/>
      </g>
     </g>
    </g>
    <g id="ytick_5">
     <g id="line2d_14">
      <g>
       <use style="stroke:#000000;stroke-width:0.8;" x="45" xlink:href="#mbaf0fc26ee" y="162.919531"/>
      </g>
     </g>
     <g id="text_15">
      <!-- 0.4 -->
      <g transform="translate(22.096875 166.71875)scale(0.1 -0.1)">
       <use xlink:href="#DejaVuSans-48"/>
       <use x="63.623047" xlink:href="#DejaVuSans-46"/>
       <use x="95.410156" xlink:href="#DejaVuSans-52"/>
      </g>
     </g>
    </g>
    <g id="ytick_6">
     <g id="line2d_15">
      <g>
       <use style="stroke:#000000;stroke-width:0.8;" x="45" xlink:href="#mbaf0fc26ee" y="127.98805"/>
      </g>
     </g>
     <g id="text_16">
      <!-- 0.5 -->
      <g transform="translate(22.096875 131.787269)scale(0.1 -0.1)">
       <use xlink:href="#DejaVuSans-48"/>
       <use x="63.623047" xlink:href="#DejaVuSans-46"/>
       <use x="95.410156" xlink:href="#DejaVuSans-53"/>
      </g>
     </g>
    </g>
    <g id="ytick_7">
     <g id="line2d_16">
      <g>
       <use style="stroke:#000000;stroke-width:0.8;" x="45" xlink:href="#mbaf0fc26ee" y="93.056569"/>
      </g>
     </g>
     <g id="text_17">
      <!-- 0.6 -->
      <g transform="translate(22.096875 96.855788)scale(0.1 -0.1)">
       <defs>
        <path d="M 33.015625 40.375 
Q 26.375 40.375 22.484375 35.828125 
Q 18.609375 31.296875 18.609375 23.390625 
Q 18.609375 15.53125 22.484375 10.953125 
Q 26.375 6.390625 33.015625 6.390625 
Q 39.65625 6.390625 43.53125 10.953125 
Q 47.40625 15.53125 47.40625 23.390625 
Q 47.40625 31.296875 43.53125 35.828125 
Q 39.65625 40.375 33.015625 40.375 
z
M 52.59375 71.296875 
L 52.59375 62.3125 
Q 48.875 64.0625 45.09375 64.984375 
Q 41.3125 65.921875 37.59375 65.921875 
Q 27.828125 65.921875 22.671875 59.328125 
Q 17.53125 52.734375 16.796875 39.40625 
Q 19.671875 43.65625 24.015625 45.921875 
Q 28.375 48.1875 33.59375 48.1875 
Q 44.578125 48.1875 50.953125 41.515625 
Q 57.328125 34.859375 57.328125 23.390625 
Q 57.328125 12.15625 50.6875 5.359375 
Q 44.046875 -1.421875 33.015625 -1.421875 
Q 20.359375 -1.421875 13.671875 8.265625 
Q 6.984375 17.96875 6.984375 36.375 
Q 6.984375 53.65625 15.1875 63.9375 
Q 23.390625 74.21875 37.203125 74.21875 
Q 40.921875 74.21875 44.703125 73.484375 
Q 48.484375 72.75 52.59375 71.296875 
z
" id="DejaVuSans-54"/>
       </defs>
       <use xlink:href="#DejaVuSans-48"/>
       <use x="63.623047" xlink:href="#DejaVuSans-46"/>
       <use x="95.410156" xlink:href="#DejaVuSans-54"/>
      </g>
     </g>
    </g>
    <g id="ytick_8">
     <g id="line2d_17">
      <g>
       <use style="stroke:#000000;stroke-width:0.8;" x="45" xlink:href="#mbaf0fc26ee" y="58.125088"/>
      </g>
     </g>
     <g id="text_18">
      <!-- 0.7 -->
      <g transform="translate(22.096875 61.924307)scale(0.1 -0.1)">
       <defs>
        <path d="M 8.203125 72.90625 
L 55.078125 72.90625 
L 55.078125 68.703125 
L 28.609375 0 
L 18.3125 0 
L 43.21875 64.59375 
L 8.203125 64.59375 
z
" id="DejaVuSans-55"/>
       </defs>
       <use xlink:href="#DejaVuSans-48"/>
       <use x="63.623047" xlink:href="#DejaVuSans-46"/>
       <use x="95.410156" xlink:href="#DejaVuSans-55"/>
      </g>
     </g>
    </g>
    <g id="text_19">
     <!-- 95% HDI de $\theta_i$ -->
     <g transform="translate(14.977344 232.2)rotate(-90)scale(0.15 -0.15)">
      <defs>
       <path d="M 10.984375 1.515625 
L 10.984375 10.5 
Q 14.703125 8.734375 18.5 7.8125 
Q 22.3125 6.890625 25.984375 6.890625 
Q 35.75 6.890625 40.890625 13.453125 
Q 46.046875 20.015625 46.78125 33.40625 
Q 43.953125 29.203125 39.59375 26.953125 
Q 35.25 24.703125 29.984375 24.703125 
Q 19.046875 24.703125 12.671875 31.3125 
Q 6.296875 37.9375 6.296875 49.421875 
Q 6.296875 60.640625 12.9375 67.421875 
Q 19.578125 74.21875 30.609375 74.21875 
Q 43.265625 74.21875 49.921875 64.515625 
Q 56.59375 54.828125 56.59375 36.375 
Q 56.59375 19.140625 48.40625 8.859375 
Q 40.234375 -1.421875 26.421875 -1.421875 
Q 22.703125 -1.421875 18.890625 -0.6875 
Q 15.09375 0.046875 10.984375 1.515625 
z
M 30.609375 32.421875 
Q 37.25 32.421875 41.125 36.953125 
Q 45.015625 41.5 45.015625 49.421875 
Q 45.015625 57.28125 41.125 61.84375 
Q 37.25 66.40625 30.609375 66.40625 
Q 23.96875 66.40625 20.09375 61.84375 
Q 16.21875 57.28125 16.21875 49.421875 
Q 16.21875 41.5 20.09375 36.953125 
Q 23.96875 32.421875 30.609375 32.421875 
z
" id="DejaVuSans-57"/>
       <path d="M 72.703125 32.078125 
Q 68.453125 32.078125 66.03125 28.46875 
Q 63.625 24.859375 63.625 18.40625 
Q 63.625 12.0625 66.03125 8.421875 
Q 68.453125 4.78125 72.703125 4.78125 
Q 76.859375 4.78125 79.265625 8.421875 
Q 81.6875 12.0625 81.6875 18.40625 
Q 81.6875 24.8125 79.265625 28.4375 
Q 76.859375 32.078125 72.703125 32.078125 
z
M 72.703125 38.28125 
Q 80.421875 38.28125 84.953125 32.90625 
Q 89.5 27.546875 89.5 18.40625 
Q 89.5 9.28125 84.9375 3.921875 
Q 80.375 -1.421875 72.703125 -1.421875 
Q 64.890625 -1.421875 60.34375 3.921875 
Q 55.8125 9.28125 55.8125 18.40625 
Q 55.8125 27.59375 60.375 32.9375 
Q 64.9375 38.28125 72.703125 38.28125 
z
M 22.3125 68.015625 
Q 18.109375 68.015625 15.6875 64.375 
Q 13.28125 60.75 13.28125 54.390625 
Q 13.28125 47.953125 15.671875 44.328125 
Q 18.0625 40.71875 22.3125 40.71875 
Q 26.5625 40.71875 28.96875 44.328125 
Q 31.390625 47.953125 31.390625 54.390625 
Q 31.390625 60.6875 28.953125 64.34375 
Q 26.515625 68.015625 22.3125 68.015625 
z
M 66.40625 74.21875 
L 74.21875 74.21875 
L 28.609375 -1.421875 
L 20.796875 -1.421875 
z
M 22.3125 74.21875 
Q 30.03125 74.21875 34.609375 68.875 
Q 39.203125 63.53125 39.203125 54.390625 
Q 39.203125 45.171875 34.640625 39.84375 
Q 30.078125 34.515625 22.3125 34.515625 
Q 14.546875 34.515625 10.03125 39.859375 
Q 5.515625 45.21875 5.515625 54.390625 
Q 5.515625 63.484375 10.046875 68.84375 
Q 14.59375 74.21875 22.3125 74.21875 
z
" id="DejaVuSans-37"/>
       <path d="M 9.8125 72.90625 
L 19.671875 72.90625 
L 19.671875 43.015625 
L 55.515625 43.015625 
L 55.515625 72.90625 
L 65.375 72.90625 
L 65.375 0 
L 55.515625 0 
L 55.515625 34.71875 
L 19.671875 34.71875 
L 19.671875 0 
L 9.8125 0 
z
" id="DejaVuSans-72"/>
       <path d="M 19.671875 64.796875 
L 19.671875 8.109375 
L 31.59375 8.109375 
Q 46.6875 8.109375 53.6875 14.9375 
Q 60.6875 21.78125 60.6875 36.53125 
Q 60.6875 51.171875 53.6875 57.984375 
Q 46.6875 64.796875 31.59375 64.796875 
z
M 9.8125 72.90625 
L 30.078125 72.90625 
Q 51.265625 72.90625 61.171875 64.09375 
Q 71.09375 55.28125 71.09375 36.53125 
Q 71.09375 17.671875 61.125 8.828125 
Q 51.171875 0 30.078125 0 
L 9.8125 0 
z
" id="DejaVuSans-68"/>
       <path d="M 9.8125 72.90625 
L 19.671875 72.90625 
L 19.671875 0 
L 9.8125 0 
z
" id="DejaVuSans-73"/>
       <path d="M 45.515625 34.671875 
L 14.453125 34.671875 
Q 12.359375 20.0625 14.5 13.875 
Q 17.1875 6.25 24.46875 6.25 
Q 31.78125 6.25 37.359375 13.921875 
Q 42.234375 20.65625 45.515625 34.671875 
z
M 47.015625 42.96875 
Q 48.34375 56.84375 46.625 61.71875 
Q 43.953125 69.4375 36.765625 69.4375 
Q 29.296875 69.4375 23.828125 61.8125 
Q 19.53125 55.671875 16.15625 42.96875 
z
M 38.1875 76.765625 
Q 49.90625 76.765625 54.59375 66.40625 
Q 59.28125 56.109375 55.71875 37.84375 
Q 52.203125 19.625 43.453125 9.28125 
Q 34.765625 -1.125 23.046875 -1.125 
Q 11.28125 -1.125 6.640625 9.28125 
Q 2 19.625 5.515625 37.84375 
Q 9.078125 56.109375 17.71875 66.40625 
Q 26.421875 76.765625 38.1875 76.765625 
z
" id="DejaVuSans-Oblique-952"/>
       <path d="M 18.3125 75.984375 
L 27.296875 75.984375 
L 25.09375 64.59375 
L 16.109375 64.59375 
z
M 14.203125 54.6875 
L 23.1875 54.6875 
L 12.5 0 
L 3.515625 0 
z
" id="DejaVuSans-Oblique-105"/>
      </defs>
      <use transform="translate(0 0.234375)" xlink:href="#DejaVuSans-57"/>
      <use transform="translate(63.623047 0.234375)" xlink:href="#DejaVuSans-53"/>
      <use transform="translate(127.246094 0.234375)" xlink:href="#DejaVuSans-37"/>
      <use transform="translate(222.265625 0.234375)" xlink:href="#DejaVuSans-32"/>
      <use transform="translate(254.052734 0.234375)" xlink:href="#DejaVuSans-72"/>
      <use transform="translate(329.248047 0.234375)" xlink:href="#DejaVuSans-68"/>
      <use transform="translate(406.25 0.234375)" xlink:href="#DejaVuSans-73"/>
      <use transform="translate(435.742188 0.234375)" xlink:href="#DejaVuSans-32"/>
      <use transform="translate(467.529297 0.234375)" xlink:href="#DejaVuSans-100"/>
      <use transform="translate(531.005859 0.234375)" xlink:href="#DejaVuSans-101"/>
      <use transform="translate(592.529297 0.234375)" xlink:href="#DejaVuSans-32"/>
      <use transform="translate(624.316406 0.234375)" xlink:href="#DejaVuSans-Oblique-952"/>
      <use transform="translate(685.498047 -16.171875)scale(0.7)" xlink:href="#DejaVuSans-Oblique-105"/>
     </g>
    </g>
   </g>
   <g id="LineCollection_1">
    <path clip-path="url(#p227df2136c)" d="M 57.681818 283.429978 
L 57.681818 233.093045 
" style="fill:none;stroke:#808080;stroke-width:1.5;"/>
    <path clip-path="url(#p227df2136c)" d="M 57.681818 283.434392 
L 57.681818 233.44859 
" style="fill:none;stroke:#808080;stroke-width:1.5;"/>
    <path clip-path="url(#p227df2136c)" d="M 57.681818 283.78288 
L 57.681818 232.513169 
" style="fill:none;stroke:#808080;stroke-width:1.5;"/>
    <path clip-path="url(#p227df2136c)" d="M 57.681818 283.375198 
L 57.681818 232.849774 
" style="fill:none;stroke:#808080;stroke-width:1.5;"/>
    <path clip-path="url(#p227df2136c)" d="M 57.681818 283.279013 
L 57.681818 233.006747 
" style="fill:none;stroke:#808080;stroke-width:1.5;"/>
    <path clip-path="url(#p227df2136c)" d="M 57.681818 283.225002 
L 57.681818 232.800835 
" style="fill:none;stroke:#808080;stroke-width:1.5;"/>
    <path clip-path="url(#p227df2136c)" d="M 57.681818 283.808392 
L 57.681818 232.871755 
" style="fill:none;stroke:#808080;stroke-width:1.5;"/>
    <path clip-path="url(#p227df2136c)" d="M 57.681818 283.142424 
L 57.681818 230.476501 
" style="fill:none;stroke:#808080;stroke-width:1.5;"/>
    <path clip-path="url(#p227df2136c)" d="M 57.681818 283.025799 
L 57.681818 231.559678 
" style="fill:none;stroke:#808080;stroke-width:1.5;"/>
    <path clip-path="url(#p227df2136c)" d="M 57.681818 282.982243 
L 57.681818 230.718724 
" style="fill:none;stroke:#808080;stroke-width:1.5;"/>
    <path clip-path="url(#p227df2136c)" d="M 57.681818 282.503784 
L 57.681818 230.75081 
" style="fill:none;stroke:#808080;stroke-width:1.5;"/>
    <path clip-path="url(#p227df2136c)" d="M 57.681818 282.259907 
L 57.681818 229.424891 
" style="fill:none;stroke:#808080;stroke-width:1.5;"/>
    <path clip-path="url(#p227df2136c)" d="M 57.681818 281.966723 
L 57.681818 229.513665 
" style="fill:none;stroke:#808080;stroke-width:1.5;"/>
    <path clip-path="url(#p227df2136c)" d="M 57.681818 281.560882 
L 57.681818 226.953383 
" style="fill:none;stroke:#808080;stroke-width:1.5;"/>
    <path clip-path="url(#p227df2136c)" d="M 89.386364 276.51232 
L 89.386364 208.755065 
" style="fill:none;stroke:#808080;stroke-width:1.5;"/>
    <path clip-path="url(#p227df2136c)" d="M 89.386364 276.821386 
L 89.386364 208.228644 
" style="fill:none;stroke:#808080;stroke-width:1.5;"/>
    <path clip-path="url(#p227df2136c)" d="M 89.386364 277.656816 
L 89.386364 208.73117 
" style="fill:none;stroke:#808080;stroke-width:1.5;"/>
    <path clip-path="url(#p227df2136c)" d="M 89.386364 277.746943 
L 89.386364 207.899162 
" style="fill:none;stroke:#808080;stroke-width:1.5;"/>
    <path clip-path="url(#p227df2136c)" d="M 91.055024 275.779682 
L 91.055024 205.82859 
" style="fill:none;stroke:#808080;stroke-width:1.5;"/>
    <path clip-path="url(#p227df2136c)" d="M 91.055024 276.634355 
L 91.055024 205.127583 
" style="fill:none;stroke:#808080;stroke-width:1.5;"/>
    <path clip-path="url(#p227df2136c)" d="M 92.909091 275.28788 
L 92.909091 203.17841 
" style="fill:none;stroke:#808080;stroke-width:1.5;"/>
    <path clip-path="url(#p227df2136c)" d="M 92.909091 275.535977 
L 92.909091 202.744238 
" style="fill:none;stroke:#808080;stroke-width:1.5;"/>
    <path clip-path="url(#p227df2136c)" d="M 128.136364 273.249102 
L 128.136364 184.531489 
" style="fill:none;stroke:#808080;stroke-width:1.5;"/>
    <path clip-path="url(#p227df2136c)" d="M 108.409091 276.216252 
L 108.409091 200.637002 
" style="fill:none;stroke:#808080;stroke-width:1.5;"/>
    <path clip-path="url(#p227df2136c)" d="M 110.522727 276.141764 
L 110.522727 196.037139 
" style="fill:none;stroke:#808080;stroke-width:1.5;"/>
    <path clip-path="url(#p227df2136c)" d="M 112.820158 274.309615 
L 112.820158 193.820776 
" style="fill:none;stroke:#808080;stroke-width:1.5;"/>
    <path clip-path="url(#p227df2136c)" d="M 121.090909 272.64032 
L 121.090909 184.124167 
" style="fill:none;stroke:#808080;stroke-width:1.5;"/>
    <path clip-path="url(#p227df2136c)" d="M 121.090909 272.155053 
L 121.090909 184.668887 
" style="fill:none;stroke:#808080;stroke-width:1.5;"/>
    <path clip-path="url(#p227df2136c)" d="M 121.090909 272.606413 
L 121.090909 184.463848 
" style="fill:none;stroke:#808080;stroke-width:1.5;"/>
    <path clip-path="url(#p227df2136c)" d="M 121.090909 272.689769 
L 121.090909 184.827652 
" style="fill:none;stroke:#808080;stroke-width:1.5;"/>
    <path clip-path="url(#p227df2136c)" d="M 121.090909 272.044253 
L 121.090909 185.214802 
" style="fill:none;stroke:#808080;stroke-width:1.5;"/>
    <path clip-path="url(#p227df2136c)" d="M 121.090909 272.481146 
L 121.090909 183.943187 
" style="fill:none;stroke:#808080;stroke-width:1.5;"/>
    <path clip-path="url(#p227df2136c)" d="M 121.090909 268.477899 
L 121.090909 173.092452 
" style="fill:none;stroke:#808080;stroke-width:1.5;"/>
    <path clip-path="url(#p227df2136c)" d="M 122.384972 280.445148 
L 122.384972 197.634494 
" style="fill:none;stroke:#808080;stroke-width:1.5;"/>
    <path clip-path="url(#p227df2136c)" d="M 124.42823 271.349003 
L 124.42823 180.478885 
" style="fill:none;stroke:#808080;stroke-width:1.5;"/>
    <path clip-path="url(#p227df2136c)" d="M 126.604743 278.651199 
L 126.604743 193.348834 
" style="fill:none;stroke:#808080;stroke-width:1.5;"/>
    <path clip-path="url(#p227df2136c)" d="M 132.280749 270.531257 
L 132.280749 173.855796 
" style="fill:none;stroke:#808080;stroke-width:1.5;"/>
    <path clip-path="url(#p227df2136c)" d="M 148.266234 276.992739 
L 148.266234 172.844023 
" style="fill:none;stroke:#808080;stroke-width:1.5;"/>
    <path clip-path="url(#p227df2136c)" d="M 152.12089 274.893931 
L 152.12089 170.372007 
" style="fill:none;stroke:#808080;stroke-width:1.5;"/>
    <path clip-path="url(#p227df2136c)" d="M 152.795455 268.770454 
L 152.795455 161.689488 
" style="fill:none;stroke:#808080;stroke-width:1.5;"/>
    <path clip-path="url(#p227df2136c)" d="M 152.795455 269.573592 
L 152.795455 160.625354 
" style="fill:none;stroke:#808080;stroke-width:1.5;"/>
    <path clip-path="url(#p227df2136c)" d="M 155.234266 265.749708 
L 155.234266 157.244173 
" style="fill:none;stroke:#808080;stroke-width:1.5;"/>
    <path clip-path="url(#p227df2136c)" d="M 176.573864 272.491774 
L 176.573864 147.802589 
" style="fill:none;stroke:#808080;stroke-width:1.5;"/>
    <path clip-path="url(#p227df2136c)" d="M 184.5 272.197494 
L 184.5 141.53399 
" style="fill:none;stroke:#808080;stroke-width:1.5;"/>
    <path clip-path="url(#p227df2136c)" d="M 184.5 263.281413 
L 184.5 139.723695 
" style="fill:none;stroke:#808080;stroke-width:1.5;"/>
    <path clip-path="url(#p227df2136c)" d="M 184.5 265.23968 
L 184.5 138.868434 
" style="fill:none;stroke:#808080;stroke-width:1.5;"/>
    <path clip-path="url(#p227df2136c)" d="M 184.5 264.499767 
L 184.5 139.426164 
" style="fill:none;stroke:#808080;stroke-width:1.5;"/>
    <path clip-path="url(#p227df2136c)" d="M 184.5 265.431711 
L 184.5 137.348232 
" style="fill:none;stroke:#808080;stroke-width:1.5;"/>
    <path clip-path="url(#p227df2136c)" d="M 184.5 264.958101 
L 184.5 138.632586 
" style="fill:none;stroke:#808080;stroke-width:1.5;"/>
    <path clip-path="url(#p227df2136c)" d="M 184.5 263.747014 
L 184.5 138.665456 
" style="fill:none;stroke:#808080;stroke-width:1.5;"/>
    <path clip-path="url(#p227df2136c)" d="M 184.5 264.543053 
L 184.5 138.356168 
" style="fill:none;stroke:#808080;stroke-width:1.5;"/>
    <path clip-path="url(#p227df2136c)" d="M 189.784091 271.360743 
L 189.784091 136.373838 
" style="fill:none;stroke:#808080;stroke-width:1.5;"/>
    <path clip-path="url(#p227df2136c)" d="M 191.174641 265.02721 
L 191.174641 134.480997 
" style="fill:none;stroke:#808080;stroke-width:1.5;"/>
    <path clip-path="url(#p227df2136c)" d="M 191.174641 263.69154 
L 191.174641 133.404925 
" style="fill:none;stroke:#808080;stroke-width:1.5;"/>
    <path clip-path="url(#p227df2136c)" d="M 191.174641 264.646614 
L 191.174641 133.956749 
" style="fill:none;stroke:#808080;stroke-width:1.5;"/>
    <path clip-path="url(#p227df2136c)" d="M 201.793388 264.522092 
L 201.793388 125.121566 
" style="fill:none;stroke:#808080;stroke-width:1.5;"/>
    <path clip-path="url(#p227df2136c)" d="M 209.312253 269.750575 
L 209.312253 117.497129 
" style="fill:none;stroke:#808080;stroke-width:1.5;"/>
    <path clip-path="url(#p227df2136c)" d="M 212.969388 270.602942 
L 212.969388 114.154195 
" style="fill:none;stroke:#808080;stroke-width:1.5;"/>
    <path clip-path="url(#p227df2136c)" d="M 216.204545 262.551286 
L 216.204545 114.681748 
" style="fill:none;stroke:#808080;stroke-width:1.5;"/>
    <path clip-path="url(#p227df2136c)" d="M 216.204545 260.982302 
L 216.204545 117.726843 
" style="fill:none;stroke:#808080;stroke-width:1.5;"/>
    <path clip-path="url(#p227df2136c)" d="M 223.096838 261.410371 
L 223.096838 110.288108 
" style="fill:none;stroke:#808080;stroke-width:1.5;"/>
    <path clip-path="url(#p227df2136c)" d="M 224.547847 261.759791 
L 224.547847 110.927054 
" style="fill:none;stroke:#808080;stroke-width:1.5;"/>
    <path clip-path="url(#p227df2136c)" d="M 230.615702 262.079541 
L 230.615702 104.19128 
" style="fill:none;stroke:#808080;stroke-width:1.5;"/>
    <path clip-path="url(#p227df2136c)" d="M 247.909091 259.604121 
L 247.909091 93.929235 
" style="fill:none;stroke:#808080;stroke-width:1.5;"/>
    <path clip-path="url(#p227df2136c)" d="M 247.909091 259.038167 
L 247.909091 93.503517 
" style="fill:none;stroke:#808080;stroke-width:1.5;"/>
    <path clip-path="url(#p227df2136c)" d="M 247.909091 258.995239 
L 247.909091 94.021609 
" style="fill:none;stroke:#808080;stroke-width:1.5;"/>
    <path clip-path="url(#p227df2136c)" d="M 252.786713 267.34853 
L 252.786713 78.805996 
" style="fill:none;stroke:#808080;stroke-width:1.5;"/>
    <path clip-path="url(#p227df2136c)" d="M 264.450593 264.136881 
L 264.450593 69.494033 
" style="fill:none;stroke:#808080;stroke-width:1.5;"/>
    <path clip-path="url(#p227df2136c)" d="M 260.051257 265.147817 
L 260.051257 73.726362 
" style="fill:none;stroke:#808080;stroke-width:1.5;"/>
    <path clip-path="url(#p227df2136c)" d="M 295.465909 257.359777 
L 295.465909 55.554545 
" style="fill:none;stroke:#808080;stroke-width:1.5;"/>
    <path clip-path="url(#p227df2136c)" d="M 238.850649 255.550335 
L 238.850649 105.74778 
" style="fill:none;stroke:#808080;stroke-width:1.5;"/>
   </g>
   <g id="line2d_18">
    <path clip-path="url(#p227df2136c)" d="M 57.681818 302.645455 
L 85.863636 287.120352 
L 114.045455 271.595249 
L 142.227273 256.070147 
L 170.409091 240.545044 
L 198.590909 225.019941 
L 226.772727 209.494839 
L 254.954545 193.969736 
L 283.136364 178.444634 
L 311.318182 162.919531 
" style="fill:none;stroke:#000000;stroke-dasharray:5.55,2.4;stroke-dashoffset:0;stroke-width:1.5;"/>
   </g>
   <g id="line2d_19">
    <defs>
     <path d="M 0 3 
C 0.795609 3 1.55874 2.683901 2.12132 2.12132 
C 2.683901 1.55874 3 0.795609 3 0 
C 3 -0.795609 2.683901 -1.55874 2.12132 -2.12132 
C 1.55874 -2.683901 0.795609 -3 0 -3 
C -0.795609 -3 -1.55874 -2.683901 -2.12132 -2.12132 
C -2.683901 -1.55874 -3 -0.795609 -3 0 
C -3 0.795609 -2.683901 1.55874 -2.12132 2.12132 
C -1.55874 2.683901 -0.795609 3 0 3 
z
" id="mbd9ba045d0" style="stroke:#000000;"/>
    </defs>
    <g clip-path="url(#p227df2136c)">
     <use style="stroke:#000000;" x="57.681818" xlink:href="#mbd9ba045d0" y="283.198017"/>
     <use style="stroke:#000000;" x="57.681818" xlink:href="#mbd9ba045d0" y="283.194055"/>
     <use style="stroke:#000000;" x="57.681818" xlink:href="#mbd9ba045d0" y="283.28676"/>
     <use style="stroke:#000000;" x="57.681818" xlink:href="#mbd9ba045d0" y="283.003184"/>
     <use style="stroke:#000000;" x="57.681818" xlink:href="#mbd9ba045d0" y="283.009027"/>
     <use style="stroke:#000000;" x="57.681818" xlink:href="#mbd9ba045d0" y="283.097985"/>
     <use style="stroke:#000000;" x="57.681818" xlink:href="#mbd9ba045d0" y="283.401558"/>
     <use style="stroke:#000000;" x="57.681818" xlink:href="#mbd9ba045d0" y="282.620479"/>
     <use style="stroke:#000000;" x="57.681818" xlink:href="#mbd9ba045d0" y="282.839214"/>
     <use style="stroke:#000000;" x="57.681818" xlink:href="#mbd9ba045d0" y="282.588777"/>
     <use style="stroke:#000000;" x="57.681818" xlink:href="#mbd9ba045d0" y="282.420367"/>
     <use style="stroke:#000000;" x="57.681818" xlink:href="#mbd9ba045d0" y="281.949695"/>
     <use style="stroke:#000000;" x="57.681818" xlink:href="#mbd9ba045d0" y="281.80927"/>
     <use style="stroke:#000000;" x="57.681818" xlink:href="#mbd9ba045d0" y="281.300133"/>
     <use style="stroke:#000000;" x="89.386364" xlink:href="#mbd9ba045d0" y="273.026364"/>
     <use style="stroke:#000000;" x="89.386364" xlink:href="#mbd9ba045d0" y="273.270089"/>
     <use style="stroke:#000000;" x="89.386364" xlink:href="#mbd9ba045d0" y="273.215843"/>
     <use style="stroke:#000000;" x="89.386364" xlink:href="#mbd9ba045d0" y="272.957174"/>
     <use style="stroke:#000000;" x="91.055024" xlink:href="#mbd9ba045d0" y="272.238046"/>
     <use style="stroke:#000000;" x="91.055024" xlink:href="#mbd9ba045d0" y="272.394128"/>
     <use style="stroke:#000000;" x="92.909091" xlink:href="#mbd9ba045d0" y="271.326617"/>
     <use style="stroke:#000000;" x="92.909091" xlink:href="#mbd9ba045d0" y="271.278233"/>
     <use style="stroke:#000000;" x="128.136364" xlink:href="#mbd9ba045d0" y="261.56819"/>
     <use style="stroke:#000000;" x="108.409091" xlink:href="#mbd9ba045d0" y="268.143349"/>
     <use style="stroke:#000000;" x="110.522727" xlink:href="#mbd9ba045d0" y="267.283936"/>
     <use style="stroke:#000000;" x="112.820158" xlink:href="#mbd9ba045d0" y="266.213564"/>
     <use style="stroke:#000000;" x="121.090909" xlink:href="#mbd9ba045d0" y="263.450294"/>
     <use style="stroke:#000000;" x="121.090909" xlink:href="#mbd9ba045d0" y="263.22395"/>
     <use style="stroke:#000000;" x="121.090909" xlink:href="#mbd9ba045d0" y="263.215114"/>
     <use style="stroke:#000000;" x="121.090909" xlink:href="#mbd9ba045d0" y="263.228067"/>
     <use style="stroke:#000000;" x="121.090909" xlink:href="#mbd9ba045d0" y="263.452415"/>
     <use style="stroke:#000000;" x="121.090909" xlink:href="#mbd9ba045d0" y="263.336721"/>
     <use style="stroke:#000000;" x="121.090909" xlink:href="#mbd9ba045d0" y="261.641627"/>
     <use style="stroke:#000000;" x="122.384972" xlink:href="#mbd9ba045d0" y="264.776757"/>
     <use style="stroke:#000000;" x="124.42823" xlink:href="#mbd9ba045d0" y="262.202426"/>
     <use style="stroke:#000000;" x="126.604743" xlink:href="#mbd9ba045d0" y="262.843844"/>
     <use style="stroke:#000000;" x="132.280749" xlink:href="#mbd9ba045d0" y="259.632134"/>
     <use style="stroke:#000000;" x="148.266234" xlink:href="#mbd9ba045d0" y="254.02597"/>
     <use style="stroke:#000000;" x="152.12089" xlink:href="#mbd9ba045d0" y="252.287895"/>
     <use style="stroke:#000000;" x="152.795455" xlink:href="#mbd9ba045d0" y="253.53894"/>
     <use style="stroke:#000000;" x="152.795455" xlink:href="#mbd9ba045d0" y="253.173759"/>
     <use style="stroke:#000000;" x="155.234266" xlink:href="#mbd9ba045d0" y="253.814357"/>
     <use style="stroke:#000000;" x="176.573864" xlink:href="#mbd9ba045d0" y="242.084689"/>
     <use style="stroke:#000000;" x="184.5" xlink:href="#mbd9ba045d0" y="238.54599"/>
     <use style="stroke:#000000;" x="184.5" xlink:href="#mbd9ba045d0" y="243.864714"/>
     <use style="stroke:#000000;" x="184.5" xlink:href="#mbd9ba045d0" y="243.713178"/>
     <use style="stroke:#000000;" x="184.5" xlink:href="#mbd9ba045d0" y="243.757258"/>
     <use style="stroke:#000000;" x="184.5" xlink:href="#mbd9ba045d0" y="243.738341"/>
     <use style="stroke:#000000;" x="184.5" xlink:href="#mbd9ba045d0" y="243.577903"/>
     <use style="stroke:#000000;" x="184.5" xlink:href="#mbd9ba045d0" y="243.64393"/>
     <use style="stroke:#000000;" x="184.5" xlink:href="#mbd9ba045d0" y="243.809581"/>
     <use style="stroke:#000000;" x="189.784091" xlink:href="#mbd9ba045d0" y="236.97114"/>
     <use style="stroke:#000000;" x="191.174641" xlink:href="#mbd9ba045d0" y="242.069111"/>
     <use style="stroke:#000000;" x="191.174641" xlink:href="#mbd9ba045d0" y="241.645071"/>
     <use style="stroke:#000000;" x="191.174641" xlink:href="#mbd9ba045d0" y="242.191431"/>
     <use style="stroke:#000000;" x="201.793388" xlink:href="#mbd9ba045d0" y="237.372834"/>
     <use style="stroke:#000000;" x="209.312253" xlink:href="#mbd9ba045d0" y="228.896081"/>
     <use style="stroke:#000000;" x="212.969388" xlink:href="#mbd9ba045d0" y="227.178835"/>
     <use style="stroke:#000000;" x="216.204545" xlink:href="#mbd9ba045d0" y="233.784642"/>
     <use style="stroke:#000000;" x="216.204545" xlink:href="#mbd9ba045d0" y="233.635828"/>
     <use style="stroke:#000000;" x="223.096838" xlink:href="#mbd9ba045d0" y="230.338918"/>
     <use style="stroke:#000000;" x="224.547847" xlink:href="#mbd9ba045d0" y="231.899169"/>
     <use style="stroke:#000000;" x="230.615702" xlink:href="#mbd9ba045d0" y="228.368244"/>
     <use style="stroke:#000000;" x="247.909091" xlink:href="#mbd9ba045d0" y="224.177643"/>
     <use style="stroke:#000000;" x="247.909091" xlink:href="#mbd9ba045d0" y="224.191179"/>
     <use style="stroke:#000000;" x="247.909091" xlink:href="#mbd9ba045d0" y="224.058564"/>
     <use style="stroke:#000000;" x="252.786713" xlink:href="#mbd9ba045d0" y="209.782172"/>
     <use style="stroke:#000000;" x="264.450593" xlink:href="#mbd9ba045d0" y="206.27905"/>
     <use style="stroke:#000000;" x="260.051257" xlink:href="#mbd9ba045d0" y="207.875843"/>
     <use style="stroke:#000000;" x="295.465909" xlink:href="#mbd9ba045d0" y="205.449265"/>
     <use style="stroke:#000000;" x="238.850649" xlink:href="#mbd9ba045d0" y="231.625495"/>
    </g>
   </g>
   <g id="patch_3">
    <path d="M 45 315 
L 45 43.2 
" style="fill:none;stroke:#000000;stroke-linecap:square;stroke-linejoin:miter;stroke-width:0.8;"/>
   </g>
   <g id="patch_4">
    <path d="M 324 315 
L 324 43.2 
" style="fill:none;stroke:#000000;stroke-linecap:square;stroke-linejoin:miter;stroke-width:0.8;"/>
   </g>
   <g id="patch_5">
    <path d="M 45 315 
L 324 315 
" style="fill:none;stroke:#000000;stroke-linecap:square;stroke-linejoin:miter;stroke-width:0.8;"/>
   </g>
   <g id="patch_6">
    <path d="M 45 43.2 
L 324 43.2 
" style="fill:none;stroke:#000000;stroke-linecap:square;stroke-linejoin:miter;stroke-width:0.8;"/>
   </g>
  </g>
 </g>
 <defs>
  <clipPath id="p227df2136c">
   <rect height="271.8" width="279" x="45" y="43.2"/>
  </clipPath>
 </defs>
</svg>
