<?xml version="1.0" encoding="utf-8" standalone="no"?>
<!DOCTYPE svg PUBLIC "-//W3C//DTD SVG 1.1//EN"
  "http://www.w3.org/Graphics/SVG/1.1/DTD/svg11.dtd">
<!-- Created with matplotlib (https://matplotlib.org/) -->
<svg height="576pt" version="1.1" viewBox="0 0 576 576" width="576pt" xmlns="http://www.w3.org/2000/svg" xmlns:xlink="http://www.w3.org/1999/xlink">
 <defs>
  <style type="text/css">
*{stroke-linecap:butt;stroke-linejoin:round;}
  </style>
 </defs>
 <g id="figure_1">
  <g id="patch_1">
   <path d="M 0 576 
L 576 576 
L 576 0 
L 0 0 
z
" style="fill:#ffffff;"/>
  </g>
  <g id="axes_1">
   <g id="patch_2">
    <path d="M 21.925 258.35 
L 554.075 258.35 
L 554.075 31.8 
L 21.925 31.8 
z
" style="fill:#ffffff;"/>
   </g>
   <g id="matplotlib.axis_1">
    <g id="xtick_1">
     <g id="line2d_1">
      <defs>
       <path d="M 0 0 
L 0 3.5 
" id="m8c0fcdc96f" style="stroke:#000000;stroke-width:0.8;"/>
      </defs>
      <g>
       <use style="stroke:#000000;stroke-width:0.8;" x="21.925" xlink:href="#m8c0fcdc96f" y="258.35"/>
      </g>
     </g>
    </g>
    <g id="xtick_2">
     <g id="line2d_2">
      <g>
       <use style="stroke:#000000;stroke-width:0.8;" x="128.355" xlink:href="#m8c0fcdc96f" y="258.35"/>
      </g>
     </g>
    </g>
    <g id="xtick_3">
     <g id="line2d_3">
      <g>
       <use style="stroke:#000000;stroke-width:0.8;" x="234.785" xlink:href="#m8c0fcdc96f" y="258.35"/>
      </g>
     </g>
    </g>
    <g id="xtick_4">
     <g id="line2d_4">
      <g>
       <use style="stroke:#000000;stroke-width:0.8;" x="341.215" xlink:href="#m8c0fcdc96f" y="258.35"/>
      </g>
     </g>
    </g>
    <g id="xtick_5">
     <g id="line2d_5">
      <g>
       <use style="stroke:#000000;stroke-width:0.8;" x="447.645" xlink:href="#m8c0fcdc96f" y="258.35"/>
      </g>
     </g>
    </g>
    <g id="xtick_6">
     <g id="line2d_6">
      <g>
       <use style="stroke:#000000;stroke-width:0.8;" x="554.075" xlink:href="#m8c0fcdc96f" y="258.35"/>
      </g>
     </g>
    </g>
   </g>
   <g id="matplotlib.axis_2"/>
   <g id="line2d_7">
    <path clip-path="url(#pfd4439b973)" d="M 21.929181 42.69079 
L 23.035212 43.142927 
L 24.141243 44.47417 
L 25.247274 46.630706 
L 26.353305 49.581494 
L 27.459336 53.261546 
L 28.565367 57.56061 
L 30.777428 67.711036 
L 32.98949 79.177824 
L 38.519644 108.800976 
L 40.731706 119.744049 
L 42.943768 129.841764 
L 45.155829 139.142926 
L 47.367891 147.740197 
L 50.685984 159.584025 
L 54.004076 170.445471 
L 57.322169 180.521825 
L 60.640261 190.002212 
L 63.958354 198.941175 
L 67.276447 207.274624 
L 69.488508 212.439681 
L 71.70057 217.172744 
L 73.912632 221.468396 
L 76.124693 225.293155 
L 78.336755 228.629465 
L 80.548817 231.52859 
L 82.760879 233.999046 
L 84.97294 236.100801 
L 87.185002 237.863051 
L 89.397064 239.345297 
L 91.609125 240.618454 
L 96.033249 242.768674 
L 109.305619 248.740929 
L 113.729743 250.412245 
L 119.259897 252.194295 
L 125.896082 254.056881 
L 130.320206 255.058631 
L 134.744329 255.783915 
L 139.168452 256.283667 
L 144.698607 256.709237 
L 153.546854 257.119041 
L 174.56144 258.000796 
L 191.151903 258.20638 
L 202.212211 258.339347 
L 226.54489 258.31195 
L 242.029322 258.063131 
L 242.029322 258.063131 
" style="fill:none;stroke:#0000ff;stroke-linecap:square;stroke-width:1.5;"/>
   </g>
   <g id="line2d_8">
    <path clip-path="url(#pfd4439b973)" d="M 21.929181 260.506592 
L 21.929181 42.69079 
" style="fill:none;stroke:#0000ff;stroke-linecap:square;stroke-width:1.5;"/>
   </g>
   <g id="line2d_9">
    <path clip-path="url(#pfd4439b973)" d="M 242.029322 258.352869 
L 242.029322 258.063131 
" style="fill:none;stroke:#0000ff;stroke-linecap:square;stroke-width:1.5;"/>
   </g>
   <g id="line2d_10">
    <defs>
     <path d="M 0 3 
C 0.795609 3 1.55874 2.683901 2.12132 2.12132 
C 2.683901 1.55874 3 0.795609 3 0 
C 3 -0.795609 2.683901 -1.55874 2.12132 -2.12132 
C 1.55874 -2.683901 0.795609 -3 0 -3 
C -0.795609 -3 -1.55874 -2.683901 -2.12132 -2.12132 
C -2.683901 -1.55874 -3 -0.795609 -3 0 
C -3 0.795609 -2.683901 1.55874 -2.12132 2.12132 
C -1.55874 2.683901 -0.795609 3 0 3 
z
" id="m57bb68a0c6" style="stroke:#000000;"/>
    </defs>
    <g clip-path="url(#pfd4439b973)">
     <use style="fill:#0000ff;stroke:#000000;" x="46.888386" xlink:href="#m57bb68a0c6" y="258.35"/>
    </g>
   </g>
   <g id="line2d_11">
    <path clip-path="url(#pfd4439b973)" d="M 21.928516 49.195955 
L 23.099985 49.598079 
L 24.271455 50.788796 
L 25.442924 52.735311 
L 26.614394 55.39932 
L 27.785864 58.727414 
L 28.957333 62.633239 
L 30.128803 67.067114 
L 32.471742 77.155125 
L 34.814681 88.406796 
L 44.186438 135.197349 
L 46.529377 145.811666 
L 48.872317 155.660376 
L 51.215256 164.637609 
L 53.558195 172.741823 
L 55.901134 180.002151 
L 58.244074 186.533388 
L 60.587013 192.418932 
L 62.929952 197.749516 
L 65.272891 202.676398 
L 68.7873 209.458007 
L 72.301709 215.672453 
L 75.816118 221.396245 
L 78.159057 224.899947 
L 80.501996 228.119146 
L 82.844935 231.023223 
L 85.187875 233.587696 
L 87.530814 235.864061 
L 89.873753 237.881212 
L 93.388162 240.560529 
L 96.902571 242.945554 
L 100.41698 245.078341 
L 103.931389 246.975656 
L 107.445797 248.59802 
L 110.960206 250.005314 
L 115.646085 251.569128 
L 119.160493 252.53174 
L 123.846372 253.529613 
L 128.53225 254.252338 
L 151.961643 257.177811 
L 156.647521 257.51281 
L 163.676339 257.768021 
L 177.733974 257.970028 
L 212.878063 258.294585 
L 236.307455 258.316213 
L 255.050969 258.119554 
L 255.050969 258.119554 
" style="fill:none;stroke:#0000ff;stroke-linecap:square;stroke-width:1.5;"/>
   </g>
   <g id="line2d_12">
    <path clip-path="url(#pfd4439b973)" d="M 21.928516 260.44154 
L 21.928516 49.195955 
" style="fill:none;stroke:#0000ff;stroke-linecap:square;stroke-width:1.5;"/>
   </g>
   <g id="line2d_13">
    <path clip-path="url(#pfd4439b973)" d="M 255.050969 258.352304 
L 255.050969 258.119554 
" style="fill:none;stroke:#0000ff;stroke-linecap:square;stroke-width:1.5;"/>
   </g>
   <g id="line2d_14">
    <g clip-path="url(#pfd4439b973)">
     <use style="fill:#0000ff;stroke:#000000;" x="47.21689" xlink:href="#m57bb68a0c6" y="258.35"/>
    </g>
   </g>
   <g id="line2d_15">
    <path clip-path="url(#pfd4439b973)" d="M 22.417757 204.137936 
L 23.48479 203.852171 
L 24.551823 202.98742 
L 25.618856 201.571623 
L 26.685889 199.68311 
L 27.752922 197.357143 
L 29.886988 191.761557 
L 37.356218 170.266957 
L 39.490284 165.327909 
L 41.62435 161.333144 
L 42.691383 159.709778 
L 43.758416 158.331191 
L 44.825449 157.21988 
L 45.892481 156.333656 
L 46.959514 155.695847 
L 48.026547 155.290851 
L 49.09358 155.119054 
L 50.160613 155.153548 
L 51.227646 155.362207 
L 52.294679 155.74016 
L 53.361712 156.267006 
L 55.495778 157.728596 
L 57.629844 159.627312 
L 59.763909 161.956485 
L 61.897975 164.666417 
L 64.032041 167.748852 
L 67.23314 172.916132 
L 72.568304 181.786928 
L 74.70237 184.989076 
L 76.836436 187.847228 
L 78.970502 190.440608 
L 83.238634 195.1439 
L 87.506765 199.848967 
L 90.707864 203.617414 
L 94.975996 209.023994 
L 99.244127 214.873578 
L 104.579292 222.233345 
L 106.713358 224.894381 
L 108.847424 227.294768 
L 110.981489 229.423257 
L 114.182588 232.215931 
L 118.45072 235.545077 
L 124.852917 240.268169 
L 128.054016 242.386688 
L 131.255115 244.210301 
L 134.456214 245.6988 
L 137.657312 246.914906 
L 141.925444 248.256034 
L 153.662806 251.525795 
L 158.997971 252.893112 
L 164.333135 254.032668 
L 171.802366 255.322879 
L 179.271596 256.394182 
L 185.673794 257.114173 
L 192.075991 257.625503 
L 197.411156 257.828436 
L 227.288077 258.250402 
L 234.757308 258.196768 
L 234.757308 258.196768 
" style="fill:none;stroke:#0000ff;stroke-linecap:square;stroke-width:1.5;"/>
   </g>
   <g id="line2d_16">
    <path clip-path="url(#pfd4439b973)" d="M 22.417757 258.892121 
L 22.417757 204.137936 
" style="fill:none;stroke:#0000ff;stroke-linecap:square;stroke-width:1.5;"/>
   </g>
   <g id="line2d_17">
    <path clip-path="url(#pfd4439b973)" d="M 234.757308 258.351532 
L 234.757308 258.196768 
" style="fill:none;stroke:#0000ff;stroke-linecap:square;stroke-width:1.5;"/>
   </g>
   <g id="line2d_18">
    <g clip-path="url(#pfd4439b973)">
     <use style="fill:#0000ff;stroke:#000000;" x="69.649548" xlink:href="#m57bb68a0c6" y="258.35"/>
    </g>
   </g>
   <g id="line2d_19">
    <path clip-path="url(#pfd4439b973)" d="M 22.241115 213.291841 
L 23.354257 213.02773 
L 24.467399 212.219742 
L 25.58054 210.894771 
L 26.693682 209.10223 
L 27.806824 206.913126 
L 30.033107 201.581574 
L 32.259391 195.457806 
L 36.711958 182.940791 
L 38.938241 177.314443 
L 41.164525 172.448986 
L 42.277667 170.328322 
L 43.390808 168.447181 
L 44.50395 166.817155 
L 45.617092 165.429926 
L 46.730233 164.299334 
L 47.843375 163.416202 
L 48.956517 162.777188 
L 50.069659 162.373192 
L 51.1828 162.191873 
L 52.295942 162.208645 
L 53.409084 162.414956 
L 54.522226 162.787155 
L 55.635367 163.297801 
L 57.861651 164.684931 
L 60.087934 166.44692 
L 62.314218 168.513117 
L 65.653643 172.004504 
L 68.993068 175.89767 
L 73.445635 181.53598 
L 84.577053 196.06551 
L 89.02962 201.360421 
L 94.595329 207.58527 
L 100.161037 213.605554 
L 105.726746 219.308445 
L 110.179313 223.541426 
L 114.63188 227.4667 
L 119.084447 231.100754 
L 123.537014 234.473104 
L 127.989581 237.538252 
L 131.329006 239.540377 
L 134.668432 241.261516 
L 138.007857 242.720322 
L 145.799849 245.717921 
L 152.478699 248.448662 
L 159.15755 251.225454 
L 163.610117 252.821134 
L 166.949542 253.772127 
L 170.288967 254.500234 
L 173.628393 255.030718 
L 178.08096 255.505882 
L 184.75981 255.938091 
L 200.343795 256.797698 
L 211.475212 257.459751 
L 219.267204 257.719348 
L 231.511764 257.860713 
L 243.756323 257.962215 
L 243.756323 257.962215 
" style="fill:none;stroke:#0000ff;stroke-linecap:square;stroke-width:1.5;"/>
   </g>
   <g id="line2d_20">
    <path clip-path="url(#pfd4439b973)" d="M 22.241115 258.800582 
L 22.241115 213.291841 
" style="fill:none;stroke:#0000ff;stroke-linecap:square;stroke-width:1.5;"/>
   </g>
   <g id="line2d_21">
    <path clip-path="url(#pfd4439b973)" d="M 243.756323 258.353878 
L 243.756323 257.962215 
" style="fill:none;stroke:#0000ff;stroke-linecap:square;stroke-width:1.5;"/>
   </g>
   <g id="line2d_22">
    <g clip-path="url(#pfd4439b973)">
     <use style="fill:#0000ff;stroke:#000000;" x="74.18351" xlink:href="#m57bb68a0c6" y="258.35"/>
    </g>
   </g>
   <g id="line2d_23">
    <path clip-path="url(#pfd4439b973)" d="M 23.80586 246.412657 
L 25.016421 246.270452 
L 26.226982 245.819445 
L 27.437542 245.06519 
L 28.648103 244.031409 
L 29.858664 242.748545 
L 31.069225 241.242467 
L 33.490347 237.650531 
L 35.911469 233.510172 
L 40.753712 224.46206 
L 45.595956 215.421533 
L 50.438199 206.885895 
L 55.280443 198.817596 
L 60.122686 191.266504 
L 62.543808 187.7952 
L 64.96493 184.633745 
L 67.386052 181.861082 
L 69.807173 179.542924 
L 72.228295 177.792414 
L 73.438856 177.131245 
L 74.649417 176.634626 
L 75.859978 176.287691 
L 77.070539 176.097256 
L 78.2811 176.085193 
L 79.49166 176.231239 
L 80.702221 176.54765 
L 81.912782 177.01134 
L 83.123343 177.609031 
L 85.544465 179.19505 
L 87.965587 181.178792 
L 91.597269 184.543243 
L 102.492317 194.875815 
L 131.545779 222.153647 
L 135.177461 225.163826 
L 141.230266 229.792982 
L 149.704192 235.999872 
L 153.335874 238.379256 
L 156.967557 240.441951 
L 160.59924 242.154642 
L 165.441483 244.076017 
L 172.704849 246.667407 
L 186.021018 251.26243 
L 190.863262 252.658652 
L 195.705505 253.769203 
L 200.547749 254.629797 
L 205.389992 255.28122 
L 211.442797 255.851118 
L 221.127284 256.450409 
L 248.970184 257.954403 
L 257.444111 258.013688 
L 264.707476 257.973855 
L 264.707476 257.973855 
" style="fill:none;stroke:#0000ff;stroke-linecap:square;stroke-width:1.5;"/>
   </g>
   <g id="line2d_24">
    <path clip-path="url(#pfd4439b973)" d="M 23.80586 258.469373 
L 23.80586 246.412657 
" style="fill:none;stroke:#0000ff;stroke-linecap:square;stroke-width:1.5;"/>
   </g>
   <g id="line2d_25">
    <path clip-path="url(#pfd4439b973)" d="M 264.707476 258.353761 
L 264.707476 257.973855 
" style="fill:none;stroke:#0000ff;stroke-linecap:square;stroke-width:1.5;"/>
   </g>
   <g id="line2d_26">
    <g clip-path="url(#pfd4439b973)">
     <use style="fill:#0000ff;stroke:#000000;" x="94.926992" xlink:href="#m57bb68a0c6" y="258.35"/>
    </g>
   </g>
   <g id="line2d_27">
    <path clip-path="url(#pfd4439b973)" d="M 34.057311 248.7657 
L 34.916192 248.668244 
L 35.775074 248.38351 
L 36.633955 247.901666 
L 37.492836 247.239565 
L 38.351717 246.396649 
L 39.210598 245.39481 
L 40.928361 242.8881 
L 42.646123 239.755788 
L 44.363885 236.017907 
L 46.081648 231.712115 
L 47.79941 226.865045 
L 49.517172 221.527386 
L 52.093816 212.731904 
L 56.388222 197.048954 
L 61.541509 178.347273 
L 64.118153 169.54367 
L 66.694796 161.622432 
L 68.412558 157.080545 
L 70.130321 153.316218 
L 71.848083 150.331068 
L 73.565846 148.057693 
L 75.283608 146.367923 
L 77.00137 145.105012 
L 78.719133 144.133908 
L 80.436895 143.440483 
L 82.154657 143.056039 
L 83.87242 143.088687 
L 84.731301 143.296484 
L 85.590182 143.639384 
L 86.449063 144.142988 
L 87.307944 144.816909 
L 88.166826 145.657518 
L 89.025707 146.669014 
L 90.743469 149.222541 
L 92.461232 152.419336 
L 94.178994 156.240118 
L 96.755637 162.769613 
L 102.767806 178.860472 
L 105.344449 185.030276 
L 107.921093 190.572955 
L 111.356617 197.338556 
L 123.380954 219.70799 
L 127.67536 227.447602 
L 130.252003 231.647343 
L 131.969766 234.129144 
L 133.687528 236.313213 
L 135.405291 238.191604 
L 137.123053 239.79011 
L 139.699696 241.806833 
L 143.135221 244.159225 
L 149.147389 247.970186 
L 152.582914 249.865903 
L 156.018439 251.453106 
L 159.453964 252.764551 
L 163.748369 254.118403 
L 167.183894 255.005194 
L 170.619419 255.692902 
L 174.913825 256.31118 
L 181.784874 257.016362 
L 191.232567 257.794909 
L 195.526973 257.916681 
L 201.539141 257.783173 
L 204.974666 257.719421 
L 204.974666 257.719421 
" style="fill:none;stroke:#0000ff;stroke-linecap:square;stroke-width:1.5;"/>
   </g>
   <g id="line2d_28">
    <path clip-path="url(#pfd4439b973)" d="M 34.057311 258.445843 
L 34.057311 248.7657 
" style="fill:none;stroke:#0000ff;stroke-linecap:square;stroke-width:1.5;"/>
   </g>
   <g id="line2d_29">
    <path clip-path="url(#pfd4439b973)" d="M 204.974666 258.356306 
L 204.974666 257.719421 
" style="fill:none;stroke:#0000ff;stroke-linecap:square;stroke-width:1.5;"/>
   </g>
   <g id="line2d_30">
    <g clip-path="url(#pfd4439b973)">
     <use style="fill:#0000ff;stroke:#000000;" x="88.843801" xlink:href="#m57bb68a0c6" y="258.35"/>
    </g>
   </g>
   <g id="line2d_31">
    <path clip-path="url(#pfd4439b973)" d="M 53.994881 254.767287 
L 56.211354 254.55531 
L 58.427826 253.94056 
L 60.644299 252.94002 
L 62.860771 251.568887 
L 65.077243 249.868331 
L 67.293716 247.842552 
L 69.510188 245.502684 
L 71.726661 242.823113 
L 73.943133 239.791323 
L 76.159606 236.406826 
L 78.376078 232.678044 
L 81.700787 226.517385 
L 85.025495 219.847032 
L 90.566677 208.091511 
L 101.649039 184.242662 
L 103.865511 179.926901 
L 106.081984 175.981945 
L 108.298456 172.527763 
L 110.514929 169.617504 
L 112.731401 167.207563 
L 114.947873 165.309156 
L 117.164346 163.89841 
L 118.272582 163.376052 
L 119.380818 162.985238 
L 120.489055 162.718812 
L 121.597291 162.584426 
L 122.705527 162.613451 
L 123.813763 162.784414 
L 124.921999 163.118445 
L 126.030236 163.603788 
L 127.138472 164.254046 
L 128.246708 165.059852 
L 130.463181 167.073365 
L 132.679653 169.502561 
L 137.112598 174.892848 
L 144.870251 184.567658 
L 147.086724 187.708101 
L 149.303196 191.227813 
L 151.519669 195.118838 
L 154.844377 201.483724 
L 160.385559 212.322523 
L 162.602031 216.346783 
L 164.818503 220.043322 
L 167.034976 223.374635 
L 169.251448 226.324207 
L 171.467921 228.901214 
L 173.684393 231.194257 
L 177.009102 234.245987 
L 184.766755 240.913749 
L 189.1997 244.475425 
L 192.524409 246.86015 
L 195.849118 248.941709 
L 199.173826 250.745284 
L 202.498535 252.279642 
L 205.823244 253.513973 
L 209.147952 254.444828 
L 212.472661 255.127189 
L 216.905606 255.748623 
L 222.446787 256.265408 
L 244.611511 257.864347 
L 251.260929 258.112342 
L 261.235055 258.24824 
L 274.533889 258.197983 
L 274.533889 258.197983 
" style="fill:none;stroke:#0000ff;stroke-linecap:square;stroke-width:1.5;"/>
   </g>
   <g id="line2d_32">
    <path clip-path="url(#pfd4439b973)" d="M 53.994881 258.385827 
L 53.994881 254.767287 
" style="fill:none;stroke:#0000ff;stroke-linecap:square;stroke-width:1.5;"/>
   </g>
   <g id="line2d_33">
    <path clip-path="url(#pfd4439b973)" d="M 274.533889 258.35152 
L 274.533889 258.197983 
" style="fill:none;stroke:#0000ff;stroke-linecap:square;stroke-width:1.5;"/>
   </g>
   <g id="line2d_34">
    <g clip-path="url(#pfd4439b973)">
     <use style="fill:#0000ff;stroke:#000000;" x="128.119258" xlink:href="#m57bb68a0c6" y="258.35"/>
    </g>
   </g>
   <g id="line2d_35">
    <path clip-path="url(#pfd4439b973)" d="M 37.715109 255.010494 
L 40.793795 254.820995 
L 43.872481 254.246396 
L 46.951166 253.289843 
L 50.029852 251.943331 
L 53.108538 250.246147 
L 56.187223 248.215247 
L 59.265909 245.89539 
L 62.344595 243.336702 
L 66.962623 239.12383 
L 73.119995 233.035626 
L 83.895394 222.161967 
L 88.513423 217.831547 
L 93.131452 213.856721 
L 97.74948 210.267984 
L 102.367509 207.085207 
L 105.446194 205.189308 
L 108.52488 203.49252 
L 111.603566 202.013748 
L 114.682251 200.783501 
L 117.760937 199.842007 
L 120.839623 199.193745 
L 123.918308 198.81985 
L 126.996994 198.701455 
L 130.07568 198.782355 
L 133.154365 199.035881 
L 136.233051 199.470854 
L 139.311737 200.086528 
L 142.390422 200.93417 
L 145.469108 202.028124 
L 148.547794 203.361462 
L 153.165822 205.734033 
L 159.323194 209.243645 
L 167.019908 213.596446 
L 176.255965 218.50139 
L 183.952679 222.629469 
L 190.11005 226.133294 
L 197.806765 230.752024 
L 213.200193 240.220711 
L 217.818221 242.733343 
L 220.896907 244.22728 
L 223.975593 245.55888 
L 228.593621 247.246865 
L 233.21165 248.586847 
L 237.829678 249.674832 
L 245.526393 251.201122 
L 253.223107 252.526589 
L 260.919821 253.653234 
L 282.470621 256.474245 
L 288.627992 257.050623 
L 294.785363 257.402427 
L 304.02142 257.677796 
L 319.414849 257.926345 
L 334.808277 257.979157 
L 344.044334 257.951598 
L 344.044334 257.951598 
" style="fill:none;stroke:#0000ff;stroke-linecap:square;stroke-width:1.5;"/>
   </g>
   <g id="line2d_36">
    <path clip-path="url(#pfd4439b973)" d="M 37.715109 258.383395 
L 37.715109 255.010494 
" style="fill:none;stroke:#0000ff;stroke-linecap:square;stroke-width:1.5;"/>
   </g>
   <g id="line2d_37">
    <path clip-path="url(#pfd4439b973)" d="M 344.044334 258.353984 
L 344.044334 257.951598 
" style="fill:none;stroke:#0000ff;stroke-linecap:square;stroke-width:1.5;"/>
   </g>
   <g id="line2d_38">
    <g clip-path="url(#pfd4439b973)">
     <use style="fill:#0000ff;stroke:#000000;" x="142.436597" xlink:href="#m57bb68a0c6" y="258.35"/>
    </g>
   </g>
   <g id="line2d_39">
    <path clip-path="url(#pfd4439b973)" d="M 54.723481 257.678422 
L 59.728485 257.538532 
L 63.482237 257.223992 
L 67.23599 256.67998 
L 70.989742 255.862145 
L 74.743495 254.726983 
L 78.497248 253.256025 
L 80.999749 252.089019 
L 83.502251 250.754008 
L 86.004753 249.226118 
L 88.507255 247.462715 
L 91.009756 245.407643 
L 93.512258 243.014669 
L 96.01476 240.260017 
L 98.517262 237.150933 
L 101.019763 233.698723 
L 104.773516 227.983794 
L 109.778519 219.682996 
L 118.537276 204.862731 
L 122.291028 198.90324 
L 126.044781 193.369315 
L 129.798533 188.345881 
L 132.301035 185.312068 
L 134.803537 182.597098 
L 137.306039 180.227585 
L 139.80854 178.267561 
L 142.311042 176.766958 
L 144.813544 175.777956 
L 146.064795 175.489878 
L 147.316046 175.336519 
L 148.567297 175.321589 
L 149.818547 175.441079 
L 151.069798 175.683091 
L 153.5723 176.543085 
L 156.074802 177.791455 
L 158.577304 179.318935 
L 162.331056 181.942581 
L 166.084809 184.829809 
L 168.587311 186.932717 
L 171.089812 189.254752 
L 173.592314 191.866492 
L 176.094816 194.790524 
L 178.597317 197.985962 
L 183.602321 204.929011 
L 188.607324 211.828773 
L 192.361077 216.666627 
L 196.11483 221.181145 
L 199.868582 225.423604 
L 203.622335 229.339628 
L 206.124837 231.717429 
L 208.627338 233.898824 
L 211.12984 235.889083 
L 214.883593 238.603127 
L 221.139847 242.815424 
L 227.396102 246.755977 
L 231.149854 248.854552 
L 234.903607 250.674009 
L 238.657359 252.245016 
L 242.411112 253.598491 
L 246.164865 254.735302 
L 249.918617 255.663544 
L 253.67237 256.373192 
L 258.677373 257.028927 
L 263.682377 257.45292 
L 271.189882 257.817616 
L 282.45114 258.075611 
L 293.712398 258.126492 
L 303.722405 258.087809 
L 303.722405 258.087809 
" style="fill:none;stroke:#0000ff;stroke-linecap:square;stroke-width:1.5;"/>
   </g>
   <g id="line2d_40">
    <path clip-path="url(#pfd4439b973)" d="M 54.723481 258.356716 
L 54.723481 257.678422 
" style="fill:none;stroke:#0000ff;stroke-linecap:square;stroke-width:1.5;"/>
   </g>
   <g id="line2d_41">
    <path clip-path="url(#pfd4439b973)" d="M 303.722405 258.352622 
L 303.722405 258.087809 
" style="fill:none;stroke:#0000ff;stroke-linecap:square;stroke-width:1.5;"/>
   </g>
   <g id="line2d_42">
    <g clip-path="url(#pfd4439b973)">
     <use style="fill:#0000ff;stroke:#000000;" x="155.417213" xlink:href="#m57bb68a0c6" y="258.35"/>
    </g>
   </g>
   <g id="line2d_43">
    <path clip-path="url(#pfd4439b973)" d="M 48.759416 257.524696 
L 55.272674 257.388076 
L 60.157617 257.080394 
L 65.04256 256.560497 
L 69.927504 255.806346 
L 74.812447 254.805716 
L 79.69739 253.527975 
L 84.582334 251.921752 
L 87.838962 250.646401 
L 91.095591 249.211947 
L 95.980535 246.751463 
L 100.865478 243.957946 
L 105.750421 240.853194 
L 112.263679 236.347535 
L 122.033565 229.41972 
L 126.918509 226.269543 
L 131.803452 223.417564 
L 136.688395 220.835621 
L 143.201653 217.633694 
L 148.086596 215.373977 
L 152.97154 213.372204 
L 156.228168 212.237537 
L 159.484797 211.300383 
L 164.369741 210.220876 
L 169.254684 209.358317 
L 180.652885 207.686238 
L 183.909514 207.378108 
L 187.166143 207.222771 
L 190.422771 207.270414 
L 193.6794 207.522023 
L 196.936029 207.970518 
L 201.820972 208.961566 
L 206.705916 210.232193 
L 211.590859 211.733821 
L 216.475802 213.474687 
L 221.360746 215.513702 
L 226.245689 217.909446 
L 231.130632 220.623317 
L 237.64389 224.585126 
L 245.785462 229.562048 
L 250.670405 232.272837 
L 255.555349 234.67729 
L 260.440292 236.841841 
L 278.351751 244.257691 
L 283.236694 246.086124 
L 288.121637 247.716236 
L 293.00658 249.129138 
L 299.519838 250.750696 
L 306.033096 252.14876 
L 314.174668 253.674953 
L 322.31624 254.960662 
L 328.829498 255.78604 
L 336.97107 256.585684 
L 346.740957 257.284838 
L 354.882529 257.679909 
L 364.652415 257.917813 
L 372.793987 257.969779 
L 372.793987 257.969779 
" style="fill:none;stroke:#0000ff;stroke-linecap:square;stroke-width:1.5;"/>
   </g>
   <g id="line2d_44">
    <path clip-path="url(#pfd4439b973)" d="M 48.759416 258.358253 
L 48.759416 257.524696 
" style="fill:none;stroke:#0000ff;stroke-linecap:square;stroke-width:1.5;"/>
   </g>
   <g id="line2d_45">
    <path clip-path="url(#pfd4439b973)" d="M 372.793987 258.353802 
L 372.793987 257.969779 
" style="fill:none;stroke:#0000ff;stroke-linecap:square;stroke-width:1.5;"/>
   </g>
   <g id="line2d_46">
    <g clip-path="url(#pfd4439b973)">
     <use style="fill:#0000ff;stroke:#000000;" x="190.12418" xlink:href="#m57bb68a0c6" y="258.35"/>
    </g>
   </g>
   <g id="line2d_47"/>
   <g id="line2d_48"/>
   <g id="line2d_49"/>
   <g id="line2d_50"/>
   <g id="line2d_51"/>
   <g id="line2d_52"/>
   <g id="line2d_53"/>
   <g id="line2d_54"/>
   <g id="line2d_55"/>
   <g id="line2d_56"/>
   <g id="patch_3">
    <path d="M 21.925 258.35 
L 554.075 258.35 
" style="fill:none;stroke:#000000;stroke-linecap:square;stroke-linejoin:miter;stroke-width:0.8;"/>
   </g>
   <g id="text_1">
    <!-- Modelo separado -->
    <defs>
     <path d="M 9.8125 72.90625 
L 24.515625 72.90625 
L 43.109375 23.296875 
L 61.8125 72.90625 
L 76.515625 72.90625 
L 76.515625 0 
L 66.890625 0 
L 66.890625 64.015625 
L 48.09375 14.015625 
L 38.1875 14.015625 
L 19.390625 64.015625 
L 19.390625 0 
L 9.8125 0 
z
" id="DejaVuSans-77"/>
     <path d="M 30.609375 48.390625 
Q 23.390625 48.390625 19.1875 42.75 
Q 14.984375 37.109375 14.984375 27.296875 
Q 14.984375 17.484375 19.15625 11.84375 
Q 23.34375 6.203125 30.609375 6.203125 
Q 37.796875 6.203125 41.984375 11.859375 
Q 46.1875 17.53125 46.1875 27.296875 
Q 46.1875 37.015625 41.984375 42.703125 
Q 37.796875 48.390625 30.609375 48.390625 
z
M 30.609375 56 
Q 42.328125 56 49.015625 48.375 
Q 55.71875 40.765625 55.71875 27.296875 
Q 55.71875 13.875 49.015625 6.21875 
Q 42.328125 -1.421875 30.609375 -1.421875 
Q 18.84375 -1.421875 12.171875 6.21875 
Q 5.515625 13.875 5.515625 27.296875 
Q 5.515625 40.765625 12.171875 48.375 
Q 18.84375 56 30.609375 56 
z
" id="DejaVuSans-111"/>
     <path d="M 45.40625 46.390625 
L 45.40625 75.984375 
L 54.390625 75.984375 
L 54.390625 0 
L 45.40625 0 
L 45.40625 8.203125 
Q 42.578125 3.328125 38.25 0.953125 
Q 33.9375 -1.421875 27.875 -1.421875 
Q 17.96875 -1.421875 11.734375 6.484375 
Q 5.515625 14.40625 5.515625 27.296875 
Q 5.515625 40.1875 11.734375 48.09375 
Q 17.96875 56 27.875 56 
Q 33.9375 56 38.25 53.625 
Q 42.578125 51.265625 45.40625 46.390625 
z
M 14.796875 27.296875 
Q 14.796875 17.390625 18.875 11.75 
Q 22.953125 6.109375 30.078125 6.109375 
Q 37.203125 6.109375 41.296875 11.75 
Q 45.40625 17.390625 45.40625 27.296875 
Q 45.40625 37.203125 41.296875 42.84375 
Q 37.203125 48.484375 30.078125 48.484375 
Q 22.953125 48.484375 18.875 42.84375 
Q 14.796875 37.203125 14.796875 27.296875 
z
" id="DejaVuSans-100"/>
     <path d="M 56.203125 29.59375 
L 56.203125 25.203125 
L 14.890625 25.203125 
Q 15.484375 15.921875 20.484375 11.0625 
Q 25.484375 6.203125 34.421875 6.203125 
Q 39.59375 6.203125 44.453125 7.46875 
Q 49.3125 8.734375 54.109375 11.28125 
L 54.109375 2.78125 
Q 49.265625 0.734375 44.1875 -0.34375 
Q 39.109375 -1.421875 33.890625 -1.421875 
Q 20.796875 -1.421875 13.15625 6.1875 
Q 5.515625 13.8125 5.515625 26.8125 
Q 5.515625 40.234375 12.765625 48.109375 
Q 20.015625 56 32.328125 56 
Q 43.359375 56 49.78125 48.890625 
Q 56.203125 41.796875 56.203125 29.59375 
z
M 47.21875 32.234375 
Q 47.125 39.59375 43.09375 43.984375 
Q 39.0625 48.390625 32.421875 48.390625 
Q 24.90625 48.390625 20.390625 44.140625 
Q 15.875 39.890625 15.1875 32.171875 
z
" id="DejaVuSans-101"/>
     <path d="M 9.421875 75.984375 
L 18.40625 75.984375 
L 18.40625 0 
L 9.421875 0 
z
" id="DejaVuSans-108"/>
     <path id="DejaVuSans-32"/>
     <path d="M 44.28125 53.078125 
L 44.28125 44.578125 
Q 40.484375 46.53125 36.375 47.5 
Q 32.28125 48.484375 27.875 48.484375 
Q 21.1875 48.484375 17.84375 46.4375 
Q 14.5 44.390625 14.5 40.28125 
Q 14.5 37.15625 16.890625 35.375 
Q 19.28125 33.59375 26.515625 31.984375 
L 29.59375 31.296875 
Q 39.15625 29.25 43.1875 25.515625 
Q 47.21875 21.78125 47.21875 15.09375 
Q 47.21875 7.46875 41.1875 3.015625 
Q 35.15625 -1.421875 24.609375 -1.421875 
Q 20.21875 -1.421875 15.453125 -0.5625 
Q 10.6875 0.296875 5.421875 2 
L 5.421875 11.28125 
Q 10.40625 8.6875 15.234375 7.390625 
Q 20.0625 6.109375 24.8125 6.109375 
Q 31.15625 6.109375 34.5625 8.28125 
Q 37.984375 10.453125 37.984375 14.40625 
Q 37.984375 18.0625 35.515625 20.015625 
Q 33.0625 21.96875 24.703125 23.78125 
L 21.578125 24.515625 
Q 13.234375 26.265625 9.515625 29.90625 
Q 5.8125 33.546875 5.8125 39.890625 
Q 5.8125 47.609375 11.28125 51.796875 
Q 16.75 56 26.8125 56 
Q 31.78125 56 36.171875 55.265625 
Q 40.578125 54.546875 44.28125 53.078125 
z
" id="DejaVuSans-115"/>
     <path d="M 18.109375 8.203125 
L 18.109375 -20.796875 
L 9.078125 -20.796875 
L 9.078125 54.6875 
L 18.109375 54.6875 
L 18.109375 46.390625 
Q 20.953125 51.265625 25.265625 53.625 
Q 29.59375 56 35.59375 56 
Q 45.5625 56 51.78125 48.09375 
Q 58.015625 40.1875 58.015625 27.296875 
Q 58.015625 14.40625 51.78125 6.484375 
Q 45.5625 -1.421875 35.59375 -1.421875 
Q 29.59375 -1.421875 25.265625 0.953125 
Q 20.953125 3.328125 18.109375 8.203125 
z
M 48.6875 27.296875 
Q 48.6875 37.203125 44.609375 42.84375 
Q 40.53125 48.484375 33.40625 48.484375 
Q 26.265625 48.484375 22.1875 42.84375 
Q 18.109375 37.203125 18.109375 27.296875 
Q 18.109375 17.390625 22.1875 11.75 
Q 26.265625 6.109375 33.40625 6.109375 
Q 40.53125 6.109375 44.609375 11.75 
Q 48.6875 17.390625 48.6875 27.296875 
z
" id="DejaVuSans-112"/>
     <path d="M 34.28125 27.484375 
Q 23.390625 27.484375 19.1875 25 
Q 14.984375 22.515625 14.984375 16.5 
Q 14.984375 11.71875 18.140625 8.90625 
Q 21.296875 6.109375 26.703125 6.109375 
Q 34.1875 6.109375 38.703125 11.40625 
Q 43.21875 16.703125 43.21875 25.484375 
L 43.21875 27.484375 
z
M 52.203125 31.203125 
L 52.203125 0 
L 43.21875 0 
L 43.21875 8.296875 
Q 40.140625 3.328125 35.546875 0.953125 
Q 30.953125 -1.421875 24.3125 -1.421875 
Q 15.921875 -1.421875 10.953125 3.296875 
Q 6 8.015625 6 15.921875 
Q 6 25.140625 12.171875 29.828125 
Q 18.359375 34.515625 30.609375 34.515625 
L 43.21875 34.515625 
L 43.21875 35.40625 
Q 43.21875 41.609375 39.140625 45 
Q 35.0625 48.390625 27.6875 48.390625 
Q 23 48.390625 18.546875 47.265625 
Q 14.109375 46.140625 10.015625 43.890625 
L 10.015625 52.203125 
Q 14.9375 54.109375 19.578125 55.046875 
Q 24.21875 56 28.609375 56 
Q 40.484375 56 46.34375 49.84375 
Q 52.203125 43.703125 52.203125 31.203125 
z
" id="DejaVuSans-97"/>
     <path d="M 41.109375 46.296875 
Q 39.59375 47.171875 37.8125 47.578125 
Q 36.03125 48 33.890625 48 
Q 26.265625 48 22.1875 43.046875 
Q 18.109375 38.09375 18.109375 28.8125 
L 18.109375 0 
L 9.078125 0 
L 9.078125 54.6875 
L 18.109375 54.6875 
L 18.109375 46.1875 
Q 20.953125 51.171875 25.484375 53.578125 
Q 30.03125 56 36.53125 56 
Q 37.453125 56 38.578125 55.875 
Q 39.703125 55.765625 41.0625 55.515625 
z
" id="DejaVuSans-114"/>
    </defs>
    <g transform="translate(202.13125 25.8)scale(0.2 -0.2)">
     <use xlink:href="#DejaVuSans-77"/>
     <use x="86.279297" xlink:href="#DejaVuSans-111"/>
     <use x="147.460938" xlink:href="#DejaVuSans-100"/>
     <use x="210.9375" xlink:href="#DejaVuSans-101"/>
     <use x="272.460938" xlink:href="#DejaVuSans-108"/>
     <use x="300.244141" xlink:href="#DejaVuSans-111"/>
     <use x="361.425781" xlink:href="#DejaVuSans-32"/>
     <use x="393.212891" xlink:href="#DejaVuSans-115"/>
     <use x="445.3125" xlink:href="#DejaVuSans-101"/>
     <use x="506.835938" xlink:href="#DejaVuSans-112"/>
     <use x="570.3125" xlink:href="#DejaVuSans-97"/>
     <use x="631.591797" xlink:href="#DejaVuSans-114"/>
     <use x="672.705078" xlink:href="#DejaVuSans-97"/>
     <use x="733.984375" xlink:href="#DejaVuSans-100"/>
     <use x="797.460938" xlink:href="#DejaVuSans-111"/>
    </g>
   </g>
  </g>
  <g id="axes_2">
   <g id="patch_4">
    <path d="M 21.925 521.2 
L 554.075 521.2 
L 554.075 294.65 
L 21.925 294.65 
z
" style="fill:#ffffff;"/>
   </g>
   <g id="matplotlib.axis_3">
    <g id="xtick_7">
     <g id="line2d_57">
      <g>
       <use style="stroke:#000000;stroke-width:0.8;" x="21.925" xlink:href="#m8c0fcdc96f" y="521.2"/>
      </g>
     </g>
     <g id="text_2">
      <!-- 0.0 -->
      <defs>
       <path d="M 31.78125 66.40625 
Q 24.171875 66.40625 20.328125 58.90625 
Q 16.5 51.421875 16.5 36.375 
Q 16.5 21.390625 20.328125 13.890625 
Q 24.171875 6.390625 31.78125 6.390625 
Q 39.453125 6.390625 43.28125 13.890625 
Q 47.125 21.390625 47.125 36.375 
Q 47.125 51.421875 43.28125 58.90625 
Q 39.453125 66.40625 31.78125 66.40625 
z
M 31.78125 74.21875 
Q 44.046875 74.21875 50.515625 64.515625 
Q 56.984375 54.828125 56.984375 36.375 
Q 56.984375 17.96875 50.515625 8.265625 
Q 44.046875 -1.421875 31.78125 -1.421875 
Q 19.53125 -1.421875 13.0625 8.265625 
Q 6.59375 17.96875 6.59375 36.375 
Q 6.59375 54.828125 13.0625 64.515625 
Q 19.53125 74.21875 31.78125 74.21875 
z
" id="DejaVuSans-48"/>
       <path d="M 10.6875 12.40625 
L 21 12.40625 
L 21 0 
L 10.6875 0 
z
" id="DejaVuSans-46"/>
      </defs>
      <g transform="translate(10.792813 538.837813)scale(0.14 -0.14)">
       <use xlink:href="#DejaVuSans-48"/>
       <use x="63.623047" xlink:href="#DejaVuSans-46"/>
       <use x="95.410156" xlink:href="#DejaVuSans-48"/>
      </g>
     </g>
    </g>
    <g id="xtick_8">
     <g id="line2d_58">
      <g>
       <use style="stroke:#000000;stroke-width:0.8;" x="128.355" xlink:href="#m8c0fcdc96f" y="521.2"/>
      </g>
     </g>
     <g id="text_3">
      <!-- 0.2 -->
      <defs>
       <path d="M 19.1875 8.296875 
L 53.609375 8.296875 
L 53.609375 0 
L 7.328125 0 
L 7.328125 8.296875 
Q 12.9375 14.109375 22.625 23.890625 
Q 32.328125 33.6875 34.8125 36.53125 
Q 39.546875 41.84375 41.421875 45.53125 
Q 43.3125 49.21875 43.3125 52.78125 
Q 43.3125 58.59375 39.234375 62.25 
Q 35.15625 65.921875 28.609375 65.921875 
Q 23.96875 65.921875 18.8125 64.3125 
Q 13.671875 62.703125 7.8125 59.421875 
L 7.8125 69.390625 
Q 13.765625 71.78125 18.9375 73 
Q 24.125 74.21875 28.421875 74.21875 
Q 39.75 74.21875 46.484375 68.546875 
Q 53.21875 62.890625 53.21875 53.421875 
Q 53.21875 48.921875 51.53125 44.890625 
Q 49.859375 40.875 45.40625 35.40625 
Q 44.1875 33.984375 37.640625 27.21875 
Q 31.109375 20.453125 19.1875 8.296875 
z
" id="DejaVuSans-50"/>
      </defs>
      <g transform="translate(117.222813 538.837813)scale(0.14 -0.14)">
       <use xlink:href="#DejaVuSans-48"/>
       <use x="63.623047" xlink:href="#DejaVuSans-46"/>
       <use x="95.410156" xlink:href="#DejaVuSans-50"/>
      </g>
     </g>
    </g>
    <g id="xtick_9">
     <g id="line2d_59">
      <g>
       <use style="stroke:#000000;stroke-width:0.8;" x="234.785" xlink:href="#m8c0fcdc96f" y="521.2"/>
      </g>
     </g>
     <g id="text_4">
      <!-- 0.4 -->
      <defs>
       <path d="M 37.796875 64.3125 
L 12.890625 25.390625 
L 37.796875 25.390625 
z
M 35.203125 72.90625 
L 47.609375 72.90625 
L 47.609375 25.390625 
L 58.015625 25.390625 
L 58.015625 17.1875 
L 47.609375 17.1875 
L 47.609375 0 
L 37.796875 0 
L 37.796875 17.1875 
L 4.890625 17.1875 
L 4.890625 26.703125 
z
" id="DejaVuSans-52"/>
      </defs>
      <g transform="translate(223.652813 538.837813)scale(0.14 -0.14)">
       <use xlink:href="#DejaVuSans-48"/>
       <use x="63.623047" xlink:href="#DejaVuSans-46"/>
       <use x="95.410156" xlink:href="#DejaVuSans-52"/>
      </g>
     </g>
    </g>
    <g id="xtick_10">
     <g id="line2d_60">
      <g>
       <use style="stroke:#000000;stroke-width:0.8;" x="341.215" xlink:href="#m8c0fcdc96f" y="521.2"/>
      </g>
     </g>
     <g id="text_5">
      <!-- 0.6 -->
      <defs>
       <path d="M 33.015625 40.375 
Q 26.375 40.375 22.484375 35.828125 
Q 18.609375 31.296875 18.609375 23.390625 
Q 18.609375 15.53125 22.484375 10.953125 
Q 26.375 6.390625 33.015625 6.390625 
Q 39.65625 6.390625 43.53125 10.953125 
Q 47.40625 15.53125 47.40625 23.390625 
Q 47.40625 31.296875 43.53125 35.828125 
Q 39.65625 40.375 33.015625 40.375 
z
M 52.59375 71.296875 
L 52.59375 62.3125 
Q 48.875 64.0625 45.09375 64.984375 
Q 41.3125 65.921875 37.59375 65.921875 
Q 27.828125 65.921875 22.671875 59.328125 
Q 17.53125 52.734375 16.796875 39.40625 
Q 19.671875 43.65625 24.015625 45.921875 
Q 28.375 48.1875 33.59375 48.1875 
Q 44.578125 48.1875 50.953125 41.515625 
Q 57.328125 34.859375 57.328125 23.390625 
Q 57.328125 12.15625 50.6875 5.359375 
Q 44.046875 -1.421875 33.015625 -1.421875 
Q 20.359375 -1.421875 13.671875 8.265625 
Q 6.984375 17.96875 6.984375 36.375 
Q 6.984375 53.65625 15.1875 63.9375 
Q 23.390625 74.21875 37.203125 74.21875 
Q 40.921875 74.21875 44.703125 73.484375 
Q 48.484375 72.75 52.59375 71.296875 
z
" id="DejaVuSans-54"/>
      </defs>
      <g transform="translate(330.082813 538.837813)scale(0.14 -0.14)">
       <use xlink:href="#DejaVuSans-48"/>
       <use x="63.623047" xlink:href="#DejaVuSans-46"/>
       <use x="95.410156" xlink:href="#DejaVuSans-54"/>
      </g>
     </g>
    </g>
    <g id="xtick_11">
     <g id="line2d_61">
      <g>
       <use style="stroke:#000000;stroke-width:0.8;" x="447.645" xlink:href="#m8c0fcdc96f" y="521.2"/>
      </g>
     </g>
     <g id="text_6">
      <!-- 0.8 -->
      <defs>
       <path d="M 31.78125 34.625 
Q 24.75 34.625 20.71875 30.859375 
Q 16.703125 27.09375 16.703125 20.515625 
Q 16.703125 13.921875 20.71875 10.15625 
Q 24.75 6.390625 31.78125 6.390625 
Q 38.8125 6.390625 42.859375 10.171875 
Q 46.921875 13.96875 46.921875 20.515625 
Q 46.921875 27.09375 42.890625 30.859375 
Q 38.875 34.625 31.78125 34.625 
z
M 21.921875 38.8125 
Q 15.578125 40.375 12.03125 44.71875 
Q 8.5 49.078125 8.5 55.328125 
Q 8.5 64.0625 14.71875 69.140625 
Q 20.953125 74.21875 31.78125 74.21875 
Q 42.671875 74.21875 48.875 69.140625 
Q 55.078125 64.0625 55.078125 55.328125 
Q 55.078125 49.078125 51.53125 44.71875 
Q 48 40.375 41.703125 38.8125 
Q 48.828125 37.15625 52.796875 32.3125 
Q 56.78125 27.484375 56.78125 20.515625 
Q 56.78125 9.90625 50.3125 4.234375 
Q 43.84375 -1.421875 31.78125 -1.421875 
Q 19.734375 -1.421875 13.25 4.234375 
Q 6.78125 9.90625 6.78125 20.515625 
Q 6.78125 27.484375 10.78125 32.3125 
Q 14.796875 37.15625 21.921875 38.8125 
z
M 18.3125 54.390625 
Q 18.3125 48.734375 21.84375 45.5625 
Q 25.390625 42.390625 31.78125 42.390625 
Q 38.140625 42.390625 41.71875 45.5625 
Q 45.3125 48.734375 45.3125 54.390625 
Q 45.3125 60.0625 41.71875 63.234375 
Q 38.140625 66.40625 31.78125 66.40625 
Q 25.390625 66.40625 21.84375 63.234375 
Q 18.3125 60.0625 18.3125 54.390625 
z
" id="DejaVuSans-56"/>
      </defs>
      <g transform="translate(436.512813 538.837813)scale(0.14 -0.14)">
       <use xlink:href="#DejaVuSans-48"/>
       <use x="63.623047" xlink:href="#DejaVuSans-46"/>
       <use x="95.410156" xlink:href="#DejaVuSans-56"/>
      </g>
     </g>
    </g>
    <g id="xtick_12">
     <g id="line2d_62">
      <g>
       <use style="stroke:#000000;stroke-width:0.8;" x="554.075" xlink:href="#m8c0fcdc96f" y="521.2"/>
      </g>
     </g>
     <g id="text_7">
      <!-- 1.0 -->
      <defs>
       <path d="M 12.40625 8.296875 
L 28.515625 8.296875 
L 28.515625 63.921875 
L 10.984375 60.40625 
L 10.984375 69.390625 
L 28.421875 72.90625 
L 38.28125 72.90625 
L 38.28125 8.296875 
L 54.390625 8.296875 
L 54.390625 0 
L 12.40625 0 
z
" id="DejaVuSans-49"/>
      </defs>
      <g transform="translate(542.942813 538.837813)scale(0.14 -0.14)">
       <use xlink:href="#DejaVuSans-49"/>
       <use x="63.623047" xlink:href="#DejaVuSans-46"/>
       <use x="95.410156" xlink:href="#DejaVuSans-48"/>
      </g>
     </g>
    </g>
    <g id="text_8">
     <!-- $\theta$ -->
     <defs>
      <path d="M 45.515625 34.671875 
L 14.453125 34.671875 
Q 12.359375 20.0625 14.5 13.875 
Q 17.1875 6.25 24.46875 6.25 
Q 31.78125 6.25 37.359375 13.921875 
Q 42.234375 20.65625 45.515625 34.671875 
z
M 47.015625 42.96875 
Q 48.34375 56.84375 46.625 61.71875 
Q 43.953125 69.4375 36.765625 69.4375 
Q 29.296875 69.4375 23.828125 61.8125 
Q 19.53125 55.671875 16.15625 42.96875 
z
M 38.1875 76.765625 
Q 49.90625 76.765625 54.59375 66.40625 
Q 59.28125 56.109375 55.71875 37.84375 
Q 52.203125 19.625 43.453125 9.28125 
Q 34.765625 -1.125 23.046875 -1.125 
Q 11.28125 -1.125 6.640625 9.28125 
Q 2 19.625 5.515625 37.84375 
Q 9.078125 56.109375 17.71875 66.40625 
Q 26.421875 76.765625 38.1875 76.765625 
z
" id="DejaVuSans-Oblique-952"/>
     </defs>
     <g transform="translate(281.8 560.94625)scale(0.2 -0.2)">
      <use transform="translate(0 0.234375)" xlink:href="#DejaVuSans-Oblique-952"/>
     </g>
    </g>
   </g>
   <g id="matplotlib.axis_4"/>
   <g id="line2d_63">
    <path clip-path="url(#pbdf87d84dd)" d="M 21.956783 403.421011 
L 22.822399 403.421011 
L 23.688014 402.066462 
L 24.55363 399.390358 
L 25.419246 395.541995 
L 26.284862 390.655562 
L 28.016093 378.569597 
L 33.209788 337.941489 
L 34.94102 326.852134 
L 36.672251 318.025178 
L 37.537867 314.512619 
L 38.403483 311.618362 
L 39.269098 309.313212 
L 40.134714 307.592471 
L 41.00033 306.408976 
L 41.865946 305.72495 
L 42.731562 305.49418 
L 43.597177 305.679572 
L 44.462793 306.210056 
L 45.328409 307.06842 
L 46.194025 308.243676 
L 47.05964 309.692086 
L 47.925256 311.394813 
L 49.656488 315.584788 
L 51.387719 320.786005 
L 53.118951 326.967928 
L 54.850182 334.006228 
L 57.44703 345.840724 
L 61.775109 367.160541 
L 66.103188 388.26813 
L 69.565651 404.159131 
L 72.162498 415.221017 
L 74.759345 425.355772 
L 77.356193 434.450034 
L 79.95304 442.598387 
L 83.415503 452.576529 
L 86.877966 461.978483 
L 89.474814 468.503623 
L 92.071661 474.423314 
L 94.668508 479.802503 
L 98.130971 486.356188 
L 101.593434 492.345027 
L 104.190282 496.420152 
L 106.787129 500.059385 
L 109.383976 503.188604 
L 111.980824 505.827235 
L 114.577671 508.064847 
L 117.174518 510.031587 
L 119.771366 511.757029 
L 122.368213 513.204245 
L 124.96506 514.360318 
L 128.427524 515.562064 
L 131.889987 516.507775 
L 137.949297 517.865764 
L 144.874223 519.288228 
L 149.202302 519.920273 
L 154.395997 520.399621 
L 160.455307 520.680139 
L 177.767623 521.076689 
L 194.214323 521.098565 
L 194.214323 521.098565 
" style="fill:none;stroke:#008000;stroke-linecap:square;stroke-width:1.5;"/>
   </g>
   <g id="line2d_64">
    <path clip-path="url(#pbdf87d84dd)" d="M 21.956783 522.37779 
L 21.956783 403.421011 
" style="fill:none;stroke:#008000;stroke-linecap:square;stroke-width:1.5;"/>
   </g>
   <g id="line2d_65">
    <path clip-path="url(#pbdf87d84dd)" d="M 194.214323 521.201014 
L 194.214323 521.098565 
" style="fill:none;stroke:#008000;stroke-linecap:square;stroke-width:1.5;"/>
   </g>
   <g id="line2d_66">
    <defs>
     <path d="M 0 3 
C 0.795609 3 1.55874 2.683901 2.12132 2.12132 
C 2.683901 1.55874 3 0.795609 3 0 
C 3 -0.795609 2.683901 -1.55874 2.12132 -2.12132 
C 1.55874 -2.683901 0.795609 -3 0 -3 
C -0.795609 -3 -1.55874 -2.683901 -2.12132 -2.12132 
C -2.683901 -1.55874 -3 -0.795609 -3 0 
C -3 0.795609 -2.683901 1.55874 -2.12132 2.12132 
C -1.55874 2.683901 -0.795609 3 0 3 
z
" id="mf2e8931e78" style="stroke:#000000;"/>
    </defs>
    <g clip-path="url(#pbdf87d84dd)">
     <use style="fill:#008000;stroke:#000000;" x="55.586481" xlink:href="#mf2e8931e78" y="521.2"/>
    </g>
   </g>
   <g id="line2d_67">
    <path clip-path="url(#pbdf87d84dd)" d="M 21.992916 412.062854 
L 22.795812 412.062854 
L 23.598707 410.790769 
L 24.401603 408.300378 
L 25.204498 404.706367 
L 26.007394 400.160765 
L 27.613185 388.882002 
L 33.233455 345.066484 
L 34.839246 335.17855 
L 36.445038 327.169441 
L 38.050829 321.034596 
L 38.853724 318.63484 
L 39.65662 316.639327 
L 40.459516 315.051293 
L 41.262411 313.809719 
L 42.065307 312.894187 
L 42.868203 312.300359 
L 43.671098 311.984155 
L 44.473994 311.935701 
L 45.27689 312.133014 
L 46.079785 312.575851 
L 46.882681 313.253072 
L 47.685577 314.168771 
L 48.488472 315.325915 
L 49.291368 316.717645 
L 50.897159 320.182657 
L 52.50295 324.55158 
L 54.108742 329.791003 
L 55.714533 335.77192 
L 58.12322 345.920863 
L 61.334803 360.698054 
L 67.757968 390.564876 
L 72.575342 411.874436 
L 74.984028 421.893563 
L 77.392715 430.962841 
L 79.801402 438.85569 
L 82.210089 445.846868 
L 90.239046 467.658574 
L 92.647733 473.91611 
L 95.05642 479.696711 
L 97.465107 484.930957 
L 99.873793 489.607355 
L 102.28248 493.687132 
L 104.691167 497.155271 
L 107.099854 500.112313 
L 109.508541 502.67149 
L 111.917228 504.862046 
L 114.325915 506.703508 
L 117.537498 508.739351 
L 121.551976 510.954859 
L 126.36935 513.355971 
L 131.186724 515.539867 
L 134.398306 516.692861 
L 137.609889 517.506369 
L 146.441741 519.156514 
L 150.456219 519.797333 
L 155.273593 520.268605 
L 163.302549 520.797138 
L 168.922819 520.912785 
L 181.769149 520.93347 
L 181.769149 520.93347 
" style="fill:none;stroke:#008000;stroke-linecap:square;stroke-width:1.5;"/>
   </g>
   <g id="line2d_68">
    <path clip-path="url(#pbdf87d84dd)" d="M 21.992916 522.291371 
L 21.992916 412.062854 
" style="fill:none;stroke:#008000;stroke-linecap:square;stroke-width:1.5;"/>
   </g>
   <g id="line2d_69">
    <path clip-path="url(#pbdf87d84dd)" d="M 181.769149 521.202665 
L 181.769149 520.93347 
" style="fill:none;stroke:#008000;stroke-linecap:square;stroke-width:1.5;"/>
   </g>
   <g id="line2d_70">
    <g clip-path="url(#pbdf87d84dd)">
     <use style="fill:#008000;stroke:#000000;" x="56.486536" xlink:href="#mf2e8931e78" y="521.2"/>
    </g>
   </g>
   <g id="line2d_71">
    <path clip-path="url(#pbdf87d84dd)" d="M 22.642708 487.35761 
L 23.697005 487.35761 
L 24.751302 486.391786 
L 25.805599 484.478585 
L 26.859896 481.678339 
L 27.914193 478.049152 
L 28.96849 473.662584 
L 30.022787 468.657004 
L 32.131382 457.108251 
L 35.294273 437.591568 
L 39.511461 411.482912 
L 41.620056 399.586766 
L 43.72865 388.78742 
L 45.837244 379.167968 
L 47.945838 370.674906 
L 50.054432 363.280198 
L 52.163027 356.96871 
L 53.217324 354.240898 
L 54.271621 351.822775 
L 55.325918 349.726026 
L 56.380215 347.979527 
L 57.434512 346.589181 
L 58.488809 345.542841 
L 59.543106 344.873727 
L 60.597404 344.577451 
L 61.651701 344.637192 
L 62.705998 345.071965 
L 63.760295 345.834654 
L 64.814592 346.935001 
L 65.868889 348.306605 
L 66.923186 349.972017 
L 67.977483 351.897999 
L 70.086077 356.429257 
L 72.194672 361.781315 
L 74.303266 367.868517 
L 76.41186 374.584463 
L 79.574751 385.702446 
L 84.846237 405.582972 
L 89.063425 421.068916 
L 92.226317 431.802114 
L 95.389208 441.55582 
L 97.497802 447.435971 
L 99.606396 452.845652 
L 102.769288 460.185067 
L 106.986476 469.084428 
L 112.257962 479.614149 
L 115.420853 485.492998 
L 117.529447 489.036277 
L 119.638041 492.224294 
L 121.746636 495.026673 
L 123.85523 497.491172 
L 127.018121 500.696683 
L 130.181012 503.50531 
L 133.343904 506.023163 
L 136.506795 508.26114 
L 139.669686 510.267341 
L 143.886875 512.660157 
L 147.049766 514.24455 
L 150.212657 515.575778 
L 153.375549 516.625647 
L 156.53844 517.44415 
L 160.755628 518.315152 
L 164.972817 518.991642 
L 170.244302 519.573218 
L 180.787273 520.388524 
L 188.167353 520.747705 
L 197.656027 520.955423 
L 222.959158 521.140106 
L 232.447831 521.009422 
L 232.447831 521.009422 
" style="fill:none;stroke:#008000;stroke-linecap:square;stroke-width:1.5;"/>
   </g>
   <g id="line2d_72">
    <path clip-path="url(#pbdf87d84dd)" d="M 22.642708 521.538424 
L 22.642708 487.35761 
" style="fill:none;stroke:#008000;stroke-linecap:square;stroke-width:1.5;"/>
   </g>
   <g id="line2d_73">
    <path clip-path="url(#pbdf87d84dd)" d="M 232.447831 521.201906 
L 232.447831 521.009422 
" style="fill:none;stroke:#008000;stroke-linecap:square;stroke-width:1.5;"/>
   </g>
   <g id="line2d_74">
    <g clip-path="url(#pbdf87d84dd)">
     <use style="fill:#008000;stroke:#000000;" x="70.477448" xlink:href="#mf2e8931e78" y="521.2"/>
    </g>
   </g>
   <g id="line2d_75">
    <path clip-path="url(#pbdf87d84dd)" d="M 22.21497 490.726184 
L 23.409369 490.726184 
L 24.603768 489.797893 
L 25.798167 487.973647 
L 26.992566 485.274492 
L 28.186965 481.776974 
L 29.381364 477.546535 
L 30.575763 472.665021 
L 32.964561 461.33486 
L 35.353359 448.603609 
L 42.519753 409.297171 
L 44.908551 397.587554 
L 47.297349 387.13026 
L 49.686147 378.092521 
L 50.880546 374.130511 
L 52.074945 370.555947 
L 53.269344 367.357102 
L 54.463743 364.549756 
L 55.658142 362.117807 
L 56.852541 360.045708 
L 58.04694 358.358548 
L 59.241339 357.046207 
L 60.435738 356.088837 
L 61.630137 355.511972 
L 62.824536 355.290811 
L 64.018935 355.429816 
L 65.213334 355.915511 
L 66.407733 356.743526 
L 67.602132 357.897553 
L 68.796531 359.351971 
L 69.99093 361.090866 
L 71.185329 363.065163 
L 73.574127 367.691096 
L 75.962925 372.982287 
L 78.351723 378.817286 
L 80.740521 385.09372 
L 84.323718 395.303842 
L 87.906915 406.355747 
L 98.656506 440.502431 
L 102.239703 450.647574 
L 105.8229 459.843442 
L 108.211698 465.472687 
L 110.600496 470.705736 
L 112.989294 475.524582 
L 115.378092 479.935838 
L 117.76689 483.932185 
L 120.155688 487.559119 
L 122.544486 490.833982 
L 124.933284 493.83785 
L 128.516481 497.904481 
L 132.099678 501.53102 
L 134.488476 503.700612 
L 136.877274 505.639782 
L 139.266072 507.343755 
L 141.65487 508.81686 
L 145.238067 510.687218 
L 148.821264 512.286753 
L 153.59886 514.147218 
L 158.376456 515.741386 
L 163.154052 517.030435 
L 167.931648 518.047723 
L 172.709244 518.838364 
L 178.681239 519.604377 
L 184.653234 520.133127 
L 190.625229 520.392045 
L 221.679603 521.053695 
L 245.567583 521.19179 
L 259.900371 521.141997 
L 259.900371 521.141997 
" style="fill:none;stroke:#008000;stroke-linecap:square;stroke-width:1.5;"/>
   </g>
   <g id="line2d_76">
    <path clip-path="url(#pbdf87d84dd)" d="M 22.21497 521.504738 
L 22.21497 490.726184 
" style="fill:none;stroke:#008000;stroke-linecap:square;stroke-width:1.5;"/>
   </g>
   <g id="line2d_77">
    <path clip-path="url(#pbdf87d84dd)" d="M 259.900371 521.20058 
L 259.900371 521.141997 
" style="fill:none;stroke:#008000;stroke-linecap:square;stroke-width:1.5;"/>
   </g>
   <g id="line2d_78">
    <g clip-path="url(#pbdf87d84dd)">
     <use style="fill:#008000;stroke:#000000;" x="73.429794" xlink:href="#mf2e8931e78" y="521.2"/>
    </g>
   </g>
   <g id="line2d_79">
    <path clip-path="url(#pbdf87d84dd)" d="M 26.068384 509.211755 
L 27.112106 509.211755 
L 28.155828 508.749697 
L 29.19955 507.835854 
L 30.243272 506.489048 
L 31.286994 504.699275 
L 32.330716 502.518003 
L 33.374438 499.96033 
L 35.461883 493.797307 
L 37.549327 486.450208 
L 39.636771 478.178256 
L 42.767938 464.540977 
L 53.205159 417.264096 
L 56.336325 404.578568 
L 58.423769 396.917185 
L 60.511214 390.07022 
L 62.598658 384.113307 
L 64.686102 379.120121 
L 66.773546 375.073847 
L 68.860991 371.927503 
L 69.904713 370.672484 
L 70.948435 369.628712 
L 71.992157 368.781925 
L 73.035879 368.128095 
L 74.079601 367.682315 
L 75.123323 367.401897 
L 76.167045 367.308568 
L 77.210768 367.401125 
L 78.25449 367.665136 
L 79.298212 368.104731 
L 80.341934 368.72721 
L 81.385656 369.533971 
L 82.429378 370.518475 
L 83.4731 371.687168 
L 84.516822 373.035892 
L 86.604267 376.310815 
L 88.691711 380.289551 
L 90.779155 384.859418 
L 93.910322 392.487351 
L 100.172654 408.783253 
L 107.478709 428.204132 
L 116.872208 453.6315 
L 120.003375 461.204981 
L 122.090819 465.785135 
L 124.178263 469.978073 
L 127.309429 475.619776 
L 130.440596 480.764785 
L 135.659206 488.868892 
L 138.790373 493.383803 
L 140.877817 496.101961 
L 142.965261 498.53532 
L 145.052706 500.675935 
L 147.14015 502.574983 
L 150.271316 505.085536 
L 153.402483 507.292539 
L 156.533649 509.23838 
L 159.664815 510.954428 
L 163.839704 512.950943 
L 168.014592 514.700374 
L 172.189481 516.195383 
L 176.364369 517.387875 
L 179.495536 518.083756 
L 183.670424 518.792313 
L 188.889035 519.406684 
L 196.19509 519.974532 
L 207.676033 520.661194 
L 216.02581 520.823103 
L 233.769086 520.968613 
L 233.769086 520.968613 
" style="fill:none;stroke:#008000;stroke-linecap:square;stroke-width:1.5;"/>
   </g>
   <g id="line2d_80">
    <path clip-path="url(#pbdf87d84dd)" d="M 26.068384 521.319882 
L 26.068384 509.211755 
" style="fill:none;stroke:#008000;stroke-linecap:square;stroke-width:1.5;"/>
   </g>
   <g id="line2d_81">
    <path clip-path="url(#pbdf87d84dd)" d="M 233.769086 521.202314 
L 233.769086 520.968613 
" style="fill:none;stroke:#008000;stroke-linecap:square;stroke-width:1.5;"/>
   </g>
   <g id="line2d_82">
    <g clip-path="url(#pbdf87d84dd)">
     <use style="fill:#008000;stroke:#000000;" x="85.450031" xlink:href="#mf2e8931e78" y="521.2"/>
    </g>
   </g>
   <g id="line2d_83">
    <path clip-path="url(#pbdf87d84dd)" d="M 28.170376 518.698327 
L 29.079288 518.698327 
L 29.988199 518.53525 
L 30.897111 518.210739 
L 31.806022 517.706542 
L 32.714934 517.025956 
L 33.623846 516.165835 
L 34.532757 515.104972 
L 35.441669 513.835172 
L 36.35058 512.354389 
L 38.168404 508.737434 
L 39.986227 504.207895 
L 41.80405 498.729751 
L 43.621873 492.245564 
L 45.439696 484.659637 
L 47.25752 475.879017 
L 49.075343 465.816958 
L 50.893166 454.533867 
L 53.619901 435.804816 
L 59.07337 397.050183 
L 60.891193 385.343629 
L 62.709017 374.669212 
L 64.52684 365.074916 
L 66.344663 356.556742 
L 68.162486 349.045623 
L 69.980309 342.567574 
L 71.798133 337.156161 
L 73.615956 332.909594 
L 74.524867 331.243495 
L 75.433779 329.893876 
L 76.342691 328.867699 
L 77.251602 328.167721 
L 78.160514 327.765055 
L 79.069425 327.687277 
L 79.978337 327.907552 
L 80.887249 328.429382 
L 81.79616 329.236811 
L 82.705072 330.331684 
L 83.613983 331.675696 
L 84.522895 333.273562 
L 86.340718 337.17637 
L 88.158541 341.926479 
L 89.976365 347.475703 
L 91.794188 353.742214 
L 93.612011 360.68118 
L 96.338746 372.14636 
L 99.974392 388.6594 
L 105.427862 413.431854 
L 109.063508 428.843279 
L 111.790243 439.583528 
L 114.516978 449.62264 
L 118.152624 462.057746 
L 120.879359 470.742548 
L 123.606094 478.684056 
L 125.423917 483.445197 
L 127.24174 487.742824 
L 129.059563 491.563026 
L 130.877386 494.969427 
L 132.69521 498.007821 
L 135.421944 501.989552 
L 137.239768 504.304104 
L 139.057591 506.373145 
L 140.875414 508.193822 
L 142.693237 509.803181 
L 145.419972 511.842854 
L 148.146707 513.51762 
L 150.873442 514.874834 
L 153.600176 515.992768 
L 157.235823 517.223977 
L 161.780381 518.569163 
L 165.416027 519.449914 
L 169.051673 520.049425 
L 172.68732 520.407817 
L 179.049701 520.772399 
L 187.229905 520.996488 
L 199.954668 521.120112 
L 209.043784 520.990157 
L 209.043784 520.990157 
" style="fill:none;stroke:#008000;stroke-linecap:square;stroke-width:1.5;"/>
   </g>
   <g id="line2d_84">
    <path clip-path="url(#pbdf87d84dd)" d="M 28.170376 521.225017 
L 28.170376 518.698327 
" style="fill:none;stroke:#008000;stroke-linecap:square;stroke-width:1.5;"/>
   </g>
   <g id="line2d_85">
    <path clip-path="url(#pbdf87d84dd)" d="M 209.043784 521.202098 
L 209.043784 520.990157 
" style="fill:none;stroke:#008000;stroke-linecap:square;stroke-width:1.5;"/>
   </g>
   <g id="line2d_86">
    <g clip-path="url(#pbdf87d84dd)">
     <use style="fill:#008000;stroke:#000000;" x="84.596427" xlink:href="#mf2e8931e78" y="521.2"/>
    </g>
   </g>
   <g id="line2d_87">
    <path clip-path="url(#pbdf87d84dd)" d="M 40.480836 520.789567 
L 43.542507 520.693739 
L 45.583622 520.45773 
L 47.624736 520.032699 
L 49.66585 519.367209 
L 51.706964 518.399705 
L 53.748079 517.067971 
L 55.789193 515.318488 
L 57.830307 513.117941 
L 59.871421 510.442405 
L 61.912536 507.251957 
L 63.95365 503.52226 
L 65.994764 499.216397 
L 68.035878 494.25542 
L 70.076993 488.633816 
L 72.118107 482.339795 
L 74.159221 475.404282 
L 76.200335 467.873075 
L 79.262007 455.515439 
L 82.323678 441.968463 
L 85.38535 427.34519 
L 92.529249 392.687349 
L 94.570364 383.955665 
L 96.611478 376.236476 
L 98.652592 369.660565 
L 100.693706 364.299331 
L 101.714264 362.046079 
L 102.734821 360.093131 
L 103.755378 358.422846 
L 104.775935 357.02661 
L 105.796492 355.901475 
L 106.817049 355.045457 
L 107.837606 354.464328 
L 108.858163 354.148397 
L 109.878721 354.092202 
L 110.899278 354.314293 
L 111.919835 354.78941 
L 112.940392 355.499566 
L 113.960949 356.439503 
L 114.981506 357.605913 
L 117.02262 360.477342 
L 119.063735 363.990872 
L 121.104849 368.073103 
L 123.145963 372.739631 
L 125.187077 378.020572 
L 127.228192 383.946203 
L 130.289863 393.84716 
L 137.433763 418.014979 
L 141.515991 430.665758 
L 146.618777 445.625771 
L 151.721563 459.973246 
L 155.803791 470.767665 
L 158.865463 478.310165 
L 161.927134 485.140631 
L 163.968248 489.200752 
L 166.009362 492.823723 
L 168.050477 496.022205 
L 170.091591 498.846559 
L 172.132705 501.37705 
L 175.194377 504.71795 
L 178.256048 507.632029 
L 181.317719 510.159353 
L 184.379391 512.313892 
L 187.441062 514.079976 
L 190.502734 515.4968 
L 193.564405 516.602671 
L 196.626076 517.478575 
L 200.708305 518.421184 
L 205.81109 519.386304 
L 210.913876 520.125761 
L 216.016662 520.642998 
L 221.119447 520.957126 
L 227.24279 521.097808 
L 243.571704 521.120976 
L 243.571704 521.120976 
" style="fill:none;stroke:#008000;stroke-linecap:square;stroke-width:1.5;"/>
   </g>
   <g id="line2d_88">
    <path clip-path="url(#pbdf87d84dd)" d="M 40.480836 521.204104 
L 40.480836 520.789567 
" style="fill:none;stroke:#008000;stroke-linecap:square;stroke-width:1.5;"/>
   </g>
   <g id="line2d_89">
    <path clip-path="url(#pbdf87d84dd)" d="M 243.571704 521.20079 
L 243.571704 521.120976 
" style="fill:none;stroke:#008000;stroke-linecap:square;stroke-width:1.5;"/>
   </g>
   <g id="line2d_90">
    <g clip-path="url(#pbdf87d84dd)">
     <use style="fill:#008000;stroke:#000000;" x="115.903688" xlink:href="#mf2e8931e78" y="521.2"/>
    </g>
   </g>
   <g id="line2d_91">
    <path clip-path="url(#pbdf87d84dd)" d="M 35.366477 516.533917 
L 36.648858 516.533917 
L 37.931239 516.338863 
L 39.21362 515.942313 
L 40.496 515.346379 
L 41.778381 514.550049 
L 43.060762 513.559004 
L 44.343143 512.3779 
L 45.625524 511.013847 
L 46.907905 509.456866 
L 49.472667 505.821015 
L 52.037429 501.522834 
L 54.60219 496.662428 
L 57.166952 491.316929 
L 59.731714 485.561215 
L 63.578857 476.234841 
L 67.425999 466.161101 
L 72.555523 451.939208 
L 77.685047 437.749708 
L 81.532189 427.716095 
L 85.379332 418.481006 
L 87.944094 412.841644 
L 90.508856 407.733697 
L 93.073617 403.269864 
L 94.355998 401.324065 
L 95.638379 399.601025 
L 96.92076 398.100089 
L 98.203141 396.82589 
L 99.485522 395.792489 
L 100.767903 394.974539 
L 102.050284 394.371261 
L 103.332665 393.975644 
L 104.615045 393.757291 
L 105.897426 393.7047 
L 107.179807 393.808268 
L 108.462188 394.041933 
L 109.744569 394.416621 
L 111.02695 394.912306 
L 112.309331 395.539658 
L 113.591712 396.306819 
L 114.874093 397.217105 
L 116.156474 398.274625 
L 117.438854 399.504527 
L 118.721235 400.899553 
L 121.285997 404.208494 
L 123.850759 408.156963 
L 126.415521 412.642039 
L 130.262663 420.133454 
L 136.674568 433.529323 
L 141.804092 443.949303 
L 145.651234 451.10545 
L 149.498377 457.685762 
L 154.627901 465.926709 
L 161.039805 475.840917 
L 164.886948 481.424386 
L 167.45171 484.862759 
L 170.016471 488.03242 
L 172.581233 490.919693 
L 175.145995 493.544928 
L 178.993138 497.100784 
L 182.84028 500.328825 
L 186.687423 503.325661 
L 190.534566 506.026495 
L 193.099328 507.621494 
L 195.664089 509.032726 
L 199.511232 510.837855 
L 203.358375 512.343112 
L 208.487898 514.055384 
L 213.617422 515.5295 
L 218.746946 516.778472 
L 223.876469 517.777396 
L 229.005993 518.554273 
L 235.417897 519.278697 
L 245.676945 520.162177 
L 254.653611 520.737742 
L 262.347896 520.9673 
L 279.018848 521.135599 
L 290.560276 521.14002 
L 290.560276 521.14002 
" style="fill:none;stroke:#008000;stroke-linecap:square;stroke-width:1.5;"/>
   </g>
   <g id="line2d_92">
    <path clip-path="url(#pbdf87d84dd)" d="M 35.366477 521.246661 
L 35.366477 516.533917 
" style="fill:none;stroke:#008000;stroke-linecap:square;stroke-width:1.5;"/>
   </g>
   <g id="line2d_93">
    <path clip-path="url(#pbdf87d84dd)" d="M 290.560276 521.2006 
L 290.560276 521.14002 
" style="fill:none;stroke:#008000;stroke-linecap:square;stroke-width:1.5;"/>
   </g>
   <g id="line2d_94">
    <g clip-path="url(#pbdf87d84dd)">
     <use style="fill:#008000;stroke:#000000;" x="115.352752" xlink:href="#mf2e8931e78" y="521.2"/>
    </g>
   </g>
   <g id="line2d_95">
    <path clip-path="url(#pbdf87d84dd)" d="M 56.600222 520.097302 
L 58.683381 520.052961 
L 60.76654 519.82246 
L 62.849699 519.394242 
L 64.932858 518.753444 
L 67.016017 517.857984 
L 69.099176 516.665114 
L 71.182336 515.11275 
L 73.265495 513.162424 
L 75.348654 510.768189 
L 77.431813 507.893052 
L 79.514972 504.554275 
L 81.598131 500.719591 
L 83.68129 496.372827 
L 85.764449 491.486849 
L 87.847608 486.044769 
L 89.930767 480.048009 
L 92.013926 473.491083 
L 95.138665 462.771521 
L 99.304983 447.346185 
L 106.59604 419.91933 
L 109.720778 408.976155 
L 112.845517 399.071267 
L 114.928676 393.21296 
L 117.011835 387.993682 
L 119.094994 383.396833 
L 121.178153 379.380668 
L 123.261312 375.948574 
L 125.344471 373.16717 
L 126.386051 372.076432 
L 127.42763 371.196029 
L 128.46921 370.557768 
L 129.510789 370.202919 
L 130.552369 370.129647 
L 131.593948 370.333048 
L 132.635528 370.797348 
L 133.677107 371.528511 
L 134.718687 372.474125 
L 136.801846 374.913334 
L 138.885005 377.836074 
L 142.009744 382.668427 
L 145.134482 387.824227 
L 148.259221 393.484455 
L 150.34238 397.737602 
L 152.425539 402.467317 
L 154.508698 407.677714 
L 157.633437 416.251778 
L 167.007653 442.862911 
L 171.173971 453.76453 
L 175.340289 464.166185 
L 179.506607 473.956127 
L 182.631346 480.748158 
L 185.756084 486.904003 
L 187.839243 490.577571 
L 189.922402 493.882566 
L 192.005561 496.857109 
L 194.08872 499.531032 
L 196.171879 501.951237 
L 199.296618 505.149113 
L 202.421357 507.896682 
L 205.546095 510.232786 
L 208.670834 512.235704 
L 211.795572 513.976416 
L 214.920311 515.482727 
L 218.04505 516.753821 
L 221.169788 517.791255 
L 224.294527 518.59446 
L 227.419265 519.191524 
L 231.585584 519.716082 
L 238.87664 520.300422 
L 248.250856 520.90678 
L 254.500333 521.083251 
L 263.874549 521.092513 
L 263.874549 521.092513 
" style="fill:none;stroke:#008000;stroke-linecap:square;stroke-width:1.5;"/>
   </g>
   <g id="line2d_96">
    <path clip-path="url(#pbdf87d84dd)" d="M 56.600222 521.211027 
L 56.600222 520.097302 
" style="fill:none;stroke:#008000;stroke-linecap:square;stroke-width:1.5;"/>
   </g>
   <g id="line2d_97">
    <path clip-path="url(#pbdf87d84dd)" d="M 263.874549 521.201075 
L 263.874549 521.092513 
" style="fill:none;stroke:#008000;stroke-linecap:square;stroke-width:1.5;"/>
   </g>
   <g id="line2d_98">
    <g clip-path="url(#pbdf87d84dd)">
     <use style="fill:#008000;stroke:#000000;" x="136.152734" xlink:href="#mf2e8931e78" y="521.2"/>
    </g>
   </g>
   <g id="line2d_99">
    <path clip-path="url(#pbdf87d84dd)" d="M 41.902591 520.464886 
L 44.777622 520.420617 
L 47.652654 520.197762 
L 50.527686 519.784241 
L 53.402718 519.158713 
L 56.27775 518.287538 
L 59.152782 517.122211 
L 62.027814 515.605008 
L 64.902846 513.702738 
L 67.777878 511.347583 
L 70.65291 508.497836 
L 73.527942 505.118469 
L 76.402974 501.190373 
L 79.278006 496.746169 
L 82.153038 491.846982 
L 86.465586 483.803011 
L 90.778134 475.202543 
L 96.528198 463.192003 
L 109.465841 435.885566 
L 112.340873 430.228245 
L 115.215905 424.968594 
L 118.090937 420.243939 
L 120.965969 416.19488 
L 122.403485 414.445797 
L 123.841001 412.901162 
L 125.278517 411.557526 
L 126.716033 410.41819 
L 128.153549 409.49226 
L 129.591065 408.771122 
L 131.028581 408.23874 
L 132.466097 407.909714 
L 133.903613 407.782694 
L 135.341129 407.827588 
L 136.778645 408.051437 
L 138.216161 408.441885 
L 139.653677 408.964118 
L 142.528709 410.387036 
L 145.403741 412.220243 
L 148.278773 414.360489 
L 151.153805 416.777297 
L 154.028836 419.481872 
L 156.903868 422.564991 
L 159.7789 426.047345 
L 162.653932 429.929318 
L 166.96648 436.306122 
L 175.591576 449.341006 
L 181.34164 457.557974 
L 197.154316 479.67452 
L 201.466864 485.087919 
L 204.341896 488.40262 
L 207.216928 491.474714 
L 210.091959 494.284437 
L 212.966991 496.8472 
L 215.842023 499.172986 
L 218.717055 501.287104 
L 223.029603 504.13753 
L 227.342151 506.691488 
L 231.654699 509.007861 
L 235.967247 511.085717 
L 240.279795 512.897628 
L 244.592343 514.440599 
L 248.904891 515.745828 
L 253.217439 516.856294 
L 257.529987 517.783575 
L 261.842535 518.524836 
L 266.155082 519.085067 
L 271.905146 519.610184 
L 281.967758 520.258703 
L 290.592854 520.614331 
L 306.40553 520.982595 
L 319.343174 521.075639 
L 327.968269 521.076976 
L 327.968269 521.076976 
" style="fill:none;stroke:#008000;stroke-linecap:square;stroke-width:1.5;"/>
   </g>
   <g id="line2d_100">
    <path clip-path="url(#pbdf87d84dd)" d="M 41.902591 521.207351 
L 41.902591 520.464886 
" style="fill:none;stroke:#008000;stroke-linecap:square;stroke-width:1.5;"/>
   </g>
   <g id="line2d_101">
    <path clip-path="url(#pbdf87d84dd)" d="M 327.968269 521.20123 
L 327.968269 521.076976 
" style="fill:none;stroke:#008000;stroke-linecap:square;stroke-width:1.5;"/>
   </g>
   <g id="line2d_102">
    <g clip-path="url(#pbdf87d84dd)">
     <use style="fill:#008000;stroke:#000000;" x="145.249951" xlink:href="#mf2e8931e78" y="521.2"/>
    </g>
   </g>
   <g id="line2d_103"/>
   <g id="line2d_104"/>
   <g id="line2d_105"/>
   <g id="line2d_106"/>
   <g id="line2d_107"/>
   <g id="line2d_108"/>
   <g id="line2d_109"/>
   <g id="line2d_110"/>
   <g id="line2d_111"/>
   <g id="line2d_112"/>
   <g id="patch_5">
    <path d="M 21.925 521.2 
L 554.075 521.2 
" style="fill:none;stroke:#000000;stroke-linecap:square;stroke-linejoin:miter;stroke-width:0.8;"/>
   </g>
   <g id="text_9">
    <!-- Modelo jerrquico -->
    <defs>
     <path d="M 9.421875 54.6875 
L 18.40625 54.6875 
L 18.40625 -0.984375 
Q 18.40625 -11.421875 14.421875 -16.109375 
Q 10.453125 -20.796875 1.609375 -20.796875 
L -1.8125 -20.796875 
L -1.8125 -13.1875 
L 0.59375 -13.1875 
Q 5.71875 -13.1875 7.5625 -10.8125 
Q 9.421875 -8.453125 9.421875 -0.984375 
z
M 9.421875 75.984375 
L 18.40625 75.984375 
L 18.40625 64.59375 
L 9.421875 64.59375 
z
" id="DejaVuSans-106"/>
     <path d="M 34.28125 27.484375 
Q 23.390625 27.484375 19.1875 25 
Q 14.984375 22.515625 14.984375 16.5 
Q 14.984375 11.71875 18.140625 8.90625 
Q 21.296875 6.109375 26.703125 6.109375 
Q 34.1875 6.109375 38.703125 11.40625 
Q 43.21875 16.703125 43.21875 25.484375 
L 43.21875 27.484375 
z
M 52.203125 31.203125 
L 52.203125 0 
L 43.21875 0 
L 43.21875 8.296875 
Q 40.140625 3.328125 35.546875 0.953125 
Q 30.953125 -1.421875 24.3125 -1.421875 
Q 15.921875 -1.421875 10.953125 3.296875 
Q 6 8.015625 6 15.921875 
Q 6 25.140625 12.171875 29.828125 
Q 18.359375 34.515625 30.609375 34.515625 
L 43.21875 34.515625 
L 43.21875 35.40625 
Q 43.21875 41.609375 39.140625 45 
Q 35.0625 48.390625 27.6875 48.390625 
Q 23 48.390625 18.546875 47.265625 
Q 14.109375 46.140625 10.015625 43.890625 
L 10.015625 52.203125 
Q 14.9375 54.109375 19.578125 55.046875 
Q 24.21875 56 28.609375 56 
Q 40.484375 56 46.34375 49.84375 
Q 52.203125 43.703125 52.203125 31.203125 
z
M 35.796875 79.984375 
L 45.515625 79.984375 
L 29.59375 61.625 
L 22.125 61.625 
z
" id="DejaVuSans-225"/>
     <path d="M 14.796875 27.296875 
Q 14.796875 17.390625 18.875 11.75 
Q 22.953125 6.109375 30.078125 6.109375 
Q 37.203125 6.109375 41.296875 11.75 
Q 45.40625 17.390625 45.40625 27.296875 
Q 45.40625 37.203125 41.296875 42.84375 
Q 37.203125 48.484375 30.078125 48.484375 
Q 22.953125 48.484375 18.875 42.84375 
Q 14.796875 37.203125 14.796875 27.296875 
z
M 45.40625 8.203125 
Q 42.578125 3.328125 38.25 0.953125 
Q 33.9375 -1.421875 27.875 -1.421875 
Q 17.96875 -1.421875 11.734375 6.484375 
Q 5.515625 14.40625 5.515625 27.296875 
Q 5.515625 40.1875 11.734375 48.09375 
Q 17.96875 56 27.875 56 
Q 33.9375 56 38.25 53.625 
Q 42.578125 51.265625 45.40625 46.390625 
L 45.40625 54.6875 
L 54.390625 54.6875 
L 54.390625 -20.796875 
L 45.40625 -20.796875 
z
" id="DejaVuSans-113"/>
     <path d="M 8.5 21.578125 
L 8.5 54.6875 
L 17.484375 54.6875 
L 17.484375 21.921875 
Q 17.484375 14.15625 20.5 10.265625 
Q 23.53125 6.390625 29.59375 6.390625 
Q 36.859375 6.390625 41.078125 11.03125 
Q 45.3125 15.671875 45.3125 23.6875 
L 45.3125 54.6875 
L 54.296875 54.6875 
L 54.296875 0 
L 45.3125 0 
L 45.3125 8.40625 
Q 42.046875 3.421875 37.71875 1 
Q 33.40625 -1.421875 27.6875 -1.421875 
Q 18.265625 -1.421875 13.375 4.4375 
Q 8.5 10.296875 8.5 21.578125 
z
M 31.109375 56 
z
" id="DejaVuSans-117"/>
     <path d="M 9.421875 54.6875 
L 18.40625 54.6875 
L 18.40625 0 
L 9.421875 0 
z
M 9.421875 75.984375 
L 18.40625 75.984375 
L 18.40625 64.59375 
L 9.421875 64.59375 
z
" id="DejaVuSans-105"/>
     <path d="M 48.78125 52.59375 
L 48.78125 44.1875 
Q 44.96875 46.296875 41.140625 47.34375 
Q 37.3125 48.390625 33.40625 48.390625 
Q 24.65625 48.390625 19.8125 42.84375 
Q 14.984375 37.3125 14.984375 27.296875 
Q 14.984375 17.28125 19.8125 11.734375 
Q 24.65625 6.203125 33.40625 6.203125 
Q 37.3125 6.203125 41.140625 7.25 
Q 44.96875 8.296875 48.78125 10.40625 
L 48.78125 2.09375 
Q 45.015625 0.34375 40.984375 -0.53125 
Q 36.96875 -1.421875 32.421875 -1.421875 
Q 20.0625 -1.421875 12.78125 6.34375 
Q 5.515625 14.109375 5.515625 27.296875 
Q 5.515625 40.671875 12.859375 48.328125 
Q 20.21875 56 33.015625 56 
Q 37.15625 56 41.109375 55.140625 
Q 45.0625 54.296875 48.78125 52.59375 
z
" id="DejaVuSans-99"/>
    </defs>
    <g transform="translate(198.489063 288.65)scale(0.2 -0.2)">
     <use xlink:href="#DejaVuSans-77"/>
     <use x="86.279297" xlink:href="#DejaVuSans-111"/>
     <use x="147.460938" xlink:href="#DejaVuSans-100"/>
     <use x="210.9375" xlink:href="#DejaVuSans-101"/>
     <use x="272.460938" xlink:href="#DejaVuSans-108"/>
     <use x="300.244141" xlink:href="#DejaVuSans-111"/>
     <use x="361.425781" xlink:href="#DejaVuSans-32"/>
     <use x="393.212891" xlink:href="#DejaVuSans-106"/>
     <use x="420.996094" xlink:href="#DejaVuSans-101"/>
     <use x="482.519531" xlink:href="#DejaVuSans-114"/>
     <use x="523.632812" xlink:href="#DejaVuSans-225"/>
     <use x="584.912109" xlink:href="#DejaVuSans-114"/>
     <use x="624.275391" xlink:href="#DejaVuSans-113"/>
     <use x="687.751953" xlink:href="#DejaVuSans-117"/>
     <use x="751.130859" xlink:href="#DejaVuSans-105"/>
     <use x="778.914062" xlink:href="#DejaVuSans-99"/>
     <use x="833.894531" xlink:href="#DejaVuSans-111"/>
    </g>
   </g>
  </g>
 </g>
 <defs>
  <clipPath id="pfd4439b973">
   <rect height="226.55" width="532.15" x="21.925" y="31.8"/>
  </clipPath>
  <clipPath id="pbdf87d84dd">
   <rect height="226.55" width="532.15" x="21.925" y="294.65"/>
  </clipPath>
 </defs>
</svg>
