<?xml version="1.0" encoding="UTF-8" standalone="no"?>
<!-- Generated by graphviz version 2.43.0 (0)
 -->

<!-- Title: G Pages: 1 -->

<svg
   xmlns:dc="http://purl.org/dc/elements/1.1/"
   xmlns:cc="http://creativecommons.org/ns#"
   xmlns:rdf="http://www.w3.org/1999/02/22-rdf-syntax-ns#"
   xmlns:svg="http://www.w3.org/2000/svg"
   xmlns="http://www.w3.org/2000/svg"
   xmlns:sodipodi="http://sodipodi.sourceforge.net/DTD/sodipodi-0.dtd"
   xmlns:inkscape="http://www.inkscape.org/namespaces/inkscape"
   width="334pt"
   height="248pt"
   viewBox="0.00 0.00 334.00 248.00"
   version="1.1"
   id="svg196"
   sodipodi:docname="model_hSDT.gv.svg"
   inkscape:version="0.92.5 (2060ec1f9f, 2020-04-08)">
  <metadata
     id="metadata202">
    <rdf:RDF>
      <cc:Work
         rdf:about="">
        <dc:format>image/svg+xml</dc:format>
        <dc:type
           rdf:resource="http://purl.org/dc/dcmitype/StillImage" />
      </cc:Work>
    </rdf:RDF>
  </metadata>
  <defs
     id="defs200" />
  <sodipodi:namedview
     pagecolor="#ffffff"
     bordercolor="#666666"
     borderopacity="1"
     objecttolerance="10"
     gridtolerance="10"
     guidetolerance="10"
     inkscape:pageopacity="0"
     inkscape:pageshadow="2"
     inkscape:window-width="1848"
     inkscape:window-height="1016"
     id="namedview198"
     showgrid="false"
     inkscape:zoom="0.89600123"
     inkscape:cx="142.21328"
     inkscape:cy="235.54188"
     inkscape:window-x="72"
     inkscape:window-y="27"
     inkscape:window-maximized="1"
     inkscape:current-layer="svg196" />
  <text
     style="font-size:14px;font-family:Times, serif;text-anchor:middle"
     id="text14"
     font-size="14.00"
     y="19.199997"
     x="167">Hierarchical Signal Detection Theory (SDT)</text>
  <path
     d="m 86.5,236 c 0,0 144,0 144,0 6,0 12,-6 12,-12 0,0 0,-155 0,-155 0,-6 -6,-12 -12,-12 0,0 -144,0 -144,0 -6,0 -12,6 -12,12 0,0 0,155 0,155 0,6 6,12 12,12"
     id="path18"
     inkscape:connector-curvature="0"
     style="fill:none;stroke:#000000" />
  <text
     x="106.5"
     y="72.199997"
     font-size="14.00"
     id="text20"
     style="font-size:14px;font-family:Times, serif;text-anchor:middle">$i \ people$</text>
  <circle
     cx="112.5"
     cy="38"
     id="ellipse25"
     r="11"
     style="fill:none;stroke:#000000" />
  <text
     x="112.5"
     y="41.699997"
     font-size="14.00"
     id="text27"
     style="font-size:14px;font-family:Times, serif;text-anchor:middle">$\lambda_c$</text>
  <circle
     cx="146.5"
     cy="96"
     id="ellipse32"
     r="11"
     style="fill:none;stroke:#000000" />
  <text
     x="146.5"
     y="99.699997"
     font-size="14.00"
     id="text34"
     style="font-size:14px;font-family:Times, serif;text-anchor:middle">$c_i$</text>
  <path
     d="m 117.81,47.75 c 4.81,7.93 12.05,19.84 18.05,29.72"
     id="path39"
     inkscape:connector-curvature="0"
     style="fill:none;stroke:#000000" />
  <polygon
     points="137.11,-157.87 128.93,-164.6 134.91,-168.24 "
     id="polygon41"
     style="fill:#000000;stroke:#000000"
     transform="translate(4,244)" />
  <circle
     cx="222.5"
     cy="158"
     id="ellipse46"
     r="11"
     style="fill:none;stroke:#000000" />
  <circle
     cx="222.5"
     cy="158"
     id="ellipse48"
     r="15"
     style="fill:none;stroke:#000000" />
  <text
     x="222.5"
     y="161.7"
     font-size="14.00"
     id="text50"
     style="font-size:14px;font-family:Times, serif;text-anchor:middle">$\theta_i^h$</text>
  <path
     d="m 154.63,103.42 c 11.44,9.03 32.63,25.76 48.3,38.13"
     id="path55"
     inkscape:connector-curvature="0"
     style="fill:none;stroke:#000000" />
  <polygon
     points="206.97,-96.1 196.96,-99.55 201.29,-105.04 "
     id="polygon57"
     style="fill:#000000;stroke:#000000"
     transform="translate(4,244)" />
  <circle
     cx="134.5"
     cy="158"
     id="ellipse62"
     r="11"
     style="fill:none;stroke:#000000" />
  <circle
     cx="134.5"
     cy="158"
     id="ellipse64"
     r="15"
     style="fill:none;stroke:#000000" />
  <text
     x="134.5"
     y="161.7"
     font-size="14.00"
     id="text66"
     style="font-size:14px;font-family:Times, serif;text-anchor:middle">$\theta_i^f$</text>
  <path
     d="m 144.52,106.91 c -1.43,7.16 -3.43,17.14 -5.26,26.31"
     id="path71"
     inkscape:connector-curvature="0"
     style="fill:none;stroke:#000000" />
  <polygon
     points="133.29,-100.96 131.82,-111.46 138.69,-110.08 "
     id="polygon73"
     style="fill:#000000;stroke:#000000"
     transform="translate(4,244)" />
  <circle
     cx="152.5"
     cy="38"
     id="ellipse78"
     r="11"
     style="fill:none;stroke:#000000" />
  <text
     x="152.5"
     y="41.699997"
     font-size="14.00"
     id="text80"
     style="font-size:14px;font-family:Times, serif;text-anchor:middle">$\mu_c$</text>
  <path
     d="m 151.43,49.01 c -0.76,7.08 -1.8,16.82 -2.74,25.51"
     id="path85"
     inkscape:connector-curvature="0"
     style="fill:none;stroke:#000000" />
  <polygon
     points="143.6,-159.3 141.19,-169.62 148.15,-168.87 "
     id="polygon87"
     style="fill:#000000;stroke:#000000"
     transform="translate(4,244)" />
  <circle
     cx="216.5"
     cy="38"
     id="ellipse92"
     r="11"
     style="fill:none;stroke:#000000" />
  <text
     x="216.5"
     y="41.699997"
     font-size="14.00"
     id="text94"
     style="font-size:14px;font-family:Times, serif;text-anchor:middle">$\lambda_d$</text>
  <circle
     cx="219.5"
     cy="96"
     id="ellipse99"
     r="11"
     style="fill:none;stroke:#000000" />
  <text
     x="219.5"
     y="99.699997"
     font-size="14.00"
     id="text101"
     style="font-size:14px;font-family:Times, serif;text-anchor:middle">$d_i$</text>
  <path
     d="m 217.04,49.01 c 0.38,7.08 0.9,16.82 1.36,25.51"
     id="path106"
     inkscape:connector-curvature="0"
     style="fill:none;stroke:#000000" />
  <polygon
     points="214.95,-159.3 210.92,-169.1 217.91,-169.48 "
     id="polygon108"
     style="fill:#000000;stroke:#000000"
     transform="translate(4,244)" />
  <path
     d="m 220.01,107.18 c 0.35,6.94 0.82,16.44 1.26,25.29"
     id="path113"
     inkscape:connector-curvature="0"
     style="fill:none;stroke:#000000" />
  <polygon
     points="217.79,-101.28 213.79,-111.1 220.78,-111.45 "
     id="polygon115"
     style="fill:#000000;stroke:#000000"
     transform="translate(4,244)" />
  <path
     d="m 210.72,103.2 c -13.07,9.22 -38.03,26.84 -55.83,39.41"
     id="path120"
     inkscape:connector-curvature="0"
     style="fill:none;stroke:#000000" />
  <polygon
     points="142.34,-95.36 148.49,-103.98 152.53,-98.27 "
     id="polygon122"
     style="fill:#000000;stroke:#000000"
     transform="translate(4,244)" />
  <circle
     cx="256.5"
     cy="38"
     id="ellipse127"
     r="11"
     style="fill:none;stroke:#000000" />
  <text
     x="256.5"
     y="41.699997"
     font-size="14.00"
     id="text129"
     style="font-size:14px;font-family:Times, serif;text-anchor:middle">$\mu_d$</text>
  <path
     d="m 250.72,47.75 c -5.35,8.1 -13.46,20.37 -20.07,30.38"
     id="path134"
     inkscape:connector-curvature="0"
     style="fill:none;stroke:#000000" />
  <polygon
     points="221.12,-157.51 223.71,-167.78 229.55,-163.92 "
     id="polygon136"
     style="fill:#000000;stroke:#000000"
     transform="translate(4,244)" />
  <polygon
     points="207.5,-35 185.5,-35 185.5,-13 207.5,-13 "
     id="polygon141"
     style="fill:#808080;stroke:#000000"
     transform="translate(4,244)" />
  <text
     x="200.5"
     y="223.7"
     font-size="14.00"
     id="text143"
     style="font-size:14px;font-family:Times, serif;text-anchor:middle">$h_i$</text>
  <path
     d="m 217.62,172.32 c -2.91,7.94 -6.66,18.16 -9.91,27.02"
     id="path148"
     inkscape:connector-curvature="0"
     style="fill:none;stroke:#000000" />
  <polygon
     points="200.21,-35.11 200.36,-45.7 206.94,-43.29 "
     id="polygon150"
     style="fill:#000000;stroke:#000000"
     transform="translate(4,244)" />
  <polygon
     points="119.5,-35 97.5,-35 97.5,-13 119.5,-13 "
     id="polygon155"
     style="fill:#808080;stroke:#000000"
     transform="translate(4,244)" />
  <text
     x="112.5"
     y="223.7"
     font-size="14.00"
     id="text157"
     style="font-size:14px;font-family:Times, serif;text-anchor:middle">$f_i$</text>
  <path
     d="m 129.62,172.32 c -2.91,7.94 -6.66,18.16 -9.91,27.02"
     id="path162"
     inkscape:connector-curvature="0"
     style="fill:none;stroke:#000000" />
  <polygon
     points="112.21,-35.11 112.36,-45.7 118.94,-43.29 "
     id="polygon164"
     style="fill:#000000;stroke:#000000"
     transform="translate(4,244)" />
  <polygon
     points="185.5,-97 163.5,-97 163.5,-75 185.5,-75 "
     id="polygon169"
     style="fill:#808080;stroke:#000000"
     transform="translate(4,244)" />
  <text
     x="178.5"
     y="161.7"
     font-size="14.00"
     id="text171"
     style="font-size:14px;font-family:Times, serif;text-anchor:middle">$s_i$</text>
  <path
     d="m 182.23,169.18 c 3.02,8.24 7.37,20.08 11.06,30.16"
     id="path176"
     inkscape:connector-curvature="0"
     style="fill:none;stroke:#000000" />
  <polygon
     points="192.82,-35.03 186.09,-43.21 192.67,-45.62 "
     id="polygon178"
     style="fill:#000000;stroke:#000000"
     transform="translate(4,244)" />
  <polygon
     points="97.5,-97 75.5,-97 75.5,-75 97.5,-75 "
     id="polygon183"
     style="fill:#808080;stroke:#000000"
     transform="translate(4,244)" />
  <text
     x="90.5"
     y="161.7"
     font-size="14.00"
     id="text185"
     style="font-size:14px;font-family:Times, serif;text-anchor:middle">$n_i$</text>
  <path
     d="m 94.23,169.18 c 3.02,8.24 7.37,20.08 11.06,30.16"
     id="path190"
     inkscape:connector-curvature="0"
     style="fill:none;stroke:#000000" />
  <polygon
     points="104.82,-35.03 98.09,-43.21 104.67,-45.62 "
     id="polygon192"
     style="fill:#000000;stroke:#000000"
     transform="translate(4,244)" />
  <text
     xml:space="preserve"
     style="font-size:20px;line-height:1.25;font-family:sans-serif;letter-spacing:0px;word-spacing:0px;stroke-width:0.75"
     x="247.716"
     y="75.607399"
     id="text362"><tspan
       sodipodi:role="line"
       id="tspan360"
       x="247.716"
       y="75.607399"
       style="stroke-width:0.75">$\mu_c, \ \mu_d \sim Normal(0,0.001)$</tspan><tspan
       sodipodi:role="line"
       x="247.716"
       y="100.6074"
       style="stroke-width:0.75"
       id="tspan364">$\lambda_c, \ \lambda_d \sim Normal(0.001,0.001)$</tspan><tspan
       sodipodi:role="line"
       x="247.716"
       y="125.6074"
       style="stroke-width:0.75"
       id="tspan366">$d_i \sim Normal(\mu_d, \lambda_d)$</tspan><tspan
       sodipodi:role="line"
       x="247.716"
       y="150.60739"
       style="stroke-width:0.75"
       id="tspan368">$c_i \sim Normal(\mu_c, \lambda_c)$</tspan><tspan
       sodipodi:role="line"
       x="247.716"
       y="175.60739"
       style="stroke-width:0.75"
       id="tspan370">$\theta_i^h = \Phi(\frac{1}{2}d_i - c_i)$</tspan><tspan
       sodipodi:role="line"
       x="247.716"
       y="200.60739"
       style="stroke-width:0.75"
       id="tspan372">$\theta_i^f = \Phi(-\frac{1}{2}d_i - c_i)$</tspan><tspan
       sodipodi:role="line"
       x="247.716"
       y="225.60739"
       style="stroke-width:0.75"
       id="tspan374">$h_i \sim Binomial(\theta_i^h, s_i)$</tspan><tspan
       sodipodi:role="line"
       x="247.716"
       y="250.60739"
       style="stroke-width:0.75"
       id="tspan376">$f_i \sim Binomial(\theta_i^f, n_i)$</tspan></text>
</svg>
