<?xml version="1.0" encoding="UTF-8" standalone="no"?>
<!-- Generated by graphviz version 2.43.0 (0)
 -->

<!-- Title: G Pages: 1 -->

<svg
   xmlns:dc="http://purl.org/dc/elements/1.1/"
   xmlns:cc="http://creativecommons.org/ns#"
   xmlns:rdf="http://www.w3.org/1999/02/22-rdf-syntax-ns#"
   xmlns:svg="http://www.w3.org/2000/svg"
   xmlns="http://www.w3.org/2000/svg"
   xmlns:sodipodi="http://sodipodi.sourceforge.net/DTD/sodipodi-0.dtd"
   xmlns:inkscape="http://www.inkscape.org/namespaces/inkscape"
   width="350pt"
   height="187pt"
   viewBox="0.00 0.00 350.00 187.00"
   version="1.1"
   id="svg248"
   sodipodi:docname="model_HDDM.gv.svg"
   inkscape:version="0.92.5 (2060ec1f9f, 2020-04-08)">
  <metadata
     id="metadata254">
    <rdf:RDF>
      <cc:Work
         rdf:about="">
        <dc:format>image/svg+xml</dc:format>
        <dc:type
           rdf:resource="http://purl.org/dc/dcmitype/StillImage" />
      </cc:Work>
    </rdf:RDF>
  </metadata>
  <defs
     id="defs252" />
  <sodipodi:namedview
     pagecolor="#ffffff"
     bordercolor="#666666"
     borderopacity="1"
     objecttolerance="10"
     gridtolerance="10"
     guidetolerance="10"
     inkscape:pageopacity="0"
     inkscape:pageshadow="2"
     inkscape:window-width="1848"
     inkscape:window-height="1016"
     id="namedview250"
     showgrid="false"
     inkscape:zoom="0.84024064"
     inkscape:cx="717.12101"
     inkscape:cy="-197.05537"
     inkscape:window-x="72"
     inkscape:window-y="27"
     inkscape:window-maximized="1"
     inkscape:current-layer="svg248" />
  <polygon
     style="fill:#ffffff"
     id="polygon12"
     points="346,-183 346,4 -4,4 -4,-183 "
     stroke="transparent"
     transform="translate(4,183)" />
  <text
     style="font-size:14px;font-family:Times, serif;text-anchor:middle"
     id="text14"
     font-size="14.00"
     y="19.199997"
     x="175">Hierarchical Drift Diffusion Model (HDDM)</text>
  <path
     d="m 91,175 c 0,0 128,0 128,0 6,0 12,-6 12,-12 0,0 0,-94 0,-94 0,-6 -6,-12 -12,-12 0,0 -128,0 -128,0 -6,0 -12,6 -12,12 0,0 0,94 0,94 0,6 6,12 12,12"
     id="path18"
     inkscape:connector-curvature="0"
     style="fill:none;stroke:#000000" />
  <text
     x="110"
     y="166.7"
     font-size="14.00"
     id="text20"
     style="font-size:14px;font-family:Times, serif;text-anchor:middle">$j \ subject$</text>
  <path
     d="m 164,170 c 0,0 50,0 50,0 6,0 12,-6 12,-12 0,0 0,-31 0,-31 0,-6 -6,-12 -12,-12 0,0 -50,0 -50,0 -6,0 -12,6 -12,12 0,0 0,31 0,31 0,6 6,12 12,12"
     id="path25"
     inkscape:connector-curvature="0"
     style="fill:none;stroke:#000000" />
  <text
     x="171"
     y="167.7"
     font-size="14.00"
     id="text27"
     style="font-size:14px;font-family:Times, serif;text-anchor:middle">$i \ trial$</text>
  <circle
     cx="15"
     cy="38"
     id="ellipse32"
     r="11"
     style="fill:none;stroke:#000000" />
  <text
     x="15"
     y="41.699997"
     font-size="14.00"
     id="text34"
     style="font-size:14px;font-family:Times, serif;text-anchor:middle">$\mu_v$</text>
  <circle
     cx="95"
     cy="96"
     id="ellipse39"
     r="11"
     style="fill:none;stroke:#000000" />
  <text
     x="95"
     y="99.699997"
     font-size="14.00"
     id="text41"
     style="font-size:14px;font-family:Times, serif;text-anchor:middle">$v_j$</text>
  <path
     d="m 23.56,44.99 c 12.93,9.05 37.68,26.38 54.38,38.07"
     id="path46"
     inkscape:connector-curvature="0"
     style="fill:none;stroke:#000000" />
  <polygon
     points="82.26,-94.12 72.06,-96.99 76.07,-102.72 "
     id="polygon48"
     style="fill:#000000;stroke:#000000"
     transform="translate(4,183)" />
  <polygon
     points="217,-40 195,-40 195,-18 217,-18 "
     id="polygon53"
     style="fill:#808080;stroke:#000000"
     transform="translate(4,183)" />
  <text
     x="210"
     y="157.7"
     font-size="14.00"
     id="text55"
     style="font-size:14px;font-family:Times, serif;text-anchor:middle">$x_{ji}$</text>
  <path
     d="m 104.75,101.91 c 3.26,1.63 6.91,3.44 10.25,5.09 25.76,12.68 55.58,27.07 74.83,36.33"
     id="path60"
     inkscape:connector-curvature="0"
     style="fill:none;stroke:#000000" />
  <polygon
     points="194.86,-35.34 184.33,-36.51 187.36,-42.82 "
     id="polygon62"
     style="fill:#000000;stroke:#000000"
     transform="translate(4,183)" />
  <circle
     cx="55"
     cy="38"
     id="ellipse67"
     r="11"
     style="fill:none;stroke:#000000" />
  <text
     x="55"
     y="41.699997"
     font-size="14.00"
     id="text69"
     style="font-size:14px;font-family:Times, serif;text-anchor:middle">$\sigma_v$</text>
  <path
     d="m 61.25,47.75 c 5.79,8.1 14.55,20.37 21.7,30.38"
     id="path74"
     inkscape:connector-curvature="0"
     style="fill:none;stroke:#000000" />
  <polygon
     points="84.92,-96.51 76.26,-102.61 81.96,-106.68 "
     id="polygon76"
     style="fill:#000000;stroke:#000000"
     transform="translate(4,183)" />
  <circle
     cx="95"
     cy="38"
     id="ellipse81"
     r="11"
     style="fill:none;stroke:#000000" />
  <text
     x="95"
     y="41.699997"
     font-size="14.00"
     id="text83"
     style="font-size:14px;font-family:Times, serif;text-anchor:middle">$\mu_a$</text>
  <circle
     cx="135"
     cy="96"
     id="ellipse88"
     r="11"
     style="fill:none;stroke:#000000" />
  <text
     x="135"
     y="99.699997"
     font-size="14.00"
     id="text90"
     style="font-size:14px;font-family:Times, serif;text-anchor:middle">$a_j$</text>
  <path
     d="m 103.42,45.42 c 3.83,3.21 8.25,7.3 11.58,11.58 4.51,5.79 8.5,12.75 11.72,19.12"
     id="path95"
     inkscape:connector-curvature="0"
     style="fill:none;stroke:#000000" />
  <polygon
     points="127.08,-97.61 119.66,-105.17 125.99,-108.15 "
     id="polygon97"
     style="fill:#000000;stroke:#000000"
     transform="translate(4,183)" />
  <path
     d="m 143.31,103.21 c 11.35,8.47 32.04,23.92 47.37,35.37"
     id="path102"
     inkscape:connector-curvature="0"
     style="fill:none;stroke:#000000" />
  <polygon
     points="194.98,-38.23 184.87,-41.41 189.06,-47.01 "
     id="polygon104"
     style="fill:#000000;stroke:#000000"
     transform="translate(4,183)" />
  <circle
     cx="135"
     cy="38"
     id="ellipse109"
     r="11"
     style="fill:none;stroke:#000000" />
  <text
     x="135"
     y="41.699997"
     font-size="14.00"
     id="text111"
     style="font-size:14px;font-family:Times, serif;text-anchor:middle">$\sigma_a$</text>
  <path
     d="m 135,49.01 c 0,7.08 0,16.82 0,25.51"
     id="path116"
     inkscape:connector-curvature="0"
     style="fill:none;stroke:#000000" />
  <polygon
     points="131,-98.3 127.5,-108.3 134.5,-108.3 "
     id="polygon118"
     style="fill:#000000;stroke:#000000"
     transform="translate(4,183)" />
  <circle
     cx="175"
     cy="38"
     id="ellipse123"
     r="11"
     style="fill:none;stroke:#000000" />
  <text
     x="175"
     y="41.699997"
     font-size="14.00"
     id="text125"
     style="font-size:14px;font-family:Times, serif;text-anchor:middle">$\mu_z$</text>
  <circle
     cx="175"
     cy="96"
     id="ellipse130"
     r="11"
     style="fill:none;stroke:#000000" />
  <text
     x="175"
     y="99.699997"
     font-size="14.00"
     id="text132"
     style="font-size:14px;font-family:Times, serif;text-anchor:middle">$z_j$</text>
  <path
     d="m 175,49.01 c 0,7.08 0,16.82 0,25.51"
     id="path137"
     inkscape:connector-curvature="0"
     style="fill:none;stroke:#000000" />
  <polygon
     points="171,-98.3 167.5,-108.3 174.5,-108.3 "
     id="polygon139"
     style="fill:#000000;stroke:#000000"
     transform="translate(4,183)" />
  <path
     d="m 180.47,105.75 c 4.78,7.65 11.88,19 17.92,28.67"
     id="path144"
     inkscape:connector-curvature="0"
     style="fill:none;stroke:#000000" />
  <polygon
     points="199.74,-40.01 191.47,-46.64 197.41,-50.35 "
     id="polygon146"
     style="fill:#000000;stroke:#000000"
     transform="translate(4,183)" />
  <circle
     cx="215"
     cy="38"
     id="ellipse151"
     r="11"
     style="fill:none;stroke:#000000" />
  <text
     x="215"
     y="41.699997"
     font-size="14.00"
     id="text153"
     style="font-size:14px;font-family:Times, serif;text-anchor:middle">$\sigma_z$</text>
  <path
     d="m 206.58,45.42 c -3.83,3.21 -8.25,7.3 -11.58,11.58 -4.51,5.79 -8.5,12.75 -11.72,19.12"
     id="path158"
     inkscape:connector-curvature="0"
     style="fill:none;stroke:#000000" />
  <polygon
     points="174.92,-97.61 176.01,-108.15 182.34,-105.17 "
     id="polygon160"
     style="fill:#000000;stroke:#000000"
     transform="translate(4,183)" />
  <circle
     cx="255"
     cy="38"
     id="ellipse165"
     r="11"
     style="fill:none;stroke:#000000" />
  <text
     x="255"
     y="41.699997"
     font-size="14.00"
     id="text167"
     style="font-size:14px;font-family:Times, serif;text-anchor:middle">$\mu_{ndt}$</text>
  <circle
     cx="215"
     cy="96"
     id="ellipse172"
     r="11"
     style="fill:none;stroke:#000000" />
  <text
     x="215"
     y="99.699997"
     font-size="14.00"
     id="text174"
     style="font-size:14px;font-family:Times, serif;text-anchor:middle">$ndt_j$</text>
  <path
     d="m 246.58,45.42 c -3.83,3.21 -8.25,7.3 -11.58,11.58 -4.51,5.79 -8.5,12.75 -11.72,19.12"
     id="path179"
     inkscape:connector-curvature="0"
     style="fill:none;stroke:#000000" />
  <polygon
     points="214.92,-97.61 216.01,-108.15 222.34,-105.17 "
     id="polygon181"
     style="fill:#000000;stroke:#000000"
     transform="translate(4,183)" />
  <path
     d="m 214.11,107.01 c -0.64,7.08 -1.51,16.82 -2.28,25.51"
     id="path186"
     inkscape:connector-curvature="0"
     style="fill:none;stroke:#000000" />
  <polygon
     points="206.92,-40.3 204.32,-50.58 211.3,-49.95 "
     id="polygon188"
     style="fill:#000000;stroke:#000000"
     transform="translate(4,183)" />
  <circle
     cx="295"
     cy="38"
     id="ellipse193"
     r="11"
     style="fill:none;stroke:#000000" />
  <text
     x="295"
     y="41.699997"
     font-size="14.00"
     id="text195"
     style="font-size:14px;font-family:Times, serif;text-anchor:middle">$\sigma_{ndt}$</text>
  <path
     d="m 285.86,44.21 c -3.33,1.73 -7.19,3.53 -10.86,4.79 -17.15,5.88 -25.48,-2.85 -40,8 -6.18,4.62 -10.63,11.71 -13.74,18.52"
     id="path200"
     inkscape:connector-curvature="0"
     style="fill:none;stroke:#000000" />
  <polygon
     points="213.62,-98.02 213.94,-108.61 220.48,-106.09 "
     id="polygon202"
     style="fill:#000000;stroke:#000000"
     transform="translate(4,183)" />
  <circle
     cx="255"
     cy="96"
     id="ellipse207"
     r="11"
     style="fill:none;stroke:#000000" />
  <text
     x="255"
     y="99.699997"
     font-size="14.00"
     id="text209"
     style="font-size:14px;font-family:Times, serif;text-anchor:middle">$s_v$</text>
  <path
     d="m 248.36,105.26 c -6.26,7.8 -15.87,19.75 -23.9,29.74"
     id="path214"
     inkscape:connector-curvature="0"
     style="fill:none;stroke:#000000" />
  <polygon
     points="214.19,-40.2 217.73,-50.19 223.19,-45.8 "
     id="polygon216"
     style="fill:#000000;stroke:#000000"
     transform="translate(4,183)" />
  <circle
     cx="295"
     cy="96"
     id="ellipse221"
     r="11"
     style="fill:none;stroke:#000000" />
  <text
     x="295"
     y="99.699997"
     font-size="14.00"
     id="text223"
     style="font-size:14px;font-family:Times, serif;text-anchor:middle">$s_z$</text>
  <path
     d="M 286.22,102.78 C 273,111.49 247.63,128.21 229.8,139.95"
     id="path228"
     inkscape:connector-curvature="0"
     style="fill:none;stroke:#000000" />
  <polygon
     points="217.27,-37.43 223.7,-45.85 227.55,-40.01 "
     id="polygon230"
     style="fill:#000000;stroke:#000000"
     transform="translate(4,183)" />
  <circle
     cx="335"
     cy="96"
     id="ellipse235"
     r="11"
     style="fill:none;stroke:#000000" />
  <text
     x="335"
     y="99.699997"
     font-size="14.00"
     id="text237"
     style="font-size:14px;font-family:Times, serif;text-anchor:middle">$s_{ndt}$</text>
  <path
     d="m 325.28,101.98 c -3.25,1.64 -6.91,3.44 -10.28,5.02 -29.11,13.65 -63.3,28.39 -84.56,37.41"
     id="path242"
     inkscape:connector-curvature="0"
     style="fill:none;stroke:#000000" />
  <polygon
     points="217.12,-34.65 224.97,-41.77 227.69,-35.32 "
     id="polygon244"
     style="fill:#000000;stroke:#000000"
     transform="translate(4,183)" />
  <text
     xml:space="preserve"
     style="font-size:20px;line-height:1.25;font-family:sans-serif;letter-spacing:0px;word-spacing:0px;stroke-width:0.75"
     x="-2.6778045"
     y="203.06683"
     id="text458"><tspan
       sodipodi:role="line"
       id="tspan456"
       x="-2.6778045"
       y="203.06683"
       style="stroke-width:0.75">$ \mu_v \sim Normal(2,3)$</tspan><tspan
       sodipodi:role="line"
       x="-2.6778045"
       y="228.06683"
       style="stroke-width:0.75"
       id="tspan460">$ \sigma_v \sim Half \ Normal(0,2)$</tspan><tspan
       sodipodi:role="line"
       x="-2.6778045"
       y="253.06683"
       style="stroke-width:0.75"
       id="tspan462">$ \mu_a \sim Normal(1.5,0.75)$</tspan><tspan
       sodipodi:role="line"
       x="-2.6778045"
       y="278.06683"
       style="stroke-width:0.75"
       id="tspan464">$ \sigma_a \sim Half \ Normal(0,0.1)$</tspan><tspan
       sodipodi:role="line"
       x="-2.6778045"
       y="303.06683"
       style="stroke-width:0.75"
       id="tspan466">$ \mu_z \sim Normal(0.5,0.5)$</tspan><tspan
       sodipodi:role="line"
       x="-2.6778045"
       y="328.06683"
       style="stroke-width:0.75"
       id="tspan468">$ \sigma_z \sim Half \ Normal(0,0.05)$</tspan><tspan
       sodipodi:role="line"
       x="-2.6778045"
       y="353.06683"
       style="stroke-width:0.75"
       id="tspan470">$ \mu_{ndt} \sim Normal(0.4,0.2)$</tspan><tspan
       sodipodi:role="line"
       x="-2.6778045"
       y="378.06683"
       style="stroke-width:0.75"
       id="tspan472">$ \sigma_{ndt} \sim Half \ Normal(0,1)$</tspan><tspan
       sodipodi:role="line"
       x="-2.6778045"
       y="403.06683"
       style="stroke-width:0.75"
       id="tspan474">$ s_v \sim Half \ Normal(0,2)$</tspan><tspan
       sodipodi:role="line"
       x="-2.6778045"
       y="428.06683"
       style="stroke-width:0.75"
       id="tspan476">$ s_z \sim Beta(1,3)$</tspan><tspan
       sodipodi:role="line"
       x="-2.6778045"
       y="453.06683"
       style="stroke-width:0.75"
       id="tspan478">$ s_{ndt} \sim Half \ Normal(0,0.3)$</tspan><tspan
       sodipodi:role="line"
       x="-2.6778045"
       y="478.06683"
       style="stroke-width:0.75"
       id="tspan480">$ a_j \sim \Gamma(\mu_a, \sigma_a^2)$</tspan><tspan
       sodipodi:role="line"
       x="-2.6778045"
       y="503.06683"
       style="stroke-width:0.75"
       id="tspan482">$ v_j \sim Normal(\mu_v, \sigma_v^2)$</tspan><tspan
       sodipodi:role="line"
       x="-2.6778045"
       y="528.06683"
       style="stroke-width:0.75"
       id="tspan484">$ z_j \sim invlogit(Normal(\mu_z, \sigma_z^2))$</tspan><tspan
       sodipodi:role="line"
       x="-2.6778045"
       y="553.06683"
       style="stroke-width:0.75"
       id="tspan486">$ ndt_j \sim Normal(\mu_{ndt}, \sigma_{ndt}^2)$</tspan><tspan
       sodipodi:role="line"
       x="-2.6778045"
       y="578.06683"
       style="stroke-width:0.75"
       id="tspan488">$ x_{ji} \sim \frac{\pi}{a_j^2} e^{\left( -v_j a_j z_j - \frac{v_j^2x}{2} \right)} \times \sum\limits_{k=1}^{\infty} k e^{\left(-\frac{k^2\pi^2x}{2a_j^2}\right)} sin(k \pi z_j)$</tspan><tspan
       sodipodi:role="line"
       x="-2.6778045"
       y="603.06683"
       style="stroke-width:0.75"
       id="tspan490" /></text>
</svg>
