<?xml version="1.0" encoding="UTF-8" standalone="no"?>
<!-- Generated by graphviz version 2.43.0 (0)
 -->

<!-- Title: G Pages: 1 -->

<svg
   xmlns:dc="http://purl.org/dc/elements/1.1/"
   xmlns:cc="http://creativecommons.org/ns#"
   xmlns:rdf="http://www.w3.org/1999/02/22-rdf-syntax-ns#"
   xmlns:svg="http://www.w3.org/2000/svg"
   xmlns="http://www.w3.org/2000/svg"
   xmlns:sodipodi="http://sodipodi.sourceforge.net/DTD/sodipodi-0.dtd"
   xmlns:inkscape="http://www.inkscape.org/namespaces/inkscape"
   width="242pt"
   height="226pt"
   viewBox="0.00 0.00 242.00 226.00"
   version="1.1"
   id="svg348"
   sodipodi:docname="model_SDT.gv.svg"
   inkscape:version="0.92.5 (2060ec1f9f, 2020-04-08)">
  <metadata
     id="metadata354">
    <rdf:RDF>
      <cc:Work
         rdf:about="">
        <dc:format>image/svg+xml</dc:format>
        <dc:type
           rdf:resource="http://purl.org/dc/dcmitype/StillImage" />
      </cc:Work>
    </rdf:RDF>
  </metadata>
  <defs
     id="defs352" />
  <sodipodi:namedview
     pagecolor="#ffffff"
     bordercolor="#666666"
     borderopacity="1"
     objecttolerance="10"
     gridtolerance="10"
     guidetolerance="10"
     inkscape:pageopacity="0"
     inkscape:pageshadow="2"
     inkscape:window-width="1848"
     inkscape:window-height="1016"
     id="namedview350"
     showgrid="false"
     inkscape:zoom="1.3904867"
     inkscape:cx="421.83383"
     inkscape:cy="129.81549"
     inkscape:window-x="72"
     inkscape:window-y="27"
     inkscape:window-maximized="1"
     inkscape:current-layer="svg348" />
  <text
     style="font-size:14px;font-family:Times, serif;text-anchor:middle"
     id="text222"
     font-size="14.00"
     y="19.199997"
     x="121">Signal Detection Theory (SDT)</text>
  <path
     d="m 49,214 c 0,0 144,0 144,0 6,0 12,-6 12,-12 0,0 0,-155 0,-155 0,-6 -6,-12 -12,-12 0,0 -144,0 -144,0 -6,0 -12,6 -12,12 0,0 0,155 0,155 0,6 6,12 12,12"
     id="path226"
     inkscape:connector-curvature="0"
     style="fill:none;stroke:#000000" />
  <text
     x="82.5"
     y="50.199997"
     font-size="14.00"
     id="text228"
     style="font-size:14px;font-family:Times, serif;text-anchor:middle">$i \ data \ sets$</text>
  <g
     class="node"
     id="node1"
     transform="translate(4,222)">
    <title
       id="title231">c</title>
    <circle
       style="fill:none;stroke:#000000"
       r="11"
       id="ellipse233"
       cy="-148"
       cx="169" />
    <text
       style="font-size:14px;font-family:Times, serif;text-anchor:middle"
       id="text235"
       font-size="14.00"
       y="-144.3"
       x="169">$c_i$</text>
  </g>
  <g
     class="node"
     id="node2"
     transform="translate(4,222)">
    <title
       id="title238">theta_h</title>
    <circle
       style="fill:none;stroke:#000000"
       r="11"
       id="ellipse240"
       cy="-86"
       cx="181" />
    <circle
       style="fill:none;stroke:#000000"
       r="15"
       id="ellipse242"
       cy="-86"
       cx="181" />
    <text
       style="font-size:14px;font-family:Times, serif;text-anchor:middle"
       id="text244"
       font-size="14.00"
       y="-82.300003"
       x="181">$\theta_i^h$</text>
  </g>
  <g
     class="edge"
     id="edge1"
     transform="translate(4,222)">
    <title
       id="title247">c-&gt;theta_h</title>
    <path
       style="fill:none;stroke:#000000"
       inkscape:connector-curvature="0"
       id="path249"
       d="m 170.98,-137.09 c 1.43,7.16 3.43,17.14 5.26,26.31" />
    <polygon
       style="fill:#000000;stroke:#000000"
       id="polygon251"
       points="172.81,-110.08 179.68,-111.46 178.21,-100.96 " />
  </g>
  <g
     class="node"
     id="node3"
     transform="translate(4,222)">
    <title
       id="title254">theta_f</title>
    <circle
       style="fill:none;stroke:#000000"
       r="11"
       id="ellipse256"
       cy="-86"
       cx="93" />
    <circle
       style="fill:none;stroke:#000000"
       r="15"
       id="ellipse258"
       cy="-86"
       cx="93" />
    <text
       style="font-size:14px;font-family:Times, serif;text-anchor:middle"
       id="text260"
       font-size="14.00"
       y="-82.300003"
       x="93">$\theta_i^f$</text>
  </g>
  <g
     class="edge"
     id="edge2"
     transform="translate(4,222)">
    <title
       id="title263">c-&gt;theta_f</title>
    <path
       style="fill:none;stroke:#000000"
       inkscape:connector-curvature="0"
       id="path265"
       d="m 160.87,-140.58 c -11.44,9.03 -32.63,25.76 -48.3,38.13" />
    <polygon
       style="fill:#000000;stroke:#000000"
       id="polygon267"
       points="110.21,-105.04 114.54,-99.55 104.53,-96.1 " />
  </g>
  <g
     class="node"
     id="node6"
     transform="translate(4,222)">
    <title
       id="title270">h</title>
    <polygon
       style="fill:#808080;stroke:#000000"
       id="polygon272"
       points="148,-13 170,-13 170,-35 148,-35 " />
    <text
       style="font-size:14px;font-family:Times, serif;text-anchor:middle"
       id="text274"
       font-size="14.00"
       y="-20.299999"
       x="159">$h_i$</text>
  </g>
  <g
     class="edge"
     id="edge6"
     transform="translate(4,222)">
    <title
       id="title277">theta_h-&gt;h</title>
    <path
       style="fill:none;stroke:#000000"
       inkscape:connector-curvature="0"
       id="path279"
       d="m 176.12,-71.68 c -2.91,7.94 -6.66,18.16 -9.91,27.02" />
    <polygon
       style="fill:#000000;stroke:#000000"
       id="polygon281"
       points="162.86,-45.7 169.44,-43.29 162.71,-35.11 " />
  </g>
  <g
     class="node"
     id="node5"
     transform="translate(4,222)">
    <title
       id="title284">f</title>
    <polygon
       style="fill:#808080;stroke:#000000"
       id="polygon286"
       points="60,-13 82,-13 82,-35 60,-35 " />
    <text
       style="font-size:14px;font-family:Times, serif;text-anchor:middle"
       id="text288"
       font-size="14.00"
       y="-20.299999"
       x="71">$f_i$</text>
  </g>
  <g
     class="edge"
     id="edge5"
     transform="translate(4,222)">
    <title
       id="title291">theta_f-&gt;f</title>
    <path
       style="fill:none;stroke:#000000"
       inkscape:connector-curvature="0"
       id="path293"
       d="m 88.12,-71.68 c -2.91,7.94 -6.66,18.16 -9.91,27.02" />
    <polygon
       style="fill:#000000;stroke:#000000"
       id="polygon295"
       points="74.86,-45.7 81.44,-43.29 74.71,-35.11 " />
  </g>
  <g
     class="node"
     id="node4"
     transform="translate(4,222)">
    <title
       id="title298">d</title>
    <circle
       style="fill:none;stroke:#000000"
       r="11"
       id="ellipse300"
       cy="-148"
       cx="105" />
    <text
       style="font-size:14px;font-family:Times, serif;text-anchor:middle"
       id="text302"
       font-size="14.00"
       y="-144.3"
       x="105">$d_i$</text>
  </g>
  <g
     class="edge"
     id="edge3"
     transform="translate(4,222)">
    <title
       id="title305">d-&gt;theta_h</title>
    <path
       style="fill:none;stroke:#000000"
       inkscape:connector-curvature="0"
       id="path307"
       d="m 113.13,-140.58 c 11.44,9.03 32.63,25.76 48.3,38.13" />
    <polygon
       style="fill:#000000;stroke:#000000"
       id="polygon309"
       points="159.46,-99.55 163.79,-105.04 169.47,-96.1 " />
  </g>
  <g
     class="edge"
     id="edge4"
     transform="translate(4,222)">
    <title
       id="title312">d-&gt;theta_f</title>
    <path
       style="fill:none;stroke:#000000"
       inkscape:connector-curvature="0"
       id="path314"
       d="m 103.02,-137.09 c -1.43,7.16 -3.43,17.14 -5.26,26.31" />
    <polygon
       style="fill:#000000;stroke:#000000"
       id="polygon316"
       points="94.32,-111.46 101.19,-110.08 95.79,-100.96 " />
  </g>
  <g
     class="node"
     id="node7"
     transform="translate(4,222)">
    <title
       id="title319">s</title>
    <polygon
       style="fill:#808080;stroke:#000000"
       id="polygon321"
       points="126,-75 148,-75 148,-97 126,-97 " />
    <text
       style="font-size:14px;font-family:Times, serif;text-anchor:middle"
       id="text323"
       font-size="14.00"
       y="-82.300003"
       x="137">$s_i$</text>
  </g>
  <g
     class="edge"
     id="edge7"
     transform="translate(4,222)">
    <title
       id="title326">s-&gt;h</title>
    <path
       style="fill:none;stroke:#000000"
       inkscape:connector-curvature="0"
       id="path328"
       d="m 140.73,-74.82 c 3.02,8.24 7.37,20.08 11.06,30.16" />
    <polygon
       style="fill:#000000;stroke:#000000"
       id="polygon330"
       points="148.59,-43.21 155.17,-45.62 155.32,-35.03 " />
  </g>
  <g
     class="node"
     id="node8"
     transform="translate(4,222)">
    <title
       id="title333">n</title>
    <polygon
       style="fill:#808080;stroke:#000000"
       id="polygon335"
       points="38,-75 60,-75 60,-97 38,-97 " />
    <text
       style="font-size:14px;font-family:Times, serif;text-anchor:middle"
       id="text337"
       font-size="14.00"
       y="-82.300003"
       x="49">$n_i$</text>
  </g>
  <g
     class="edge"
     id="edge8"
     transform="translate(4,222)">
    <title
       id="title340">n-&gt;f</title>
    <path
       style="fill:none;stroke:#000000"
       inkscape:connector-curvature="0"
       id="path342"
       d="m 52.73,-74.82 c 3.02,8.24 7.37,20.08 11.06,30.16" />
    <polygon
       style="fill:#000000;stroke:#000000"
       id="polygon344"
       points="60.59,-43.21 67.17,-45.62 67.32,-35.03 " />
  </g>
  <text
     xml:space="preserve"
     style="font-size:20px;line-height:1.25;font-family:sans-serif;letter-spacing:0px;word-spacing:0px;stroke-width:0.75"
     x="208.86279"
     y="52.99284"
     id="text358"><tspan
       sodipodi:role="line"
       id="tspan356"
       x="208.86279"
       y="52.99284"
       style="stroke-width:0.75">$d_i \sim Normal(0, \frac{1}{2})$</tspan><tspan
       sodipodi:role="line"
       x="208.86279"
       y="77.992844"
       style="stroke-width:0.75"
       id="tspan360">$c_i \sim Normal(0,2)$</tspan><tspan
       sodipodi:role="line"
       x="208.86279"
       y="102.99284"
       style="stroke-width:0.75"
       id="tspan362">$\theta_i^h = \Phi(\frac{1}{2}d_i - c_i)$</tspan><tspan
       sodipodi:role="line"
       x="208.86279"
       y="127.99284"
       style="stroke-width:0.75"
       id="tspan364">$\theta_i^f = \Phi(-\frac{1}{2}d_i - c_i)$</tspan><tspan
       sodipodi:role="line"
       x="208.86279"
       y="152.99284"
       style="stroke-width:0.75"
       id="tspan366">$h_i \sim Binomial(\theta_i^h, s_i)$</tspan><tspan
       sodipodi:role="line"
       x="208.86279"
       y="177.99284"
       style="stroke-width:0.75"
       id="tspan368">$h_i \sim Binomial(\theta_i^f, n_i)$</tspan></text>
</svg>
